ISO-10303-21;
HEADER;
/* Generated by software containing ST-Developer
 * from STEP Tools, Inc. (www.steptools.com) 
 */

FILE_DESCRIPTION(
/* description */ (''),
/* implementation_level */ '2;1');

FILE_NAME(
/* name */ 'pannel_push_sw.stp',
/* time_stamp */ '2026-01-23T14:53:12+09:00',
/* author */ ('hibik'),
/* organization */ (''),
/* preprocessor_version */ 'ST-DEVELOPER v20.1',
/* originating_system */ 'Autodesk Inventor 2026',
/* authorisation */ '');

FILE_SCHEMA (('AUTOMOTIVE_DESIGN { 1 0 10303 214 3 1 1 }'));
ENDSEC;

DATA;
#10=MECHANICAL_DESIGN_GEOMETRIC_PRESENTATION_REPRESENTATION('',(#142,#143,
#144,#145,#146,#147,#148,#149,#150),#309);
#11=SHAPE_REPRESENTATION_RELATIONSHIP('SRR','None',#316,#12);
#12=ADVANCED_BREP_SHAPE_REPRESENTATION('',(#13),#308);
#13=MANIFOLD_SOLID_BREP('\X2\30BD30EA30C330C9\X0\1',#162);
#14=FACE_BOUND('',#53,.T.);
#15=FACE_BOUND('',#57,.T.);
#16=FACE_BOUND('',#59,.T.);
#17=CONICAL_SURFACE('',#193,7.47,1.10714871779409);
#18=PLANE('',#192);
#19=PLANE('',#197);
#20=PLANE('',#203);
#21=PLANE('',#204);
#22=PLANE('',#208);
#23=LINE('',#275,#28);
#24=LINE('',#284,#29);
#25=LINE('',#291,#30);
#26=LINE('',#296,#31);
#27=LINE('',#303,#32);
#28=VECTOR('',#223,6.885);
#29=VECTOR('',#234,7.47);
#30=VECTOR('',#243,9.47);
#31=VECTOR('',#250,5.1);
#32=VECTOR('',#259,5.1);
#33=CYLINDRICAL_SURFACE('',#190,6.885);
#34=CYLINDRICAL_SURFACE('',#199,9.47);
#35=CYLINDRICAL_SURFACE('',#201,5.1);
#36=CYLINDRICAL_SURFACE('',#206,5.1);
#37=FACE_OUTER_BOUND('',#48,.T.);
#38=FACE_OUTER_BOUND('',#49,.T.);
#39=FACE_OUTER_BOUND('',#50,.T.);
#40=FACE_OUTER_BOUND('',#51,.T.);
#41=FACE_OUTER_BOUND('',#52,.T.);
#42=FACE_OUTER_BOUND('',#54,.T.);
#43=FACE_OUTER_BOUND('',#55,.T.);
#44=FACE_OUTER_BOUND('',#56,.T.);
#45=FACE_OUTER_BOUND('',#58,.T.);
#46=FACE_OUTER_BOUND('',#60,.T.);
#47=FACE_OUTER_BOUND('',#61,.T.);
#48=EDGE_LOOP('',(#105,#106,#107,#108,#109));
#49=EDGE_LOOP('',(#110,#111,#112,#113,#114));
#50=EDGE_LOOP('',(#115));
#51=EDGE_LOOP('',(#116,#117,#118,#119,#120));
#52=EDGE_LOOP('',(#121));
#53=EDGE_LOOP('',(#122));
#54=EDGE_LOOP('',(#123,#124,#125,#126,#127));
#55=EDGE_LOOP('',(#128,#129,#130,#131));
#56=EDGE_LOOP('',(#132));
#57=EDGE_LOOP('',(#133));
#58=EDGE_LOOP('',(#134));
#59=EDGE_LOOP('',(#135));
#60=EDGE_LOOP('',(#136,#137,#138,#139));
#61=EDGE_LOOP('',(#140));
#62=CIRCLE('',#186,4.885);
#63=CIRCLE('',#187,2.);
#64=CIRCLE('',#188,6.885);
#65=CIRCLE('',#189,6.885);
#66=CIRCLE('',#191,6.885);
#67=CIRCLE('',#194,9.47);
#68=CIRCLE('',#195,9.47);
#69=CIRCLE('',#196,5.47);
#70=CIRCLE('',#198,5.1);
#71=CIRCLE('',#200,9.47);
#72=CIRCLE('',#202,5.1);
#73=CIRCLE('',#205,5.1);
#74=CIRCLE('',#207,5.1);
#75=VERTEX_POINT('',#266);
#76=VERTEX_POINT('',#268);
#77=VERTEX_POINT('',#270);
#78=VERTEX_POINT('',#274);
#79=VERTEX_POINT('',#279);
#80=VERTEX_POINT('',#280);
#81=VERTEX_POINT('',#283);
#82=VERTEX_POINT('',#287);
#83=VERTEX_POINT('',#290);
#84=VERTEX_POINT('',#294);
#85=VERTEX_POINT('',#299);
#86=VERTEX_POINT('',#302);
#87=EDGE_CURVE('',#75,#75,#62,.T.);
#88=EDGE_CURVE('',#75,#76,#63,.T.);
#89=EDGE_CURVE('',#76,#77,#64,.T.);
#90=EDGE_CURVE('',#77,#76,#65,.T.);
#91=EDGE_CURVE('',#77,#78,#23,.T.);
#92=EDGE_CURVE('',#78,#78,#66,.T.);
#93=EDGE_CURVE('',#79,#80,#67,.T.);
#94=EDGE_CURVE('',#80,#79,#68,.T.);
#95=EDGE_CURVE('',#79,#81,#24,.T.);
#96=EDGE_CURVE('',#81,#81,#69,.T.);
#97=EDGE_CURVE('',#82,#82,#70,.T.);
#98=EDGE_CURVE('',#80,#83,#25,.T.);
#99=EDGE_CURVE('',#83,#83,#71,.T.);
#100=EDGE_CURVE('',#84,#84,#72,.T.);
#101=EDGE_CURVE('',#84,#82,#26,.T.);
#102=EDGE_CURVE('',#85,#85,#73,.T.);
#103=EDGE_CURVE('',#85,#86,#27,.T.);
#104=EDGE_CURVE('',#86,#86,#74,.T.);
#105=ORIENTED_EDGE('',*,*,#87,.T.);
#106=ORIENTED_EDGE('',*,*,#88,.T.);
#107=ORIENTED_EDGE('',*,*,#89,.T.);
#108=ORIENTED_EDGE('',*,*,#90,.T.);
#109=ORIENTED_EDGE('',*,*,#88,.F.);
#110=ORIENTED_EDGE('',*,*,#90,.F.);
#111=ORIENTED_EDGE('',*,*,#91,.T.);
#112=ORIENTED_EDGE('',*,*,#92,.F.);
#113=ORIENTED_EDGE('',*,*,#91,.F.);
#114=ORIENTED_EDGE('',*,*,#89,.F.);
#115=ORIENTED_EDGE('',*,*,#87,.F.);
#116=ORIENTED_EDGE('',*,*,#93,.T.);
#117=ORIENTED_EDGE('',*,*,#94,.T.);
#118=ORIENTED_EDGE('',*,*,#95,.T.);
#119=ORIENTED_EDGE('',*,*,#96,.T.);
#120=ORIENTED_EDGE('',*,*,#95,.F.);
#121=ORIENTED_EDGE('',*,*,#96,.F.);
#122=ORIENTED_EDGE('',*,*,#97,.F.);
#123=ORIENTED_EDGE('',*,*,#93,.F.);
#124=ORIENTED_EDGE('',*,*,#94,.F.);
#125=ORIENTED_EDGE('',*,*,#98,.T.);
#126=ORIENTED_EDGE('',*,*,#99,.T.);
#127=ORIENTED_EDGE('',*,*,#98,.F.);
#128=ORIENTED_EDGE('',*,*,#100,.T.);
#129=ORIENTED_EDGE('',*,*,#101,.T.);
#130=ORIENTED_EDGE('',*,*,#97,.T.);
#131=ORIENTED_EDGE('',*,*,#101,.F.);
#132=ORIENTED_EDGE('',*,*,#92,.T.);
#133=ORIENTED_EDGE('',*,*,#100,.F.);
#134=ORIENTED_EDGE('',*,*,#99,.F.);
#135=ORIENTED_EDGE('',*,*,#102,.T.);
#136=ORIENTED_EDGE('',*,*,#102,.F.);
#137=ORIENTED_EDGE('',*,*,#103,.T.);
#138=ORIENTED_EDGE('',*,*,#104,.T.);
#139=ORIENTED_EDGE('',*,*,#103,.F.);
#140=ORIENTED_EDGE('',*,*,#104,.F.);
#141=TOROIDAL_SURFACE('',#185,4.885,2.);
#142=STYLED_ITEM('',(#326),#151);
#143=STYLED_ITEM('',(#326),#152);
#144=STYLED_ITEM('',(#326),#153);
#145=STYLED_ITEM('',(#327),#154);
#146=STYLED_ITEM('',(#327),#155);
#147=STYLED_ITEM('',(#327),#156);
#148=STYLED_ITEM('',(#326),#158);
#149=STYLED_ITEM('',(#327),#159);
#150=STYLED_ITEM('',(#326),#13);
#151=ADVANCED_FACE('',(#37),#141,.T.);
#152=ADVANCED_FACE('',(#38),#33,.T.);
#153=ADVANCED_FACE('',(#39),#18,.T.);
#154=ADVANCED_FACE('',(#40),#17,.T.);
#155=ADVANCED_FACE('',(#41,#14),#19,.T.);
#156=ADVANCED_FACE('',(#42),#34,.T.);
#157=ADVANCED_FACE('',(#43),#35,.T.);
#158=ADVANCED_FACE('',(#44,#15),#20,.F.);
#159=ADVANCED_FACE('',(#45,#16),#21,.F.);
#160=ADVANCED_FACE('',(#46),#36,.T.);
#161=ADVANCED_FACE('',(#47),#22,.F.);
#162=CLOSED_SHELL('',(#151,#152,#153,#154,#155,#156,#157,#158,#159,#160,
#161));
#163=DERIVED_UNIT_ELEMENT(#166,1.);
#164=DERIVED_UNIT_ELEMENT(#311,-3.);
#165=DIMENSIONAL_EXPONENTS(0.,1.,0.,0.,0.,0.,0.);
#166=(
CONVERSION_BASED_UNIT('gram',#168)
MASS_UNIT()
NAMED_UNIT(#165)
);
#167=(
MASS_UNIT()
NAMED_UNIT(*)
SI_UNIT(.KILO.,.GRAM.)
);
#168=MASS_MEASURE_WITH_UNIT(MASS_MEASURE(0.001),#167);
#169=DERIVED_UNIT((#163,#164));
#170=MEASURE_REPRESENTATION_ITEM('density measure',
POSITIVE_RATIO_MEASURE(1.),#169);
#171=PROPERTY_DEFINITION_REPRESENTATION(#176,#173);
#172=PROPERTY_DEFINITION_REPRESENTATION(#177,#174);
#173=REPRESENTATION('material name',(#175),#308);
#174=REPRESENTATION('density',(#170),#308);
#175=DESCRIPTIVE_REPRESENTATION_ITEM('\X2\4E00822C\X0\','\X2\4E00822C\X0\');
#176=PROPERTY_DEFINITION('material property','material name',#318);
#177=PROPERTY_DEFINITION('material property','density of part',#318);
#178=DATE_TIME_ROLE('creation_date');
#179=APPLIED_DATE_AND_TIME_ASSIGNMENT(#180,#178,(#318));
#180=DATE_AND_TIME(#181,#182);
#181=CALENDAR_DATE(2026,19,1);
#182=LOCAL_TIME(0,0,0.,#183);
#183=COORDINATED_UNIVERSAL_TIME_OFFSET(0,0,.BEHIND.);
#184=AXIS2_PLACEMENT_3D('',#264,#209,#210);
#185=AXIS2_PLACEMENT_3D('',#265,#211,#212);
#186=AXIS2_PLACEMENT_3D('',#267,#213,#214);
#187=AXIS2_PLACEMENT_3D('',#269,#215,#216);
#188=AXIS2_PLACEMENT_3D('',#271,#217,#218);
#189=AXIS2_PLACEMENT_3D('',#272,#219,#220);
#190=AXIS2_PLACEMENT_3D('',#273,#221,#222);
#191=AXIS2_PLACEMENT_3D('',#276,#224,#225);
#192=AXIS2_PLACEMENT_3D('',#277,#226,#227);
#193=AXIS2_PLACEMENT_3D('',#278,#228,#229);
#194=AXIS2_PLACEMENT_3D('',#281,#230,#231);
#195=AXIS2_PLACEMENT_3D('',#282,#232,#233);
#196=AXIS2_PLACEMENT_3D('',#285,#235,#236);
#197=AXIS2_PLACEMENT_3D('',#286,#237,#238);
#198=AXIS2_PLACEMENT_3D('',#288,#239,#240);
#199=AXIS2_PLACEMENT_3D('',#289,#241,#242);
#200=AXIS2_PLACEMENT_3D('',#292,#244,#245);
#201=AXIS2_PLACEMENT_3D('',#293,#246,#247);
#202=AXIS2_PLACEMENT_3D('',#295,#248,#249);
#203=AXIS2_PLACEMENT_3D('',#297,#251,#252);
#204=AXIS2_PLACEMENT_3D('',#298,#253,#254);
#205=AXIS2_PLACEMENT_3D('',#300,#255,#256);
#206=AXIS2_PLACEMENT_3D('',#301,#257,#258);
#207=AXIS2_PLACEMENT_3D('',#304,#260,#261);
#208=AXIS2_PLACEMENT_3D('',#305,#262,#263);
#209=DIRECTION('axis',(0.,0.,1.));
#210=DIRECTION('refdir',(1.,0.,0.));
#211=DIRECTION('center_axis',(0.,1.,0.));
#212=DIRECTION('ref_axis',(0.,0.,1.));
#213=DIRECTION('center_axis',(0.,-1.,0.));
#214=DIRECTION('ref_axis',(-1.,0.,-1.22464679914735E-16));
#215=DIRECTION('center_axis',(-1.,0.,1.22464679914735E-16));
#216=DIRECTION('ref_axis',(-1.22464679914735E-16,0.,-1.));
#217=DIRECTION('center_axis',(0.,1.,0.));
#218=DIRECTION('ref_axis',(-1.,0.,-1.22464679914735E-16));
#219=DIRECTION('center_axis',(0.,1.,0.));
#220=DIRECTION('ref_axis',(-1.,0.,-1.22464679914735E-16));
#221=DIRECTION('center_axis',(0.,1.,0.));
#222=DIRECTION('ref_axis',(1.,0.,0.));
#223=DIRECTION('',(0.,-1.,0.));
#224=DIRECTION('center_axis',(0.,-1.,0.));
#225=DIRECTION('ref_axis',(1.,0.,0.));
#226=DIRECTION('center_axis',(0.,1.,0.));
#227=DIRECTION('ref_axis',(0.,0.,1.));
#228=DIRECTION('center_axis',(0.,-1.,0.));
#229=DIRECTION('ref_axis',(-1.,0.,0.));
#230=DIRECTION('center_axis',(0.,1.,0.));
#231=DIRECTION('ref_axis',(-1.,0.,0.));
#232=DIRECTION('center_axis',(0.,1.,0.));
#233=DIRECTION('ref_axis',(-1.,0.,0.));
#234=DIRECTION('',(-0.894427190999916,0.447213595499958,-1.09535739652841E-16));
#235=DIRECTION('center_axis',(0.,-1.,0.));
#236=DIRECTION('ref_axis',(-1.,0.,0.));
#237=DIRECTION('center_axis',(0.,1.,0.));
#238=DIRECTION('ref_axis',(0.,0.,1.));
#239=DIRECTION('center_axis',(0.,1.,0.));
#240=DIRECTION('ref_axis',(-1.,0.,0.));
#241=DIRECTION('center_axis',(0.,1.,0.));
#242=DIRECTION('ref_axis',(1.,0.,0.));
#243=DIRECTION('',(0.,-1.,0.));
#244=DIRECTION('center_axis',(0.,1.,0.));
#245=DIRECTION('ref_axis',(1.,0.,0.));
#246=DIRECTION('center_axis',(0.,-1.,0.));
#247=DIRECTION('ref_axis',(-1.,0.,0.));
#248=DIRECTION('center_axis',(0.,-1.,0.));
#249=DIRECTION('ref_axis',(-1.,0.,0.));
#250=DIRECTION('',(0.,-1.,0.));
#251=DIRECTION('center_axis',(0.,1.,0.));
#252=DIRECTION('ref_axis',(0.,0.,1.));
#253=DIRECTION('center_axis',(0.,1.,0.));
#254=DIRECTION('ref_axis',(0.,0.,1.));
#255=DIRECTION('center_axis',(0.,1.,0.));
#256=DIRECTION('ref_axis',(-1.,0.,0.));
#257=DIRECTION('center_axis',(0.,1.,0.));
#258=DIRECTION('ref_axis',(-1.,0.,0.));
#259=DIRECTION('',(0.,-1.,0.));
#260=DIRECTION('center_axis',(0.,1.,0.));
#261=DIRECTION('ref_axis',(-1.,0.,0.));
#262=DIRECTION('center_axis',(0.,1.,0.));
#263=DIRECTION('ref_axis',(0.,0.,1.));
#264=CARTESIAN_POINT('',(0.,0.,0.));
#265=CARTESIAN_POINT('Origin',(0.,36.65,0.));
#266=CARTESIAN_POINT('',(-5.98239961383482E-16,38.65,-4.885));
#267=CARTESIAN_POINT('Origin',(0.,38.65,0.));
#268=CARTESIAN_POINT('',(-8.43169321212953E-16,36.65,-6.885));
#269=CARTESIAN_POINT('Origin',(-5.98239961383482E-16,36.65,-4.885));
#270=CARTESIAN_POINT('',(-6.885,36.65,8.43169321212953E-16));
#271=CARTESIAN_POINT('Origin',(0.,36.65,0.));
#272=CARTESIAN_POINT('Origin',(0.,36.65,0.));
#273=CARTESIAN_POINT('Origin',(0.,31.25,0.));
#274=CARTESIAN_POINT('',(-6.885,31.25,8.43169321212953E-16));
#275=CARTESIAN_POINT('',(-6.885,31.25,8.43169321212953E-16));
#276=CARTESIAN_POINT('Origin',(0.,31.25,0.));
#277=CARTESIAN_POINT('Origin',(0.,38.65,0.));
#278=CARTESIAN_POINT('Origin',(0.,26.75,0.));
#279=CARTESIAN_POINT('',(9.47,25.75,-1.15974051879254E-15));
#280=CARTESIAN_POINT('',(-9.47,25.75,1.15974051879254E-15));
#281=CARTESIAN_POINT('Origin',(0.,25.75,0.));
#282=CARTESIAN_POINT('Origin',(0.,25.75,0.));
#283=CARTESIAN_POINT('',(5.47,27.75,6.69881799133602E-16));
#284=CARTESIAN_POINT('',(7.47,26.75,9.14811158963073E-16));
#285=CARTESIAN_POINT('Origin',(0.,27.75,0.));
#286=CARTESIAN_POINT('Origin',(0.,27.75,0.));
#287=CARTESIAN_POINT('',(5.1,27.75,-6.2456986756515E-16));
#288=CARTESIAN_POINT('Origin',(0.,27.75,0.));
#289=CARTESIAN_POINT('Origin',(0.,24.5,0.));
#290=CARTESIAN_POINT('',(-9.47,24.5,1.15974051879254E-15));
#291=CARTESIAN_POINT('',(-9.47,24.5,1.15974051879254E-15));
#292=CARTESIAN_POINT('Origin',(0.,24.5,0.));
#293=CARTESIAN_POINT('Origin',(0.,31.25,0.));
#294=CARTESIAN_POINT('',(5.1,31.25,-6.2456986756515E-16));
#295=CARTESIAN_POINT('Origin',(0.,31.25,0.));
#296=CARTESIAN_POINT('',(5.1,31.25,6.2456986756515E-16));
#297=CARTESIAN_POINT('Origin',(0.,31.25,0.));
#298=CARTESIAN_POINT('Origin',(0.,24.5,0.));
#299=CARTESIAN_POINT('',(5.1,24.5,-6.2456986756515E-16));
#300=CARTESIAN_POINT('Origin',(0.,24.5,0.));
#301=CARTESIAN_POINT('Origin',(0.,0.,0.));
#302=CARTESIAN_POINT('',(5.1,0.,-6.2456986756515E-16));
#303=CARTESIAN_POINT('',(5.1,0.,-6.2456986756515E-16));
#304=CARTESIAN_POINT('Origin',(0.,0.,0.));
#305=CARTESIAN_POINT('Origin',(0.,0.,0.));
#306=UNCERTAINTY_MEASURE_WITH_UNIT(LENGTH_MEASURE(0.01),#310,
'DISTANCE_ACCURACY_VALUE',
'Maximum model space distance between geometric entities at asserted c
onnectivities');
#307=UNCERTAINTY_MEASURE_WITH_UNIT(LENGTH_MEASURE(0.01),#310,
'DISTANCE_ACCURACY_VALUE',
'Maximum model space distance between geometric entities at asserted c
onnectivities');
#308=(
GEOMETRIC_REPRESENTATION_CONTEXT(3)
GLOBAL_UNCERTAINTY_ASSIGNED_CONTEXT((#306))
GLOBAL_UNIT_ASSIGNED_CONTEXT((#310,#312,#313))
REPRESENTATION_CONTEXT('','3D')
);
#309=(
GEOMETRIC_REPRESENTATION_CONTEXT(3)
GLOBAL_UNCERTAINTY_ASSIGNED_CONTEXT((#307))
GLOBAL_UNIT_ASSIGNED_CONTEXT((#310,#312,#313))
REPRESENTATION_CONTEXT('','3D')
);
#310=(
LENGTH_UNIT()
NAMED_UNIT(*)
SI_UNIT(.MILLI.,.METRE.)
);
#311=(
LENGTH_UNIT()
NAMED_UNIT(*)
SI_UNIT(.CENTI.,.METRE.)
);
#312=(
NAMED_UNIT(*)
PLANE_ANGLE_UNIT()
SI_UNIT($,.RADIAN.)
);
#313=(
NAMED_UNIT(*)
SI_UNIT($,.STERADIAN.)
SOLID_ANGLE_UNIT()
);
#314=SHAPE_DEFINITION_REPRESENTATION(#315,#316);
#315=PRODUCT_DEFINITION_SHAPE('',$,#318);
#316=SHAPE_REPRESENTATION('',(#184),#308);
#317=PRODUCT_DEFINITION_CONTEXT('part definition',#322,'design');
#318=PRODUCT_DEFINITION('pannel_push_sw','pannel_push_sw',#319,#317);
#319=PRODUCT_DEFINITION_FORMATION('',$,#324);
#320=PRODUCT_RELATED_PRODUCT_CATEGORY('pannel_push_sw','pannel_push_sw',
(#324));
#321=APPLICATION_PROTOCOL_DEFINITION('international standard',
'automotive_design',2009,#322);
#322=APPLICATION_CONTEXT(
'Core Data for Automotive Mechanical Design Process');
#323=PRODUCT_CONTEXT('part definition',#322,'mechanical');
#324=PRODUCT('pannel_push_sw','pannel_push_sw',$,(#323));
#325=PRESENTATION_STYLE_ASSIGNMENT((#328));
#326=PRESENTATION_STYLE_ASSIGNMENT((#329));
#327=PRESENTATION_STYLE_ASSIGNMENT((#330));
#328=SURFACE_STYLE_USAGE(.BOTH.,#337);
#329=SURFACE_STYLE_USAGE(.BOTH.,#338);
#330=SURFACE_STYLE_USAGE(.BOTH.,#339);
#331=SURFACE_STYLE_RENDERING_WITH_PROPERTIES($,#349,(#334));
#332=SURFACE_STYLE_RENDERING_WITH_PROPERTIES($,#350,(#335));
#333=SURFACE_STYLE_RENDERING_WITH_PROPERTIES($,#351,(#336));
#334=SURFACE_STYLE_TRANSPARENT(0.);
#335=SURFACE_STYLE_TRANSPARENT(0.);
#336=SURFACE_STYLE_TRANSPARENT(0.);
#337=SURFACE_SIDE_STYLE('',(#340,#331));
#338=SURFACE_SIDE_STYLE('',(#341,#332));
#339=SURFACE_SIDE_STYLE('',(#342,#333));
#340=SURFACE_STYLE_FILL_AREA(#343);
#341=SURFACE_STYLE_FILL_AREA(#344);
#342=SURFACE_STYLE_FILL_AREA(#345);
#343=FILL_AREA_STYLE('',(#346));
#344=FILL_AREA_STYLE('',(#347));
#345=FILL_AREA_STYLE('',(#348));
#346=FILL_AREA_STYLE_COLOUR('',#349);
#347=FILL_AREA_STYLE_COLOUR('',#350);
#348=FILL_AREA_STYLE_COLOUR('',#351);
#349=COLOUR_RGB('',0.749019607843137,0.749019607843137,0.749019607843137);
#350=COLOUR_RGB('',0.117647058823529,0.117647058823529,0.117647058823529);
#351=COLOUR_RGB('',0.619607843137255,0.619607843137255,0.619607843137255);
ENDSEC;
END-ISO-10303-21;
