ISO-10303-21;
HEADER;
/* Generated by software containing ST-Developer
 * from STEP Tools, Inc. (www.steptools.com) 
 */

FILE_DESCRIPTION(
/* description */ (''),
/* implementation_level */ '2;1');

FILE_NAME(
/* name */ 'stick.stp',
/* time_stamp */ '2026-01-23T14:53:46+09:00',
/* author */ ('hibik'),
/* organization */ (''),
/* preprocessor_version */ 'ST-DEVELOPER v20.1',
/* originating_system */ 'Autodesk Inventor 2026',
/* authorisation */ '');

FILE_SCHEMA (('AUTOMOTIVE_DESIGN { 1 0 10303 214 3 1 1 }','TECHNICAL_DATA_PACKAGING'));
ENDSEC;

DATA;
#10=MECHANICAL_DESIGN_GEOMETRIC_PRESENTATION_REPRESENTATION('',(#15,#16,
#17,#18,#19,#20,#21,#22),#661);
#11=SHAPE_REPRESENTATION_RELATIONSHIP('SRR','None',#668,#12);
#12=ADVANCED_BREP_SHAPE_REPRESENTATION('',(#13),#660);
#13=MANIFOLD_SOLID_BREP('\X2\30BD30EA30C330C9\X0\1',#359);
#14=(
BOUNDED_SURFACE()
B_SPLINE_SURFACE(2,2,((#557,#558,#559,#560,#561,#562,#563,#564,#565),(#566,
#567,#568,#569,#570,#571,#572,#573,#574),(#575,#576,#577,#578,#579,#580,
#581,#582,#583)),.UNSPECIFIED.,.F.,.T.,.F.)
B_SPLINE_SURFACE_WITH_KNOTS((3,3),(3,2,2,2,3),(0.,1.5707963267949),(-3.14159265358979,
-1.5707963267949,0.,1.5707963267949,3.14159265358979),.UNSPECIFIED.)
GEOMETRIC_REPRESENTATION_ITEM()
RATIONAL_B_SPLINE_SURFACE(((1.,0.707106781186548,1.,0.707106781186548,1.,
0.707106781186548,1.,0.707106781186548,1.),(0.707106781186547,0.5,0.707106781186547,
0.5,0.707106781186547,0.5,0.707106781186547,0.5,0.707106781186547),(1.,
0.707106781186548,1.,0.707106781186548,1.,0.707106781186548,1.,0.707106781186548,
1.)))
REPRESENTATION_ITEM('')
SURFACE()
);
#15=STYLED_ITEM('',(#679),#341);
#16=STYLED_ITEM('',(#679),#342);
#17=STYLED_ITEM('',(#679),#343);
#18=STYLED_ITEM('',(#679),#345);
#19=STYLED_ITEM('',(#679),#347);
#20=STYLED_ITEM('',(#679),#349);
#21=STYLED_ITEM('',(#679),#351);
#22=STYLED_ITEM('',(#678),#13);
#23=FACE_BOUND('',#126,.T.);
#24=FACE_BOUND('',#132,.T.);
#25=FACE_BOUND('',#143,.T.);
#26=PLANE('',#390);
#27=PLANE('',#395);
#28=PLANE('',#406);
#29=PLANE('',#408);
#30=PLANE('',#409);
#31=PLANE('',#410);
#32=PLANE('',#411);
#33=PLANE('',#412);
#34=PLANE('',#413);
#35=PLANE('',#414);
#36=PLANE('',#415);
#37=PLANE('',#417);
#38=PLANE('',#418);
#39=PLANE('',#419);
#40=PLANE('',#420);
#41=PLANE('',#421);
#42=PLANE('',#422);
#43=LINE('',#545,#70);
#44=LINE('',#593,#71);
#45=LINE('',#609,#72);
#46=LINE('',#610,#73);
#47=LINE('',#611,#74);
#48=LINE('',#612,#75);
#49=LINE('',#616,#76);
#50=LINE('',#617,#77);
#51=LINE('',#618,#78);
#52=LINE('',#622,#79);
#53=LINE('',#623,#80);
#54=LINE('',#624,#81);
#55=LINE('',#627,#82);
#56=LINE('',#628,#83);
#57=LINE('',#631,#84);
#58=LINE('',#635,#85);
#59=LINE('',#637,#86);
#60=LINE('',#639,#87);
#61=LINE('',#640,#88);
#62=LINE('',#644,#89);
#63=LINE('',#646,#90);
#64=LINE('',#648,#91);
#65=LINE('',#649,#92);
#66=LINE('',#651,#93);
#67=LINE('',#652,#94);
#68=LINE('',#654,#95);
#69=LINE('',#656,#96);
#70=VECTOR('',#437,9.);
#71=VECTOR('',#464,13.);
#72=VECTOR('',#481,10.);
#73=VECTOR('',#482,10.);
#74=VECTOR('',#483,10.);
#75=VECTOR('',#484,10.);
#76=VECTOR('',#489,10.);
#77=VECTOR('',#490,10.);
#78=VECTOR('',#491,10.);
#79=VECTOR('',#496,10.);
#80=VECTOR('',#497,10.);
#81=VECTOR('',#498,10.);
#82=VECTOR('',#503,10.);
#83=VECTOR('',#504,10.);
#84=VECTOR('',#509,5.);
#85=VECTOR('',#512,10.);
#86=VECTOR('',#513,10.);
#87=VECTOR('',#514,10.);
#88=VECTOR('',#515,10.);
#89=VECTOR('',#518,10.);
#90=VECTOR('',#519,10.);
#91=VECTOR('',#520,10.);
#92=VECTOR('',#521,10.);
#93=VECTOR('',#524,10.);
#94=VECTOR('',#525,10.);
#95=VECTOR('',#528,10.);
#96=VECTOR('',#531,10.);
#97=CYLINDRICAL_SURFACE('',#387,9.);
#98=CYLINDRICAL_SURFACE('',#400,13.);
#99=CYLINDRICAL_SURFACE('',#416,5.);
#100=FACE_OUTER_BOUND('',#123,.T.);
#101=FACE_OUTER_BOUND('',#124,.T.);
#102=FACE_OUTER_BOUND('',#125,.T.);
#103=FACE_OUTER_BOUND('',#127,.T.);
#104=FACE_OUTER_BOUND('',#128,.T.);
#105=FACE_OUTER_BOUND('',#129,.T.);
#106=FACE_OUTER_BOUND('',#130,.T.);
#107=FACE_OUTER_BOUND('',#131,.T.);
#108=FACE_OUTER_BOUND('',#133,.T.);
#109=FACE_OUTER_BOUND('',#134,.T.);
#110=FACE_OUTER_BOUND('',#135,.T.);
#111=FACE_OUTER_BOUND('',#136,.T.);
#112=FACE_OUTER_BOUND('',#137,.T.);
#113=FACE_OUTER_BOUND('',#138,.T.);
#114=FACE_OUTER_BOUND('',#139,.T.);
#115=FACE_OUTER_BOUND('',#140,.T.);
#116=FACE_OUTER_BOUND('',#141,.T.);
#117=FACE_OUTER_BOUND('',#142,.T.);
#118=FACE_OUTER_BOUND('',#144,.T.);
#119=FACE_OUTER_BOUND('',#145,.T.);
#120=FACE_OUTER_BOUND('',#146,.T.);
#121=FACE_OUTER_BOUND('',#147,.T.);
#122=FACE_OUTER_BOUND('',#148,.T.);
#123=EDGE_LOOP('',(#242,#243,#244,#245,#246));
#124=EDGE_LOOP('',(#247,#248,#249,#250,#251,#252));
#125=EDGE_LOOP('',(#253));
#126=EDGE_LOOP('',(#254));
#127=EDGE_LOOP('',(#255,#256,#257,#258,#259));
#128=EDGE_LOOP('',(#260));
#129=EDGE_LOOP('',(#261,#262,#263,#264,#265));
#130=EDGE_LOOP('',(#266,#267,#268,#269,#270,#271,#272,#273,#274));
#131=EDGE_LOOP('',(#275));
#132=EDGE_LOOP('',(#276));
#133=EDGE_LOOP('',(#277,#278,#279,#280));
#134=EDGE_LOOP('',(#281,#282));
#135=EDGE_LOOP('',(#283,#284,#285,#286));
#136=EDGE_LOOP('',(#287,#288));
#137=EDGE_LOOP('',(#289,#290,#291,#292));
#138=EDGE_LOOP('',(#293,#294));
#139=EDGE_LOOP('',(#295,#296,#297,#298));
#140=EDGE_LOOP('',(#299,#300,#301));
#141=EDGE_LOOP('',(#302,#303,#304,#305));
#142=EDGE_LOOP('',(#306,#307,#308,#309));
#143=EDGE_LOOP('',(#310,#311,#312,#313));
#144=EDGE_LOOP('',(#314,#315,#316,#317));
#145=EDGE_LOOP('',(#318,#319,#320,#321));
#146=EDGE_LOOP('',(#322,#323,#324,#325));
#147=EDGE_LOOP('',(#326,#327,#328,#329));
#148=EDGE_LOOP('',(#330,#331,#332,#333));
#149=CIRCLE('',#383,6.);
#150=CIRCLE('',#384,3.);
#151=CIRCLE('',#385,9.);
#152=CIRCLE('',#386,9.);
#153=CIRCLE('',#388,9.);
#154=CIRCLE('',#389,9.);
#155=CIRCLE('',#391,5.);
#156=CIRCLE('',#393,5.);
#157=CIRCLE('',#394,4.);
#158=CIRCLE('',#396,6.);
#159=CIRCLE('',#397,7.);
#160=CIRCLE('',#398,13.);
#161=CIRCLE('',#399,13.);
#162=CIRCLE('',#401,13.);
#163=CIRCLE('',#402,13.);
#164=CIRCLE('',#403,13.);
#165=CIRCLE('',#404,13.);
#166=CIRCLE('',#405,13.);
#167=CIRCLE('',#407,5.);
#168=VERTEX_POINT('',#536);
#169=VERTEX_POINT('',#538);
#170=VERTEX_POINT('',#540);
#171=VERTEX_POINT('',#544);
#172=VERTEX_POINT('',#546);
#173=VERTEX_POINT('',#550);
#174=VERTEX_POINT('',#553);
#175=VERTEX_POINT('',#584);
#176=VERTEX_POINT('',#586);
#177=VERTEX_POINT('',#588);
#178=VERTEX_POINT('',#592);
#179=VERTEX_POINT('',#594);
#180=VERTEX_POINT('',#596);
#181=VERTEX_POINT('',#598);
#182=VERTEX_POINT('',#600);
#183=VERTEX_POINT('',#604);
#184=VERTEX_POINT('',#607);
#185=VERTEX_POINT('',#608);
#186=VERTEX_POINT('',#615);
#187=VERTEX_POINT('',#621);
#188=VERTEX_POINT('',#633);
#189=VERTEX_POINT('',#634);
#190=VERTEX_POINT('',#636);
#191=VERTEX_POINT('',#638);
#192=VERTEX_POINT('',#642);
#193=VERTEX_POINT('',#643);
#194=VERTEX_POINT('',#645);
#195=VERTEX_POINT('',#647);
#196=EDGE_CURVE('',#168,#168,#149,.T.);
#197=EDGE_CURVE('',#168,#169,#150,.T.);
#198=EDGE_CURVE('',#169,#170,#151,.T.);
#199=EDGE_CURVE('',#170,#169,#152,.T.);
#200=EDGE_CURVE('',#170,#171,#43,.T.);
#201=EDGE_CURVE('',#172,#171,#153,.T.);
#202=EDGE_CURVE('',#171,#172,#154,.T.);
#203=EDGE_CURVE('',#173,#173,#155,.T.);
#204=EDGE_CURVE('',#174,#174,#156,.T.);
#205=EDGE_CURVE('',#174,#172,#157,.T.);
#206=EDGE_CURVE('',#175,#175,#158,.T.);
#207=EDGE_CURVE('',#175,#176,#159,.T.);
#208=EDGE_CURVE('',#176,#177,#160,.T.);
#209=EDGE_CURVE('',#177,#176,#161,.T.);
#210=EDGE_CURVE('',#177,#178,#44,.T.);
#211=EDGE_CURVE('',#178,#179,#162,.T.);
#212=EDGE_CURVE('',#179,#180,#163,.T.);
#213=EDGE_CURVE('',#180,#181,#164,.T.);
#214=EDGE_CURVE('',#181,#182,#165,.T.);
#215=EDGE_CURVE('',#182,#178,#166,.T.);
#216=EDGE_CURVE('',#183,#183,#167,.T.);
#217=EDGE_CURVE('',#184,#185,#45,.T.);
#218=EDGE_CURVE('',#182,#184,#46,.T.);
#219=EDGE_CURVE('',#182,#181,#47,.T.);
#220=EDGE_CURVE('',#185,#181,#48,.T.);
#221=EDGE_CURVE('',#185,#186,#49,.T.);
#222=EDGE_CURVE('',#181,#180,#50,.T.);
#223=EDGE_CURVE('',#186,#180,#51,.T.);
#224=EDGE_CURVE('',#186,#187,#52,.T.);
#225=EDGE_CURVE('',#180,#179,#53,.T.);
#226=EDGE_CURVE('',#187,#179,#54,.T.);
#227=EDGE_CURVE('',#187,#184,#55,.T.);
#228=EDGE_CURVE('',#179,#182,#56,.T.);
#229=EDGE_CURVE('',#173,#183,#57,.T.);
#230=EDGE_CURVE('',#188,#189,#58,.T.);
#231=EDGE_CURVE('',#189,#190,#59,.T.);
#232=EDGE_CURVE('',#190,#191,#60,.T.);
#233=EDGE_CURVE('',#191,#188,#61,.T.);
#234=EDGE_CURVE('',#192,#193,#62,.T.);
#235=EDGE_CURVE('',#194,#192,#63,.T.);
#236=EDGE_CURVE('',#195,#194,#64,.T.);
#237=EDGE_CURVE('',#193,#195,#65,.T.);
#238=EDGE_CURVE('',#195,#188,#66,.T.);
#239=EDGE_CURVE('',#193,#191,#67,.T.);
#240=EDGE_CURVE('',#192,#190,#68,.T.);
#241=EDGE_CURVE('',#194,#189,#69,.T.);
#242=ORIENTED_EDGE('',*,*,#196,.T.);
#243=ORIENTED_EDGE('',*,*,#197,.T.);
#244=ORIENTED_EDGE('',*,*,#198,.T.);
#245=ORIENTED_EDGE('',*,*,#199,.T.);
#246=ORIENTED_EDGE('',*,*,#197,.F.);
#247=ORIENTED_EDGE('',*,*,#199,.F.);
#248=ORIENTED_EDGE('',*,*,#200,.T.);
#249=ORIENTED_EDGE('',*,*,#201,.F.);
#250=ORIENTED_EDGE('',*,*,#202,.F.);
#251=ORIENTED_EDGE('',*,*,#200,.F.);
#252=ORIENTED_EDGE('',*,*,#198,.F.);
#253=ORIENTED_EDGE('',*,*,#196,.F.);
#254=ORIENTED_EDGE('',*,*,#203,.F.);
#255=ORIENTED_EDGE('',*,*,#204,.T.);
#256=ORIENTED_EDGE('',*,*,#205,.T.);
#257=ORIENTED_EDGE('',*,*,#201,.T.);
#258=ORIENTED_EDGE('',*,*,#202,.T.);
#259=ORIENTED_EDGE('',*,*,#205,.F.);
#260=ORIENTED_EDGE('',*,*,#204,.F.);
#261=ORIENTED_EDGE('',*,*,#206,.T.);
#262=ORIENTED_EDGE('',*,*,#207,.T.);
#263=ORIENTED_EDGE('',*,*,#208,.T.);
#264=ORIENTED_EDGE('',*,*,#209,.T.);
#265=ORIENTED_EDGE('',*,*,#207,.F.);
#266=ORIENTED_EDGE('',*,*,#209,.F.);
#267=ORIENTED_EDGE('',*,*,#210,.T.);
#268=ORIENTED_EDGE('',*,*,#211,.T.);
#269=ORIENTED_EDGE('',*,*,#212,.T.);
#270=ORIENTED_EDGE('',*,*,#213,.T.);
#271=ORIENTED_EDGE('',*,*,#214,.T.);
#272=ORIENTED_EDGE('',*,*,#215,.T.);
#273=ORIENTED_EDGE('',*,*,#210,.F.);
#274=ORIENTED_EDGE('',*,*,#208,.F.);
#275=ORIENTED_EDGE('',*,*,#206,.F.);
#276=ORIENTED_EDGE('',*,*,#216,.T.);
#277=ORIENTED_EDGE('',*,*,#217,.F.);
#278=ORIENTED_EDGE('',*,*,#218,.F.);
#279=ORIENTED_EDGE('',*,*,#219,.T.);
#280=ORIENTED_EDGE('',*,*,#220,.F.);
#281=ORIENTED_EDGE('',*,*,#214,.F.);
#282=ORIENTED_EDGE('',*,*,#219,.F.);
#283=ORIENTED_EDGE('',*,*,#221,.F.);
#284=ORIENTED_EDGE('',*,*,#220,.T.);
#285=ORIENTED_EDGE('',*,*,#222,.T.);
#286=ORIENTED_EDGE('',*,*,#223,.F.);
#287=ORIENTED_EDGE('',*,*,#213,.F.);
#288=ORIENTED_EDGE('',*,*,#222,.F.);
#289=ORIENTED_EDGE('',*,*,#224,.F.);
#290=ORIENTED_EDGE('',*,*,#223,.T.);
#291=ORIENTED_EDGE('',*,*,#225,.T.);
#292=ORIENTED_EDGE('',*,*,#226,.F.);
#293=ORIENTED_EDGE('',*,*,#212,.F.);
#294=ORIENTED_EDGE('',*,*,#225,.F.);
#295=ORIENTED_EDGE('',*,*,#227,.F.);
#296=ORIENTED_EDGE('',*,*,#226,.T.);
#297=ORIENTED_EDGE('',*,*,#228,.T.);
#298=ORIENTED_EDGE('',*,*,#218,.T.);
#299=ORIENTED_EDGE('',*,*,#215,.F.);
#300=ORIENTED_EDGE('',*,*,#228,.F.);
#301=ORIENTED_EDGE('',*,*,#211,.F.);
#302=ORIENTED_EDGE('',*,*,#203,.T.);
#303=ORIENTED_EDGE('',*,*,#229,.T.);
#304=ORIENTED_EDGE('',*,*,#216,.F.);
#305=ORIENTED_EDGE('',*,*,#229,.F.);
#306=ORIENTED_EDGE('',*,*,#230,.T.);
#307=ORIENTED_EDGE('',*,*,#231,.T.);
#308=ORIENTED_EDGE('',*,*,#232,.T.);
#309=ORIENTED_EDGE('',*,*,#233,.T.);
#310=ORIENTED_EDGE('',*,*,#221,.T.);
#311=ORIENTED_EDGE('',*,*,#224,.T.);
#312=ORIENTED_EDGE('',*,*,#227,.T.);
#313=ORIENTED_EDGE('',*,*,#217,.T.);
#314=ORIENTED_EDGE('',*,*,#234,.F.);
#315=ORIENTED_EDGE('',*,*,#235,.F.);
#316=ORIENTED_EDGE('',*,*,#236,.F.);
#317=ORIENTED_EDGE('',*,*,#237,.F.);
#318=ORIENTED_EDGE('',*,*,#237,.T.);
#319=ORIENTED_EDGE('',*,*,#238,.T.);
#320=ORIENTED_EDGE('',*,*,#233,.F.);
#321=ORIENTED_EDGE('',*,*,#239,.F.);
#322=ORIENTED_EDGE('',*,*,#232,.F.);
#323=ORIENTED_EDGE('',*,*,#240,.F.);
#324=ORIENTED_EDGE('',*,*,#234,.T.);
#325=ORIENTED_EDGE('',*,*,#239,.T.);
#326=ORIENTED_EDGE('',*,*,#235,.T.);
#327=ORIENTED_EDGE('',*,*,#240,.T.);
#328=ORIENTED_EDGE('',*,*,#231,.F.);
#329=ORIENTED_EDGE('',*,*,#241,.F.);
#330=ORIENTED_EDGE('',*,*,#230,.F.);
#331=ORIENTED_EDGE('',*,*,#238,.F.);
#332=ORIENTED_EDGE('',*,*,#236,.T.);
#333=ORIENTED_EDGE('',*,*,#241,.T.);
#334=TOROIDAL_SURFACE('',#382,6.,3.);
#335=TOROIDAL_SURFACE('',#392,5.,4.);
#336=ADVANCED_FACE('',(#100),#334,.T.);
#337=ADVANCED_FACE('',(#101),#97,.T.);
#338=ADVANCED_FACE('',(#102,#23),#26,.F.);
#339=ADVANCED_FACE('',(#103),#335,.T.);
#340=ADVANCED_FACE('',(#104),#27,.T.);
#341=ADVANCED_FACE('',(#105),#14,.F.);
#342=ADVANCED_FACE('',(#106),#98,.T.);
#343=ADVANCED_FACE('',(#107,#24),#28,.F.);
#344=ADVANCED_FACE('',(#108),#29,.F.);
#345=ADVANCED_FACE('',(#109),#30,.F.);
#346=ADVANCED_FACE('',(#110),#31,.F.);
#347=ADVANCED_FACE('',(#111),#32,.F.);
#348=ADVANCED_FACE('',(#112),#33,.F.);
#349=ADVANCED_FACE('',(#113),#34,.F.);
#350=ADVANCED_FACE('',(#114),#35,.F.);
#351=ADVANCED_FACE('',(#115),#36,.F.);
#352=ADVANCED_FACE('',(#116),#99,.T.);
#353=ADVANCED_FACE('',(#117,#25),#37,.T.);
#354=ADVANCED_FACE('',(#118),#38,.F.);
#355=ADVANCED_FACE('',(#119),#39,.T.);
#356=ADVANCED_FACE('',(#120),#40,.T.);
#357=ADVANCED_FACE('',(#121),#41,.T.);
#358=ADVANCED_FACE('',(#122),#42,.T.);
#359=CLOSED_SHELL('',(#336,#337,#338,#339,#340,#341,#342,#343,#344,#345,
#346,#347,#348,#349,#350,#351,#352,#353,#354,#355,#356,#357,#358));
#360=DERIVED_UNIT_ELEMENT(#363,1.);
#361=DERIVED_UNIT_ELEMENT(#663,-3.);
#362=DIMENSIONAL_EXPONENTS(0.,1.,0.,0.,0.,0.,0.);
#363=(
CONVERSION_BASED_UNIT('gram',#365)
MASS_UNIT()
NAMED_UNIT(#362)
);
#364=(
MASS_UNIT()
NAMED_UNIT(*)
SI_UNIT(.KILO.,.GRAM.)
);
#365=MASS_MEASURE_WITH_UNIT(MASS_MEASURE(0.001),#364);
#366=DERIVED_UNIT((#360,#361));
#367=MEASURE_REPRESENTATION_ITEM('density measure',
POSITIVE_RATIO_MEASURE(1.),#366);
#368=PROPERTY_DEFINITION_REPRESENTATION(#373,#370);
#369=PROPERTY_DEFINITION_REPRESENTATION(#374,#371);
#370=REPRESENTATION('material name',(#372),#660);
#371=REPRESENTATION('density',(#367),#660);
#372=DESCRIPTIVE_REPRESENTATION_ITEM('\X2\4E00822C\X0\','\X2\4E00822C\X0\');
#373=PROPERTY_DEFINITION('material property','material name',#670);
#374=PROPERTY_DEFINITION('material property','density of part',#670);
#375=DATE_TIME_ROLE('creation_date');
#376=APPLIED_DATE_AND_TIME_ASSIGNMENT(#377,#375,(#670));
#377=DATE_AND_TIME(#378,#379);
#378=CALENDAR_DATE(2026,20,1);
#379=LOCAL_TIME(0,0,0.,#380);
#380=COORDINATED_UNIVERSAL_TIME_OFFSET(0,0,.BEHIND.);
#381=AXIS2_PLACEMENT_3D('',#534,#423,#424);
#382=AXIS2_PLACEMENT_3D('',#535,#425,#426);
#383=AXIS2_PLACEMENT_3D('',#537,#427,#428);
#384=AXIS2_PLACEMENT_3D('',#539,#429,#430);
#385=AXIS2_PLACEMENT_3D('',#541,#431,#432);
#386=AXIS2_PLACEMENT_3D('',#542,#433,#434);
#387=AXIS2_PLACEMENT_3D('',#543,#435,#436);
#388=AXIS2_PLACEMENT_3D('',#547,#438,#439);
#389=AXIS2_PLACEMENT_3D('',#548,#440,#441);
#390=AXIS2_PLACEMENT_3D('',#549,#442,#443);
#391=AXIS2_PLACEMENT_3D('',#551,#444,#445);
#392=AXIS2_PLACEMENT_3D('',#552,#446,#447);
#393=AXIS2_PLACEMENT_3D('',#554,#448,#449);
#394=AXIS2_PLACEMENT_3D('',#555,#450,#451);
#395=AXIS2_PLACEMENT_3D('',#556,#452,#453);
#396=AXIS2_PLACEMENT_3D('',#585,#454,#455);
#397=AXIS2_PLACEMENT_3D('',#587,#456,#457);
#398=AXIS2_PLACEMENT_3D('',#589,#458,#459);
#399=AXIS2_PLACEMENT_3D('',#590,#460,#461);
#400=AXIS2_PLACEMENT_3D('',#591,#462,#463);
#401=AXIS2_PLACEMENT_3D('',#595,#465,#466);
#402=AXIS2_PLACEMENT_3D('',#597,#467,#468);
#403=AXIS2_PLACEMENT_3D('',#599,#469,#470);
#404=AXIS2_PLACEMENT_3D('',#601,#471,#472);
#405=AXIS2_PLACEMENT_3D('',#602,#473,#474);
#406=AXIS2_PLACEMENT_3D('',#603,#475,#476);
#407=AXIS2_PLACEMENT_3D('',#605,#477,#478);
#408=AXIS2_PLACEMENT_3D('',#606,#479,#480);
#409=AXIS2_PLACEMENT_3D('',#613,#485,#486);
#410=AXIS2_PLACEMENT_3D('',#614,#487,#488);
#411=AXIS2_PLACEMENT_3D('',#619,#492,#493);
#412=AXIS2_PLACEMENT_3D('',#620,#494,#495);
#413=AXIS2_PLACEMENT_3D('',#625,#499,#500);
#414=AXIS2_PLACEMENT_3D('',#626,#501,#502);
#415=AXIS2_PLACEMENT_3D('',#629,#505,#506);
#416=AXIS2_PLACEMENT_3D('',#630,#507,#508);
#417=AXIS2_PLACEMENT_3D('',#632,#510,#511);
#418=AXIS2_PLACEMENT_3D('',#641,#516,#517);
#419=AXIS2_PLACEMENT_3D('',#650,#522,#523);
#420=AXIS2_PLACEMENT_3D('',#653,#526,#527);
#421=AXIS2_PLACEMENT_3D('',#655,#529,#530);
#422=AXIS2_PLACEMENT_3D('',#657,#532,#533);
#423=DIRECTION('axis',(0.,0.,1.));
#424=DIRECTION('refdir',(1.,0.,0.));
#425=DIRECTION('center_axis',(0.,-1.,0.));
#426=DIRECTION('ref_axis',(0.,0.,-1.));
#427=DIRECTION('center_axis',(0.,1.,0.));
#428=DIRECTION('ref_axis',(-1.,0.,-1.22464679914735E-16));
#429=DIRECTION('center_axis',(-1.,0.,-1.22464679914735E-16));
#430=DIRECTION('ref_axis',(-1.22464679914735E-16,0.,1.));
#431=DIRECTION('center_axis',(0.,-1.,0.));
#432=DIRECTION('ref_axis',(-1.,0.,-1.22464679914735E-16));
#433=DIRECTION('center_axis',(0.,-1.,0.));
#434=DIRECTION('ref_axis',(-1.,0.,-1.22464679914735E-16));
#435=DIRECTION('center_axis',(0.,-1.,0.));
#436=DIRECTION('ref_axis',(1.,0.,0.));
#437=DIRECTION('',(0.,1.,0.));
#438=DIRECTION('center_axis',(0.,1.,0.));
#439=DIRECTION('ref_axis',(-1.,0.,-1.22464679914735E-16));
#440=DIRECTION('center_axis',(0.,1.,0.));
#441=DIRECTION('ref_axis',(-1.,0.,-1.22464679914735E-16));
#442=DIRECTION('center_axis',(0.,1.,0.));
#443=DIRECTION('ref_axis',(0.,0.,1.));
#444=DIRECTION('center_axis',(0.,-1.,0.));
#445=DIRECTION('ref_axis',(1.,0.,0.));
#446=DIRECTION('center_axis',(0.,1.,0.));
#447=DIRECTION('ref_axis',(0.,0.,1.));
#448=DIRECTION('center_axis',(0.,-1.,0.));
#449=DIRECTION('ref_axis',(-1.,0.,-1.22464679914735E-16));
#450=DIRECTION('center_axis',(-1.,0.,1.22464679914735E-16));
#451=DIRECTION('ref_axis',(-1.22464679914735E-16,0.,-1.));
#452=DIRECTION('center_axis',(0.,1.,0.));
#453=DIRECTION('ref_axis',(0.,0.,1.));
#454=DIRECTION('center_axis',(0.,-1.,0.));
#455=DIRECTION('ref_axis',(-1.,0.,1.22464679914735E-16));
#456=DIRECTION('center_axis',(-1.,0.,1.22464679914735E-16));
#457=DIRECTION('ref_axis',(-1.22464679914735E-16,0.,-1.));
#458=DIRECTION('center_axis',(0.,1.,0.));
#459=DIRECTION('ref_axis',(-1.,0.,1.22464679914735E-16));
#460=DIRECTION('center_axis',(0.,1.,0.));
#461=DIRECTION('ref_axis',(-1.,0.,1.22464679914735E-16));
#462=DIRECTION('center_axis',(0.,1.,0.));
#463=DIRECTION('ref_axis',(1.,0.,0.));
#464=DIRECTION('',(0.,-1.,0.));
#465=DIRECTION('center_axis',(0.,1.,0.));
#466=DIRECTION('ref_axis',(1.,0.,0.));
#467=DIRECTION('center_axis',(0.,1.,0.));
#468=DIRECTION('ref_axis',(1.,0.,0.));
#469=DIRECTION('center_axis',(0.,1.,0.));
#470=DIRECTION('ref_axis',(1.,0.,0.));
#471=DIRECTION('center_axis',(0.,1.,0.));
#472=DIRECTION('ref_axis',(1.,0.,0.));
#473=DIRECTION('center_axis',(0.,1.,0.));
#474=DIRECTION('ref_axis',(1.,0.,0.));
#475=DIRECTION('center_axis',(0.,-1.,0.));
#476=DIRECTION('ref_axis',(0.,0.,-1.));
#477=DIRECTION('center_axis',(0.,-1.,0.));
#478=DIRECTION('ref_axis',(1.,0.,0.));
#479=DIRECTION('center_axis',(0.,0.,1.));
#480=DIRECTION('ref_axis',(1.,0.,0.));
#481=DIRECTION('',(1.,0.,0.));
#482=DIRECTION('',(0.,-1.,0.));
#483=DIRECTION('',(1.,0.,0.));
#484=DIRECTION('',(0.,1.,0.));
#485=DIRECTION('center_axis',(0.,1.,0.));
#486=DIRECTION('ref_axis',(0.,0.,1.));
#487=DIRECTION('center_axis',(-1.,0.,-6.03881714878375E-17));
#488=DIRECTION('ref_axis',(-6.03881714878375E-17,0.,1.));
#489=DIRECTION('',(-6.03881714878375E-17,0.,1.));
#490=DIRECTION('',(-6.03881714878375E-17,0.,1.));
#491=DIRECTION('',(0.,1.,0.));
#492=DIRECTION('center_axis',(0.,1.,0.));
#493=DIRECTION('ref_axis',(0.,0.,1.));
#494=DIRECTION('center_axis',(-1.20776342975675E-16,0.,-1.));
#495=DIRECTION('ref_axis',(-1.,0.,1.20776342975675E-16));
#496=DIRECTION('',(-1.,0.,1.20776342975675E-16));
#497=DIRECTION('',(-1.,0.,1.20776342975675E-16));
#498=DIRECTION('',(0.,1.,0.));
#499=DIRECTION('center_axis',(0.,1.,0.));
#500=DIRECTION('ref_axis',(0.,0.,1.));
#501=DIRECTION('center_axis',(1.,0.,1.20776342975675E-16));
#502=DIRECTION('ref_axis',(1.20776342975675E-16,0.,-1.));
#503=DIRECTION('',(1.20776342975675E-16,0.,-1.));
#504=DIRECTION('',(1.20776342975675E-16,0.,-1.));
#505=DIRECTION('center_axis',(0.,1.,0.));
#506=DIRECTION('ref_axis',(0.,0.,1.));
#507=DIRECTION('center_axis',(0.,1.,0.));
#508=DIRECTION('ref_axis',(1.,0.,0.));
#509=DIRECTION('',(0.,-1.,0.));
#510=DIRECTION('center_axis',(0.,1.,0.));
#511=DIRECTION('ref_axis',(0.,0.,1.));
#512=DIRECTION('',(-1.95921710227969E-16,0.,-1.));
#513=DIRECTION('',(-1.,0.,0.));
#514=DIRECTION('',(-1.95921710227969E-16,0.,1.));
#515=DIRECTION('',(1.,0.,0.));
#516=DIRECTION('center_axis',(0.,1.,0.));
#517=DIRECTION('ref_axis',(0.,0.,1.));
#518=DIRECTION('',(-1.95921710227969E-16,0.,1.));
#519=DIRECTION('',(-1.,0.,0.));
#520=DIRECTION('',(-1.95921710227969E-16,0.,-1.));
#521=DIRECTION('',(1.,0.,0.));
#522=DIRECTION('center_axis',(0.,0.,1.));
#523=DIRECTION('ref_axis',(1.,0.,0.));
#524=DIRECTION('',(0.,1.,0.));
#525=DIRECTION('',(0.,1.,0.));
#526=DIRECTION('center_axis',(-1.,0.,-1.95921710227969E-16));
#527=DIRECTION('ref_axis',(-1.95921710227969E-16,0.,1.));
#528=DIRECTION('',(0.,1.,0.));
#529=DIRECTION('center_axis',(0.,0.,-1.));
#530=DIRECTION('ref_axis',(-1.,0.,0.));
#531=DIRECTION('',(0.,1.,0.));
#532=DIRECTION('center_axis',(1.,0.,-1.95921710227969E-16));
#533=DIRECTION('ref_axis',(-1.95921710227969E-16,0.,-1.));
#534=CARTESIAN_POINT('',(0.,0.,0.));
#535=CARTESIAN_POINT('Origin',(0.,29.,0.));
#536=CARTESIAN_POINT('',(-7.34788079488412E-16,26.,6.));
#537=CARTESIAN_POINT('Origin',(0.,26.,0.));
#538=CARTESIAN_POINT('',(-1.10218211923262E-15,29.,9.));
#539=CARTESIAN_POINT('Origin',(-7.34788079488412E-16,29.,6.));
#540=CARTESIAN_POINT('',(-9.,29.,-1.10218211923262E-15));
#541=CARTESIAN_POINT('Origin',(0.,29.,0.));
#542=CARTESIAN_POINT('Origin',(0.,29.,0.));
#543=CARTESIAN_POINT('Origin',(0.,34.,0.));
#544=CARTESIAN_POINT('',(-9.,30.,-1.10218211923262E-15));
#545=CARTESIAN_POINT('',(-9.,34.,-1.10218211923262E-15));
#546=CARTESIAN_POINT('',(-1.10218211923262E-15,30.,-9.));
#547=CARTESIAN_POINT('Origin',(0.,30.,0.));
#548=CARTESIAN_POINT('Origin',(0.,30.,0.));
#549=CARTESIAN_POINT('Origin',(0.,26.,0.));
#550=CARTESIAN_POINT('',(-5.,26.,-6.12323399573677E-16));
#551=CARTESIAN_POINT('Origin',(0.,26.,0.));
#552=CARTESIAN_POINT('Origin',(0.,30.,0.));
#553=CARTESIAN_POINT('',(-6.12323399573677E-16,34.,-5.));
#554=CARTESIAN_POINT('Origin',(0.,34.,0.));
#555=CARTESIAN_POINT('Origin',(-6.12323399573677E-16,30.,-5.));
#556=CARTESIAN_POINT('Origin',(0.,34.,0.));
#557=CARTESIAN_POINT('Ctrl Pts',(0.,15.,-13.));
#558=CARTESIAN_POINT('Ctrl Pts',(-13.,15.,-13.));
#559=CARTESIAN_POINT('Ctrl Pts',(-13.,15.,0.));
#560=CARTESIAN_POINT('Ctrl Pts',(-13.,15.,13.));
#561=CARTESIAN_POINT('Ctrl Pts',(0.,15.,13.));
#562=CARTESIAN_POINT('Ctrl Pts',(13.,15.,13.));
#563=CARTESIAN_POINT('Ctrl Pts',(13.,15.,0.));
#564=CARTESIAN_POINT('Ctrl Pts',(13.,15.,-13.));
#565=CARTESIAN_POINT('Ctrl Pts',(0.,15.,-13.));
#566=CARTESIAN_POINT('Ctrl Pts',(0.,22.,-13.));
#567=CARTESIAN_POINT('Ctrl Pts',(-13.,22.,-13.));
#568=CARTESIAN_POINT('Ctrl Pts',(-13.,22.,0.));
#569=CARTESIAN_POINT('Ctrl Pts',(-13.,22.,13.));
#570=CARTESIAN_POINT('Ctrl Pts',(0.,22.,13.));
#571=CARTESIAN_POINT('Ctrl Pts',(13.,22.,13.));
#572=CARTESIAN_POINT('Ctrl Pts',(13.,22.,0.));
#573=CARTESIAN_POINT('Ctrl Pts',(13.,22.,-13.));
#574=CARTESIAN_POINT('Ctrl Pts',(0.,22.,-13.));
#575=CARTESIAN_POINT('Ctrl Pts',(0.,22.,-6.));
#576=CARTESIAN_POINT('Ctrl Pts',(-6.,22.,-6.));
#577=CARTESIAN_POINT('Ctrl Pts',(-6.,22.,0.));
#578=CARTESIAN_POINT('Ctrl Pts',(-6.,22.,6.));
#579=CARTESIAN_POINT('Ctrl Pts',(0.,22.,6.));
#580=CARTESIAN_POINT('Ctrl Pts',(6.,22.,6.));
#581=CARTESIAN_POINT('Ctrl Pts',(6.,22.,0.));
#582=CARTESIAN_POINT('Ctrl Pts',(6.,22.,-6.));
#583=CARTESIAN_POINT('Ctrl Pts',(0.,22.,-6.));
#584=CARTESIAN_POINT('',(-7.34788079488412E-16,22.,-6.));
#585=CARTESIAN_POINT('Origin',(0.,22.,0.));
#586=CARTESIAN_POINT('',(-1.59204083889156E-15,15.,-13.));
#587=CARTESIAN_POINT('Origin',(-7.34788079488412E-16,15.,-6.));
#588=CARTESIAN_POINT('',(-13.,15.,1.59204083889156E-15));
#589=CARTESIAN_POINT('Origin',(0.,15.,0.));
#590=CARTESIAN_POINT('Origin',(0.,15.,0.));
#591=CARTESIAN_POINT('Origin',(0.,0.,0.));
#592=CARTESIAN_POINT('',(-13.,11.6,1.59204083889156E-15));
#593=CARTESIAN_POINT('',(-13.,0.,1.59204083889156E-15));
#594=CARTESIAN_POINT('',(-9.19238815542512,11.6,9.19238815542512));
#595=CARTESIAN_POINT('Origin',(0.,11.6,0.));
#596=CARTESIAN_POINT('',(9.19238815542512,11.6,9.19238815542512));
#597=CARTESIAN_POINT('Origin',(0.,11.6,0.));
#598=CARTESIAN_POINT('',(9.19238815542512,11.6,-9.19238815542512));
#599=CARTESIAN_POINT('Origin',(0.,11.6,0.));
#600=CARTESIAN_POINT('',(-9.19238815542512,11.6,-9.19238815542512));
#601=CARTESIAN_POINT('Origin',(0.,11.6,0.));
#602=CARTESIAN_POINT('Origin',(0.,11.6,0.));
#603=CARTESIAN_POINT('Origin',(0.,22.,0.));
#604=CARTESIAN_POINT('',(-5.,22.,6.12323399573677E-16));
#605=CARTESIAN_POINT('Origin',(0.,22.,0.));
#606=CARTESIAN_POINT('Origin',(-9.19238815542512,1.6,-9.19238815542512));
#607=CARTESIAN_POINT('',(-9.19238815542512,1.6,-9.19238815542512));
#608=CARTESIAN_POINT('',(9.19238815542512,1.6,-9.19238815542512));
#609=CARTESIAN_POINT('',(-9.19238815542512,1.6,-9.19238815542512));
#610=CARTESIAN_POINT('',(-9.19238815542512,0.,-9.19238815542512));
#611=CARTESIAN_POINT('',(-9.19238815542512,11.6,-9.19238815542512));
#612=CARTESIAN_POINT('',(9.19238815542512,0.,-9.19238815542512));
#613=CARTESIAN_POINT('Origin',(-1.11022302462516E-15,11.6,-11.0961940777126));
#614=CARTESIAN_POINT('Origin',(9.19238815542512,1.6,-9.19238815542512));
#615=CARTESIAN_POINT('',(9.19238815542512,1.6,9.19238815542512));
#616=CARTESIAN_POINT('',(9.19238815542512,1.6,-9.19238815542512));
#617=CARTESIAN_POINT('',(9.19238815542512,11.6,-9.19238815542512));
#618=CARTESIAN_POINT('',(9.19238815542512,0.,9.19238815542512));
#619=CARTESIAN_POINT('Origin',(11.0961940777126,11.6,0.));
#620=CARTESIAN_POINT('Origin',(9.19238815542512,1.6,9.19238815542512));
#621=CARTESIAN_POINT('',(-9.19238815542512,1.6,9.19238815542512));
#622=CARTESIAN_POINT('',(9.19238815542512,1.6,9.19238815542512));
#623=CARTESIAN_POINT('',(9.19238815542512,11.6,9.19238815542512));
#624=CARTESIAN_POINT('',(-9.19238815542511,0.,9.19238815542512));
#625=CARTESIAN_POINT('Origin',(-3.33066907387547E-15,11.6,11.0961940777126));
#626=CARTESIAN_POINT('Origin',(-9.19238815542512,1.6,9.19238815542512));
#627=CARTESIAN_POINT('',(-9.19238815542512,1.6,9.19238815542512));
#628=CARTESIAN_POINT('',(-9.19238815542512,11.6,9.19238815542512));
#629=CARTESIAN_POINT('Origin',(-11.0961940777126,11.6,1.11022302462516E-15));
#630=CARTESIAN_POINT('Origin',(0.,22.,0.));
#631=CARTESIAN_POINT('',(-5.,22.,6.12323399573677E-16));
#632=CARTESIAN_POINT('Origin',(0.,1.6,-2.22044604925031E-15));
#633=CARTESIAN_POINT('',(13.,1.6,17.));
#634=CARTESIAN_POINT('',(13.,1.6,-17.));
#635=CARTESIAN_POINT('',(13.,1.6,17.));
#636=CARTESIAN_POINT('',(-13.,1.6,-17.));
#637=CARTESIAN_POINT('',(13.,1.6,-17.));
#638=CARTESIAN_POINT('',(-13.,1.6,17.));
#639=CARTESIAN_POINT('',(-13.,1.6,-17.));
#640=CARTESIAN_POINT('',(-13.,1.6,17.));
#641=CARTESIAN_POINT('Origin',(0.,0.,-2.22044604925031E-15));
#642=CARTESIAN_POINT('',(-13.,0.,-17.));
#643=CARTESIAN_POINT('',(-13.,0.,17.));
#644=CARTESIAN_POINT('',(-13.,0.,-17.));
#645=CARTESIAN_POINT('',(13.,0.,-17.));
#646=CARTESIAN_POINT('',(13.,0.,-17.));
#647=CARTESIAN_POINT('',(13.,0.,17.));
#648=CARTESIAN_POINT('',(13.,0.,17.));
#649=CARTESIAN_POINT('',(-13.,0.,17.));
#650=CARTESIAN_POINT('Origin',(-13.,0.,17.));
#651=CARTESIAN_POINT('',(13.,0.,17.));
#652=CARTESIAN_POINT('',(-13.,0.,17.));
#653=CARTESIAN_POINT('Origin',(-13.,0.,-17.));
#654=CARTESIAN_POINT('',(-13.,0.,-17.));
#655=CARTESIAN_POINT('Origin',(13.,0.,-17.));
#656=CARTESIAN_POINT('',(13.,0.,-17.));
#657=CARTESIAN_POINT('Origin',(13.,0.,17.));
#658=UNCERTAINTY_MEASURE_WITH_UNIT(LENGTH_MEASURE(0.01),#662,
'DISTANCE_ACCURACY_VALUE',
'Maximum model space distance between geometric entities at asserted c
onnectivities');
#659=UNCERTAINTY_MEASURE_WITH_UNIT(LENGTH_MEASURE(0.01),#662,
'DISTANCE_ACCURACY_VALUE',
'Maximum model space distance between geometric entities at asserted c
onnectivities');
#660=(
GEOMETRIC_REPRESENTATION_CONTEXT(3)
GLOBAL_UNCERTAINTY_ASSIGNED_CONTEXT((#658))
GLOBAL_UNIT_ASSIGNED_CONTEXT((#662,#664,#665))
REPRESENTATION_CONTEXT('','3D')
);
#661=(
GEOMETRIC_REPRESENTATION_CONTEXT(3)
GLOBAL_UNCERTAINTY_ASSIGNED_CONTEXT((#659))
GLOBAL_UNIT_ASSIGNED_CONTEXT((#662,#664,#665))
REPRESENTATION_CONTEXT('','3D')
);
#662=(
LENGTH_UNIT()
NAMED_UNIT(*)
SI_UNIT(.MILLI.,.METRE.)
);
#663=(
LENGTH_UNIT()
NAMED_UNIT(*)
SI_UNIT(.CENTI.,.METRE.)
);
#664=(
NAMED_UNIT(*)
PLANE_ANGLE_UNIT()
SI_UNIT($,.RADIAN.)
);
#665=(
NAMED_UNIT(*)
SI_UNIT($,.STERADIAN.)
SOLID_ANGLE_UNIT()
);
#666=SHAPE_DEFINITION_REPRESENTATION(#667,#668);
#667=PRODUCT_DEFINITION_SHAPE('',$,#670);
#668=SHAPE_REPRESENTATION('',(#381),#660);
#669=PRODUCT_DEFINITION_CONTEXT('part definition',#674,'design');
#670=PRODUCT_DEFINITION('stick','stick',#671,#669);
#671=PRODUCT_DEFINITION_FORMATION('',$,#676);
#672=PRODUCT_RELATED_PRODUCT_CATEGORY('stick','stick',(#676));
#673=APPLICATION_PROTOCOL_DEFINITION('international standard',
'automotive_design',2009,#674);
#674=APPLICATION_CONTEXT(
'Core Data for Automotive Mechanical Design Process');
#675=PRODUCT_CONTEXT('part definition',#674,'mechanical');
#676=PRODUCT('stick','stick',$,(#675));
#677=PRESENTATION_STYLE_ASSIGNMENT((#680));
#678=PRESENTATION_STYLE_ASSIGNMENT((#681));
#679=PRESENTATION_STYLE_ASSIGNMENT((#682));
#680=SURFACE_STYLE_USAGE(.BOTH.,#689);
#681=SURFACE_STYLE_USAGE(.BOTH.,#690);
#682=SURFACE_STYLE_USAGE(.BOTH.,#691);
#683=SURFACE_STYLE_RENDERING_WITH_PROPERTIES($,#701,(#686));
#684=SURFACE_STYLE_RENDERING_WITH_PROPERTIES($,#702,(#687));
#685=SURFACE_STYLE_RENDERING_WITH_PROPERTIES($,#703,(#688));
#686=SURFACE_STYLE_TRANSPARENT(0.);
#687=SURFACE_STYLE_TRANSPARENT(0.);
#688=SURFACE_STYLE_TRANSPARENT(0.);
#689=SURFACE_SIDE_STYLE('',(#692,#683));
#690=SURFACE_SIDE_STYLE('',(#693,#684));
#691=SURFACE_SIDE_STYLE('',(#694,#685));
#692=SURFACE_STYLE_FILL_AREA(#695);
#693=SURFACE_STYLE_FILL_AREA(#696);
#694=SURFACE_STYLE_FILL_AREA(#697);
#695=FILL_AREA_STYLE('',(#698));
#696=FILL_AREA_STYLE('',(#699));
#697=FILL_AREA_STYLE('',(#700));
#698=FILL_AREA_STYLE_COLOUR('',#701);
#699=FILL_AREA_STYLE_COLOUR('',#702);
#700=FILL_AREA_STYLE_COLOUR('',#703);
#701=COLOUR_RGB('',0.749019607843137,0.749019607843137,0.749019607843137);
#702=COLOUR_RGB('',0.156862745098039,0.156862745098039,0.156862745098039);
#703=COLOUR_RGB('',0.337254901960784,0.337254901960784,0.337254901960784);
ENDSEC;
END-ISO-10303-21;
