ISO-10303-21;
HEADER;
/* Generated by software containing ST-Developer
 * from STEP Tools, Inc. (www.steptools.com) 
 */

FILE_DESCRIPTION(
/* description */ (''),
/* implementation_level */ '2;1');

FILE_NAME(
/* name */ 'back_base.stp',
/* time_stamp */ '2026-02-05T09:39:23+09:00',
/* author */ ('hibik'),
/* organization */ (''),
/* preprocessor_version */ 'ST-DEVELOPER v20.1',
/* originating_system */ 'Autodesk Inventor 2026',
/* authorisation */ '');

FILE_SCHEMA (('AUTOMOTIVE_DESIGN { 1 0 10303 214 3 1 1 }'));
ENDSEC;

DATA;
#10=MECHANICAL_DESIGN_GEOMETRIC_PRESENTATION_REPRESENTATION('',(#13),#1859);
#11=SHAPE_REPRESENTATION_RELATIONSHIP('SRR','None',#1866,#12);
#12=ADVANCED_BREP_SHAPE_REPRESENTATION('',(#14),#1858);
#13=STYLED_ITEM('',(#1876),#14);
#14=MANIFOLD_SOLID_BREP('\X2\30BD30EA30C330C9\X0\1',#1129);
#15=FACE_BOUND('',#135,.T.);
#16=FACE_BOUND('',#136,.T.);
#17=FACE_BOUND('',#137,.T.);
#18=FACE_BOUND('',#138,.T.);
#19=FACE_BOUND('',#139,.T.);
#20=FACE_BOUND('',#140,.T.);
#21=FACE_BOUND('',#141,.T.);
#22=FACE_BOUND('',#142,.T.);
#23=FACE_BOUND('',#150,.T.);
#24=FACE_BOUND('',#151,.T.);
#25=FACE_BOUND('',#152,.T.);
#26=FACE_BOUND('',#153,.T.);
#27=FACE_BOUND('',#154,.T.);
#28=FACE_BOUND('',#155,.T.);
#29=FACE_BOUND('',#156,.T.);
#30=FACE_BOUND('',#157,.T.);
#31=FACE_BOUND('',#158,.T.);
#32=FACE_BOUND('',#163,.T.);
#33=FACE_BOUND('',#176,.T.);
#34=FACE_BOUND('',#190,.T.);
#35=FACE_BOUND('',#194,.T.);
#36=FACE_BOUND('',#197,.T.);
#37=FACE_BOUND('',#201,.T.);
#38=FACE_BOUND('',#203,.T.);
#39=FACE_BOUND('',#210,.T.);
#40=PLANE('',#1155);
#41=PLANE('',#1175);
#42=PLANE('',#1176);
#43=PLANE('',#1177);
#44=PLANE('',#1178);
#45=PLANE('',#1189);
#46=PLANE('',#1190);
#47=PLANE('',#1194);
#48=PLANE('',#1197);
#49=PLANE('',#1203);
#50=PLANE('',#1204);
#51=PLANE('',#1205);
#52=PLANE('',#1206);
#53=PLANE('',#1207);
#54=PLANE('',#1208);
#55=PLANE('',#1209);
#56=PLANE('',#1210);
#57=PLANE('',#1211);
#58=PLANE('',#1216);
#59=PLANE('',#1217);
#60=PLANE('',#1218);
#61=PLANE('',#1219);
#62=PLANE('',#1220);
#63=PLANE('',#1226);
#64=PLANE('',#1227);
#65=PLANE('',#1228);
#66=PLANE('',#1229);
#67=PLANE('',#1230);
#68=PLANE('',#1231);
#69=PLANE('',#1232);
#70=PLANE('',#1233);
#71=PLANE('',#1234);
#72=PLANE('',#1235);
#73=PLANE('',#1236);
#74=PLANE('',#1237);
#75=PLANE('',#1238);
#76=PLANE('',#1239);
#77=PLANE('',#1240);
#78=FACE_OUTER_BOUND('',#133,.T.);
#79=FACE_OUTER_BOUND('',#134,.T.);
#80=FACE_OUTER_BOUND('',#143,.T.);
#81=FACE_OUTER_BOUND('',#144,.T.);
#82=FACE_OUTER_BOUND('',#145,.T.);
#83=FACE_OUTER_BOUND('',#146,.T.);
#84=FACE_OUTER_BOUND('',#147,.T.);
#85=FACE_OUTER_BOUND('',#148,.T.);
#86=FACE_OUTER_BOUND('',#149,.T.);
#87=FACE_OUTER_BOUND('',#159,.T.);
#88=FACE_OUTER_BOUND('',#160,.T.);
#89=FACE_OUTER_BOUND('',#161,.T.);
#90=FACE_OUTER_BOUND('',#162,.T.);
#91=FACE_OUTER_BOUND('',#164,.T.);
#92=FACE_OUTER_BOUND('',#165,.T.);
#93=FACE_OUTER_BOUND('',#166,.T.);
#94=FACE_OUTER_BOUND('',#167,.T.);
#95=FACE_OUTER_BOUND('',#168,.T.);
#96=FACE_OUTER_BOUND('',#169,.T.);
#97=FACE_OUTER_BOUND('',#170,.T.);
#98=FACE_OUTER_BOUND('',#171,.T.);
#99=FACE_OUTER_BOUND('',#172,.T.);
#100=FACE_OUTER_BOUND('',#173,.T.);
#101=FACE_OUTER_BOUND('',#174,.T.);
#102=FACE_OUTER_BOUND('',#175,.T.);
#103=FACE_OUTER_BOUND('',#177,.T.);
#104=FACE_OUTER_BOUND('',#178,.T.);
#105=FACE_OUTER_BOUND('',#179,.T.);
#106=FACE_OUTER_BOUND('',#180,.T.);
#107=FACE_OUTER_BOUND('',#181,.T.);
#108=FACE_OUTER_BOUND('',#182,.T.);
#109=FACE_OUTER_BOUND('',#183,.T.);
#110=FACE_OUTER_BOUND('',#184,.T.);
#111=FACE_OUTER_BOUND('',#185,.T.);
#112=FACE_OUTER_BOUND('',#186,.T.);
#113=FACE_OUTER_BOUND('',#187,.T.);
#114=FACE_OUTER_BOUND('',#188,.T.);
#115=FACE_OUTER_BOUND('',#189,.T.);
#116=FACE_OUTER_BOUND('',#191,.T.);
#117=FACE_OUTER_BOUND('',#192,.T.);
#118=FACE_OUTER_BOUND('',#193,.T.);
#119=FACE_OUTER_BOUND('',#195,.T.);
#120=FACE_OUTER_BOUND('',#196,.T.);
#121=FACE_OUTER_BOUND('',#198,.T.);
#122=FACE_OUTER_BOUND('',#199,.T.);
#123=FACE_OUTER_BOUND('',#200,.T.);
#124=FACE_OUTER_BOUND('',#202,.T.);
#125=FACE_OUTER_BOUND('',#204,.T.);
#126=FACE_OUTER_BOUND('',#205,.T.);
#127=FACE_OUTER_BOUND('',#206,.T.);
#128=FACE_OUTER_BOUND('',#207,.T.);
#129=FACE_OUTER_BOUND('',#208,.T.);
#130=FACE_OUTER_BOUND('',#209,.T.);
#131=FACE_OUTER_BOUND('',#211,.T.);
#132=FACE_OUTER_BOUND('',#212,.T.);
#133=EDGE_LOOP('',(#747,#748,#749,#750));
#134=EDGE_LOOP('',(#751,#752,#753,#754,#755,#756,#757,#758,#759,#760,#761,
#762,#763,#764,#765,#766,#767,#768,#769,#770,#771));
#135=EDGE_LOOP('',(#772));
#136=EDGE_LOOP('',(#773));
#137=EDGE_LOOP('',(#774));
#138=EDGE_LOOP('',(#775));
#139=EDGE_LOOP('',(#776));
#140=EDGE_LOOP('',(#777));
#141=EDGE_LOOP('',(#778));
#142=EDGE_LOOP('',(#779));
#143=EDGE_LOOP('',(#780,#781,#782,#783));
#144=EDGE_LOOP('',(#784,#785,#786,#787));
#145=EDGE_LOOP('',(#788,#789,#790,#791));
#146=EDGE_LOOP('',(#792,#793,#794,#795));
#147=EDGE_LOOP('',(#796,#797,#798,#799,#800,#801));
#148=EDGE_LOOP('',(#802,#803,#804,#805));
#149=EDGE_LOOP('',(#806,#807,#808,#809,#810,#811,#812,#813,#814,#815));
#150=EDGE_LOOP('',(#816));
#151=EDGE_LOOP('',(#817));
#152=EDGE_LOOP('',(#818));
#153=EDGE_LOOP('',(#819));
#154=EDGE_LOOP('',(#820));
#155=EDGE_LOOP('',(#821));
#156=EDGE_LOOP('',(#822));
#157=EDGE_LOOP('',(#823));
#158=EDGE_LOOP('',(#824));
#159=EDGE_LOOP('',(#825,#826,#827,#828));
#160=EDGE_LOOP('',(#829,#830,#831,#832,#833,#834,#835));
#161=EDGE_LOOP('',(#836,#837,#838,#839));
#162=EDGE_LOOP('',(#840));
#163=EDGE_LOOP('',(#841));
#164=EDGE_LOOP('',(#842,#843,#844,#845));
#165=EDGE_LOOP('',(#846,#847,#848,#849,#850,#851,#852));
#166=EDGE_LOOP('',(#853,#854,#855,#856));
#167=EDGE_LOOP('',(#857,#858,#859,#860));
#168=EDGE_LOOP('',(#861,#862,#863,#864));
#169=EDGE_LOOP('',(#865,#866,#867,#868));
#170=EDGE_LOOP('',(#869,#870,#871,#872));
#171=EDGE_LOOP('',(#873,#874,#875,#876));
#172=EDGE_LOOP('',(#877,#878,#879,#880));
#173=EDGE_LOOP('',(#881,#882,#883,#884));
#174=EDGE_LOOP('',(#885,#886,#887,#888,#889,#890,#891,#892));
#175=EDGE_LOOP('',(#893,#894,#895,#896,#897,#898));
#176=EDGE_LOOP('',(#899,#900,#901,#902));
#177=EDGE_LOOP('',(#903,#904,#905,#906));
#178=EDGE_LOOP('',(#907,#908,#909,#910,#911,#912,#913));
#179=EDGE_LOOP('',(#914,#915,#916,#917,#918,#919));
#180=EDGE_LOOP('',(#920,#921,#922,#923));
#181=EDGE_LOOP('',(#924,#925,#926,#927));
#182=EDGE_LOOP('',(#928,#929,#930,#931));
#183=EDGE_LOOP('',(#932,#933,#934,#935));
#184=EDGE_LOOP('',(#936,#937,#938,#939));
#185=EDGE_LOOP('',(#940,#941,#942,#943));
#186=EDGE_LOOP('',(#944,#945,#946,#947,#948));
#187=EDGE_LOOP('',(#949,#950,#951,#952,#953,#954,#955,#956));
#188=EDGE_LOOP('',(#957,#958,#959,#960));
#189=EDGE_LOOP('',(#961,#962,#963,#964,#965,#966,#967));
#190=EDGE_LOOP('',(#968,#969,#970,#971));
#191=EDGE_LOOP('',(#972,#973,#974,#975));
#192=EDGE_LOOP('',(#976,#977,#978,#979));
#193=EDGE_LOOP('',(#980,#981,#982,#983));
#194=EDGE_LOOP('',(#984));
#195=EDGE_LOOP('',(#985,#986,#987,#988));
#196=EDGE_LOOP('',(#989,#990,#991,#992));
#197=EDGE_LOOP('',(#993));
#198=EDGE_LOOP('',(#994,#995,#996,#997));
#199=EDGE_LOOP('',(#998,#999,#1000,#1001,#1002,#1003));
#200=EDGE_LOOP('',(#1004,#1005,#1006,#1007));
#201=EDGE_LOOP('',(#1008));
#202=EDGE_LOOP('',(#1009,#1010,#1011,#1012,#1013,#1014));
#203=EDGE_LOOP('',(#1015,#1016,#1017,#1018));
#204=EDGE_LOOP('',(#1019,#1020,#1021,#1022));
#205=EDGE_LOOP('',(#1023,#1024,#1025,#1026));
#206=EDGE_LOOP('',(#1027,#1028,#1029,#1030));
#207=EDGE_LOOP('',(#1031,#1032,#1033,#1034));
#208=EDGE_LOOP('',(#1035,#1036,#1037,#1038));
#209=EDGE_LOOP('',(#1039,#1040,#1041,#1042,#1043,#1044));
#210=EDGE_LOOP('',(#1045,#1046,#1047,#1048));
#211=EDGE_LOOP('',(#1049,#1050,#1051,#1052));
#212=EDGE_LOOP('',(#1053,#1054,#1055,#1056));
#213=CIRCLE('',#1154,10.);
#214=CIRCLE('',#1156,20.);
#215=CIRCLE('',#1157,20.);
#216=CIRCLE('',#1158,1.6);
#217=CIRCLE('',#1159,1.6);
#218=CIRCLE('',#1160,1.6);
#219=CIRCLE('',#1161,1.6);
#220=CIRCLE('',#1162,1.6);
#221=CIRCLE('',#1163,1.6);
#222=CIRCLE('',#1164,1.6);
#223=CIRCLE('',#1165,1.6);
#224=CIRCLE('',#1167,10.);
#225=CIRCLE('',#1168,10.);
#226=CIRCLE('',#1170,10.);
#227=CIRCLE('',#1171,10.);
#228=CIRCLE('',#1174,10.);
#229=CIRCLE('',#1179,20.);
#230=CIRCLE('',#1180,1.6);
#231=CIRCLE('',#1181,1.6);
#232=CIRCLE('',#1182,1.6);
#233=CIRCLE('',#1183,1.6);
#234=CIRCLE('',#1184,1.6);
#235=CIRCLE('',#1185,1.6);
#236=CIRCLE('',#1186,1.6);
#237=CIRCLE('',#1187,1.6);
#238=CIRCLE('',#1188,3.5);
#239=CIRCLE('',#1191,20.);
#240=CIRCLE('',#1193,3.5);
#241=CIRCLE('',#1195,1.6);
#242=CIRCLE('',#1222,1.6);
#243=CIRCLE('',#1224,1.6);
#244=CIRCLE('',#1225,1.6);
#245=LINE('',#1548,#366);
#246=LINE('',#1551,#367);
#247=LINE('',#1554,#368);
#248=LINE('',#1556,#369);
#249=LINE('',#1558,#370);
#250=LINE('',#1560,#371);
#251=LINE('',#1562,#372);
#252=LINE('',#1564,#373);
#253=LINE('',#1566,#374);
#254=LINE('',#1568,#375);
#255=LINE('',#1572,#376);
#256=LINE('',#1574,#377);
#257=LINE('',#1576,#378);
#258=LINE('',#1578,#379);
#259=LINE('',#1580,#380);
#260=LINE('',#1582,#381);
#261=LINE('',#1584,#382);
#262=LINE('',#1586,#383);
#263=LINE('',#1588,#384);
#264=LINE('',#1591,#385);
#265=LINE('',#1613,#386);
#266=LINE('',#1619,#387);
#267=LINE('',#1625,#388);
#268=LINE('',#1629,#389);
#269=LINE('',#1631,#390);
#270=LINE('',#1633,#391);
#271=LINE('',#1634,#392);
#272=LINE('',#1638,#393);
#273=LINE('',#1639,#394);
#274=LINE('',#1641,#395);
#275=LINE('',#1643,#396);
#276=LINE('',#1644,#397);
#277=LINE('',#1647,#398);
#278=LINE('',#1648,#399);
#279=LINE('',#1651,#400);
#280=LINE('',#1653,#401);
#281=LINE('',#1654,#402);
#282=LINE('',#1656,#403);
#283=LINE('',#1658,#404);
#284=LINE('',#1660,#405);
#285=LINE('',#1682,#406);
#286=LINE('',#1684,#407);
#287=LINE('',#1685,#408);
#288=LINE('',#1688,#409);
#289=LINE('',#1690,#410);
#290=LINE('',#1692,#411);
#291=LINE('',#1696,#412);
#292=LINE('',#1697,#413);
#293=LINE('',#1700,#414);
#294=LINE('',#1706,#415);
#295=LINE('',#1707,#416);
#296=LINE('',#1709,#417);
#297=LINE('',#1710,#418);
#298=LINE('',#1712,#419);
#299=LINE('',#1714,#420);
#300=LINE('',#1716,#421);
#301=LINE('',#1718,#422);
#302=LINE('',#1720,#423);
#303=LINE('',#1722,#424);
#304=LINE('',#1724,#425);
#305=LINE('',#1726,#426);
#306=LINE('',#1730,#427);
#307=LINE('',#1732,#428);
#308=LINE('',#1733,#429);
#309=LINE('',#1736,#430);
#310=LINE('',#1738,#431);
#311=LINE('',#1740,#432);
#312=LINE('',#1741,#433);
#313=LINE('',#1744,#434);
#314=LINE('',#1746,#435);
#315=LINE('',#1747,#436);
#316=LINE('',#1750,#437);
#317=LINE('',#1752,#438);
#318=LINE('',#1754,#439);
#319=LINE('',#1756,#440);
#320=LINE('',#1758,#441);
#321=LINE('',#1759,#442);
#322=LINE('',#1761,#443);
#323=LINE('',#1763,#444);
#324=LINE('',#1765,#445);
#325=LINE('',#1767,#446);
#326=LINE('',#1769,#447);
#327=LINE('',#1771,#448);
#328=LINE('',#1773,#449);
#329=LINE('',#1775,#450);
#330=LINE('',#1776,#451);
#331=LINE('',#1780,#452);
#332=LINE('',#1782,#453);
#333=LINE('',#1783,#454);
#334=LINE('',#1786,#455);
#335=LINE('',#1787,#456);
#336=LINE('',#1790,#457);
#337=LINE('',#1792,#458);
#338=LINE('',#1794,#459);
#339=LINE('',#1795,#460);
#340=LINE('',#1799,#461);
#341=LINE('',#1804,#462);
#342=LINE('',#1808,#463);
#343=LINE('',#1810,#464);
#344=LINE('',#1811,#465);
#345=LINE('',#1814,#466);
#346=LINE('',#1815,#467);
#347=LINE('',#1818,#468);
#348=LINE('',#1819,#469);
#349=LINE('',#1821,#470);
#350=LINE('',#1824,#471);
#351=LINE('',#1825,#472);
#352=LINE('',#1827,#473);
#353=LINE('',#1831,#474);
#354=LINE('',#1833,#475);
#355=LINE('',#1834,#476);
#356=LINE('',#1837,#477);
#357=LINE('',#1838,#478);
#358=LINE('',#1841,#479);
#359=LINE('',#1842,#480);
#360=LINE('',#1844,#481);
#361=LINE('',#1847,#482);
#362=LINE('',#1849,#483);
#363=LINE('',#1850,#484);
#364=LINE('',#1852,#485);
#365=LINE('',#1853,#486);
#366=VECTOR('',#1247,10.);
#367=VECTOR('',#1250,10.);
#368=VECTOR('',#1253,10.);
#369=VECTOR('',#1254,10.);
#370=VECTOR('',#1255,10.);
#371=VECTOR('',#1256,10.);
#372=VECTOR('',#1257,10.);
#373=VECTOR('',#1258,10.);
#374=VECTOR('',#1259,10.);
#375=VECTOR('',#1260,10.);
#376=VECTOR('',#1263,10.);
#377=VECTOR('',#1264,10.);
#378=VECTOR('',#1265,10.);
#379=VECTOR('',#1266,10.);
#380=VECTOR('',#1267,10.);
#381=VECTOR('',#1268,10.);
#382=VECTOR('',#1269,10.);
#383=VECTOR('',#1270,10.);
#384=VECTOR('',#1271,10.);
#385=VECTOR('',#1274,10.);
#386=VECTOR('',#1297,10.);
#387=VECTOR('',#1304,10.);
#388=VECTOR('',#1311,10.);
#389=VECTOR('',#1314,10.);
#390=VECTOR('',#1315,10.);
#391=VECTOR('',#1316,10.);
#392=VECTOR('',#1317,10.);
#393=VECTOR('',#1320,10.);
#394=VECTOR('',#1321,10.);
#395=VECTOR('',#1322,10.);
#396=VECTOR('',#1323,10.);
#397=VECTOR('',#1324,10.);
#398=VECTOR('',#1327,10.);
#399=VECTOR('',#1328,10.);
#400=VECTOR('',#1331,10.);
#401=VECTOR('',#1332,10.);
#402=VECTOR('',#1333,10.);
#403=VECTOR('',#1334,10.);
#404=VECTOR('',#1335,10.);
#405=VECTOR('',#1336,10.);
#406=VECTOR('',#1359,10.);
#407=VECTOR('',#1360,10.);
#408=VECTOR('',#1361,10.);
#409=VECTOR('',#1364,10.);
#410=VECTOR('',#1365,10.);
#411=VECTOR('',#1366,10.);
#412=VECTOR('',#1369,10.);
#413=VECTOR('',#1370,10.);
#414=VECTOR('',#1373,3.5);
#415=VECTOR('',#1382,10.);
#416=VECTOR('',#1383,10.);
#417=VECTOR('',#1386,10.);
#418=VECTOR('',#1387,10.);
#419=VECTOR('',#1390,10.);
#420=VECTOR('',#1393,1.6);
#421=VECTOR('',#1396,1.6);
#422=VECTOR('',#1399,1.6);
#423=VECTOR('',#1402,1.6);
#424=VECTOR('',#1405,10.);
#425=VECTOR('',#1408,10.);
#426=VECTOR('',#1411,10.);
#427=VECTOR('',#1416,10.);
#428=VECTOR('',#1417,10.);
#429=VECTOR('',#1418,10.);
#430=VECTOR('',#1419,10.);
#431=VECTOR('',#1420,10.);
#432=VECTOR('',#1421,10.);
#433=VECTOR('',#1422,10.);
#434=VECTOR('',#1425,10.);
#435=VECTOR('',#1426,10.);
#436=VECTOR('',#1427,10.);
#437=VECTOR('',#1430,10.);
#438=VECTOR('',#1431,10.);
#439=VECTOR('',#1432,10.);
#440=VECTOR('',#1433,10.);
#441=VECTOR('',#1434,10.);
#442=VECTOR('',#1435,10.);
#443=VECTOR('',#1438,10.);
#444=VECTOR('',#1441,10.);
#445=VECTOR('',#1444,1.6);
#446=VECTOR('',#1447,1.6);
#447=VECTOR('',#1450,1.6);
#448=VECTOR('',#1453,1.6);
#449=VECTOR('',#1456,10.);
#450=VECTOR('',#1459,10.);
#451=VECTOR('',#1460,10.);
#452=VECTOR('',#1465,10.);
#453=VECTOR('',#1466,10.);
#454=VECTOR('',#1467,10.);
#455=VECTOR('',#1470,10.);
#456=VECTOR('',#1471,10.);
#457=VECTOR('',#1472,10.);
#458=VECTOR('',#1473,10.);
#459=VECTOR('',#1474,10.);
#460=VECTOR('',#1475,10.);
#461=VECTOR('',#1480,1.6);
#462=VECTOR('',#1485,1.6);
#463=VECTOR('',#1490,10.);
#464=VECTOR('',#1491,10.);
#465=VECTOR('',#1492,10.);
#466=VECTOR('',#1495,10.);
#467=VECTOR('',#1496,10.);
#468=VECTOR('',#1499,10.);
#469=VECTOR('',#1500,10.);
#470=VECTOR('',#1503,10.);
#471=VECTOR('',#1506,10.);
#472=VECTOR('',#1507,10.);
#473=VECTOR('',#1510,10.);
#474=VECTOR('',#1515,10.);
#475=VECTOR('',#1516,10.);
#476=VECTOR('',#1517,10.);
#477=VECTOR('',#1520,10.);
#478=VECTOR('',#1521,10.);
#479=VECTOR('',#1524,10.);
#480=VECTOR('',#1525,10.);
#481=VECTOR('',#1528,10.);
#482=VECTOR('',#1531,10.);
#483=VECTOR('',#1532,10.);
#484=VECTOR('',#1533,10.);
#485=VECTOR('',#1536,10.);
#486=VECTOR('',#1537,10.);
#487=ELLIPSE('',#1153,29.2380440016309,10.);
#488=ELLIPSE('',#1173,10.6417777247591,10.);
#489=VERTEX_POINT('',#1544);
#490=VERTEX_POINT('',#1545);
#491=VERTEX_POINT('',#1547);
#492=VERTEX_POINT('',#1549);
#493=VERTEX_POINT('',#1553);
#494=VERTEX_POINT('',#1555);
#495=VERTEX_POINT('',#1557);
#496=VERTEX_POINT('',#1559);
#497=VERTEX_POINT('',#1561);
#498=VERTEX_POINT('',#1563);
#499=VERTEX_POINT('',#1565);
#500=VERTEX_POINT('',#1567);
#501=VERTEX_POINT('',#1569);
#502=VERTEX_POINT('',#1571);
#503=VERTEX_POINT('',#1573);
#504=VERTEX_POINT('',#1575);
#505=VERTEX_POINT('',#1577);
#506=VERTEX_POINT('',#1579);
#507=VERTEX_POINT('',#1581);
#508=VERTEX_POINT('',#1583);
#509=VERTEX_POINT('',#1585);
#510=VERTEX_POINT('',#1587);
#511=VERTEX_POINT('',#1589);
#512=VERTEX_POINT('',#1592);
#513=VERTEX_POINT('',#1594);
#514=VERTEX_POINT('',#1596);
#515=VERTEX_POINT('',#1598);
#516=VERTEX_POINT('',#1600);
#517=VERTEX_POINT('',#1602);
#518=VERTEX_POINT('',#1604);
#519=VERTEX_POINT('',#1606);
#520=VERTEX_POINT('',#1609);
#521=VERTEX_POINT('',#1611);
#522=VERTEX_POINT('',#1615);
#523=VERTEX_POINT('',#1617);
#524=VERTEX_POINT('',#1621);
#525=VERTEX_POINT('',#1623);
#526=VERTEX_POINT('',#1627);
#527=VERTEX_POINT('',#1628);
#528=VERTEX_POINT('',#1630);
#529=VERTEX_POINT('',#1632);
#530=VERTEX_POINT('',#1636);
#531=VERTEX_POINT('',#1637);
#532=VERTEX_POINT('',#1640);
#533=VERTEX_POINT('',#1642);
#534=VERTEX_POINT('',#1646);
#535=VERTEX_POINT('',#1650);
#536=VERTEX_POINT('',#1652);
#537=VERTEX_POINT('',#1655);
#538=VERTEX_POINT('',#1657);
#539=VERTEX_POINT('',#1659);
#540=VERTEX_POINT('',#1662);
#541=VERTEX_POINT('',#1664);
#542=VERTEX_POINT('',#1666);
#543=VERTEX_POINT('',#1668);
#544=VERTEX_POINT('',#1670);
#545=VERTEX_POINT('',#1672);
#546=VERTEX_POINT('',#1674);
#547=VERTEX_POINT('',#1676);
#548=VERTEX_POINT('',#1678);
#549=VERTEX_POINT('',#1681);
#550=VERTEX_POINT('',#1683);
#551=VERTEX_POINT('',#1687);
#552=VERTEX_POINT('',#1689);
#553=VERTEX_POINT('',#1691);
#554=VERTEX_POINT('',#1693);
#555=VERTEX_POINT('',#1695);
#556=VERTEX_POINT('',#1699);
#557=VERTEX_POINT('',#1703);
#558=VERTEX_POINT('',#1729);
#559=VERTEX_POINT('',#1731);
#560=VERTEX_POINT('',#1734);
#561=VERTEX_POINT('',#1735);
#562=VERTEX_POINT('',#1737);
#563=VERTEX_POINT('',#1739);
#564=VERTEX_POINT('',#1743);
#565=VERTEX_POINT('',#1745);
#566=VERTEX_POINT('',#1749);
#567=VERTEX_POINT('',#1751);
#568=VERTEX_POINT('',#1753);
#569=VERTEX_POINT('',#1755);
#570=VERTEX_POINT('',#1757);
#571=VERTEX_POINT('',#1779);
#572=VERTEX_POINT('',#1781);
#573=VERTEX_POINT('',#1785);
#574=VERTEX_POINT('',#1788);
#575=VERTEX_POINT('',#1789);
#576=VERTEX_POINT('',#1791);
#577=VERTEX_POINT('',#1793);
#578=VERTEX_POINT('',#1797);
#579=VERTEX_POINT('',#1801);
#580=VERTEX_POINT('',#1803);
#581=VERTEX_POINT('',#1807);
#582=VERTEX_POINT('',#1809);
#583=VERTEX_POINT('',#1813);
#584=VERTEX_POINT('',#1817);
#585=VERTEX_POINT('',#1823);
#586=VERTEX_POINT('',#1830);
#587=VERTEX_POINT('',#1832);
#588=VERTEX_POINT('',#1836);
#589=VERTEX_POINT('',#1840);
#590=VERTEX_POINT('',#1846);
#591=VERTEX_POINT('',#1848);
#592=EDGE_CURVE('',#489,#490,#487,.T.);
#593=EDGE_CURVE('',#490,#491,#245,.T.);
#594=EDGE_CURVE('',#491,#492,#213,.T.);
#595=EDGE_CURVE('',#492,#489,#246,.T.);
#596=EDGE_CURVE('',#493,#492,#247,.T.);
#597=EDGE_CURVE('',#494,#493,#248,.T.);
#598=EDGE_CURVE('',#495,#494,#249,.T.);
#599=EDGE_CURVE('',#495,#496,#250,.T.);
#600=EDGE_CURVE('',#496,#497,#251,.T.);
#601=EDGE_CURVE('',#497,#498,#252,.T.);
#602=EDGE_CURVE('',#498,#499,#253,.T.);
#603=EDGE_CURVE('',#499,#500,#254,.T.);
#604=EDGE_CURVE('',#501,#500,#214,.T.);
#605=EDGE_CURVE('',#501,#502,#255,.T.);
#606=EDGE_CURVE('',#502,#503,#256,.T.);
#607=EDGE_CURVE('',#504,#503,#257,.T.);
#608=EDGE_CURVE('',#505,#504,#258,.T.);
#609=EDGE_CURVE('',#506,#505,#259,.T.);
#610=EDGE_CURVE('',#507,#506,#260,.T.);
#611=EDGE_CURVE('',#507,#508,#261,.T.);
#612=EDGE_CURVE('',#508,#509,#262,.T.);
#613=EDGE_CURVE('',#509,#510,#263,.T.);
#614=EDGE_CURVE('',#511,#510,#215,.T.);
#615=EDGE_CURVE('',#511,#489,#264,.T.);
#616=EDGE_CURVE('',#512,#512,#216,.T.);
#617=EDGE_CURVE('',#513,#513,#217,.T.);
#618=EDGE_CURVE('',#514,#514,#218,.T.);
#619=EDGE_CURVE('',#515,#515,#219,.T.);
#620=EDGE_CURVE('',#516,#516,#220,.T.);
#621=EDGE_CURVE('',#517,#517,#221,.T.);
#622=EDGE_CURVE('',#518,#518,#222,.T.);
#623=EDGE_CURVE('',#519,#519,#223,.T.);
#624=EDGE_CURVE('',#520,#494,#224,.T.);
#625=EDGE_CURVE('',#493,#521,#225,.T.);
#626=EDGE_CURVE('',#521,#520,#265,.T.);
#627=EDGE_CURVE('',#522,#505,#226,.T.);
#628=EDGE_CURVE('',#504,#523,#227,.T.);
#629=EDGE_CURVE('',#523,#522,#266,.T.);
#630=EDGE_CURVE('',#524,#507,#488,.T.);
#631=EDGE_CURVE('',#506,#525,#228,.T.);
#632=EDGE_CURVE('',#525,#524,#267,.T.);
#633=EDGE_CURVE('',#526,#527,#268,.T.);
#634=EDGE_CURVE('',#528,#527,#269,.T.);
#635=EDGE_CURVE('',#529,#528,#270,.T.);
#636=EDGE_CURVE('',#529,#526,#271,.T.);
#637=EDGE_CURVE('',#530,#531,#272,.T.);
#638=EDGE_CURVE('',#499,#530,#273,.T.);
#639=EDGE_CURVE('',#532,#498,#274,.T.);
#640=EDGE_CURVE('',#533,#532,#275,.T.);
#641=EDGE_CURVE('',#531,#533,#276,.T.);
#642=EDGE_CURVE('',#530,#534,#277,.T.);
#643=EDGE_CURVE('',#500,#534,#278,.T.);
#644=EDGE_CURVE('',#535,#531,#279,.T.);
#645=EDGE_CURVE('',#536,#535,#280,.T.);
#646=EDGE_CURVE('',#526,#536,#281,.T.);
#647=EDGE_CURVE('',#537,#529,#282,.T.);
#648=EDGE_CURVE('',#538,#537,#283,.T.);
#649=EDGE_CURVE('',#538,#539,#284,.T.);
#650=EDGE_CURVE('',#534,#539,#229,.T.);
#651=EDGE_CURVE('',#540,#540,#230,.T.);
#652=EDGE_CURVE('',#541,#541,#231,.T.);
#653=EDGE_CURVE('',#542,#542,#232,.T.);
#654=EDGE_CURVE('',#543,#543,#233,.T.);
#655=EDGE_CURVE('',#544,#544,#234,.T.);
#656=EDGE_CURVE('',#545,#545,#235,.T.);
#657=EDGE_CURVE('',#546,#546,#236,.T.);
#658=EDGE_CURVE('',#547,#547,#237,.T.);
#659=EDGE_CURVE('',#548,#548,#238,.T.);
#660=EDGE_CURVE('',#532,#549,#285,.T.);
#661=EDGE_CURVE('',#549,#550,#286,.T.);
#662=EDGE_CURVE('',#550,#533,#287,.T.);
#663=EDGE_CURVE('',#527,#551,#288,.T.);
#664=EDGE_CURVE('',#551,#552,#289,.T.);
#665=EDGE_CURVE('',#552,#553,#290,.T.);
#666=EDGE_CURVE('',#554,#553,#239,.T.);
#667=EDGE_CURVE('',#554,#555,#291,.T.);
#668=EDGE_CURVE('',#555,#528,#292,.T.);
#669=EDGE_CURVE('',#548,#556,#293,.T.);
#670=EDGE_CURVE('',#556,#556,#240,.T.);
#671=EDGE_CURVE('',#557,#557,#241,.T.);
#672=EDGE_CURVE('',#553,#511,#294,.T.);
#673=EDGE_CURVE('',#510,#554,#295,.T.);
#674=EDGE_CURVE('',#552,#496,#296,.T.);
#675=EDGE_CURVE('',#495,#490,#297,.T.);
#676=EDGE_CURVE('',#539,#501,#298,.T.);
#677=EDGE_CURVE('',#540,#512,#299,.T.);
#678=EDGE_CURVE('',#541,#513,#300,.T.);
#679=EDGE_CURVE('',#542,#514,#301,.T.);
#680=EDGE_CURVE('',#543,#515,#302,.T.);
#681=EDGE_CURVE('',#551,#536,#303,.T.);
#682=EDGE_CURVE('',#535,#550,#304,.T.);
#683=EDGE_CURVE('',#549,#497,#305,.T.);
#684=EDGE_CURVE('',#558,#491,#306,.T.);
#685=EDGE_CURVE('',#559,#558,#307,.T.);
#686=EDGE_CURVE('',#559,#521,#308,.T.);
#687=EDGE_CURVE('',#560,#561,#309,.T.);
#688=EDGE_CURVE('',#561,#562,#310,.T.);
#689=EDGE_CURVE('',#562,#563,#311,.T.);
#690=EDGE_CURVE('',#563,#560,#312,.T.);
#691=EDGE_CURVE('',#502,#564,#313,.T.);
#692=EDGE_CURVE('',#565,#564,#314,.T.);
#693=EDGE_CURVE('',#503,#565,#315,.T.);
#694=EDGE_CURVE('',#564,#566,#316,.T.);
#695=EDGE_CURVE('',#566,#567,#317,.T.);
#696=EDGE_CURVE('',#567,#568,#318,.T.);
#697=EDGE_CURVE('',#568,#569,#319,.T.);
#698=EDGE_CURVE('',#569,#570,#320,.T.);
#699=EDGE_CURVE('',#570,#565,#321,.T.);
#700=EDGE_CURVE('',#566,#538,#322,.T.);
#701=EDGE_CURVE('',#555,#509,#323,.T.);
#702=EDGE_CURVE('',#547,#519,#324,.T.);
#703=EDGE_CURVE('',#546,#518,#325,.T.);
#704=EDGE_CURVE('',#545,#517,#326,.T.);
#705=EDGE_CURVE('',#544,#516,#327,.T.);
#706=EDGE_CURVE('',#567,#537,#328,.T.);
#707=EDGE_CURVE('',#569,#524,#329,.T.);
#708=EDGE_CURVE('',#568,#508,#330,.T.);
#709=EDGE_CURVE('',#571,#523,#331,.T.);
#710=EDGE_CURVE('',#571,#572,#332,.T.);
#711=EDGE_CURVE('',#522,#572,#333,.T.);
#712=EDGE_CURVE('',#573,#570,#334,.T.);
#713=EDGE_CURVE('',#571,#573,#335,.T.);
#714=EDGE_CURVE('',#574,#575,#336,.T.);
#715=EDGE_CURVE('',#576,#574,#337,.T.);
#716=EDGE_CURVE('',#577,#576,#338,.T.);
#717=EDGE_CURVE('',#575,#577,#339,.T.);
#718=EDGE_CURVE('',#578,#578,#242,.T.);
#719=EDGE_CURVE('',#578,#557,#340,.T.);
#720=EDGE_CURVE('',#579,#579,#243,.T.);
#721=EDGE_CURVE('',#579,#580,#341,.T.);
#722=EDGE_CURVE('',#580,#580,#244,.T.);
#723=EDGE_CURVE('',#574,#581,#342,.T.);
#724=EDGE_CURVE('',#582,#581,#343,.T.);
#725=EDGE_CURVE('',#576,#582,#344,.T.);
#726=EDGE_CURVE('',#583,#582,#345,.T.);
#727=EDGE_CURVE('',#577,#583,#346,.T.);
#728=EDGE_CURVE('',#584,#583,#347,.T.);
#729=EDGE_CURVE('',#575,#584,#348,.T.);
#730=EDGE_CURVE('',#581,#584,#349,.T.);
#731=EDGE_CURVE('',#585,#525,#350,.T.);
#732=EDGE_CURVE('',#573,#585,#351,.T.);
#733=EDGE_CURVE('',#572,#585,#352,.T.);
#734=EDGE_CURVE('',#586,#562,#353,.T.);
#735=EDGE_CURVE('',#587,#586,#354,.T.);
#736=EDGE_CURVE('',#587,#563,#355,.T.);
#737=EDGE_CURVE('',#588,#587,#356,.T.);
#738=EDGE_CURVE('',#588,#560,#357,.T.);
#739=EDGE_CURVE('',#589,#588,#358,.T.);
#740=EDGE_CURVE('',#589,#561,#359,.T.);
#741=EDGE_CURVE('',#586,#589,#360,.T.);
#742=EDGE_CURVE('',#590,#559,#361,.T.);
#743=EDGE_CURVE('',#591,#558,#362,.T.);
#744=EDGE_CURVE('',#590,#591,#363,.T.);
#745=EDGE_CURVE('',#520,#590,#364,.T.);
#746=EDGE_CURVE('',#490,#591,#365,.T.);
#747=ORIENTED_EDGE('',*,*,#592,.T.);
#748=ORIENTED_EDGE('',*,*,#593,.T.);
#749=ORIENTED_EDGE('',*,*,#594,.T.);
#750=ORIENTED_EDGE('',*,*,#595,.T.);
#751=ORIENTED_EDGE('',*,*,#595,.F.);
#752=ORIENTED_EDGE('',*,*,#596,.F.);
#753=ORIENTED_EDGE('',*,*,#597,.F.);
#754=ORIENTED_EDGE('',*,*,#598,.F.);
#755=ORIENTED_EDGE('',*,*,#599,.T.);
#756=ORIENTED_EDGE('',*,*,#600,.T.);
#757=ORIENTED_EDGE('',*,*,#601,.T.);
#758=ORIENTED_EDGE('',*,*,#602,.T.);
#759=ORIENTED_EDGE('',*,*,#603,.T.);
#760=ORIENTED_EDGE('',*,*,#604,.F.);
#761=ORIENTED_EDGE('',*,*,#605,.T.);
#762=ORIENTED_EDGE('',*,*,#606,.T.);
#763=ORIENTED_EDGE('',*,*,#607,.F.);
#764=ORIENTED_EDGE('',*,*,#608,.F.);
#765=ORIENTED_EDGE('',*,*,#609,.F.);
#766=ORIENTED_EDGE('',*,*,#610,.F.);
#767=ORIENTED_EDGE('',*,*,#611,.T.);
#768=ORIENTED_EDGE('',*,*,#612,.T.);
#769=ORIENTED_EDGE('',*,*,#613,.T.);
#770=ORIENTED_EDGE('',*,*,#614,.F.);
#771=ORIENTED_EDGE('',*,*,#615,.T.);
#772=ORIENTED_EDGE('',*,*,#616,.T.);
#773=ORIENTED_EDGE('',*,*,#617,.T.);
#774=ORIENTED_EDGE('',*,*,#618,.T.);
#775=ORIENTED_EDGE('',*,*,#619,.T.);
#776=ORIENTED_EDGE('',*,*,#620,.T.);
#777=ORIENTED_EDGE('',*,*,#621,.T.);
#778=ORIENTED_EDGE('',*,*,#622,.T.);
#779=ORIENTED_EDGE('',*,*,#623,.T.);
#780=ORIENTED_EDGE('',*,*,#624,.T.);
#781=ORIENTED_EDGE('',*,*,#597,.T.);
#782=ORIENTED_EDGE('',*,*,#625,.T.);
#783=ORIENTED_EDGE('',*,*,#626,.T.);
#784=ORIENTED_EDGE('',*,*,#627,.T.);
#785=ORIENTED_EDGE('',*,*,#608,.T.);
#786=ORIENTED_EDGE('',*,*,#628,.T.);
#787=ORIENTED_EDGE('',*,*,#629,.T.);
#788=ORIENTED_EDGE('',*,*,#630,.T.);
#789=ORIENTED_EDGE('',*,*,#610,.T.);
#790=ORIENTED_EDGE('',*,*,#631,.T.);
#791=ORIENTED_EDGE('',*,*,#632,.T.);
#792=ORIENTED_EDGE('',*,*,#633,.T.);
#793=ORIENTED_EDGE('',*,*,#634,.F.);
#794=ORIENTED_EDGE('',*,*,#635,.F.);
#795=ORIENTED_EDGE('',*,*,#636,.T.);
#796=ORIENTED_EDGE('',*,*,#637,.F.);
#797=ORIENTED_EDGE('',*,*,#638,.F.);
#798=ORIENTED_EDGE('',*,*,#602,.F.);
#799=ORIENTED_EDGE('',*,*,#639,.F.);
#800=ORIENTED_EDGE('',*,*,#640,.F.);
#801=ORIENTED_EDGE('',*,*,#641,.F.);
#802=ORIENTED_EDGE('',*,*,#642,.T.);
#803=ORIENTED_EDGE('',*,*,#643,.F.);
#804=ORIENTED_EDGE('',*,*,#603,.F.);
#805=ORIENTED_EDGE('',*,*,#638,.T.);
#806=ORIENTED_EDGE('',*,*,#642,.F.);
#807=ORIENTED_EDGE('',*,*,#637,.T.);
#808=ORIENTED_EDGE('',*,*,#644,.F.);
#809=ORIENTED_EDGE('',*,*,#645,.F.);
#810=ORIENTED_EDGE('',*,*,#646,.F.);
#811=ORIENTED_EDGE('',*,*,#636,.F.);
#812=ORIENTED_EDGE('',*,*,#647,.F.);
#813=ORIENTED_EDGE('',*,*,#648,.F.);
#814=ORIENTED_EDGE('',*,*,#649,.T.);
#815=ORIENTED_EDGE('',*,*,#650,.F.);
#816=ORIENTED_EDGE('',*,*,#651,.T.);
#817=ORIENTED_EDGE('',*,*,#652,.T.);
#818=ORIENTED_EDGE('',*,*,#653,.T.);
#819=ORIENTED_EDGE('',*,*,#654,.T.);
#820=ORIENTED_EDGE('',*,*,#655,.T.);
#821=ORIENTED_EDGE('',*,*,#656,.T.);
#822=ORIENTED_EDGE('',*,*,#657,.T.);
#823=ORIENTED_EDGE('',*,*,#658,.T.);
#824=ORIENTED_EDGE('',*,*,#659,.T.);
#825=ORIENTED_EDGE('',*,*,#640,.T.);
#826=ORIENTED_EDGE('',*,*,#660,.T.);
#827=ORIENTED_EDGE('',*,*,#661,.T.);
#828=ORIENTED_EDGE('',*,*,#662,.T.);
#829=ORIENTED_EDGE('',*,*,#663,.T.);
#830=ORIENTED_EDGE('',*,*,#664,.T.);
#831=ORIENTED_EDGE('',*,*,#665,.T.);
#832=ORIENTED_EDGE('',*,*,#666,.F.);
#833=ORIENTED_EDGE('',*,*,#667,.T.);
#834=ORIENTED_EDGE('',*,*,#668,.T.);
#835=ORIENTED_EDGE('',*,*,#634,.T.);
#836=ORIENTED_EDGE('',*,*,#659,.F.);
#837=ORIENTED_EDGE('',*,*,#669,.T.);
#838=ORIENTED_EDGE('',*,*,#670,.T.);
#839=ORIENTED_EDGE('',*,*,#669,.F.);
#840=ORIENTED_EDGE('',*,*,#670,.F.);
#841=ORIENTED_EDGE('',*,*,#671,.F.);
#842=ORIENTED_EDGE('',*,*,#666,.T.);
#843=ORIENTED_EDGE('',*,*,#672,.T.);
#844=ORIENTED_EDGE('',*,*,#614,.T.);
#845=ORIENTED_EDGE('',*,*,#673,.T.);
#846=ORIENTED_EDGE('',*,*,#672,.F.);
#847=ORIENTED_EDGE('',*,*,#665,.F.);
#848=ORIENTED_EDGE('',*,*,#674,.T.);
#849=ORIENTED_EDGE('',*,*,#599,.F.);
#850=ORIENTED_EDGE('',*,*,#675,.T.);
#851=ORIENTED_EDGE('',*,*,#592,.F.);
#852=ORIENTED_EDGE('',*,*,#615,.F.);
#853=ORIENTED_EDGE('',*,*,#643,.T.);
#854=ORIENTED_EDGE('',*,*,#650,.T.);
#855=ORIENTED_EDGE('',*,*,#676,.T.);
#856=ORIENTED_EDGE('',*,*,#604,.T.);
#857=ORIENTED_EDGE('',*,*,#651,.F.);
#858=ORIENTED_EDGE('',*,*,#677,.T.);
#859=ORIENTED_EDGE('',*,*,#616,.F.);
#860=ORIENTED_EDGE('',*,*,#677,.F.);
#861=ORIENTED_EDGE('',*,*,#652,.F.);
#862=ORIENTED_EDGE('',*,*,#678,.T.);
#863=ORIENTED_EDGE('',*,*,#617,.F.);
#864=ORIENTED_EDGE('',*,*,#678,.F.);
#865=ORIENTED_EDGE('',*,*,#653,.F.);
#866=ORIENTED_EDGE('',*,*,#679,.T.);
#867=ORIENTED_EDGE('',*,*,#618,.F.);
#868=ORIENTED_EDGE('',*,*,#679,.F.);
#869=ORIENTED_EDGE('',*,*,#654,.F.);
#870=ORIENTED_EDGE('',*,*,#680,.T.);
#871=ORIENTED_EDGE('',*,*,#619,.F.);
#872=ORIENTED_EDGE('',*,*,#680,.F.);
#873=ORIENTED_EDGE('',*,*,#663,.F.);
#874=ORIENTED_EDGE('',*,*,#633,.F.);
#875=ORIENTED_EDGE('',*,*,#646,.T.);
#876=ORIENTED_EDGE('',*,*,#681,.F.);
#877=ORIENTED_EDGE('',*,*,#641,.T.);
#878=ORIENTED_EDGE('',*,*,#662,.F.);
#879=ORIENTED_EDGE('',*,*,#682,.F.);
#880=ORIENTED_EDGE('',*,*,#644,.T.);
#881=ORIENTED_EDGE('',*,*,#639,.T.);
#882=ORIENTED_EDGE('',*,*,#601,.F.);
#883=ORIENTED_EDGE('',*,*,#683,.F.);
#884=ORIENTED_EDGE('',*,*,#660,.F.);
#885=ORIENTED_EDGE('',*,*,#682,.T.);
#886=ORIENTED_EDGE('',*,*,#661,.F.);
#887=ORIENTED_EDGE('',*,*,#683,.T.);
#888=ORIENTED_EDGE('',*,*,#600,.F.);
#889=ORIENTED_EDGE('',*,*,#674,.F.);
#890=ORIENTED_EDGE('',*,*,#664,.F.);
#891=ORIENTED_EDGE('',*,*,#681,.T.);
#892=ORIENTED_EDGE('',*,*,#645,.T.);
#893=ORIENTED_EDGE('',*,*,#596,.T.);
#894=ORIENTED_EDGE('',*,*,#594,.F.);
#895=ORIENTED_EDGE('',*,*,#684,.F.);
#896=ORIENTED_EDGE('',*,*,#685,.F.);
#897=ORIENTED_EDGE('',*,*,#686,.T.);
#898=ORIENTED_EDGE('',*,*,#625,.F.);
#899=ORIENTED_EDGE('',*,*,#687,.T.);
#900=ORIENTED_EDGE('',*,*,#688,.T.);
#901=ORIENTED_EDGE('',*,*,#689,.T.);
#902=ORIENTED_EDGE('',*,*,#690,.T.);
#903=ORIENTED_EDGE('',*,*,#691,.T.);
#904=ORIENTED_EDGE('',*,*,#692,.F.);
#905=ORIENTED_EDGE('',*,*,#693,.F.);
#906=ORIENTED_EDGE('',*,*,#606,.F.);
#907=ORIENTED_EDGE('',*,*,#694,.T.);
#908=ORIENTED_EDGE('',*,*,#695,.T.);
#909=ORIENTED_EDGE('',*,*,#696,.T.);
#910=ORIENTED_EDGE('',*,*,#697,.T.);
#911=ORIENTED_EDGE('',*,*,#698,.T.);
#912=ORIENTED_EDGE('',*,*,#699,.T.);
#913=ORIENTED_EDGE('',*,*,#692,.T.);
#914=ORIENTED_EDGE('',*,*,#676,.F.);
#915=ORIENTED_EDGE('',*,*,#649,.F.);
#916=ORIENTED_EDGE('',*,*,#700,.F.);
#917=ORIENTED_EDGE('',*,*,#694,.F.);
#918=ORIENTED_EDGE('',*,*,#691,.F.);
#919=ORIENTED_EDGE('',*,*,#605,.F.);
#920=ORIENTED_EDGE('',*,*,#673,.F.);
#921=ORIENTED_EDGE('',*,*,#613,.F.);
#922=ORIENTED_EDGE('',*,*,#701,.F.);
#923=ORIENTED_EDGE('',*,*,#667,.F.);
#924=ORIENTED_EDGE('',*,*,#658,.F.);
#925=ORIENTED_EDGE('',*,*,#702,.T.);
#926=ORIENTED_EDGE('',*,*,#623,.F.);
#927=ORIENTED_EDGE('',*,*,#702,.F.);
#928=ORIENTED_EDGE('',*,*,#657,.F.);
#929=ORIENTED_EDGE('',*,*,#703,.T.);
#930=ORIENTED_EDGE('',*,*,#622,.F.);
#931=ORIENTED_EDGE('',*,*,#703,.F.);
#932=ORIENTED_EDGE('',*,*,#656,.F.);
#933=ORIENTED_EDGE('',*,*,#704,.T.);
#934=ORIENTED_EDGE('',*,*,#621,.F.);
#935=ORIENTED_EDGE('',*,*,#704,.F.);
#936=ORIENTED_EDGE('',*,*,#655,.F.);
#937=ORIENTED_EDGE('',*,*,#705,.T.);
#938=ORIENTED_EDGE('',*,*,#620,.F.);
#939=ORIENTED_EDGE('',*,*,#705,.F.);
#940=ORIENTED_EDGE('',*,*,#700,.T.);
#941=ORIENTED_EDGE('',*,*,#648,.T.);
#942=ORIENTED_EDGE('',*,*,#706,.F.);
#943=ORIENTED_EDGE('',*,*,#695,.F.);
#944=ORIENTED_EDGE('',*,*,#707,.F.);
#945=ORIENTED_EDGE('',*,*,#697,.F.);
#946=ORIENTED_EDGE('',*,*,#708,.T.);
#947=ORIENTED_EDGE('',*,*,#611,.F.);
#948=ORIENTED_EDGE('',*,*,#630,.F.);
#949=ORIENTED_EDGE('',*,*,#635,.T.);
#950=ORIENTED_EDGE('',*,*,#668,.F.);
#951=ORIENTED_EDGE('',*,*,#701,.T.);
#952=ORIENTED_EDGE('',*,*,#612,.F.);
#953=ORIENTED_EDGE('',*,*,#708,.F.);
#954=ORIENTED_EDGE('',*,*,#696,.F.);
#955=ORIENTED_EDGE('',*,*,#706,.T.);
#956=ORIENTED_EDGE('',*,*,#647,.T.);
#957=ORIENTED_EDGE('',*,*,#629,.F.);
#958=ORIENTED_EDGE('',*,*,#709,.F.);
#959=ORIENTED_EDGE('',*,*,#710,.T.);
#960=ORIENTED_EDGE('',*,*,#711,.F.);
#961=ORIENTED_EDGE('',*,*,#607,.T.);
#962=ORIENTED_EDGE('',*,*,#693,.T.);
#963=ORIENTED_EDGE('',*,*,#699,.F.);
#964=ORIENTED_EDGE('',*,*,#712,.F.);
#965=ORIENTED_EDGE('',*,*,#713,.F.);
#966=ORIENTED_EDGE('',*,*,#709,.T.);
#967=ORIENTED_EDGE('',*,*,#628,.F.);
#968=ORIENTED_EDGE('',*,*,#714,.F.);
#969=ORIENTED_EDGE('',*,*,#715,.F.);
#970=ORIENTED_EDGE('',*,*,#716,.F.);
#971=ORIENTED_EDGE('',*,*,#717,.F.);
#972=ORIENTED_EDGE('',*,*,#718,.F.);
#973=ORIENTED_EDGE('',*,*,#719,.T.);
#974=ORIENTED_EDGE('',*,*,#671,.T.);
#975=ORIENTED_EDGE('',*,*,#719,.F.);
#976=ORIENTED_EDGE('',*,*,#720,.F.);
#977=ORIENTED_EDGE('',*,*,#721,.T.);
#978=ORIENTED_EDGE('',*,*,#722,.F.);
#979=ORIENTED_EDGE('',*,*,#721,.F.);
#980=ORIENTED_EDGE('',*,*,#715,.T.);
#981=ORIENTED_EDGE('',*,*,#723,.T.);
#982=ORIENTED_EDGE('',*,*,#724,.F.);
#983=ORIENTED_EDGE('',*,*,#725,.F.);
#984=ORIENTED_EDGE('',*,*,#722,.T.);
#985=ORIENTED_EDGE('',*,*,#716,.T.);
#986=ORIENTED_EDGE('',*,*,#725,.T.);
#987=ORIENTED_EDGE('',*,*,#726,.F.);
#988=ORIENTED_EDGE('',*,*,#727,.F.);
#989=ORIENTED_EDGE('',*,*,#717,.T.);
#990=ORIENTED_EDGE('',*,*,#727,.T.);
#991=ORIENTED_EDGE('',*,*,#728,.F.);
#992=ORIENTED_EDGE('',*,*,#729,.F.);
#993=ORIENTED_EDGE('',*,*,#718,.T.);
#994=ORIENTED_EDGE('',*,*,#714,.T.);
#995=ORIENTED_EDGE('',*,*,#729,.T.);
#996=ORIENTED_EDGE('',*,*,#730,.F.);
#997=ORIENTED_EDGE('',*,*,#723,.F.);
#998=ORIENTED_EDGE('',*,*,#632,.F.);
#999=ORIENTED_EDGE('',*,*,#731,.F.);
#1000=ORIENTED_EDGE('',*,*,#732,.F.);
#1001=ORIENTED_EDGE('',*,*,#712,.T.);
#1002=ORIENTED_EDGE('',*,*,#698,.F.);
#1003=ORIENTED_EDGE('',*,*,#707,.T.);
#1004=ORIENTED_EDGE('',*,*,#713,.T.);
#1005=ORIENTED_EDGE('',*,*,#732,.T.);
#1006=ORIENTED_EDGE('',*,*,#733,.F.);
#1007=ORIENTED_EDGE('',*,*,#710,.F.);
#1008=ORIENTED_EDGE('',*,*,#720,.T.);
#1009=ORIENTED_EDGE('',*,*,#733,.T.);
#1010=ORIENTED_EDGE('',*,*,#731,.T.);
#1011=ORIENTED_EDGE('',*,*,#631,.F.);
#1012=ORIENTED_EDGE('',*,*,#609,.T.);
#1013=ORIENTED_EDGE('',*,*,#627,.F.);
#1014=ORIENTED_EDGE('',*,*,#711,.T.);
#1015=ORIENTED_EDGE('',*,*,#730,.T.);
#1016=ORIENTED_EDGE('',*,*,#728,.T.);
#1017=ORIENTED_EDGE('',*,*,#726,.T.);
#1018=ORIENTED_EDGE('',*,*,#724,.T.);
#1019=ORIENTED_EDGE('',*,*,#689,.F.);
#1020=ORIENTED_EDGE('',*,*,#734,.F.);
#1021=ORIENTED_EDGE('',*,*,#735,.F.);
#1022=ORIENTED_EDGE('',*,*,#736,.T.);
#1023=ORIENTED_EDGE('',*,*,#690,.F.);
#1024=ORIENTED_EDGE('',*,*,#736,.F.);
#1025=ORIENTED_EDGE('',*,*,#737,.F.);
#1026=ORIENTED_EDGE('',*,*,#738,.T.);
#1027=ORIENTED_EDGE('',*,*,#687,.F.);
#1028=ORIENTED_EDGE('',*,*,#738,.F.);
#1029=ORIENTED_EDGE('',*,*,#739,.F.);
#1030=ORIENTED_EDGE('',*,*,#740,.T.);
#1031=ORIENTED_EDGE('',*,*,#688,.F.);
#1032=ORIENTED_EDGE('',*,*,#740,.F.);
#1033=ORIENTED_EDGE('',*,*,#741,.F.);
#1034=ORIENTED_EDGE('',*,*,#734,.T.);
#1035=ORIENTED_EDGE('',*,*,#742,.T.);
#1036=ORIENTED_EDGE('',*,*,#685,.T.);
#1037=ORIENTED_EDGE('',*,*,#743,.F.);
#1038=ORIENTED_EDGE('',*,*,#744,.F.);
#1039=ORIENTED_EDGE('',*,*,#598,.T.);
#1040=ORIENTED_EDGE('',*,*,#624,.F.);
#1041=ORIENTED_EDGE('',*,*,#745,.T.);
#1042=ORIENTED_EDGE('',*,*,#744,.T.);
#1043=ORIENTED_EDGE('',*,*,#746,.F.);
#1044=ORIENTED_EDGE('',*,*,#675,.F.);
#1045=ORIENTED_EDGE('',*,*,#739,.T.);
#1046=ORIENTED_EDGE('',*,*,#737,.T.);
#1047=ORIENTED_EDGE('',*,*,#735,.T.);
#1048=ORIENTED_EDGE('',*,*,#741,.T.);
#1049=ORIENTED_EDGE('',*,*,#593,.F.);
#1050=ORIENTED_EDGE('',*,*,#746,.T.);
#1051=ORIENTED_EDGE('',*,*,#743,.T.);
#1052=ORIENTED_EDGE('',*,*,#684,.T.);
#1053=ORIENTED_EDGE('',*,*,#626,.F.);
#1054=ORIENTED_EDGE('',*,*,#686,.F.);
#1055=ORIENTED_EDGE('',*,*,#742,.F.);
#1056=ORIENTED_EDGE('',*,*,#745,.F.);
#1057=CYLINDRICAL_SURFACE('',#1152,10.);
#1058=CYLINDRICAL_SURFACE('',#1166,10.);
#1059=CYLINDRICAL_SURFACE('',#1169,10.);
#1060=CYLINDRICAL_SURFACE('',#1172,10.);
#1061=CYLINDRICAL_SURFACE('',#1192,3.5);
#1062=CYLINDRICAL_SURFACE('',#1196,20.);
#1063=CYLINDRICAL_SURFACE('',#1198,20.);
#1064=CYLINDRICAL_SURFACE('',#1199,1.6);
#1065=CYLINDRICAL_SURFACE('',#1200,1.6);
#1066=CYLINDRICAL_SURFACE('',#1201,1.6);
#1067=CYLINDRICAL_SURFACE('',#1202,1.6);
#1068=CYLINDRICAL_SURFACE('',#1212,1.6);
#1069=CYLINDRICAL_SURFACE('',#1213,1.6);
#1070=CYLINDRICAL_SURFACE('',#1214,1.6);
#1071=CYLINDRICAL_SURFACE('',#1215,1.6);
#1072=CYLINDRICAL_SURFACE('',#1221,1.6);
#1073=CYLINDRICAL_SURFACE('',#1223,1.6);
#1074=ADVANCED_FACE('',(#78),#1057,.F.);
#1075=ADVANCED_FACE('',(#79,#15,#16,#17,#18,#19,#20,#21,#22),#40,.F.);
#1076=ADVANCED_FACE('',(#80),#1058,.F.);
#1077=ADVANCED_FACE('',(#81),#1059,.F.);
#1078=ADVANCED_FACE('',(#82),#1060,.F.);
#1079=ADVANCED_FACE('',(#83),#41,.F.);
#1080=ADVANCED_FACE('',(#84),#42,.F.);
#1081=ADVANCED_FACE('',(#85),#43,.F.);
#1082=ADVANCED_FACE('',(#86,#23,#24,#25,#26,#27,#28,#29,#30,#31),#44,.F.);
#1083=ADVANCED_FACE('',(#87),#45,.T.);
#1084=ADVANCED_FACE('',(#88),#46,.T.);
#1085=ADVANCED_FACE('',(#89),#1061,.F.);
#1086=ADVANCED_FACE('',(#90,#32),#47,.T.);
#1087=ADVANCED_FACE('',(#91),#1062,.F.);
#1088=ADVANCED_FACE('',(#92),#48,.T.);
#1089=ADVANCED_FACE('',(#93),#1063,.F.);
#1090=ADVANCED_FACE('',(#94),#1064,.F.);
#1091=ADVANCED_FACE('',(#95),#1065,.F.);
#1092=ADVANCED_FACE('',(#96),#1066,.F.);
#1093=ADVANCED_FACE('',(#97),#1067,.F.);
#1094=ADVANCED_FACE('',(#98),#49,.F.);
#1095=ADVANCED_FACE('',(#99),#50,.F.);
#1096=ADVANCED_FACE('',(#100),#51,.T.);
#1097=ADVANCED_FACE('',(#101),#52,.T.);
#1098=ADVANCED_FACE('',(#102,#33),#53,.T.);
#1099=ADVANCED_FACE('',(#103),#54,.T.);
#1100=ADVANCED_FACE('',(#104),#55,.T.);
#1101=ADVANCED_FACE('',(#105),#56,.T.);
#1102=ADVANCED_FACE('',(#106),#57,.T.);
#1103=ADVANCED_FACE('',(#107),#1068,.F.);
#1104=ADVANCED_FACE('',(#108),#1069,.F.);
#1105=ADVANCED_FACE('',(#109),#1070,.F.);
#1106=ADVANCED_FACE('',(#110),#1071,.F.);
#1107=ADVANCED_FACE('',(#111),#58,.F.);
#1108=ADVANCED_FACE('',(#112),#59,.T.);
#1109=ADVANCED_FACE('',(#113),#60,.T.);
#1110=ADVANCED_FACE('',(#114),#61,.T.);
#1111=ADVANCED_FACE('',(#115,#34),#62,.F.);
#1112=ADVANCED_FACE('',(#116),#1072,.F.);
#1113=ADVANCED_FACE('',(#117),#1073,.F.);
#1114=ADVANCED_FACE('',(#118,#35),#63,.T.);
#1115=ADVANCED_FACE('',(#119),#64,.T.);
#1116=ADVANCED_FACE('',(#120,#36),#65,.T.);
#1117=ADVANCED_FACE('',(#121),#66,.T.);
#1118=ADVANCED_FACE('',(#122),#67,.T.);
#1119=ADVANCED_FACE('',(#123,#37),#68,.T.);
#1120=ADVANCED_FACE('',(#124,#38),#69,.T.);
#1121=ADVANCED_FACE('',(#125),#70,.F.);
#1122=ADVANCED_FACE('',(#126),#71,.F.);
#1123=ADVANCED_FACE('',(#127),#72,.F.);
#1124=ADVANCED_FACE('',(#128),#73,.F.);
#1125=ADVANCED_FACE('',(#129),#74,.T.);
#1126=ADVANCED_FACE('',(#130,#39),#75,.T.);
#1127=ADVANCED_FACE('',(#131),#76,.T.);
#1128=ADVANCED_FACE('',(#132),#77,.F.);
#1129=CLOSED_SHELL('',(#1074,#1075,#1076,#1077,#1078,#1079,#1080,#1081,
#1082,#1083,#1084,#1085,#1086,#1087,#1088,#1089,#1090,#1091,#1092,#1093,
#1094,#1095,#1096,#1097,#1098,#1099,#1100,#1101,#1102,#1103,#1104,#1105,
#1106,#1107,#1108,#1109,#1110,#1111,#1112,#1113,#1114,#1115,#1116,#1117,
#1118,#1119,#1120,#1121,#1122,#1123,#1124,#1125,#1126,#1127,#1128));
#1130=DERIVED_UNIT_ELEMENT(#1133,1.);
#1131=DERIVED_UNIT_ELEMENT(#1861,-3.);
#1132=DIMENSIONAL_EXPONENTS(0.,1.,0.,0.,0.,0.,0.);
#1133=(
CONVERSION_BASED_UNIT('gram',#1135)
MASS_UNIT()
NAMED_UNIT(#1132)
);
#1134=(
MASS_UNIT()
NAMED_UNIT(*)
SI_UNIT(.KILO.,.GRAM.)
);
#1135=MASS_MEASURE_WITH_UNIT(MASS_MEASURE(0.001),#1134);
#1136=DERIVED_UNIT((#1130,#1131));
#1137=MEASURE_REPRESENTATION_ITEM('density measure',
POSITIVE_RATIO_MEASURE(1.),#1136);
#1138=PROPERTY_DEFINITION_REPRESENTATION(#1143,#1140);
#1139=PROPERTY_DEFINITION_REPRESENTATION(#1144,#1141);
#1140=REPRESENTATION('material name',(#1142),#1858);
#1141=REPRESENTATION('density',(#1137),#1858);
#1142=DESCRIPTIVE_REPRESENTATION_ITEM('\X2\4E00822C\X0\','\X2\4E00822C\X0\');
#1143=PROPERTY_DEFINITION('material property','material name',#1868);
#1144=PROPERTY_DEFINITION('material property','density of part',#1868);
#1145=DATE_TIME_ROLE('creation_date');
#1146=APPLIED_DATE_AND_TIME_ASSIGNMENT(#1147,#1145,(#1868));
#1147=DATE_AND_TIME(#1148,#1149);
#1148=CALENDAR_DATE(2026,4,2);
#1149=LOCAL_TIME(0,0,0.,#1150);
#1150=COORDINATED_UNIVERSAL_TIME_OFFSET(0,0,.BEHIND.);
#1151=AXIS2_PLACEMENT_3D('',#1542,#1241,#1242);
#1152=AXIS2_PLACEMENT_3D('',#1543,#1243,#1244);
#1153=AXIS2_PLACEMENT_3D('',#1546,#1245,#1246);
#1154=AXIS2_PLACEMENT_3D('',#1550,#1248,#1249);
#1155=AXIS2_PLACEMENT_3D('',#1552,#1251,#1252);
#1156=AXIS2_PLACEMENT_3D('',#1570,#1261,#1262);
#1157=AXIS2_PLACEMENT_3D('',#1590,#1272,#1273);
#1158=AXIS2_PLACEMENT_3D('',#1593,#1275,#1276);
#1159=AXIS2_PLACEMENT_3D('',#1595,#1277,#1278);
#1160=AXIS2_PLACEMENT_3D('',#1597,#1279,#1280);
#1161=AXIS2_PLACEMENT_3D('',#1599,#1281,#1282);
#1162=AXIS2_PLACEMENT_3D('',#1601,#1283,#1284);
#1163=AXIS2_PLACEMENT_3D('',#1603,#1285,#1286);
#1164=AXIS2_PLACEMENT_3D('',#1605,#1287,#1288);
#1165=AXIS2_PLACEMENT_3D('',#1607,#1289,#1290);
#1166=AXIS2_PLACEMENT_3D('',#1608,#1291,#1292);
#1167=AXIS2_PLACEMENT_3D('',#1610,#1293,#1294);
#1168=AXIS2_PLACEMENT_3D('',#1612,#1295,#1296);
#1169=AXIS2_PLACEMENT_3D('',#1614,#1298,#1299);
#1170=AXIS2_PLACEMENT_3D('',#1616,#1300,#1301);
#1171=AXIS2_PLACEMENT_3D('',#1618,#1302,#1303);
#1172=AXIS2_PLACEMENT_3D('',#1620,#1305,#1306);
#1173=AXIS2_PLACEMENT_3D('',#1622,#1307,#1308);
#1174=AXIS2_PLACEMENT_3D('',#1624,#1309,#1310);
#1175=AXIS2_PLACEMENT_3D('',#1626,#1312,#1313);
#1176=AXIS2_PLACEMENT_3D('',#1635,#1318,#1319);
#1177=AXIS2_PLACEMENT_3D('',#1645,#1325,#1326);
#1178=AXIS2_PLACEMENT_3D('',#1649,#1329,#1330);
#1179=AXIS2_PLACEMENT_3D('',#1661,#1337,#1338);
#1180=AXIS2_PLACEMENT_3D('',#1663,#1339,#1340);
#1181=AXIS2_PLACEMENT_3D('',#1665,#1341,#1342);
#1182=AXIS2_PLACEMENT_3D('',#1667,#1343,#1344);
#1183=AXIS2_PLACEMENT_3D('',#1669,#1345,#1346);
#1184=AXIS2_PLACEMENT_3D('',#1671,#1347,#1348);
#1185=AXIS2_PLACEMENT_3D('',#1673,#1349,#1350);
#1186=AXIS2_PLACEMENT_3D('',#1675,#1351,#1352);
#1187=AXIS2_PLACEMENT_3D('',#1677,#1353,#1354);
#1188=AXIS2_PLACEMENT_3D('',#1679,#1355,#1356);
#1189=AXIS2_PLACEMENT_3D('',#1680,#1357,#1358);
#1190=AXIS2_PLACEMENT_3D('',#1686,#1362,#1363);
#1191=AXIS2_PLACEMENT_3D('',#1694,#1367,#1368);
#1192=AXIS2_PLACEMENT_3D('',#1698,#1371,#1372);
#1193=AXIS2_PLACEMENT_3D('',#1701,#1374,#1375);
#1194=AXIS2_PLACEMENT_3D('',#1702,#1376,#1377);
#1195=AXIS2_PLACEMENT_3D('',#1704,#1378,#1379);
#1196=AXIS2_PLACEMENT_3D('',#1705,#1380,#1381);
#1197=AXIS2_PLACEMENT_3D('',#1708,#1384,#1385);
#1198=AXIS2_PLACEMENT_3D('',#1711,#1388,#1389);
#1199=AXIS2_PLACEMENT_3D('',#1713,#1391,#1392);
#1200=AXIS2_PLACEMENT_3D('',#1715,#1394,#1395);
#1201=AXIS2_PLACEMENT_3D('',#1717,#1397,#1398);
#1202=AXIS2_PLACEMENT_3D('',#1719,#1400,#1401);
#1203=AXIS2_PLACEMENT_3D('',#1721,#1403,#1404);
#1204=AXIS2_PLACEMENT_3D('',#1723,#1406,#1407);
#1205=AXIS2_PLACEMENT_3D('',#1725,#1409,#1410);
#1206=AXIS2_PLACEMENT_3D('',#1727,#1412,#1413);
#1207=AXIS2_PLACEMENT_3D('',#1728,#1414,#1415);
#1208=AXIS2_PLACEMENT_3D('',#1742,#1423,#1424);
#1209=AXIS2_PLACEMENT_3D('',#1748,#1428,#1429);
#1210=AXIS2_PLACEMENT_3D('',#1760,#1436,#1437);
#1211=AXIS2_PLACEMENT_3D('',#1762,#1439,#1440);
#1212=AXIS2_PLACEMENT_3D('',#1764,#1442,#1443);
#1213=AXIS2_PLACEMENT_3D('',#1766,#1445,#1446);
#1214=AXIS2_PLACEMENT_3D('',#1768,#1448,#1449);
#1215=AXIS2_PLACEMENT_3D('',#1770,#1451,#1452);
#1216=AXIS2_PLACEMENT_3D('',#1772,#1454,#1455);
#1217=AXIS2_PLACEMENT_3D('',#1774,#1457,#1458);
#1218=AXIS2_PLACEMENT_3D('',#1777,#1461,#1462);
#1219=AXIS2_PLACEMENT_3D('',#1778,#1463,#1464);
#1220=AXIS2_PLACEMENT_3D('',#1784,#1468,#1469);
#1221=AXIS2_PLACEMENT_3D('',#1796,#1476,#1477);
#1222=AXIS2_PLACEMENT_3D('',#1798,#1478,#1479);
#1223=AXIS2_PLACEMENT_3D('',#1800,#1481,#1482);
#1224=AXIS2_PLACEMENT_3D('',#1802,#1483,#1484);
#1225=AXIS2_PLACEMENT_3D('',#1805,#1486,#1487);
#1226=AXIS2_PLACEMENT_3D('',#1806,#1488,#1489);
#1227=AXIS2_PLACEMENT_3D('',#1812,#1493,#1494);
#1228=AXIS2_PLACEMENT_3D('',#1816,#1497,#1498);
#1229=AXIS2_PLACEMENT_3D('',#1820,#1501,#1502);
#1230=AXIS2_PLACEMENT_3D('',#1822,#1504,#1505);
#1231=AXIS2_PLACEMENT_3D('',#1826,#1508,#1509);
#1232=AXIS2_PLACEMENT_3D('',#1828,#1511,#1512);
#1233=AXIS2_PLACEMENT_3D('',#1829,#1513,#1514);
#1234=AXIS2_PLACEMENT_3D('',#1835,#1518,#1519);
#1235=AXIS2_PLACEMENT_3D('',#1839,#1522,#1523);
#1236=AXIS2_PLACEMENT_3D('',#1843,#1526,#1527);
#1237=AXIS2_PLACEMENT_3D('',#1845,#1529,#1530);
#1238=AXIS2_PLACEMENT_3D('',#1851,#1534,#1535);
#1239=AXIS2_PLACEMENT_3D('',#1854,#1538,#1539);
#1240=AXIS2_PLACEMENT_3D('',#1855,#1540,#1541);
#1241=DIRECTION('axis',(0.,0.,1.));
#1242=DIRECTION('refdir',(1.,0.,0.));
#1243=DIRECTION('center_axis',(1.,0.,0.));
#1244=DIRECTION('ref_axis',(0.,-0.707106781186547,0.707106781186547));
#1245=DIRECTION('center_axis',(0.342020143325668,0.939692620785909,0.));
#1246=DIRECTION('ref_axis',(0.939692620785909,-0.342020143325668,0.));
#1247=DIRECTION('',(-1.,0.,0.));
#1248=DIRECTION('center_axis',(-1.,0.,0.));
#1249=DIRECTION('ref_axis',(0.,-0.707106781186547,0.707106781186547));
#1250=DIRECTION('',(1.,0.,0.));
#1251=DIRECTION('center_axis',(0.,0.,1.));
#1252=DIRECTION('ref_axis',(1.,0.,0.));
#1253=DIRECTION('',(0.,1.,0.));
#1254=DIRECTION('',(-1.,0.,0.));
#1255=DIRECTION('',(0.,-1.,0.));
#1256=DIRECTION('',(0.939692620785909,-0.342020143325668,0.));
#1257=DIRECTION('',(-0.342020143325668,-0.939692620785909,0.));
#1258=DIRECTION('',(-0.939692620785909,0.342020143325668,0.));
#1259=DIRECTION('',(-3.91247965573082E-16,1.,0.));
#1260=DIRECTION('',(-1.,0.,0.));
#1261=DIRECTION('center_axis',(0.,0.,-1.));
#1262=DIRECTION('ref_axis',(0.90630778703665,0.422618261740699,0.));
#1263=DIRECTION('',(-0.939692620785909,0.342020143325669,0.));
#1264=DIRECTION('',(0.342020143325668,0.939692620785909,0.));
#1265=DIRECTION('',(0.,1.,0.));
#1266=DIRECTION('',(-1.,0.,0.));
#1267=DIRECTION('',(0.,-1.,0.));
#1268=DIRECTION('',(1.,0.,0.));
#1269=DIRECTION('',(0.342020143325668,0.939692620785909,0.));
#1270=DIRECTION('',(0.939692620785909,-0.342020143325668,0.));
#1271=DIRECTION('',(-0.342020143325669,-0.939692620785909,0.));
#1272=DIRECTION('center_axis',(0.,0.,-1.));
#1273=DIRECTION('ref_axis',(-0.90630778703665,-0.4226182617407,0.));
#1274=DIRECTION('',(0.939692620785909,-0.342020143325668,-6.95512255777914E-17));
#1275=DIRECTION('center_axis',(0.,0.,1.));
#1276=DIRECTION('ref_axis',(1.,0.,0.));
#1277=DIRECTION('center_axis',(0.,0.,1.));
#1278=DIRECTION('ref_axis',(1.,0.,0.));
#1279=DIRECTION('center_axis',(0.,0.,1.));
#1280=DIRECTION('ref_axis',(1.,0.,0.));
#1281=DIRECTION('center_axis',(0.,0.,1.));
#1282=DIRECTION('ref_axis',(1.,0.,0.));
#1283=DIRECTION('center_axis',(0.,0.,1.));
#1284=DIRECTION('ref_axis',(1.,0.,0.));
#1285=DIRECTION('center_axis',(0.,0.,1.));
#1286=DIRECTION('ref_axis',(1.,0.,0.));
#1287=DIRECTION('center_axis',(0.,0.,1.));
#1288=DIRECTION('ref_axis',(1.,0.,0.));
#1289=DIRECTION('center_axis',(0.,0.,1.));
#1290=DIRECTION('ref_axis',(1.,0.,0.));
#1291=DIRECTION('center_axis',(-1.,0.,0.));
#1292=DIRECTION('ref_axis',(0.,0.707106781186547,0.707106781186547));
#1293=DIRECTION('center_axis',(1.,0.,0.));
#1294=DIRECTION('ref_axis',(0.,0.707106781186547,0.707106781186547));
#1295=DIRECTION('center_axis',(-1.,0.,0.));
#1296=DIRECTION('ref_axis',(0.,0.707106781186547,0.707106781186547));
#1297=DIRECTION('',(1.,0.,0.));
#1298=DIRECTION('center_axis',(-1.,0.,0.));
#1299=DIRECTION('ref_axis',(0.,0.707106781186547,0.707106781186547));
#1300=DIRECTION('center_axis',(1.,0.,0.));
#1301=DIRECTION('ref_axis',(0.,0.707106781186547,0.707106781186547));
#1302=DIRECTION('center_axis',(-1.,0.,0.));
#1303=DIRECTION('ref_axis',(0.,0.707106781186547,0.707106781186547));
#1304=DIRECTION('',(1.,0.,0.));
#1305=DIRECTION('center_axis',(1.,0.,0.));
#1306=DIRECTION('ref_axis',(0.,-0.707106781186547,0.707106781186547));
#1307=DIRECTION('center_axis',(-0.939692620785909,0.342020143325668,0.));
#1308=DIRECTION('ref_axis',(-0.342020143325668,-0.939692620785908,0.));
#1309=DIRECTION('center_axis',(1.,0.,0.));
#1310=DIRECTION('ref_axis',(0.,-0.707106781186547,0.707106781186547));
#1311=DIRECTION('',(-1.,0.,0.));
#1312=DIRECTION('center_axis',(0.939692620785909,-0.342020143325668,0.));
#1313=DIRECTION('ref_axis',(-0.342020143325668,-0.939692620785909,0.));
#1314=DIRECTION('',(0.,0.,1.));
#1315=DIRECTION('',(-0.342020143325668,-0.939692620785909,0.));
#1316=DIRECTION('',(0.,0.,1.));
#1317=DIRECTION('',(-0.342020143325668,-0.939692620785909,0.));
#1318=DIRECTION('center_axis',(1.,3.91247965573082E-16,0.));
#1319=DIRECTION('ref_axis',(-3.91247965573082E-16,1.,0.));
#1320=DIRECTION('',(3.91247965573082E-16,-1.,0.));
#1321=DIRECTION('',(0.,0.,1.));
#1322=DIRECTION('',(0.,0.,-1.));
#1323=DIRECTION('',(3.91247965573082E-16,-1.,0.));
#1324=DIRECTION('',(0.,0.,1.));
#1325=DIRECTION('center_axis',(0.,1.,0.));
#1326=DIRECTION('ref_axis',(-1.,0.,0.));
#1327=DIRECTION('',(-1.,0.,0.));
#1328=DIRECTION('',(0.,0.,1.));
#1329=DIRECTION('center_axis',(0.,0.,-1.));
#1330=DIRECTION('ref_axis',(-1.,0.,0.));
#1331=DIRECTION('',(-0.939692620785909,0.342020143325667,0.));
#1332=DIRECTION('',(-0.342020143325668,-0.939692620785909,0.));
#1333=DIRECTION('',(0.939692620785909,-0.342020143325668,0.));
#1334=DIRECTION('',(0.939692620785909,-0.342020143325668,0.));
#1335=DIRECTION('',(0.342020143325668,0.939692620785909,0.));
#1336=DIRECTION('',(0.939692620785909,-0.342020143325669,0.));
#1337=DIRECTION('center_axis',(0.,0.,1.));
#1338=DIRECTION('ref_axis',(0.90630778703665,0.422618261740699,0.));
#1339=DIRECTION('center_axis',(0.,0.,-1.));
#1340=DIRECTION('ref_axis',(1.,0.,0.));
#1341=DIRECTION('center_axis',(0.,0.,-1.));
#1342=DIRECTION('ref_axis',(1.,0.,0.));
#1343=DIRECTION('center_axis',(0.,0.,-1.));
#1344=DIRECTION('ref_axis',(1.,0.,0.));
#1345=DIRECTION('center_axis',(0.,0.,-1.));
#1346=DIRECTION('ref_axis',(1.,0.,0.));
#1347=DIRECTION('center_axis',(0.,0.,-1.));
#1348=DIRECTION('ref_axis',(1.,0.,0.));
#1349=DIRECTION('center_axis',(0.,0.,-1.));
#1350=DIRECTION('ref_axis',(1.,0.,0.));
#1351=DIRECTION('center_axis',(0.,0.,-1.));
#1352=DIRECTION('ref_axis',(1.,0.,0.));
#1353=DIRECTION('center_axis',(0.,0.,-1.));
#1354=DIRECTION('ref_axis',(1.,0.,0.));
#1355=DIRECTION('center_axis',(0.,0.,-1.));
#1356=DIRECTION('ref_axis',(1.,0.,0.));
#1357=DIRECTION('center_axis',(0.,0.,1.));
#1358=DIRECTION('ref_axis',(1.,0.,0.));
#1359=DIRECTION('',(0.939692620785909,-0.342020143325668,0.));
#1360=DIRECTION('',(0.342020143325668,0.939692620785909,0.));
#1361=DIRECTION('',(-0.939692620785909,0.342020143325667,0.));
#1362=DIRECTION('center_axis',(0.,0.,1.));
#1363=DIRECTION('ref_axis',(1.,0.,0.));
#1364=DIRECTION('',(0.939692620785909,-0.342020143325668,0.));
#1365=DIRECTION('',(0.342020143325668,0.939692620785909,0.));
#1366=DIRECTION('',(-0.939692620785909,0.342020143325668,0.));
#1367=DIRECTION('center_axis',(0.,0.,1.));
#1368=DIRECTION('ref_axis',(-0.90630778703665,-0.4226182617407,0.));
#1369=DIRECTION('',(0.342020143325669,0.939692620785909,0.));
#1370=DIRECTION('',(-0.939692620785909,0.342020143325668,0.));
#1371=DIRECTION('center_axis',(0.,0.,-1.));
#1372=DIRECTION('ref_axis',(1.,0.,0.));
#1373=DIRECTION('',(0.,0.,-1.));
#1374=DIRECTION('center_axis',(0.,0.,-1.));
#1375=DIRECTION('ref_axis',(1.,0.,0.));
#1376=DIRECTION('center_axis',(0.,0.,1.));
#1377=DIRECTION('ref_axis',(1.,0.,0.));
#1378=DIRECTION('center_axis',(0.,0.,1.));
#1379=DIRECTION('ref_axis',(-1.,0.,0.));
#1380=DIRECTION('center_axis',(0.,0.,-1.));
#1381=DIRECTION('ref_axis',(-0.90630778703665,-0.4226182617407,0.));
#1382=DIRECTION('',(0.,0.,-1.));
#1383=DIRECTION('',(0.,0.,1.));
#1384=DIRECTION('center_axis',(0.342020143325668,0.939692620785909,0.));
#1385=DIRECTION('ref_axis',(0.939692620785909,-0.342020143325668,0.));
#1386=DIRECTION('',(0.,0.,-1.));
#1387=DIRECTION('',(0.,0.,-1.));
#1388=DIRECTION('center_axis',(0.,0.,1.));
#1389=DIRECTION('ref_axis',(0.90630778703665,0.422618261740699,0.));
#1390=DIRECTION('',(0.,0.,-1.));
#1391=DIRECTION('center_axis',(0.,0.,-1.));
#1392=DIRECTION('ref_axis',(1.,0.,0.));
#1393=DIRECTION('',(0.,0.,-1.));
#1394=DIRECTION('center_axis',(0.,0.,-1.));
#1395=DIRECTION('ref_axis',(1.,0.,0.));
#1396=DIRECTION('',(0.,0.,-1.));
#1397=DIRECTION('center_axis',(0.,0.,-1.));
#1398=DIRECTION('ref_axis',(1.,0.,0.));
#1399=DIRECTION('',(0.,0.,-1.));
#1400=DIRECTION('center_axis',(0.,0.,-1.));
#1401=DIRECTION('ref_axis',(1.,0.,0.));
#1402=DIRECTION('',(0.,0.,-1.));
#1403=DIRECTION('center_axis',(0.342020143325668,0.939692620785909,0.));
#1404=DIRECTION('ref_axis',(0.939692620785909,-0.342020143325668,0.));
#1405=DIRECTION('',(0.,0.,-1.));
#1406=DIRECTION('center_axis',(-0.342020143325667,-0.939692620785909,0.));
#1407=DIRECTION('ref_axis',(-0.939692620785909,0.342020143325667,0.));
#1408=DIRECTION('',(0.,0.,1.));
#1409=DIRECTION('center_axis',(-0.342020143325668,-0.939692620785909,0.));
#1410=DIRECTION('ref_axis',(-0.939692620785909,0.342020143325668,0.));
#1411=DIRECTION('',(0.,0.,-1.));
#1412=DIRECTION('center_axis',(0.939692620785909,-0.342020143325668,0.));
#1413=DIRECTION('ref_axis',(-0.342020143325668,-0.939692620785909,0.));
#1414=DIRECTION('center_axis',(-1.,0.,0.));
#1415=DIRECTION('ref_axis',(0.,0.,1.));
#1416=DIRECTION('',(0.,0.,1.));
#1417=DIRECTION('',(0.,1.,0.));
#1418=DIRECTION('',(0.,0.,1.));
#1419=DIRECTION('',(0.,1.,0.));
#1420=DIRECTION('',(0.,0.,1.));
#1421=DIRECTION('',(0.,-1.,-2.14881875733901E-16));
#1422=DIRECTION('',(0.,1.07440937866951E-16,-1.));
#1423=DIRECTION('center_axis',(-0.939692620785909,0.342020143325668,0.));
#1424=DIRECTION('ref_axis',(0.342020143325668,0.939692620785909,0.));
#1425=DIRECTION('',(0.,0.,1.));
#1426=DIRECTION('',(-0.342020143325668,-0.939692620785909,0.));
#1427=DIRECTION('',(0.,0.,1.));
#1428=DIRECTION('center_axis',(0.,0.,1.));
#1429=DIRECTION('ref_axis',(1.,0.,0.));
#1430=DIRECTION('',(0.939692620785909,-0.342020143325669,0.));
#1431=DIRECTION('',(0.342020143325668,0.939692620785909,0.));
#1432=DIRECTION('',(-0.939692620785909,0.342020143325668,0.));
#1433=DIRECTION('',(-0.342020143325668,-0.939692620785909,0.));
#1434=DIRECTION('',(-1.,0.,0.));
#1435=DIRECTION('',(0.,-1.,0.));
#1436=DIRECTION('center_axis',(-0.342020143325669,-0.939692620785909,0.));
#1437=DIRECTION('ref_axis',(-0.939692620785909,0.342020143325669,0.));
#1438=DIRECTION('',(0.,0.,-1.));
#1439=DIRECTION('center_axis',(0.939692620785909,-0.342020143325669,0.));
#1440=DIRECTION('ref_axis',(-0.342020143325669,-0.939692620785909,0.));
#1441=DIRECTION('',(0.,0.,-1.));
#1442=DIRECTION('center_axis',(0.,0.,-1.));
#1443=DIRECTION('ref_axis',(1.,0.,0.));
#1444=DIRECTION('',(0.,0.,-1.));
#1445=DIRECTION('center_axis',(0.,0.,-1.));
#1446=DIRECTION('ref_axis',(1.,0.,0.));
#1447=DIRECTION('',(0.,0.,-1.));
#1448=DIRECTION('center_axis',(0.,0.,-1.));
#1449=DIRECTION('ref_axis',(1.,0.,0.));
#1450=DIRECTION('',(0.,0.,-1.));
#1451=DIRECTION('center_axis',(0.,0.,-1.));
#1452=DIRECTION('ref_axis',(1.,0.,0.));
#1453=DIRECTION('',(0.,0.,-1.));
#1454=DIRECTION('center_axis',(-0.939692620785909,0.342020143325668,0.));
#1455=DIRECTION('ref_axis',(0.342020143325668,0.939692620785909,0.));
#1456=DIRECTION('',(0.,0.,-1.));
#1457=DIRECTION('center_axis',(-0.939692620785909,0.342020143325668,0.));
#1458=DIRECTION('ref_axis',(0.342020143325668,0.939692620785909,0.));
#1459=DIRECTION('',(0.,0.,-1.));
#1460=DIRECTION('',(0.,0.,-1.));
#1461=DIRECTION('center_axis',(0.342020143325668,0.939692620785909,0.));
#1462=DIRECTION('ref_axis',(0.939692620785909,-0.342020143325668,0.));
#1463=DIRECTION('center_axis',(0.,-1.,0.));
#1464=DIRECTION('ref_axis',(0.,0.,-1.));
#1465=DIRECTION('',(0.,0.,1.));
#1466=DIRECTION('',(1.,0.,0.));
#1467=DIRECTION('',(0.,0.,-1.));
#1468=DIRECTION('center_axis',(1.,0.,0.));
#1469=DIRECTION('ref_axis',(0.,0.,-1.));
#1470=DIRECTION('',(0.,0.,1.));
#1471=DIRECTION('',(0.,1.,0.));
#1472=DIRECTION('',(0.,-2.86509167645202E-16,1.));
#1473=DIRECTION('',(0.,-1.,0.));
#1474=DIRECTION('',(0.,2.86509167645202E-16,-1.));
#1475=DIRECTION('',(0.,1.,1.43254583822601E-16));
#1476=DIRECTION('center_axis',(0.,0.,1.));
#1477=DIRECTION('ref_axis',(-1.,0.,0.));
#1478=DIRECTION('center_axis',(0.,-1.43254583822601E-16,1.));
#1479=DIRECTION('ref_axis',(-1.,0.,0.));
#1480=DIRECTION('',(0.,0.,1.));
#1481=DIRECTION('center_axis',(0.,0.,1.));
#1482=DIRECTION('ref_axis',(-1.,0.,0.));
#1483=DIRECTION('center_axis',(0.,0.,1.));
#1484=DIRECTION('ref_axis',(-1.,0.,0.));
#1485=DIRECTION('',(0.,0.,1.));
#1486=DIRECTION('center_axis',(0.,0.,-1.));
#1487=DIRECTION('ref_axis',(-1.,0.,0.));
#1488=DIRECTION('center_axis',(0.,0.,1.));
#1489=DIRECTION('ref_axis',(0.,-1.,0.));
#1490=DIRECTION('',(1.,0.,0.));
#1491=DIRECTION('',(0.,-1.,0.));
#1492=DIRECTION('',(1.,0.,0.));
#1493=DIRECTION('center_axis',(0.,-1.,-2.86509167645202E-16));
#1494=DIRECTION('ref_axis',(0.,2.86509167645202E-16,-1.));
#1495=DIRECTION('',(0.,2.86509167645202E-16,-1.));
#1496=DIRECTION('',(1.,0.,0.));
#1497=DIRECTION('center_axis',(0.,1.43254583822601E-16,-1.));
#1498=DIRECTION('ref_axis',(0.,1.,1.43254583822601E-16));
#1499=DIRECTION('',(0.,1.,1.43254583822601E-16));
#1500=DIRECTION('',(1.,0.,0.));
#1501=DIRECTION('center_axis',(0.,1.,2.86509167645202E-16));
#1502=DIRECTION('ref_axis',(0.,-2.86509167645202E-16,1.));
#1503=DIRECTION('',(0.,-2.86509167645202E-16,1.));
#1504=DIRECTION('center_axis',(0.,1.,0.));
#1505=DIRECTION('ref_axis',(0.,0.,1.));
#1506=DIRECTION('',(0.,0.,1.));
#1507=DIRECTION('',(1.,0.,0.));
#1508=DIRECTION('center_axis',(0.,0.,-1.));
#1509=DIRECTION('ref_axis',(0.,1.,0.));
#1510=DIRECTION('',(0.,1.,0.));
#1511=DIRECTION('center_axis',(1.,0.,0.));
#1512=DIRECTION('ref_axis',(0.,0.,-1.));
#1513=DIRECTION('center_axis',(0.,-2.14881875733901E-16,1.));
#1514=DIRECTION('ref_axis',(0.,1.,2.14881875733901E-16));
#1515=DIRECTION('',(-1.,0.,0.));
#1516=DIRECTION('',(0.,1.,2.14881875733901E-16));
#1517=DIRECTION('',(-1.,0.,0.));
#1518=DIRECTION('center_axis',(0.,-1.,-1.07440937866951E-16));
#1519=DIRECTION('ref_axis',(0.,-1.07440937866951E-16,1.));
#1520=DIRECTION('',(0.,-1.07440937866951E-16,1.));
#1521=DIRECTION('',(-1.,0.,0.));
#1522=DIRECTION('center_axis',(0.,0.,-1.));
#1523=DIRECTION('ref_axis',(0.,-1.,0.));
#1524=DIRECTION('',(0.,-1.,0.));
#1525=DIRECTION('',(-1.,0.,0.));
#1526=DIRECTION('center_axis',(0.,1.,0.));
#1527=DIRECTION('ref_axis',(0.,0.,-1.));
#1528=DIRECTION('',(0.,0.,-1.));
#1529=DIRECTION('center_axis',(-2.59052039079203E-16,0.,-1.));
#1530=DIRECTION('ref_axis',(-1.,0.,2.59052039079203E-16));
#1531=DIRECTION('',(-1.,0.,2.59052039079203E-16));
#1532=DIRECTION('',(-1.,0.,2.59052039079203E-16));
#1533=DIRECTION('',(0.,1.,0.));
#1534=DIRECTION('center_axis',(1.,0.,0.));
#1535=DIRECTION('ref_axis',(0.,0.,-1.));
#1536=DIRECTION('',(0.,0.,-1.));
#1537=DIRECTION('',(0.,0.,-1.));
#1538=DIRECTION('center_axis',(0.,1.,0.));
#1539=DIRECTION('ref_axis',(0.,0.,1.));
#1540=DIRECTION('center_axis',(0.,1.,0.));
#1541=DIRECTION('ref_axis',(0.,0.,1.));
#1542=CARTESIAN_POINT('',(0.,0.,0.));
#1543=CARTESIAN_POINT('Origin',(47.5,-54.25,-0.749999999999998));
#1544=CARTESIAN_POINT('',(62.5252258054537,-54.25,9.25000000000001));
#1545=CARTESIAN_POINT('',(90.,-64.25,-0.749999999999997));
#1546=CARTESIAN_POINT('Origin',(62.5252258054537,-54.25,-0.749999999999998));
#1547=CARTESIAN_POINT('',(60.,-64.25,-0.749999999999998));
#1548=CARTESIAN_POINT('',(47.5,-64.25,-0.749999999999998));
#1549=CARTESIAN_POINT('',(60.,-54.25,9.25));
#1550=CARTESIAN_POINT('Origin',(60.,-54.25,-0.749999999999998));
#1551=CARTESIAN_POINT('',(47.5,-54.25,9.25));
#1552=CARTESIAN_POINT('Origin',(20.,0.,9.25));
#1553=CARTESIAN_POINT('',(60.,-92.75,9.25));
#1554=CARTESIAN_POINT('',(60.,-82.75,9.25000000000001));
#1555=CARTESIAN_POINT('',(90.,-92.75,9.25));
#1556=CARTESIAN_POINT('',(47.5,-92.75,9.25));
#1557=CARTESIAN_POINT('',(90.,-64.25,9.25000000000001));
#1558=CARTESIAN_POINT('',(90.,-80.4306189180015,9.25));
#1559=CARTESIAN_POINT('',(122.141491734237,-75.9485462761753,9.25));
#1560=CARTESIAN_POINT('',(51.6645451752935,-50.2970355267502,9.25));
#1561=CARTESIAN_POINT('',(108.118665857884,-114.475943728398,9.25));
#1562=CARTESIAN_POINT('',(118.635785265148,-85.5803956392309,9.25));
#1563=CARTESIAN_POINT('',(27.,-84.9511639127417,9.25));
#1564=CARTESIAN_POINT('',(84.6263503382365,-105.925440145256,9.25));
#1565=CARTESIAN_POINT('',(27.,-62.25,9.25));
#1566=CARTESIAN_POINT('',(27.,-42.4755819563708,9.25));
#1567=CARTESIAN_POINT('',(15.4875289719186,-62.25,9.25));
#1568=CARTESIAN_POINT('',(23.5,-62.25,9.25));
#1569=CARTESIAN_POINT('',(3.65704011424367,-50.625373638999,9.25));
#1570=CARTESIAN_POINT('Origin',(-3.1833627522697,-69.4192260547172,9.25));
#1571=CARTESIAN_POINT('',(-16.0765049222604,-43.4429506291599,9.25));
#1572=CARTESIAN_POINT('',(-7.12947475914431,-46.6994032936161,9.25));
#1573=CARTESIAN_POINT('',(0.,0.72688362850168,9.25));
#1574=CARTESIAN_POINT('',(-26.5159171509998,-72.125,9.25));
#1575=CARTESIAN_POINT('',(0.,-19.25,9.25));
#1576=CARTESIAN_POINT('',(0.,-21.0057064690881,9.25));
#1577=CARTESIAN_POINT('',(30.,-19.25,9.25));
#1578=CARTESIAN_POINT('',(10.,-19.25,9.25));
#1579=CARTESIAN_POINT('',(30.,19.25,9.25));
#1580=CARTESIAN_POINT('',(30.,9.25,9.25));
#1581=CARTESIAN_POINT('',(6.74186300507437,19.25,9.25));
#1582=CARTESIAN_POINT('',(10.,19.25,9.25));
#1583=CARTESIAN_POINT('',(14.0212676903984,39.25,9.25));
#1584=CARTESIAN_POINT('',(-26.5159171509998,-72.125,9.25));
#1585=CARTESIAN_POINT('',(52.5486651426207,25.2271741236476,9.25));
#1586=CARTESIAN_POINT('',(23.653117053454,35.7442935309119,9.25));
#1587=CARTESIAN_POINT('',(35.0126325221591,-22.9526795278903,9.25));
#1588=CARTESIAN_POINT('',(39.0362701954879,-11.8978258763524,9.25));
#1589=CARTESIAN_POINT('',(46.9660820713639,-48.5869348101218,9.25000000000001));
#1590=CARTESIAN_POINT('Origin',(53.8064849378773,-29.7930823944037,9.25));
#1591=CARTESIAN_POINT('',(43.8526016343814,-47.4537206060901,9.25000000000001));
#1592=CARTESIAN_POINT('',(43.3122356646905,-60.0774402358111,9.25));
#1593=CARTESIAN_POINT('Origin',(44.9122356646905,-60.0774402358111,9.25));
#1594=CARTESIAN_POINT('',(107.211333878132,-83.3348099819566,9.25));
#1595=CARTESIAN_POINT('Origin',(108.811333878132,-83.3348099819566,9.25));
#1596=CARTESIAN_POINT('',(101.05497129827,-100.249277156103,9.25));
#1597=CARTESIAN_POINT('Origin',(102.65497129827,-100.249277156103,9.25));
#1598=CARTESIAN_POINT('',(37.1558730848285,-76.9919074099575,9.25));
#1599=CARTESIAN_POINT('Origin',(38.7558730848285,-76.9919074099575,9.25));
#1600=CARTESIAN_POINT('',(19.8075313961797,25.9198421438957,9.25));
#1601=CARTESIAN_POINT('Origin',(21.4075313961797,25.9198421438957,9.25));
#1602=CARTESIAN_POINT('',(-3.44983834996577,-37.9792560695461,9.25));
#1603=CARTESIAN_POINT('Origin',(-1.84983834996577,-37.9792560695461,9.25));
#1604=CARTESIAN_POINT('',(36.721998570326,19.7634795640337,9.25));
#1605=CARTESIAN_POINT('Origin',(38.321998570326,19.7634795640337,9.25));
#1606=CARTESIAN_POINT('',(13.4646288241806,-44.1356186494081,9.25));
#1607=CARTESIAN_POINT('Origin',(15.0646288241806,-44.1356186494081,9.25));
#1608=CARTESIAN_POINT('Origin',(47.5,-92.75,-0.749999999999998));
#1609=CARTESIAN_POINT('',(90.,-82.75,-0.749999999999997));
#1610=CARTESIAN_POINT('Origin',(90.,-92.75,-0.749999999999998));
#1611=CARTESIAN_POINT('',(60.,-82.75,-0.749999999999998));
#1612=CARTESIAN_POINT('Origin',(60.,-92.75,-0.749999999999998));
#1613=CARTESIAN_POINT('',(47.5,-82.75,-0.749999999999998));
#1614=CARTESIAN_POINT('Origin',(10.,-19.25,-0.749999999999998));
#1615=CARTESIAN_POINT('',(30.,-9.25,-0.749999999999998));
#1616=CARTESIAN_POINT('Origin',(30.,-19.25,-0.749999999999998));
#1617=CARTESIAN_POINT('',(0.,-9.25,-0.749999999999998));
#1618=CARTESIAN_POINT('Origin',(0.,-19.25,-0.749999999999998));
#1619=CARTESIAN_POINT('',(10.,-9.25,-0.749999999999998));
#1620=CARTESIAN_POINT('Origin',(10.,19.25,-0.749999999999998));
#1621=CARTESIAN_POINT('',(3.10216066241235,9.25,-0.749999999999998));
#1622=CARTESIAN_POINT('Origin',(6.74186300507437,19.25,-0.749999999999998));
#1623=CARTESIAN_POINT('',(30.,9.25,-0.749999999999998));
#1624=CARTESIAN_POINT('Origin',(30.,19.25,-0.749999999999998));
#1625=CARTESIAN_POINT('',(10.,9.25,-0.749999999999998));
#1626=CARTESIAN_POINT('Origin',(50.6692799010489,25.911214410299,16.25));
#1627=CARTESIAN_POINT('',(25.6088041274226,-42.941876898529,12.25));
#1628=CARTESIAN_POINT('',(25.6088041274226,-42.941876898529,16.25));
#1629=CARTESIAN_POINT('',(25.6088041274226,-42.941876898529,16.25));
#1630=CARTESIAN_POINT('',(50.6692799010489,25.9112144102989,16.25));
#1631=CARTESIAN_POINT('',(44.7116158927336,9.54266707475509,16.25));
#1632=CARTESIAN_POINT('',(50.6692799010489,25.9112144102989,12.25));
#1633=CARTESIAN_POINT('',(50.6692799010489,25.9112144102989,16.25));
#1634=CARTESIAN_POINT('',(-3.38029988748205,-122.588785589701,12.25));
#1635=CARTESIAN_POINT('Origin',(27.,-84.9511639127417,9.25));
#1636=CARTESIAN_POINT('',(27.,-62.25,12.25));
#1637=CARTESIAN_POINT('',(27.,-82.8228083677899,12.25));
#1638=CARTESIAN_POINT('',(27.,-82.5572613043494,12.25));
#1639=CARTESIAN_POINT('',(27.,-62.25,9.25));
#1640=CARTESIAN_POINT('',(27.,-84.9511639127417,16.25));
#1641=CARTESIAN_POINT('',(27.,-84.9511639127417,12.75));
#1642=CARTESIAN_POINT('',(27.,-82.8228083677899,16.25));
#1643=CARTESIAN_POINT('',(27.,-42.4755819563708,16.25));
#1644=CARTESIAN_POINT('',(27.,-82.8228083677899,12.75));
#1645=CARTESIAN_POINT('Origin',(27.,-62.25,9.25));
#1646=CARTESIAN_POINT('',(15.4875289719186,-62.25,12.25));
#1647=CARTESIAN_POINT('',(27.8364307143412,-62.25,12.25));
#1648=CARTESIAN_POINT('',(15.4875289719186,-62.25,16.25));
#1649=CARTESIAN_POINT('Origin',(6.26017652224403,-42.0114129381762,12.25));
#1650=CARTESIAN_POINT('',(108.802706144536,-112.596558486826,12.25));
#1651=CARTESIAN_POINT('',(26.1097555153755,-82.498785874167,12.25));
#1652=CARTESIAN_POINT('',(121.457451447585,-77.8279315177471,12.25));
#1653=CARTESIAN_POINT('',(118.635785265148,-85.5803956392309,12.25));
#1654=CARTESIAN_POINT('',(121.457451447585,-77.8279315177471,12.25));
#1655=CARTESIAN_POINT('',(15.9006529319702,38.5659597133487,12.25));
#1656=CARTESIAN_POINT('',(23.653117053454,35.7442935309119,12.25));
#1657=CARTESIAN_POINT('',(-14.1971196806886,-44.1269909158113,12.25));
#1658=CARTESIAN_POINT('',(15.9006529319702,38.5659597133487,12.25));
#1659=CARTESIAN_POINT('',(3.65704011424367,-50.625373638999,12.25));
#1660=CARTESIAN_POINT('',(-6.44465555920485,-46.948657098248,12.25));
#1661=CARTESIAN_POINT('Origin',(-3.1833627522697,-69.4192260547172,12.25));
#1662=CARTESIAN_POINT('',(43.3122356646905,-60.0774402358111,12.25));
#1663=CARTESIAN_POINT('Origin',(44.9122356646905,-60.0774402358111,12.25));
#1664=CARTESIAN_POINT('',(107.211333878132,-83.3348099819566,12.25));
#1665=CARTESIAN_POINT('Origin',(108.811333878132,-83.3348099819566,12.25));
#1666=CARTESIAN_POINT('',(101.05497129827,-100.249277156103,12.25));
#1667=CARTESIAN_POINT('Origin',(102.65497129827,-100.249277156103,12.25));
#1668=CARTESIAN_POINT('',(37.1558730848285,-76.9919074099575,12.25));
#1669=CARTESIAN_POINT('Origin',(38.7558730848285,-76.9919074099575,12.25));
#1670=CARTESIAN_POINT('',(19.8075313961797,25.9198421438957,12.25));
#1671=CARTESIAN_POINT('Origin',(21.4075313961797,25.9198421438957,12.25));
#1672=CARTESIAN_POINT('',(-3.44983834996577,-37.9792560695461,12.25));
#1673=CARTESIAN_POINT('Origin',(-1.84983834996577,-37.9792560695461,12.25));
#1674=CARTESIAN_POINT('',(36.721998570326,19.7634795640337,12.25));
#1675=CARTESIAN_POINT('Origin',(38.321998570326,19.7634795640337,12.25));
#1676=CARTESIAN_POINT('',(13.4646288241806,-44.1356186494081,12.25));
#1677=CARTESIAN_POINT('Origin',(15.0646288241806,-44.1356186494081,12.25));
#1678=CARTESIAN_POINT('',(6.5,4.28626379701574E-16,12.25));
#1679=CARTESIAN_POINT('Origin',(10.,0.,12.25));
#1680=CARTESIAN_POINT('Origin',(20.,0.,16.25));
#1681=CARTESIAN_POINT('',(108.118665857884,-114.475943728398,16.25));
#1682=CARTESIAN_POINT('',(14.1494037792933,-80.2739293958307,16.25));
#1683=CARTESIAN_POINT('',(108.802706144536,-112.596558486826,16.25));
#1684=CARTESIAN_POINT('',(108.118665857884,-114.475943728398,16.25));
#1685=CARTESIAN_POINT('',(51.5014065422451,-91.7405910468223,16.25));
#1686=CARTESIAN_POINT('Origin',(20.,0.,16.25));
#1687=CARTESIAN_POINT('',(121.457451447585,-77.8279315177471,16.25));
#1688=CARTESIAN_POINT('',(22.8096765307148,-41.9230777714143,16.25));
#1689=CARTESIAN_POINT('',(122.141491734237,-75.9485462761753,16.25));
#1690=CARTESIAN_POINT('',(108.118665857884,-114.475943728398,16.25));
#1691=CARTESIAN_POINT('',(46.9660820713639,-48.5869348101218,16.25));
#1692=CARTESIAN_POINT('',(90.,-64.25,16.25));
#1693=CARTESIAN_POINT('',(35.0126325221591,-22.9526795278903,16.25));
#1694=CARTESIAN_POINT('Origin',(53.8064849378773,-29.7930823944037,16.25));
#1695=CARTESIAN_POINT('',(52.5486651426207,25.2271741236476,16.25));
#1696=CARTESIAN_POINT('',(-1.50091464591035,-123.272825876352,16.25));
#1697=CARTESIAN_POINT('',(52.5486651426207,25.2271741236476,16.25));
#1698=CARTESIAN_POINT('Origin',(10.,0.,12.25));
#1699=CARTESIAN_POINT('',(6.5,4.28626379701574E-16,9.25));
#1700=CARTESIAN_POINT('',(6.5,4.28626379701574E-16,12.25));
#1701=CARTESIAN_POINT('Origin',(10.,0.,9.25));
#1702=CARTESIAN_POINT('Origin',(10.,0.,9.25));
#1703=CARTESIAN_POINT('',(11.6,1.95943487863577E-16,9.25));
#1704=CARTESIAN_POINT('Origin',(10.,0.,9.25));
#1705=CARTESIAN_POINT('Origin',(53.8064849378773,-29.7930823944037,16.25));
#1706=CARTESIAN_POINT('',(46.9660820713639,-48.5869348101218,16.25));
#1707=CARTESIAN_POINT('',(35.0126325221591,-22.9526795278903,16.25));
#1708=CARTESIAN_POINT('Origin',(28.1722296556457,-41.7465319436085,16.25));
#1709=CARTESIAN_POINT('',(122.141491734237,-75.9485462761753,16.25));
#1710=CARTESIAN_POINT('',(90.,-64.25,9.25000000000001));
#1711=CARTESIAN_POINT('Origin',(-3.1833627522697,-69.4192260547172,16.25));
#1712=CARTESIAN_POINT('',(3.65704011424367,-50.625373638999,16.25));
#1713=CARTESIAN_POINT('Origin',(44.9122356646905,-60.0774402358111,12.25));
#1714=CARTESIAN_POINT('',(43.3122356646905,-60.0774402358111,12.25));
#1715=CARTESIAN_POINT('Origin',(108.811333878132,-83.3348099819566,12.25));
#1716=CARTESIAN_POINT('',(107.211333878132,-83.3348099819566,12.25));
#1717=CARTESIAN_POINT('Origin',(102.65497129827,-100.249277156103,12.25));
#1718=CARTESIAN_POINT('',(101.05497129827,-100.249277156103,12.25));
#1719=CARTESIAN_POINT('Origin',(38.7558730848285,-76.9919074099575,12.25));
#1720=CARTESIAN_POINT('',(37.1558730848285,-76.9919074099575,12.25));
#1721=CARTESIAN_POINT('Origin',(38.7645008184253,-47.7301589050883,16.25));
#1722=CARTESIAN_POINT('',(121.457451447585,-77.8279315177471,16.25));
#1723=CARTESIAN_POINT('Origin',(108.802706144536,-112.596558486826,16.25));
#1724=CARTESIAN_POINT('',(108.802706144536,-112.596558486826,16.25));
#1725=CARTESIAN_POINT('Origin',(108.118665857884,-114.475943728398,16.25));
#1726=CARTESIAN_POINT('',(108.118665857884,-114.475943728398,16.25));
#1727=CARTESIAN_POINT('Origin',(122.141491734237,-75.9485462761753,16.25));
#1728=CARTESIAN_POINT('Origin',(60.,-82.75,-9.24999999999999));
#1729=CARTESIAN_POINT('',(60.,-64.25,-9.24999999999999));
#1730=CARTESIAN_POINT('',(60.,-64.25,-9.24999999999999));
#1731=CARTESIAN_POINT('',(60.,-82.75,-9.24999999999999));
#1732=CARTESIAN_POINT('',(60.,-82.75,-9.24999999999999));
#1733=CARTESIAN_POINT('',(60.,-82.75,-9.24999999999999));
#1734=CARTESIAN_POINT('',(60.,-81.25,-7.75));
#1735=CARTESIAN_POINT('',(60.,-65.75,-7.75));
#1736=CARTESIAN_POINT('',(60.,-74.25,-7.75));
#1737=CARTESIAN_POINT('',(60.,-65.75,7.75));
#1738=CARTESIAN_POINT('',(60.,-65.75,-0.749999999999996));
#1739=CARTESIAN_POINT('',(60.,-81.25,7.75));
#1740=CARTESIAN_POINT('',(60.,-82.,7.75));
#1741=CARTESIAN_POINT('',(60.,-81.25,-8.49999999999999));
#1742=CARTESIAN_POINT('Origin',(-40.0283120981326,-109.25,16.25));
#1743=CARTESIAN_POINT('',(-16.0765049222604,-43.4429506291599,16.25));
#1744=CARTESIAN_POINT('',(-16.0765049222604,-43.44295062916,16.25));
#1745=CARTESIAN_POINT('',(0.,0.726883628501679,16.25));
#1746=CARTESIAN_POINT('',(14.0212676903984,39.25,16.25));
#1747=CARTESIAN_POINT('',(0.,0.72688362850168,8.125));
#1748=CARTESIAN_POINT('Origin',(20.,0.,16.25));
#1749=CARTESIAN_POINT('',(-14.1971196806886,-44.1269909158113,16.25));
#1750=CARTESIAN_POINT('',(-7.12947475914431,-46.6994032936161,16.25));
#1751=CARTESIAN_POINT('',(15.9006529319702,38.5659597133487,16.25));
#1752=CARTESIAN_POINT('',(-17.0818009706106,-52.0525876221952,16.25));
#1753=CARTESIAN_POINT('',(14.0212676903984,39.25,16.25));
#1754=CARTESIAN_POINT('',(52.5486651426207,25.2271741236476,16.25));
#1755=CARTESIAN_POINT('',(3.10216066241234,9.25,16.25));
#1756=CARTESIAN_POINT('',(14.0212676903984,39.25,16.25));
#1757=CARTESIAN_POINT('',(0.,9.25,16.25));
#1758=CARTESIAN_POINT('',(40.,9.25,16.25));
#1759=CARTESIAN_POINT('',(0.,9.25,16.25));
#1760=CARTESIAN_POINT('Origin',(60.,-71.132533947869,16.25));
#1761=CARTESIAN_POINT('',(-14.1971196806886,-44.1269909158113,16.25));
#1762=CARTESIAN_POINT('Origin',(52.5486651426207,25.2271741236476,16.25));
#1763=CARTESIAN_POINT('',(52.5486651426207,25.2271741236476,16.25));
#1764=CARTESIAN_POINT('Origin',(15.0646288241806,-44.1356186494081,12.25));
#1765=CARTESIAN_POINT('',(13.4646288241806,-44.1356186494081,12.25));
#1766=CARTESIAN_POINT('Origin',(38.321998570326,19.7634795640337,12.25));
#1767=CARTESIAN_POINT('',(36.721998570326,19.7634795640337,12.25));
#1768=CARTESIAN_POINT('Origin',(-1.84983834996577,-37.9792560695461,12.25));
#1769=CARTESIAN_POINT('',(-3.44983834996577,-37.9792560695461,12.25));
#1770=CARTESIAN_POINT('Origin',(21.4075313961797,25.9198421438957,12.25));
#1771=CARTESIAN_POINT('',(19.8075313961797,25.9198421438957,12.25));
#1772=CARTESIAN_POINT('Origin',(-38.1489268565608,-109.934040286651,16.25));
#1773=CARTESIAN_POINT('',(15.9006529319702,38.5659597133487,16.25));
#1774=CARTESIAN_POINT('Origin',(-40.0283120981326,-109.25,16.25));
#1775=CARTESIAN_POINT('',(3.10216066241235,9.25000000000001,3.5));
#1776=CARTESIAN_POINT('',(14.0212676903984,39.25,16.25));
#1777=CARTESIAN_POINT('Origin',(14.0212676903984,39.25,16.25));
#1778=CARTESIAN_POINT('Origin',(0.,-9.25,9.25));
#1779=CARTESIAN_POINT('',(0.,-9.25,-9.25));
#1780=CARTESIAN_POINT('',(0.,-9.25,9.25));
#1781=CARTESIAN_POINT('',(30.,-9.25,-9.25));
#1782=CARTESIAN_POINT('',(0.,-9.25,-9.25));
#1783=CARTESIAN_POINT('',(30.,-9.25,9.25));
#1784=CARTESIAN_POINT('Origin',(0.,0.,0.));
#1785=CARTESIAN_POINT('',(0.,9.25,-9.25));
#1786=CARTESIAN_POINT('',(0.,9.25,-9.25));
#1787=CARTESIAN_POINT('',(0.,-9.25,-9.25));
#1788=CARTESIAN_POINT('',(0.,-7.75,-7.75));
#1789=CARTESIAN_POINT('',(0.,-7.75,7.75));
#1790=CARTESIAN_POINT('',(0.,-7.75,-7.75));
#1791=CARTESIAN_POINT('',(0.,7.75,-7.75));
#1792=CARTESIAN_POINT('',(0.,7.75,-7.75));
#1793=CARTESIAN_POINT('',(0.,7.75,7.75));
#1794=CARTESIAN_POINT('',(0.,7.75,7.75));
#1795=CARTESIAN_POINT('',(0.,-7.75,7.75));
#1796=CARTESIAN_POINT('Origin',(10.,0.,-9.25));
#1797=CARTESIAN_POINT('',(11.6,1.95943487863577E-16,7.75));
#1798=CARTESIAN_POINT('Origin',(10.,0.,7.75));
#1799=CARTESIAN_POINT('',(11.6,1.95943487863577E-16,-9.25));
#1800=CARTESIAN_POINT('Origin',(10.,0.,-9.25));
#1801=CARTESIAN_POINT('',(11.6,1.95943487863577E-16,-9.25));
#1802=CARTESIAN_POINT('Origin',(10.,0.,-9.25));
#1803=CARTESIAN_POINT('',(11.6,-1.95943487863577E-16,-7.75));
#1804=CARTESIAN_POINT('',(11.6,1.95943487863577E-16,-9.25));
#1805=CARTESIAN_POINT('Origin',(10.,0.,-7.75));
#1806=CARTESIAN_POINT('Origin',(0.,7.75,-7.75));
#1807=CARTESIAN_POINT('',(30.,-7.75,-7.75));
#1808=CARTESIAN_POINT('',(0.,-7.75,-7.75));
#1809=CARTESIAN_POINT('',(30.,7.75,-7.75));
#1810=CARTESIAN_POINT('',(30.,7.75,-7.75));
#1811=CARTESIAN_POINT('',(0.,7.75,-7.75));
#1812=CARTESIAN_POINT('Origin',(0.,7.75,7.75));
#1813=CARTESIAN_POINT('',(30.,7.75,7.75));
#1814=CARTESIAN_POINT('',(30.,7.75,7.75));
#1815=CARTESIAN_POINT('',(0.,7.75,7.75));
#1816=CARTESIAN_POINT('Origin',(0.,-7.75,7.75));
#1817=CARTESIAN_POINT('',(30.,-7.75,7.75));
#1818=CARTESIAN_POINT('',(30.,-7.75,7.75));
#1819=CARTESIAN_POINT('',(0.,-7.75,7.75));
#1820=CARTESIAN_POINT('Origin',(0.,-7.75,-7.75));
#1821=CARTESIAN_POINT('',(30.,-7.75,-7.75));
#1822=CARTESIAN_POINT('Origin',(0.,9.25,-9.25));
#1823=CARTESIAN_POINT('',(30.,9.25,-9.25));
#1824=CARTESIAN_POINT('',(30.,9.25,-9.25));
#1825=CARTESIAN_POINT('',(0.,9.25,-9.25));
#1826=CARTESIAN_POINT('Origin',(0.,-9.25,-9.25));
#1827=CARTESIAN_POINT('',(30.,-9.25,-9.25));
#1828=CARTESIAN_POINT('Origin',(30.,0.,0.));
#1829=CARTESIAN_POINT('Origin',(90.,-81.25,7.75));
#1830=CARTESIAN_POINT('',(90.,-65.75,7.75));
#1831=CARTESIAN_POINT('',(90.,-65.75,7.75));
#1832=CARTESIAN_POINT('',(90.,-81.25,7.75));
#1833=CARTESIAN_POINT('',(90.,-82.,7.74999999999999));
#1834=CARTESIAN_POINT('',(90.,-81.25,7.75));
#1835=CARTESIAN_POINT('Origin',(90.,-81.25,-7.75));
#1836=CARTESIAN_POINT('',(90.,-81.25,-7.75));
#1837=CARTESIAN_POINT('',(90.,-81.25,0.750000000000004));
#1838=CARTESIAN_POINT('',(90.,-81.25,-7.75));
#1839=CARTESIAN_POINT('Origin',(90.,-65.75,-7.75));
#1840=CARTESIAN_POINT('',(90.,-65.75,-7.75));
#1841=CARTESIAN_POINT('',(90.,-74.25,-7.75));
#1842=CARTESIAN_POINT('',(90.,-65.75,-7.75));
#1843=CARTESIAN_POINT('Origin',(90.,-65.75,7.75));
#1844=CARTESIAN_POINT('',(90.,-65.75,8.5));
#1845=CARTESIAN_POINT('Origin',(90.,-82.75,-9.25));
#1846=CARTESIAN_POINT('',(90.,-82.75,-9.25));
#1847=CARTESIAN_POINT('',(90.,-82.75,-9.25));
#1848=CARTESIAN_POINT('',(90.,-64.25,-9.25));
#1849=CARTESIAN_POINT('',(90.,-64.25,-9.25));
#1850=CARTESIAN_POINT('',(90.,-82.75,-9.25));
#1851=CARTESIAN_POINT('Origin',(90.,-82.75,9.25000000000001));
#1852=CARTESIAN_POINT('',(90.,-82.75,9.25000000000001));
#1853=CARTESIAN_POINT('',(90.,-64.25,9.25000000000001));
#1854=CARTESIAN_POINT('Origin',(75.,-64.25,4.44089209850063E-15));
#1855=CARTESIAN_POINT('Origin',(75.,-82.75,4.9960036108132E-15));
#1856=UNCERTAINTY_MEASURE_WITH_UNIT(LENGTH_MEASURE(0.01),#1860,
'DISTANCE_ACCURACY_VALUE',
'Maximum model space distance between geometric entities at asserted c
onnectivities');
#1857=UNCERTAINTY_MEASURE_WITH_UNIT(LENGTH_MEASURE(0.01),#1860,
'DISTANCE_ACCURACY_VALUE',
'Maximum model space distance between geometric entities at asserted c
onnectivities');
#1858=(
GEOMETRIC_REPRESENTATION_CONTEXT(3)
GLOBAL_UNCERTAINTY_ASSIGNED_CONTEXT((#1856))
GLOBAL_UNIT_ASSIGNED_CONTEXT((#1860,#1862,#1863))
REPRESENTATION_CONTEXT('','3D')
);
#1859=(
GEOMETRIC_REPRESENTATION_CONTEXT(3)
GLOBAL_UNCERTAINTY_ASSIGNED_CONTEXT((#1857))
GLOBAL_UNIT_ASSIGNED_CONTEXT((#1860,#1862,#1863))
REPRESENTATION_CONTEXT('','3D')
);
#1860=(
LENGTH_UNIT()
NAMED_UNIT(*)
SI_UNIT(.MILLI.,.METRE.)
);
#1861=(
LENGTH_UNIT()
NAMED_UNIT(*)
SI_UNIT(.CENTI.,.METRE.)
);
#1862=(
NAMED_UNIT(*)
PLANE_ANGLE_UNIT()
SI_UNIT($,.RADIAN.)
);
#1863=(
NAMED_UNIT(*)
SI_UNIT($,.STERADIAN.)
SOLID_ANGLE_UNIT()
);
#1864=SHAPE_DEFINITION_REPRESENTATION(#1865,#1866);
#1865=PRODUCT_DEFINITION_SHAPE('',$,#1868);
#1866=SHAPE_REPRESENTATION('',(#1151),#1858);
#1867=PRODUCT_DEFINITION_CONTEXT('part definition',#1872,'design');
#1868=PRODUCT_DEFINITION('back_base','back_base',#1869,#1867);
#1869=PRODUCT_DEFINITION_FORMATION('',$,#1874);
#1870=PRODUCT_RELATED_PRODUCT_CATEGORY('back_base','back_base',(#1874));
#1871=APPLICATION_PROTOCOL_DEFINITION('international standard',
'automotive_design',2009,#1872);
#1872=APPLICATION_CONTEXT(
'Core Data for Automotive Mechanical Design Process');
#1873=PRODUCT_CONTEXT('part definition',#1872,'mechanical');
#1874=PRODUCT('back_base','back_base',$,(#1873));
#1875=PRESENTATION_STYLE_ASSIGNMENT((#1877));
#1876=PRESENTATION_STYLE_ASSIGNMENT((#1878));
#1877=SURFACE_STYLE_USAGE(.BOTH.,#1883);
#1878=SURFACE_STYLE_USAGE(.BOTH.,#1884);
#1879=SURFACE_STYLE_RENDERING_WITH_PROPERTIES($,#1891,(#1881));
#1880=SURFACE_STYLE_RENDERING_WITH_PROPERTIES($,#1892,(#1882));
#1881=SURFACE_STYLE_TRANSPARENT(0.);
#1882=SURFACE_STYLE_TRANSPARENT(0.);
#1883=SURFACE_SIDE_STYLE('',(#1885,#1879));
#1884=SURFACE_SIDE_STYLE('',(#1886,#1880));
#1885=SURFACE_STYLE_FILL_AREA(#1887);
#1886=SURFACE_STYLE_FILL_AREA(#1888);
#1887=FILL_AREA_STYLE('',(#1889));
#1888=FILL_AREA_STYLE('',(#1890));
#1889=FILL_AREA_STYLE_COLOUR('',#1891);
#1890=FILL_AREA_STYLE_COLOUR('',#1892);
#1891=COLOUR_RGB('',0.749019607843137,0.749019607843137,0.749019607843137);
#1892=COLOUR_RGB('',0.352941176470588,0.352941176470588,0.352941176470588);
ENDSEC;
END-ISO-10303-21;
