ISO-10303-21;
HEADER;
/* Generated by software containing ST-Developer
 * from STEP Tools, Inc. (www.steptools.com) 
 */

FILE_DESCRIPTION(
/* description */ (''),
/* implementation_level */ '2;1');

FILE_NAME(
/* name */ 'back_base_MIR.stp',
/* time_stamp */ '2026-02-05T09:39:35+09:00',
/* author */ ('hibik'),
/* organization */ (''),
/* preprocessor_version */ 'ST-DEVELOPER v20.1',
/* originating_system */ 'Autodesk Inventor 2026',
/* authorisation */ '');

FILE_SCHEMA (('AUTOMOTIVE_DESIGN { 1 0 10303 214 3 1 1 }'));
ENDSEC;

DATA;
#10=MECHANICAL_DESIGN_GEOMETRIC_PRESENTATION_REPRESENTATION('',(#1073,#1074,
#1075,#1076,#1077,#1078,#1079,#1080,#1081,#1082,#1083,#1084,#1085,#1086,
#1087,#1088,#1089,#1090,#1091,#1092,#1093,#1094,#1095,#1096,#1097,#1098,
#1099,#1100,#1101,#1102,#1103,#1104,#1105,#1106,#1107,#1108,#1109,#1110,
#1111,#1112,#1113,#1114,#1115,#1116,#1117,#1118,#1119,#1120,#1121,#1122,
#1123,#1124,#1125,#1126,#1127,#1128),#1914);
#11=SHAPE_REPRESENTATION_RELATIONSHIP('SRR','None',#1921,#12);
#12=ADVANCED_BREP_SHAPE_REPRESENTATION('',(#13),#1913);
#13=MANIFOLD_SOLID_BREP('\X2\30BD30EA30C330C9\X0\1',#1184);
#14=FACE_BOUND('',#134,.T.);
#15=FACE_BOUND('',#135,.T.);
#16=FACE_BOUND('',#136,.T.);
#17=FACE_BOUND('',#137,.T.);
#18=FACE_BOUND('',#138,.T.);
#19=FACE_BOUND('',#139,.T.);
#20=FACE_BOUND('',#140,.T.);
#21=FACE_BOUND('',#141,.T.);
#22=FACE_BOUND('',#149,.T.);
#23=FACE_BOUND('',#150,.T.);
#24=FACE_BOUND('',#151,.T.);
#25=FACE_BOUND('',#152,.T.);
#26=FACE_BOUND('',#153,.T.);
#27=FACE_BOUND('',#154,.T.);
#28=FACE_BOUND('',#155,.T.);
#29=FACE_BOUND('',#156,.T.);
#30=FACE_BOUND('',#157,.T.);
#31=FACE_BOUND('',#162,.T.);
#32=FACE_BOUND('',#175,.T.);
#33=FACE_BOUND('',#189,.T.);
#34=FACE_BOUND('',#193,.T.);
#35=FACE_BOUND('',#196,.T.);
#36=FACE_BOUND('',#200,.T.);
#37=FACE_BOUND('',#202,.T.);
#38=FACE_BOUND('',#209,.T.);
#39=PLANE('',#1210);
#40=PLANE('',#1230);
#41=PLANE('',#1231);
#42=PLANE('',#1232);
#43=PLANE('',#1233);
#44=PLANE('',#1244);
#45=PLANE('',#1245);
#46=PLANE('',#1249);
#47=PLANE('',#1252);
#48=PLANE('',#1258);
#49=PLANE('',#1259);
#50=PLANE('',#1260);
#51=PLANE('',#1261);
#52=PLANE('',#1262);
#53=PLANE('',#1263);
#54=PLANE('',#1264);
#55=PLANE('',#1265);
#56=PLANE('',#1266);
#57=PLANE('',#1271);
#58=PLANE('',#1272);
#59=PLANE('',#1273);
#60=PLANE('',#1274);
#61=PLANE('',#1275);
#62=PLANE('',#1281);
#63=PLANE('',#1282);
#64=PLANE('',#1283);
#65=PLANE('',#1284);
#66=PLANE('',#1285);
#67=PLANE('',#1286);
#68=PLANE('',#1287);
#69=PLANE('',#1288);
#70=PLANE('',#1289);
#71=PLANE('',#1290);
#72=PLANE('',#1291);
#73=PLANE('',#1292);
#74=PLANE('',#1293);
#75=PLANE('',#1294);
#76=PLANE('',#1295);
#77=FACE_OUTER_BOUND('',#132,.T.);
#78=FACE_OUTER_BOUND('',#133,.T.);
#79=FACE_OUTER_BOUND('',#142,.T.);
#80=FACE_OUTER_BOUND('',#143,.T.);
#81=FACE_OUTER_BOUND('',#144,.T.);
#82=FACE_OUTER_BOUND('',#145,.T.);
#83=FACE_OUTER_BOUND('',#146,.T.);
#84=FACE_OUTER_BOUND('',#147,.T.);
#85=FACE_OUTER_BOUND('',#148,.T.);
#86=FACE_OUTER_BOUND('',#158,.T.);
#87=FACE_OUTER_BOUND('',#159,.T.);
#88=FACE_OUTER_BOUND('',#160,.T.);
#89=FACE_OUTER_BOUND('',#161,.T.);
#90=FACE_OUTER_BOUND('',#163,.T.);
#91=FACE_OUTER_BOUND('',#164,.T.);
#92=FACE_OUTER_BOUND('',#165,.T.);
#93=FACE_OUTER_BOUND('',#166,.T.);
#94=FACE_OUTER_BOUND('',#167,.T.);
#95=FACE_OUTER_BOUND('',#168,.T.);
#96=FACE_OUTER_BOUND('',#169,.T.);
#97=FACE_OUTER_BOUND('',#170,.T.);
#98=FACE_OUTER_BOUND('',#171,.T.);
#99=FACE_OUTER_BOUND('',#172,.T.);
#100=FACE_OUTER_BOUND('',#173,.T.);
#101=FACE_OUTER_BOUND('',#174,.T.);
#102=FACE_OUTER_BOUND('',#176,.T.);
#103=FACE_OUTER_BOUND('',#177,.T.);
#104=FACE_OUTER_BOUND('',#178,.T.);
#105=FACE_OUTER_BOUND('',#179,.T.);
#106=FACE_OUTER_BOUND('',#180,.T.);
#107=FACE_OUTER_BOUND('',#181,.T.);
#108=FACE_OUTER_BOUND('',#182,.T.);
#109=FACE_OUTER_BOUND('',#183,.T.);
#110=FACE_OUTER_BOUND('',#184,.T.);
#111=FACE_OUTER_BOUND('',#185,.T.);
#112=FACE_OUTER_BOUND('',#186,.T.);
#113=FACE_OUTER_BOUND('',#187,.T.);
#114=FACE_OUTER_BOUND('',#188,.T.);
#115=FACE_OUTER_BOUND('',#190,.T.);
#116=FACE_OUTER_BOUND('',#191,.T.);
#117=FACE_OUTER_BOUND('',#192,.T.);
#118=FACE_OUTER_BOUND('',#194,.T.);
#119=FACE_OUTER_BOUND('',#195,.T.);
#120=FACE_OUTER_BOUND('',#197,.T.);
#121=FACE_OUTER_BOUND('',#198,.T.);
#122=FACE_OUTER_BOUND('',#199,.T.);
#123=FACE_OUTER_BOUND('',#201,.T.);
#124=FACE_OUTER_BOUND('',#203,.T.);
#125=FACE_OUTER_BOUND('',#204,.T.);
#126=FACE_OUTER_BOUND('',#205,.T.);
#127=FACE_OUTER_BOUND('',#206,.T.);
#128=FACE_OUTER_BOUND('',#207,.T.);
#129=FACE_OUTER_BOUND('',#208,.T.);
#130=FACE_OUTER_BOUND('',#210,.T.);
#131=FACE_OUTER_BOUND('',#211,.T.);
#132=EDGE_LOOP('',(#746,#747,#748,#749));
#133=EDGE_LOOP('',(#750,#751,#752,#753,#754,#755,#756,#757,#758,#759,#760,
#761,#762,#763,#764,#765,#766,#767,#768,#769,#770));
#134=EDGE_LOOP('',(#771));
#135=EDGE_LOOP('',(#772));
#136=EDGE_LOOP('',(#773));
#137=EDGE_LOOP('',(#774));
#138=EDGE_LOOP('',(#775));
#139=EDGE_LOOP('',(#776));
#140=EDGE_LOOP('',(#777));
#141=EDGE_LOOP('',(#778));
#142=EDGE_LOOP('',(#779,#780,#781,#782));
#143=EDGE_LOOP('',(#783,#784,#785,#786));
#144=EDGE_LOOP('',(#787,#788,#789,#790));
#145=EDGE_LOOP('',(#791,#792,#793,#794));
#146=EDGE_LOOP('',(#795,#796,#797,#798,#799,#800));
#147=EDGE_LOOP('',(#801,#802,#803,#804));
#148=EDGE_LOOP('',(#805,#806,#807,#808,#809,#810,#811,#812,#813,#814));
#149=EDGE_LOOP('',(#815));
#150=EDGE_LOOP('',(#816));
#151=EDGE_LOOP('',(#817));
#152=EDGE_LOOP('',(#818));
#153=EDGE_LOOP('',(#819));
#154=EDGE_LOOP('',(#820));
#155=EDGE_LOOP('',(#821));
#156=EDGE_LOOP('',(#822));
#157=EDGE_LOOP('',(#823));
#158=EDGE_LOOP('',(#824,#825,#826,#827));
#159=EDGE_LOOP('',(#828,#829,#830,#831,#832,#833,#834));
#160=EDGE_LOOP('',(#835,#836,#837,#838));
#161=EDGE_LOOP('',(#839));
#162=EDGE_LOOP('',(#840));
#163=EDGE_LOOP('',(#841,#842,#843,#844));
#164=EDGE_LOOP('',(#845,#846,#847,#848,#849,#850,#851));
#165=EDGE_LOOP('',(#852,#853,#854,#855));
#166=EDGE_LOOP('',(#856,#857,#858,#859));
#167=EDGE_LOOP('',(#860,#861,#862,#863));
#168=EDGE_LOOP('',(#864,#865,#866,#867));
#169=EDGE_LOOP('',(#868,#869,#870,#871));
#170=EDGE_LOOP('',(#872,#873,#874,#875));
#171=EDGE_LOOP('',(#876,#877,#878,#879));
#172=EDGE_LOOP('',(#880,#881,#882,#883));
#173=EDGE_LOOP('',(#884,#885,#886,#887,#888,#889,#890,#891));
#174=EDGE_LOOP('',(#892,#893,#894,#895,#896,#897));
#175=EDGE_LOOP('',(#898,#899,#900,#901));
#176=EDGE_LOOP('',(#902,#903,#904,#905));
#177=EDGE_LOOP('',(#906,#907,#908,#909,#910,#911,#912));
#178=EDGE_LOOP('',(#913,#914,#915,#916,#917,#918));
#179=EDGE_LOOP('',(#919,#920,#921,#922));
#180=EDGE_LOOP('',(#923,#924,#925,#926));
#181=EDGE_LOOP('',(#927,#928,#929,#930));
#182=EDGE_LOOP('',(#931,#932,#933,#934));
#183=EDGE_LOOP('',(#935,#936,#937,#938));
#184=EDGE_LOOP('',(#939,#940,#941,#942));
#185=EDGE_LOOP('',(#943,#944,#945,#946,#947));
#186=EDGE_LOOP('',(#948,#949,#950,#951,#952,#953,#954,#955));
#187=EDGE_LOOP('',(#956,#957,#958,#959));
#188=EDGE_LOOP('',(#960,#961,#962,#963,#964,#965,#966));
#189=EDGE_LOOP('',(#967,#968,#969,#970));
#190=EDGE_LOOP('',(#971,#972,#973,#974));
#191=EDGE_LOOP('',(#975,#976,#977,#978));
#192=EDGE_LOOP('',(#979,#980,#981,#982));
#193=EDGE_LOOP('',(#983));
#194=EDGE_LOOP('',(#984,#985,#986,#987));
#195=EDGE_LOOP('',(#988,#989,#990,#991));
#196=EDGE_LOOP('',(#992));
#197=EDGE_LOOP('',(#993,#994,#995,#996));
#198=EDGE_LOOP('',(#997,#998,#999,#1000,#1001,#1002));
#199=EDGE_LOOP('',(#1003,#1004,#1005,#1006));
#200=EDGE_LOOP('',(#1007));
#201=EDGE_LOOP('',(#1008,#1009,#1010,#1011,#1012,#1013));
#202=EDGE_LOOP('',(#1014,#1015,#1016,#1017));
#203=EDGE_LOOP('',(#1018,#1019,#1020,#1021));
#204=EDGE_LOOP('',(#1022,#1023,#1024,#1025));
#205=EDGE_LOOP('',(#1026,#1027,#1028,#1029));
#206=EDGE_LOOP('',(#1030,#1031,#1032,#1033));
#207=EDGE_LOOP('',(#1034,#1035,#1036,#1037));
#208=EDGE_LOOP('',(#1038,#1039,#1040,#1041,#1042,#1043));
#209=EDGE_LOOP('',(#1044,#1045,#1046,#1047));
#210=EDGE_LOOP('',(#1048,#1049,#1050,#1051));
#211=EDGE_LOOP('',(#1052,#1053,#1054,#1055));
#212=CIRCLE('',#1209,10.);
#213=CIRCLE('',#1211,20.);
#214=CIRCLE('',#1212,20.);
#215=CIRCLE('',#1213,1.6);
#216=CIRCLE('',#1214,1.6);
#217=CIRCLE('',#1215,1.6);
#218=CIRCLE('',#1216,1.6);
#219=CIRCLE('',#1217,1.6);
#220=CIRCLE('',#1218,1.6);
#221=CIRCLE('',#1219,1.6);
#222=CIRCLE('',#1220,1.6);
#223=CIRCLE('',#1222,10.);
#224=CIRCLE('',#1223,10.);
#225=CIRCLE('',#1225,10.);
#226=CIRCLE('',#1226,10.);
#227=CIRCLE('',#1229,10.);
#228=CIRCLE('',#1234,20.);
#229=CIRCLE('',#1235,1.6);
#230=CIRCLE('',#1236,1.6);
#231=CIRCLE('',#1237,1.6);
#232=CIRCLE('',#1238,1.6);
#233=CIRCLE('',#1239,1.6);
#234=CIRCLE('',#1240,1.6);
#235=CIRCLE('',#1241,1.6);
#236=CIRCLE('',#1242,1.6);
#237=CIRCLE('',#1243,3.5);
#238=CIRCLE('',#1246,20.);
#239=CIRCLE('',#1248,3.5);
#240=CIRCLE('',#1250,1.6);
#241=CIRCLE('',#1277,1.6);
#242=CIRCLE('',#1279,1.6);
#243=CIRCLE('',#1280,1.6);
#244=LINE('',#1603,#365);
#245=LINE('',#1606,#366);
#246=LINE('',#1609,#367);
#247=LINE('',#1613,#368);
#248=LINE('',#1615,#369);
#249=LINE('',#1617,#370);
#250=LINE('',#1619,#371);
#251=LINE('',#1621,#372);
#252=LINE('',#1623,#373);
#253=LINE('',#1625,#374);
#254=LINE('',#1627,#375);
#255=LINE('',#1629,#376);
#256=LINE('',#1633,#377);
#257=LINE('',#1635,#378);
#258=LINE('',#1637,#379);
#259=LINE('',#1639,#380);
#260=LINE('',#1641,#381);
#261=LINE('',#1643,#382);
#262=LINE('',#1645,#383);
#263=LINE('',#1646,#384);
#264=LINE('',#1667,#385);
#265=LINE('',#1673,#386);
#266=LINE('',#1679,#387);
#267=LINE('',#1684,#388);
#268=LINE('',#1686,#389);
#269=LINE('',#1688,#390);
#270=LINE('',#1689,#391);
#271=LINE('',#1693,#392);
#272=LINE('',#1695,#393);
#273=LINE('',#1697,#394);
#274=LINE('',#1698,#395);
#275=LINE('',#1699,#396);
#276=LINE('',#1702,#397);
#277=LINE('',#1703,#398);
#278=LINE('',#1708,#399);
#279=LINE('',#1710,#400);
#280=LINE('',#1711,#401);
#281=LINE('',#1713,#402);
#282=LINE('',#1715,#403);
#283=LINE('',#1716,#404);
#284=LINE('',#1737,#405);
#285=LINE('',#1739,#406);
#286=LINE('',#1740,#407);
#287=LINE('',#1743,#408);
#288=LINE('',#1745,#409);
#289=LINE('',#1747,#410);
#290=LINE('',#1751,#411);
#291=LINE('',#1752,#412);
#292=LINE('',#1755,#413);
#293=LINE('',#1761,#414);
#294=LINE('',#1762,#415);
#295=LINE('',#1764,#416);
#296=LINE('',#1765,#417);
#297=LINE('',#1767,#418);
#298=LINE('',#1769,#419);
#299=LINE('',#1771,#420);
#300=LINE('',#1773,#421);
#301=LINE('',#1775,#422);
#302=LINE('',#1777,#423);
#303=LINE('',#1779,#424);
#304=LINE('',#1781,#425);
#305=LINE('',#1785,#426);
#306=LINE('',#1787,#427);
#307=LINE('',#1788,#428);
#308=LINE('',#1791,#429);
#309=LINE('',#1793,#430);
#310=LINE('',#1795,#431);
#311=LINE('',#1796,#432);
#312=LINE('',#1799,#433);
#313=LINE('',#1801,#434);
#314=LINE('',#1802,#435);
#315=LINE('',#1805,#436);
#316=LINE('',#1807,#437);
#317=LINE('',#1809,#438);
#318=LINE('',#1811,#439);
#319=LINE('',#1813,#440);
#320=LINE('',#1814,#441);
#321=LINE('',#1816,#442);
#322=LINE('',#1818,#443);
#323=LINE('',#1820,#444);
#324=LINE('',#1822,#445);
#325=LINE('',#1824,#446);
#326=LINE('',#1826,#447);
#327=LINE('',#1828,#448);
#328=LINE('',#1830,#449);
#329=LINE('',#1831,#450);
#330=LINE('',#1835,#451);
#331=LINE('',#1837,#452);
#332=LINE('',#1838,#453);
#333=LINE('',#1841,#454);
#334=LINE('',#1842,#455);
#335=LINE('',#1845,#456);
#336=LINE('',#1847,#457);
#337=LINE('',#1849,#458);
#338=LINE('',#1850,#459);
#339=LINE('',#1854,#460);
#340=LINE('',#1859,#461);
#341=LINE('',#1863,#462);
#342=LINE('',#1865,#463);
#343=LINE('',#1866,#464);
#344=LINE('',#1869,#465);
#345=LINE('',#1870,#466);
#346=LINE('',#1873,#467);
#347=LINE('',#1874,#468);
#348=LINE('',#1876,#469);
#349=LINE('',#1879,#470);
#350=LINE('',#1880,#471);
#351=LINE('',#1882,#472);
#352=LINE('',#1886,#473);
#353=LINE('',#1888,#474);
#354=LINE('',#1889,#475);
#355=LINE('',#1892,#476);
#356=LINE('',#1893,#477);
#357=LINE('',#1896,#478);
#358=LINE('',#1897,#479);
#359=LINE('',#1899,#480);
#360=LINE('',#1902,#481);
#361=LINE('',#1904,#482);
#362=LINE('',#1905,#483);
#363=LINE('',#1907,#484);
#364=LINE('',#1908,#485);
#365=VECTOR('',#1302,10.);
#366=VECTOR('',#1305,10.);
#367=VECTOR('',#1308,10.);
#368=VECTOR('',#1311,10.);
#369=VECTOR('',#1312,10.);
#370=VECTOR('',#1313,10.);
#371=VECTOR('',#1314,10.);
#372=VECTOR('',#1315,10.);
#373=VECTOR('',#1316,10.);
#374=VECTOR('',#1317,10.);
#375=VECTOR('',#1318,10.);
#376=VECTOR('',#1319,10.);
#377=VECTOR('',#1322,10.);
#378=VECTOR('',#1323,10.);
#379=VECTOR('',#1324,10.);
#380=VECTOR('',#1325,10.);
#381=VECTOR('',#1326,10.);
#382=VECTOR('',#1327,10.);
#383=VECTOR('',#1328,10.);
#384=VECTOR('',#1329,10.);
#385=VECTOR('',#1350,10.);
#386=VECTOR('',#1357,10.);
#387=VECTOR('',#1364,10.);
#388=VECTOR('',#1369,10.);
#389=VECTOR('',#1370,10.);
#390=VECTOR('',#1371,10.);
#391=VECTOR('',#1372,10.);
#392=VECTOR('',#1375,10.);
#393=VECTOR('',#1376,10.);
#394=VECTOR('',#1377,10.);
#395=VECTOR('',#1378,10.);
#396=VECTOR('',#1379,10.);
#397=VECTOR('',#1382,10.);
#398=VECTOR('',#1383,10.);
#399=VECTOR('',#1388,10.);
#400=VECTOR('',#1389,10.);
#401=VECTOR('',#1390,10.);
#402=VECTOR('',#1391,10.);
#403=VECTOR('',#1392,10.);
#404=VECTOR('',#1393,10.);
#405=VECTOR('',#1414,10.);
#406=VECTOR('',#1415,10.);
#407=VECTOR('',#1416,10.);
#408=VECTOR('',#1419,10.);
#409=VECTOR('',#1420,10.);
#410=VECTOR('',#1421,10.);
#411=VECTOR('',#1424,10.);
#412=VECTOR('',#1425,10.);
#413=VECTOR('',#1428,3.5);
#414=VECTOR('',#1437,10.);
#415=VECTOR('',#1438,10.);
#416=VECTOR('',#1441,10.);
#417=VECTOR('',#1442,10.);
#418=VECTOR('',#1445,10.);
#419=VECTOR('',#1448,1.6);
#420=VECTOR('',#1451,1.6);
#421=VECTOR('',#1454,1.6);
#422=VECTOR('',#1457,1.6);
#423=VECTOR('',#1460,10.);
#424=VECTOR('',#1463,10.);
#425=VECTOR('',#1466,10.);
#426=VECTOR('',#1471,10.);
#427=VECTOR('',#1472,10.);
#428=VECTOR('',#1473,10.);
#429=VECTOR('',#1474,10.);
#430=VECTOR('',#1475,10.);
#431=VECTOR('',#1476,10.);
#432=VECTOR('',#1477,10.);
#433=VECTOR('',#1480,10.);
#434=VECTOR('',#1481,10.);
#435=VECTOR('',#1482,10.);
#436=VECTOR('',#1485,10.);
#437=VECTOR('',#1486,10.);
#438=VECTOR('',#1487,10.);
#439=VECTOR('',#1488,10.);
#440=VECTOR('',#1489,10.);
#441=VECTOR('',#1490,10.);
#442=VECTOR('',#1493,10.);
#443=VECTOR('',#1496,10.);
#444=VECTOR('',#1499,1.6);
#445=VECTOR('',#1502,1.6);
#446=VECTOR('',#1505,1.6);
#447=VECTOR('',#1508,1.6);
#448=VECTOR('',#1511,10.);
#449=VECTOR('',#1514,10.);
#450=VECTOR('',#1515,10.);
#451=VECTOR('',#1520,10.);
#452=VECTOR('',#1521,10.);
#453=VECTOR('',#1522,10.);
#454=VECTOR('',#1525,10.);
#455=VECTOR('',#1526,10.);
#456=VECTOR('',#1527,10.);
#457=VECTOR('',#1528,10.);
#458=VECTOR('',#1529,10.);
#459=VECTOR('',#1530,10.);
#460=VECTOR('',#1535,1.6);
#461=VECTOR('',#1540,1.6);
#462=VECTOR('',#1545,10.);
#463=VECTOR('',#1546,10.);
#464=VECTOR('',#1547,10.);
#465=VECTOR('',#1550,10.);
#466=VECTOR('',#1551,10.);
#467=VECTOR('',#1554,10.);
#468=VECTOR('',#1555,10.);
#469=VECTOR('',#1558,10.);
#470=VECTOR('',#1561,10.);
#471=VECTOR('',#1562,10.);
#472=VECTOR('',#1565,10.);
#473=VECTOR('',#1570,10.);
#474=VECTOR('',#1571,10.);
#475=VECTOR('',#1572,10.);
#476=VECTOR('',#1575,10.);
#477=VECTOR('',#1576,10.);
#478=VECTOR('',#1579,10.);
#479=VECTOR('',#1580,10.);
#480=VECTOR('',#1583,10.);
#481=VECTOR('',#1586,10.);
#482=VECTOR('',#1587,10.);
#483=VECTOR('',#1588,10.);
#484=VECTOR('',#1591,10.);
#485=VECTOR('',#1592,10.);
#486=ELLIPSE('',#1208,29.2380440016309,10.);
#487=ELLIPSE('',#1228,10.6417777247591,10.);
#488=VERTEX_POINT('',#1599);
#489=VERTEX_POINT('',#1600);
#490=VERTEX_POINT('',#1602);
#491=VERTEX_POINT('',#1604);
#492=VERTEX_POINT('',#1608);
#493=VERTEX_POINT('',#1610);
#494=VERTEX_POINT('',#1612);
#495=VERTEX_POINT('',#1614);
#496=VERTEX_POINT('',#1616);
#497=VERTEX_POINT('',#1618);
#498=VERTEX_POINT('',#1620);
#499=VERTEX_POINT('',#1622);
#500=VERTEX_POINT('',#1624);
#501=VERTEX_POINT('',#1626);
#502=VERTEX_POINT('',#1628);
#503=VERTEX_POINT('',#1630);
#504=VERTEX_POINT('',#1632);
#505=VERTEX_POINT('',#1634);
#506=VERTEX_POINT('',#1636);
#507=VERTEX_POINT('',#1638);
#508=VERTEX_POINT('',#1640);
#509=VERTEX_POINT('',#1642);
#510=VERTEX_POINT('',#1644);
#511=VERTEX_POINT('',#1647);
#512=VERTEX_POINT('',#1649);
#513=VERTEX_POINT('',#1651);
#514=VERTEX_POINT('',#1653);
#515=VERTEX_POINT('',#1655);
#516=VERTEX_POINT('',#1657);
#517=VERTEX_POINT('',#1659);
#518=VERTEX_POINT('',#1661);
#519=VERTEX_POINT('',#1664);
#520=VERTEX_POINT('',#1666);
#521=VERTEX_POINT('',#1670);
#522=VERTEX_POINT('',#1672);
#523=VERTEX_POINT('',#1676);
#524=VERTEX_POINT('',#1678);
#525=VERTEX_POINT('',#1682);
#526=VERTEX_POINT('',#1683);
#527=VERTEX_POINT('',#1685);
#528=VERTEX_POINT('',#1687);
#529=VERTEX_POINT('',#1691);
#530=VERTEX_POINT('',#1692);
#531=VERTEX_POINT('',#1694);
#532=VERTEX_POINT('',#1696);
#533=VERTEX_POINT('',#1701);
#534=VERTEX_POINT('',#1705);
#535=VERTEX_POINT('',#1707);
#536=VERTEX_POINT('',#1709);
#537=VERTEX_POINT('',#1712);
#538=VERTEX_POINT('',#1714);
#539=VERTEX_POINT('',#1717);
#540=VERTEX_POINT('',#1719);
#541=VERTEX_POINT('',#1721);
#542=VERTEX_POINT('',#1723);
#543=VERTEX_POINT('',#1725);
#544=VERTEX_POINT('',#1727);
#545=VERTEX_POINT('',#1729);
#546=VERTEX_POINT('',#1731);
#547=VERTEX_POINT('',#1733);
#548=VERTEX_POINT('',#1736);
#549=VERTEX_POINT('',#1738);
#550=VERTEX_POINT('',#1742);
#551=VERTEX_POINT('',#1744);
#552=VERTEX_POINT('',#1746);
#553=VERTEX_POINT('',#1748);
#554=VERTEX_POINT('',#1750);
#555=VERTEX_POINT('',#1754);
#556=VERTEX_POINT('',#1758);
#557=VERTEX_POINT('',#1784);
#558=VERTEX_POINT('',#1786);
#559=VERTEX_POINT('',#1789);
#560=VERTEX_POINT('',#1790);
#561=VERTEX_POINT('',#1792);
#562=VERTEX_POINT('',#1794);
#563=VERTEX_POINT('',#1798);
#564=VERTEX_POINT('',#1800);
#565=VERTEX_POINT('',#1804);
#566=VERTEX_POINT('',#1806);
#567=VERTEX_POINT('',#1808);
#568=VERTEX_POINT('',#1810);
#569=VERTEX_POINT('',#1812);
#570=VERTEX_POINT('',#1834);
#571=VERTEX_POINT('',#1836);
#572=VERTEX_POINT('',#1840);
#573=VERTEX_POINT('',#1843);
#574=VERTEX_POINT('',#1844);
#575=VERTEX_POINT('',#1846);
#576=VERTEX_POINT('',#1848);
#577=VERTEX_POINT('',#1852);
#578=VERTEX_POINT('',#1856);
#579=VERTEX_POINT('',#1858);
#580=VERTEX_POINT('',#1862);
#581=VERTEX_POINT('',#1864);
#582=VERTEX_POINT('',#1868);
#583=VERTEX_POINT('',#1872);
#584=VERTEX_POINT('',#1878);
#585=VERTEX_POINT('',#1885);
#586=VERTEX_POINT('',#1887);
#587=VERTEX_POINT('',#1891);
#588=VERTEX_POINT('',#1895);
#589=VERTEX_POINT('',#1901);
#590=VERTEX_POINT('',#1903);
#591=EDGE_CURVE('',#488,#489,#486,.T.);
#592=EDGE_CURVE('',#490,#488,#244,.T.);
#593=EDGE_CURVE('',#491,#490,#212,.T.);
#594=EDGE_CURVE('',#489,#491,#245,.T.);
#595=EDGE_CURVE('',#492,#488,#246,.T.);
#596=EDGE_CURVE('',#492,#493,#213,.T.);
#597=EDGE_CURVE('',#494,#493,#247,.T.);
#598=EDGE_CURVE('',#495,#494,#248,.T.);
#599=EDGE_CURVE('',#496,#495,#249,.T.);
#600=EDGE_CURVE('',#496,#497,#250,.T.);
#601=EDGE_CURVE('',#497,#498,#251,.T.);
#602=EDGE_CURVE('',#498,#499,#252,.T.);
#603=EDGE_CURVE('',#499,#500,#253,.T.);
#604=EDGE_CURVE('',#501,#500,#254,.T.);
#605=EDGE_CURVE('',#502,#501,#255,.T.);
#606=EDGE_CURVE('',#502,#503,#214,.T.);
#607=EDGE_CURVE('',#504,#503,#256,.T.);
#608=EDGE_CURVE('',#505,#504,#257,.T.);
#609=EDGE_CURVE('',#506,#505,#258,.T.);
#610=EDGE_CURVE('',#507,#506,#259,.T.);
#611=EDGE_CURVE('',#508,#507,#260,.T.);
#612=EDGE_CURVE('',#508,#509,#261,.T.);
#613=EDGE_CURVE('',#509,#510,#262,.T.);
#614=EDGE_CURVE('',#510,#490,#263,.T.);
#615=EDGE_CURVE('',#511,#511,#215,.T.);
#616=EDGE_CURVE('',#512,#512,#216,.T.);
#617=EDGE_CURVE('',#513,#513,#217,.T.);
#618=EDGE_CURVE('',#514,#514,#218,.T.);
#619=EDGE_CURVE('',#515,#515,#219,.T.);
#620=EDGE_CURVE('',#516,#516,#220,.T.);
#621=EDGE_CURVE('',#517,#517,#221,.T.);
#622=EDGE_CURVE('',#518,#518,#222,.T.);
#623=EDGE_CURVE('',#519,#509,#223,.T.);
#624=EDGE_CURVE('',#520,#519,#264,.T.);
#625=EDGE_CURVE('',#510,#520,#224,.T.);
#626=EDGE_CURVE('',#521,#498,#225,.T.);
#627=EDGE_CURVE('',#522,#521,#265,.T.);
#628=EDGE_CURVE('',#499,#522,#226,.T.);
#629=EDGE_CURVE('',#523,#496,#487,.T.);
#630=EDGE_CURVE('',#524,#523,#266,.T.);
#631=EDGE_CURVE('',#497,#524,#227,.T.);
#632=EDGE_CURVE('',#525,#526,#267,.T.);
#633=EDGE_CURVE('',#527,#525,#268,.T.);
#634=EDGE_CURVE('',#527,#528,#269,.T.);
#635=EDGE_CURVE('',#528,#526,#270,.T.);
#636=EDGE_CURVE('',#529,#530,#271,.T.);
#637=EDGE_CURVE('',#530,#531,#272,.T.);
#638=EDGE_CURVE('',#531,#532,#273,.T.);
#639=EDGE_CURVE('',#532,#505,#274,.T.);
#640=EDGE_CURVE('',#504,#529,#275,.T.);
#641=EDGE_CURVE('',#529,#533,#276,.T.);
#642=EDGE_CURVE('',#503,#533,#277,.T.);
#643=EDGE_CURVE('',#533,#534,#228,.T.);
#644=EDGE_CURVE('',#535,#534,#278,.T.);
#645=EDGE_CURVE('',#535,#536,#279,.T.);
#646=EDGE_CURVE('',#536,#527,#280,.T.);
#647=EDGE_CURVE('',#525,#537,#281,.T.);
#648=EDGE_CURVE('',#537,#538,#282,.T.);
#649=EDGE_CURVE('',#538,#530,#283,.T.);
#650=EDGE_CURVE('',#539,#539,#229,.T.);
#651=EDGE_CURVE('',#540,#540,#230,.T.);
#652=EDGE_CURVE('',#541,#541,#231,.T.);
#653=EDGE_CURVE('',#542,#542,#232,.T.);
#654=EDGE_CURVE('',#543,#543,#233,.T.);
#655=EDGE_CURVE('',#544,#544,#234,.T.);
#656=EDGE_CURVE('',#545,#545,#235,.T.);
#657=EDGE_CURVE('',#546,#546,#236,.T.);
#658=EDGE_CURVE('',#547,#547,#237,.T.);
#659=EDGE_CURVE('',#548,#531,#284,.T.);
#660=EDGE_CURVE('',#549,#548,#285,.T.);
#661=EDGE_CURVE('',#532,#549,#286,.T.);
#662=EDGE_CURVE('',#526,#550,#287,.T.);
#663=EDGE_CURVE('',#551,#528,#288,.T.);
#664=EDGE_CURVE('',#552,#551,#289,.T.);
#665=EDGE_CURVE('',#552,#553,#238,.T.);
#666=EDGE_CURVE('',#554,#553,#290,.T.);
#667=EDGE_CURVE('',#550,#554,#291,.T.);
#668=EDGE_CURVE('',#547,#555,#292,.T.);
#669=EDGE_CURVE('',#555,#555,#239,.T.);
#670=EDGE_CURVE('',#556,#556,#240,.T.);
#671=EDGE_CURVE('',#493,#552,#293,.T.);
#672=EDGE_CURVE('',#553,#492,#294,.T.);
#673=EDGE_CURVE('',#508,#489,#295,.T.);
#674=EDGE_CURVE('',#554,#507,#296,.T.);
#675=EDGE_CURVE('',#534,#502,#297,.T.);
#676=EDGE_CURVE('',#539,#511,#298,.T.);
#677=EDGE_CURVE('',#540,#512,#299,.T.);
#678=EDGE_CURVE('',#541,#513,#300,.T.);
#679=EDGE_CURVE('',#542,#514,#301,.T.);
#680=EDGE_CURVE('',#550,#537,#302,.T.);
#681=EDGE_CURVE('',#538,#548,#303,.T.);
#682=EDGE_CURVE('',#549,#506,#304,.T.);
#683=EDGE_CURVE('',#557,#520,#305,.T.);
#684=EDGE_CURVE('',#557,#558,#306,.T.);
#685=EDGE_CURVE('',#558,#491,#307,.T.);
#686=EDGE_CURVE('',#559,#560,#308,.T.);
#687=EDGE_CURVE('',#561,#559,#309,.T.);
#688=EDGE_CURVE('',#562,#561,#310,.T.);
#689=EDGE_CURVE('',#560,#562,#311,.T.);
#690=EDGE_CURVE('',#501,#563,#312,.T.);
#691=EDGE_CURVE('',#500,#564,#313,.T.);
#692=EDGE_CURVE('',#564,#563,#314,.T.);
#693=EDGE_CURVE('',#563,#565,#315,.T.);
#694=EDGE_CURVE('',#566,#564,#316,.T.);
#695=EDGE_CURVE('',#567,#566,#317,.T.);
#696=EDGE_CURVE('',#568,#567,#318,.T.);
#697=EDGE_CURVE('',#569,#568,#319,.T.);
#698=EDGE_CURVE('',#565,#569,#320,.T.);
#699=EDGE_CURVE('',#565,#535,#321,.T.);
#700=EDGE_CURVE('',#551,#494,#322,.T.);
#701=EDGE_CURVE('',#546,#518,#323,.T.);
#702=EDGE_CURVE('',#545,#517,#324,.T.);
#703=EDGE_CURVE('',#544,#516,#325,.T.);
#704=EDGE_CURVE('',#543,#515,#326,.T.);
#705=EDGE_CURVE('',#569,#536,#327,.T.);
#706=EDGE_CURVE('',#567,#523,#328,.T.);
#707=EDGE_CURVE('',#568,#495,#329,.T.);
#708=EDGE_CURVE('',#521,#570,#330,.T.);
#709=EDGE_CURVE('',#571,#570,#331,.T.);
#710=EDGE_CURVE('',#571,#522,#332,.T.);
#711=EDGE_CURVE('',#571,#572,#333,.T.);
#712=EDGE_CURVE('',#572,#566,#334,.T.);
#713=EDGE_CURVE('',#573,#574,#335,.T.);
#714=EDGE_CURVE('',#574,#575,#336,.T.);
#715=EDGE_CURVE('',#575,#576,#337,.T.);
#716=EDGE_CURVE('',#576,#573,#338,.T.);
#717=EDGE_CURVE('',#577,#577,#241,.T.);
#718=EDGE_CURVE('',#577,#556,#339,.T.);
#719=EDGE_CURVE('',#578,#578,#242,.T.);
#720=EDGE_CURVE('',#578,#579,#340,.T.);
#721=EDGE_CURVE('',#579,#579,#243,.T.);
#722=EDGE_CURVE('',#576,#580,#341,.T.);
#723=EDGE_CURVE('',#580,#581,#342,.T.);
#724=EDGE_CURVE('',#573,#581,#343,.T.);
#725=EDGE_CURVE('',#575,#582,#344,.T.);
#726=EDGE_CURVE('',#582,#580,#345,.T.);
#727=EDGE_CURVE('',#574,#583,#346,.T.);
#728=EDGE_CURVE('',#583,#582,#347,.T.);
#729=EDGE_CURVE('',#581,#583,#348,.T.);
#730=EDGE_CURVE('',#572,#584,#349,.T.);
#731=EDGE_CURVE('',#584,#524,#350,.T.);
#732=EDGE_CURVE('',#570,#584,#351,.T.);
#733=EDGE_CURVE('',#585,#561,#352,.T.);
#734=EDGE_CURVE('',#585,#586,#353,.T.);
#735=EDGE_CURVE('',#586,#562,#354,.T.);
#736=EDGE_CURVE('',#587,#559,#355,.T.);
#737=EDGE_CURVE('',#587,#585,#356,.T.);
#738=EDGE_CURVE('',#588,#560,#357,.T.);
#739=EDGE_CURVE('',#588,#587,#358,.T.);
#740=EDGE_CURVE('',#586,#588,#359,.T.);
#741=EDGE_CURVE('',#589,#557,#360,.T.);
#742=EDGE_CURVE('',#589,#590,#361,.T.);
#743=EDGE_CURVE('',#590,#558,#362,.T.);
#744=EDGE_CURVE('',#489,#590,#363,.T.);
#745=EDGE_CURVE('',#519,#589,#364,.T.);
#746=ORIENTED_EDGE('',*,*,#591,.F.);
#747=ORIENTED_EDGE('',*,*,#592,.F.);
#748=ORIENTED_EDGE('',*,*,#593,.F.);
#749=ORIENTED_EDGE('',*,*,#594,.F.);
#750=ORIENTED_EDGE('',*,*,#592,.T.);
#751=ORIENTED_EDGE('',*,*,#595,.F.);
#752=ORIENTED_EDGE('',*,*,#596,.T.);
#753=ORIENTED_EDGE('',*,*,#597,.F.);
#754=ORIENTED_EDGE('',*,*,#598,.F.);
#755=ORIENTED_EDGE('',*,*,#599,.F.);
#756=ORIENTED_EDGE('',*,*,#600,.T.);
#757=ORIENTED_EDGE('',*,*,#601,.T.);
#758=ORIENTED_EDGE('',*,*,#602,.T.);
#759=ORIENTED_EDGE('',*,*,#603,.T.);
#760=ORIENTED_EDGE('',*,*,#604,.F.);
#761=ORIENTED_EDGE('',*,*,#605,.F.);
#762=ORIENTED_EDGE('',*,*,#606,.T.);
#763=ORIENTED_EDGE('',*,*,#607,.F.);
#764=ORIENTED_EDGE('',*,*,#608,.F.);
#765=ORIENTED_EDGE('',*,*,#609,.F.);
#766=ORIENTED_EDGE('',*,*,#610,.F.);
#767=ORIENTED_EDGE('',*,*,#611,.F.);
#768=ORIENTED_EDGE('',*,*,#612,.T.);
#769=ORIENTED_EDGE('',*,*,#613,.T.);
#770=ORIENTED_EDGE('',*,*,#614,.T.);
#771=ORIENTED_EDGE('',*,*,#615,.F.);
#772=ORIENTED_EDGE('',*,*,#616,.F.);
#773=ORIENTED_EDGE('',*,*,#617,.F.);
#774=ORIENTED_EDGE('',*,*,#618,.F.);
#775=ORIENTED_EDGE('',*,*,#619,.F.);
#776=ORIENTED_EDGE('',*,*,#620,.F.);
#777=ORIENTED_EDGE('',*,*,#621,.F.);
#778=ORIENTED_EDGE('',*,*,#622,.F.);
#779=ORIENTED_EDGE('',*,*,#623,.F.);
#780=ORIENTED_EDGE('',*,*,#624,.F.);
#781=ORIENTED_EDGE('',*,*,#625,.F.);
#782=ORIENTED_EDGE('',*,*,#613,.F.);
#783=ORIENTED_EDGE('',*,*,#626,.F.);
#784=ORIENTED_EDGE('',*,*,#627,.F.);
#785=ORIENTED_EDGE('',*,*,#628,.F.);
#786=ORIENTED_EDGE('',*,*,#602,.F.);
#787=ORIENTED_EDGE('',*,*,#629,.F.);
#788=ORIENTED_EDGE('',*,*,#630,.F.);
#789=ORIENTED_EDGE('',*,*,#631,.F.);
#790=ORIENTED_EDGE('',*,*,#600,.F.);
#791=ORIENTED_EDGE('',*,*,#632,.F.);
#792=ORIENTED_EDGE('',*,*,#633,.F.);
#793=ORIENTED_EDGE('',*,*,#634,.T.);
#794=ORIENTED_EDGE('',*,*,#635,.T.);
#795=ORIENTED_EDGE('',*,*,#636,.T.);
#796=ORIENTED_EDGE('',*,*,#637,.T.);
#797=ORIENTED_EDGE('',*,*,#638,.T.);
#798=ORIENTED_EDGE('',*,*,#639,.T.);
#799=ORIENTED_EDGE('',*,*,#608,.T.);
#800=ORIENTED_EDGE('',*,*,#640,.T.);
#801=ORIENTED_EDGE('',*,*,#641,.F.);
#802=ORIENTED_EDGE('',*,*,#640,.F.);
#803=ORIENTED_EDGE('',*,*,#607,.T.);
#804=ORIENTED_EDGE('',*,*,#642,.T.);
#805=ORIENTED_EDGE('',*,*,#641,.T.);
#806=ORIENTED_EDGE('',*,*,#643,.T.);
#807=ORIENTED_EDGE('',*,*,#644,.F.);
#808=ORIENTED_EDGE('',*,*,#645,.T.);
#809=ORIENTED_EDGE('',*,*,#646,.T.);
#810=ORIENTED_EDGE('',*,*,#633,.T.);
#811=ORIENTED_EDGE('',*,*,#647,.T.);
#812=ORIENTED_EDGE('',*,*,#648,.T.);
#813=ORIENTED_EDGE('',*,*,#649,.T.);
#814=ORIENTED_EDGE('',*,*,#636,.F.);
#815=ORIENTED_EDGE('',*,*,#650,.F.);
#816=ORIENTED_EDGE('',*,*,#651,.F.);
#817=ORIENTED_EDGE('',*,*,#652,.F.);
#818=ORIENTED_EDGE('',*,*,#653,.F.);
#819=ORIENTED_EDGE('',*,*,#654,.F.);
#820=ORIENTED_EDGE('',*,*,#655,.F.);
#821=ORIENTED_EDGE('',*,*,#656,.F.);
#822=ORIENTED_EDGE('',*,*,#657,.F.);
#823=ORIENTED_EDGE('',*,*,#658,.F.);
#824=ORIENTED_EDGE('',*,*,#638,.F.);
#825=ORIENTED_EDGE('',*,*,#659,.F.);
#826=ORIENTED_EDGE('',*,*,#660,.F.);
#827=ORIENTED_EDGE('',*,*,#661,.F.);
#828=ORIENTED_EDGE('',*,*,#662,.F.);
#829=ORIENTED_EDGE('',*,*,#635,.F.);
#830=ORIENTED_EDGE('',*,*,#663,.F.);
#831=ORIENTED_EDGE('',*,*,#664,.F.);
#832=ORIENTED_EDGE('',*,*,#665,.T.);
#833=ORIENTED_EDGE('',*,*,#666,.F.);
#834=ORIENTED_EDGE('',*,*,#667,.F.);
#835=ORIENTED_EDGE('',*,*,#658,.T.);
#836=ORIENTED_EDGE('',*,*,#668,.T.);
#837=ORIENTED_EDGE('',*,*,#669,.F.);
#838=ORIENTED_EDGE('',*,*,#668,.F.);
#839=ORIENTED_EDGE('',*,*,#669,.T.);
#840=ORIENTED_EDGE('',*,*,#670,.T.);
#841=ORIENTED_EDGE('',*,*,#665,.F.);
#842=ORIENTED_EDGE('',*,*,#671,.F.);
#843=ORIENTED_EDGE('',*,*,#596,.F.);
#844=ORIENTED_EDGE('',*,*,#672,.F.);
#845=ORIENTED_EDGE('',*,*,#672,.T.);
#846=ORIENTED_EDGE('',*,*,#595,.T.);
#847=ORIENTED_EDGE('',*,*,#591,.T.);
#848=ORIENTED_EDGE('',*,*,#673,.F.);
#849=ORIENTED_EDGE('',*,*,#611,.T.);
#850=ORIENTED_EDGE('',*,*,#674,.F.);
#851=ORIENTED_EDGE('',*,*,#666,.T.);
#852=ORIENTED_EDGE('',*,*,#642,.F.);
#853=ORIENTED_EDGE('',*,*,#606,.F.);
#854=ORIENTED_EDGE('',*,*,#675,.F.);
#855=ORIENTED_EDGE('',*,*,#643,.F.);
#856=ORIENTED_EDGE('',*,*,#650,.T.);
#857=ORIENTED_EDGE('',*,*,#676,.T.);
#858=ORIENTED_EDGE('',*,*,#615,.T.);
#859=ORIENTED_EDGE('',*,*,#676,.F.);
#860=ORIENTED_EDGE('',*,*,#651,.T.);
#861=ORIENTED_EDGE('',*,*,#677,.T.);
#862=ORIENTED_EDGE('',*,*,#616,.T.);
#863=ORIENTED_EDGE('',*,*,#677,.F.);
#864=ORIENTED_EDGE('',*,*,#652,.T.);
#865=ORIENTED_EDGE('',*,*,#678,.T.);
#866=ORIENTED_EDGE('',*,*,#617,.T.);
#867=ORIENTED_EDGE('',*,*,#678,.F.);
#868=ORIENTED_EDGE('',*,*,#653,.T.);
#869=ORIENTED_EDGE('',*,*,#679,.T.);
#870=ORIENTED_EDGE('',*,*,#618,.T.);
#871=ORIENTED_EDGE('',*,*,#679,.F.);
#872=ORIENTED_EDGE('',*,*,#662,.T.);
#873=ORIENTED_EDGE('',*,*,#680,.T.);
#874=ORIENTED_EDGE('',*,*,#647,.F.);
#875=ORIENTED_EDGE('',*,*,#632,.T.);
#876=ORIENTED_EDGE('',*,*,#637,.F.);
#877=ORIENTED_EDGE('',*,*,#649,.F.);
#878=ORIENTED_EDGE('',*,*,#681,.T.);
#879=ORIENTED_EDGE('',*,*,#659,.T.);
#880=ORIENTED_EDGE('',*,*,#639,.F.);
#881=ORIENTED_EDGE('',*,*,#661,.T.);
#882=ORIENTED_EDGE('',*,*,#682,.T.);
#883=ORIENTED_EDGE('',*,*,#609,.T.);
#884=ORIENTED_EDGE('',*,*,#681,.F.);
#885=ORIENTED_EDGE('',*,*,#648,.F.);
#886=ORIENTED_EDGE('',*,*,#680,.F.);
#887=ORIENTED_EDGE('',*,*,#667,.T.);
#888=ORIENTED_EDGE('',*,*,#674,.T.);
#889=ORIENTED_EDGE('',*,*,#610,.T.);
#890=ORIENTED_EDGE('',*,*,#682,.F.);
#891=ORIENTED_EDGE('',*,*,#660,.T.);
#892=ORIENTED_EDGE('',*,*,#614,.F.);
#893=ORIENTED_EDGE('',*,*,#625,.T.);
#894=ORIENTED_EDGE('',*,*,#683,.F.);
#895=ORIENTED_EDGE('',*,*,#684,.T.);
#896=ORIENTED_EDGE('',*,*,#685,.T.);
#897=ORIENTED_EDGE('',*,*,#593,.T.);
#898=ORIENTED_EDGE('',*,*,#686,.F.);
#899=ORIENTED_EDGE('',*,*,#687,.F.);
#900=ORIENTED_EDGE('',*,*,#688,.F.);
#901=ORIENTED_EDGE('',*,*,#689,.F.);
#902=ORIENTED_EDGE('',*,*,#690,.F.);
#903=ORIENTED_EDGE('',*,*,#604,.T.);
#904=ORIENTED_EDGE('',*,*,#691,.T.);
#905=ORIENTED_EDGE('',*,*,#692,.T.);
#906=ORIENTED_EDGE('',*,*,#693,.F.);
#907=ORIENTED_EDGE('',*,*,#692,.F.);
#908=ORIENTED_EDGE('',*,*,#694,.F.);
#909=ORIENTED_EDGE('',*,*,#695,.F.);
#910=ORIENTED_EDGE('',*,*,#696,.F.);
#911=ORIENTED_EDGE('',*,*,#697,.F.);
#912=ORIENTED_EDGE('',*,*,#698,.F.);
#913=ORIENTED_EDGE('',*,*,#675,.T.);
#914=ORIENTED_EDGE('',*,*,#605,.T.);
#915=ORIENTED_EDGE('',*,*,#690,.T.);
#916=ORIENTED_EDGE('',*,*,#693,.T.);
#917=ORIENTED_EDGE('',*,*,#699,.T.);
#918=ORIENTED_EDGE('',*,*,#644,.T.);
#919=ORIENTED_EDGE('',*,*,#671,.T.);
#920=ORIENTED_EDGE('',*,*,#664,.T.);
#921=ORIENTED_EDGE('',*,*,#700,.T.);
#922=ORIENTED_EDGE('',*,*,#597,.T.);
#923=ORIENTED_EDGE('',*,*,#657,.T.);
#924=ORIENTED_EDGE('',*,*,#701,.T.);
#925=ORIENTED_EDGE('',*,*,#622,.T.);
#926=ORIENTED_EDGE('',*,*,#701,.F.);
#927=ORIENTED_EDGE('',*,*,#656,.T.);
#928=ORIENTED_EDGE('',*,*,#702,.T.);
#929=ORIENTED_EDGE('',*,*,#621,.T.);
#930=ORIENTED_EDGE('',*,*,#702,.F.);
#931=ORIENTED_EDGE('',*,*,#655,.T.);
#932=ORIENTED_EDGE('',*,*,#703,.T.);
#933=ORIENTED_EDGE('',*,*,#620,.T.);
#934=ORIENTED_EDGE('',*,*,#703,.F.);
#935=ORIENTED_EDGE('',*,*,#654,.T.);
#936=ORIENTED_EDGE('',*,*,#704,.T.);
#937=ORIENTED_EDGE('',*,*,#619,.T.);
#938=ORIENTED_EDGE('',*,*,#704,.F.);
#939=ORIENTED_EDGE('',*,*,#699,.F.);
#940=ORIENTED_EDGE('',*,*,#698,.T.);
#941=ORIENTED_EDGE('',*,*,#705,.T.);
#942=ORIENTED_EDGE('',*,*,#645,.F.);
#943=ORIENTED_EDGE('',*,*,#706,.T.);
#944=ORIENTED_EDGE('',*,*,#629,.T.);
#945=ORIENTED_EDGE('',*,*,#599,.T.);
#946=ORIENTED_EDGE('',*,*,#707,.F.);
#947=ORIENTED_EDGE('',*,*,#696,.T.);
#948=ORIENTED_EDGE('',*,*,#634,.F.);
#949=ORIENTED_EDGE('',*,*,#646,.F.);
#950=ORIENTED_EDGE('',*,*,#705,.F.);
#951=ORIENTED_EDGE('',*,*,#697,.T.);
#952=ORIENTED_EDGE('',*,*,#707,.T.);
#953=ORIENTED_EDGE('',*,*,#598,.T.);
#954=ORIENTED_EDGE('',*,*,#700,.F.);
#955=ORIENTED_EDGE('',*,*,#663,.T.);
#956=ORIENTED_EDGE('',*,*,#627,.T.);
#957=ORIENTED_EDGE('',*,*,#708,.T.);
#958=ORIENTED_EDGE('',*,*,#709,.F.);
#959=ORIENTED_EDGE('',*,*,#710,.T.);
#960=ORIENTED_EDGE('',*,*,#603,.F.);
#961=ORIENTED_EDGE('',*,*,#628,.T.);
#962=ORIENTED_EDGE('',*,*,#710,.F.);
#963=ORIENTED_EDGE('',*,*,#711,.T.);
#964=ORIENTED_EDGE('',*,*,#712,.T.);
#965=ORIENTED_EDGE('',*,*,#694,.T.);
#966=ORIENTED_EDGE('',*,*,#691,.F.);
#967=ORIENTED_EDGE('',*,*,#713,.T.);
#968=ORIENTED_EDGE('',*,*,#714,.T.);
#969=ORIENTED_EDGE('',*,*,#715,.T.);
#970=ORIENTED_EDGE('',*,*,#716,.T.);
#971=ORIENTED_EDGE('',*,*,#717,.T.);
#972=ORIENTED_EDGE('',*,*,#718,.T.);
#973=ORIENTED_EDGE('',*,*,#670,.F.);
#974=ORIENTED_EDGE('',*,*,#718,.F.);
#975=ORIENTED_EDGE('',*,*,#719,.T.);
#976=ORIENTED_EDGE('',*,*,#720,.T.);
#977=ORIENTED_EDGE('',*,*,#721,.T.);
#978=ORIENTED_EDGE('',*,*,#720,.F.);
#979=ORIENTED_EDGE('',*,*,#716,.F.);
#980=ORIENTED_EDGE('',*,*,#722,.T.);
#981=ORIENTED_EDGE('',*,*,#723,.T.);
#982=ORIENTED_EDGE('',*,*,#724,.F.);
#983=ORIENTED_EDGE('',*,*,#721,.F.);
#984=ORIENTED_EDGE('',*,*,#715,.F.);
#985=ORIENTED_EDGE('',*,*,#725,.T.);
#986=ORIENTED_EDGE('',*,*,#726,.T.);
#987=ORIENTED_EDGE('',*,*,#722,.F.);
#988=ORIENTED_EDGE('',*,*,#714,.F.);
#989=ORIENTED_EDGE('',*,*,#727,.T.);
#990=ORIENTED_EDGE('',*,*,#728,.T.);
#991=ORIENTED_EDGE('',*,*,#725,.F.);
#992=ORIENTED_EDGE('',*,*,#717,.F.);
#993=ORIENTED_EDGE('',*,*,#713,.F.);
#994=ORIENTED_EDGE('',*,*,#724,.T.);
#995=ORIENTED_EDGE('',*,*,#729,.T.);
#996=ORIENTED_EDGE('',*,*,#727,.F.);
#997=ORIENTED_EDGE('',*,*,#630,.T.);
#998=ORIENTED_EDGE('',*,*,#706,.F.);
#999=ORIENTED_EDGE('',*,*,#695,.T.);
#1000=ORIENTED_EDGE('',*,*,#712,.F.);
#1001=ORIENTED_EDGE('',*,*,#730,.T.);
#1002=ORIENTED_EDGE('',*,*,#731,.T.);
#1003=ORIENTED_EDGE('',*,*,#711,.F.);
#1004=ORIENTED_EDGE('',*,*,#709,.T.);
#1005=ORIENTED_EDGE('',*,*,#732,.T.);
#1006=ORIENTED_EDGE('',*,*,#730,.F.);
#1007=ORIENTED_EDGE('',*,*,#719,.F.);
#1008=ORIENTED_EDGE('',*,*,#732,.F.);
#1009=ORIENTED_EDGE('',*,*,#708,.F.);
#1010=ORIENTED_EDGE('',*,*,#626,.T.);
#1011=ORIENTED_EDGE('',*,*,#601,.F.);
#1012=ORIENTED_EDGE('',*,*,#631,.T.);
#1013=ORIENTED_EDGE('',*,*,#731,.F.);
#1014=ORIENTED_EDGE('',*,*,#729,.F.);
#1015=ORIENTED_EDGE('',*,*,#723,.F.);
#1016=ORIENTED_EDGE('',*,*,#726,.F.);
#1017=ORIENTED_EDGE('',*,*,#728,.F.);
#1018=ORIENTED_EDGE('',*,*,#688,.T.);
#1019=ORIENTED_EDGE('',*,*,#733,.F.);
#1020=ORIENTED_EDGE('',*,*,#734,.T.);
#1021=ORIENTED_EDGE('',*,*,#735,.T.);
#1022=ORIENTED_EDGE('',*,*,#687,.T.);
#1023=ORIENTED_EDGE('',*,*,#736,.F.);
#1024=ORIENTED_EDGE('',*,*,#737,.T.);
#1025=ORIENTED_EDGE('',*,*,#733,.T.);
#1026=ORIENTED_EDGE('',*,*,#686,.T.);
#1027=ORIENTED_EDGE('',*,*,#738,.F.);
#1028=ORIENTED_EDGE('',*,*,#739,.T.);
#1029=ORIENTED_EDGE('',*,*,#736,.T.);
#1030=ORIENTED_EDGE('',*,*,#689,.T.);
#1031=ORIENTED_EDGE('',*,*,#735,.F.);
#1032=ORIENTED_EDGE('',*,*,#740,.T.);
#1033=ORIENTED_EDGE('',*,*,#738,.T.);
#1034=ORIENTED_EDGE('',*,*,#741,.F.);
#1035=ORIENTED_EDGE('',*,*,#742,.T.);
#1036=ORIENTED_EDGE('',*,*,#743,.T.);
#1037=ORIENTED_EDGE('',*,*,#684,.F.);
#1038=ORIENTED_EDGE('',*,*,#612,.F.);
#1039=ORIENTED_EDGE('',*,*,#673,.T.);
#1040=ORIENTED_EDGE('',*,*,#744,.T.);
#1041=ORIENTED_EDGE('',*,*,#742,.F.);
#1042=ORIENTED_EDGE('',*,*,#745,.F.);
#1043=ORIENTED_EDGE('',*,*,#623,.T.);
#1044=ORIENTED_EDGE('',*,*,#739,.F.);
#1045=ORIENTED_EDGE('',*,*,#740,.F.);
#1046=ORIENTED_EDGE('',*,*,#734,.F.);
#1047=ORIENTED_EDGE('',*,*,#737,.F.);
#1048=ORIENTED_EDGE('',*,*,#594,.T.);
#1049=ORIENTED_EDGE('',*,*,#685,.F.);
#1050=ORIENTED_EDGE('',*,*,#743,.F.);
#1051=ORIENTED_EDGE('',*,*,#744,.F.);
#1052=ORIENTED_EDGE('',*,*,#624,.T.);
#1053=ORIENTED_EDGE('',*,*,#745,.T.);
#1054=ORIENTED_EDGE('',*,*,#741,.T.);
#1055=ORIENTED_EDGE('',*,*,#683,.T.);
#1056=CYLINDRICAL_SURFACE('',#1207,10.);
#1057=CYLINDRICAL_SURFACE('',#1221,10.);
#1058=CYLINDRICAL_SURFACE('',#1224,10.);
#1059=CYLINDRICAL_SURFACE('',#1227,10.);
#1060=CYLINDRICAL_SURFACE('',#1247,3.5);
#1061=CYLINDRICAL_SURFACE('',#1251,20.);
#1062=CYLINDRICAL_SURFACE('',#1253,20.);
#1063=CYLINDRICAL_SURFACE('',#1254,1.6);
#1064=CYLINDRICAL_SURFACE('',#1255,1.6);
#1065=CYLINDRICAL_SURFACE('',#1256,1.6);
#1066=CYLINDRICAL_SURFACE('',#1257,1.6);
#1067=CYLINDRICAL_SURFACE('',#1267,1.6);
#1068=CYLINDRICAL_SURFACE('',#1268,1.6);
#1069=CYLINDRICAL_SURFACE('',#1269,1.6);
#1070=CYLINDRICAL_SURFACE('',#1270,1.6);
#1071=CYLINDRICAL_SURFACE('',#1276,1.6);
#1072=CYLINDRICAL_SURFACE('',#1278,1.6);
#1073=STYLED_ITEM('',(#1931),#1129);
#1074=STYLED_ITEM('',(#1931),#1130);
#1075=STYLED_ITEM('',(#1931),#1131);
#1076=STYLED_ITEM('',(#1931),#1132);
#1077=STYLED_ITEM('',(#1931),#1133);
#1078=STYLED_ITEM('',(#1931),#1134);
#1079=STYLED_ITEM('',(#1931),#1135);
#1080=STYLED_ITEM('',(#1931),#1136);
#1081=STYLED_ITEM('',(#1931),#1137);
#1082=STYLED_ITEM('',(#1931),#1138);
#1083=STYLED_ITEM('',(#1931),#1139);
#1084=STYLED_ITEM('',(#1931),#1140);
#1085=STYLED_ITEM('',(#1931),#1141);
#1086=STYLED_ITEM('',(#1931),#1142);
#1087=STYLED_ITEM('',(#1931),#1143);
#1088=STYLED_ITEM('',(#1931),#1144);
#1089=STYLED_ITEM('',(#1931),#1145);
#1090=STYLED_ITEM('',(#1931),#1146);
#1091=STYLED_ITEM('',(#1931),#1147);
#1092=STYLED_ITEM('',(#1931),#1148);
#1093=STYLED_ITEM('',(#1931),#1149);
#1094=STYLED_ITEM('',(#1931),#1150);
#1095=STYLED_ITEM('',(#1931),#1151);
#1096=STYLED_ITEM('',(#1931),#1152);
#1097=STYLED_ITEM('',(#1931),#1153);
#1098=STYLED_ITEM('',(#1931),#1154);
#1099=STYLED_ITEM('',(#1931),#1155);
#1100=STYLED_ITEM('',(#1931),#1156);
#1101=STYLED_ITEM('',(#1931),#1157);
#1102=STYLED_ITEM('',(#1931),#1158);
#1103=STYLED_ITEM('',(#1931),#1159);
#1104=STYLED_ITEM('',(#1931),#1160);
#1105=STYLED_ITEM('',(#1931),#1161);
#1106=STYLED_ITEM('',(#1931),#1162);
#1107=STYLED_ITEM('',(#1931),#1163);
#1108=STYLED_ITEM('',(#1931),#1164);
#1109=STYLED_ITEM('',(#1931),#1165);
#1110=STYLED_ITEM('',(#1931),#1166);
#1111=STYLED_ITEM('',(#1931),#1167);
#1112=STYLED_ITEM('',(#1931),#1168);
#1113=STYLED_ITEM('',(#1931),#1169);
#1114=STYLED_ITEM('',(#1931),#1170);
#1115=STYLED_ITEM('',(#1931),#1171);
#1116=STYLED_ITEM('',(#1931),#1172);
#1117=STYLED_ITEM('',(#1931),#1173);
#1118=STYLED_ITEM('',(#1931),#1174);
#1119=STYLED_ITEM('',(#1931),#1175);
#1120=STYLED_ITEM('',(#1931),#1176);
#1121=STYLED_ITEM('',(#1931),#1177);
#1122=STYLED_ITEM('',(#1931),#1178);
#1123=STYLED_ITEM('',(#1931),#1179);
#1124=STYLED_ITEM('',(#1931),#1180);
#1125=STYLED_ITEM('',(#1931),#1181);
#1126=STYLED_ITEM('',(#1931),#1182);
#1127=STYLED_ITEM('',(#1931),#1183);
#1128=STYLED_ITEM('',(#1930),#13);
#1129=ADVANCED_FACE('',(#77),#1056,.F.);
#1130=ADVANCED_FACE('',(#78,#14,#15,#16,#17,#18,#19,#20,#21),#39,.T.);
#1131=ADVANCED_FACE('',(#79),#1057,.F.);
#1132=ADVANCED_FACE('',(#80),#1058,.F.);
#1133=ADVANCED_FACE('',(#81),#1059,.F.);
#1134=ADVANCED_FACE('',(#82),#40,.T.);
#1135=ADVANCED_FACE('',(#83),#41,.T.);
#1136=ADVANCED_FACE('',(#84),#42,.T.);
#1137=ADVANCED_FACE('',(#85,#22,#23,#24,#25,#26,#27,#28,#29,#30),#43,.T.);
#1138=ADVANCED_FACE('',(#86),#44,.F.);
#1139=ADVANCED_FACE('',(#87),#45,.F.);
#1140=ADVANCED_FACE('',(#88),#1060,.F.);
#1141=ADVANCED_FACE('',(#89,#31),#46,.F.);
#1142=ADVANCED_FACE('',(#90),#1061,.F.);
#1143=ADVANCED_FACE('',(#91),#47,.F.);
#1144=ADVANCED_FACE('',(#92),#1062,.F.);
#1145=ADVANCED_FACE('',(#93),#1063,.F.);
#1146=ADVANCED_FACE('',(#94),#1064,.F.);
#1147=ADVANCED_FACE('',(#95),#1065,.F.);
#1148=ADVANCED_FACE('',(#96),#1066,.F.);
#1149=ADVANCED_FACE('',(#97),#48,.T.);
#1150=ADVANCED_FACE('',(#98),#49,.T.);
#1151=ADVANCED_FACE('',(#99),#50,.F.);
#1152=ADVANCED_FACE('',(#100),#51,.F.);
#1153=ADVANCED_FACE('',(#101,#32),#52,.F.);
#1154=ADVANCED_FACE('',(#102),#53,.F.);
#1155=ADVANCED_FACE('',(#103),#54,.F.);
#1156=ADVANCED_FACE('',(#104),#55,.F.);
#1157=ADVANCED_FACE('',(#105),#56,.F.);
#1158=ADVANCED_FACE('',(#106),#1067,.F.);
#1159=ADVANCED_FACE('',(#107),#1068,.F.);
#1160=ADVANCED_FACE('',(#108),#1069,.F.);
#1161=ADVANCED_FACE('',(#109),#1070,.F.);
#1162=ADVANCED_FACE('',(#110),#57,.T.);
#1163=ADVANCED_FACE('',(#111),#58,.F.);
#1164=ADVANCED_FACE('',(#112),#59,.F.);
#1165=ADVANCED_FACE('',(#113),#60,.F.);
#1166=ADVANCED_FACE('',(#114,#33),#61,.T.);
#1167=ADVANCED_FACE('',(#115),#1071,.F.);
#1168=ADVANCED_FACE('',(#116),#1072,.F.);
#1169=ADVANCED_FACE('',(#117,#34),#62,.F.);
#1170=ADVANCED_FACE('',(#118),#63,.F.);
#1171=ADVANCED_FACE('',(#119,#35),#64,.F.);
#1172=ADVANCED_FACE('',(#120),#65,.F.);
#1173=ADVANCED_FACE('',(#121),#66,.F.);
#1174=ADVANCED_FACE('',(#122,#36),#67,.F.);
#1175=ADVANCED_FACE('',(#123,#37),#68,.F.);
#1176=ADVANCED_FACE('',(#124),#69,.T.);
#1177=ADVANCED_FACE('',(#125),#70,.T.);
#1178=ADVANCED_FACE('',(#126),#71,.T.);
#1179=ADVANCED_FACE('',(#127),#72,.T.);
#1180=ADVANCED_FACE('',(#128),#73,.F.);
#1181=ADVANCED_FACE('',(#129,#38),#74,.F.);
#1182=ADVANCED_FACE('',(#130),#75,.F.);
#1183=ADVANCED_FACE('',(#131),#76,.T.);
#1184=CLOSED_SHELL('',(#1129,#1130,#1131,#1132,#1133,#1134,#1135,#1136,
#1137,#1138,#1139,#1140,#1141,#1142,#1143,#1144,#1145,#1146,#1147,#1148,
#1149,#1150,#1151,#1152,#1153,#1154,#1155,#1156,#1157,#1158,#1159,#1160,
#1161,#1162,#1163,#1164,#1165,#1166,#1167,#1168,#1169,#1170,#1171,#1172,
#1173,#1174,#1175,#1176,#1177,#1178,#1179,#1180,#1181,#1182,#1183));
#1185=DERIVED_UNIT_ELEMENT(#1188,1.);
#1186=DERIVED_UNIT_ELEMENT(#1916,-3.);
#1187=DIMENSIONAL_EXPONENTS(0.,1.,0.,0.,0.,0.,0.);
#1188=(
CONVERSION_BASED_UNIT('gram',#1190)
MASS_UNIT()
NAMED_UNIT(#1187)
);
#1189=(
MASS_UNIT()
NAMED_UNIT(*)
SI_UNIT(.KILO.,.GRAM.)
);
#1190=MASS_MEASURE_WITH_UNIT(MASS_MEASURE(0.001),#1189);
#1191=DERIVED_UNIT((#1185,#1186));
#1192=MEASURE_REPRESENTATION_ITEM('density measure',
POSITIVE_RATIO_MEASURE(1.),#1191);
#1193=PROPERTY_DEFINITION_REPRESENTATION(#1198,#1195);
#1194=PROPERTY_DEFINITION_REPRESENTATION(#1199,#1196);
#1195=REPRESENTATION('material name',(#1197),#1913);
#1196=REPRESENTATION('density',(#1192),#1913);
#1197=DESCRIPTIVE_REPRESENTATION_ITEM('\X2\4E00822C\X0\','\X2\4E00822C\X0\');
#1198=PROPERTY_DEFINITION('material property','material name',#1923);
#1199=PROPERTY_DEFINITION('material property','density of part',#1923);
#1200=DATE_TIME_ROLE('creation_date');
#1201=APPLIED_DATE_AND_TIME_ASSIGNMENT(#1202,#1200,(#1923));
#1202=DATE_AND_TIME(#1203,#1204);
#1203=CALENDAR_DATE(2026,4,2);
#1204=LOCAL_TIME(0,0,0.,#1205);
#1205=COORDINATED_UNIVERSAL_TIME_OFFSET(0,0,.BEHIND.);
#1206=AXIS2_PLACEMENT_3D('',#1597,#1296,#1297);
#1207=AXIS2_PLACEMENT_3D('',#1598,#1298,#1299);
#1208=AXIS2_PLACEMENT_3D('',#1601,#1300,#1301);
#1209=AXIS2_PLACEMENT_3D('',#1605,#1303,#1304);
#1210=AXIS2_PLACEMENT_3D('',#1607,#1306,#1307);
#1211=AXIS2_PLACEMENT_3D('',#1611,#1309,#1310);
#1212=AXIS2_PLACEMENT_3D('',#1631,#1320,#1321);
#1213=AXIS2_PLACEMENT_3D('',#1648,#1330,#1331);
#1214=AXIS2_PLACEMENT_3D('',#1650,#1332,#1333);
#1215=AXIS2_PLACEMENT_3D('',#1652,#1334,#1335);
#1216=AXIS2_PLACEMENT_3D('',#1654,#1336,#1337);
#1217=AXIS2_PLACEMENT_3D('',#1656,#1338,#1339);
#1218=AXIS2_PLACEMENT_3D('',#1658,#1340,#1341);
#1219=AXIS2_PLACEMENT_3D('',#1660,#1342,#1343);
#1220=AXIS2_PLACEMENT_3D('',#1662,#1344,#1345);
#1221=AXIS2_PLACEMENT_3D('',#1663,#1346,#1347);
#1222=AXIS2_PLACEMENT_3D('',#1665,#1348,#1349);
#1223=AXIS2_PLACEMENT_3D('',#1668,#1351,#1352);
#1224=AXIS2_PLACEMENT_3D('',#1669,#1353,#1354);
#1225=AXIS2_PLACEMENT_3D('',#1671,#1355,#1356);
#1226=AXIS2_PLACEMENT_3D('',#1674,#1358,#1359);
#1227=AXIS2_PLACEMENT_3D('',#1675,#1360,#1361);
#1228=AXIS2_PLACEMENT_3D('',#1677,#1362,#1363);
#1229=AXIS2_PLACEMENT_3D('',#1680,#1365,#1366);
#1230=AXIS2_PLACEMENT_3D('',#1681,#1367,#1368);
#1231=AXIS2_PLACEMENT_3D('',#1690,#1373,#1374);
#1232=AXIS2_PLACEMENT_3D('',#1700,#1380,#1381);
#1233=AXIS2_PLACEMENT_3D('',#1704,#1384,#1385);
#1234=AXIS2_PLACEMENT_3D('',#1706,#1386,#1387);
#1235=AXIS2_PLACEMENT_3D('',#1718,#1394,#1395);
#1236=AXIS2_PLACEMENT_3D('',#1720,#1396,#1397);
#1237=AXIS2_PLACEMENT_3D('',#1722,#1398,#1399);
#1238=AXIS2_PLACEMENT_3D('',#1724,#1400,#1401);
#1239=AXIS2_PLACEMENT_3D('',#1726,#1402,#1403);
#1240=AXIS2_PLACEMENT_3D('',#1728,#1404,#1405);
#1241=AXIS2_PLACEMENT_3D('',#1730,#1406,#1407);
#1242=AXIS2_PLACEMENT_3D('',#1732,#1408,#1409);
#1243=AXIS2_PLACEMENT_3D('',#1734,#1410,#1411);
#1244=AXIS2_PLACEMENT_3D('',#1735,#1412,#1413);
#1245=AXIS2_PLACEMENT_3D('',#1741,#1417,#1418);
#1246=AXIS2_PLACEMENT_3D('',#1749,#1422,#1423);
#1247=AXIS2_PLACEMENT_3D('',#1753,#1426,#1427);
#1248=AXIS2_PLACEMENT_3D('',#1756,#1429,#1430);
#1249=AXIS2_PLACEMENT_3D('',#1757,#1431,#1432);
#1250=AXIS2_PLACEMENT_3D('',#1759,#1433,#1434);
#1251=AXIS2_PLACEMENT_3D('',#1760,#1435,#1436);
#1252=AXIS2_PLACEMENT_3D('',#1763,#1439,#1440);
#1253=AXIS2_PLACEMENT_3D('',#1766,#1443,#1444);
#1254=AXIS2_PLACEMENT_3D('',#1768,#1446,#1447);
#1255=AXIS2_PLACEMENT_3D('',#1770,#1449,#1450);
#1256=AXIS2_PLACEMENT_3D('',#1772,#1452,#1453);
#1257=AXIS2_PLACEMENT_3D('',#1774,#1455,#1456);
#1258=AXIS2_PLACEMENT_3D('',#1776,#1458,#1459);
#1259=AXIS2_PLACEMENT_3D('',#1778,#1461,#1462);
#1260=AXIS2_PLACEMENT_3D('',#1780,#1464,#1465);
#1261=AXIS2_PLACEMENT_3D('',#1782,#1467,#1468);
#1262=AXIS2_PLACEMENT_3D('',#1783,#1469,#1470);
#1263=AXIS2_PLACEMENT_3D('',#1797,#1478,#1479);
#1264=AXIS2_PLACEMENT_3D('',#1803,#1483,#1484);
#1265=AXIS2_PLACEMENT_3D('',#1815,#1491,#1492);
#1266=AXIS2_PLACEMENT_3D('',#1817,#1494,#1495);
#1267=AXIS2_PLACEMENT_3D('',#1819,#1497,#1498);
#1268=AXIS2_PLACEMENT_3D('',#1821,#1500,#1501);
#1269=AXIS2_PLACEMENT_3D('',#1823,#1503,#1504);
#1270=AXIS2_PLACEMENT_3D('',#1825,#1506,#1507);
#1271=AXIS2_PLACEMENT_3D('',#1827,#1509,#1510);
#1272=AXIS2_PLACEMENT_3D('',#1829,#1512,#1513);
#1273=AXIS2_PLACEMENT_3D('',#1832,#1516,#1517);
#1274=AXIS2_PLACEMENT_3D('',#1833,#1518,#1519);
#1275=AXIS2_PLACEMENT_3D('',#1839,#1523,#1524);
#1276=AXIS2_PLACEMENT_3D('',#1851,#1531,#1532);
#1277=AXIS2_PLACEMENT_3D('',#1853,#1533,#1534);
#1278=AXIS2_PLACEMENT_3D('',#1855,#1536,#1537);
#1279=AXIS2_PLACEMENT_3D('',#1857,#1538,#1539);
#1280=AXIS2_PLACEMENT_3D('',#1860,#1541,#1542);
#1281=AXIS2_PLACEMENT_3D('',#1861,#1543,#1544);
#1282=AXIS2_PLACEMENT_3D('',#1867,#1548,#1549);
#1283=AXIS2_PLACEMENT_3D('',#1871,#1552,#1553);
#1284=AXIS2_PLACEMENT_3D('',#1875,#1556,#1557);
#1285=AXIS2_PLACEMENT_3D('',#1877,#1559,#1560);
#1286=AXIS2_PLACEMENT_3D('',#1881,#1563,#1564);
#1287=AXIS2_PLACEMENT_3D('',#1883,#1566,#1567);
#1288=AXIS2_PLACEMENT_3D('',#1884,#1568,#1569);
#1289=AXIS2_PLACEMENT_3D('',#1890,#1573,#1574);
#1290=AXIS2_PLACEMENT_3D('',#1894,#1577,#1578);
#1291=AXIS2_PLACEMENT_3D('',#1898,#1581,#1582);
#1292=AXIS2_PLACEMENT_3D('',#1900,#1584,#1585);
#1293=AXIS2_PLACEMENT_3D('',#1906,#1589,#1590);
#1294=AXIS2_PLACEMENT_3D('',#1909,#1593,#1594);
#1295=AXIS2_PLACEMENT_3D('',#1910,#1595,#1596);
#1296=DIRECTION('axis',(0.,0.,1.));
#1297=DIRECTION('refdir',(1.,0.,0.));
#1298=DIRECTION('center_axis',(-1.,0.,0.));
#1299=DIRECTION('ref_axis',(0.,-0.707106781186547,-0.707106781186547));
#1300=DIRECTION('center_axis',(-0.342020143325668,-0.939692620785909,0.));
#1301=DIRECTION('ref_axis',(0.939692620785909,-0.342020143325668,0.));
#1302=DIRECTION('',(1.,0.,0.));
#1303=DIRECTION('center_axis',(1.,0.,0.));
#1304=DIRECTION('ref_axis',(0.,-0.707106781186547,-0.707106781186547));
#1305=DIRECTION('',(-1.,0.,0.));
#1306=DIRECTION('center_axis',(0.,0.,1.));
#1307=DIRECTION('ref_axis',(1.,0.,0.));
#1308=DIRECTION('',(0.939692620785909,-0.342020143325668,6.95512255777914E-17));
#1309=DIRECTION('center_axis',(0.,0.,-1.));
#1310=DIRECTION('ref_axis',(-0.90630778703665,-0.4226182617407,0.));
#1311=DIRECTION('',(-0.342020143325669,-0.939692620785909,0.));
#1312=DIRECTION('',(0.939692620785909,-0.342020143325668,0.));
#1313=DIRECTION('',(0.342020143325668,0.939692620785909,0.));
#1314=DIRECTION('',(1.,0.,0.));
#1315=DIRECTION('',(0.,-1.,0.));
#1316=DIRECTION('',(-1.,0.,0.));
#1317=DIRECTION('',(0.,1.,0.));
#1318=DIRECTION('',(0.342020143325668,0.939692620785909,0.));
#1319=DIRECTION('',(-0.939692620785909,0.342020143325669,0.));
#1320=DIRECTION('center_axis',(0.,0.,-1.));
#1321=DIRECTION('ref_axis',(0.90630778703665,0.422618261740699,0.));
#1322=DIRECTION('',(-1.,0.,0.));
#1323=DIRECTION('',(-3.91247965573082E-16,1.,0.));
#1324=DIRECTION('',(-0.939692620785909,0.342020143325668,0.));
#1325=DIRECTION('',(-0.342020143325668,-0.939692620785909,0.));
#1326=DIRECTION('',(0.939692620785909,-0.342020143325668,0.));
#1327=DIRECTION('',(0.,-1.,0.));
#1328=DIRECTION('',(-1.,0.,0.));
#1329=DIRECTION('',(0.,1.,0.));
#1330=DIRECTION('center_axis',(0.,0.,1.));
#1331=DIRECTION('ref_axis',(1.,0.,0.));
#1332=DIRECTION('center_axis',(0.,0.,1.));
#1333=DIRECTION('ref_axis',(1.,0.,0.));
#1334=DIRECTION('center_axis',(0.,0.,1.));
#1335=DIRECTION('ref_axis',(1.,0.,0.));
#1336=DIRECTION('center_axis',(0.,0.,1.));
#1337=DIRECTION('ref_axis',(1.,0.,0.));
#1338=DIRECTION('center_axis',(0.,0.,1.));
#1339=DIRECTION('ref_axis',(1.,0.,0.));
#1340=DIRECTION('center_axis',(0.,0.,1.));
#1341=DIRECTION('ref_axis',(1.,0.,0.));
#1342=DIRECTION('center_axis',(0.,0.,1.));
#1343=DIRECTION('ref_axis',(1.,0.,0.));
#1344=DIRECTION('center_axis',(0.,0.,1.));
#1345=DIRECTION('ref_axis',(1.,0.,0.));
#1346=DIRECTION('center_axis',(1.,0.,0.));
#1347=DIRECTION('ref_axis',(0.,0.707106781186547,-0.707106781186547));
#1348=DIRECTION('center_axis',(-1.,0.,0.));
#1349=DIRECTION('ref_axis',(0.,0.707106781186547,-0.707106781186547));
#1350=DIRECTION('',(1.,0.,0.));
#1351=DIRECTION('center_axis',(1.,0.,0.));
#1352=DIRECTION('ref_axis',(0.,0.707106781186547,-0.707106781186547));
#1353=DIRECTION('center_axis',(1.,0.,0.));
#1354=DIRECTION('ref_axis',(0.,0.707106781186547,-0.707106781186547));
#1355=DIRECTION('center_axis',(-1.,0.,0.));
#1356=DIRECTION('ref_axis',(0.,0.707106781186547,-0.707106781186547));
#1357=DIRECTION('',(1.,0.,0.));
#1358=DIRECTION('center_axis',(1.,0.,0.));
#1359=DIRECTION('ref_axis',(0.,0.707106781186547,-0.707106781186547));
#1360=DIRECTION('center_axis',(-1.,0.,0.));
#1361=DIRECTION('ref_axis',(0.,-0.707106781186547,-0.707106781186547));
#1362=DIRECTION('center_axis',(0.939692620785909,-0.342020143325668,0.));
#1363=DIRECTION('ref_axis',(-0.342020143325668,-0.939692620785908,0.));
#1364=DIRECTION('',(-1.,0.,0.));
#1365=DIRECTION('center_axis',(-1.,0.,0.));
#1366=DIRECTION('ref_axis',(0.,-0.707106781186547,-0.707106781186547));
#1367=DIRECTION('center_axis',(-0.939692620785909,0.342020143325668,0.));
#1368=DIRECTION('ref_axis',(-0.342020143325668,-0.939692620785909,0.));
#1369=DIRECTION('',(0.,0.,-1.));
#1370=DIRECTION('',(-0.342020143325668,-0.939692620785909,0.));
#1371=DIRECTION('',(0.,0.,-1.));
#1372=DIRECTION('',(-0.342020143325668,-0.939692620785909,0.));
#1373=DIRECTION('center_axis',(-1.,-3.91247965573082E-16,0.));
#1374=DIRECTION('ref_axis',(-3.91247965573082E-16,1.,0.));
#1375=DIRECTION('',(3.91247965573082E-16,-1.,0.));
#1376=DIRECTION('',(0.,0.,-1.));
#1377=DIRECTION('',(3.91247965573082E-16,-1.,0.));
#1378=DIRECTION('',(0.,0.,1.));
#1379=DIRECTION('',(0.,0.,-1.));
#1380=DIRECTION('center_axis',(0.,-1.,0.));
#1381=DIRECTION('ref_axis',(-1.,0.,0.));
#1382=DIRECTION('',(-1.,0.,0.));
#1383=DIRECTION('',(0.,0.,-1.));
#1384=DIRECTION('center_axis',(0.,0.,-1.));
#1385=DIRECTION('ref_axis',(-1.,0.,0.));
#1386=DIRECTION('center_axis',(0.,0.,1.));
#1387=DIRECTION('ref_axis',(0.90630778703665,0.422618261740699,0.));
#1388=DIRECTION('',(0.939692620785909,-0.342020143325669,0.));
#1389=DIRECTION('',(0.342020143325668,0.939692620785909,0.));
#1390=DIRECTION('',(0.939692620785909,-0.342020143325668,0.));
#1391=DIRECTION('',(0.939692620785909,-0.342020143325668,0.));
#1392=DIRECTION('',(-0.342020143325668,-0.939692620785909,0.));
#1393=DIRECTION('',(-0.939692620785909,0.342020143325667,0.));
#1394=DIRECTION('center_axis',(0.,0.,-1.));
#1395=DIRECTION('ref_axis',(1.,0.,0.));
#1396=DIRECTION('center_axis',(0.,0.,-1.));
#1397=DIRECTION('ref_axis',(1.,0.,0.));
#1398=DIRECTION('center_axis',(0.,0.,-1.));
#1399=DIRECTION('ref_axis',(1.,0.,0.));
#1400=DIRECTION('center_axis',(0.,0.,-1.));
#1401=DIRECTION('ref_axis',(1.,0.,0.));
#1402=DIRECTION('center_axis',(0.,0.,-1.));
#1403=DIRECTION('ref_axis',(1.,0.,0.));
#1404=DIRECTION('center_axis',(0.,0.,-1.));
#1405=DIRECTION('ref_axis',(1.,0.,0.));
#1406=DIRECTION('center_axis',(0.,0.,-1.));
#1407=DIRECTION('ref_axis',(1.,0.,0.));
#1408=DIRECTION('center_axis',(0.,0.,-1.));
#1409=DIRECTION('ref_axis',(1.,0.,0.));
#1410=DIRECTION('center_axis',(0.,0.,-1.));
#1411=DIRECTION('ref_axis',(1.,0.,0.));
#1412=DIRECTION('center_axis',(0.,0.,1.));
#1413=DIRECTION('ref_axis',(1.,0.,0.));
#1414=DIRECTION('',(-0.939692620785909,0.342020143325667,0.));
#1415=DIRECTION('',(0.342020143325668,0.939692620785909,0.));
#1416=DIRECTION('',(0.939692620785909,-0.342020143325668,0.));
#1417=DIRECTION('center_axis',(0.,0.,1.));
#1418=DIRECTION('ref_axis',(1.,0.,0.));
#1419=DIRECTION('',(0.939692620785909,-0.342020143325668,0.));
#1420=DIRECTION('',(-0.939692620785909,0.342020143325668,0.));
#1421=DIRECTION('',(0.342020143325669,0.939692620785909,0.));
#1422=DIRECTION('center_axis',(0.,0.,1.));
#1423=DIRECTION('ref_axis',(-0.90630778703665,-0.4226182617407,0.));
#1424=DIRECTION('',(-0.939692620785909,0.342020143325668,0.));
#1425=DIRECTION('',(0.342020143325668,0.939692620785909,0.));
#1426=DIRECTION('center_axis',(0.,0.,-1.));
#1427=DIRECTION('ref_axis',(1.,0.,0.));
#1428=DIRECTION('',(0.,0.,1.));
#1429=DIRECTION('center_axis',(0.,0.,-1.));
#1430=DIRECTION('ref_axis',(1.,0.,0.));
#1431=DIRECTION('center_axis',(0.,0.,1.));
#1432=DIRECTION('ref_axis',(1.,0.,0.));
#1433=DIRECTION('center_axis',(0.,0.,1.));
#1434=DIRECTION('ref_axis',(-1.,0.,0.));
#1435=DIRECTION('center_axis',(0.,0.,-1.));
#1436=DIRECTION('ref_axis',(-0.90630778703665,-0.4226182617407,0.));
#1437=DIRECTION('',(0.,0.,-1.));
#1438=DIRECTION('',(0.,0.,1.));
#1439=DIRECTION('center_axis',(-0.342020143325668,-0.939692620785909,0.));
#1440=DIRECTION('ref_axis',(0.939692620785909,-0.342020143325668,0.));
#1441=DIRECTION('',(0.,0.,1.));
#1442=DIRECTION('',(0.,0.,1.));
#1443=DIRECTION('center_axis',(0.,0.,1.));
#1444=DIRECTION('ref_axis',(0.90630778703665,0.422618261740699,0.));
#1445=DIRECTION('',(0.,0.,1.));
#1446=DIRECTION('center_axis',(0.,0.,-1.));
#1447=DIRECTION('ref_axis',(1.,0.,0.));
#1448=DIRECTION('',(0.,0.,1.));
#1449=DIRECTION('center_axis',(0.,0.,-1.));
#1450=DIRECTION('ref_axis',(1.,0.,0.));
#1451=DIRECTION('',(0.,0.,1.));
#1452=DIRECTION('center_axis',(0.,0.,-1.));
#1453=DIRECTION('ref_axis',(1.,0.,0.));
#1454=DIRECTION('',(0.,0.,1.));
#1455=DIRECTION('center_axis',(0.,0.,-1.));
#1456=DIRECTION('ref_axis',(1.,0.,0.));
#1457=DIRECTION('',(0.,0.,1.));
#1458=DIRECTION('center_axis',(-0.342020143325668,-0.939692620785909,0.));
#1459=DIRECTION('ref_axis',(0.939692620785909,-0.342020143325668,0.));
#1460=DIRECTION('',(0.,0.,1.));
#1461=DIRECTION('center_axis',(0.342020143325667,0.939692620785909,0.));
#1462=DIRECTION('ref_axis',(-0.939692620785909,0.342020143325667,0.));
#1463=DIRECTION('',(0.,0.,-1.));
#1464=DIRECTION('center_axis',(0.342020143325668,0.939692620785909,0.));
#1465=DIRECTION('ref_axis',(-0.939692620785909,0.342020143325668,0.));
#1466=DIRECTION('',(0.,0.,1.));
#1467=DIRECTION('center_axis',(-0.939692620785909,0.342020143325668,0.));
#1468=DIRECTION('ref_axis',(-0.342020143325668,-0.939692620785909,0.));
#1469=DIRECTION('center_axis',(1.,0.,0.));
#1470=DIRECTION('ref_axis',(0.,0.,-1.));
#1471=DIRECTION('',(0.,0.,-1.));
#1472=DIRECTION('',(0.,1.,0.));
#1473=DIRECTION('',(0.,0.,-1.));
#1474=DIRECTION('',(0.,1.,0.));
#1475=DIRECTION('',(0.,1.07440937866951E-16,1.));
#1476=DIRECTION('',(0.,-1.,2.14881875733901E-16));
#1477=DIRECTION('',(0.,0.,-1.));
#1478=DIRECTION('center_axis',(0.939692620785909,-0.342020143325668,0.));
#1479=DIRECTION('ref_axis',(0.342020143325668,0.939692620785909,0.));
#1480=DIRECTION('',(0.,0.,-1.));
#1481=DIRECTION('',(0.,0.,-1.));
#1482=DIRECTION('',(-0.342020143325668,-0.939692620785909,0.));
#1483=DIRECTION('center_axis',(0.,0.,1.));
#1484=DIRECTION('ref_axis',(1.,0.,0.));
#1485=DIRECTION('',(0.939692620785909,-0.342020143325669,0.));
#1486=DIRECTION('',(0.,-1.,0.));
#1487=DIRECTION('',(-1.,0.,0.));
#1488=DIRECTION('',(-0.342020143325668,-0.939692620785909,0.));
#1489=DIRECTION('',(-0.939692620785909,0.342020143325668,0.));
#1490=DIRECTION('',(0.342020143325668,0.939692620785909,0.));
#1491=DIRECTION('center_axis',(0.342020143325669,0.939692620785909,0.));
#1492=DIRECTION('ref_axis',(-0.939692620785909,0.342020143325669,0.));
#1493=DIRECTION('',(0.,0.,1.));
#1494=DIRECTION('center_axis',(-0.939692620785909,0.342020143325669,0.));
#1495=DIRECTION('ref_axis',(-0.342020143325669,-0.939692620785909,0.));
#1496=DIRECTION('',(0.,0.,1.));
#1497=DIRECTION('center_axis',(0.,0.,-1.));
#1498=DIRECTION('ref_axis',(1.,0.,0.));
#1499=DIRECTION('',(0.,0.,1.));
#1500=DIRECTION('center_axis',(0.,0.,-1.));
#1501=DIRECTION('ref_axis',(1.,0.,0.));
#1502=DIRECTION('',(0.,0.,1.));
#1503=DIRECTION('center_axis',(0.,0.,-1.));
#1504=DIRECTION('ref_axis',(1.,0.,0.));
#1505=DIRECTION('',(0.,0.,1.));
#1506=DIRECTION('center_axis',(0.,0.,-1.));
#1507=DIRECTION('ref_axis',(1.,0.,0.));
#1508=DIRECTION('',(0.,0.,1.));
#1509=DIRECTION('center_axis',(0.939692620785909,-0.342020143325668,0.));
#1510=DIRECTION('ref_axis',(0.342020143325668,0.939692620785909,0.));
#1511=DIRECTION('',(0.,0.,1.));
#1512=DIRECTION('center_axis',(0.939692620785909,-0.342020143325668,0.));
#1513=DIRECTION('ref_axis',(0.342020143325668,0.939692620785909,0.));
#1514=DIRECTION('',(0.,0.,1.));
#1515=DIRECTION('',(0.,0.,1.));
#1516=DIRECTION('center_axis',(-0.342020143325668,-0.939692620785909,0.));
#1517=DIRECTION('ref_axis',(0.939692620785909,-0.342020143325668,0.));
#1518=DIRECTION('center_axis',(0.,1.,0.));
#1519=DIRECTION('ref_axis',(0.,0.,1.));
#1520=DIRECTION('',(0.,0.,1.));
#1521=DIRECTION('',(1.,0.,0.));
#1522=DIRECTION('',(0.,0.,-1.));
#1523=DIRECTION('center_axis',(-1.,0.,0.));
#1524=DIRECTION('ref_axis',(0.,0.,1.));
#1525=DIRECTION('',(0.,1.,0.));
#1526=DIRECTION('',(0.,0.,-1.));
#1527=DIRECTION('',(0.,-2.86509167645202E-16,-1.));
#1528=DIRECTION('',(0.,1.,-1.43254583822601E-16));
#1529=DIRECTION('',(0.,2.86509167645202E-16,1.));
#1530=DIRECTION('',(0.,-1.,0.));
#1531=DIRECTION('center_axis',(0.,0.,1.));
#1532=DIRECTION('ref_axis',(-1.,0.,0.));
#1533=DIRECTION('center_axis',(0.,1.43254583822601E-16,1.));
#1534=DIRECTION('ref_axis',(-1.,0.,0.));
#1535=DIRECTION('',(0.,0.,-1.));
#1536=DIRECTION('center_axis',(0.,0.,1.));
#1537=DIRECTION('ref_axis',(-1.,0.,0.));
#1538=DIRECTION('center_axis',(0.,0.,1.));
#1539=DIRECTION('ref_axis',(-1.,0.,0.));
#1540=DIRECTION('',(0.,0.,-1.));
#1541=DIRECTION('center_axis',(0.,0.,-1.));
#1542=DIRECTION('ref_axis',(-1.,0.,0.));
#1543=DIRECTION('center_axis',(0.,0.,1.));
#1544=DIRECTION('ref_axis',(0.,-1.,0.));
#1545=DIRECTION('',(1.,0.,0.));
#1546=DIRECTION('',(0.,-1.,0.));
#1547=DIRECTION('',(1.,0.,0.));
#1548=DIRECTION('center_axis',(0.,1.,-2.86509167645202E-16));
#1549=DIRECTION('ref_axis',(0.,2.86509167645202E-16,1.));
#1550=DIRECTION('',(1.,0.,0.));
#1551=DIRECTION('',(0.,2.86509167645202E-16,1.));
#1552=DIRECTION('center_axis',(0.,-1.43254583822601E-16,-1.));
#1553=DIRECTION('ref_axis',(0.,1.,-1.43254583822601E-16));
#1554=DIRECTION('',(1.,0.,0.));
#1555=DIRECTION('',(0.,1.,-1.43254583822601E-16));
#1556=DIRECTION('center_axis',(0.,-1.,2.86509167645202E-16));
#1557=DIRECTION('ref_axis',(0.,-2.86509167645202E-16,-1.));
#1558=DIRECTION('',(0.,-2.86509167645202E-16,-1.));
#1559=DIRECTION('center_axis',(0.,-1.,0.));
#1560=DIRECTION('ref_axis',(0.,0.,-1.));
#1561=DIRECTION('',(1.,0.,0.));
#1562=DIRECTION('',(0.,0.,-1.));
#1563=DIRECTION('center_axis',(0.,0.,-1.));
#1564=DIRECTION('ref_axis',(0.,1.,0.));
#1565=DIRECTION('',(0.,1.,0.));
#1566=DIRECTION('center_axis',(-1.,0.,0.));
#1567=DIRECTION('ref_axis',(0.,0.,1.));
#1568=DIRECTION('center_axis',(0.,2.14881875733901E-16,1.));
#1569=DIRECTION('ref_axis',(0.,1.,-2.14881875733901E-16));
#1570=DIRECTION('',(-1.,0.,0.));
#1571=DIRECTION('',(0.,1.,-2.14881875733901E-16));
#1572=DIRECTION('',(-1.,0.,0.));
#1573=DIRECTION('center_axis',(0.,1.,-1.07440937866951E-16));
#1574=DIRECTION('ref_axis',(0.,-1.07440937866951E-16,-1.));
#1575=DIRECTION('',(-1.,0.,0.));
#1576=DIRECTION('',(0.,-1.07440937866951E-16,-1.));
#1577=DIRECTION('center_axis',(0.,0.,-1.));
#1578=DIRECTION('ref_axis',(0.,-1.,0.));
#1579=DIRECTION('',(-1.,0.,0.));
#1580=DIRECTION('',(0.,-1.,0.));
#1581=DIRECTION('center_axis',(0.,-1.,0.));
#1582=DIRECTION('ref_axis',(0.,0.,1.));
#1583=DIRECTION('',(0.,0.,1.));
#1584=DIRECTION('center_axis',(2.59052039079203E-16,0.,-1.));
#1585=DIRECTION('ref_axis',(-1.,0.,-2.59052039079203E-16));
#1586=DIRECTION('',(-1.,0.,-2.59052039079203E-16));
#1587=DIRECTION('',(0.,1.,0.));
#1588=DIRECTION('',(-1.,0.,-2.59052039079203E-16));
#1589=DIRECTION('center_axis',(-1.,0.,0.));
#1590=DIRECTION('ref_axis',(0.,0.,1.));
#1591=DIRECTION('',(0.,0.,1.));
#1592=DIRECTION('',(0.,0.,1.));
#1593=DIRECTION('center_axis',(0.,-1.,0.));
#1594=DIRECTION('ref_axis',(0.,0.,-1.));
#1595=DIRECTION('center_axis',(0.,-1.,0.));
#1596=DIRECTION('ref_axis',(0.,0.,-1.));
#1597=CARTESIAN_POINT('',(0.,0.,0.));
#1598=CARTESIAN_POINT('Origin',(47.5,-54.25,0.749999999999998));
#1599=CARTESIAN_POINT('',(62.5252258054537,-54.25,-9.25000000000001));
#1600=CARTESIAN_POINT('',(90.,-64.25,0.749999999999997));
#1601=CARTESIAN_POINT('Origin',(62.5252258054537,-54.25,0.749999999999998));
#1602=CARTESIAN_POINT('',(60.,-54.25,-9.25));
#1603=CARTESIAN_POINT('',(47.5,-54.25,-9.25));
#1604=CARTESIAN_POINT('',(60.,-64.25,0.749999999999998));
#1605=CARTESIAN_POINT('Origin',(60.,-54.25,0.749999999999998));
#1606=CARTESIAN_POINT('',(47.5,-64.25,0.749999999999998));
#1607=CARTESIAN_POINT('Origin',(20.,0.,-9.25));
#1608=CARTESIAN_POINT('',(46.9660820713639,-48.5869348101218,-9.25000000000001));
#1609=CARTESIAN_POINT('',(43.8526016343814,-47.4537206060901,-9.25000000000001));
#1610=CARTESIAN_POINT('',(35.0126325221591,-22.9526795278903,-9.25));
#1611=CARTESIAN_POINT('Origin',(53.8064849378773,-29.7930823944037,-9.25));
#1612=CARTESIAN_POINT('',(52.5486651426207,25.2271741236476,-9.25));
#1613=CARTESIAN_POINT('',(39.0362701954879,-11.8978258763524,-9.25));
#1614=CARTESIAN_POINT('',(14.0212676903984,39.25,-9.25));
#1615=CARTESIAN_POINT('',(23.653117053454,35.7442935309119,-9.25));
#1616=CARTESIAN_POINT('',(6.74186300507437,19.25,-9.25));
#1617=CARTESIAN_POINT('',(-26.5159171509998,-72.125,-9.25));
#1618=CARTESIAN_POINT('',(30.,19.25,-9.25));
#1619=CARTESIAN_POINT('',(10.,19.25,-9.25));
#1620=CARTESIAN_POINT('',(30.,-19.25,-9.25));
#1621=CARTESIAN_POINT('',(30.,9.25,-9.25));
#1622=CARTESIAN_POINT('',(0.,-19.25,-9.25));
#1623=CARTESIAN_POINT('',(10.,-19.25,-9.25));
#1624=CARTESIAN_POINT('',(0.,0.72688362850168,-9.25));
#1625=CARTESIAN_POINT('',(0.,-21.0057064690881,-9.25));
#1626=CARTESIAN_POINT('',(-16.0765049222604,-43.4429506291599,-9.25));
#1627=CARTESIAN_POINT('',(-26.5159171509998,-72.125,-9.25));
#1628=CARTESIAN_POINT('',(3.65704011424367,-50.625373638999,-9.25));
#1629=CARTESIAN_POINT('',(-7.12947475914431,-46.6994032936161,-9.25));
#1630=CARTESIAN_POINT('',(15.4875289719186,-62.25,-9.25));
#1631=CARTESIAN_POINT('Origin',(-3.1833627522697,-69.4192260547172,-9.25));
#1632=CARTESIAN_POINT('',(27.,-62.25,-9.25));
#1633=CARTESIAN_POINT('',(23.5,-62.25,-9.25));
#1634=CARTESIAN_POINT('',(27.,-84.9511639127417,-9.25));
#1635=CARTESIAN_POINT('',(27.,-42.4755819563708,-9.25));
#1636=CARTESIAN_POINT('',(108.118665857884,-114.475943728398,-9.25));
#1637=CARTESIAN_POINT('',(84.6263503382365,-105.925440145256,-9.25));
#1638=CARTESIAN_POINT('',(122.141491734237,-75.9485462761753,-9.25));
#1639=CARTESIAN_POINT('',(118.635785265148,-85.5803956392309,-9.25));
#1640=CARTESIAN_POINT('',(90.,-64.25,-9.25000000000001));
#1641=CARTESIAN_POINT('',(51.6645451752935,-50.2970355267502,-9.25));
#1642=CARTESIAN_POINT('',(90.,-92.75,-9.25));
#1643=CARTESIAN_POINT('',(90.,-80.4306189180015,-9.25));
#1644=CARTESIAN_POINT('',(60.,-92.75,-9.25));
#1645=CARTESIAN_POINT('',(47.5,-92.75,-9.25));
#1646=CARTESIAN_POINT('',(60.,-82.75,-9.25000000000001));
#1647=CARTESIAN_POINT('',(43.3122356646905,-60.0774402358111,-9.25));
#1648=CARTESIAN_POINT('Origin',(44.9122356646905,-60.0774402358111,-9.25));
#1649=CARTESIAN_POINT('',(107.211333878132,-83.3348099819566,-9.25));
#1650=CARTESIAN_POINT('Origin',(108.811333878132,-83.3348099819566,-9.25));
#1651=CARTESIAN_POINT('',(101.05497129827,-100.249277156103,-9.25));
#1652=CARTESIAN_POINT('Origin',(102.65497129827,-100.249277156103,-9.25));
#1653=CARTESIAN_POINT('',(37.1558730848285,-76.9919074099575,-9.25));
#1654=CARTESIAN_POINT('Origin',(38.7558730848285,-76.9919074099575,-9.25));
#1655=CARTESIAN_POINT('',(19.8075313961797,25.9198421438957,-9.25));
#1656=CARTESIAN_POINT('Origin',(21.4075313961797,25.9198421438957,-9.25));
#1657=CARTESIAN_POINT('',(-3.44983834996577,-37.9792560695461,-9.25));
#1658=CARTESIAN_POINT('Origin',(-1.84983834996577,-37.9792560695461,-9.25));
#1659=CARTESIAN_POINT('',(36.721998570326,19.7634795640337,-9.25));
#1660=CARTESIAN_POINT('Origin',(38.321998570326,19.7634795640337,-9.25));
#1661=CARTESIAN_POINT('',(13.4646288241806,-44.1356186494081,-9.25));
#1662=CARTESIAN_POINT('Origin',(15.0646288241806,-44.1356186494081,-9.25));
#1663=CARTESIAN_POINT('Origin',(47.5,-92.75,0.749999999999998));
#1664=CARTESIAN_POINT('',(90.,-82.75,0.749999999999997));
#1665=CARTESIAN_POINT('Origin',(90.,-92.75,0.749999999999998));
#1666=CARTESIAN_POINT('',(60.,-82.75,0.749999999999998));
#1667=CARTESIAN_POINT('',(47.5,-82.75,0.749999999999998));
#1668=CARTESIAN_POINT('Origin',(60.,-92.75,0.749999999999998));
#1669=CARTESIAN_POINT('Origin',(10.,-19.25,0.749999999999998));
#1670=CARTESIAN_POINT('',(30.,-9.25,0.749999999999998));
#1671=CARTESIAN_POINT('Origin',(30.,-19.25,0.749999999999998));
#1672=CARTESIAN_POINT('',(0.,-9.25,0.749999999999998));
#1673=CARTESIAN_POINT('',(10.,-9.25,0.749999999999998));
#1674=CARTESIAN_POINT('Origin',(0.,-19.25,0.749999999999998));
#1675=CARTESIAN_POINT('Origin',(10.,19.25,0.749999999999998));
#1676=CARTESIAN_POINT('',(3.10216066241235,9.25,0.749999999999998));
#1677=CARTESIAN_POINT('Origin',(6.74186300507437,19.25,0.749999999999998));
#1678=CARTESIAN_POINT('',(30.,9.25,0.749999999999998));
#1679=CARTESIAN_POINT('',(10.,9.25,0.749999999999998));
#1680=CARTESIAN_POINT('Origin',(30.,19.25,0.749999999999998));
#1681=CARTESIAN_POINT('Origin',(50.6692799010489,25.911214410299,-16.25));
#1682=CARTESIAN_POINT('',(25.6088041274226,-42.941876898529,-12.25));
#1683=CARTESIAN_POINT('',(25.6088041274226,-42.941876898529,-16.25));
#1684=CARTESIAN_POINT('',(25.6088041274226,-42.941876898529,-16.25));
#1685=CARTESIAN_POINT('',(50.6692799010489,25.9112144102989,-12.25));
#1686=CARTESIAN_POINT('',(-3.38029988748205,-122.588785589701,-12.25));
#1687=CARTESIAN_POINT('',(50.6692799010489,25.9112144102989,-16.25));
#1688=CARTESIAN_POINT('',(50.6692799010489,25.9112144102989,-16.25));
#1689=CARTESIAN_POINT('',(44.7116158927336,9.54266707475509,-16.25));
#1690=CARTESIAN_POINT('Origin',(27.,-84.9511639127417,-9.25));
#1691=CARTESIAN_POINT('',(27.,-62.25,-12.25));
#1692=CARTESIAN_POINT('',(27.,-82.8228083677899,-12.25));
#1693=CARTESIAN_POINT('',(27.,-82.5572613043494,-12.25));
#1694=CARTESIAN_POINT('',(27.,-82.8228083677899,-16.25));
#1695=CARTESIAN_POINT('',(27.,-82.8228083677899,-12.75));
#1696=CARTESIAN_POINT('',(27.,-84.9511639127417,-16.25));
#1697=CARTESIAN_POINT('',(27.,-42.4755819563708,-16.25));
#1698=CARTESIAN_POINT('',(27.,-84.9511639127417,-12.75));
#1699=CARTESIAN_POINT('',(27.,-62.25,-9.25));
#1700=CARTESIAN_POINT('Origin',(27.,-62.25,-9.25));
#1701=CARTESIAN_POINT('',(15.4875289719186,-62.25,-12.25));
#1702=CARTESIAN_POINT('',(27.8364307143412,-62.25,-12.25));
#1703=CARTESIAN_POINT('',(15.4875289719186,-62.25,-16.25));
#1704=CARTESIAN_POINT('Origin',(6.26017652224403,-42.0114129381762,-12.25));
#1705=CARTESIAN_POINT('',(3.65704011424367,-50.625373638999,-12.25));
#1706=CARTESIAN_POINT('Origin',(-3.1833627522697,-69.4192260547172,-12.25));
#1707=CARTESIAN_POINT('',(-14.1971196806886,-44.1269909158113,-12.25));
#1708=CARTESIAN_POINT('',(-6.44465555920485,-46.948657098248,-12.25));
#1709=CARTESIAN_POINT('',(15.9006529319702,38.5659597133487,-12.25));
#1710=CARTESIAN_POINT('',(15.9006529319702,38.5659597133487,-12.25));
#1711=CARTESIAN_POINT('',(23.653117053454,35.7442935309119,-12.25));
#1712=CARTESIAN_POINT('',(121.457451447585,-77.8279315177471,-12.25));
#1713=CARTESIAN_POINT('',(121.457451447585,-77.8279315177471,-12.25));
#1714=CARTESIAN_POINT('',(108.802706144536,-112.596558486826,-12.25));
#1715=CARTESIAN_POINT('',(118.635785265148,-85.5803956392309,-12.25));
#1716=CARTESIAN_POINT('',(26.1097555153755,-82.498785874167,-12.25));
#1717=CARTESIAN_POINT('',(43.3122356646905,-60.0774402358111,-12.25));
#1718=CARTESIAN_POINT('Origin',(44.9122356646905,-60.0774402358111,-12.25));
#1719=CARTESIAN_POINT('',(107.211333878132,-83.3348099819566,-12.25));
#1720=CARTESIAN_POINT('Origin',(108.811333878132,-83.3348099819566,-12.25));
#1721=CARTESIAN_POINT('',(101.05497129827,-100.249277156103,-12.25));
#1722=CARTESIAN_POINT('Origin',(102.65497129827,-100.249277156103,-12.25));
#1723=CARTESIAN_POINT('',(37.1558730848285,-76.9919074099575,-12.25));
#1724=CARTESIAN_POINT('Origin',(38.7558730848285,-76.9919074099575,-12.25));
#1725=CARTESIAN_POINT('',(19.8075313961797,25.9198421438957,-12.25));
#1726=CARTESIAN_POINT('Origin',(21.4075313961797,25.9198421438957,-12.25));
#1727=CARTESIAN_POINT('',(-3.44983834996577,-37.9792560695461,-12.25));
#1728=CARTESIAN_POINT('Origin',(-1.84983834996577,-37.9792560695461,-12.25));
#1729=CARTESIAN_POINT('',(36.721998570326,19.7634795640337,-12.25));
#1730=CARTESIAN_POINT('Origin',(38.321998570326,19.7634795640337,-12.25));
#1731=CARTESIAN_POINT('',(13.4646288241806,-44.1356186494081,-12.25));
#1732=CARTESIAN_POINT('Origin',(15.0646288241806,-44.1356186494081,-12.25));
#1733=CARTESIAN_POINT('',(6.5,4.28626379701574E-16,-12.25));
#1734=CARTESIAN_POINT('Origin',(10.,0.,-12.25));
#1735=CARTESIAN_POINT('Origin',(20.,0.,-16.25));
#1736=CARTESIAN_POINT('',(108.802706144536,-112.596558486826,-16.25));
#1737=CARTESIAN_POINT('',(51.5014065422451,-91.7405910468223,-16.25));
#1738=CARTESIAN_POINT('',(108.118665857884,-114.475943728398,-16.25));
#1739=CARTESIAN_POINT('',(108.118665857884,-114.475943728398,-16.25));
#1740=CARTESIAN_POINT('',(14.1494037792933,-80.2739293958307,-16.25));
#1741=CARTESIAN_POINT('Origin',(20.,0.,-16.25));
#1742=CARTESIAN_POINT('',(121.457451447585,-77.8279315177471,-16.25));
#1743=CARTESIAN_POINT('',(22.8096765307148,-41.9230777714143,-16.25));
#1744=CARTESIAN_POINT('',(52.5486651426207,25.2271741236476,-16.25));
#1745=CARTESIAN_POINT('',(52.5486651426207,25.2271741236476,-16.25));
#1746=CARTESIAN_POINT('',(35.0126325221591,-22.9526795278903,-16.25));
#1747=CARTESIAN_POINT('',(-1.50091464591035,-123.272825876352,-16.25));
#1748=CARTESIAN_POINT('',(46.9660820713639,-48.5869348101218,-16.25));
#1749=CARTESIAN_POINT('Origin',(53.8064849378773,-29.7930823944037,-16.25));
#1750=CARTESIAN_POINT('',(122.141491734237,-75.9485462761753,-16.25));
#1751=CARTESIAN_POINT('',(90.,-64.25,-16.25));
#1752=CARTESIAN_POINT('',(108.118665857884,-114.475943728398,-16.25));
#1753=CARTESIAN_POINT('Origin',(10.,0.,-12.25));
#1754=CARTESIAN_POINT('',(6.5,4.28626379701574E-16,-9.25));
#1755=CARTESIAN_POINT('',(6.5,4.28626379701574E-16,-12.25));
#1756=CARTESIAN_POINT('Origin',(10.,0.,-9.25));
#1757=CARTESIAN_POINT('Origin',(10.,0.,-9.25));
#1758=CARTESIAN_POINT('',(11.6,1.95943487863577E-16,-9.25));
#1759=CARTESIAN_POINT('Origin',(10.,0.,-9.25));
#1760=CARTESIAN_POINT('Origin',(53.8064849378773,-29.7930823944037,-16.25));
#1761=CARTESIAN_POINT('',(35.0126325221591,-22.9526795278903,-16.25));
#1762=CARTESIAN_POINT('',(46.9660820713639,-48.5869348101218,-16.25));
#1763=CARTESIAN_POINT('Origin',(28.1722296556457,-41.7465319436085,-16.25));
#1764=CARTESIAN_POINT('',(90.,-64.25,-9.25000000000001));
#1765=CARTESIAN_POINT('',(122.141491734237,-75.9485462761753,-16.25));
#1766=CARTESIAN_POINT('Origin',(-3.1833627522697,-69.4192260547172,-16.25));
#1767=CARTESIAN_POINT('',(3.65704011424367,-50.625373638999,-16.25));
#1768=CARTESIAN_POINT('Origin',(44.9122356646905,-60.0774402358111,-12.25));
#1769=CARTESIAN_POINT('',(43.3122356646905,-60.0774402358111,-12.25));
#1770=CARTESIAN_POINT('Origin',(108.811333878132,-83.3348099819566,-12.25));
#1771=CARTESIAN_POINT('',(107.211333878132,-83.3348099819566,-12.25));
#1772=CARTESIAN_POINT('Origin',(102.65497129827,-100.249277156103,-12.25));
#1773=CARTESIAN_POINT('',(101.05497129827,-100.249277156103,-12.25));
#1774=CARTESIAN_POINT('Origin',(38.7558730848285,-76.9919074099575,-12.25));
#1775=CARTESIAN_POINT('',(37.1558730848285,-76.9919074099575,-12.25));
#1776=CARTESIAN_POINT('Origin',(38.7645008184253,-47.7301589050883,-16.25));
#1777=CARTESIAN_POINT('',(121.457451447585,-77.8279315177471,-16.25));
#1778=CARTESIAN_POINT('Origin',(108.802706144536,-112.596558486826,-16.25));
#1779=CARTESIAN_POINT('',(108.802706144536,-112.596558486826,-16.25));
#1780=CARTESIAN_POINT('Origin',(108.118665857884,-114.475943728398,-16.25));
#1781=CARTESIAN_POINT('',(108.118665857884,-114.475943728398,-16.25));
#1782=CARTESIAN_POINT('Origin',(122.141491734237,-75.9485462761753,-16.25));
#1783=CARTESIAN_POINT('Origin',(60.,-82.75,9.24999999999999));
#1784=CARTESIAN_POINT('',(60.,-82.75,9.24999999999999));
#1785=CARTESIAN_POINT('',(60.,-82.75,9.24999999999999));
#1786=CARTESIAN_POINT('',(60.,-64.25,9.24999999999999));
#1787=CARTESIAN_POINT('',(60.,-82.75,9.24999999999999));
#1788=CARTESIAN_POINT('',(60.,-64.25,9.24999999999999));
#1789=CARTESIAN_POINT('',(60.,-81.25,7.75));
#1790=CARTESIAN_POINT('',(60.,-65.75,7.75));
#1791=CARTESIAN_POINT('',(60.,-74.25,7.75));
#1792=CARTESIAN_POINT('',(60.,-81.25,-7.75));
#1793=CARTESIAN_POINT('',(60.,-81.25,8.49999999999999));
#1794=CARTESIAN_POINT('',(60.,-65.75,-7.75));
#1795=CARTESIAN_POINT('',(60.,-82.,-7.75));
#1796=CARTESIAN_POINT('',(60.,-65.75,0.749999999999996));
#1797=CARTESIAN_POINT('Origin',(-40.0283120981326,-109.25,-16.25));
#1798=CARTESIAN_POINT('',(-16.0765049222604,-43.4429506291599,-16.25));
#1799=CARTESIAN_POINT('',(-16.0765049222604,-43.44295062916,-16.25));
#1800=CARTESIAN_POINT('',(0.,0.726883628501679,-16.25));
#1801=CARTESIAN_POINT('',(0.,0.72688362850168,-8.125));
#1802=CARTESIAN_POINT('',(14.0212676903984,39.25,-16.25));
#1803=CARTESIAN_POINT('Origin',(20.,0.,-16.25));
#1804=CARTESIAN_POINT('',(-14.1971196806886,-44.1269909158113,-16.25));
#1805=CARTESIAN_POINT('',(-7.12947475914431,-46.6994032936161,-16.25));
#1806=CARTESIAN_POINT('',(0.,9.25,-16.25));
#1807=CARTESIAN_POINT('',(0.,9.25,-16.25));
#1808=CARTESIAN_POINT('',(3.10216066241234,9.25,-16.25));
#1809=CARTESIAN_POINT('',(40.,9.25,-16.25));
#1810=CARTESIAN_POINT('',(14.0212676903984,39.25,-16.25));
#1811=CARTESIAN_POINT('',(14.0212676903984,39.25,-16.25));
#1812=CARTESIAN_POINT('',(15.9006529319702,38.5659597133487,-16.25));
#1813=CARTESIAN_POINT('',(52.5486651426207,25.2271741236476,-16.25));
#1814=CARTESIAN_POINT('',(-17.0818009706106,-52.0525876221952,-16.25));
#1815=CARTESIAN_POINT('Origin',(60.,-71.132533947869,-16.25));
#1816=CARTESIAN_POINT('',(-14.1971196806886,-44.1269909158113,-16.25));
#1817=CARTESIAN_POINT('Origin',(52.5486651426207,25.2271741236476,-16.25));
#1818=CARTESIAN_POINT('',(52.5486651426207,25.2271741236476,-16.25));
#1819=CARTESIAN_POINT('Origin',(15.0646288241806,-44.1356186494081,-12.25));
#1820=CARTESIAN_POINT('',(13.4646288241806,-44.1356186494081,-12.25));
#1821=CARTESIAN_POINT('Origin',(38.321998570326,19.7634795640337,-12.25));
#1822=CARTESIAN_POINT('',(36.721998570326,19.7634795640337,-12.25));
#1823=CARTESIAN_POINT('Origin',(-1.84983834996577,-37.9792560695461,-12.25));
#1824=CARTESIAN_POINT('',(-3.44983834996577,-37.9792560695461,-12.25));
#1825=CARTESIAN_POINT('Origin',(21.4075313961797,25.9198421438957,-12.25));
#1826=CARTESIAN_POINT('',(19.8075313961797,25.9198421438957,-12.25));
#1827=CARTESIAN_POINT('Origin',(-38.1489268565608,-109.934040286651,-16.25));
#1828=CARTESIAN_POINT('',(15.9006529319702,38.5659597133487,-16.25));
#1829=CARTESIAN_POINT('Origin',(-40.0283120981326,-109.25,-16.25));
#1830=CARTESIAN_POINT('',(3.10216066241235,9.25000000000001,-3.5));
#1831=CARTESIAN_POINT('',(14.0212676903984,39.25,-16.25));
#1832=CARTESIAN_POINT('Origin',(14.0212676903984,39.25,-16.25));
#1833=CARTESIAN_POINT('Origin',(0.,-9.25,-9.25));
#1834=CARTESIAN_POINT('',(30.,-9.25,9.25));
#1835=CARTESIAN_POINT('',(30.,-9.25,-9.25));
#1836=CARTESIAN_POINT('',(0.,-9.25,9.25));
#1837=CARTESIAN_POINT('',(0.,-9.25,9.25));
#1838=CARTESIAN_POINT('',(0.,-9.25,-9.25));
#1839=CARTESIAN_POINT('Origin',(0.,0.,0.));
#1840=CARTESIAN_POINT('',(0.,9.25,9.25));
#1841=CARTESIAN_POINT('',(0.,-9.25,9.25));
#1842=CARTESIAN_POINT('',(0.,9.25,9.25));
#1843=CARTESIAN_POINT('',(0.,-7.75,7.75));
#1844=CARTESIAN_POINT('',(0.,-7.75,-7.75));
#1845=CARTESIAN_POINT('',(0.,-7.75,7.75));
#1846=CARTESIAN_POINT('',(0.,7.75,-7.75));
#1847=CARTESIAN_POINT('',(0.,-7.75,-7.75));
#1848=CARTESIAN_POINT('',(0.,7.75,7.75));
#1849=CARTESIAN_POINT('',(0.,7.75,-7.75));
#1850=CARTESIAN_POINT('',(0.,7.75,7.75));
#1851=CARTESIAN_POINT('Origin',(10.,0.,9.25));
#1852=CARTESIAN_POINT('',(11.6,1.95943487863577E-16,-7.75));
#1853=CARTESIAN_POINT('Origin',(10.,0.,-7.75));
#1854=CARTESIAN_POINT('',(11.6,1.95943487863577E-16,9.25));
#1855=CARTESIAN_POINT('Origin',(10.,0.,9.25));
#1856=CARTESIAN_POINT('',(11.6,1.95943487863577E-16,9.25));
#1857=CARTESIAN_POINT('Origin',(10.,0.,9.25));
#1858=CARTESIAN_POINT('',(11.6,-1.95943487863577E-16,7.75));
#1859=CARTESIAN_POINT('',(11.6,1.95943487863577E-16,9.25));
#1860=CARTESIAN_POINT('Origin',(10.,0.,7.75));
#1861=CARTESIAN_POINT('Origin',(0.,7.75,7.75));
#1862=CARTESIAN_POINT('',(30.,7.75,7.75));
#1863=CARTESIAN_POINT('',(0.,7.75,7.75));
#1864=CARTESIAN_POINT('',(30.,-7.75,7.75));
#1865=CARTESIAN_POINT('',(30.,7.75,7.75));
#1866=CARTESIAN_POINT('',(0.,-7.75,7.75));
#1867=CARTESIAN_POINT('Origin',(0.,7.75,-7.75));
#1868=CARTESIAN_POINT('',(30.,7.75,-7.75));
#1869=CARTESIAN_POINT('',(0.,7.75,-7.75));
#1870=CARTESIAN_POINT('',(30.,7.75,-7.75));
#1871=CARTESIAN_POINT('Origin',(0.,-7.75,-7.75));
#1872=CARTESIAN_POINT('',(30.,-7.75,-7.75));
#1873=CARTESIAN_POINT('',(0.,-7.75,-7.75));
#1874=CARTESIAN_POINT('',(30.,-7.75,-7.75));
#1875=CARTESIAN_POINT('Origin',(0.,-7.75,7.75));
#1876=CARTESIAN_POINT('',(30.,-7.75,7.75));
#1877=CARTESIAN_POINT('Origin',(0.,9.25,9.25));
#1878=CARTESIAN_POINT('',(30.,9.25,9.25));
#1879=CARTESIAN_POINT('',(0.,9.25,9.25));
#1880=CARTESIAN_POINT('',(30.,9.25,9.25));
#1881=CARTESIAN_POINT('Origin',(0.,-9.25,9.25));
#1882=CARTESIAN_POINT('',(30.,-9.25,9.25));
#1883=CARTESIAN_POINT('Origin',(30.,0.,0.));
#1884=CARTESIAN_POINT('Origin',(90.,-81.25,-7.75));
#1885=CARTESIAN_POINT('',(90.,-81.25,-7.75));
#1886=CARTESIAN_POINT('',(90.,-81.25,-7.75));
#1887=CARTESIAN_POINT('',(90.,-65.75,-7.75));
#1888=CARTESIAN_POINT('',(90.,-82.,-7.74999999999999));
#1889=CARTESIAN_POINT('',(90.,-65.75,-7.75));
#1890=CARTESIAN_POINT('Origin',(90.,-81.25,7.75));
#1891=CARTESIAN_POINT('',(90.,-81.25,7.75));
#1892=CARTESIAN_POINT('',(90.,-81.25,7.75));
#1893=CARTESIAN_POINT('',(90.,-81.25,-0.750000000000004));
#1894=CARTESIAN_POINT('Origin',(90.,-65.75,7.75));
#1895=CARTESIAN_POINT('',(90.,-65.75,7.75));
#1896=CARTESIAN_POINT('',(90.,-65.75,7.75));
#1897=CARTESIAN_POINT('',(90.,-74.25,7.75));
#1898=CARTESIAN_POINT('Origin',(90.,-65.75,-7.75));
#1899=CARTESIAN_POINT('',(90.,-65.75,-8.5));
#1900=CARTESIAN_POINT('Origin',(90.,-82.75,9.25));
#1901=CARTESIAN_POINT('',(90.,-82.75,9.25));
#1902=CARTESIAN_POINT('',(90.,-82.75,9.25));
#1903=CARTESIAN_POINT('',(90.,-64.25,9.25));
#1904=CARTESIAN_POINT('',(90.,-82.75,9.25));
#1905=CARTESIAN_POINT('',(90.,-64.25,9.25));
#1906=CARTESIAN_POINT('Origin',(90.,-82.75,-9.25000000000001));
#1907=CARTESIAN_POINT('',(90.,-64.25,-9.25000000000001));
#1908=CARTESIAN_POINT('',(90.,-82.75,-9.25000000000001));
#1909=CARTESIAN_POINT('Origin',(75.,-64.25,-4.44089209850063E-15));
#1910=CARTESIAN_POINT('Origin',(75.,-82.75,-4.9960036108132E-15));
#1911=UNCERTAINTY_MEASURE_WITH_UNIT(LENGTH_MEASURE(0.01),#1915,
'DISTANCE_ACCURACY_VALUE',
'Maximum model space distance between geometric entities at asserted c
onnectivities');
#1912=UNCERTAINTY_MEASURE_WITH_UNIT(LENGTH_MEASURE(0.01),#1915,
'DISTANCE_ACCURACY_VALUE',
'Maximum model space distance between geometric entities at asserted c
onnectivities');
#1913=(
GEOMETRIC_REPRESENTATION_CONTEXT(3)
GLOBAL_UNCERTAINTY_ASSIGNED_CONTEXT((#1911))
GLOBAL_UNIT_ASSIGNED_CONTEXT((#1915,#1917,#1918))
REPRESENTATION_CONTEXT('','3D')
);
#1914=(
GEOMETRIC_REPRESENTATION_CONTEXT(3)
GLOBAL_UNCERTAINTY_ASSIGNED_CONTEXT((#1912))
GLOBAL_UNIT_ASSIGNED_CONTEXT((#1915,#1917,#1918))
REPRESENTATION_CONTEXT('','3D')
);
#1915=(
LENGTH_UNIT()
NAMED_UNIT(*)
SI_UNIT(.MILLI.,.METRE.)
);
#1916=(
LENGTH_UNIT()
NAMED_UNIT(*)
SI_UNIT(.CENTI.,.METRE.)
);
#1917=(
NAMED_UNIT(*)
PLANE_ANGLE_UNIT()
SI_UNIT($,.RADIAN.)
);
#1918=(
NAMED_UNIT(*)
SI_UNIT($,.STERADIAN.)
SOLID_ANGLE_UNIT()
);
#1919=SHAPE_DEFINITION_REPRESENTATION(#1920,#1921);
#1920=PRODUCT_DEFINITION_SHAPE('',$,#1923);
#1921=SHAPE_REPRESENTATION('',(#1206),#1913);
#1922=PRODUCT_DEFINITION_CONTEXT('part definition',#1927,'design');
#1923=PRODUCT_DEFINITION('back_base_MIR','back_base_MIR',#1924,#1922);
#1924=PRODUCT_DEFINITION_FORMATION('',$,#1929);
#1925=PRODUCT_RELATED_PRODUCT_CATEGORY('back_base_MIR','back_base_MIR',
(#1929));
#1926=APPLICATION_PROTOCOL_DEFINITION('international standard',
'automotive_design',2009,#1927);
#1927=APPLICATION_CONTEXT(
'Core Data for Automotive Mechanical Design Process');
#1928=PRODUCT_CONTEXT('part definition',#1927,'mechanical');
#1929=PRODUCT('back_base_MIR','back_base_MIR',$,(#1928));
#1930=PRESENTATION_STYLE_ASSIGNMENT((#1932));
#1931=PRESENTATION_STYLE_ASSIGNMENT((#1933));
#1932=SURFACE_STYLE_USAGE(.BOTH.,#1938);
#1933=SURFACE_STYLE_USAGE(.BOTH.,#1939);
#1934=SURFACE_STYLE_RENDERING_WITH_PROPERTIES($,#1946,(#1936));
#1935=SURFACE_STYLE_RENDERING_WITH_PROPERTIES($,#1947,(#1937));
#1936=SURFACE_STYLE_TRANSPARENT(0.);
#1937=SURFACE_STYLE_TRANSPARENT(0.);
#1938=SURFACE_SIDE_STYLE('',(#1940,#1934));
#1939=SURFACE_SIDE_STYLE('',(#1941,#1935));
#1940=SURFACE_STYLE_FILL_AREA(#1942);
#1941=SURFACE_STYLE_FILL_AREA(#1943);
#1942=FILL_AREA_STYLE('',(#1944));
#1943=FILL_AREA_STYLE('',(#1945));
#1944=FILL_AREA_STYLE_COLOUR('',#1946);
#1945=FILL_AREA_STYLE_COLOUR('',#1947);
#1946=COLOUR_RGB('',0.749019607843137,0.749019607843137,0.749019607843137);
#1947=COLOUR_RGB('',0.352941176470588,0.352941176470588,0.352941176470588);
ENDSEC;
END-ISO-10303-21;
