ISO-10303-21;
HEADER;
/* Generated by software containing ST-Developer
 * from STEP Tools, Inc. (www.steptools.com) 
 */

FILE_DESCRIPTION(
/* description */ (''),
/* implementation_level */ '2;1');

FILE_NAME(
/* name */ 'belt_fix.stp',
/* time_stamp */ '2026-02-05T12:04:19+09:00',
/* author */ ('hibik'),
/* organization */ (''),
/* preprocessor_version */ 'ST-DEVELOPER v20.1',
/* originating_system */ 'Autodesk Inventor 2026',
/* authorisation */ '');

FILE_SCHEMA (('AUTOMOTIVE_DESIGN { 1 0 10303 214 3 1 1 }'));
ENDSEC;

DATA;
#10=MECHANICAL_DESIGN_GEOMETRIC_PRESENTATION_REPRESENTATION('',(#13),#360);
#11=SHAPE_REPRESENTATION_RELATIONSHIP('SRR','None',#367,#12);
#12=ADVANCED_BREP_SHAPE_REPRESENTATION('',(#14),#359);
#13=STYLED_ITEM('',(#377),#14);
#14=MANIFOLD_SOLID_BREP('\X2\30BD30EA30C330C9\X0\1',#203);
#15=FACE_BOUND('',#45,.T.);
#16=FACE_BOUND('',#48,.T.);
#17=FACE_BOUND('',#54,.T.);
#18=FACE_BOUND('',#55,.T.);
#19=FACE_BOUND('',#57,.T.);
#20=FACE_BOUND('',#58,.T.);
#21=PLANE('',#235);
#22=PLANE('',#239);
#23=PLANE('',#240);
#24=PLANE('',#241);
#25=PLANE('',#242);
#26=PLANE('',#243);
#27=PLANE('',#244);
#28=PLANE('',#245);
#29=FACE_OUTER_BOUND('',#41,.T.);
#30=FACE_OUTER_BOUND('',#42,.T.);
#31=FACE_OUTER_BOUND('',#43,.T.);
#32=FACE_OUTER_BOUND('',#44,.T.);
#33=FACE_OUTER_BOUND('',#46,.T.);
#34=FACE_OUTER_BOUND('',#47,.T.);
#35=FACE_OUTER_BOUND('',#49,.T.);
#36=FACE_OUTER_BOUND('',#50,.T.);
#37=FACE_OUTER_BOUND('',#51,.T.);
#38=FACE_OUTER_BOUND('',#52,.T.);
#39=FACE_OUTER_BOUND('',#53,.T.);
#40=FACE_OUTER_BOUND('',#56,.T.);
#41=EDGE_LOOP('',(#139,#140,#141,#142));
#42=EDGE_LOOP('',(#143,#144,#145,#146));
#43=EDGE_LOOP('',(#147,#148,#149,#150));
#44=EDGE_LOOP('',(#151));
#45=EDGE_LOOP('',(#152));
#46=EDGE_LOOP('',(#153,#154,#155,#156));
#47=EDGE_LOOP('',(#157));
#48=EDGE_LOOP('',(#158));
#49=EDGE_LOOP('',(#159,#160,#161,#162));
#50=EDGE_LOOP('',(#163,#164,#165,#166));
#51=EDGE_LOOP('',(#167,#168,#169,#170));
#52=EDGE_LOOP('',(#171,#172,#173,#174));
#53=EDGE_LOOP('',(#175,#176,#177,#178));
#54=EDGE_LOOP('',(#179));
#55=EDGE_LOOP('',(#180));
#56=EDGE_LOOP('',(#181,#182,#183,#184));
#57=EDGE_LOOP('',(#185));
#58=EDGE_LOOP('',(#186));
#59=LINE('',#309,#75);
#60=LINE('',#315,#76);
#61=LINE('',#321,#77);
#62=LINE('',#328,#78);
#63=LINE('',#334,#79);
#64=LINE('',#336,#80);
#65=LINE('',#338,#81);
#66=LINE('',#339,#82);
#67=LINE('',#342,#83);
#68=LINE('',#344,#84);
#69=LINE('',#345,#85);
#70=LINE('',#348,#86);
#71=LINE('',#350,#87);
#72=LINE('',#351,#88);
#73=LINE('',#353,#89);
#74=LINE('',#354,#90);
#75=VECTOR('',#252,1.6);
#76=VECTOR('',#259,1.6);
#77=VECTOR('',#266,2.75);
#78=VECTOR('',#275,2.75);
#79=VECTOR('',#282,10.);
#80=VECTOR('',#283,10.);
#81=VECTOR('',#284,10.);
#82=VECTOR('',#285,10.);
#83=VECTOR('',#288,10.);
#84=VECTOR('',#289,10.);
#85=VECTOR('',#290,10.);
#86=VECTOR('',#293,10.);
#87=VECTOR('',#294,10.);
#88=VECTOR('',#295,10.);
#89=VECTOR('',#298,10.);
#90=VECTOR('',#299,10.);
#91=CIRCLE('',#227,1.6);
#92=CIRCLE('',#228,1.6);
#93=CIRCLE('',#230,1.6);
#94=CIRCLE('',#231,1.6);
#95=CIRCLE('',#233,2.75);
#96=CIRCLE('',#234,2.75);
#97=CIRCLE('',#237,2.75);
#98=CIRCLE('',#238,2.75);
#99=VERTEX_POINT('',#306);
#100=VERTEX_POINT('',#308);
#101=VERTEX_POINT('',#312);
#102=VERTEX_POINT('',#314);
#103=VERTEX_POINT('',#318);
#104=VERTEX_POINT('',#320);
#105=VERTEX_POINT('',#325);
#106=VERTEX_POINT('',#327);
#107=VERTEX_POINT('',#332);
#108=VERTEX_POINT('',#333);
#109=VERTEX_POINT('',#335);
#110=VERTEX_POINT('',#337);
#111=VERTEX_POINT('',#341);
#112=VERTEX_POINT('',#343);
#113=VERTEX_POINT('',#347);
#114=VERTEX_POINT('',#349);
#115=EDGE_CURVE('',#99,#99,#91,.T.);
#116=EDGE_CURVE('',#99,#100,#59,.T.);
#117=EDGE_CURVE('',#100,#100,#92,.T.);
#118=EDGE_CURVE('',#101,#101,#93,.T.);
#119=EDGE_CURVE('',#101,#102,#60,.T.);
#120=EDGE_CURVE('',#102,#102,#94,.T.);
#121=EDGE_CURVE('',#103,#103,#95,.T.);
#122=EDGE_CURVE('',#103,#104,#61,.T.);
#123=EDGE_CURVE('',#104,#104,#96,.T.);
#124=EDGE_CURVE('',#105,#105,#97,.T.);
#125=EDGE_CURVE('',#105,#106,#62,.T.);
#126=EDGE_CURVE('',#106,#106,#98,.T.);
#127=EDGE_CURVE('',#107,#108,#63,.T.);
#128=EDGE_CURVE('',#108,#109,#64,.T.);
#129=EDGE_CURVE('',#110,#109,#65,.T.);
#130=EDGE_CURVE('',#107,#110,#66,.T.);
#131=EDGE_CURVE('',#111,#107,#67,.T.);
#132=EDGE_CURVE('',#112,#110,#68,.T.);
#133=EDGE_CURVE('',#111,#112,#69,.T.);
#134=EDGE_CURVE('',#113,#111,#70,.T.);
#135=EDGE_CURVE('',#114,#112,#71,.T.);
#136=EDGE_CURVE('',#113,#114,#72,.T.);
#137=EDGE_CURVE('',#108,#113,#73,.T.);
#138=EDGE_CURVE('',#109,#114,#74,.T.);
#139=ORIENTED_EDGE('',*,*,#115,.F.);
#140=ORIENTED_EDGE('',*,*,#116,.T.);
#141=ORIENTED_EDGE('',*,*,#117,.F.);
#142=ORIENTED_EDGE('',*,*,#116,.F.);
#143=ORIENTED_EDGE('',*,*,#118,.F.);
#144=ORIENTED_EDGE('',*,*,#119,.T.);
#145=ORIENTED_EDGE('',*,*,#120,.F.);
#146=ORIENTED_EDGE('',*,*,#119,.F.);
#147=ORIENTED_EDGE('',*,*,#121,.F.);
#148=ORIENTED_EDGE('',*,*,#122,.T.);
#149=ORIENTED_EDGE('',*,*,#123,.F.);
#150=ORIENTED_EDGE('',*,*,#122,.F.);
#151=ORIENTED_EDGE('',*,*,#121,.T.);
#152=ORIENTED_EDGE('',*,*,#118,.T.);
#153=ORIENTED_EDGE('',*,*,#124,.F.);
#154=ORIENTED_EDGE('',*,*,#125,.T.);
#155=ORIENTED_EDGE('',*,*,#126,.F.);
#156=ORIENTED_EDGE('',*,*,#125,.F.);
#157=ORIENTED_EDGE('',*,*,#124,.T.);
#158=ORIENTED_EDGE('',*,*,#115,.T.);
#159=ORIENTED_EDGE('',*,*,#127,.T.);
#160=ORIENTED_EDGE('',*,*,#128,.T.);
#161=ORIENTED_EDGE('',*,*,#129,.F.);
#162=ORIENTED_EDGE('',*,*,#130,.F.);
#163=ORIENTED_EDGE('',*,*,#131,.T.);
#164=ORIENTED_EDGE('',*,*,#130,.T.);
#165=ORIENTED_EDGE('',*,*,#132,.F.);
#166=ORIENTED_EDGE('',*,*,#133,.F.);
#167=ORIENTED_EDGE('',*,*,#134,.T.);
#168=ORIENTED_EDGE('',*,*,#133,.T.);
#169=ORIENTED_EDGE('',*,*,#135,.F.);
#170=ORIENTED_EDGE('',*,*,#136,.F.);
#171=ORIENTED_EDGE('',*,*,#137,.T.);
#172=ORIENTED_EDGE('',*,*,#136,.T.);
#173=ORIENTED_EDGE('',*,*,#138,.F.);
#174=ORIENTED_EDGE('',*,*,#128,.F.);
#175=ORIENTED_EDGE('',*,*,#138,.T.);
#176=ORIENTED_EDGE('',*,*,#135,.T.);
#177=ORIENTED_EDGE('',*,*,#132,.T.);
#178=ORIENTED_EDGE('',*,*,#129,.T.);
#179=ORIENTED_EDGE('',*,*,#117,.T.);
#180=ORIENTED_EDGE('',*,*,#120,.T.);
#181=ORIENTED_EDGE('',*,*,#137,.F.);
#182=ORIENTED_EDGE('',*,*,#127,.F.);
#183=ORIENTED_EDGE('',*,*,#131,.F.);
#184=ORIENTED_EDGE('',*,*,#134,.F.);
#185=ORIENTED_EDGE('',*,*,#123,.T.);
#186=ORIENTED_EDGE('',*,*,#126,.T.);
#187=CYLINDRICAL_SURFACE('',#226,1.6);
#188=CYLINDRICAL_SURFACE('',#229,1.6);
#189=CYLINDRICAL_SURFACE('',#232,2.75);
#190=CYLINDRICAL_SURFACE('',#236,2.75);
#191=ADVANCED_FACE('',(#29),#187,.F.);
#192=ADVANCED_FACE('',(#30),#188,.F.);
#193=ADVANCED_FACE('',(#31),#189,.T.);
#194=ADVANCED_FACE('',(#32,#15),#21,.T.);
#195=ADVANCED_FACE('',(#33),#190,.T.);
#196=ADVANCED_FACE('',(#34,#16),#22,.T.);
#197=ADVANCED_FACE('',(#35),#23,.T.);
#198=ADVANCED_FACE('',(#36),#24,.T.);
#199=ADVANCED_FACE('',(#37),#25,.T.);
#200=ADVANCED_FACE('',(#38),#26,.T.);
#201=ADVANCED_FACE('',(#39,#17,#18),#27,.T.);
#202=ADVANCED_FACE('',(#40,#19,#20),#28,.F.);
#203=CLOSED_SHELL('',(#191,#192,#193,#194,#195,#196,#197,#198,#199,#200,
#201,#202));
#204=DERIVED_UNIT_ELEMENT(#207,1.);
#205=DERIVED_UNIT_ELEMENT(#362,-3.);
#206=DIMENSIONAL_EXPONENTS(0.,1.,0.,0.,0.,0.,0.);
#207=(
CONVERSION_BASED_UNIT('gram',#209)
MASS_UNIT()
NAMED_UNIT(#206)
);
#208=(
MASS_UNIT()
NAMED_UNIT(*)
SI_UNIT(.KILO.,.GRAM.)
);
#209=MASS_MEASURE_WITH_UNIT(MASS_MEASURE(0.001),#208);
#210=DERIVED_UNIT((#204,#205));
#211=MEASURE_REPRESENTATION_ITEM('density measure',
POSITIVE_RATIO_MEASURE(1.),#210);
#212=PROPERTY_DEFINITION_REPRESENTATION(#217,#214);
#213=PROPERTY_DEFINITION_REPRESENTATION(#218,#215);
#214=REPRESENTATION('material name',(#216),#359);
#215=REPRESENTATION('density',(#211),#359);
#216=DESCRIPTIVE_REPRESENTATION_ITEM('\X2\4E00822C\X0\','\X2\4E00822C\X0\');
#217=PROPERTY_DEFINITION('material property','material name',#369);
#218=PROPERTY_DEFINITION('material property','density of part',#369);
#219=DATE_TIME_ROLE('creation_date');
#220=APPLIED_DATE_AND_TIME_ASSIGNMENT(#221,#219,(#369));
#221=DATE_AND_TIME(#222,#223);
#222=CALENDAR_DATE(2026,4,2);
#223=LOCAL_TIME(0,0,0.,#224);
#224=COORDINATED_UNIVERSAL_TIME_OFFSET(0,0,.BEHIND.);
#225=AXIS2_PLACEMENT_3D('',#304,#246,#247);
#226=AXIS2_PLACEMENT_3D('',#305,#248,#249);
#227=AXIS2_PLACEMENT_3D('',#307,#250,#251);
#228=AXIS2_PLACEMENT_3D('',#310,#253,#254);
#229=AXIS2_PLACEMENT_3D('',#311,#255,#256);
#230=AXIS2_PLACEMENT_3D('',#313,#257,#258);
#231=AXIS2_PLACEMENT_3D('',#316,#260,#261);
#232=AXIS2_PLACEMENT_3D('',#317,#262,#263);
#233=AXIS2_PLACEMENT_3D('',#319,#264,#265);
#234=AXIS2_PLACEMENT_3D('',#322,#267,#268);
#235=AXIS2_PLACEMENT_3D('',#323,#269,#270);
#236=AXIS2_PLACEMENT_3D('',#324,#271,#272);
#237=AXIS2_PLACEMENT_3D('',#326,#273,#274);
#238=AXIS2_PLACEMENT_3D('',#329,#276,#277);
#239=AXIS2_PLACEMENT_3D('',#330,#278,#279);
#240=AXIS2_PLACEMENT_3D('',#331,#280,#281);
#241=AXIS2_PLACEMENT_3D('',#340,#286,#287);
#242=AXIS2_PLACEMENT_3D('',#346,#291,#292);
#243=AXIS2_PLACEMENT_3D('',#352,#296,#297);
#244=AXIS2_PLACEMENT_3D('',#355,#300,#301);
#245=AXIS2_PLACEMENT_3D('',#356,#302,#303);
#246=DIRECTION('axis',(0.,0.,1.));
#247=DIRECTION('refdir',(1.,0.,0.));
#248=DIRECTION('center_axis',(0.,0.,1.));
#249=DIRECTION('ref_axis',(-1.,0.,0.));
#250=DIRECTION('center_axis',(0.,0.,1.));
#251=DIRECTION('ref_axis',(-1.,0.,0.));
#252=DIRECTION('',(0.,0.,1.));
#253=DIRECTION('center_axis',(0.,0.,-1.));
#254=DIRECTION('ref_axis',(-1.,0.,0.));
#255=DIRECTION('center_axis',(0.,0.,1.));
#256=DIRECTION('ref_axis',(-1.,0.,0.));
#257=DIRECTION('center_axis',(0.,0.,1.));
#258=DIRECTION('ref_axis',(-1.,0.,0.));
#259=DIRECTION('',(0.,0.,1.));
#260=DIRECTION('center_axis',(0.,0.,-1.));
#261=DIRECTION('ref_axis',(-1.,0.,0.));
#262=DIRECTION('center_axis',(0.,0.,-1.));
#263=DIRECTION('ref_axis',(-1.,0.,0.));
#264=DIRECTION('center_axis',(0.,0.,-1.));
#265=DIRECTION('ref_axis',(-1.,0.,0.));
#266=DIRECTION('',(0.,0.,1.));
#267=DIRECTION('center_axis',(0.,0.,1.));
#268=DIRECTION('ref_axis',(-1.,0.,0.));
#269=DIRECTION('center_axis',(0.,0.,-1.));
#270=DIRECTION('ref_axis',(-1.,0.,0.));
#271=DIRECTION('center_axis',(0.,0.,-1.));
#272=DIRECTION('ref_axis',(-1.,0.,0.));
#273=DIRECTION('center_axis',(0.,0.,-1.));
#274=DIRECTION('ref_axis',(-1.,0.,0.));
#275=DIRECTION('',(0.,0.,1.));
#276=DIRECTION('center_axis',(0.,0.,1.));
#277=DIRECTION('ref_axis',(-1.,0.,0.));
#278=DIRECTION('center_axis',(0.,0.,-1.));
#279=DIRECTION('ref_axis',(-1.,0.,0.));
#280=DIRECTION('center_axis',(-1.,2.22044604925031E-16,0.));
#281=DIRECTION('ref_axis',(-2.22044604925031E-16,-1.,0.));
#282=DIRECTION('',(-2.22044604925031E-16,-1.,0.));
#283=DIRECTION('',(0.,0.,1.));
#284=DIRECTION('',(-2.22044604925031E-16,-1.,0.));
#285=DIRECTION('',(0.,0.,1.));
#286=DIRECTION('center_axis',(0.,1.,0.));
#287=DIRECTION('ref_axis',(-1.,0.,0.));
#288=DIRECTION('',(-1.,0.,0.));
#289=DIRECTION('',(-1.,0.,0.));
#290=DIRECTION('',(0.,0.,1.));
#291=DIRECTION('center_axis',(1.,2.22044604925031E-16,0.));
#292=DIRECTION('ref_axis',(-2.22044604925031E-16,1.,0.));
#293=DIRECTION('',(-2.22044604925031E-16,1.,0.));
#294=DIRECTION('',(-2.22044604925031E-16,1.,0.));
#295=DIRECTION('',(0.,0.,1.));
#296=DIRECTION('center_axis',(0.,-1.,0.));
#297=DIRECTION('ref_axis',(1.,0.,0.));
#298=DIRECTION('',(1.,0.,0.));
#299=DIRECTION('',(1.,0.,0.));
#300=DIRECTION('center_axis',(0.,0.,1.));
#301=DIRECTION('ref_axis',(1.,0.,0.));
#302=DIRECTION('center_axis',(0.,0.,1.));
#303=DIRECTION('ref_axis',(1.,0.,0.));
#304=CARTESIAN_POINT('',(0.,0.,0.));
#305=CARTESIAN_POINT('Origin',(-9.,0.,-2.5));
#306=CARTESIAN_POINT('',(-7.4,1.95943487863577E-16,-2.5));
#307=CARTESIAN_POINT('Origin',(-9.,0.,-2.5));
#308=CARTESIAN_POINT('',(-7.4,-1.95943487863577E-16,1.5));
#309=CARTESIAN_POINT('',(-7.4,1.95943487863577E-16,-2.5));
#310=CARTESIAN_POINT('Origin',(-9.,0.,1.5));
#311=CARTESIAN_POINT('Origin',(9.,0.,-2.5));
#312=CARTESIAN_POINT('',(10.6,1.95943487863577E-16,-2.5));
#313=CARTESIAN_POINT('Origin',(9.,0.,-2.5));
#314=CARTESIAN_POINT('',(10.6,-1.95943487863577E-16,1.5));
#315=CARTESIAN_POINT('',(10.6,1.95943487863577E-16,-2.5));
#316=CARTESIAN_POINT('Origin',(9.,0.,1.5));
#317=CARTESIAN_POINT('Origin',(9.,0.,0.));
#318=CARTESIAN_POINT('',(11.75,-3.36777869765522E-16,-2.5));
#319=CARTESIAN_POINT('Origin',(9.,0.,-2.5));
#320=CARTESIAN_POINT('',(11.75,-3.36777869765522E-16,0.));
#321=CARTESIAN_POINT('',(11.75,-3.36777869765522E-16,0.));
#322=CARTESIAN_POINT('Origin',(9.,0.,0.));
#323=CARTESIAN_POINT('Origin',(9.,0.,-2.5));
#324=CARTESIAN_POINT('Origin',(-9.,0.,0.));
#325=CARTESIAN_POINT('',(-6.25,-3.36777869765522E-16,-2.5));
#326=CARTESIAN_POINT('Origin',(-9.,0.,-2.5));
#327=CARTESIAN_POINT('',(-6.25,-3.36777869765522E-16,0.));
#328=CARTESIAN_POINT('',(-6.25,-3.36777869765522E-16,0.));
#329=CARTESIAN_POINT('Origin',(-9.,0.,0.));
#330=CARTESIAN_POINT('Origin',(-9.,0.,-2.5));
#331=CARTESIAN_POINT('Origin',(-18.,10.,0.));
#332=CARTESIAN_POINT('',(-18.,10.,0.));
#333=CARTESIAN_POINT('',(-18.,-10.,0.));
#334=CARTESIAN_POINT('',(-18.,10.,0.));
#335=CARTESIAN_POINT('',(-18.,-10.,1.5));
#336=CARTESIAN_POINT('',(-18.,-10.,0.));
#337=CARTESIAN_POINT('',(-18.,10.,1.5));
#338=CARTESIAN_POINT('',(-18.,10.,1.5));
#339=CARTESIAN_POINT('',(-18.,10.,0.));
#340=CARTESIAN_POINT('Origin',(18.,10.,0.));
#341=CARTESIAN_POINT('',(18.,10.,0.));
#342=CARTESIAN_POINT('',(18.,10.,0.));
#343=CARTESIAN_POINT('',(18.,10.,1.5));
#344=CARTESIAN_POINT('',(18.,10.,1.5));
#345=CARTESIAN_POINT('',(18.,10.,0.));
#346=CARTESIAN_POINT('Origin',(18.,-10.,0.));
#347=CARTESIAN_POINT('',(18.,-10.,0.));
#348=CARTESIAN_POINT('',(18.,-10.,0.));
#349=CARTESIAN_POINT('',(18.,-10.,1.5));
#350=CARTESIAN_POINT('',(18.,-10.,1.5));
#351=CARTESIAN_POINT('',(18.,-10.,0.));
#352=CARTESIAN_POINT('Origin',(-18.,-10.,0.));
#353=CARTESIAN_POINT('',(-18.,-10.,0.));
#354=CARTESIAN_POINT('',(-18.,-10.,1.5));
#355=CARTESIAN_POINT('Origin',(0.,0.,1.5));
#356=CARTESIAN_POINT('Origin',(0.,0.,0.));
#357=UNCERTAINTY_MEASURE_WITH_UNIT(LENGTH_MEASURE(0.01),#361,
'DISTANCE_ACCURACY_VALUE',
'Maximum model space distance between geometric entities at asserted c
onnectivities');
#358=UNCERTAINTY_MEASURE_WITH_UNIT(LENGTH_MEASURE(0.01),#361,
'DISTANCE_ACCURACY_VALUE',
'Maximum model space distance between geometric entities at asserted c
onnectivities');
#359=(
GEOMETRIC_REPRESENTATION_CONTEXT(3)
GLOBAL_UNCERTAINTY_ASSIGNED_CONTEXT((#357))
GLOBAL_UNIT_ASSIGNED_CONTEXT((#361,#363,#364))
REPRESENTATION_CONTEXT('','3D')
);
#360=(
GEOMETRIC_REPRESENTATION_CONTEXT(3)
GLOBAL_UNCERTAINTY_ASSIGNED_CONTEXT((#358))
GLOBAL_UNIT_ASSIGNED_CONTEXT((#361,#363,#364))
REPRESENTATION_CONTEXT('','3D')
);
#361=(
LENGTH_UNIT()
NAMED_UNIT(*)
SI_UNIT(.MILLI.,.METRE.)
);
#362=(
LENGTH_UNIT()
NAMED_UNIT(*)
SI_UNIT(.CENTI.,.METRE.)
);
#363=(
NAMED_UNIT(*)
PLANE_ANGLE_UNIT()
SI_UNIT($,.RADIAN.)
);
#364=(
NAMED_UNIT(*)
SI_UNIT($,.STERADIAN.)
SOLID_ANGLE_UNIT()
);
#365=SHAPE_DEFINITION_REPRESENTATION(#366,#367);
#366=PRODUCT_DEFINITION_SHAPE('',$,#369);
#367=SHAPE_REPRESENTATION('',(#225),#359);
#368=PRODUCT_DEFINITION_CONTEXT('part definition',#373,'design');
#369=PRODUCT_DEFINITION('belt_fix','belt_fix',#370,#368);
#370=PRODUCT_DEFINITION_FORMATION('',$,#375);
#371=PRODUCT_RELATED_PRODUCT_CATEGORY('belt_fix','belt_fix',(#375));
#372=APPLICATION_PROTOCOL_DEFINITION('international standard',
'automotive_design',2009,#373);
#373=APPLICATION_CONTEXT(
'Core Data for Automotive Mechanical Design Process');
#374=PRODUCT_CONTEXT('part definition',#373,'mechanical');
#375=PRODUCT('belt_fix','belt_fix',$,(#374));
#376=PRESENTATION_STYLE_ASSIGNMENT((#378));
#377=PRESENTATION_STYLE_ASSIGNMENT((#379));
#378=SURFACE_STYLE_USAGE(.BOTH.,#384);
#379=SURFACE_STYLE_USAGE(.BOTH.,#385);
#380=SURFACE_STYLE_RENDERING_WITH_PROPERTIES($,#392,(#382));
#381=SURFACE_STYLE_RENDERING_WITH_PROPERTIES($,#393,(#383));
#382=SURFACE_STYLE_TRANSPARENT(0.);
#383=SURFACE_STYLE_TRANSPARENT(0.);
#384=SURFACE_SIDE_STYLE('',(#386,#380));
#385=SURFACE_SIDE_STYLE('',(#387,#381));
#386=SURFACE_STYLE_FILL_AREA(#388);
#387=SURFACE_STYLE_FILL_AREA(#389);
#388=FILL_AREA_STYLE('',(#390));
#389=FILL_AREA_STYLE('',(#391));
#390=FILL_AREA_STYLE_COLOUR('',#392);
#391=FILL_AREA_STYLE_COLOUR('',#393);
#392=COLOUR_RGB('',0.749019607843137,0.749019607843137,0.749019607843137);
#393=COLOUR_RGB('',0.352941176470588,0.352941176470588,0.352941176470588);
ENDSEC;
END-ISO-10303-21;
