ISO-10303-21;
HEADER;
/* Generated by software containing ST-Developer
 * from STEP Tools, Inc. (www.steptools.com) 
 */

FILE_DESCRIPTION(
/* description */ (''),
/* implementation_level */ '2;1');

FILE_NAME(
/* name */ 'belt_end.stp',
/* time_stamp */ '2026-02-05T12:04:06+09:00',
/* author */ ('hibik'),
/* organization */ (''),
/* preprocessor_version */ 'ST-DEVELOPER v20.1',
/* originating_system */ 'Autodesk Inventor 2026',
/* authorisation */ '');

FILE_SCHEMA (('AUTOMOTIVE_DESIGN { 1 0 10303 214 3 1 1 }'));
ENDSEC;

DATA;
#10=MECHANICAL_DESIGN_GEOMETRIC_PRESENTATION_REPRESENTATION('',(#13),#1588);
#11=SHAPE_REPRESENTATION_RELATIONSHIP('SRR','None',#1595,#12);
#12=ADVANCED_BREP_SHAPE_REPRESENTATION('',(#14),#1587);
#13=STYLED_ITEM('',(#1605),#14);
#14=MANIFOLD_SOLID_BREP('\X2\30BD30EA30C330C9\X0\1',#983);
#15=FACE_BOUND('',#127,.T.);
#16=FACE_BOUND('',#137,.T.);
#17=FACE_BOUND('',#147,.T.);
#18=FACE_BOUND('',#148,.T.);
#19=FACE_BOUND('',#150,.T.);
#20=FACE_BOUND('',#151,.T.);
#21=FACE_BOUND('',#163,.T.);
#22=FACE_BOUND('',#171,.T.);
#23=FACE_BOUND('',#177,.T.);
#24=FACE_BOUND('',#178,.T.);
#25=FACE_BOUND('',#179,.T.);
#26=FACE_BOUND('',#180,.T.);
#27=FACE_BOUND('',#187,.T.);
#28=FACE_BOUND('',#188,.T.);
#29=FACE_BOUND('',#189,.T.);
#30=FACE_BOUND('',#190,.T.);
#31=PLANE('',#1009);
#32=PLANE('',#1010);
#33=PLANE('',#1011);
#34=PLANE('',#1012);
#35=PLANE('',#1013);
#36=PLANE('',#1014);
#37=PLANE('',#1015);
#38=PLANE('',#1022);
#39=PLANE('',#1023);
#40=PLANE('',#1024);
#41=PLANE('',#1025);
#42=PLANE('',#1026);
#43=PLANE('',#1027);
#44=PLANE('',#1028);
#45=PLANE('',#1032);
#46=PLANE('',#1033);
#47=PLANE('',#1034);
#48=PLANE('',#1035);
#49=PLANE('',#1036);
#50=PLANE('',#1037);
#51=PLANE('',#1038);
#52=PLANE('',#1039);
#53=PLANE('',#1040);
#54=PLANE('',#1041);
#55=PLANE('',#1042);
#56=PLANE('',#1043);
#57=PLANE('',#1044);
#58=PLANE('',#1045);
#59=PLANE('',#1047);
#60=PLANE('',#1048);
#61=PLANE('',#1049);
#62=PLANE('',#1050);
#63=PLANE('',#1051);
#64=PLANE('',#1052);
#65=PLANE('',#1053);
#66=PLANE('',#1059);
#67=PLANE('',#1060);
#68=PLANE('',#1061);
#69=PLANE('',#1062);
#70=PLANE('',#1063);
#71=PLANE('',#1064);
#72=PLANE('',#1065);
#73=PLANE('',#1066);
#74=PLANE('',#1067);
#75=FACE_OUTER_BOUND('',#125,.T.);
#76=FACE_OUTER_BOUND('',#126,.T.);
#77=FACE_OUTER_BOUND('',#128,.T.);
#78=FACE_OUTER_BOUND('',#129,.T.);
#79=FACE_OUTER_BOUND('',#130,.T.);
#80=FACE_OUTER_BOUND('',#131,.T.);
#81=FACE_OUTER_BOUND('',#132,.T.);
#82=FACE_OUTER_BOUND('',#133,.T.);
#83=FACE_OUTER_BOUND('',#134,.T.);
#84=FACE_OUTER_BOUND('',#135,.T.);
#85=FACE_OUTER_BOUND('',#136,.T.);
#86=FACE_OUTER_BOUND('',#138,.T.);
#87=FACE_OUTER_BOUND('',#139,.T.);
#88=FACE_OUTER_BOUND('',#140,.T.);
#89=FACE_OUTER_BOUND('',#141,.T.);
#90=FACE_OUTER_BOUND('',#142,.T.);
#91=FACE_OUTER_BOUND('',#143,.T.);
#92=FACE_OUTER_BOUND('',#144,.T.);
#93=FACE_OUTER_BOUND('',#145,.T.);
#94=FACE_OUTER_BOUND('',#146,.T.);
#95=FACE_OUTER_BOUND('',#149,.T.);
#96=FACE_OUTER_BOUND('',#152,.T.);
#97=FACE_OUTER_BOUND('',#153,.T.);
#98=FACE_OUTER_BOUND('',#154,.T.);
#99=FACE_OUTER_BOUND('',#155,.T.);
#100=FACE_OUTER_BOUND('',#156,.T.);
#101=FACE_OUTER_BOUND('',#157,.T.);
#102=FACE_OUTER_BOUND('',#158,.T.);
#103=FACE_OUTER_BOUND('',#159,.T.);
#104=FACE_OUTER_BOUND('',#160,.T.);
#105=FACE_OUTER_BOUND('',#161,.T.);
#106=FACE_OUTER_BOUND('',#162,.T.);
#107=FACE_OUTER_BOUND('',#164,.T.);
#108=FACE_OUTER_BOUND('',#165,.T.);
#109=FACE_OUTER_BOUND('',#166,.T.);
#110=FACE_OUTER_BOUND('',#167,.T.);
#111=FACE_OUTER_BOUND('',#168,.T.);
#112=FACE_OUTER_BOUND('',#169,.T.);
#113=FACE_OUTER_BOUND('',#170,.T.);
#114=FACE_OUTER_BOUND('',#172,.T.);
#115=FACE_OUTER_BOUND('',#173,.T.);
#116=FACE_OUTER_BOUND('',#174,.T.);
#117=FACE_OUTER_BOUND('',#175,.T.);
#118=FACE_OUTER_BOUND('',#176,.T.);
#119=FACE_OUTER_BOUND('',#181,.T.);
#120=FACE_OUTER_BOUND('',#182,.T.);
#121=FACE_OUTER_BOUND('',#183,.T.);
#122=FACE_OUTER_BOUND('',#184,.T.);
#123=FACE_OUTER_BOUND('',#185,.T.);
#124=FACE_OUTER_BOUND('',#186,.T.);
#125=EDGE_LOOP('',(#663,#664,#665,#666));
#126=EDGE_LOOP('',(#667,#668,#669,#670,#671,#672));
#127=EDGE_LOOP('',(#673));
#128=EDGE_LOOP('',(#674,#675,#676,#677));
#129=EDGE_LOOP('',(#678,#679,#680,#681));
#130=EDGE_LOOP('',(#682,#683,#684,#685));
#131=EDGE_LOOP('',(#686,#687,#688,#689));
#132=EDGE_LOOP('',(#690,#691,#692,#693));
#133=EDGE_LOOP('',(#694,#695,#696,#697));
#134=EDGE_LOOP('',(#698,#699,#700,#701));
#135=EDGE_LOOP('',(#702,#703,#704,#705));
#136=EDGE_LOOP('',(#706,#707,#708,#709,#710,#711));
#137=EDGE_LOOP('',(#712));
#138=EDGE_LOOP('',(#713,#714,#715,#716));
#139=EDGE_LOOP('',(#717,#718,#719,#720));
#140=EDGE_LOOP('',(#721,#722,#723,#724));
#141=EDGE_LOOP('',(#725,#726,#727,#728));
#142=EDGE_LOOP('',(#729,#730,#731,#732));
#143=EDGE_LOOP('',(#733,#734,#735,#736));
#144=EDGE_LOOP('',(#737,#738,#739,#740));
#145=EDGE_LOOP('',(#741,#742,#743,#744));
#146=EDGE_LOOP('',(#745,#746,#747,#748));
#147=EDGE_LOOP('',(#749));
#148=EDGE_LOOP('',(#750));
#149=EDGE_LOOP('',(#751,#752,#753,#754));
#150=EDGE_LOOP('',(#755));
#151=EDGE_LOOP('',(#756));
#152=EDGE_LOOP('',(#757,#758,#759,#760));
#153=EDGE_LOOP('',(#761,#762,#763,#764));
#154=EDGE_LOOP('',(#765,#766,#767,#768));
#155=EDGE_LOOP('',(#769,#770,#771,#772));
#156=EDGE_LOOP('',(#773,#774,#775,#776));
#157=EDGE_LOOP('',(#777,#778,#779,#780));
#158=EDGE_LOOP('',(#781,#782,#783,#784));
#159=EDGE_LOOP('',(#785,#786,#787,#788));
#160=EDGE_LOOP('',(#789,#790,#791,#792));
#161=EDGE_LOOP('',(#793,#794,#795,#796));
#162=EDGE_LOOP('',(#797,#798,#799,#800,#801,#802));
#163=EDGE_LOOP('',(#803));
#164=EDGE_LOOP('',(#804,#805,#806,#807));
#165=EDGE_LOOP('',(#808,#809,#810,#811));
#166=EDGE_LOOP('',(#812,#813,#814,#815));
#167=EDGE_LOOP('',(#816,#817,#818,#819));
#168=EDGE_LOOP('',(#820,#821,#822,#823));
#169=EDGE_LOOP('',(#824,#825,#826,#827));
#170=EDGE_LOOP('',(#828,#829,#830,#831,#832,#833));
#171=EDGE_LOOP('',(#834));
#172=EDGE_LOOP('',(#835,#836,#837,#838));
#173=EDGE_LOOP('',(#839,#840,#841,#842));
#174=EDGE_LOOP('',(#843,#844,#845,#846));
#175=EDGE_LOOP('',(#847,#848,#849,#850));
#176=EDGE_LOOP('',(#851,#852,#853,#854,#855,#856,#857,#858));
#177=EDGE_LOOP('',(#859));
#178=EDGE_LOOP('',(#860));
#179=EDGE_LOOP('',(#861));
#180=EDGE_LOOP('',(#862));
#181=EDGE_LOOP('',(#863,#864,#865,#866));
#182=EDGE_LOOP('',(#867,#868,#869,#870));
#183=EDGE_LOOP('',(#871,#872,#873,#874,#875,#876,#877,#878,#879,#880));
#184=EDGE_LOOP('',(#881,#882,#883,#884,#885,#886,#887,#888));
#185=EDGE_LOOP('',(#889,#890,#891,#892,#893,#894,#895,#896,#897,#898));
#186=EDGE_LOOP('',(#899,#900,#901,#902));
#187=EDGE_LOOP('',(#903,#904,#905,#906,#907,#908));
#188=EDGE_LOOP('',(#909,#910,#911,#912,#913,#914));
#189=EDGE_LOOP('',(#915,#916,#917,#918,#919,#920));
#190=EDGE_LOOP('',(#921,#922,#923,#924,#925,#926));
#191=LINE('',#1319,#311);
#192=LINE('',#1324,#312);
#193=LINE('',#1326,#313);
#194=LINE('',#1328,#314);
#195=LINE('',#1330,#315);
#196=LINE('',#1332,#316);
#197=LINE('',#1333,#317);
#198=LINE('',#1337,#318);
#199=LINE('',#1338,#319);
#200=LINE('',#1339,#320);
#201=LINE('',#1342,#321);
#202=LINE('',#1343,#322);
#203=LINE('',#1346,#323);
#204=LINE('',#1347,#324);
#205=LINE('',#1350,#325);
#206=LINE('',#1351,#326);
#207=LINE('',#1354,#327);
#208=LINE('',#1355,#328);
#209=LINE('',#1357,#329);
#210=LINE('',#1362,#330);
#211=LINE('',#1368,#331);
#212=LINE('',#1373,#332);
#213=LINE('',#1375,#333);
#214=LINE('',#1377,#334);
#215=LINE('',#1379,#335);
#216=LINE('',#1381,#336);
#217=LINE('',#1382,#337);
#218=LINE('',#1386,#338);
#219=LINE('',#1387,#339);
#220=LINE('',#1388,#340);
#221=LINE('',#1391,#341);
#222=LINE('',#1392,#342);
#223=LINE('',#1395,#343);
#224=LINE('',#1396,#344);
#225=LINE('',#1399,#345);
#226=LINE('',#1400,#346);
#227=LINE('',#1403,#347);
#228=LINE('',#1404,#348);
#229=LINE('',#1406,#349);
#230=LINE('',#1411,#350);
#231=LINE('',#1416,#351);
#232=LINE('',#1418,#352);
#233=LINE('',#1420,#353);
#234=LINE('',#1421,#354);
#235=LINE('',#1425,#355);
#236=LINE('',#1426,#356);
#237=LINE('',#1427,#357);
#238=LINE('',#1431,#358);
#239=LINE('',#1432,#359);
#240=LINE('',#1433,#360);
#241=LINE('',#1437,#361);
#242=LINE('',#1438,#362);
#243=LINE('',#1439,#363);
#244=LINE('',#1442,#364);
#245=LINE('',#1444,#365);
#246=LINE('',#1445,#366);
#247=LINE('',#1449,#367);
#248=LINE('',#1451,#368);
#249=LINE('',#1453,#369);
#250=LINE('',#1454,#370);
#251=LINE('',#1458,#371);
#252=LINE('',#1460,#372);
#253=LINE('',#1462,#373);
#254=LINE('',#1463,#374);
#255=LINE('',#1467,#375);
#256=LINE('',#1469,#376);
#257=LINE('',#1471,#377);
#258=LINE('',#1472,#378);
#259=LINE('',#1475,#379);
#260=LINE('',#1477,#380);
#261=LINE('',#1478,#381);
#262=LINE('',#1481,#382);
#263=LINE('',#1483,#383);
#264=LINE('',#1484,#384);
#265=LINE('',#1487,#385);
#266=LINE('',#1489,#386);
#267=LINE('',#1490,#387);
#268=LINE('',#1493,#388);
#269=LINE('',#1495,#389);
#270=LINE('',#1496,#390);
#271=LINE('',#1498,#391);
#272=LINE('',#1499,#392);
#273=LINE('',#1506,#393);
#274=LINE('',#1508,#394);
#275=LINE('',#1510,#395);
#276=LINE('',#1511,#396);
#277=LINE('',#1514,#397);
#278=LINE('',#1516,#398);
#279=LINE('',#1517,#399);
#280=LINE('',#1520,#400);
#281=LINE('',#1522,#401);
#282=LINE('',#1523,#402);
#283=LINE('',#1526,#403);
#284=LINE('',#1528,#404);
#285=LINE('',#1529,#405);
#286=LINE('',#1532,#406);
#287=LINE('',#1534,#407);
#288=LINE('',#1535,#408);
#289=LINE('',#1537,#409);
#290=LINE('',#1538,#410);
#291=LINE('',#1544,#411);
#292=LINE('',#1548,#412);
#293=LINE('',#1552,#413);
#294=LINE('',#1554,#414);
#295=LINE('',#1555,#415);
#296=LINE('',#1558,#416);
#297=LINE('',#1560,#417);
#298=LINE('',#1561,#418);
#299=LINE('',#1563,#419);
#300=LINE('',#1564,#420);
#301=LINE('',#1565,#421);
#302=LINE('',#1568,#422);
#303=LINE('',#1569,#423);
#304=LINE('',#1572,#424);
#305=LINE('',#1573,#425);
#306=LINE('',#1576,#426);
#307=LINE('',#1577,#427);
#308=LINE('',#1580,#428);
#309=LINE('',#1581,#429);
#310=LINE('',#1583,#430);
#311=VECTOR('',#1074,1.75);
#312=VECTOR('',#1079,10.);
#313=VECTOR('',#1080,10.);
#314=VECTOR('',#1081,10.);
#315=VECTOR('',#1082,10.);
#316=VECTOR('',#1083,10.);
#317=VECTOR('',#1084,10.);
#318=VECTOR('',#1087,10.);
#319=VECTOR('',#1088,10.);
#320=VECTOR('',#1089,10.);
#321=VECTOR('',#1092,10.);
#322=VECTOR('',#1093,10.);
#323=VECTOR('',#1096,10.);
#324=VECTOR('',#1097,10.);
#325=VECTOR('',#1100,10.);
#326=VECTOR('',#1101,10.);
#327=VECTOR('',#1104,10.);
#328=VECTOR('',#1105,10.);
#329=VECTOR('',#1108,10.);
#330=VECTOR('',#1113,1.75);
#331=VECTOR('',#1120,1.75);
#332=VECTOR('',#1125,10.);
#333=VECTOR('',#1126,10.);
#334=VECTOR('',#1127,10.);
#335=VECTOR('',#1128,10.);
#336=VECTOR('',#1129,10.);
#337=VECTOR('',#1130,10.);
#338=VECTOR('',#1133,10.);
#339=VECTOR('',#1134,10.);
#340=VECTOR('',#1135,10.);
#341=VECTOR('',#1138,10.);
#342=VECTOR('',#1139,10.);
#343=VECTOR('',#1142,10.);
#344=VECTOR('',#1143,10.);
#345=VECTOR('',#1146,10.);
#346=VECTOR('',#1147,10.);
#347=VECTOR('',#1150,10.);
#348=VECTOR('',#1151,10.);
#349=VECTOR('',#1154,10.);
#350=VECTOR('',#1159,1.75);
#351=VECTOR('',#1164,10.);
#352=VECTOR('',#1165,10.);
#353=VECTOR('',#1166,10.);
#354=VECTOR('',#1167,10.);
#355=VECTOR('',#1170,10.);
#356=VECTOR('',#1171,10.);
#357=VECTOR('',#1172,10.);
#358=VECTOR('',#1175,10.);
#359=VECTOR('',#1176,10.);
#360=VECTOR('',#1177,10.);
#361=VECTOR('',#1180,10.);
#362=VECTOR('',#1181,10.);
#363=VECTOR('',#1182,10.);
#364=VECTOR('',#1185,10.);
#365=VECTOR('',#1186,10.);
#366=VECTOR('',#1187,10.);
#367=VECTOR('',#1190,10.);
#368=VECTOR('',#1191,10.);
#369=VECTOR('',#1192,10.);
#370=VECTOR('',#1193,10.);
#371=VECTOR('',#1196,10.);
#372=VECTOR('',#1197,10.);
#373=VECTOR('',#1198,10.);
#374=VECTOR('',#1199,10.);
#375=VECTOR('',#1202,10.);
#376=VECTOR('',#1203,10.);
#377=VECTOR('',#1204,10.);
#378=VECTOR('',#1205,10.);
#379=VECTOR('',#1208,10.);
#380=VECTOR('',#1209,10.);
#381=VECTOR('',#1210,10.);
#382=VECTOR('',#1213,10.);
#383=VECTOR('',#1214,10.);
#384=VECTOR('',#1215,10.);
#385=VECTOR('',#1218,10.);
#386=VECTOR('',#1219,10.);
#387=VECTOR('',#1220,10.);
#388=VECTOR('',#1223,10.);
#389=VECTOR('',#1224,10.);
#390=VECTOR('',#1225,10.);
#391=VECTOR('',#1228,10.);
#392=VECTOR('',#1229,10.);
#393=VECTOR('',#1236,10.);
#394=VECTOR('',#1237,10.);
#395=VECTOR('',#1238,10.);
#396=VECTOR('',#1239,10.);
#397=VECTOR('',#1242,10.);
#398=VECTOR('',#1243,10.);
#399=VECTOR('',#1244,10.);
#400=VECTOR('',#1247,10.);
#401=VECTOR('',#1248,10.);
#402=VECTOR('',#1249,10.);
#403=VECTOR('',#1252,10.);
#404=VECTOR('',#1253,10.);
#405=VECTOR('',#1254,10.);
#406=VECTOR('',#1257,10.);
#407=VECTOR('',#1258,10.);
#408=VECTOR('',#1259,10.);
#409=VECTOR('',#1262,10.);
#410=VECTOR('',#1263,10.);
#411=VECTOR('',#1270,1.75);
#412=VECTOR('',#1275,1.75);
#413=VECTOR('',#1280,10.);
#414=VECTOR('',#1281,10.);
#415=VECTOR('',#1282,10.);
#416=VECTOR('',#1285,10.);
#417=VECTOR('',#1286,10.);
#418=VECTOR('',#1287,10.);
#419=VECTOR('',#1290,10.);
#420=VECTOR('',#1291,10.);
#421=VECTOR('',#1292,10.);
#422=VECTOR('',#1295,10.);
#423=VECTOR('',#1296,10.);
#424=VECTOR('',#1299,10.);
#425=VECTOR('',#1300,10.);
#426=VECTOR('',#1303,10.);
#427=VECTOR('',#1304,10.);
#428=VECTOR('',#1307,10.);
#429=VECTOR('',#1308,10.);
#430=VECTOR('',#1311,10.);
#431=CIRCLE('',#1007,1.75);
#432=CIRCLE('',#1008,1.75);
#433=CIRCLE('',#1017,1.75);
#434=CIRCLE('',#1018,1.75);
#435=CIRCLE('',#1020,1.75);
#436=CIRCLE('',#1021,1.75);
#437=CIRCLE('',#1030,1.75);
#438=CIRCLE('',#1031,1.75);
#439=CIRCLE('',#1046,1.75);
#440=CIRCLE('',#1054,1.75);
#441=CIRCLE('',#1056,1.75);
#442=CIRCLE('',#1058,1.75);
#443=VERTEX_POINT('',#1316);
#444=VERTEX_POINT('',#1318);
#445=VERTEX_POINT('',#1322);
#446=VERTEX_POINT('',#1323);
#447=VERTEX_POINT('',#1325);
#448=VERTEX_POINT('',#1327);
#449=VERTEX_POINT('',#1329);
#450=VERTEX_POINT('',#1331);
#451=VERTEX_POINT('',#1335);
#452=VERTEX_POINT('',#1336);
#453=VERTEX_POINT('',#1341);
#454=VERTEX_POINT('',#1345);
#455=VERTEX_POINT('',#1349);
#456=VERTEX_POINT('',#1353);
#457=VERTEX_POINT('',#1359);
#458=VERTEX_POINT('',#1361);
#459=VERTEX_POINT('',#1365);
#460=VERTEX_POINT('',#1367);
#461=VERTEX_POINT('',#1371);
#462=VERTEX_POINT('',#1372);
#463=VERTEX_POINT('',#1374);
#464=VERTEX_POINT('',#1376);
#465=VERTEX_POINT('',#1378);
#466=VERTEX_POINT('',#1380);
#467=VERTEX_POINT('',#1384);
#468=VERTEX_POINT('',#1385);
#469=VERTEX_POINT('',#1390);
#470=VERTEX_POINT('',#1394);
#471=VERTEX_POINT('',#1398);
#472=VERTEX_POINT('',#1402);
#473=VERTEX_POINT('',#1408);
#474=VERTEX_POINT('',#1410);
#475=VERTEX_POINT('',#1414);
#476=VERTEX_POINT('',#1415);
#477=VERTEX_POINT('',#1417);
#478=VERTEX_POINT('',#1419);
#479=VERTEX_POINT('',#1423);
#480=VERTEX_POINT('',#1424);
#481=VERTEX_POINT('',#1429);
#482=VERTEX_POINT('',#1430);
#483=VERTEX_POINT('',#1435);
#484=VERTEX_POINT('',#1436);
#485=VERTEX_POINT('',#1441);
#486=VERTEX_POINT('',#1443);
#487=VERTEX_POINT('',#1447);
#488=VERTEX_POINT('',#1448);
#489=VERTEX_POINT('',#1450);
#490=VERTEX_POINT('',#1452);
#491=VERTEX_POINT('',#1456);
#492=VERTEX_POINT('',#1457);
#493=VERTEX_POINT('',#1459);
#494=VERTEX_POINT('',#1461);
#495=VERTEX_POINT('',#1465);
#496=VERTEX_POINT('',#1466);
#497=VERTEX_POINT('',#1468);
#498=VERTEX_POINT('',#1470);
#499=VERTEX_POINT('',#1474);
#500=VERTEX_POINT('',#1476);
#501=VERTEX_POINT('',#1480);
#502=VERTEX_POINT('',#1482);
#503=VERTEX_POINT('',#1486);
#504=VERTEX_POINT('',#1488);
#505=VERTEX_POINT('',#1492);
#506=VERTEX_POINT('',#1494);
#507=VERTEX_POINT('',#1501);
#508=VERTEX_POINT('',#1504);
#509=VERTEX_POINT('',#1505);
#510=VERTEX_POINT('',#1507);
#511=VERTEX_POINT('',#1509);
#512=VERTEX_POINT('',#1513);
#513=VERTEX_POINT('',#1515);
#514=VERTEX_POINT('',#1519);
#515=VERTEX_POINT('',#1521);
#516=VERTEX_POINT('',#1525);
#517=VERTEX_POINT('',#1527);
#518=VERTEX_POINT('',#1531);
#519=VERTEX_POINT('',#1533);
#520=VERTEX_POINT('',#1540);
#521=VERTEX_POINT('',#1543);
#522=VERTEX_POINT('',#1547);
#523=VERTEX_POINT('',#1551);
#524=VERTEX_POINT('',#1553);
#525=VERTEX_POINT('',#1557);
#526=VERTEX_POINT('',#1559);
#527=VERTEX_POINT('',#1567);
#528=VERTEX_POINT('',#1571);
#529=VERTEX_POINT('',#1575);
#530=VERTEX_POINT('',#1579);
#531=EDGE_CURVE('',#443,#443,#431,.T.);
#532=EDGE_CURVE('',#443,#444,#191,.T.);
#533=EDGE_CURVE('',#444,#444,#432,.T.);
#534=EDGE_CURVE('',#445,#446,#192,.T.);
#535=EDGE_CURVE('',#447,#445,#193,.T.);
#536=EDGE_CURVE('',#448,#447,#194,.T.);
#537=EDGE_CURVE('',#449,#448,#195,.T.);
#538=EDGE_CURVE('',#450,#449,#196,.T.);
#539=EDGE_CURVE('',#446,#450,#197,.T.);
#540=EDGE_CURVE('',#451,#452,#198,.T.);
#541=EDGE_CURVE('',#451,#447,#199,.T.);
#542=EDGE_CURVE('',#452,#445,#200,.T.);
#543=EDGE_CURVE('',#453,#451,#201,.T.);
#544=EDGE_CURVE('',#453,#448,#202,.T.);
#545=EDGE_CURVE('',#454,#453,#203,.T.);
#546=EDGE_CURVE('',#454,#449,#204,.T.);
#547=EDGE_CURVE('',#455,#454,#205,.T.);
#548=EDGE_CURVE('',#455,#450,#206,.T.);
#549=EDGE_CURVE('',#456,#455,#207,.T.);
#550=EDGE_CURVE('',#456,#446,#208,.T.);
#551=EDGE_CURVE('',#452,#456,#209,.T.);
#552=EDGE_CURVE('',#457,#457,#433,.T.);
#553=EDGE_CURVE('',#457,#458,#210,.T.);
#554=EDGE_CURVE('',#458,#458,#434,.T.);
#555=EDGE_CURVE('',#459,#459,#435,.T.);
#556=EDGE_CURVE('',#459,#460,#211,.T.);
#557=EDGE_CURVE('',#460,#460,#436,.T.);
#558=EDGE_CURVE('',#461,#462,#212,.T.);
#559=EDGE_CURVE('',#463,#461,#213,.T.);
#560=EDGE_CURVE('',#464,#463,#214,.T.);
#561=EDGE_CURVE('',#465,#464,#215,.T.);
#562=EDGE_CURVE('',#466,#465,#216,.T.);
#563=EDGE_CURVE('',#462,#466,#217,.T.);
#564=EDGE_CURVE('',#467,#468,#218,.T.);
#565=EDGE_CURVE('',#467,#463,#219,.T.);
#566=EDGE_CURVE('',#468,#461,#220,.T.);
#567=EDGE_CURVE('',#469,#467,#221,.T.);
#568=EDGE_CURVE('',#469,#464,#222,.T.);
#569=EDGE_CURVE('',#470,#469,#223,.T.);
#570=EDGE_CURVE('',#470,#465,#224,.T.);
#571=EDGE_CURVE('',#471,#470,#225,.T.);
#572=EDGE_CURVE('',#471,#466,#226,.T.);
#573=EDGE_CURVE('',#472,#471,#227,.T.);
#574=EDGE_CURVE('',#472,#462,#228,.T.);
#575=EDGE_CURVE('',#468,#472,#229,.T.);
#576=EDGE_CURVE('',#473,#473,#437,.T.);
#577=EDGE_CURVE('',#473,#474,#230,.T.);
#578=EDGE_CURVE('',#474,#474,#438,.T.);
#579=EDGE_CURVE('',#475,#476,#231,.T.);
#580=EDGE_CURVE('',#476,#477,#232,.T.);
#581=EDGE_CURVE('',#478,#477,#233,.T.);
#582=EDGE_CURVE('',#475,#478,#234,.T.);
#583=EDGE_CURVE('',#479,#480,#235,.T.);
#584=EDGE_CURVE('',#480,#478,#236,.T.);
#585=EDGE_CURVE('',#477,#479,#237,.T.);
#586=EDGE_CURVE('',#481,#482,#238,.T.);
#587=EDGE_CURVE('',#476,#482,#239,.T.);
#588=EDGE_CURVE('',#481,#475,#240,.T.);
#589=EDGE_CURVE('',#483,#484,#241,.T.);
#590=EDGE_CURVE('',#483,#482,#242,.T.);
#591=EDGE_CURVE('',#484,#481,#243,.T.);
#592=EDGE_CURVE('',#485,#480,#244,.T.);
#593=EDGE_CURVE('',#486,#479,#245,.T.);
#594=EDGE_CURVE('',#486,#485,#246,.T.);
#595=EDGE_CURVE('',#487,#488,#247,.T.);
#596=EDGE_CURVE('',#488,#489,#248,.T.);
#597=EDGE_CURVE('',#489,#490,#249,.T.);
#598=EDGE_CURVE('',#490,#487,#250,.T.);
#599=EDGE_CURVE('',#491,#492,#251,.T.);
#600=EDGE_CURVE('',#493,#492,#252,.T.);
#601=EDGE_CURVE('',#493,#494,#253,.T.);
#602=EDGE_CURVE('',#494,#491,#254,.T.);
#603=EDGE_CURVE('',#495,#496,#255,.T.);
#604=EDGE_CURVE('',#495,#497,#256,.T.);
#605=EDGE_CURVE('',#497,#498,#257,.T.);
#606=EDGE_CURVE('',#496,#498,#258,.T.);
#607=EDGE_CURVE('',#499,#495,#259,.T.);
#608=EDGE_CURVE('',#499,#500,#260,.T.);
#609=EDGE_CURVE('',#500,#497,#261,.T.);
#610=EDGE_CURVE('',#501,#499,#262,.T.);
#611=EDGE_CURVE('',#501,#502,#263,.T.);
#612=EDGE_CURVE('',#502,#500,#264,.T.);
#613=EDGE_CURVE('',#503,#501,#265,.T.);
#614=EDGE_CURVE('',#503,#504,#266,.T.);
#615=EDGE_CURVE('',#504,#502,#267,.T.);
#616=EDGE_CURVE('',#505,#503,#268,.T.);
#617=EDGE_CURVE('',#505,#506,#269,.T.);
#618=EDGE_CURVE('',#506,#504,#270,.T.);
#619=EDGE_CURVE('',#496,#505,#271,.T.);
#620=EDGE_CURVE('',#498,#506,#272,.T.);
#621=EDGE_CURVE('',#507,#507,#439,.T.);
#622=EDGE_CURVE('',#508,#509,#273,.T.);
#623=EDGE_CURVE('',#508,#510,#274,.T.);
#624=EDGE_CURVE('',#510,#511,#275,.T.);
#625=EDGE_CURVE('',#509,#511,#276,.T.);
#626=EDGE_CURVE('',#512,#508,#277,.T.);
#627=EDGE_CURVE('',#512,#513,#278,.T.);
#628=EDGE_CURVE('',#513,#510,#279,.T.);
#629=EDGE_CURVE('',#514,#512,#280,.T.);
#630=EDGE_CURVE('',#514,#515,#281,.T.);
#631=EDGE_CURVE('',#515,#513,#282,.T.);
#632=EDGE_CURVE('',#516,#514,#283,.T.);
#633=EDGE_CURVE('',#516,#517,#284,.T.);
#634=EDGE_CURVE('',#517,#515,#285,.T.);
#635=EDGE_CURVE('',#518,#516,#286,.T.);
#636=EDGE_CURVE('',#518,#519,#287,.T.);
#637=EDGE_CURVE('',#519,#517,#288,.T.);
#638=EDGE_CURVE('',#509,#518,#289,.T.);
#639=EDGE_CURVE('',#511,#519,#290,.T.);
#640=EDGE_CURVE('',#520,#520,#440,.T.);
#641=EDGE_CURVE('',#520,#521,#291,.T.);
#642=EDGE_CURVE('',#521,#521,#441,.T.);
#643=EDGE_CURVE('',#507,#522,#292,.T.);
#644=EDGE_CURVE('',#522,#522,#442,.T.);
#645=EDGE_CURVE('',#489,#523,#293,.T.);
#646=EDGE_CURVE('',#488,#524,#294,.T.);
#647=EDGE_CURVE('',#523,#524,#295,.T.);
#648=EDGE_CURVE('',#525,#494,#296,.T.);
#649=EDGE_CURVE('',#526,#525,#297,.T.);
#650=EDGE_CURVE('',#526,#491,#298,.T.);
#651=EDGE_CURVE('',#492,#484,#299,.T.);
#652=EDGE_CURVE('',#524,#526,#300,.T.);
#653=EDGE_CURVE('',#487,#483,#301,.T.);
#654=EDGE_CURVE('',#527,#523,#302,.T.);
#655=EDGE_CURVE('',#490,#527,#303,.T.);
#656=EDGE_CURVE('',#528,#493,#304,.T.);
#657=EDGE_CURVE('',#525,#528,#305,.T.);
#658=EDGE_CURVE('',#529,#485,#306,.T.);
#659=EDGE_CURVE('',#528,#529,#307,.T.);
#660=EDGE_CURVE('',#530,#529,#308,.T.);
#661=EDGE_CURVE('',#527,#530,#309,.T.);
#662=EDGE_CURVE('',#530,#486,#310,.T.);
#663=ORIENTED_EDGE('',*,*,#531,.F.);
#664=ORIENTED_EDGE('',*,*,#532,.T.);
#665=ORIENTED_EDGE('',*,*,#533,.F.);
#666=ORIENTED_EDGE('',*,*,#532,.F.);
#667=ORIENTED_EDGE('',*,*,#534,.F.);
#668=ORIENTED_EDGE('',*,*,#535,.F.);
#669=ORIENTED_EDGE('',*,*,#536,.F.);
#670=ORIENTED_EDGE('',*,*,#537,.F.);
#671=ORIENTED_EDGE('',*,*,#538,.F.);
#672=ORIENTED_EDGE('',*,*,#539,.F.);
#673=ORIENTED_EDGE('',*,*,#531,.T.);
#674=ORIENTED_EDGE('',*,*,#540,.F.);
#675=ORIENTED_EDGE('',*,*,#541,.T.);
#676=ORIENTED_EDGE('',*,*,#535,.T.);
#677=ORIENTED_EDGE('',*,*,#542,.F.);
#678=ORIENTED_EDGE('',*,*,#543,.F.);
#679=ORIENTED_EDGE('',*,*,#544,.T.);
#680=ORIENTED_EDGE('',*,*,#536,.T.);
#681=ORIENTED_EDGE('',*,*,#541,.F.);
#682=ORIENTED_EDGE('',*,*,#545,.F.);
#683=ORIENTED_EDGE('',*,*,#546,.T.);
#684=ORIENTED_EDGE('',*,*,#537,.T.);
#685=ORIENTED_EDGE('',*,*,#544,.F.);
#686=ORIENTED_EDGE('',*,*,#547,.F.);
#687=ORIENTED_EDGE('',*,*,#548,.T.);
#688=ORIENTED_EDGE('',*,*,#538,.T.);
#689=ORIENTED_EDGE('',*,*,#546,.F.);
#690=ORIENTED_EDGE('',*,*,#549,.F.);
#691=ORIENTED_EDGE('',*,*,#550,.T.);
#692=ORIENTED_EDGE('',*,*,#539,.T.);
#693=ORIENTED_EDGE('',*,*,#548,.F.);
#694=ORIENTED_EDGE('',*,*,#551,.F.);
#695=ORIENTED_EDGE('',*,*,#542,.T.);
#696=ORIENTED_EDGE('',*,*,#534,.T.);
#697=ORIENTED_EDGE('',*,*,#550,.F.);
#698=ORIENTED_EDGE('',*,*,#552,.F.);
#699=ORIENTED_EDGE('',*,*,#553,.T.);
#700=ORIENTED_EDGE('',*,*,#554,.F.);
#701=ORIENTED_EDGE('',*,*,#553,.F.);
#702=ORIENTED_EDGE('',*,*,#555,.F.);
#703=ORIENTED_EDGE('',*,*,#556,.T.);
#704=ORIENTED_EDGE('',*,*,#557,.F.);
#705=ORIENTED_EDGE('',*,*,#556,.F.);
#706=ORIENTED_EDGE('',*,*,#558,.F.);
#707=ORIENTED_EDGE('',*,*,#559,.F.);
#708=ORIENTED_EDGE('',*,*,#560,.F.);
#709=ORIENTED_EDGE('',*,*,#561,.F.);
#710=ORIENTED_EDGE('',*,*,#562,.F.);
#711=ORIENTED_EDGE('',*,*,#563,.F.);
#712=ORIENTED_EDGE('',*,*,#555,.T.);
#713=ORIENTED_EDGE('',*,*,#564,.F.);
#714=ORIENTED_EDGE('',*,*,#565,.T.);
#715=ORIENTED_EDGE('',*,*,#559,.T.);
#716=ORIENTED_EDGE('',*,*,#566,.F.);
#717=ORIENTED_EDGE('',*,*,#567,.F.);
#718=ORIENTED_EDGE('',*,*,#568,.T.);
#719=ORIENTED_EDGE('',*,*,#560,.T.);
#720=ORIENTED_EDGE('',*,*,#565,.F.);
#721=ORIENTED_EDGE('',*,*,#569,.F.);
#722=ORIENTED_EDGE('',*,*,#570,.T.);
#723=ORIENTED_EDGE('',*,*,#561,.T.);
#724=ORIENTED_EDGE('',*,*,#568,.F.);
#725=ORIENTED_EDGE('',*,*,#571,.F.);
#726=ORIENTED_EDGE('',*,*,#572,.T.);
#727=ORIENTED_EDGE('',*,*,#562,.T.);
#728=ORIENTED_EDGE('',*,*,#570,.F.);
#729=ORIENTED_EDGE('',*,*,#573,.F.);
#730=ORIENTED_EDGE('',*,*,#574,.T.);
#731=ORIENTED_EDGE('',*,*,#563,.T.);
#732=ORIENTED_EDGE('',*,*,#572,.F.);
#733=ORIENTED_EDGE('',*,*,#575,.F.);
#734=ORIENTED_EDGE('',*,*,#566,.T.);
#735=ORIENTED_EDGE('',*,*,#558,.T.);
#736=ORIENTED_EDGE('',*,*,#574,.F.);
#737=ORIENTED_EDGE('',*,*,#576,.F.);
#738=ORIENTED_EDGE('',*,*,#577,.T.);
#739=ORIENTED_EDGE('',*,*,#578,.F.);
#740=ORIENTED_EDGE('',*,*,#577,.F.);
#741=ORIENTED_EDGE('',*,*,#579,.T.);
#742=ORIENTED_EDGE('',*,*,#580,.T.);
#743=ORIENTED_EDGE('',*,*,#581,.F.);
#744=ORIENTED_EDGE('',*,*,#582,.F.);
#745=ORIENTED_EDGE('',*,*,#583,.T.);
#746=ORIENTED_EDGE('',*,*,#584,.T.);
#747=ORIENTED_EDGE('',*,*,#581,.T.);
#748=ORIENTED_EDGE('',*,*,#585,.T.);
#749=ORIENTED_EDGE('',*,*,#554,.T.);
#750=ORIENTED_EDGE('',*,*,#578,.T.);
#751=ORIENTED_EDGE('',*,*,#586,.T.);
#752=ORIENTED_EDGE('',*,*,#587,.F.);
#753=ORIENTED_EDGE('',*,*,#579,.F.);
#754=ORIENTED_EDGE('',*,*,#588,.F.);
#755=ORIENTED_EDGE('',*,*,#552,.T.);
#756=ORIENTED_EDGE('',*,*,#576,.T.);
#757=ORIENTED_EDGE('',*,*,#589,.F.);
#758=ORIENTED_EDGE('',*,*,#590,.T.);
#759=ORIENTED_EDGE('',*,*,#586,.F.);
#760=ORIENTED_EDGE('',*,*,#591,.F.);
#761=ORIENTED_EDGE('',*,*,#592,.T.);
#762=ORIENTED_EDGE('',*,*,#583,.F.);
#763=ORIENTED_EDGE('',*,*,#593,.F.);
#764=ORIENTED_EDGE('',*,*,#594,.T.);
#765=ORIENTED_EDGE('',*,*,#595,.T.);
#766=ORIENTED_EDGE('',*,*,#596,.T.);
#767=ORIENTED_EDGE('',*,*,#597,.T.);
#768=ORIENTED_EDGE('',*,*,#598,.T.);
#769=ORIENTED_EDGE('',*,*,#599,.T.);
#770=ORIENTED_EDGE('',*,*,#600,.F.);
#771=ORIENTED_EDGE('',*,*,#601,.T.);
#772=ORIENTED_EDGE('',*,*,#602,.T.);
#773=ORIENTED_EDGE('',*,*,#603,.F.);
#774=ORIENTED_EDGE('',*,*,#604,.T.);
#775=ORIENTED_EDGE('',*,*,#605,.T.);
#776=ORIENTED_EDGE('',*,*,#606,.F.);
#777=ORIENTED_EDGE('',*,*,#607,.F.);
#778=ORIENTED_EDGE('',*,*,#608,.T.);
#779=ORIENTED_EDGE('',*,*,#609,.T.);
#780=ORIENTED_EDGE('',*,*,#604,.F.);
#781=ORIENTED_EDGE('',*,*,#610,.F.);
#782=ORIENTED_EDGE('',*,*,#611,.T.);
#783=ORIENTED_EDGE('',*,*,#612,.T.);
#784=ORIENTED_EDGE('',*,*,#608,.F.);
#785=ORIENTED_EDGE('',*,*,#613,.F.);
#786=ORIENTED_EDGE('',*,*,#614,.T.);
#787=ORIENTED_EDGE('',*,*,#615,.T.);
#788=ORIENTED_EDGE('',*,*,#611,.F.);
#789=ORIENTED_EDGE('',*,*,#616,.F.);
#790=ORIENTED_EDGE('',*,*,#617,.T.);
#791=ORIENTED_EDGE('',*,*,#618,.T.);
#792=ORIENTED_EDGE('',*,*,#614,.F.);
#793=ORIENTED_EDGE('',*,*,#619,.F.);
#794=ORIENTED_EDGE('',*,*,#606,.T.);
#795=ORIENTED_EDGE('',*,*,#620,.T.);
#796=ORIENTED_EDGE('',*,*,#617,.F.);
#797=ORIENTED_EDGE('',*,*,#620,.F.);
#798=ORIENTED_EDGE('',*,*,#605,.F.);
#799=ORIENTED_EDGE('',*,*,#609,.F.);
#800=ORIENTED_EDGE('',*,*,#612,.F.);
#801=ORIENTED_EDGE('',*,*,#615,.F.);
#802=ORIENTED_EDGE('',*,*,#618,.F.);
#803=ORIENTED_EDGE('',*,*,#621,.F.);
#804=ORIENTED_EDGE('',*,*,#622,.F.);
#805=ORIENTED_EDGE('',*,*,#623,.T.);
#806=ORIENTED_EDGE('',*,*,#624,.T.);
#807=ORIENTED_EDGE('',*,*,#625,.F.);
#808=ORIENTED_EDGE('',*,*,#626,.F.);
#809=ORIENTED_EDGE('',*,*,#627,.T.);
#810=ORIENTED_EDGE('',*,*,#628,.T.);
#811=ORIENTED_EDGE('',*,*,#623,.F.);
#812=ORIENTED_EDGE('',*,*,#629,.F.);
#813=ORIENTED_EDGE('',*,*,#630,.T.);
#814=ORIENTED_EDGE('',*,*,#631,.T.);
#815=ORIENTED_EDGE('',*,*,#627,.F.);
#816=ORIENTED_EDGE('',*,*,#632,.F.);
#817=ORIENTED_EDGE('',*,*,#633,.T.);
#818=ORIENTED_EDGE('',*,*,#634,.T.);
#819=ORIENTED_EDGE('',*,*,#630,.F.);
#820=ORIENTED_EDGE('',*,*,#635,.F.);
#821=ORIENTED_EDGE('',*,*,#636,.T.);
#822=ORIENTED_EDGE('',*,*,#637,.T.);
#823=ORIENTED_EDGE('',*,*,#633,.F.);
#824=ORIENTED_EDGE('',*,*,#638,.F.);
#825=ORIENTED_EDGE('',*,*,#625,.T.);
#826=ORIENTED_EDGE('',*,*,#639,.T.);
#827=ORIENTED_EDGE('',*,*,#636,.F.);
#828=ORIENTED_EDGE('',*,*,#639,.F.);
#829=ORIENTED_EDGE('',*,*,#624,.F.);
#830=ORIENTED_EDGE('',*,*,#628,.F.);
#831=ORIENTED_EDGE('',*,*,#631,.F.);
#832=ORIENTED_EDGE('',*,*,#634,.F.);
#833=ORIENTED_EDGE('',*,*,#637,.F.);
#834=ORIENTED_EDGE('',*,*,#640,.F.);
#835=ORIENTED_EDGE('',*,*,#640,.T.);
#836=ORIENTED_EDGE('',*,*,#641,.T.);
#837=ORIENTED_EDGE('',*,*,#642,.F.);
#838=ORIENTED_EDGE('',*,*,#641,.F.);
#839=ORIENTED_EDGE('',*,*,#621,.T.);
#840=ORIENTED_EDGE('',*,*,#643,.T.);
#841=ORIENTED_EDGE('',*,*,#644,.F.);
#842=ORIENTED_EDGE('',*,*,#643,.F.);
#843=ORIENTED_EDGE('',*,*,#645,.F.);
#844=ORIENTED_EDGE('',*,*,#596,.F.);
#845=ORIENTED_EDGE('',*,*,#646,.T.);
#846=ORIENTED_EDGE('',*,*,#647,.F.);
#847=ORIENTED_EDGE('',*,*,#648,.F.);
#848=ORIENTED_EDGE('',*,*,#649,.F.);
#849=ORIENTED_EDGE('',*,*,#650,.T.);
#850=ORIENTED_EDGE('',*,*,#602,.F.);
#851=ORIENTED_EDGE('',*,*,#589,.T.);
#852=ORIENTED_EDGE('',*,*,#651,.F.);
#853=ORIENTED_EDGE('',*,*,#599,.F.);
#854=ORIENTED_EDGE('',*,*,#650,.F.);
#855=ORIENTED_EDGE('',*,*,#652,.F.);
#856=ORIENTED_EDGE('',*,*,#646,.F.);
#857=ORIENTED_EDGE('',*,*,#595,.F.);
#858=ORIENTED_EDGE('',*,*,#653,.T.);
#859=ORIENTED_EDGE('',*,*,#533,.T.);
#860=ORIENTED_EDGE('',*,*,#557,.T.);
#861=ORIENTED_EDGE('',*,*,#642,.T.);
#862=ORIENTED_EDGE('',*,*,#644,.T.);
#863=ORIENTED_EDGE('',*,*,#645,.T.);
#864=ORIENTED_EDGE('',*,*,#654,.F.);
#865=ORIENTED_EDGE('',*,*,#655,.F.);
#866=ORIENTED_EDGE('',*,*,#597,.F.);
#867=ORIENTED_EDGE('',*,*,#648,.T.);
#868=ORIENTED_EDGE('',*,*,#601,.F.);
#869=ORIENTED_EDGE('',*,*,#656,.F.);
#870=ORIENTED_EDGE('',*,*,#657,.F.);
#871=ORIENTED_EDGE('',*,*,#656,.T.);
#872=ORIENTED_EDGE('',*,*,#600,.T.);
#873=ORIENTED_EDGE('',*,*,#651,.T.);
#874=ORIENTED_EDGE('',*,*,#591,.T.);
#875=ORIENTED_EDGE('',*,*,#588,.T.);
#876=ORIENTED_EDGE('',*,*,#582,.T.);
#877=ORIENTED_EDGE('',*,*,#584,.F.);
#878=ORIENTED_EDGE('',*,*,#592,.F.);
#879=ORIENTED_EDGE('',*,*,#658,.F.);
#880=ORIENTED_EDGE('',*,*,#659,.F.);
#881=ORIENTED_EDGE('',*,*,#649,.T.);
#882=ORIENTED_EDGE('',*,*,#657,.T.);
#883=ORIENTED_EDGE('',*,*,#659,.T.);
#884=ORIENTED_EDGE('',*,*,#660,.F.);
#885=ORIENTED_EDGE('',*,*,#661,.F.);
#886=ORIENTED_EDGE('',*,*,#654,.T.);
#887=ORIENTED_EDGE('',*,*,#647,.T.);
#888=ORIENTED_EDGE('',*,*,#652,.T.);
#889=ORIENTED_EDGE('',*,*,#655,.T.);
#890=ORIENTED_EDGE('',*,*,#661,.T.);
#891=ORIENTED_EDGE('',*,*,#662,.T.);
#892=ORIENTED_EDGE('',*,*,#593,.T.);
#893=ORIENTED_EDGE('',*,*,#585,.F.);
#894=ORIENTED_EDGE('',*,*,#580,.F.);
#895=ORIENTED_EDGE('',*,*,#587,.T.);
#896=ORIENTED_EDGE('',*,*,#590,.F.);
#897=ORIENTED_EDGE('',*,*,#653,.F.);
#898=ORIENTED_EDGE('',*,*,#598,.F.);
#899=ORIENTED_EDGE('',*,*,#662,.F.);
#900=ORIENTED_EDGE('',*,*,#660,.T.);
#901=ORIENTED_EDGE('',*,*,#658,.T.);
#902=ORIENTED_EDGE('',*,*,#594,.F.);
#903=ORIENTED_EDGE('',*,*,#540,.T.);
#904=ORIENTED_EDGE('',*,*,#551,.T.);
#905=ORIENTED_EDGE('',*,*,#549,.T.);
#906=ORIENTED_EDGE('',*,*,#547,.T.);
#907=ORIENTED_EDGE('',*,*,#545,.T.);
#908=ORIENTED_EDGE('',*,*,#543,.T.);
#909=ORIENTED_EDGE('',*,*,#564,.T.);
#910=ORIENTED_EDGE('',*,*,#575,.T.);
#911=ORIENTED_EDGE('',*,*,#573,.T.);
#912=ORIENTED_EDGE('',*,*,#571,.T.);
#913=ORIENTED_EDGE('',*,*,#569,.T.);
#914=ORIENTED_EDGE('',*,*,#567,.T.);
#915=ORIENTED_EDGE('',*,*,#603,.T.);
#916=ORIENTED_EDGE('',*,*,#619,.T.);
#917=ORIENTED_EDGE('',*,*,#616,.T.);
#918=ORIENTED_EDGE('',*,*,#613,.T.);
#919=ORIENTED_EDGE('',*,*,#610,.T.);
#920=ORIENTED_EDGE('',*,*,#607,.T.);
#921=ORIENTED_EDGE('',*,*,#622,.T.);
#922=ORIENTED_EDGE('',*,*,#638,.T.);
#923=ORIENTED_EDGE('',*,*,#635,.T.);
#924=ORIENTED_EDGE('',*,*,#632,.T.);
#925=ORIENTED_EDGE('',*,*,#629,.T.);
#926=ORIENTED_EDGE('',*,*,#626,.T.);
#927=CYLINDRICAL_SURFACE('',#1006,1.75);
#928=CYLINDRICAL_SURFACE('',#1016,1.75);
#929=CYLINDRICAL_SURFACE('',#1019,1.75);
#930=CYLINDRICAL_SURFACE('',#1029,1.75);
#931=CYLINDRICAL_SURFACE('',#1055,1.75);
#932=CYLINDRICAL_SURFACE('',#1057,1.75);
#933=ADVANCED_FACE('',(#75),#927,.F.);
#934=ADVANCED_FACE('',(#76,#15),#31,.F.);
#935=ADVANCED_FACE('',(#77),#32,.F.);
#936=ADVANCED_FACE('',(#78),#33,.F.);
#937=ADVANCED_FACE('',(#79),#34,.F.);
#938=ADVANCED_FACE('',(#80),#35,.F.);
#939=ADVANCED_FACE('',(#81),#36,.F.);
#940=ADVANCED_FACE('',(#82),#37,.F.);
#941=ADVANCED_FACE('',(#83),#928,.F.);
#942=ADVANCED_FACE('',(#84),#929,.F.);
#943=ADVANCED_FACE('',(#85,#16),#38,.F.);
#944=ADVANCED_FACE('',(#86),#39,.F.);
#945=ADVANCED_FACE('',(#87),#40,.F.);
#946=ADVANCED_FACE('',(#88),#41,.F.);
#947=ADVANCED_FACE('',(#89),#42,.F.);
#948=ADVANCED_FACE('',(#90),#43,.F.);
#949=ADVANCED_FACE('',(#91),#44,.F.);
#950=ADVANCED_FACE('',(#92),#930,.F.);
#951=ADVANCED_FACE('',(#93),#45,.T.);
#952=ADVANCED_FACE('',(#94,#17,#18),#46,.T.);
#953=ADVANCED_FACE('',(#95,#19,#20),#47,.F.);
#954=ADVANCED_FACE('',(#96),#48,.T.);
#955=ADVANCED_FACE('',(#97),#49,.T.);
#956=ADVANCED_FACE('',(#98),#50,.T.);
#957=ADVANCED_FACE('',(#99),#51,.T.);
#958=ADVANCED_FACE('',(#100),#52,.F.);
#959=ADVANCED_FACE('',(#101),#53,.F.);
#960=ADVANCED_FACE('',(#102),#54,.F.);
#961=ADVANCED_FACE('',(#103),#55,.F.);
#962=ADVANCED_FACE('',(#104),#56,.F.);
#963=ADVANCED_FACE('',(#105),#57,.F.);
#964=ADVANCED_FACE('',(#106,#21),#58,.F.);
#965=ADVANCED_FACE('',(#107),#59,.F.);
#966=ADVANCED_FACE('',(#108),#60,.F.);
#967=ADVANCED_FACE('',(#109),#61,.F.);
#968=ADVANCED_FACE('',(#110),#62,.F.);
#969=ADVANCED_FACE('',(#111),#63,.F.);
#970=ADVANCED_FACE('',(#112),#64,.F.);
#971=ADVANCED_FACE('',(#113,#22),#65,.F.);
#972=ADVANCED_FACE('',(#114),#931,.F.);
#973=ADVANCED_FACE('',(#115),#932,.F.);
#974=ADVANCED_FACE('',(#116),#66,.F.);
#975=ADVANCED_FACE('',(#117),#67,.F.);
#976=ADVANCED_FACE('',(#118,#23,#24,#25,#26),#68,.F.);
#977=ADVANCED_FACE('',(#119),#69,.F.);
#978=ADVANCED_FACE('',(#120),#70,.F.);
#979=ADVANCED_FACE('',(#121),#71,.T.);
#980=ADVANCED_FACE('',(#122),#72,.T.);
#981=ADVANCED_FACE('',(#123),#73,.T.);
#982=ADVANCED_FACE('',(#124,#27,#28,#29,#30),#74,.T.);
#983=CLOSED_SHELL('',(#933,#934,#935,#936,#937,#938,#939,#940,#941,#942,
#943,#944,#945,#946,#947,#948,#949,#950,#951,#952,#953,#954,#955,#956,#957,
#958,#959,#960,#961,#962,#963,#964,#965,#966,#967,#968,#969,#970,#971,#972,
#973,#974,#975,#976,#977,#978,#979,#980,#981,#982));
#984=DERIVED_UNIT_ELEMENT(#987,1.);
#985=DERIVED_UNIT_ELEMENT(#1590,-3.);
#986=DIMENSIONAL_EXPONENTS(0.,1.,0.,0.,0.,0.,0.);
#987=(
CONVERSION_BASED_UNIT('gram',#989)
MASS_UNIT()
NAMED_UNIT(#986)
);
#988=(
MASS_UNIT()
NAMED_UNIT(*)
SI_UNIT(.KILO.,.GRAM.)
);
#989=MASS_MEASURE_WITH_UNIT(MASS_MEASURE(0.001),#988);
#990=DERIVED_UNIT((#984,#985));
#991=MEASURE_REPRESENTATION_ITEM('density measure',
POSITIVE_RATIO_MEASURE(1.),#990);
#992=PROPERTY_DEFINITION_REPRESENTATION(#997,#994);
#993=PROPERTY_DEFINITION_REPRESENTATION(#998,#995);
#994=REPRESENTATION('material name',(#996),#1587);
#995=REPRESENTATION('density',(#991),#1587);
#996=DESCRIPTIVE_REPRESENTATION_ITEM('\X2\4E00822C\X0\','\X2\4E00822C\X0\');
#997=PROPERTY_DEFINITION('material property','material name',#1597);
#998=PROPERTY_DEFINITION('material property','density of part',#1597);
#999=DATE_TIME_ROLE('creation_date');
#1000=APPLIED_DATE_AND_TIME_ASSIGNMENT(#1001,#999,(#1597));
#1001=DATE_AND_TIME(#1002,#1003);
#1002=CALENDAR_DATE(2026,5,2);
#1003=LOCAL_TIME(0,0,0.,#1004);
#1004=COORDINATED_UNIVERSAL_TIME_OFFSET(0,0,.BEHIND.);
#1005=AXIS2_PLACEMENT_3D('',#1314,#1068,#1069);
#1006=AXIS2_PLACEMENT_3D('',#1315,#1070,#1071);
#1007=AXIS2_PLACEMENT_3D('',#1317,#1072,#1073);
#1008=AXIS2_PLACEMENT_3D('',#1320,#1075,#1076);
#1009=AXIS2_PLACEMENT_3D('',#1321,#1077,#1078);
#1010=AXIS2_PLACEMENT_3D('',#1334,#1085,#1086);
#1011=AXIS2_PLACEMENT_3D('',#1340,#1090,#1091);
#1012=AXIS2_PLACEMENT_3D('',#1344,#1094,#1095);
#1013=AXIS2_PLACEMENT_3D('',#1348,#1098,#1099);
#1014=AXIS2_PLACEMENT_3D('',#1352,#1102,#1103);
#1015=AXIS2_PLACEMENT_3D('',#1356,#1106,#1107);
#1016=AXIS2_PLACEMENT_3D('',#1358,#1109,#1110);
#1017=AXIS2_PLACEMENT_3D('',#1360,#1111,#1112);
#1018=AXIS2_PLACEMENT_3D('',#1363,#1114,#1115);
#1019=AXIS2_PLACEMENT_3D('',#1364,#1116,#1117);
#1020=AXIS2_PLACEMENT_3D('',#1366,#1118,#1119);
#1021=AXIS2_PLACEMENT_3D('',#1369,#1121,#1122);
#1022=AXIS2_PLACEMENT_3D('',#1370,#1123,#1124);
#1023=AXIS2_PLACEMENT_3D('',#1383,#1131,#1132);
#1024=AXIS2_PLACEMENT_3D('',#1389,#1136,#1137);
#1025=AXIS2_PLACEMENT_3D('',#1393,#1140,#1141);
#1026=AXIS2_PLACEMENT_3D('',#1397,#1144,#1145);
#1027=AXIS2_PLACEMENT_3D('',#1401,#1148,#1149);
#1028=AXIS2_PLACEMENT_3D('',#1405,#1152,#1153);
#1029=AXIS2_PLACEMENT_3D('',#1407,#1155,#1156);
#1030=AXIS2_PLACEMENT_3D('',#1409,#1157,#1158);
#1031=AXIS2_PLACEMENT_3D('',#1412,#1160,#1161);
#1032=AXIS2_PLACEMENT_3D('',#1413,#1162,#1163);
#1033=AXIS2_PLACEMENT_3D('',#1422,#1168,#1169);
#1034=AXIS2_PLACEMENT_3D('',#1428,#1173,#1174);
#1035=AXIS2_PLACEMENT_3D('',#1434,#1178,#1179);
#1036=AXIS2_PLACEMENT_3D('',#1440,#1183,#1184);
#1037=AXIS2_PLACEMENT_3D('',#1446,#1188,#1189);
#1038=AXIS2_PLACEMENT_3D('',#1455,#1194,#1195);
#1039=AXIS2_PLACEMENT_3D('',#1464,#1200,#1201);
#1040=AXIS2_PLACEMENT_3D('',#1473,#1206,#1207);
#1041=AXIS2_PLACEMENT_3D('',#1479,#1211,#1212);
#1042=AXIS2_PLACEMENT_3D('',#1485,#1216,#1217);
#1043=AXIS2_PLACEMENT_3D('',#1491,#1221,#1222);
#1044=AXIS2_PLACEMENT_3D('',#1497,#1226,#1227);
#1045=AXIS2_PLACEMENT_3D('',#1500,#1230,#1231);
#1046=AXIS2_PLACEMENT_3D('',#1502,#1232,#1233);
#1047=AXIS2_PLACEMENT_3D('',#1503,#1234,#1235);
#1048=AXIS2_PLACEMENT_3D('',#1512,#1240,#1241);
#1049=AXIS2_PLACEMENT_3D('',#1518,#1245,#1246);
#1050=AXIS2_PLACEMENT_3D('',#1524,#1250,#1251);
#1051=AXIS2_PLACEMENT_3D('',#1530,#1255,#1256);
#1052=AXIS2_PLACEMENT_3D('',#1536,#1260,#1261);
#1053=AXIS2_PLACEMENT_3D('',#1539,#1264,#1265);
#1054=AXIS2_PLACEMENT_3D('',#1541,#1266,#1267);
#1055=AXIS2_PLACEMENT_3D('',#1542,#1268,#1269);
#1056=AXIS2_PLACEMENT_3D('',#1545,#1271,#1272);
#1057=AXIS2_PLACEMENT_3D('',#1546,#1273,#1274);
#1058=AXIS2_PLACEMENT_3D('',#1549,#1276,#1277);
#1059=AXIS2_PLACEMENT_3D('',#1550,#1278,#1279);
#1060=AXIS2_PLACEMENT_3D('',#1556,#1283,#1284);
#1061=AXIS2_PLACEMENT_3D('',#1562,#1288,#1289);
#1062=AXIS2_PLACEMENT_3D('',#1566,#1293,#1294);
#1063=AXIS2_PLACEMENT_3D('',#1570,#1297,#1298);
#1064=AXIS2_PLACEMENT_3D('',#1574,#1301,#1302);
#1065=AXIS2_PLACEMENT_3D('',#1578,#1305,#1306);
#1066=AXIS2_PLACEMENT_3D('',#1582,#1309,#1310);
#1067=AXIS2_PLACEMENT_3D('',#1584,#1312,#1313);
#1068=DIRECTION('axis',(0.,0.,1.));
#1069=DIRECTION('refdir',(1.,0.,0.));
#1070=DIRECTION('center_axis',(0.,0.,-1.));
#1071=DIRECTION('ref_axis',(-1.,0.,0.));
#1072=DIRECTION('center_axis',(0.,0.,-1.));
#1073=DIRECTION('ref_axis',(-1.,0.,0.));
#1074=DIRECTION('',(0.,0.,-1.));
#1075=DIRECTION('center_axis',(0.,0.,1.));
#1076=DIRECTION('ref_axis',(-1.,0.,0.));
#1077=DIRECTION('center_axis',(0.,0.,-1.));
#1078=DIRECTION('ref_axis',(-1.,0.,0.));
#1079=DIRECTION('',(-6.74723749608267E-16,-1.,0.));
#1080=DIRECTION('',(0.866025403784439,-0.5,0.));
#1081=DIRECTION('',(0.866025403784438,0.500000000000001,0.));
#1082=DIRECTION('',(6.74723749608268E-16,1.,0.));
#1083=DIRECTION('',(-0.866025403784439,0.5,0.));
#1084=DIRECTION('',(-0.866025403784439,-0.5,0.));
#1085=DIRECTION('center_axis',(0.5,0.866025403784439,0.));
#1086=DIRECTION('ref_axis',(0.866025403784439,-0.5,0.));
#1087=DIRECTION('',(0.866025403784439,-0.5,0.));
#1088=DIRECTION('',(0.,0.,-1.));
#1089=DIRECTION('',(0.,0.,-1.));
#1090=DIRECTION('center_axis',(-0.500000000000001,0.866025403784438,0.));
#1091=DIRECTION('ref_axis',(0.866025403784438,0.500000000000001,0.));
#1092=DIRECTION('',(0.866025403784438,0.500000000000001,0.));
#1093=DIRECTION('',(0.,0.,-1.));
#1094=DIRECTION('center_axis',(-1.,6.74723749608268E-16,0.));
#1095=DIRECTION('ref_axis',(6.74723749608268E-16,1.,0.));
#1096=DIRECTION('',(6.74723749608268E-16,1.,0.));
#1097=DIRECTION('',(0.,0.,-1.));
#1098=DIRECTION('center_axis',(-0.5,-0.866025403784439,0.));
#1099=DIRECTION('ref_axis',(-0.866025403784439,0.5,0.));
#1100=DIRECTION('',(-0.866025403784439,0.5,0.));
#1101=DIRECTION('',(0.,0.,-1.));
#1102=DIRECTION('center_axis',(0.5,-0.866025403784439,0.));
#1103=DIRECTION('ref_axis',(-0.866025403784439,-0.5,0.));
#1104=DIRECTION('',(-0.866025403784439,-0.5,0.));
#1105=DIRECTION('',(0.,0.,-1.));
#1106=DIRECTION('center_axis',(1.,-6.74723749608267E-16,0.));
#1107=DIRECTION('ref_axis',(-6.74723749608267E-16,-1.,0.));
#1108=DIRECTION('',(-6.74723749608267E-16,-1.,0.));
#1109=DIRECTION('center_axis',(0.,0.,-1.));
#1110=DIRECTION('ref_axis',(-1.,0.,0.));
#1111=DIRECTION('center_axis',(0.,0.,-1.));
#1112=DIRECTION('ref_axis',(-1.,0.,0.));
#1113=DIRECTION('',(0.,0.,-1.));
#1114=DIRECTION('center_axis',(0.,0.,1.));
#1115=DIRECTION('ref_axis',(-1.,0.,0.));
#1116=DIRECTION('center_axis',(0.,0.,-1.));
#1117=DIRECTION('ref_axis',(-1.,0.,0.));
#1118=DIRECTION('center_axis',(0.,0.,-1.));
#1119=DIRECTION('ref_axis',(-1.,0.,0.));
#1120=DIRECTION('',(0.,0.,-1.));
#1121=DIRECTION('center_axis',(0.,0.,1.));
#1122=DIRECTION('ref_axis',(-1.,0.,0.));
#1123=DIRECTION('center_axis',(0.,0.,-1.));
#1124=DIRECTION('ref_axis',(-1.,0.,0.));
#1125=DIRECTION('',(1.34944749921654E-15,-1.,0.));
#1126=DIRECTION('',(0.866025403784439,-0.5,0.));
#1127=DIRECTION('',(0.866025403784438,0.5,0.));
#1128=DIRECTION('',(3.37361874804134E-16,1.,0.));
#1129=DIRECTION('',(-0.866025403784439,0.499999999999999,0.));
#1130=DIRECTION('',(-0.866025403784438,-0.500000000000001,0.));
#1131=DIRECTION('center_axis',(0.5,0.866025403784439,0.));
#1132=DIRECTION('ref_axis',(0.866025403784439,-0.5,0.));
#1133=DIRECTION('',(0.866025403784439,-0.5,0.));
#1134=DIRECTION('',(0.,0.,-1.));
#1135=DIRECTION('',(0.,0.,-1.));
#1136=DIRECTION('center_axis',(-0.5,0.866025403784439,0.));
#1137=DIRECTION('ref_axis',(0.866025403784438,0.5,0.));
#1138=DIRECTION('',(0.866025403784438,0.5,0.));
#1139=DIRECTION('',(0.,0.,-1.));
#1140=DIRECTION('center_axis',(-1.,3.37361874804134E-16,0.));
#1141=DIRECTION('ref_axis',(3.37361874804134E-16,1.,0.));
#1142=DIRECTION('',(3.37361874804134E-16,1.,0.));
#1143=DIRECTION('',(0.,0.,-1.));
#1144=DIRECTION('center_axis',(-0.499999999999999,-0.866025403784439,0.));
#1145=DIRECTION('ref_axis',(-0.866025403784439,0.499999999999999,0.));
#1146=DIRECTION('',(-0.866025403784439,0.499999999999999,0.));
#1147=DIRECTION('',(0.,0.,-1.));
#1148=DIRECTION('center_axis',(0.500000000000001,-0.866025403784438,0.));
#1149=DIRECTION('ref_axis',(-0.866025403784438,-0.500000000000001,0.));
#1150=DIRECTION('',(-0.866025403784438,-0.500000000000001,0.));
#1151=DIRECTION('',(0.,0.,-1.));
#1152=DIRECTION('center_axis',(1.,1.34944749921654E-15,0.));
#1153=DIRECTION('ref_axis',(1.34944749921654E-15,-1.,0.));
#1154=DIRECTION('',(1.34944749921654E-15,-1.,0.));
#1155=DIRECTION('center_axis',(0.,0.,-1.));
#1156=DIRECTION('ref_axis',(-1.,0.,0.));
#1157=DIRECTION('center_axis',(0.,0.,-1.));
#1158=DIRECTION('ref_axis',(-1.,0.,0.));
#1159=DIRECTION('',(0.,0.,-1.));
#1160=DIRECTION('center_axis',(0.,0.,1.));
#1161=DIRECTION('ref_axis',(-1.,0.,0.));
#1162=DIRECTION('center_axis',(1.218537466052E-16,1.,0.));
#1163=DIRECTION('ref_axis',(1.,-1.218537466052E-16,0.));
#1164=DIRECTION('',(1.,-1.218537466052E-16,0.));
#1165=DIRECTION('',(0.,0.,-1.));
#1166=DIRECTION('',(1.,-1.218537466052E-16,0.));
#1167=DIRECTION('',(0.,0.,-1.));
#1168=DIRECTION('center_axis',(0.,0.,-1.));
#1169=DIRECTION('ref_axis',(-1.,0.,0.));
#1170=DIRECTION('',(-1.,-1.62471662140267E-16,0.));
#1171=DIRECTION('',(0.,1.,0.));
#1172=DIRECTION('',(-5.9211894646675E-16,-1.,0.));
#1173=DIRECTION('center_axis',(0.,0.,-1.));
#1174=DIRECTION('ref_axis',(-1.,0.,0.));
#1175=DIRECTION('',(1.,-1.08314441426845E-16,0.));
#1176=DIRECTION('',(-5.9211894646675E-16,-1.,0.));
#1177=DIRECTION('',(0.,1.,0.));
#1178=DIRECTION('center_axis',(1.08314441426845E-16,1.,0.));
#1179=DIRECTION('ref_axis',(1.,-1.08314441426845E-16,0.));
#1180=DIRECTION('',(-1.,1.08314441426845E-16,0.));
#1181=DIRECTION('',(0.,0.,-1.));
#1182=DIRECTION('',(0.,0.,-1.));
#1183=DIRECTION('center_axis',(2.22044604925031E-16,-1.,0.));
#1184=DIRECTION('ref_axis',(0.,0.,-1.));
#1185=DIRECTION('',(1.83697019872103E-16,3.37445951098918E-32,-1.));
#1186=DIRECTION('',(0.,0.,-1.));
#1187=DIRECTION('',(-1.,-1.83697019872103E-16,-2.44929359829471E-16));
#1188=DIRECTION('center_axis',(1.83697019872103E-16,-1.,0.));
#1189=DIRECTION('ref_axis',(1.,1.83697019872103E-16,0.));
#1190=DIRECTION('',(-1.,-1.83697019872103E-16,-4.06179155350667E-17));
#1191=DIRECTION('',(0.,0.,-1.));
#1192=DIRECTION('',(1.,1.83697019872103E-16,0.));
#1193=DIRECTION('',(0.,0.,1.));
#1194=DIRECTION('center_axis',(1.83697019872103E-16,-1.,0.));
#1195=DIRECTION('ref_axis',(1.,1.83697019872103E-16,0.));
#1196=DIRECTION('',(-1.,-1.83697019872103E-16,-4.06179155350667E-17));
#1197=DIRECTION('',(0.,0.,1.));
#1198=DIRECTION('',(1.,1.83697019872103E-16,0.));
#1199=DIRECTION('',(0.,0.,1.));
#1200=DIRECTION('center_axis',(0.5,0.866025403784439,0.));
#1201=DIRECTION('ref_axis',(0.866025403784439,-0.5,0.));
#1202=DIRECTION('',(0.866025403784439,-0.5,0.));
#1203=DIRECTION('',(0.,0.,-1.));
#1204=DIRECTION('',(0.866025403784439,-0.5,0.));
#1205=DIRECTION('',(0.,0.,-1.));
#1206=DIRECTION('center_axis',(-0.500000000000001,0.866025403784438,0.));
#1207=DIRECTION('ref_axis',(0.866025403784438,0.500000000000001,0.));
#1208=DIRECTION('',(0.866025403784438,0.500000000000001,0.));
#1209=DIRECTION('',(0.,0.,-1.));
#1210=DIRECTION('',(0.866025403784438,0.500000000000001,0.));
#1211=DIRECTION('center_axis',(-1.,6.74723749608268E-16,0.));
#1212=DIRECTION('ref_axis',(6.74723749608268E-16,1.,0.));
#1213=DIRECTION('',(6.74723749608268E-16,1.,0.));
#1214=DIRECTION('',(0.,0.,-1.));
#1215=DIRECTION('',(6.74723749608268E-16,1.,0.));
#1216=DIRECTION('center_axis',(-0.5,-0.866025403784439,0.));
#1217=DIRECTION('ref_axis',(-0.866025403784439,0.5,0.));
#1218=DIRECTION('',(-0.866025403784439,0.5,0.));
#1219=DIRECTION('',(0.,0.,-1.));
#1220=DIRECTION('',(-0.866025403784439,0.5,0.));
#1221=DIRECTION('center_axis',(0.5,-0.866025403784439,0.));
#1222=DIRECTION('ref_axis',(-0.866025403784439,-0.5,0.));
#1223=DIRECTION('',(-0.866025403784439,-0.5,0.));
#1224=DIRECTION('',(0.,0.,-1.));
#1225=DIRECTION('',(-0.866025403784439,-0.5,0.));
#1226=DIRECTION('center_axis',(1.,-6.74723749608267E-16,0.));
#1227=DIRECTION('ref_axis',(-6.74723749608267E-16,-1.,0.));
#1228=DIRECTION('',(-6.74723749608267E-16,-1.,0.));
#1229=DIRECTION('',(-6.74723749608267E-16,-1.,0.));
#1230=DIRECTION('center_axis',(0.,0.,-1.));
#1231=DIRECTION('ref_axis',(-1.,0.,0.));
#1232=DIRECTION('center_axis',(0.,0.,1.));
#1233=DIRECTION('ref_axis',(-1.,0.,0.));
#1234=DIRECTION('center_axis',(0.5,0.866025403784439,0.));
#1235=DIRECTION('ref_axis',(0.866025403784439,-0.5,0.));
#1236=DIRECTION('',(0.866025403784439,-0.5,0.));
#1237=DIRECTION('',(0.,0.,-1.));
#1238=DIRECTION('',(0.866025403784439,-0.5,0.));
#1239=DIRECTION('',(0.,0.,-1.));
#1240=DIRECTION('center_axis',(-0.5,0.866025403784439,0.));
#1241=DIRECTION('ref_axis',(0.866025403784438,0.5,0.));
#1242=DIRECTION('',(0.866025403784438,0.5,0.));
#1243=DIRECTION('',(0.,0.,-1.));
#1244=DIRECTION('',(0.866025403784438,0.5,0.));
#1245=DIRECTION('center_axis',(-1.,3.37361874804134E-16,0.));
#1246=DIRECTION('ref_axis',(3.37361874804134E-16,1.,0.));
#1247=DIRECTION('',(3.37361874804134E-16,1.,0.));
#1248=DIRECTION('',(0.,0.,-1.));
#1249=DIRECTION('',(3.37361874804134E-16,1.,0.));
#1250=DIRECTION('center_axis',(-0.499999999999999,-0.866025403784439,0.));
#1251=DIRECTION('ref_axis',(-0.866025403784439,0.499999999999999,0.));
#1252=DIRECTION('',(-0.866025403784439,0.499999999999999,0.));
#1253=DIRECTION('',(0.,0.,-1.));
#1254=DIRECTION('',(-0.866025403784439,0.499999999999999,0.));
#1255=DIRECTION('center_axis',(0.500000000000001,-0.866025403784438,0.));
#1256=DIRECTION('ref_axis',(-0.866025403784438,-0.500000000000001,0.));
#1257=DIRECTION('',(-0.866025403784438,-0.500000000000001,0.));
#1258=DIRECTION('',(0.,0.,-1.));
#1259=DIRECTION('',(-0.866025403784438,-0.500000000000001,0.));
#1260=DIRECTION('center_axis',(1.,1.34944749921654E-15,0.));
#1261=DIRECTION('ref_axis',(1.34944749921654E-15,-1.,0.));
#1262=DIRECTION('',(1.34944749921654E-15,-1.,0.));
#1263=DIRECTION('',(1.34944749921654E-15,-1.,0.));
#1264=DIRECTION('center_axis',(0.,0.,-1.));
#1265=DIRECTION('ref_axis',(-1.,0.,0.));
#1266=DIRECTION('center_axis',(0.,0.,1.));
#1267=DIRECTION('ref_axis',(-1.,0.,0.));
#1268=DIRECTION('center_axis',(0.,0.,-1.));
#1269=DIRECTION('ref_axis',(-1.,0.,0.));
#1270=DIRECTION('',(0.,0.,-1.));
#1271=DIRECTION('center_axis',(0.,0.,1.));
#1272=DIRECTION('ref_axis',(-1.,0.,0.));
#1273=DIRECTION('center_axis',(0.,0.,-1.));
#1274=DIRECTION('ref_axis',(-1.,0.,0.));
#1275=DIRECTION('',(0.,0.,-1.));
#1276=DIRECTION('center_axis',(0.,0.,1.));
#1277=DIRECTION('ref_axis',(-1.,0.,0.));
#1278=DIRECTION('center_axis',(1.,1.00929365875014E-16,0.));
#1279=DIRECTION('ref_axis',(-1.00929365875014E-16,1.,0.));
#1280=DIRECTION('',(-1.00929365875014E-16,1.,0.));
#1281=DIRECTION('',(-1.00929365875014E-16,1.,0.));
#1282=DIRECTION('',(0.,0.,1.));
#1283=DIRECTION('center_axis',(-1.,-5.04646829375071E-16,0.));
#1284=DIRECTION('ref_axis',(5.04646829375071E-16,-1.,0.));
#1285=DIRECTION('',(5.04646829375071E-16,-1.,0.));
#1286=DIRECTION('',(0.,0.,-1.));
#1287=DIRECTION('',(5.04646829375071E-16,-1.,0.));
#1288=DIRECTION('center_axis',(0.,0.,1.));
#1289=DIRECTION('ref_axis',(1.,0.,0.));
#1290=DIRECTION('',(2.22044604925031E-16,-1.,0.));
#1291=DIRECTION('',(-1.,-2.16628882853689E-16,0.));
#1292=DIRECTION('',(2.22044604925031E-16,-1.,0.));
#1293=DIRECTION('center_axis',(0.,0.,1.));
#1294=DIRECTION('ref_axis',(1.,0.,0.));
#1295=DIRECTION('',(-1.,-2.16628882853689E-16,0.));
#1296=DIRECTION('',(-4.03717463500057E-16,1.,0.));
#1297=DIRECTION('center_axis',(0.,0.,1.));
#1298=DIRECTION('ref_axis',(1.,0.,0.));
#1299=DIRECTION('',(4.03717463500057E-16,-1.,0.));
#1300=DIRECTION('',(-1.,-2.16628882853689E-16,0.));
#1301=DIRECTION('center_axis',(-1.,-4.03717463500057E-16,0.));
#1302=DIRECTION('ref_axis',(4.03717463500057E-16,-1.,0.));
#1303=DIRECTION('',(4.03717463500057E-16,-1.,0.));
#1304=DIRECTION('',(0.,0.,1.));
#1305=DIRECTION('center_axis',(-2.16628882853689E-16,1.,0.));
#1306=DIRECTION('ref_axis',(-1.,-2.16628882853689E-16,0.));
#1307=DIRECTION('',(-1.,-2.16628882853689E-16,0.));
#1308=DIRECTION('',(0.,0.,1.));
#1309=DIRECTION('center_axis',(1.,4.03717463500057E-16,0.));
#1310=DIRECTION('ref_axis',(-4.03717463500057E-16,1.,0.));
#1311=DIRECTION('',(2.22044604925031E-16,-1.,0.));
#1312=DIRECTION('center_axis',(0.,0.,1.));
#1313=DIRECTION('ref_axis',(1.,0.,0.));
#1314=CARTESIAN_POINT('',(0.,0.,0.));
#1315=CARTESIAN_POINT('Origin',(-8.99999999999999,-11.,3.5));
#1316=CARTESIAN_POINT('',(-7.24999999999999,-11.,5.));
#1317=CARTESIAN_POINT('Origin',(-8.99999999999999,-11.,5.));
#1318=CARTESIAN_POINT('',(-7.24999999999999,-11.,3.5));
#1319=CARTESIAN_POINT('',(-7.24999999999999,-11.,3.5));
#1320=CARTESIAN_POINT('Origin',(-8.99999999999999,-11.,3.5));
#1321=CARTESIAN_POINT('Origin',(-8.99999999999999,-11.,5.));
#1322=CARTESIAN_POINT('',(-6.14999999999999,-9.35455173280957,5.));
#1323=CARTESIAN_POINT('',(-6.14999999999999,-12.6454482671904,5.));
#1324=CARTESIAN_POINT('',(-6.14999999999999,-12.6454482671904,5.));
#1325=CARTESIAN_POINT('',(-8.99999999999999,-7.70910346561914,5.));
#1326=CARTESIAN_POINT('',(-6.14999999999999,-9.35455173280957,5.));
#1327=CARTESIAN_POINT('',(-11.85,-9.35455173280958,5.));
#1328=CARTESIAN_POINT('',(-8.99999999999999,-7.70910346561914,5.));
#1329=CARTESIAN_POINT('',(-11.85,-12.6454482671904,5.));
#1330=CARTESIAN_POINT('',(-11.85,-9.35455173280958,5.));
#1331=CARTESIAN_POINT('',(-8.99999999999999,-14.2908965343809,5.));
#1332=CARTESIAN_POINT('',(-11.85,-12.6454482671904,5.));
#1333=CARTESIAN_POINT('',(-8.99999999999999,-14.2908965343809,5.));
#1334=CARTESIAN_POINT('Origin',(-8.99999999999999,-7.70910346561914,6.));
#1335=CARTESIAN_POINT('',(-8.99999999999999,-7.70910346561914,6.));
#1336=CARTESIAN_POINT('',(-6.14999999999999,-9.35455173280957,6.));
#1337=CARTESIAN_POINT('',(-9.67563972081441,-7.31902269093173,6.));
#1338=CARTESIAN_POINT('',(-8.99999999999999,-7.70910346561914,6.));
#1339=CARTESIAN_POINT('',(-6.14999999999999,-9.35455173280957,6.));
#1340=CARTESIAN_POINT('Origin',(-11.85,-9.35455173280958,6.));
#1341=CARTESIAN_POINT('',(-11.85,-9.35455173280958,6.));
#1342=CARTESIAN_POINT('',(-2.99936027918558,-4.24463250749697,6.));
#1343=CARTESIAN_POINT('',(-11.85,-9.35455173280958,6.));
#1344=CARTESIAN_POINT('Origin',(-11.85,-12.6454482671904,6.));
#1345=CARTESIAN_POINT('',(-11.85,-12.6454482671904,6.));
#1346=CARTESIAN_POINT('',(-11.85,-0.822724133595214,6.));
#1347=CARTESIAN_POINT('',(-11.85,-12.6454482671904,6.));
#1348=CARTESIAN_POINT('Origin',(-8.99999999999999,-14.2908965343809,6.));
#1349=CARTESIAN_POINT('',(-8.99999999999999,-14.2908965343809,6.));
#1350=CARTESIAN_POINT('',(-11.1006397208144,-13.0780916260982,6.));
#1351=CARTESIAN_POINT('',(-8.99999999999999,-14.2908965343809,6.));
#1352=CARTESIAN_POINT('Origin',(-6.14999999999999,-12.6454482671904,6.));
#1353=CARTESIAN_POINT('',(-6.14999999999999,-12.6454482671904,6.));
#1354=CARTESIAN_POINT('',(1.27563972081442,-8.35825317547307,6.));
#1355=CARTESIAN_POINT('',(-6.14999999999999,-12.6454482671904,6.));
#1356=CARTESIAN_POINT('Origin',(-6.14999999999999,-9.35455173280957,6.));
#1357=CARTESIAN_POINT('',(-6.14999999999998,0.822724133595218,6.));
#1358=CARTESIAN_POINT('Origin',(-8.99999999999999,-11.,3.5));
#1359=CARTESIAN_POINT('',(-7.24999999999999,-11.,-0.5));
#1360=CARTESIAN_POINT('Origin',(-8.99999999999999,-11.,-0.5));
#1361=CARTESIAN_POINT('',(-7.24999999999999,-11.,-2.));
#1362=CARTESIAN_POINT('',(-7.24999999999999,-11.,3.5));
#1363=CARTESIAN_POINT('Origin',(-8.99999999999999,-11.,-2.));
#1364=CARTESIAN_POINT('Origin',(9.00000000000001,-11.,3.5));
#1365=CARTESIAN_POINT('',(10.75,-11.,5.));
#1366=CARTESIAN_POINT('Origin',(9.00000000000001,-11.,5.));
#1367=CARTESIAN_POINT('',(10.75,-11.,3.5));
#1368=CARTESIAN_POINT('',(10.75,-11.,3.5));
#1369=CARTESIAN_POINT('Origin',(9.00000000000001,-11.,3.5));
#1370=CARTESIAN_POINT('Origin',(9.00000000000001,-11.,5.));
#1371=CARTESIAN_POINT('',(11.85,-9.35455173280957,5.));
#1372=CARTESIAN_POINT('',(11.85,-12.6454482671904,5.));
#1373=CARTESIAN_POINT('',(11.85,-12.6454482671904,5.));
#1374=CARTESIAN_POINT('',(9.,-7.70910346561914,5.));
#1375=CARTESIAN_POINT('',(11.85,-9.35455173280957,5.));
#1376=CARTESIAN_POINT('',(6.15,-9.35455173280957,5.));
#1377=CARTESIAN_POINT('',(9.,-7.70910346561914,5.));
#1378=CARTESIAN_POINT('',(6.15,-12.6454482671904,5.));
#1379=CARTESIAN_POINT('',(6.15,-9.35455173280957,5.));
#1380=CARTESIAN_POINT('',(9.00000000000001,-14.2908965343809,5.));
#1381=CARTESIAN_POINT('',(6.15,-12.6454482671904,5.));
#1382=CARTESIAN_POINT('',(9.00000000000001,-14.2908965343809,5.));
#1383=CARTESIAN_POINT('Origin',(9.,-7.70910346561914,6.));
#1384=CARTESIAN_POINT('',(9.,-7.70910346561914,6.));
#1385=CARTESIAN_POINT('',(11.85,-9.35455173280957,6.));
#1386=CARTESIAN_POINT('',(1.57436027918559,-3.42190837390176,6.));
#1387=CARTESIAN_POINT('',(9.,-7.70910346561914,6.));
#1388=CARTESIAN_POINT('',(11.85,-9.35455173280957,6.));
#1389=CARTESIAN_POINT('Origin',(6.15,-9.35455173280957,6.));
#1390=CARTESIAN_POINT('',(6.15,-9.35455173280957,6.));
#1391=CARTESIAN_POINT('',(8.25063972081442,-8.14174682452695,6.));
#1392=CARTESIAN_POINT('',(6.15,-9.35455173280957,6.));
#1393=CARTESIAN_POINT('Origin',(6.15,-12.6454482671904,6.));
#1394=CARTESIAN_POINT('',(6.15,-12.6454482671904,6.));
#1395=CARTESIAN_POINT('',(6.15000000000001,-0.822724133595219,6.));
#1396=CARTESIAN_POINT('',(6.15,-12.6454482671904,6.));
#1397=CARTESIAN_POINT('Origin',(9.00000000000001,-14.2908965343809,6.));
#1398=CARTESIAN_POINT('',(9.00000000000001,-14.2908965343809,6.));
#1399=CARTESIAN_POINT('',(0.14936027918559,-9.18097730906829,6.));
#1400=CARTESIAN_POINT('',(9.00000000000001,-14.2908965343809,6.));
#1401=CARTESIAN_POINT('Origin',(11.85,-12.6454482671904,6.));
#1402=CARTESIAN_POINT('',(11.85,-12.6454482671904,6.));
#1403=CARTESIAN_POINT('',(12.5256397208144,-12.255367492503,6.));
#1404=CARTESIAN_POINT('',(11.85,-12.6454482671904,6.));
#1405=CARTESIAN_POINT('Origin',(11.85,-9.35455173280957,6.));
#1406=CARTESIAN_POINT('',(11.85,0.822724133595225,6.));
#1407=CARTESIAN_POINT('Origin',(9.00000000000001,-11.,3.5));
#1408=CARTESIAN_POINT('',(10.75,-11.,-0.5));
#1409=CARTESIAN_POINT('Origin',(9.00000000000001,-11.,-0.5));
#1410=CARTESIAN_POINT('',(10.75,-11.,-2.));
#1411=CARTESIAN_POINT('',(10.75,-11.,3.5));
#1412=CARTESIAN_POINT('Origin',(9.00000000000001,-11.,-2.));
#1413=CARTESIAN_POINT('Origin',(-20.5,-4.99999999999999,-0.5));
#1414=CARTESIAN_POINT('',(-20.5,-4.99999999999999,-0.5));
#1415=CARTESIAN_POINT('',(20.5,-4.99999999999999,-0.5));
#1416=CARTESIAN_POINT('',(-20.5,-4.99999999999999,-0.5));
#1417=CARTESIAN_POINT('',(20.5,-4.99999999999999,-2.));
#1418=CARTESIAN_POINT('',(20.5,-4.99999999999999,-0.5));
#1419=CARTESIAN_POINT('',(-20.5,-4.99999999999999,-2.));
#1420=CARTESIAN_POINT('',(-20.5,-4.99999999999999,-2.));
#1421=CARTESIAN_POINT('',(-20.5,-4.99999999999999,-0.5));
#1422=CARTESIAN_POINT('Origin',(8.88178419700125E-15,-12.5,-2.));
#1423=CARTESIAN_POINT('',(20.5,-20.,-2.));
#1424=CARTESIAN_POINT('',(-20.5,-20.,-2.));
#1425=CARTESIAN_POINT('',(20.5,-20.,-2.));
#1426=CARTESIAN_POINT('',(-20.5,-20.,-2.));
#1427=CARTESIAN_POINT('',(20.5,-4.99999999999999,-2.));
#1428=CARTESIAN_POINT('Origin',(8.88178419700125E-15,-12.5,-0.5));
#1429=CARTESIAN_POINT('',(-20.5,-16.5,-0.5));
#1430=CARTESIAN_POINT('',(20.5,-16.5,-0.5));
#1431=CARTESIAN_POINT('',(-20.5,-16.5,-0.5));
#1432=CARTESIAN_POINT('',(20.5,-4.99999999999999,-0.5));
#1433=CARTESIAN_POINT('',(-20.5,-20.,-0.5));
#1434=CARTESIAN_POINT('Origin',(-20.5,-16.5,3.5));
#1435=CARTESIAN_POINT('',(20.5,-16.5,3.5));
#1436=CARTESIAN_POINT('',(-20.5,-16.5,3.5));
#1437=CARTESIAN_POINT('',(-10.25,-16.5,3.5));
#1438=CARTESIAN_POINT('',(20.5,-16.5,3.5));
#1439=CARTESIAN_POINT('',(-20.5,-16.5,3.5));
#1440=CARTESIAN_POINT('Origin',(4.44089209850063E-15,-20.,4.75));
#1441=CARTESIAN_POINT('',(-20.5,-20.,6.));
#1442=CARTESIAN_POINT('',(-20.5,-20.,6.));
#1443=CARTESIAN_POINT('',(20.5,-20.,6.00000000000001));
#1444=CARTESIAN_POINT('',(20.5,-20.,3.5));
#1445=CARTESIAN_POINT('',(20.5,-20.,6.00000000000001));
#1446=CARTESIAN_POINT('Origin',(-20.5,0.,0.));
#1447=CARTESIAN_POINT('',(20.5,7.53157781475622E-15,3.5));
#1448=CARTESIAN_POINT('',(18.5,-4.04746655008402E-15,3.5));
#1449=CARTESIAN_POINT('',(-20.5,0.,3.5));
#1450=CARTESIAN_POINT('',(18.5,-4.04746655008402E-15,0.));
#1451=CARTESIAN_POINT('',(18.5,7.16418377501202E-15,0.));
#1452=CARTESIAN_POINT('',(20.5,7.53157781475622E-15,0.));
#1453=CARTESIAN_POINT('',(-20.5,0.,0.));
#1454=CARTESIAN_POINT('',(20.5,7.53157781475622E-15,0.));
#1455=CARTESIAN_POINT('Origin',(-20.5,0.,0.));
#1456=CARTESIAN_POINT('',(-18.5,-5.2659454804027E-15,3.5));
#1457=CARTESIAN_POINT('',(-20.5,5.77399553537862E-31,3.5));
#1458=CARTESIAN_POINT('',(-20.5,0.,3.5));
#1459=CARTESIAN_POINT('',(-20.5,0.,0.));
#1460=CARTESIAN_POINT('',(-20.5,0.,0.));
#1461=CARTESIAN_POINT('',(-18.5,-5.2659454804027E-15,0.));
#1462=CARTESIAN_POINT('',(-20.5,0.,0.));
#1463=CARTESIAN_POINT('',(-18.5,0.,0.));
#1464=CARTESIAN_POINT('Origin',(-9.,14.2908965343809,6.));
#1465=CARTESIAN_POINT('',(-9.,14.2908965343809,6.));
#1466=CARTESIAN_POINT('',(-6.15,12.6454482671904,6.));
#1467=CARTESIAN_POINT('',(-4.9125,11.9309773090683,6.));
#1468=CARTESIAN_POINT('',(-9.,14.2908965343809,5.));
#1469=CARTESIAN_POINT('',(-9.,14.2908965343809,6.));
#1470=CARTESIAN_POINT('',(-6.15,12.6454482671904,5.));
#1471=CARTESIAN_POINT('',(-6.15,12.6454482671904,5.));
#1472=CARTESIAN_POINT('',(-6.15,12.6454482671904,6.));
#1473=CARTESIAN_POINT('Origin',(-11.85,12.6454482671904,6.));
#1474=CARTESIAN_POINT('',(-11.85,12.6454482671904,6.));
#1475=CARTESIAN_POINT('',(-7.76250000000001,15.005367492503,6.));
#1476=CARTESIAN_POINT('',(-11.85,12.6454482671904,5.));
#1477=CARTESIAN_POINT('',(-11.85,12.6454482671904,6.));
#1478=CARTESIAN_POINT('',(-9.,14.2908965343809,5.));
#1479=CARTESIAN_POINT('Origin',(-11.85,9.35455173280956,6.));
#1480=CARTESIAN_POINT('',(-11.85,9.35455173280956,6.));
#1481=CARTESIAN_POINT('',(-11.85,10.1772758664048,6.));
#1482=CARTESIAN_POINT('',(-11.85,9.35455173280956,5.));
#1483=CARTESIAN_POINT('',(-11.85,9.35455173280956,6.));
#1484=CARTESIAN_POINT('',(-11.85,12.6454482671904,5.));
#1485=CARTESIAN_POINT('Origin',(-9.,7.70910346561913,6.));
#1486=CARTESIAN_POINT('',(-9.,7.70910346561913,6.));
#1487=CARTESIAN_POINT('',(-6.3375,6.17190837390175,6.));
#1488=CARTESIAN_POINT('',(-9.,7.70910346561913,5.));
#1489=CARTESIAN_POINT('',(-9.,7.70910346561913,6.));
#1490=CARTESIAN_POINT('',(-11.85,9.35455173280956,5.));
#1491=CARTESIAN_POINT('Origin',(-6.15,9.35455173280956,6.));
#1492=CARTESIAN_POINT('',(-6.15,9.35455173280956,6.));
#1493=CARTESIAN_POINT('',(-3.4875,10.8917468245269,6.));
#1494=CARTESIAN_POINT('',(-6.15,9.35455173280956,5.));
#1495=CARTESIAN_POINT('',(-6.15,9.35455173280956,6.));
#1496=CARTESIAN_POINT('',(-9.,7.70910346561913,5.));
#1497=CARTESIAN_POINT('Origin',(-6.15,12.6454482671904,6.));
#1498=CARTESIAN_POINT('',(-6.15,11.8227241335952,6.));
#1499=CARTESIAN_POINT('',(-6.15,9.35455173280956,5.));
#1500=CARTESIAN_POINT('Origin',(-9.,11.,5.));
#1501=CARTESIAN_POINT('',(-7.25,11.,5.));
#1502=CARTESIAN_POINT('Origin',(-9.,11.,5.));
#1503=CARTESIAN_POINT('Origin',(9.,14.2908965343809,6.));
#1504=CARTESIAN_POINT('',(9.,14.2908965343809,6.));
#1505=CARTESIAN_POINT('',(11.85,12.6454482671904,6.));
#1506=CARTESIAN_POINT('',(6.3375,15.8280916260982,6.));
#1507=CARTESIAN_POINT('',(9.,14.2908965343809,5.));
#1508=CARTESIAN_POINT('',(9.,14.2908965343809,6.));
#1509=CARTESIAN_POINT('',(11.85,12.6454482671904,5.));
#1510=CARTESIAN_POINT('',(11.85,12.6454482671904,5.));
#1511=CARTESIAN_POINT('',(11.85,12.6454482671904,6.));
#1512=CARTESIAN_POINT('Origin',(6.15,12.6454482671904,6.));
#1513=CARTESIAN_POINT('',(6.15,12.6454482671904,6.));
#1514=CARTESIAN_POINT('',(3.4875,11.1082531754731,6.));
#1515=CARTESIAN_POINT('',(6.15,12.6454482671904,5.));
#1516=CARTESIAN_POINT('',(6.15,12.6454482671904,6.));
#1517=CARTESIAN_POINT('',(9.,14.2908965343809,5.));
#1518=CARTESIAN_POINT('Origin',(6.15,9.35455173280956,6.));
#1519=CARTESIAN_POINT('',(6.15,9.35455173280956,6.));
#1520=CARTESIAN_POINT('',(6.15,10.1772758664048,6.));
#1521=CARTESIAN_POINT('',(6.15,9.35455173280956,5.));
#1522=CARTESIAN_POINT('',(6.15,9.35455173280956,6.));
#1523=CARTESIAN_POINT('',(6.15,12.6454482671904,5.));
#1524=CARTESIAN_POINT('Origin',(9.,7.70910346561913,6.));
#1525=CARTESIAN_POINT('',(9.,7.70910346561913,6.));
#1526=CARTESIAN_POINT('',(4.91249999999999,10.0690226909317,6.));
#1527=CARTESIAN_POINT('',(9.,7.70910346561913,5.));
#1528=CARTESIAN_POINT('',(9.,7.70910346561913,6.));
#1529=CARTESIAN_POINT('',(6.15,9.35455173280956,5.));
#1530=CARTESIAN_POINT('Origin',(11.85,9.35455173280957,6.));
#1531=CARTESIAN_POINT('',(11.85,9.35455173280957,6.));
#1532=CARTESIAN_POINT('',(7.76250000000001,6.99463250749697,6.));
#1533=CARTESIAN_POINT('',(11.85,9.35455173280957,5.));
#1534=CARTESIAN_POINT('',(11.85,9.35455173280957,6.));
#1535=CARTESIAN_POINT('',(9.,7.70910346561913,5.));
#1536=CARTESIAN_POINT('Origin',(11.85,12.6454482671904,6.));
#1537=CARTESIAN_POINT('',(11.85,11.8227241335952,6.));
#1538=CARTESIAN_POINT('',(11.85,9.35455173280957,5.));
#1539=CARTESIAN_POINT('Origin',(9.,11.,5.));
#1540=CARTESIAN_POINT('',(10.75,11.,5.));
#1541=CARTESIAN_POINT('Origin',(9.,11.,5.));
#1542=CARTESIAN_POINT('Origin',(9.,11.,3.5));
#1543=CARTESIAN_POINT('',(10.75,11.,3.5));
#1544=CARTESIAN_POINT('',(10.75,11.,3.5));
#1545=CARTESIAN_POINT('Origin',(9.,11.,3.5));
#1546=CARTESIAN_POINT('Origin',(-9.,11.,3.5));
#1547=CARTESIAN_POINT('',(-7.25,11.,3.5));
#1548=CARTESIAN_POINT('',(-7.25,11.,3.5));
#1549=CARTESIAN_POINT('Origin',(-9.,11.,3.5));
#1550=CARTESIAN_POINT('Origin',(18.5,-4.44089209850063E-15,0.));
#1551=CARTESIAN_POINT('',(18.5,22.,0.));
#1552=CARTESIAN_POINT('',(18.5,5.5,0.));
#1553=CARTESIAN_POINT('',(18.5,22.,3.5));
#1554=CARTESIAN_POINT('',(18.5,22.,3.5));
#1555=CARTESIAN_POINT('',(18.5,22.,0.));
#1556=CARTESIAN_POINT('Origin',(-18.5,22.,0.));
#1557=CARTESIAN_POINT('',(-18.5,22.,0.));
#1558=CARTESIAN_POINT('',(-18.5,16.5,0.));
#1559=CARTESIAN_POINT('',(-18.5,22.,3.5));
#1560=CARTESIAN_POINT('',(-18.5,22.,0.));
#1561=CARTESIAN_POINT('',(-18.5,-4.44089209850063E-15,3.5));
#1562=CARTESIAN_POINT('Origin',(-6.66133814775094E-15,11.,3.5));
#1563=CARTESIAN_POINT('',(-20.5,5.77399553537862E-31,3.5));
#1564=CARTESIAN_POINT('',(10.25,22.,3.5));
#1565=CARTESIAN_POINT('',(20.5,7.53157781475622E-15,3.5));
#1566=CARTESIAN_POINT('Origin',(-4.44089209850063E-15,11.,0.));
#1567=CARTESIAN_POINT('',(20.5,22.,0.));
#1568=CARTESIAN_POINT('',(20.5,22.,0.));
#1569=CARTESIAN_POINT('',(20.5,7.53157781475622E-15,0.));
#1570=CARTESIAN_POINT('Origin',(-4.44089209850063E-15,11.,0.));
#1571=CARTESIAN_POINT('',(-20.5,22.,0.));
#1572=CARTESIAN_POINT('',(-20.5,22.,0.));
#1573=CARTESIAN_POINT('',(20.5,22.,0.));
#1574=CARTESIAN_POINT('Origin',(-20.5,22.,0.));
#1575=CARTESIAN_POINT('',(-20.5,22.,6.));
#1576=CARTESIAN_POINT('',(-20.5,22.,6.));
#1577=CARTESIAN_POINT('',(-20.5,22.,0.));
#1578=CARTESIAN_POINT('Origin',(20.5,22.,0.));
#1579=CARTESIAN_POINT('',(20.5,22.,6.));
#1580=CARTESIAN_POINT('',(20.5,22.,6.));
#1581=CARTESIAN_POINT('',(20.5,22.,0.));
#1582=CARTESIAN_POINT('Origin',(20.5,7.53157781475622E-15,0.));
#1583=CARTESIAN_POINT('',(20.5,7.53157781475622E-15,6.00000000000001));
#1584=CARTESIAN_POINT('Origin',(-4.44089209850063E-15,11.,6.));
#1585=UNCERTAINTY_MEASURE_WITH_UNIT(LENGTH_MEASURE(0.01),#1589,
'DISTANCE_ACCURACY_VALUE',
'Maximum model space distance between geometric entities at asserted c
onnectivities');
#1586=UNCERTAINTY_MEASURE_WITH_UNIT(LENGTH_MEASURE(0.01),#1589,
'DISTANCE_ACCURACY_VALUE',
'Maximum model space distance between geometric entities at asserted c
onnectivities');
#1587=(
GEOMETRIC_REPRESENTATION_CONTEXT(3)
GLOBAL_UNCERTAINTY_ASSIGNED_CONTEXT((#1585))
GLOBAL_UNIT_ASSIGNED_CONTEXT((#1589,#1591,#1592))
REPRESENTATION_CONTEXT('','3D')
);
#1588=(
GEOMETRIC_REPRESENTATION_CONTEXT(3)
GLOBAL_UNCERTAINTY_ASSIGNED_CONTEXT((#1586))
GLOBAL_UNIT_ASSIGNED_CONTEXT((#1589,#1591,#1592))
REPRESENTATION_CONTEXT('','3D')
);
#1589=(
LENGTH_UNIT()
NAMED_UNIT(*)
SI_UNIT(.MILLI.,.METRE.)
);
#1590=(
LENGTH_UNIT()
NAMED_UNIT(*)
SI_UNIT(.CENTI.,.METRE.)
);
#1591=(
NAMED_UNIT(*)
PLANE_ANGLE_UNIT()
SI_UNIT($,.RADIAN.)
);
#1592=(
NAMED_UNIT(*)
SI_UNIT($,.STERADIAN.)
SOLID_ANGLE_UNIT()
);
#1593=SHAPE_DEFINITION_REPRESENTATION(#1594,#1595);
#1594=PRODUCT_DEFINITION_SHAPE('',$,#1597);
#1595=SHAPE_REPRESENTATION('',(#1005),#1587);
#1596=PRODUCT_DEFINITION_CONTEXT('part definition',#1601,'design');
#1597=PRODUCT_DEFINITION('belt_end','belt_end',#1598,#1596);
#1598=PRODUCT_DEFINITION_FORMATION('',$,#1603);
#1599=PRODUCT_RELATED_PRODUCT_CATEGORY('belt_end','belt_end',(#1603));
#1600=APPLICATION_PROTOCOL_DEFINITION('international standard',
'automotive_design',2009,#1601);
#1601=APPLICATION_CONTEXT(
'Core Data for Automotive Mechanical Design Process');
#1602=PRODUCT_CONTEXT('part definition',#1601,'mechanical');
#1603=PRODUCT('belt_end','belt_end',$,(#1602));
#1604=PRESENTATION_STYLE_ASSIGNMENT((#1606));
#1605=PRESENTATION_STYLE_ASSIGNMENT((#1607));
#1606=SURFACE_STYLE_USAGE(.BOTH.,#1612);
#1607=SURFACE_STYLE_USAGE(.BOTH.,#1613);
#1608=SURFACE_STYLE_RENDERING_WITH_PROPERTIES($,#1620,(#1610));
#1609=SURFACE_STYLE_RENDERING_WITH_PROPERTIES($,#1621,(#1611));
#1610=SURFACE_STYLE_TRANSPARENT(0.);
#1611=SURFACE_STYLE_TRANSPARENT(0.);
#1612=SURFACE_SIDE_STYLE('',(#1614,#1608));
#1613=SURFACE_SIDE_STYLE('',(#1615,#1609));
#1614=SURFACE_STYLE_FILL_AREA(#1616);
#1615=SURFACE_STYLE_FILL_AREA(#1617);
#1616=FILL_AREA_STYLE('',(#1618));
#1617=FILL_AREA_STYLE('',(#1619));
#1618=FILL_AREA_STYLE_COLOUR('',#1620);
#1619=FILL_AREA_STYLE_COLOUR('',#1621);
#1620=COLOUR_RGB('',0.749019607843137,0.749019607843137,0.749019607843137);
#1621=COLOUR_RGB('',0.352941176470588,0.352941176470588,0.352941176470588);
ENDSEC;
END-ISO-10303-21;
