ISO-10303-21;
HEADER;
/* Generated by software containing ST-Developer
 * from STEP Tools, Inc. (www.steptools.com) 
 */

FILE_DESCRIPTION(
/* description */ (''),
/* implementation_level */ '2;1');

FILE_NAME(
/* name */ 'handle_monitor_case_side_left.stp',
/* time_stamp */ '2026-02-03T22:13:04+09:00',
/* author */ ('hibik'),
/* organization */ (''),
/* preprocessor_version */ 'ST-DEVELOPER v20.1',
/* originating_system */ 'Autodesk Inventor 2026',
/* authorisation */ '');

FILE_SCHEMA (('AUTOMOTIVE_DESIGN { 1 0 10303 214 3 1 1 }'));
ENDSEC;

DATA;
#10=MECHANICAL_DESIGN_GEOMETRIC_PRESENTATION_REPRESENTATION('',(#810,#811,
#812,#813,#814,#815,#816,#817,#818,#819,#820,#821,#822,#823,#824,#825,#826,
#827,#828,#829,#830,#831,#832,#833,#834,#835,#836,#837,#838,#839,#840,#841,
#842,#843,#844,#845,#846,#847,#848,#849,#850,#851,#852,#853),#1466);
#11=SHAPE_REPRESENTATION_RELATIONSHIP('SRR','None',#1473,#12);
#12=ADVANCED_BREP_SHAPE_REPRESENTATION('',(#13),#1465);
#13=MANIFOLD_SOLID_BREP('\X2\30BD30EA30C330C9\X0\1',#897);
#14=ELLIPSE('',#964,20.991186980828,20.);
#15=ELLIPSE('',#966,20.9911869808447,20.);
#16=ELLIPSE('',#971,22.5655260043901,21.5);
#17=ELLIPSE('',#980,2.09911869808447,2.);
#18=ELLIPSE('',#981,0.524779674521118,0.5);
#19=ELLIPSE('',#982,22.565526004408,21.5);
#20=FACE_BOUND('',#124,.T.);
#21=FACE_BOUND('',#125,.T.);
#22=FACE_BOUND('',#126,.T.);
#23=FACE_BOUND('',#127,.T.);
#24=FACE_BOUND('',#138,.T.);
#25=FACE_BOUND('',#139,.T.);
#26=FACE_BOUND('',#140,.T.);
#27=FACE_BOUND('',#141,.T.);
#28=FACE_BOUND('',#150,.T.);
#29=FACE_BOUND('',#154,.T.);
#30=PLANE('',#932);
#31=PLANE('',#933);
#32=PLANE('',#937);
#33=PLANE('',#938);
#34=PLANE('',#942);
#35=PLANE('',#943);
#36=PLANE('',#947);
#37=PLANE('',#951);
#38=PLANE('',#952);
#39=PLANE('',#953);
#40=PLANE('',#954);
#41=PLANE('',#955);
#42=PLANE('',#956);
#43=PLANE('',#957);
#44=PLANE('',#958);
#45=PLANE('',#959);
#46=PLANE('',#960);
#47=PLANE('',#961);
#48=PLANE('',#962);
#49=PLANE('',#967);
#50=PLANE('',#968);
#51=PLANE('',#969);
#52=PLANE('',#970);
#53=PLANE('',#972);
#54=PLANE('',#976);
#55=PLANE('',#977);
#56=PLANE('',#978);
#57=PLANE('',#979);
#58=PLANE('',#983);
#59=PLANE('',#986);
#60=PLANE('',#988);
#61=FACE_OUTER_BOUND('',#104,.T.);
#62=FACE_OUTER_BOUND('',#105,.T.);
#63=FACE_OUTER_BOUND('',#106,.T.);
#64=FACE_OUTER_BOUND('',#107,.T.);
#65=FACE_OUTER_BOUND('',#108,.T.);
#66=FACE_OUTER_BOUND('',#109,.T.);
#67=FACE_OUTER_BOUND('',#110,.T.);
#68=FACE_OUTER_BOUND('',#111,.T.);
#69=FACE_OUTER_BOUND('',#112,.T.);
#70=FACE_OUTER_BOUND('',#113,.T.);
#71=FACE_OUTER_BOUND('',#114,.T.);
#72=FACE_OUTER_BOUND('',#115,.T.);
#73=FACE_OUTER_BOUND('',#116,.T.);
#74=FACE_OUTER_BOUND('',#117,.T.);
#75=FACE_OUTER_BOUND('',#118,.T.);
#76=FACE_OUTER_BOUND('',#119,.T.);
#77=FACE_OUTER_BOUND('',#120,.T.);
#78=FACE_OUTER_BOUND('',#121,.T.);
#79=FACE_OUTER_BOUND('',#122,.T.);
#80=FACE_OUTER_BOUND('',#123,.T.);
#81=FACE_OUTER_BOUND('',#128,.T.);
#82=FACE_OUTER_BOUND('',#129,.T.);
#83=FACE_OUTER_BOUND('',#130,.T.);
#84=FACE_OUTER_BOUND('',#131,.T.);
#85=FACE_OUTER_BOUND('',#132,.T.);
#86=FACE_OUTER_BOUND('',#133,.T.);
#87=FACE_OUTER_BOUND('',#134,.T.);
#88=FACE_OUTER_BOUND('',#135,.T.);
#89=FACE_OUTER_BOUND('',#136,.T.);
#90=FACE_OUTER_BOUND('',#137,.T.);
#91=FACE_OUTER_BOUND('',#142,.T.);
#92=FACE_OUTER_BOUND('',#143,.T.);
#93=FACE_OUTER_BOUND('',#144,.T.);
#94=FACE_OUTER_BOUND('',#145,.T.);
#95=FACE_OUTER_BOUND('',#146,.T.);
#96=FACE_OUTER_BOUND('',#147,.T.);
#97=FACE_OUTER_BOUND('',#148,.T.);
#98=FACE_OUTER_BOUND('',#149,.T.);
#99=FACE_OUTER_BOUND('',#151,.T.);
#100=FACE_OUTER_BOUND('',#152,.T.);
#101=FACE_OUTER_BOUND('',#153,.T.);
#102=FACE_OUTER_BOUND('',#155,.T.);
#103=FACE_OUTER_BOUND('',#156,.T.);
#104=EDGE_LOOP('',(#560,#561,#562,#563));
#105=EDGE_LOOP('',(#564,#565,#566,#567));
#106=EDGE_LOOP('',(#568,#569,#570,#571));
#107=EDGE_LOOP('',(#572,#573,#574,#575));
#108=EDGE_LOOP('',(#576,#577,#578,#579));
#109=EDGE_LOOP('',(#580,#581,#582,#583));
#110=EDGE_LOOP('',(#584,#585,#586,#587));
#111=EDGE_LOOP('',(#588,#589,#590,#591));
#112=EDGE_LOOP('',(#592,#593,#594,#595));
#113=EDGE_LOOP('',(#596,#597,#598,#599));
#114=EDGE_LOOP('',(#600,#601,#602,#603));
#115=EDGE_LOOP('',(#604,#605,#606,#607));
#116=EDGE_LOOP('',(#608,#609,#610,#611));
#117=EDGE_LOOP('',(#612,#613,#614,#615));
#118=EDGE_LOOP('',(#616,#617,#618,#619));
#119=EDGE_LOOP('',(#620,#621,#622,#623));
#120=EDGE_LOOP('',(#624,#625,#626,#627));
#121=EDGE_LOOP('',(#628,#629,#630,#631));
#122=EDGE_LOOP('',(#632,#633,#634,#635));
#123=EDGE_LOOP('',(#636,#637,#638,#639));
#124=EDGE_LOOP('',(#640));
#125=EDGE_LOOP('',(#641));
#126=EDGE_LOOP('',(#642));
#127=EDGE_LOOP('',(#643,#644,#645,#646,#647,#648,#649,#650,#651,#652,#653,
#654,#655,#656,#657,#658,#659,#660,#661,#662));
#128=EDGE_LOOP('',(#663,#664,#665,#666));
#129=EDGE_LOOP('',(#667,#668,#669,#670));
#130=EDGE_LOOP('',(#671,#672,#673,#674));
#131=EDGE_LOOP('',(#675,#676,#677,#678));
#132=EDGE_LOOP('',(#679,#680,#681,#682));
#133=EDGE_LOOP('',(#683,#684,#685,#686));
#134=EDGE_LOOP('',(#687,#688,#689,#690));
#135=EDGE_LOOP('',(#691,#692,#693,#694,#695));
#136=EDGE_LOOP('',(#696,#697,#698,#699));
#137=EDGE_LOOP('',(#700,#701,#702,#703));
#138=EDGE_LOOP('',(#704));
#139=EDGE_LOOP('',(#705));
#140=EDGE_LOOP('',(#706));
#141=EDGE_LOOP('',(#707,#708,#709,#710,#711,#712,#713,#714,#715,#716,#717,
#718,#719,#720,#721,#722,#723,#724,#725,#726));
#142=EDGE_LOOP('',(#727,#728,#729,#730));
#143=EDGE_LOOP('',(#731,#732,#733,#734));
#144=EDGE_LOOP('',(#735,#736,#737,#738,#739,#740,#741,#742,#743,#744));
#145=EDGE_LOOP('',(#745,#746,#747,#748));
#146=EDGE_LOOP('',(#749,#750,#751,#752));
#147=EDGE_LOOP('',(#753,#754,#755,#756));
#148=EDGE_LOOP('',(#757,#758,#759,#760,#761,#762,#763,#764,#765,#766));
#149=EDGE_LOOP('',(#767,#768,#769,#770,#771,#772));
#150=EDGE_LOOP('',(#773));
#151=EDGE_LOOP('',(#774,#775,#776,#777,#778));
#152=EDGE_LOOP('',(#779,#780,#781,#782));
#153=EDGE_LOOP('',(#783,#784,#785,#786,#787,#788));
#154=EDGE_LOOP('',(#789));
#155=EDGE_LOOP('',(#790,#791,#792,#793));
#156=EDGE_LOOP('',(#794,#795,#796,#797));
#157=LINE('',#1227,#250);
#158=LINE('',#1233,#251);
#159=LINE('',#1239,#252);
#160=LINE('',#1245,#253);
#161=LINE('',#1250,#254);
#162=LINE('',#1252,#255);
#163=LINE('',#1254,#256);
#164=LINE('',#1255,#257);
#165=LINE('',#1259,#258);
#166=LINE('',#1261,#259);
#167=LINE('',#1263,#260);
#168=LINE('',#1264,#261);
#169=LINE('',#1269,#262);
#170=LINE('',#1273,#263);
#171=LINE('',#1275,#264);
#172=LINE('',#1276,#265);
#173=LINE('',#1280,#266);
#174=LINE('',#1282,#267);
#175=LINE('',#1284,#268);
#176=LINE('',#1285,#269);
#177=LINE('',#1292,#270);
#178=LINE('',#1294,#271);
#179=LINE('',#1296,#272);
#180=LINE('',#1297,#273);
#181=LINE('',#1301,#274);
#182=LINE('',#1303,#275);
#183=LINE('',#1305,#276);
#184=LINE('',#1306,#277);
#185=LINE('',#1311,#278);
#186=LINE('',#1315,#279);
#187=LINE('',#1317,#280);
#188=LINE('',#1318,#281);
#189=LINE('',#1324,#282);
#190=LINE('',#1327,#283);
#191=LINE('',#1329,#284);
#192=LINE('',#1330,#285);
#193=LINE('',#1333,#286);
#194=LINE('',#1335,#287);
#195=LINE('',#1336,#288);
#196=LINE('',#1338,#289);
#197=LINE('',#1339,#290);
#198=LINE('',#1342,#291);
#199=LINE('',#1344,#292);
#200=LINE('',#1345,#293);
#201=LINE('',#1349,#294);
#202=LINE('',#1351,#295);
#203=LINE('',#1353,#296);
#204=LINE('',#1354,#297);
#205=LINE('',#1356,#298);
#206=LINE('',#1357,#299);
#207=LINE('',#1358,#300);
#208=LINE('',#1360,#301);
#209=LINE('',#1361,#302);
#210=LINE('',#1364,#303);
#211=LINE('',#1365,#304);
#212=LINE('',#1367,#305);
#213=LINE('',#1369,#306);
#214=LINE('',#1372,#307);
#215=LINE('',#1373,#308);
#216=LINE('',#1375,#309);
#217=LINE('',#1379,#310);
#218=LINE('',#1381,#311);
#219=LINE('',#1383,#312);
#220=LINE('',#1384,#313);
#221=LINE('',#1387,#314);
#222=LINE('',#1389,#315);
#223=LINE('',#1390,#316);
#224=LINE('',#1398,#317);
#225=LINE('',#1401,#318);
#226=LINE('',#1404,#319);
#227=LINE('',#1406,#320);
#228=LINE('',#1407,#321);
#229=LINE('',#1410,#322);
#230=LINE('',#1412,#323);
#231=LINE('',#1413,#324);
#232=LINE('',#1415,#325);
#233=LINE('',#1416,#326);
#234=LINE('',#1420,#327);
#235=LINE('',#1425,#328);
#236=LINE('',#1429,#329);
#237=LINE('',#1431,#330);
#238=LINE('',#1433,#331);
#239=LINE('',#1436,#332);
#240=LINE('',#1437,#333);
#241=LINE('',#1439,#334);
#242=LINE('',#1441,#335);
#243=LINE('',#1445,#336);
#244=LINE('',#1447,#337);
#245=LINE('',#1451,#338);
#246=LINE('',#1454,#339);
#247=LINE('',#1456,#340);
#248=LINE('',#1459,#341);
#249=LINE('',#1461,#342);
#250=VECTOR('',#995,0.999999999999996);
#251=VECTOR('',#1002,1.);
#252=VECTOR('',#1009,0.999999999999996);
#253=VECTOR('',#1016,1.);
#254=VECTOR('',#1021,10.);
#255=VECTOR('',#1022,10.);
#256=VECTOR('',#1023,10.);
#257=VECTOR('',#1024,10.);
#258=VECTOR('',#1027,10.);
#259=VECTOR('',#1028,10.);
#260=VECTOR('',#1029,10.);
#261=VECTOR('',#1030,10.);
#262=VECTOR('',#1035,10.);
#263=VECTOR('',#1040,10.);
#264=VECTOR('',#1041,10.);
#265=VECTOR('',#1042,10.);
#266=VECTOR('',#1045,10.);
#267=VECTOR('',#1046,10.);
#268=VECTOR('',#1047,10.);
#269=VECTOR('',#1048,10.);
#270=VECTOR('',#1057,10.);
#271=VECTOR('',#1058,10.);
#272=VECTOR('',#1059,10.);
#273=VECTOR('',#1060,10.);
#274=VECTOR('',#1063,10.);
#275=VECTOR('',#1064,10.);
#276=VECTOR('',#1065,10.);
#277=VECTOR('',#1066,10.);
#278=VECTOR('',#1071,10.);
#279=VECTOR('',#1076,10.);
#280=VECTOR('',#1077,10.);
#281=VECTOR('',#1078,10.);
#282=VECTOR('',#1085,10.);
#283=VECTOR('',#1088,10.);
#284=VECTOR('',#1089,10.);
#285=VECTOR('',#1090,10.);
#286=VECTOR('',#1093,10.);
#287=VECTOR('',#1094,10.);
#288=VECTOR('',#1095,10.);
#289=VECTOR('',#1098,10.);
#290=VECTOR('',#1099,10.);
#291=VECTOR('',#1102,10.);
#292=VECTOR('',#1103,10.);
#293=VECTOR('',#1104,10.);
#294=VECTOR('',#1107,10.);
#295=VECTOR('',#1108,10.);
#296=VECTOR('',#1109,10.);
#297=VECTOR('',#1110,10.);
#298=VECTOR('',#1111,10.);
#299=VECTOR('',#1112,10.);
#300=VECTOR('',#1113,10.);
#301=VECTOR('',#1114,10.);
#302=VECTOR('',#1115,10.);
#303=VECTOR('',#1118,10.);
#304=VECTOR('',#1119,10.);
#305=VECTOR('',#1122,10.);
#306=VECTOR('',#1125,10.);
#307=VECTOR('',#1128,10.);
#308=VECTOR('',#1129,10.);
#309=VECTOR('',#1132,10.);
#310=VECTOR('',#1135,10.);
#311=VECTOR('',#1136,10.);
#312=VECTOR('',#1137,10.);
#313=VECTOR('',#1138,10.);
#314=VECTOR('',#1141,10.);
#315=VECTOR('',#1142,10.);
#316=VECTOR('',#1143,10.);
#317=VECTOR('',#1150,10.);
#318=VECTOR('',#1153,10.);
#319=VECTOR('',#1156,10.);
#320=VECTOR('',#1157,10.);
#321=VECTOR('',#1158,10.);
#322=VECTOR('',#1161,10.);
#323=VECTOR('',#1162,10.);
#324=VECTOR('',#1163,10.);
#325=VECTOR('',#1166,10.);
#326=VECTOR('',#1167,10.);
#327=VECTOR('',#1172,10.);
#328=VECTOR('',#1177,10.);
#329=VECTOR('',#1180,10.);
#330=VECTOR('',#1181,10.);
#331=VECTOR('',#1182,10.);
#332=VECTOR('',#1187,10.);
#333=VECTOR('',#1188,10.);
#334=VECTOR('',#1191,10.);
#335=VECTOR('',#1194,10.);
#336=VECTOR('',#1199,10.);
#337=VECTOR('',#1200,10.);
#338=VECTOR('',#1203,10.);
#339=VECTOR('',#1208,10.);
#340=VECTOR('',#1211,10.);
#341=VECTOR('',#1216,10.);
#342=VECTOR('',#1219,10.);
#343=CIRCLE('',#921,0.999999999999996);
#344=CIRCLE('',#922,0.999999999999996);
#345=CIRCLE('',#924,1.);
#346=CIRCLE('',#925,1.);
#347=CIRCLE('',#927,0.999999999999996);
#348=CIRCLE('',#928,0.999999999999996);
#349=CIRCLE('',#930,1.);
#350=CIRCLE('',#931,1.);
#351=CIRCLE('',#935,2.);
#352=CIRCLE('',#936,2.);
#353=CIRCLE('',#940,2.);
#354=CIRCLE('',#941,2.);
#355=CIRCLE('',#945,2.);
#356=CIRCLE('',#946,2.);
#357=CIRCLE('',#949,2.);
#358=CIRCLE('',#950,2.);
#359=CIRCLE('',#965,20.);
#360=CIRCLE('',#973,21.5);
#361=CIRCLE('',#974,0.5);
#362=CIRCLE('',#975,2.);
#363=VERTEX_POINT('',#1224);
#364=VERTEX_POINT('',#1226);
#365=VERTEX_POINT('',#1230);
#366=VERTEX_POINT('',#1232);
#367=VERTEX_POINT('',#1236);
#368=VERTEX_POINT('',#1238);
#369=VERTEX_POINT('',#1242);
#370=VERTEX_POINT('',#1244);
#371=VERTEX_POINT('',#1248);
#372=VERTEX_POINT('',#1249);
#373=VERTEX_POINT('',#1251);
#374=VERTEX_POINT('',#1253);
#375=VERTEX_POINT('',#1257);
#376=VERTEX_POINT('',#1258);
#377=VERTEX_POINT('',#1260);
#378=VERTEX_POINT('',#1262);
#379=VERTEX_POINT('',#1266);
#380=VERTEX_POINT('',#1268);
#381=VERTEX_POINT('',#1272);
#382=VERTEX_POINT('',#1274);
#383=VERTEX_POINT('',#1278);
#384=VERTEX_POINT('',#1279);
#385=VERTEX_POINT('',#1281);
#386=VERTEX_POINT('',#1283);
#387=VERTEX_POINT('',#1290);
#388=VERTEX_POINT('',#1291);
#389=VERTEX_POINT('',#1293);
#390=VERTEX_POINT('',#1295);
#391=VERTEX_POINT('',#1299);
#392=VERTEX_POINT('',#1300);
#393=VERTEX_POINT('',#1302);
#394=VERTEX_POINT('',#1304);
#395=VERTEX_POINT('',#1308);
#396=VERTEX_POINT('',#1310);
#397=VERTEX_POINT('',#1314);
#398=VERTEX_POINT('',#1316);
#399=VERTEX_POINT('',#1320);
#400=VERTEX_POINT('',#1322);
#401=VERTEX_POINT('',#1326);
#402=VERTEX_POINT('',#1328);
#403=VERTEX_POINT('',#1332);
#404=VERTEX_POINT('',#1334);
#405=VERTEX_POINT('',#1341);
#406=VERTEX_POINT('',#1343);
#407=VERTEX_POINT('',#1347);
#408=VERTEX_POINT('',#1348);
#409=VERTEX_POINT('',#1350);
#410=VERTEX_POINT('',#1352);
#411=VERTEX_POINT('',#1355);
#412=VERTEX_POINT('',#1359);
#413=VERTEX_POINT('',#1363);
#414=VERTEX_POINT('',#1371);
#415=VERTEX_POINT('',#1377);
#416=VERTEX_POINT('',#1378);
#417=VERTEX_POINT('',#1380);
#418=VERTEX_POINT('',#1382);
#419=VERTEX_POINT('',#1386);
#420=VERTEX_POINT('',#1388);
#421=VERTEX_POINT('',#1392);
#422=VERTEX_POINT('',#1393);
#423=VERTEX_POINT('',#1395);
#424=VERTEX_POINT('',#1397);
#425=VERTEX_POINT('',#1399);
#426=VERTEX_POINT('',#1403);
#427=VERTEX_POINT('',#1405);
#428=VERTEX_POINT('',#1409);
#429=VERTEX_POINT('',#1411);
#430=VERTEX_POINT('',#1418);
#431=VERTEX_POINT('',#1422);
#432=VERTEX_POINT('',#1424);
#433=VERTEX_POINT('',#1426);
#434=VERTEX_POINT('',#1428);
#435=VERTEX_POINT('',#1430);
#436=VERTEX_POINT('',#1432);
#437=VERTEX_POINT('',#1443);
#438=VERTEX_POINT('',#1446);
#439=VERTEX_POINT('',#1448);
#440=VERTEX_POINT('',#1450);
#441=EDGE_CURVE('',#363,#363,#343,.T.);
#442=EDGE_CURVE('',#363,#364,#157,.T.);
#443=EDGE_CURVE('',#364,#364,#344,.T.);
#444=EDGE_CURVE('',#365,#365,#345,.T.);
#445=EDGE_CURVE('',#365,#366,#158,.T.);
#446=EDGE_CURVE('',#366,#366,#346,.T.);
#447=EDGE_CURVE('',#367,#367,#347,.T.);
#448=EDGE_CURVE('',#367,#368,#159,.T.);
#449=EDGE_CURVE('',#368,#368,#348,.T.);
#450=EDGE_CURVE('',#369,#369,#349,.T.);
#451=EDGE_CURVE('',#369,#370,#160,.T.);
#452=EDGE_CURVE('',#370,#370,#350,.T.);
#453=EDGE_CURVE('',#371,#372,#161,.T.);
#454=EDGE_CURVE('',#373,#372,#162,.T.);
#455=EDGE_CURVE('',#373,#374,#163,.T.);
#456=EDGE_CURVE('',#374,#371,#164,.T.);
#457=EDGE_CURVE('',#375,#376,#165,.T.);
#458=EDGE_CURVE('',#376,#377,#166,.T.);
#459=EDGE_CURVE('',#377,#378,#167,.T.);
#460=EDGE_CURVE('',#378,#375,#168,.T.);
#461=EDGE_CURVE('',#372,#379,#351,.T.);
#462=EDGE_CURVE('',#380,#379,#169,.T.);
#463=EDGE_CURVE('',#380,#373,#352,.T.);
#464=EDGE_CURVE('',#379,#381,#170,.T.);
#465=EDGE_CURVE('',#381,#382,#171,.T.);
#466=EDGE_CURVE('',#382,#380,#172,.T.);
#467=EDGE_CURVE('',#383,#384,#173,.T.);
#468=EDGE_CURVE('',#385,#384,#174,.T.);
#469=EDGE_CURVE('',#385,#386,#175,.T.);
#470=EDGE_CURVE('',#386,#383,#176,.T.);
#471=EDGE_CURVE('',#384,#375,#353,.T.);
#472=EDGE_CURVE('',#378,#385,#354,.T.);
#473=EDGE_CURVE('',#387,#388,#177,.T.);
#474=EDGE_CURVE('',#389,#388,#178,.T.);
#475=EDGE_CURVE('',#389,#390,#179,.T.);
#476=EDGE_CURVE('',#390,#387,#180,.T.);
#477=EDGE_CURVE('',#391,#392,#181,.T.);
#478=EDGE_CURVE('',#392,#393,#182,.T.);
#479=EDGE_CURVE('',#393,#394,#183,.T.);
#480=EDGE_CURVE('',#394,#391,#184,.T.);
#481=EDGE_CURVE('',#388,#395,#355,.T.);
#482=EDGE_CURVE('',#396,#395,#185,.T.);
#483=EDGE_CURVE('',#396,#389,#356,.T.);
#484=EDGE_CURVE('',#395,#397,#186,.T.);
#485=EDGE_CURVE('',#397,#398,#187,.T.);
#486=EDGE_CURVE('',#398,#396,#188,.T.);
#487=EDGE_CURVE('',#399,#391,#357,.T.);
#488=EDGE_CURVE('',#394,#400,#358,.T.);
#489=EDGE_CURVE('',#400,#399,#189,.T.);
#490=EDGE_CURVE('',#401,#399,#190,.T.);
#491=EDGE_CURVE('',#400,#402,#191,.T.);
#492=EDGE_CURVE('',#402,#401,#192,.T.);
#493=EDGE_CURVE('',#402,#403,#193,.T.);
#494=EDGE_CURVE('',#403,#404,#194,.T.);
#495=EDGE_CURVE('',#404,#401,#195,.T.);
#496=EDGE_CURVE('',#386,#393,#196,.T.);
#497=EDGE_CURVE('',#392,#383,#197,.T.);
#498=EDGE_CURVE('',#376,#405,#198,.T.);
#499=EDGE_CURVE('',#406,#405,#199,.T.);
#500=EDGE_CURVE('',#406,#377,#200,.T.);
#501=EDGE_CURVE('',#407,#408,#201,.T.);
#502=EDGE_CURVE('',#409,#407,#202,.T.);
#503=EDGE_CURVE('',#410,#409,#203,.T.);
#504=EDGE_CURVE('',#408,#410,#204,.T.);
#505=EDGE_CURVE('',#411,#406,#205,.T.);
#506=EDGE_CURVE('',#374,#411,#206,.T.);
#507=EDGE_CURVE('',#390,#382,#207,.T.);
#508=EDGE_CURVE('',#412,#398,#208,.T.);
#509=EDGE_CURVE('',#403,#412,#209,.T.);
#510=EDGE_CURVE('',#397,#413,#210,.T.);
#511=EDGE_CURVE('',#412,#413,#211,.T.);
#512=EDGE_CURVE('',#381,#387,#212,.T.);
#513=EDGE_CURVE('',#413,#404,#213,.T.);
#514=EDGE_CURVE('',#405,#414,#214,.T.);
#515=EDGE_CURVE('',#411,#414,#215,.T.);
#516=EDGE_CURVE('',#414,#371,#216,.T.);
#517=EDGE_CURVE('',#415,#416,#217,.T.);
#518=EDGE_CURVE('',#415,#417,#218,.T.);
#519=EDGE_CURVE('',#417,#418,#219,.T.);
#520=EDGE_CURVE('',#418,#416,#220,.T.);
#521=EDGE_CURVE('',#416,#419,#221,.T.);
#522=EDGE_CURVE('',#418,#420,#222,.T.);
#523=EDGE_CURVE('',#420,#419,#223,.T.);
#524=EDGE_CURVE('',#421,#422,#14,.T.);
#525=EDGE_CURVE('',#422,#423,#359,.T.);
#526=EDGE_CURVE('',#424,#423,#224,.T.);
#527=EDGE_CURVE('',#424,#425,#15,.T.);
#528=EDGE_CURVE('',#425,#421,#225,.T.);
#529=EDGE_CURVE('',#423,#426,#226,.T.);
#530=EDGE_CURVE('',#426,#427,#227,.T.);
#531=EDGE_CURVE('',#427,#424,#228,.T.);
#532=EDGE_CURVE('',#428,#421,#229,.T.);
#533=EDGE_CURVE('',#425,#429,#230,.T.);
#534=EDGE_CURVE('',#429,#428,#231,.T.);
#535=EDGE_CURVE('',#407,#428,#232,.T.);
#536=EDGE_CURVE('',#408,#421,#233,.T.);
#537=EDGE_CURVE('',#408,#430,#16,.T.);
#538=EDGE_CURVE('',#422,#430,#234,.T.);
#539=EDGE_CURVE('',#430,#431,#360,.T.);
#540=EDGE_CURVE('',#431,#432,#235,.T.);
#541=EDGE_CURVE('',#432,#433,#361,.T.);
#542=EDGE_CURVE('',#433,#434,#236,.T.);
#543=EDGE_CURVE('',#434,#435,#237,.T.);
#544=EDGE_CURVE('',#436,#435,#238,.T.);
#545=EDGE_CURVE('',#426,#436,#362,.T.);
#546=EDGE_CURVE('',#435,#415,#239,.T.);
#547=EDGE_CURVE('',#417,#434,#240,.T.);
#548=EDGE_CURVE('',#409,#429,#241,.T.);
#549=EDGE_CURVE('',#410,#425,#242,.T.);
#550=EDGE_CURVE('',#427,#437,#17,.T.);
#551=EDGE_CURVE('',#419,#437,#243,.T.);
#552=EDGE_CURVE('',#420,#438,#244,.T.);
#553=EDGE_CURVE('',#438,#439,#18,.T.);
#554=EDGE_CURVE('',#439,#440,#245,.T.);
#555=EDGE_CURVE('',#440,#410,#19,.T.);
#556=EDGE_CURVE('',#436,#437,#246,.T.);
#557=EDGE_CURVE('',#431,#440,#247,.T.);
#558=EDGE_CURVE('',#433,#438,#248,.T.);
#559=EDGE_CURVE('',#432,#439,#249,.T.);
#560=ORIENTED_EDGE('',*,*,#441,.T.);
#561=ORIENTED_EDGE('',*,*,#442,.T.);
#562=ORIENTED_EDGE('',*,*,#443,.T.);
#563=ORIENTED_EDGE('',*,*,#442,.F.);
#564=ORIENTED_EDGE('',*,*,#444,.T.);
#565=ORIENTED_EDGE('',*,*,#445,.T.);
#566=ORIENTED_EDGE('',*,*,#446,.T.);
#567=ORIENTED_EDGE('',*,*,#445,.F.);
#568=ORIENTED_EDGE('',*,*,#447,.T.);
#569=ORIENTED_EDGE('',*,*,#448,.T.);
#570=ORIENTED_EDGE('',*,*,#449,.T.);
#571=ORIENTED_EDGE('',*,*,#448,.F.);
#572=ORIENTED_EDGE('',*,*,#450,.T.);
#573=ORIENTED_EDGE('',*,*,#451,.T.);
#574=ORIENTED_EDGE('',*,*,#452,.T.);
#575=ORIENTED_EDGE('',*,*,#451,.F.);
#576=ORIENTED_EDGE('',*,*,#453,.T.);
#577=ORIENTED_EDGE('',*,*,#454,.F.);
#578=ORIENTED_EDGE('',*,*,#455,.T.);
#579=ORIENTED_EDGE('',*,*,#456,.T.);
#580=ORIENTED_EDGE('',*,*,#457,.T.);
#581=ORIENTED_EDGE('',*,*,#458,.T.);
#582=ORIENTED_EDGE('',*,*,#459,.T.);
#583=ORIENTED_EDGE('',*,*,#460,.T.);
#584=ORIENTED_EDGE('',*,*,#461,.T.);
#585=ORIENTED_EDGE('',*,*,#462,.F.);
#586=ORIENTED_EDGE('',*,*,#463,.T.);
#587=ORIENTED_EDGE('',*,*,#454,.T.);
#588=ORIENTED_EDGE('',*,*,#464,.T.);
#589=ORIENTED_EDGE('',*,*,#465,.T.);
#590=ORIENTED_EDGE('',*,*,#466,.T.);
#591=ORIENTED_EDGE('',*,*,#462,.T.);
#592=ORIENTED_EDGE('',*,*,#467,.T.);
#593=ORIENTED_EDGE('',*,*,#468,.F.);
#594=ORIENTED_EDGE('',*,*,#469,.T.);
#595=ORIENTED_EDGE('',*,*,#470,.T.);
#596=ORIENTED_EDGE('',*,*,#471,.T.);
#597=ORIENTED_EDGE('',*,*,#460,.F.);
#598=ORIENTED_EDGE('',*,*,#472,.T.);
#599=ORIENTED_EDGE('',*,*,#468,.T.);
#600=ORIENTED_EDGE('',*,*,#473,.T.);
#601=ORIENTED_EDGE('',*,*,#474,.F.);
#602=ORIENTED_EDGE('',*,*,#475,.T.);
#603=ORIENTED_EDGE('',*,*,#476,.T.);
#604=ORIENTED_EDGE('',*,*,#477,.T.);
#605=ORIENTED_EDGE('',*,*,#478,.T.);
#606=ORIENTED_EDGE('',*,*,#479,.T.);
#607=ORIENTED_EDGE('',*,*,#480,.T.);
#608=ORIENTED_EDGE('',*,*,#481,.T.);
#609=ORIENTED_EDGE('',*,*,#482,.F.);
#610=ORIENTED_EDGE('',*,*,#483,.T.);
#611=ORIENTED_EDGE('',*,*,#474,.T.);
#612=ORIENTED_EDGE('',*,*,#484,.T.);
#613=ORIENTED_EDGE('',*,*,#485,.T.);
#614=ORIENTED_EDGE('',*,*,#486,.T.);
#615=ORIENTED_EDGE('',*,*,#482,.T.);
#616=ORIENTED_EDGE('',*,*,#487,.T.);
#617=ORIENTED_EDGE('',*,*,#480,.F.);
#618=ORIENTED_EDGE('',*,*,#488,.T.);
#619=ORIENTED_EDGE('',*,*,#489,.T.);
#620=ORIENTED_EDGE('',*,*,#490,.T.);
#621=ORIENTED_EDGE('',*,*,#489,.F.);
#622=ORIENTED_EDGE('',*,*,#491,.T.);
#623=ORIENTED_EDGE('',*,*,#492,.T.);
#624=ORIENTED_EDGE('',*,*,#492,.F.);
#625=ORIENTED_EDGE('',*,*,#493,.T.);
#626=ORIENTED_EDGE('',*,*,#494,.T.);
#627=ORIENTED_EDGE('',*,*,#495,.T.);
#628=ORIENTED_EDGE('',*,*,#470,.F.);
#629=ORIENTED_EDGE('',*,*,#496,.T.);
#630=ORIENTED_EDGE('',*,*,#478,.F.);
#631=ORIENTED_EDGE('',*,*,#497,.T.);
#632=ORIENTED_EDGE('',*,*,#458,.F.);
#633=ORIENTED_EDGE('',*,*,#498,.T.);
#634=ORIENTED_EDGE('',*,*,#499,.F.);
#635=ORIENTED_EDGE('',*,*,#500,.T.);
#636=ORIENTED_EDGE('',*,*,#501,.F.);
#637=ORIENTED_EDGE('',*,*,#502,.F.);
#638=ORIENTED_EDGE('',*,*,#503,.F.);
#639=ORIENTED_EDGE('',*,*,#504,.F.);
#640=ORIENTED_EDGE('',*,*,#441,.F.);
#641=ORIENTED_EDGE('',*,*,#447,.F.);
#642=ORIENTED_EDGE('',*,*,#450,.F.);
#643=ORIENTED_EDGE('',*,*,#459,.F.);
#644=ORIENTED_EDGE('',*,*,#500,.F.);
#645=ORIENTED_EDGE('',*,*,#505,.F.);
#646=ORIENTED_EDGE('',*,*,#506,.F.);
#647=ORIENTED_EDGE('',*,*,#455,.F.);
#648=ORIENTED_EDGE('',*,*,#463,.F.);
#649=ORIENTED_EDGE('',*,*,#466,.F.);
#650=ORIENTED_EDGE('',*,*,#507,.F.);
#651=ORIENTED_EDGE('',*,*,#475,.F.);
#652=ORIENTED_EDGE('',*,*,#483,.F.);
#653=ORIENTED_EDGE('',*,*,#486,.F.);
#654=ORIENTED_EDGE('',*,*,#508,.F.);
#655=ORIENTED_EDGE('',*,*,#509,.F.);
#656=ORIENTED_EDGE('',*,*,#493,.F.);
#657=ORIENTED_EDGE('',*,*,#491,.F.);
#658=ORIENTED_EDGE('',*,*,#488,.F.);
#659=ORIENTED_EDGE('',*,*,#479,.F.);
#660=ORIENTED_EDGE('',*,*,#496,.F.);
#661=ORIENTED_EDGE('',*,*,#469,.F.);
#662=ORIENTED_EDGE('',*,*,#472,.F.);
#663=ORIENTED_EDGE('',*,*,#485,.F.);
#664=ORIENTED_EDGE('',*,*,#510,.T.);
#665=ORIENTED_EDGE('',*,*,#511,.F.);
#666=ORIENTED_EDGE('',*,*,#508,.T.);
#667=ORIENTED_EDGE('',*,*,#465,.F.);
#668=ORIENTED_EDGE('',*,*,#512,.T.);
#669=ORIENTED_EDGE('',*,*,#476,.F.);
#670=ORIENTED_EDGE('',*,*,#507,.T.);
#671=ORIENTED_EDGE('',*,*,#513,.T.);
#672=ORIENTED_EDGE('',*,*,#494,.F.);
#673=ORIENTED_EDGE('',*,*,#509,.T.);
#674=ORIENTED_EDGE('',*,*,#511,.T.);
#675=ORIENTED_EDGE('',*,*,#514,.T.);
#676=ORIENTED_EDGE('',*,*,#515,.F.);
#677=ORIENTED_EDGE('',*,*,#505,.T.);
#678=ORIENTED_EDGE('',*,*,#499,.T.);
#679=ORIENTED_EDGE('',*,*,#456,.F.);
#680=ORIENTED_EDGE('',*,*,#506,.T.);
#681=ORIENTED_EDGE('',*,*,#515,.T.);
#682=ORIENTED_EDGE('',*,*,#516,.T.);
#683=ORIENTED_EDGE('',*,*,#517,.F.);
#684=ORIENTED_EDGE('',*,*,#518,.T.);
#685=ORIENTED_EDGE('',*,*,#519,.T.);
#686=ORIENTED_EDGE('',*,*,#520,.T.);
#687=ORIENTED_EDGE('',*,*,#521,.F.);
#688=ORIENTED_EDGE('',*,*,#520,.F.);
#689=ORIENTED_EDGE('',*,*,#522,.T.);
#690=ORIENTED_EDGE('',*,*,#523,.T.);
#691=ORIENTED_EDGE('',*,*,#524,.T.);
#692=ORIENTED_EDGE('',*,*,#525,.T.);
#693=ORIENTED_EDGE('',*,*,#526,.F.);
#694=ORIENTED_EDGE('',*,*,#527,.T.);
#695=ORIENTED_EDGE('',*,*,#528,.T.);
#696=ORIENTED_EDGE('',*,*,#529,.T.);
#697=ORIENTED_EDGE('',*,*,#530,.T.);
#698=ORIENTED_EDGE('',*,*,#531,.T.);
#699=ORIENTED_EDGE('',*,*,#526,.T.);
#700=ORIENTED_EDGE('',*,*,#532,.T.);
#701=ORIENTED_EDGE('',*,*,#528,.F.);
#702=ORIENTED_EDGE('',*,*,#533,.T.);
#703=ORIENTED_EDGE('',*,*,#534,.T.);
#704=ORIENTED_EDGE('',*,*,#443,.F.);
#705=ORIENTED_EDGE('',*,*,#449,.F.);
#706=ORIENTED_EDGE('',*,*,#452,.F.);
#707=ORIENTED_EDGE('',*,*,#457,.F.);
#708=ORIENTED_EDGE('',*,*,#471,.F.);
#709=ORIENTED_EDGE('',*,*,#467,.F.);
#710=ORIENTED_EDGE('',*,*,#497,.F.);
#711=ORIENTED_EDGE('',*,*,#477,.F.);
#712=ORIENTED_EDGE('',*,*,#487,.F.);
#713=ORIENTED_EDGE('',*,*,#490,.F.);
#714=ORIENTED_EDGE('',*,*,#495,.F.);
#715=ORIENTED_EDGE('',*,*,#513,.F.);
#716=ORIENTED_EDGE('',*,*,#510,.F.);
#717=ORIENTED_EDGE('',*,*,#484,.F.);
#718=ORIENTED_EDGE('',*,*,#481,.F.);
#719=ORIENTED_EDGE('',*,*,#473,.F.);
#720=ORIENTED_EDGE('',*,*,#512,.F.);
#721=ORIENTED_EDGE('',*,*,#464,.F.);
#722=ORIENTED_EDGE('',*,*,#461,.F.);
#723=ORIENTED_EDGE('',*,*,#453,.F.);
#724=ORIENTED_EDGE('',*,*,#516,.F.);
#725=ORIENTED_EDGE('',*,*,#514,.F.);
#726=ORIENTED_EDGE('',*,*,#498,.F.);
#727=ORIENTED_EDGE('',*,*,#532,.F.);
#728=ORIENTED_EDGE('',*,*,#535,.F.);
#729=ORIENTED_EDGE('',*,*,#501,.T.);
#730=ORIENTED_EDGE('',*,*,#536,.T.);
#731=ORIENTED_EDGE('',*,*,#524,.F.);
#732=ORIENTED_EDGE('',*,*,#536,.F.);
#733=ORIENTED_EDGE('',*,*,#537,.T.);
#734=ORIENTED_EDGE('',*,*,#538,.F.);
#735=ORIENTED_EDGE('',*,*,#525,.F.);
#736=ORIENTED_EDGE('',*,*,#538,.T.);
#737=ORIENTED_EDGE('',*,*,#539,.T.);
#738=ORIENTED_EDGE('',*,*,#540,.T.);
#739=ORIENTED_EDGE('',*,*,#541,.T.);
#740=ORIENTED_EDGE('',*,*,#542,.T.);
#741=ORIENTED_EDGE('',*,*,#543,.T.);
#742=ORIENTED_EDGE('',*,*,#544,.F.);
#743=ORIENTED_EDGE('',*,*,#545,.F.);
#744=ORIENTED_EDGE('',*,*,#529,.F.);
#745=ORIENTED_EDGE('',*,*,#518,.F.);
#746=ORIENTED_EDGE('',*,*,#546,.F.);
#747=ORIENTED_EDGE('',*,*,#543,.F.);
#748=ORIENTED_EDGE('',*,*,#547,.F.);
#749=ORIENTED_EDGE('',*,*,#534,.F.);
#750=ORIENTED_EDGE('',*,*,#548,.F.);
#751=ORIENTED_EDGE('',*,*,#502,.T.);
#752=ORIENTED_EDGE('',*,*,#535,.T.);
#753=ORIENTED_EDGE('',*,*,#533,.F.);
#754=ORIENTED_EDGE('',*,*,#549,.F.);
#755=ORIENTED_EDGE('',*,*,#503,.T.);
#756=ORIENTED_EDGE('',*,*,#548,.T.);
#757=ORIENTED_EDGE('',*,*,#527,.F.);
#758=ORIENTED_EDGE('',*,*,#531,.F.);
#759=ORIENTED_EDGE('',*,*,#550,.T.);
#760=ORIENTED_EDGE('',*,*,#551,.F.);
#761=ORIENTED_EDGE('',*,*,#523,.F.);
#762=ORIENTED_EDGE('',*,*,#552,.T.);
#763=ORIENTED_EDGE('',*,*,#553,.T.);
#764=ORIENTED_EDGE('',*,*,#554,.T.);
#765=ORIENTED_EDGE('',*,*,#555,.T.);
#766=ORIENTED_EDGE('',*,*,#549,.T.);
#767=ORIENTED_EDGE('',*,*,#551,.T.);
#768=ORIENTED_EDGE('',*,*,#556,.F.);
#769=ORIENTED_EDGE('',*,*,#544,.T.);
#770=ORIENTED_EDGE('',*,*,#546,.T.);
#771=ORIENTED_EDGE('',*,*,#517,.T.);
#772=ORIENTED_EDGE('',*,*,#521,.T.);
#773=ORIENTED_EDGE('',*,*,#446,.F.);
#774=ORIENTED_EDGE('',*,*,#537,.F.);
#775=ORIENTED_EDGE('',*,*,#504,.T.);
#776=ORIENTED_EDGE('',*,*,#555,.F.);
#777=ORIENTED_EDGE('',*,*,#557,.F.);
#778=ORIENTED_EDGE('',*,*,#539,.F.);
#779=ORIENTED_EDGE('',*,*,#550,.F.);
#780=ORIENTED_EDGE('',*,*,#530,.F.);
#781=ORIENTED_EDGE('',*,*,#545,.T.);
#782=ORIENTED_EDGE('',*,*,#556,.T.);
#783=ORIENTED_EDGE('',*,*,#552,.F.);
#784=ORIENTED_EDGE('',*,*,#522,.F.);
#785=ORIENTED_EDGE('',*,*,#519,.F.);
#786=ORIENTED_EDGE('',*,*,#547,.T.);
#787=ORIENTED_EDGE('',*,*,#542,.F.);
#788=ORIENTED_EDGE('',*,*,#558,.T.);
#789=ORIENTED_EDGE('',*,*,#444,.F.);
#790=ORIENTED_EDGE('',*,*,#553,.F.);
#791=ORIENTED_EDGE('',*,*,#558,.F.);
#792=ORIENTED_EDGE('',*,*,#541,.F.);
#793=ORIENTED_EDGE('',*,*,#559,.T.);
#794=ORIENTED_EDGE('',*,*,#554,.F.);
#795=ORIENTED_EDGE('',*,*,#559,.F.);
#796=ORIENTED_EDGE('',*,*,#540,.F.);
#797=ORIENTED_EDGE('',*,*,#557,.T.);
#798=CYLINDRICAL_SURFACE('',#920,0.999999999999996);
#799=CYLINDRICAL_SURFACE('',#923,1.);
#800=CYLINDRICAL_SURFACE('',#926,0.999999999999996);
#801=CYLINDRICAL_SURFACE('',#929,1.);
#802=CYLINDRICAL_SURFACE('',#934,2.);
#803=CYLINDRICAL_SURFACE('',#939,2.);
#804=CYLINDRICAL_SURFACE('',#944,2.);
#805=CYLINDRICAL_SURFACE('',#948,2.);
#806=CYLINDRICAL_SURFACE('',#963,20.);
#807=CYLINDRICAL_SURFACE('',#984,21.5);
#808=CYLINDRICAL_SURFACE('',#985,2.);
#809=CYLINDRICAL_SURFACE('',#987,0.5);
#810=STYLED_ITEM('',(#1483),#854);
#811=STYLED_ITEM('',(#1483),#855);
#812=STYLED_ITEM('',(#1483),#856);
#813=STYLED_ITEM('',(#1483),#857);
#814=STYLED_ITEM('',(#1483),#858);
#815=STYLED_ITEM('',(#1483),#859);
#816=STYLED_ITEM('',(#1483),#860);
#817=STYLED_ITEM('',(#1483),#861);
#818=STYLED_ITEM('',(#1483),#862);
#819=STYLED_ITEM('',(#1483),#863);
#820=STYLED_ITEM('',(#1483),#864);
#821=STYLED_ITEM('',(#1483),#865);
#822=STYLED_ITEM('',(#1483),#866);
#823=STYLED_ITEM('',(#1483),#867);
#824=STYLED_ITEM('',(#1483),#868);
#825=STYLED_ITEM('',(#1483),#869);
#826=STYLED_ITEM('',(#1483),#870);
#827=STYLED_ITEM('',(#1483),#871);
#828=STYLED_ITEM('',(#1483),#872);
#829=STYLED_ITEM('',(#1483),#873);
#830=STYLED_ITEM('',(#1483),#874);
#831=STYLED_ITEM('',(#1483),#875);
#832=STYLED_ITEM('',(#1483),#876);
#833=STYLED_ITEM('',(#1483),#877);
#834=STYLED_ITEM('',(#1483),#878);
#835=STYLED_ITEM('',(#1483),#879);
#836=STYLED_ITEM('',(#1483),#880);
#837=STYLED_ITEM('',(#1483),#881);
#838=STYLED_ITEM('',(#1483),#882);
#839=STYLED_ITEM('',(#1483),#883);
#840=STYLED_ITEM('',(#1483),#884);
#841=STYLED_ITEM('',(#1483),#885);
#842=STYLED_ITEM('',(#1483),#886);
#843=STYLED_ITEM('',(#1483),#887);
#844=STYLED_ITEM('',(#1483),#888);
#845=STYLED_ITEM('',(#1483),#889);
#846=STYLED_ITEM('',(#1483),#890);
#847=STYLED_ITEM('',(#1483),#891);
#848=STYLED_ITEM('',(#1483),#892);
#849=STYLED_ITEM('',(#1483),#893);
#850=STYLED_ITEM('',(#1483),#894);
#851=STYLED_ITEM('',(#1483),#895);
#852=STYLED_ITEM('',(#1483),#896);
#853=STYLED_ITEM('',(#1482),#13);
#854=ADVANCED_FACE('',(#61),#798,.F.);
#855=ADVANCED_FACE('',(#62),#799,.F.);
#856=ADVANCED_FACE('',(#63),#800,.F.);
#857=ADVANCED_FACE('',(#64),#801,.F.);
#858=ADVANCED_FACE('',(#65),#30,.T.);
#859=ADVANCED_FACE('',(#66),#31,.T.);
#860=ADVANCED_FACE('',(#67),#802,.F.);
#861=ADVANCED_FACE('',(#68),#32,.T.);
#862=ADVANCED_FACE('',(#69),#33,.T.);
#863=ADVANCED_FACE('',(#70),#803,.F.);
#864=ADVANCED_FACE('',(#71),#34,.T.);
#865=ADVANCED_FACE('',(#72),#35,.T.);
#866=ADVANCED_FACE('',(#73),#804,.F.);
#867=ADVANCED_FACE('',(#74),#36,.T.);
#868=ADVANCED_FACE('',(#75),#805,.F.);
#869=ADVANCED_FACE('',(#76),#37,.T.);
#870=ADVANCED_FACE('',(#77),#38,.T.);
#871=ADVANCED_FACE('',(#78),#39,.T.);
#872=ADVANCED_FACE('',(#79),#40,.T.);
#873=ADVANCED_FACE('',(#80,#20,#21,#22,#23),#41,.F.);
#874=ADVANCED_FACE('',(#81),#42,.T.);
#875=ADVANCED_FACE('',(#82),#43,.T.);
#876=ADVANCED_FACE('',(#83),#44,.T.);
#877=ADVANCED_FACE('',(#84),#45,.T.);
#878=ADVANCED_FACE('',(#85),#46,.T.);
#879=ADVANCED_FACE('',(#86),#47,.F.);
#880=ADVANCED_FACE('',(#87),#48,.F.);
#881=ADVANCED_FACE('',(#88),#806,.F.);
#882=ADVANCED_FACE('',(#89),#49,.T.);
#883=ADVANCED_FACE('',(#90,#24,#25,#26,#27),#50,.T.);
#884=ADVANCED_FACE('',(#91),#51,.T.);
#885=ADVANCED_FACE('',(#92),#52,.T.);
#886=ADVANCED_FACE('',(#93),#53,.T.);
#887=ADVANCED_FACE('',(#94),#54,.F.);
#888=ADVANCED_FACE('',(#95),#55,.T.);
#889=ADVANCED_FACE('',(#96),#56,.T.);
#890=ADVANCED_FACE('',(#97),#57,.T.);
#891=ADVANCED_FACE('',(#98,#28),#58,.F.);
#892=ADVANCED_FACE('',(#99),#807,.T.);
#893=ADVANCED_FACE('',(#100),#808,.T.);
#894=ADVANCED_FACE('',(#101,#29),#59,.F.);
#895=ADVANCED_FACE('',(#102),#809,.F.);
#896=ADVANCED_FACE('',(#103),#60,.F.);
#897=CLOSED_SHELL('',(#854,#855,#856,#857,#858,#859,#860,#861,#862,#863,
#864,#865,#866,#867,#868,#869,#870,#871,#872,#873,#874,#875,#876,#877,#878,
#879,#880,#881,#882,#883,#884,#885,#886,#887,#888,#889,#890,#891,#892,#893,
#894,#895,#896));
#898=DERIVED_UNIT_ELEMENT(#901,1.);
#899=DERIVED_UNIT_ELEMENT(#1468,-3.);
#900=DIMENSIONAL_EXPONENTS(0.,1.,0.,0.,0.,0.,0.);
#901=(
CONVERSION_BASED_UNIT('gram',#903)
MASS_UNIT()
NAMED_UNIT(#900)
);
#902=(
MASS_UNIT()
NAMED_UNIT(*)
SI_UNIT(.KILO.,.GRAM.)
);
#903=MASS_MEASURE_WITH_UNIT(MASS_MEASURE(0.001),#902);
#904=DERIVED_UNIT((#898,#899));
#905=MEASURE_REPRESENTATION_ITEM('density measure',
POSITIVE_RATIO_MEASURE(1.),#904);
#906=PROPERTY_DEFINITION_REPRESENTATION(#911,#908);
#907=PROPERTY_DEFINITION_REPRESENTATION(#912,#909);
#908=REPRESENTATION('material name',(#910),#1465);
#909=REPRESENTATION('density',(#905),#1465);
#910=DESCRIPTIVE_REPRESENTATION_ITEM('\X2\4E00822C\X0\','\X2\4E00822C\X0\');
#911=PROPERTY_DEFINITION('material property','material name',#1475);
#912=PROPERTY_DEFINITION('material property','density of part',#1475);
#913=DATE_TIME_ROLE('creation_date');
#914=APPLIED_DATE_AND_TIME_ASSIGNMENT(#915,#913,(#1475));
#915=DATE_AND_TIME(#916,#917);
#916=CALENDAR_DATE(2026,20,1);
#917=LOCAL_TIME(0,0,0.,#918);
#918=COORDINATED_UNIVERSAL_TIME_OFFSET(0,0,.BEHIND.);
#919=AXIS2_PLACEMENT_3D('',#1222,#989,#990);
#920=AXIS2_PLACEMENT_3D('',#1223,#991,#992);
#921=AXIS2_PLACEMENT_3D('',#1225,#993,#994);
#922=AXIS2_PLACEMENT_3D('',#1228,#996,#997);
#923=AXIS2_PLACEMENT_3D('',#1229,#998,#999);
#924=AXIS2_PLACEMENT_3D('',#1231,#1000,#1001);
#925=AXIS2_PLACEMENT_3D('',#1234,#1003,#1004);
#926=AXIS2_PLACEMENT_3D('',#1235,#1005,#1006);
#927=AXIS2_PLACEMENT_3D('',#1237,#1007,#1008);
#928=AXIS2_PLACEMENT_3D('',#1240,#1010,#1011);
#929=AXIS2_PLACEMENT_3D('',#1241,#1012,#1013);
#930=AXIS2_PLACEMENT_3D('',#1243,#1014,#1015);
#931=AXIS2_PLACEMENT_3D('',#1246,#1017,#1018);
#932=AXIS2_PLACEMENT_3D('',#1247,#1019,#1020);
#933=AXIS2_PLACEMENT_3D('',#1256,#1025,#1026);
#934=AXIS2_PLACEMENT_3D('',#1265,#1031,#1032);
#935=AXIS2_PLACEMENT_3D('',#1267,#1033,#1034);
#936=AXIS2_PLACEMENT_3D('',#1270,#1036,#1037);
#937=AXIS2_PLACEMENT_3D('',#1271,#1038,#1039);
#938=AXIS2_PLACEMENT_3D('',#1277,#1043,#1044);
#939=AXIS2_PLACEMENT_3D('',#1286,#1049,#1050);
#940=AXIS2_PLACEMENT_3D('',#1287,#1051,#1052);
#941=AXIS2_PLACEMENT_3D('',#1288,#1053,#1054);
#942=AXIS2_PLACEMENT_3D('',#1289,#1055,#1056);
#943=AXIS2_PLACEMENT_3D('',#1298,#1061,#1062);
#944=AXIS2_PLACEMENT_3D('',#1307,#1067,#1068);
#945=AXIS2_PLACEMENT_3D('',#1309,#1069,#1070);
#946=AXIS2_PLACEMENT_3D('',#1312,#1072,#1073);
#947=AXIS2_PLACEMENT_3D('',#1313,#1074,#1075);
#948=AXIS2_PLACEMENT_3D('',#1319,#1079,#1080);
#949=AXIS2_PLACEMENT_3D('',#1321,#1081,#1082);
#950=AXIS2_PLACEMENT_3D('',#1323,#1083,#1084);
#951=AXIS2_PLACEMENT_3D('',#1325,#1086,#1087);
#952=AXIS2_PLACEMENT_3D('',#1331,#1091,#1092);
#953=AXIS2_PLACEMENT_3D('',#1337,#1096,#1097);
#954=AXIS2_PLACEMENT_3D('',#1340,#1100,#1101);
#955=AXIS2_PLACEMENT_3D('',#1346,#1105,#1106);
#956=AXIS2_PLACEMENT_3D('',#1362,#1116,#1117);
#957=AXIS2_PLACEMENT_3D('',#1366,#1120,#1121);
#958=AXIS2_PLACEMENT_3D('',#1368,#1123,#1124);
#959=AXIS2_PLACEMENT_3D('',#1370,#1126,#1127);
#960=AXIS2_PLACEMENT_3D('',#1374,#1130,#1131);
#961=AXIS2_PLACEMENT_3D('',#1376,#1133,#1134);
#962=AXIS2_PLACEMENT_3D('',#1385,#1139,#1140);
#963=AXIS2_PLACEMENT_3D('',#1391,#1144,#1145);
#964=AXIS2_PLACEMENT_3D('',#1394,#1146,#1147);
#965=AXIS2_PLACEMENT_3D('',#1396,#1148,#1149);
#966=AXIS2_PLACEMENT_3D('',#1400,#1151,#1152);
#967=AXIS2_PLACEMENT_3D('',#1402,#1154,#1155);
#968=AXIS2_PLACEMENT_3D('',#1408,#1159,#1160);
#969=AXIS2_PLACEMENT_3D('',#1414,#1164,#1165);
#970=AXIS2_PLACEMENT_3D('',#1417,#1168,#1169);
#971=AXIS2_PLACEMENT_3D('',#1419,#1170,#1171);
#972=AXIS2_PLACEMENT_3D('',#1421,#1173,#1174);
#973=AXIS2_PLACEMENT_3D('',#1423,#1175,#1176);
#974=AXIS2_PLACEMENT_3D('',#1427,#1178,#1179);
#975=AXIS2_PLACEMENT_3D('',#1434,#1183,#1184);
#976=AXIS2_PLACEMENT_3D('',#1435,#1185,#1186);
#977=AXIS2_PLACEMENT_3D('',#1438,#1189,#1190);
#978=AXIS2_PLACEMENT_3D('',#1440,#1192,#1193);
#979=AXIS2_PLACEMENT_3D('',#1442,#1195,#1196);
#980=AXIS2_PLACEMENT_3D('',#1444,#1197,#1198);
#981=AXIS2_PLACEMENT_3D('',#1449,#1201,#1202);
#982=AXIS2_PLACEMENT_3D('',#1452,#1204,#1205);
#983=AXIS2_PLACEMENT_3D('',#1453,#1206,#1207);
#984=AXIS2_PLACEMENT_3D('',#1455,#1209,#1210);
#985=AXIS2_PLACEMENT_3D('',#1457,#1212,#1213);
#986=AXIS2_PLACEMENT_3D('',#1458,#1214,#1215);
#987=AXIS2_PLACEMENT_3D('',#1460,#1217,#1218);
#988=AXIS2_PLACEMENT_3D('',#1462,#1220,#1221);
#989=DIRECTION('axis',(0.,0.,1.));
#990=DIRECTION('refdir',(1.,0.,0.));
#991=DIRECTION('center_axis',(-1.,0.,9.20883250446311E-17));
#992=DIRECTION('ref_axis',(-9.20883250446311E-17,-2.70041415698169E-16,
-1.));
#993=DIRECTION('center_axis',(-1.,0.,1.26882631385732E-16));
#994=DIRECTION('ref_axis',(-9.20883250446311E-17,-2.70041415698169E-16,
-1.));
#995=DIRECTION('',(1.,0.,-9.20883250446311E-17));
#996=DIRECTION('center_axis',(1.,-1.34572487833352E-16,-7.40148683083438E-17));
#997=DIRECTION('ref_axis',(-9.20883250446311E-17,-2.70041415698169E-16,
-1.));
#998=DIRECTION('center_axis',(-1.,0.,9.20883250446311E-17));
#999=DIRECTION('ref_axis',(-9.20883250446311E-17,-2.70041415698169E-16,
-1.));
#1000=DIRECTION('center_axis',(-1.,-1.77635683940025E-15,1.26882631385732E-16));
#1001=DIRECTION('ref_axis',(-9.20883250446311E-17,-2.70041415698169E-16,
-1.));
#1002=DIRECTION('',(1.,0.,-9.20883250446311E-17));
#1003=DIRECTION('center_axis',(1.,7.83008910610511E-16,-1.26882631385732E-16));
#1004=DIRECTION('ref_axis',(-9.20883250446311E-17,-2.70041415698169E-16,
-1.));
#1005=DIRECTION('center_axis',(-1.,0.,1.38132487566947E-16));
#1006=DIRECTION('ref_axis',(-1.38132487566947E-16,-2.70041415698169E-16,
-1.));
#1007=DIRECTION('center_axis',(-1.,0.,1.26882631385732E-16));
#1008=DIRECTION('ref_axis',(-1.38132487566947E-16,-2.70041415698169E-16,
-1.));
#1009=DIRECTION('',(1.,0.,-1.38132487566947E-16));
#1010=DIRECTION('center_axis',(1.,-1.34572487833352E-16,-7.40148683083438E-17));
#1011=DIRECTION('ref_axis',(-1.38132487566947E-16,-2.70041415698169E-16,
-1.));
#1012=DIRECTION('center_axis',(-1.,0.,1.84176650089262E-16));
#1013=DIRECTION('ref_axis',(-1.84176650089262E-16,-2.70041415698169E-16,
-1.));
#1014=DIRECTION('center_axis',(-1.,0.,1.26882631385732E-16));
#1015=DIRECTION('ref_axis',(-1.84176650089262E-16,-2.70041415698169E-16,
-1.));
#1016=DIRECTION('',(1.,0.,-1.84176650089262E-16));
#1017=DIRECTION('center_axis',(1.,-1.34572487833352E-16,-7.40148683083438E-17));
#1018=DIRECTION('ref_axis',(-1.84176650089262E-16,-2.70041415698169E-16,
-1.));
#1019=DIRECTION('center_axis',(-5.85793537116593E-17,0.948070352335985,
-0.318060697071363));
#1020=DIRECTION('ref_axis',(1.20293661043188E-16,0.318060697071363,0.948070352335985));
#1021=DIRECTION('',(-1.12973521562097E-16,-0.318060697071363,-0.948070352335985));
#1022=DIRECTION('',(1.,0.,-1.84176650089262E-16));
#1023=DIRECTION('',(1.20293661043188E-16,0.318060697071363,0.948070352335985));
#1024=DIRECTION('',(1.,2.77686742565135E-17,-1.01404220082391E-16));
#1025=DIRECTION('center_axis',(-5.85793537116593E-17,0.948070352335985,
-0.318060697071363));
#1026=DIRECTION('ref_axis',(1.20293661043188E-16,0.318060697071363,0.948070352335985));
#1027=DIRECTION('',(-1.12973521562097E-16,-0.318060697071363,-0.948070352335985));
#1028=DIRECTION('',(-1.,-2.77686742565135E-17,1.01404220082391E-16));
#1029=DIRECTION('',(1.20293661043188E-16,0.318060697071363,0.948070352335985));
#1030=DIRECTION('',(1.,0.,-1.84176650089262E-16));
#1031=DIRECTION('center_axis',(-1.,0.,1.84176650089262E-16));
#1032=DIRECTION('ref_axis',(-1.84176650089262E-16,-2.70041415698169E-16,
-1.));
#1033=DIRECTION('center_axis',(1.,-1.34572487833352E-16,-7.40148683083438E-17));
#1034=DIRECTION('ref_axis',(-1.84176650089262E-16,-2.70041415698169E-16,
-1.));
#1035=DIRECTION('',(1.,0.,-1.84176650089262E-16));
#1036=DIRECTION('center_axis',(-1.,0.,1.26882631385732E-16));
#1037=DIRECTION('ref_axis',(-1.84176650089262E-16,-2.70041415698169E-16,
-1.));
#1038=DIRECTION('center_axis',(5.85793537116593E-17,-0.948070352335985,
0.318060697071363));
#1039=DIRECTION('ref_axis',(-1.20293661043188E-16,-0.318060697071363,-0.948070352335985));
#1040=DIRECTION('',(1.12973521562097E-16,0.318060697071363,0.948070352335985));
#1041=DIRECTION('',(-1.,-2.77686742565135E-17,1.01404220082391E-16));
#1042=DIRECTION('',(-1.20293661043188E-16,-0.318060697071363,-0.948070352335985));
#1043=DIRECTION('center_axis',(5.85793537116593E-17,-0.948070352335985,
0.318060697071363));
#1044=DIRECTION('ref_axis',(-1.20293661043188E-16,-0.318060697071363,-0.948070352335985));
#1045=DIRECTION('',(1.12973521562097E-16,0.318060697071363,0.948070352335985));
#1046=DIRECTION('',(1.,0.,-1.84176650089262E-16));
#1047=DIRECTION('',(-1.20293661043188E-16,-0.318060697071363,-0.948070352335985));
#1048=DIRECTION('',(1.,2.77686742565135E-17,-1.01404220082391E-16));
#1049=DIRECTION('center_axis',(-1.,0.,1.84176650089262E-16));
#1050=DIRECTION('ref_axis',(1.74612421542188E-16,0.318060697071364,0.948070352335985));
#1051=DIRECTION('center_axis',(1.,-1.34572487833352E-16,-7.40148683083438E-17));
#1052=DIRECTION('ref_axis',(-1.84176650089262E-16,-2.70041415698169E-16,
-1.));
#1053=DIRECTION('center_axis',(-1.,0.,1.26882631385732E-16));
#1054=DIRECTION('ref_axis',(-1.84176650089262E-16,-2.70041415698169E-16,
-1.));
#1055=DIRECTION('center_axis',(-4.39345152837444E-17,0.948070352335985,
-0.318060697071363));
#1056=DIRECTION('ref_axis',(1.20293661043188E-16,0.318060697071363,0.948070352335985));
#1057=DIRECTION('',(-1.12973521562097E-16,-0.318060697071363,-0.948070352335985));
#1058=DIRECTION('',(1.,0.,-1.38132487566947E-16));
#1059=DIRECTION('',(1.20293661043188E-16,0.318060697071363,0.948070352335985));
#1060=DIRECTION('',(1.,1.38843371282568E-17,-9.67462725635112E-17));
#1061=DIRECTION('center_axis',(-4.39345152837444E-17,0.948070352335985,
-0.318060697071363));
#1062=DIRECTION('ref_axis',(1.20293661043188E-16,0.318060697071363,0.948070352335985));
#1063=DIRECTION('',(-1.12973521562097E-16,-0.318060697071363,-0.948070352335985));
#1064=DIRECTION('',(-1.,-1.38843371282568E-17,9.67462725635112E-17));
#1065=DIRECTION('',(1.20293661043188E-16,0.318060697071363,0.948070352335985));
#1066=DIRECTION('',(1.,0.,-1.38132487566947E-16));
#1067=DIRECTION('center_axis',(-1.,0.,1.38132487566947E-16));
#1068=DIRECTION('ref_axis',(-1.38132487566947E-16,-2.70041415698169E-16,
-1.));
#1069=DIRECTION('center_axis',(1.,-1.34572487833352E-16,-7.40148683083438E-17));
#1070=DIRECTION('ref_axis',(-1.38132487566947E-16,-2.70041415698169E-16,
-1.));
#1071=DIRECTION('',(1.,0.,-1.38132487566947E-16));
#1072=DIRECTION('center_axis',(-1.,0.,1.26882631385732E-16));
#1073=DIRECTION('ref_axis',(-1.38132487566947E-16,-2.70041415698169E-16,
-1.));
#1074=DIRECTION('center_axis',(4.39345152837444E-17,-0.948070352335985,
0.318060697071363));
#1075=DIRECTION('ref_axis',(-1.20293661043188E-16,-0.318060697071363,-0.948070352335985));
#1076=DIRECTION('',(1.12973521562097E-16,0.318060697071363,0.948070352335985));
#1077=DIRECTION('',(-1.,-1.38843371282567E-17,9.67462725635112E-17));
#1078=DIRECTION('',(-1.20293661043188E-16,-0.318060697071363,-0.948070352335985));
#1079=DIRECTION('center_axis',(-1.,0.,1.38132487566947E-16));
#1080=DIRECTION('ref_axis',(1.30959316156641E-16,0.318060697071361,0.948070352335986));
#1081=DIRECTION('center_axis',(1.,-1.34572487833352E-16,-7.40148683083438E-17));
#1082=DIRECTION('ref_axis',(-1.38132487566947E-16,-2.70041415698169E-16,
-1.));
#1083=DIRECTION('center_axis',(-1.,0.,1.26882631385732E-16));
#1084=DIRECTION('ref_axis',(-1.38132487566947E-16,-2.70041415698169E-16,
-1.));
#1085=DIRECTION('',(1.,0.,-1.38132487566947E-16));
#1086=DIRECTION('center_axis',(4.39345152837444E-17,-0.948070352335985,
0.318060697071363));
#1087=DIRECTION('ref_axis',(-1.20293661043188E-16,-0.318060697071363,-0.948070352335985));
#1088=DIRECTION('',(1.12973521562097E-16,0.318060697071363,0.948070352335985));
#1089=DIRECTION('',(-1.20293661043188E-16,-0.318060697071363,-0.948070352335985));
#1090=DIRECTION('',(1.,1.38843371282567E-17,-9.67462725635112E-17));
#1091=DIRECTION('center_axis',(-8.73062107710941E-17,-0.318060697071364,
-0.948070352335985));
#1092=DIRECTION('ref_axis',(-4.03563781847949E-17,0.948070352335985,-0.318060697071364));
#1093=DIRECTION('',(-4.03563781847949E-17,0.948070352335985,-0.318060697071364));
#1094=DIRECTION('',(1.,0.,-9.20883250446311E-17));
#1095=DIRECTION('',(-1.04042965347099E-16,-0.948070352335985,0.318060697071364));
#1096=DIRECTION('center_axis',(-8.73062107710941E-17,-0.318060697071364,
-0.948070352335985));
#1097=DIRECTION('ref_axis',(-4.03563781847949E-17,0.948070352335985,-0.318060697071364));
#1098=DIRECTION('',(-4.03563781847949E-17,0.948070352335985,-0.318060697071364));
#1099=DIRECTION('',(-1.04042965347099E-16,-0.948070352335985,0.318060697071364));
#1100=DIRECTION('center_axis',(-8.73062107710941E-17,-0.318060697071364,
-0.948070352335985));
#1101=DIRECTION('ref_axis',(-4.03563781847949E-17,0.948070352335985,-0.318060697071364));
#1102=DIRECTION('',(-1.04042965347099E-16,-0.948070352335985,0.318060697071364));
#1103=DIRECTION('',(1.,0.,-9.20883250446311E-17));
#1104=DIRECTION('',(-4.03563781847949E-17,0.948070352335985,-0.318060697071364));
#1105=DIRECTION('center_axis',(1.,0.,-1.26882631385732E-16));
#1106=DIRECTION('ref_axis',(0.,-1.,0.));
#1107=DIRECTION('',(4.03563781847949E-17,-0.948070352335985,0.318060697071364));
#1108=DIRECTION('',(1.26882631385732E-16,-1.70749113684202E-32,1.));
#1109=DIRECTION('',(-4.03563781847949E-17,0.948070352335985,-0.318060697071364));
#1110=DIRECTION('',(-1.26882631385732E-16,0.,-1.));
#1111=DIRECTION('',(1.20293661043188E-16,0.318060697071364,0.948070352335985));
#1112=DIRECTION('',(4.03563781847949E-17,-0.948070352335985,0.318060697071364));
#1113=DIRECTION('',(4.03563781847949E-17,-0.948070352335985,0.318060697071364));
#1114=DIRECTION('',(4.03563781847949E-17,-0.948070352335985,0.318060697071364));
#1115=DIRECTION('',(-1.20293661043188E-16,-0.318060697071363,-0.948070352335985));
#1116=DIRECTION('center_axis',(8.73062107710941E-17,0.318060697071364,0.948070352335985));
#1117=DIRECTION('ref_axis',(4.03563781847949E-17,-0.948070352335985,0.318060697071364));
#1118=DIRECTION('',(1.04042965347099E-16,0.948070352335985,-0.318060697071364));
#1119=DIRECTION('',(1.,0.,-9.20883250446311E-17));
#1120=DIRECTION('center_axis',(8.73062107710941E-17,0.318060697071364,0.948070352335985));
#1121=DIRECTION('ref_axis',(4.03563781847949E-17,-0.948070352335985,0.318060697071364));
#1122=DIRECTION('',(1.04042965347099E-16,0.948070352335985,-0.318060697071364));
#1123=DIRECTION('center_axis',(2.92896768558297E-17,-0.948070352335985,
0.318060697071363));
#1124=DIRECTION('ref_axis',(-1.20293661043188E-16,-0.318060697071363,-0.948070352335985));
#1125=DIRECTION('',(1.12973521562097E-16,0.318060697071363,0.948070352335985));
#1126=DIRECTION('center_axis',(-2.92896768558297E-17,0.948070352335985,
-0.318060697071364));
#1127=DIRECTION('ref_axis',(1.20293661043188E-16,0.318060697071364,0.948070352335985));
#1128=DIRECTION('',(-1.12973521562097E-16,-0.318060697071364,-0.948070352335985));
#1129=DIRECTION('',(1.,0.,-9.20883250446311E-17));
#1130=DIRECTION('center_axis',(8.73062107710941E-17,0.318060697071364,0.948070352335985));
#1131=DIRECTION('ref_axis',(4.03563781847949E-17,-0.948070352335985,0.318060697071364));
#1132=DIRECTION('',(1.04042965347099E-16,0.948070352335985,-0.318060697071364));
#1133=DIRECTION('center_axis',(-6.47064225950795E-46,3.27838298273667E-31,
-1.));
#1134=DIRECTION('ref_axis',(-1.77635683940025E-15,1.,3.27838298273667E-31));
#1135=DIRECTION('',(7.83008910610511E-16,-1.,-3.27838298273667E-31));
#1136=DIRECTION('',(-1.,2.22044604925031E-16,7.19858951370266E-46));
#1137=DIRECTION('',(1.77635683940025E-15,-1.,-3.27838298273667E-31));
#1138=DIRECTION('',(1.,1.97372982155566E-15,0.));
#1139=DIRECTION('center_axis',(-1.97372982155566E-15,1.,3.52881501613994E-31));
#1140=DIRECTION('ref_axis',(1.26882631385732E-16,-1.02449468210521E-31,
1.));
#1141=DIRECTION('',(-1.26882631385732E-16,1.02449468210521E-31,-1.));
#1142=DIRECTION('',(-1.26882631385732E-16,1.02449468210521E-31,-1.));
#1143=DIRECTION('',(1.,1.97372982155566E-15,0.));
#1144=DIRECTION('center_axis',(-7.40148683083438E-17,0.,-1.));
#1145=DIRECTION('ref_axis',(0.,-1.,0.));
#1146=DIRECTION('center_axis',(2.23188529807372E-16,0.303658920997609,0.952780803594703));
#1147=DIRECTION('ref_axis',(2.24752750482918E-17,-0.952780803594703,0.303658920997609));
#1148=DIRECTION('center_axis',(1.77635683940025E-16,-2.39048759157882E-32,
1.));
#1149=DIRECTION('ref_axis',(0.,-1.,0.));
#1150=DIRECTION('',(7.40148683083438E-17,0.,1.));
#1151=DIRECTION('center_axis',(-2.23188529807659E-16,-0.30365892099998,
-0.952780803593947));
#1152=DIRECTION('ref_axis',(2.24752750484673E-17,-0.952780803593947,0.30365892099998));
#1153=DIRECTION('',(7.40148683083438E-17,0.,1.));
#1154=DIRECTION('center_axis',(4.99837872914314E-16,1.,-3.69954343392756E-32));
#1155=DIRECTION('ref_axis',(-1.,4.99837872914314E-16,7.74574203226853E-17));
#1156=DIRECTION('',(1.,-4.99837872914314E-16,-1.77635683940025E-16));
#1157=DIRECTION('',(-1.26882631385732E-16,0.,-1.));
#1158=DIRECTION('',(-1.,4.99837872914314E-16,7.49472495396807E-17));
#1159=DIRECTION('center_axis',(1.,-1.34572487833352E-16,-7.40148683083438E-17));
#1160=DIRECTION('ref_axis',(1.34572487833352E-16,1.,-1.04236377539774E-32));
#1161=DIRECTION('',(-1.04042965347099E-16,-0.948070352335985,0.318060697071364));
#1162=DIRECTION('',(1.04042965347099E-16,0.948070352335985,-0.318060697071364));
#1163=DIRECTION('',(7.40148683083438E-17,-7.68371011578908E-33,1.));
#1164=DIRECTION('center_axis',(2.24910054919176E-16,0.318060697071364,0.948070352335985));
#1165=DIRECTION('ref_axis',(-8.72278077701015E-17,-0.948070352335985,0.318060697071364));
#1166=DIRECTION('',(1.,-1.77635683940025E-16,-1.77635683940025E-16));
#1167=DIRECTION('',(1.,-1.77635683940025E-16,-1.77635683940025E-16));
#1168=DIRECTION('center_axis',(2.23188529807372E-16,0.303658920997609,0.952780803594703));
#1169=DIRECTION('ref_axis',(-8.9689040159671E-17,-0.952780803594703,0.303658920997609));
#1170=DIRECTION('center_axis',(2.23188529807372E-16,0.303658920997609,0.952780803594703));
#1171=DIRECTION('ref_axis',(3.85290429399288E-17,-0.952780803594703,0.303658920997609));
#1172=DIRECTION('',(-1.,1.77635683940025E-16,1.77635683940025E-16));
#1173=DIRECTION('center_axis',(1.77635683940025E-16,-2.39048759157882E-32,
1.));
#1174=DIRECTION('ref_axis',(-1.34572487833352E-16,-1.,0.));
#1175=DIRECTION('center_axis',(1.77635683940025E-16,-2.39048759157882E-32,
1.));
#1176=DIRECTION('ref_axis',(0.,-1.,0.));
#1177=DIRECTION('',(1.,0.,-1.77635683940025E-16));
#1178=DIRECTION('center_axis',(-1.77635683940025E-16,2.39048759157882E-32,
-1.));
#1179=DIRECTION('ref_axis',(0.,-1.,0.));
#1180=DIRECTION('',(1.77635683940025E-15,-1.,-3.39449238004193E-31));
#1181=DIRECTION('',(1.,-1.77635683940025E-16,-1.77635683940025E-16));
#1182=DIRECTION('',(7.83008910610511E-16,-1.,-1.6299519928322E-31));
#1183=DIRECTION('center_axis',(-1.77635683940025E-16,2.39048759157882E-32,
-1.));
#1184=DIRECTION('ref_axis',(0.,-1.,0.));
#1185=DIRECTION('center_axis',(2.22044604925031E-16,1.,-2.81736037578933E-32));
#1186=DIRECTION('ref_axis',(1.,-2.22044604925031E-16,-7.74574203226853E-17));
#1187=DIRECTION('',(-7.40148683083438E-17,-1.17390015657889E-32,-1.));
#1188=DIRECTION('',(1.26882631385732E-16,0.,1.));
#1189=DIRECTION('center_axis',(1.77635683940025E-16,1.,-5.46397163789445E-33));
#1190=DIRECTION('ref_axis',(1.26882631385732E-16,-1.70749113684202E-32,
1.));
#1191=DIRECTION('',(1.,-1.77635683940025E-16,-1.77635683940025E-16));
#1192=DIRECTION('center_axis',(-2.24910054919176E-16,-0.318060697071364,
-0.948070352335985));
#1193=DIRECTION('ref_axis',(8.72278077701015E-17,0.948070352335985,-0.318060697071364));
#1194=DIRECTION('',(1.,-1.77635683940025E-16,-1.77635683940025E-16));
#1195=DIRECTION('center_axis',(-2.23188529807659E-16,-0.30365892099998,
-0.952780803593947));
#1196=DIRECTION('ref_axis',(8.96890401592684E-17,0.952780803593947,-0.30365892099998));
#1197=DIRECTION('center_axis',(-2.23188529807659E-16,-0.30365892099998,
-0.952780803593947));
#1198=DIRECTION('ref_axis',(-3.85290429402297E-17,0.952780803593947,-0.30365892099998));
#1199=DIRECTION('',(-7.68511134121171E-16,0.952780803593947,-0.30365892099998));
#1200=DIRECTION('',(-1.7310077398536E-15,0.952780803593947,-0.30365892099998));
#1201=DIRECTION('center_axis',(2.23188529807659E-16,0.30365892099998,0.952780803593947));
#1202=DIRECTION('ref_axis',(3.85290429402297E-17,-0.952780803593947,0.30365892099998));
#1203=DIRECTION('',(-1.,0.,2.3424960805862E-16));
#1204=DIRECTION('center_axis',(-2.23188529807659E-16,-0.30365892099998,
-0.952780803593947));
#1205=DIRECTION('ref_axis',(3.85290429402297E-17,-0.952780803593947,0.30365892099998));
#1206=DIRECTION('center_axis',(-1.,-7.83008910610511E-16,1.26882631385732E-16));
#1207=DIRECTION('ref_axis',(-7.83008910610511E-16,1.,6.06498503055663E-32));
#1208=DIRECTION('',(-1.26882631385732E-16,0.,-1.));
#1209=DIRECTION('center_axis',(1.26882631385732E-16,0.,1.));
#1210=DIRECTION('ref_axis',(0.,-1.,0.));
#1211=DIRECTION('',(-1.26882631385732E-16,0.,-1.));
#1212=DIRECTION('center_axis',(1.26882631385732E-16,0.,1.));
#1213=DIRECTION('ref_axis',(0.,1.,0.));
#1214=DIRECTION('center_axis',(1.,1.77635683940025E-15,-1.26882631385732E-16));
#1215=DIRECTION('ref_axis',(1.77635683940025E-15,-1.,-1.37592018352502E-31));
#1216=DIRECTION('',(-1.26882631385732E-16,0.,-1.));
#1217=DIRECTION('center_axis',(1.26882631385732E-16,0.,1.));
#1218=DIRECTION('ref_axis',(0.,-1.,0.));
#1219=DIRECTION('',(-1.26882631385732E-16,0.,-1.));
#1220=DIRECTION('center_axis',(0.,1.,0.));
#1221=DIRECTION('ref_axis',(1.,0.,-7.74574203226853E-17));
#1222=CARTESIAN_POINT('',(0.,0.,0.));
#1223=CARTESIAN_POINT('Origin',(-42.1495122307728,106.,34.0548079742758));
#1224=CARTESIAN_POINT('',(-42.1495122307728,106.,35.0548079742758));
#1225=CARTESIAN_POINT('Origin',(-42.1495122307728,106.,34.0548079742758));
#1226=CARTESIAN_POINT('',(-40.6495122307728,106.,35.0548079742758));
#1227=CARTESIAN_POINT('',(-42.1495122307728,106.,35.0548079742758));
#1228=CARTESIAN_POINT('Origin',(-40.6495122307728,106.,34.0548079742758));
#1229=CARTESIAN_POINT('Origin',(-42.1495122307728,18.5,39.4716016390964));
#1230=CARTESIAN_POINT('',(-11.5,18.5,40.4716016390964));
#1231=CARTESIAN_POINT('Origin',(-11.5,18.5,39.4716016390964));
#1232=CARTESIAN_POINT('',(-9.99999999999999,18.5,40.4716016390964));
#1233=CARTESIAN_POINT('',(-42.1495122307728,18.5,40.4716016390964));
#1234=CARTESIAN_POINT('Origin',(-9.99999999999999,18.5,39.4716016390964));
#1235=CARTESIAN_POINT('Origin',(-42.1495122307728,106.,11.0548079742758));
#1236=CARTESIAN_POINT('',(-42.1495122307728,106.,12.0548079742758));
#1237=CARTESIAN_POINT('Origin',(-42.1495122307728,106.,11.0548079742758));
#1238=CARTESIAN_POINT('',(-40.6495122307728,106.,12.0548079742758));
#1239=CARTESIAN_POINT('',(-42.1495122307728,106.,12.0548079742758));
#1240=CARTESIAN_POINT('Origin',(-40.6495122307728,106.,11.0548079742758));
#1241=CARTESIAN_POINT('Origin',(-42.1495122307728,51.,53.519611610163));
#1242=CARTESIAN_POINT('',(-42.1495122307728,51.,54.519611610163));
#1243=CARTESIAN_POINT('Origin',(-42.1495122307728,51.,53.519611610163));
#1244=CARTESIAN_POINT('',(-40.6495122307728,51.,54.519611610163));
#1245=CARTESIAN_POINT('',(-42.1495122307728,51.,54.519611610163));
#1246=CARTESIAN_POINT('Origin',(-40.6495122307728,51.,53.519611610163));
#1247=CARTESIAN_POINT('Origin',(-42.1495122307728,64.4290327878409,25.0802889070105));
#1248=CARTESIAN_POINT('',(-40.6495122307728,65.0651541819836,26.9764296116825));
#1249=CARTESIAN_POINT('',(-40.6495122307728,64.4290327878409,25.0802889070105));
#1250=CARTESIAN_POINT('',(-40.6495122307728,69.6926610912158,40.7700298466987));
#1251=CARTESIAN_POINT('',(-42.1495122307728,64.4290327878409,25.0802889070105));
#1252=CARTESIAN_POINT('',(-42.1495122307728,64.4290327878409,25.0802889070105));
#1253=CARTESIAN_POINT('',(-42.1495122307728,65.0651541819836,26.9764296116825));
#1254=CARTESIAN_POINT('',(-42.1495122307728,73.031027122926,50.720979112209));
#1255=CARTESIAN_POINT('',(-42.1495122307728,65.0651541819836,26.9764296116825));
#1256=CARTESIAN_POINT('Origin',(-42.1495122307728,64.4290327878409,25.0802889070105));
#1257=CARTESIAN_POINT('',(-40.6495122307728,71.4899802628251,46.1274507288693));
#1258=CARTESIAN_POINT('',(-40.6495122307728,70.9492770778038,44.5157311298982));
#1259=CARTESIAN_POINT('',(-40.6495122307728,69.6926610912158,40.7700298466987));
#1260=CARTESIAN_POINT('',(-42.1495122307728,70.9492770778038,44.5157311298982));
#1261=CARTESIAN_POINT('',(-42.1495122307728,70.9492770778038,44.5157311298982));
#1262=CARTESIAN_POINT('',(-42.1495122307728,71.4899802628251,46.1274507288693));
#1263=CARTESIAN_POINT('',(-42.1495122307728,73.031027122926,50.720979112209));
#1264=CARTESIAN_POINT('',(-42.1495122307728,71.4899802628251,46.1274507288693));
#1265=CARTESIAN_POINT('Origin',(-42.1495122307728,66.3251734925128,24.4441675128678));
#1266=CARTESIAN_POINT('',(-40.6495122307728,68.2213141971848,23.808046118725));
#1267=CARTESIAN_POINT('Origin',(-40.6495122307728,66.3251734925128,24.4441675128678));
#1268=CARTESIAN_POINT('',(-42.1495122307728,68.2213141971848,23.808046118725));
#1269=CARTESIAN_POINT('',(-42.1495122307728,68.2213141971848,23.808046118725));
#1270=CARTESIAN_POINT('Origin',(-42.1495122307728,66.3251734925128,24.4441675128678));
#1271=CARTESIAN_POINT('Origin',(-42.1495122307728,75.2822616721691,44.8552079405839));
#1272=CARTESIAN_POINT('',(-40.6495122307728,68.8574355913275,25.704186823397));
#1273=CARTESIAN_POINT('',(-40.6495122307728,77.0154162380519,50.0213679693426));
#1274=CARTESIAN_POINT('',(-42.1495122307728,68.8574355913275,25.704186823397));
#1275=CARTESIAN_POINT('',(-42.1495122307728,68.8574355913275,25.704186823397));
#1276=CARTESIAN_POINT('',(-42.1495122307728,80.3537822697621,59.9723172348529));
#1277=CARTESIAN_POINT('Origin',(-42.1495122307728,75.2822616721691,44.8552079405839));
#1278=CARTESIAN_POINT('',(-40.6495122307728,74.7415584871478,43.2434883416127));
#1279=CARTESIAN_POINT('',(-40.6495122307728,75.2822616721691,44.8552079405839));
#1280=CARTESIAN_POINT('',(-40.6495122307728,77.0154162380519,50.0213679693426));
#1281=CARTESIAN_POINT('',(-42.1495122307728,75.2822616721691,44.8552079405839));
#1282=CARTESIAN_POINT('',(-42.1495122307728,75.2822616721691,44.8552079405839));
#1283=CARTESIAN_POINT('',(-42.1495122307728,74.7415584871478,43.2434883416127));
#1284=CARTESIAN_POINT('',(-42.1495122307728,80.3537822697621,59.9723172348529));
#1285=CARTESIAN_POINT('',(-42.1495122307728,74.7415584871478,43.2434883416127));
#1286=CARTESIAN_POINT('Origin',(-42.1495122307728,73.3861209674971,45.4913293347266));
#1287=CARTESIAN_POINT('Origin',(-40.6495122307728,73.3861209674971,45.4913293347266));
#1288=CARTESIAN_POINT('Origin',(-42.1495122307728,73.3861209674971,45.4913293347266));
#1289=CARTESIAN_POINT('Origin',(-42.1495122307728,84.7177383278309,18.2737899896833));
#1290=CARTESIAN_POINT('',(-40.6495122307728,85.3538597219737,20.1699306943553));
#1291=CARTESIAN_POINT('',(-40.6495122307728,84.7177383278309,18.2737899896833));
#1292=CARTESIAN_POINT('',(-40.6495122307728,89.9813666312058,33.9635309293715));
#1293=CARTESIAN_POINT('',(-42.1495122307728,84.7177383278309,18.2737899896833));
#1294=CARTESIAN_POINT('',(-42.1495122307728,84.7177383278309,18.2737899896833));
#1295=CARTESIAN_POINT('',(-42.1495122307728,85.3538597219737,20.1699306943553));
#1296=CARTESIAN_POINT('',(-42.1495122307728,93.3197326629161,43.9144801948818));
#1297=CARTESIAN_POINT('',(-42.1495122307728,85.3538597219736,20.1699306943553));
#1298=CARTESIAN_POINT('Origin',(-42.1495122307728,84.7177383278309,18.2737899896833));
#1299=CARTESIAN_POINT('',(-40.6495122307728,91.7786858028152,39.3209518115421));
#1300=CARTESIAN_POINT('',(-40.6495122307728,91.2379826177939,37.709232212571));
#1301=CARTESIAN_POINT('',(-40.6495122307728,89.9813666312058,33.9635309293715));
#1302=CARTESIAN_POINT('',(-42.1495122307728,91.2379826177939,37.709232212571));
#1303=CARTESIAN_POINT('',(-42.1495122307728,91.2379826177939,37.709232212571));
#1304=CARTESIAN_POINT('',(-42.1495122307728,91.7786858028152,39.3209518115421));
#1305=CARTESIAN_POINT('',(-42.1495122307728,93.3197326629161,43.9144801948818));
#1306=CARTESIAN_POINT('',(-42.1495122307728,91.7786858028152,39.3209518115421));
#1307=CARTESIAN_POINT('Origin',(-42.1495122307728,86.6138790325029,17.6376685955406));
#1308=CARTESIAN_POINT('',(-40.6495122307728,88.5100197371749,17.0015472013979));
#1309=CARTESIAN_POINT('Origin',(-40.6495122307728,86.6138790325029,17.6376685955406));
#1310=CARTESIAN_POINT('',(-42.1495122307728,88.5100197371749,17.0015472013979));
#1311=CARTESIAN_POINT('',(-42.1495122307728,88.5100197371749,17.0015472013979));
#1312=CARTESIAN_POINT('Origin',(-42.1495122307728,86.6138790325029,17.6376685955406));
#1313=CARTESIAN_POINT('Origin',(-42.1495122307728,95.5709672121591,38.0487090232567));
#1314=CARTESIAN_POINT('',(-40.6495122307728,89.1461411313176,18.8976879060698));
#1315=CARTESIAN_POINT('',(-40.6495122307728,97.3041217780419,43.2148690520155));
#1316=CARTESIAN_POINT('',(-42.1495122307728,89.1461411313176,18.8976879060698));
#1317=CARTESIAN_POINT('',(-42.1495122307728,89.1461411313176,18.8976879060698));
#1318=CARTESIAN_POINT('',(-42.1495122307728,100.642487809752,53.1658183175258));
#1319=CARTESIAN_POINT('Origin',(-42.1495122307728,93.6748265074872,38.6848304173994));
#1320=CARTESIAN_POINT('',(-40.6495122307728,95.5709672121591,38.0487090232567));
#1321=CARTESIAN_POINT('Origin',(-40.6495122307728,93.6748265074872,38.6848304173994));
#1322=CARTESIAN_POINT('',(-42.1495122307728,95.5709672121591,38.0487090232567));
#1323=CARTESIAN_POINT('Origin',(-42.1495122307728,93.6748265074872,38.6848304173994));
#1324=CARTESIAN_POINT('',(-42.1495122307728,95.5709672121591,38.0487090232567));
#1325=CARTESIAN_POINT('Origin',(-42.1495122307728,95.5709672121591,38.0487090232567));
#1326=CARTESIAN_POINT('',(-40.6495122307728,95.0302640271378,36.4369894242855));
#1327=CARTESIAN_POINT('',(-40.6495122307728,97.3041217780419,43.2148690520155));
#1328=CARTESIAN_POINT('',(-42.1495122307728,95.0302640271378,36.4369894242855));
#1329=CARTESIAN_POINT('',(-42.1495122307728,100.642487809752,53.1658183175258));
#1330=CARTESIAN_POINT('',(-42.1495122307728,95.0302640271378,36.4369894242855));
#1331=CARTESIAN_POINT('Origin',(-42.1495122307728,70.8070665249534,44.5634402344589));
#1332=CARTESIAN_POINT('',(-42.1495122307728,95.1724745799882,36.3892803197248));
#1333=CARTESIAN_POINT('',(-42.1495122307728,86.5616610723731,39.2780547021696));
#1334=CARTESIAN_POINT('',(-40.6495122307728,95.1724745799882,36.3892803197248));
#1335=CARTESIAN_POINT('',(-42.1495122307728,95.1724745799882,36.3892803197248));
#1336=CARTESIAN_POINT('',(-40.6495122307728,56.9000271040833,49.2290039676799));
#1337=CARTESIAN_POINT('Origin',(-42.1495122307728,70.8070665249534,44.5634402344589));
#1338=CARTESIAN_POINT('',(-42.1495122307728,86.5616610723731,39.2780547021696));
#1339=CARTESIAN_POINT('',(-40.6495122307728,56.9000271040833,49.2290039676799));
#1340=CARTESIAN_POINT('Origin',(-42.1495122307728,70.8070665249534,44.5634402344589));
#1341=CARTESIAN_POINT('',(-40.6495122307728,70.8070665249534,44.5634402344589));
#1342=CARTESIAN_POINT('',(-40.6495122307728,56.9000271040833,49.2290039676799));
#1343=CARTESIAN_POINT('',(-42.1495122307728,70.8070665249534,44.5634402344589));
#1344=CARTESIAN_POINT('',(-42.1495122307728,70.8070665249534,44.5634402344589));
#1345=CARTESIAN_POINT('',(-42.1495122307728,86.5616610723731,39.2780547021696));
#1346=CARTESIAN_POINT('Origin',(-42.1495122307728,113.,65.8386073573896));
#1347=CARTESIAN_POINT('',(-42.1495122307728,110.,37.9452598852842));
#1348=CARTESIAN_POINT('',(-42.1495122307728,47.,59.0806364595268));
#1349=CARTESIAN_POINT('',(-42.1495122307728,107.142721460071,38.9038258839968));
#1350=CARTESIAN_POINT('',(-42.1495122307728,110.,5.05480797427577));
#1351=CARTESIAN_POINT('',(-42.1495122307728,110.,35.4467076658327));
#1352=CARTESIAN_POINT('',(-42.1495122307728,47.,26.1901845485184));
#1353=CARTESIAN_POINT('',(-42.1495122307728,70.6837636072507,18.2447041908265));
#1354=CARTESIAN_POINT('',(-42.1495122307728,47.,65.8386073573896));
#1355=CARTESIAN_POINT('',(-42.1495122307728,64.9229436291332,27.0241387162432));
#1356=CARTESIAN_POINT('',(-42.1495122307728,73.206877267147,51.7167585691057));
#1357=CARTESIAN_POINT('',(-42.1495122307728,92.8602422040702,17.6516732265869));
#1358=CARTESIAN_POINT('',(-42.1495122307728,92.8602422040702,17.6516732265869));
#1359=CARTESIAN_POINT('',(-42.1495122307728,89.288351684168,18.8499788015091));
#1360=CARTESIAN_POINT('',(-42.1495122307728,92.8602422040702,17.6516732265869));
#1361=CARTESIAN_POINT('',(-42.1495122307728,100.514346770092,52.3122494134795));
#1362=CARTESIAN_POINT('Origin',(-42.1495122307728,89.288351684168,18.8499788015091));
#1363=CARTESIAN_POINT('',(-40.6495122307728,89.288351684168,18.8499788015091));
#1364=CARTESIAN_POINT('',(-40.6495122307728,63.1986082357805,27.6026224920972));
#1365=CARTESIAN_POINT('',(-42.1495122307728,89.288351684168,18.8499788015091));
#1366=CARTESIAN_POINT('Origin',(-42.1495122307728,89.288351684168,18.8499788015091));
#1367=CARTESIAN_POINT('',(-40.6495122307728,63.1986082357805,27.6026224920972));
#1368=CARTESIAN_POINT('Origin',(-42.1495122307728,95.1724745799882,36.3892803197248));
#1369=CARTESIAN_POINT('',(-40.6495122307728,97.1759807383817,42.3613001479692));
#1370=CARTESIAN_POINT('Origin',(-42.1495122307728,64.9229436291332,27.0241387162432));
#1371=CARTESIAN_POINT('',(-40.6495122307728,64.9229436291332,27.0241387162432));
#1372=CARTESIAN_POINT('',(-40.6495122307728,69.8685112354368,41.7658093035953));
#1373=CARTESIAN_POINT('',(-42.1495122307728,64.9229436291332,27.0241387162432));
#1374=CARTESIAN_POINT('Origin',(-42.1495122307728,89.288351684168,18.8499788015091));
#1375=CARTESIAN_POINT('',(-40.6495122307728,63.1986082357805,27.6026224920972));
#1376=CARTESIAN_POINT('Origin',(-11.5,14.5,55.6481290479807));
#1377=CARTESIAN_POINT('',(-9.99999999999999,19.5,55.6481290479807));
#1378=CARTESIAN_POINT('',(-9.99999999999998,14.5,55.6481290479807));
#1379=CARTESIAN_POINT('',(-9.99999999999998,15.75,55.6481290479807));
#1380=CARTESIAN_POINT('',(-11.5,19.5,55.6481290479807));
#1381=CARTESIAN_POINT('',(-11.5,19.5,55.6481290479807));
#1382=CARTESIAN_POINT('',(-11.5,14.5,55.6481290479807));
#1383=CARTESIAN_POINT('',(-11.5,19.5,55.6481290479807));
#1384=CARTESIAN_POINT('',(-11.5,14.5,55.6481290479807));
#1385=CARTESIAN_POINT('Origin',(-11.5,14.5,36.5481964807499));
#1386=CARTESIAN_POINT('',(-9.99999999999999,14.5,36.5481964807499));
#1387=CARTESIAN_POINT('',(-9.99999999999999,14.5,40.9247945482381));
#1388=CARTESIAN_POINT('',(-11.5,14.5,36.5481964807499));
#1389=CARTESIAN_POINT('',(-11.5,14.5,55.6481290479807));
#1390=CARTESIAN_POINT('',(-11.5,14.5,36.5481964807499));
#1391=CARTESIAN_POINT('Origin',(-20.6495122307728,47.,65.8386073573896));
#1392=CARTESIAN_POINT('',(-40.6495122307728,47.,59.0806364595268));
#1393=CARTESIAN_POINT('',(-29.2284386828827,28.9334004049105,64.8386073573897));
#1394=CARTESIAN_POINT('Origin',(-20.6495122307728,47.,59.0806364595268));
#1395=CARTESIAN_POINT('',(-20.6495122307728,27.,64.8386073573897));
#1396=CARTESIAN_POINT('Origin',(-20.6495122307728,47.,64.8386073573897));
#1397=CARTESIAN_POINT('',(-20.6495122307728,27.,32.5643457375548));
#1398=CARTESIAN_POINT('',(-20.6495122307728,27.,65.8386073573896));
#1399=CARTESIAN_POINT('',(-40.6495122307728,47.,26.1901845485184));
#1400=CARTESIAN_POINT('Origin',(-20.6495122307728,47.,26.1901845484427));
#1401=CARTESIAN_POINT('',(-40.6495122307728,47.,65.8386073573896));
#1402=CARTESIAN_POINT('Origin',(-12.,27.,65.8386073573896));
#1403=CARTESIAN_POINT('',(-12.,27.,64.8386073573896));
#1404=CARTESIAN_POINT('',(-26.3247561153864,27.,64.8386073573897));
#1405=CARTESIAN_POINT('',(-12.,27.,32.5643457375548));
#1406=CARTESIAN_POINT('',(-12.,27.,65.8386073573896));
#1407=CARTESIAN_POINT('',(-26.3247561153864,27.,32.5643457375548));
#1408=CARTESIAN_POINT('Origin',(-40.6495122307728,47.,65.8386073573896));
#1409=CARTESIAN_POINT('',(-40.6495122307728,110.,37.9452598852842));
#1410=CARTESIAN_POINT('',(-40.6495122307728,77.4810874917814,48.8547751495072));
#1411=CARTESIAN_POINT('',(-40.6495122307728,110.,5.05480797427577));
#1412=CARTESIAN_POINT('',(-40.6495122307728,41.0221296389609,28.1956534563369));
#1413=CARTESIAN_POINT('',(-40.6495122307728,110.,35.4467076658327));
#1414=CARTESIAN_POINT('Origin',(-40.6495122307728,110.,37.9452598852842));
#1415=CARTESIAN_POINT('',(-40.6495122307728,110.,37.9452598852842));
#1416=CARTESIAN_POINT('',(-40.6495122307728,47.,59.0806364595268));
#1417=CARTESIAN_POINT('Origin',(-40.6495122307728,47.,59.0806364595268));
#1418=CARTESIAN_POINT('',(-32.3048963544605,28.9334004049105,64.8386073573897));
#1419=CARTESIAN_POINT('Origin',(-20.6495122307728,47.,59.0806364595268));
#1420=CARTESIAN_POINT('',(-40.6495122307728,28.9334004049105,64.8386073573897));
#1421=CARTESIAN_POINT('Origin',(-40.6495122307728,28.9334004049105,64.8386073573897));
#1422=CARTESIAN_POINT('',(-20.6495122307728,25.5,64.8386073573897));
#1423=CARTESIAN_POINT('Origin',(-20.6495122307728,47.,64.8386073573897));
#1424=CARTESIAN_POINT('',(-12.,25.5,64.8386073573896));
#1425=CARTESIAN_POINT('',(-30.6495122307728,25.5,64.8386073573897));
#1426=CARTESIAN_POINT('',(-11.5,25.,64.8386073573896));
#1427=CARTESIAN_POINT('Origin',(-12.,25.,64.8386073573897));
#1428=CARTESIAN_POINT('',(-11.5,19.5,64.8386073573896));
#1429=CARTESIAN_POINT('',(-11.5,26.9667002024553,64.8386073573897));
#1430=CARTESIAN_POINT('',(-9.99999999999999,19.5,64.8386073573896));
#1431=CARTESIAN_POINT('',(-40.6495122307728,19.5,64.8386073573897));
#1432=CARTESIAN_POINT('',(-9.99999999999999,25.,64.8386073573896));
#1433=CARTESIAN_POINT('',(-9.99999999999999,24.2167002024553,64.8386073573896));
#1434=CARTESIAN_POINT('Origin',(-12.,25.,64.8386073573897));
#1435=CARTESIAN_POINT('Origin',(-11.5,19.5,65.8386073573896));
#1436=CARTESIAN_POINT('',(-9.99999999999999,19.5,65.8386073573896));
#1437=CARTESIAN_POINT('',(-11.5,19.5,63.1521156842859));
#1438=CARTESIAN_POINT('Origin',(-40.6495122307728,110.,5.05480797427577));
#1439=CARTESIAN_POINT('',(-40.6495122307728,110.,5.05480797427577));
#1440=CARTESIAN_POINT('Origin',(-40.6495122307728,47.,26.1901845485184));
#1441=CARTESIAN_POINT('',(-40.6495122307728,47.,26.1901845485184));
#1442=CARTESIAN_POINT('Origin',(-40.6495122307728,19.5,34.9546561834719));
#1443=CARTESIAN_POINT('',(-10.,25.,33.201761856466));
#1444=CARTESIAN_POINT('Origin',(-12.,25.,33.201761856466));
#1445=CARTESIAN_POINT('',(-9.99999999999999,15.0323215889383,36.3785413001331));
#1446=CARTESIAN_POINT('',(-11.5,25.,33.201761856466));
#1447=CARTESIAN_POINT('',(-11.5,17.5287475531054,35.5829102255188));
#1448=CARTESIAN_POINT('',(-12.,25.5,33.0424078267382));
#1449=CARTESIAN_POINT('Origin',(-12.,25.,33.201761856466));
#1450=CARTESIAN_POINT('',(-20.6495122307728,25.5,33.0424078267382));
#1451=CARTESIAN_POINT('',(-30.6495122307728,25.5,33.0424078267382));
#1452=CARTESIAN_POINT('Origin',(-20.6495122307728,47.,26.1901845484427));
#1453=CARTESIAN_POINT('Origin',(-9.99999999999999,19.5,65.8386073573896));
#1454=CARTESIAN_POINT('',(-9.99999999999999,25.,65.8386073573896));
#1455=CARTESIAN_POINT('Origin',(-20.6495122307728,47.,65.8386073573896));
#1456=CARTESIAN_POINT('',(-20.6495122307728,25.5,65.8386073573896));
#1457=CARTESIAN_POINT('Origin',(-12.,25.,65.8386073573896));
#1458=CARTESIAN_POINT('Origin',(-11.5,25.,65.8386073573896));
#1459=CARTESIAN_POINT('',(-11.5,25.,65.8386073573896));
#1460=CARTESIAN_POINT('Origin',(-12.,25.,65.8386073573896));
#1461=CARTESIAN_POINT('',(-12.,25.5,65.8386073573896));
#1462=CARTESIAN_POINT('Origin',(-20.6495122307728,25.5,65.8386073573896));
#1463=UNCERTAINTY_MEASURE_WITH_UNIT(LENGTH_MEASURE(0.01),#1467,
'DISTANCE_ACCURACY_VALUE',
'Maximum model space distance between geometric entities at asserted c
onnectivities');
#1464=UNCERTAINTY_MEASURE_WITH_UNIT(LENGTH_MEASURE(0.01),#1467,
'DISTANCE_ACCURACY_VALUE',
'Maximum model space distance between geometric entities at asserted c
onnectivities');
#1465=(
GEOMETRIC_REPRESENTATION_CONTEXT(3)
GLOBAL_UNCERTAINTY_ASSIGNED_CONTEXT((#1463))
GLOBAL_UNIT_ASSIGNED_CONTEXT((#1467,#1469,#1470))
REPRESENTATION_CONTEXT('','3D')
);
#1466=(
GEOMETRIC_REPRESENTATION_CONTEXT(3)
GLOBAL_UNCERTAINTY_ASSIGNED_CONTEXT((#1464))
GLOBAL_UNIT_ASSIGNED_CONTEXT((#1467,#1469,#1470))
REPRESENTATION_CONTEXT('','3D')
);
#1467=(
LENGTH_UNIT()
NAMED_UNIT(*)
SI_UNIT(.MILLI.,.METRE.)
);
#1468=(
LENGTH_UNIT()
NAMED_UNIT(*)
SI_UNIT(.CENTI.,.METRE.)
);
#1469=(
NAMED_UNIT(*)
PLANE_ANGLE_UNIT()
SI_UNIT($,.RADIAN.)
);
#1470=(
NAMED_UNIT(*)
SI_UNIT($,.STERADIAN.)
SOLID_ANGLE_UNIT()
);
#1471=SHAPE_DEFINITION_REPRESENTATION(#1472,#1473);
#1472=PRODUCT_DEFINITION_SHAPE('',$,#1475);
#1473=SHAPE_REPRESENTATION('',(#919),#1465);
#1474=PRODUCT_DEFINITION_CONTEXT('part definition',#1479,'design');
#1475=PRODUCT_DEFINITION('handle_monitor_case_side_left',
'handle_monitor_case_side_left',#1476,#1474);
#1476=PRODUCT_DEFINITION_FORMATION('',$,#1481);
#1477=PRODUCT_RELATED_PRODUCT_CATEGORY('handle_monitor_case_side_left',
'handle_monitor_case_side_left',(#1481));
#1478=APPLICATION_PROTOCOL_DEFINITION('international standard',
'automotive_design',2009,#1479);
#1479=APPLICATION_CONTEXT(
'Core Data for Automotive Mechanical Design Process');
#1480=PRODUCT_CONTEXT('part definition',#1479,'mechanical');
#1481=PRODUCT('handle_monitor_case_side_left',
'handle_monitor_case_side_left',$,(#1480));
#1482=PRESENTATION_STYLE_ASSIGNMENT((#1484));
#1483=PRESENTATION_STYLE_ASSIGNMENT((#1485));
#1484=SURFACE_STYLE_USAGE(.BOTH.,#1490);
#1485=SURFACE_STYLE_USAGE(.BOTH.,#1491);
#1486=SURFACE_STYLE_RENDERING_WITH_PROPERTIES($,#1498,(#1488));
#1487=SURFACE_STYLE_RENDERING_WITH_PROPERTIES($,#1499,(#1489));
#1488=SURFACE_STYLE_TRANSPARENT(0.);
#1489=SURFACE_STYLE_TRANSPARENT(0.);
#1490=SURFACE_SIDE_STYLE('',(#1492,#1486));
#1491=SURFACE_SIDE_STYLE('',(#1493,#1487));
#1492=SURFACE_STYLE_FILL_AREA(#1494);
#1493=SURFACE_STYLE_FILL_AREA(#1495);
#1494=FILL_AREA_STYLE('',(#1496));
#1495=FILL_AREA_STYLE('',(#1497));
#1496=FILL_AREA_STYLE_COLOUR('',#1498);
#1497=FILL_AREA_STYLE_COLOUR('',#1499);
#1498=COLOUR_RGB('',0.749019607843137,0.749019607843137,0.749019607843137);
#1499=COLOUR_RGB('',0.352941176470588,0.352941176470588,0.352941176470588);
ENDSEC;
END-ISO-10303-21;
