ISO-10303-21;
HEADER;
/* Generated by software containing ST-Developer
 * from STEP Tools, Inc. (www.steptools.com) 
 */

FILE_DESCRIPTION(
/* description */ (''),
/* implementation_level */ '2;1');

FILE_NAME(
/* name */ 'handle_inside_cover_left.stp',
/* time_stamp */ '2026-02-03T22:12:36+09:00',
/* author */ ('hibik'),
/* organization */ (''),
/* preprocessor_version */ 'ST-DEVELOPER v20.1',
/* originating_system */ 'Autodesk Inventor 2026',
/* authorisation */ '');

FILE_SCHEMA (('AUTOMOTIVE_DESIGN { 1 0 10303 214 3 1 1 }'));
ENDSEC;

DATA;
#10=MECHANICAL_DESIGN_GEOMETRIC_PRESENTATION_REPRESENTATION('',(#456,#457,
#458,#459,#460,#461,#462,#463,#464,#465,#466,#467,#468,#469,#470,#471,#472,
#473,#474,#475,#476,#477,#478,#479,#480,#481,#482,#483),#1040);
#11=SHAPE_REPRESENTATION_RELATIONSHIP('SRR','None',#1047,#12);
#12=ADVANCED_BREP_SHAPE_REPRESENTATION('',(#13),#1039);
#13=MANIFOLD_SOLID_BREP('\X2\30BD30EA30C330C9\X0\1',#511);
#14=(
BOUNDED_SURFACE()
B_SPLINE_SURFACE(1,2,((#894,#895,#896),(#897,#898,#899)),.UNSPECIFIED.,
 .F.,.F.,.F.)
B_SPLINE_SURFACE_WITH_KNOTS((2,2),(3,3),(1.83241945622547E-15,0.0205746669280223),
(2.30926655566725,2.88892948462702),.UNSPECIFIED.)
GEOMETRIC_REPRESENTATION_ITEM()
RATIONAL_B_SPLINE_SURFACE(((1.,0.95829205501037,1.),(1.,0.95829205501037,
1.)))
REPRESENTATION_ITEM('')
SURFACE()
);
#15=(
BOUNDED_SURFACE()
B_SPLINE_SURFACE(2,2,((#907,#908,#909,#910,#911),(#912,#913,#914,#915,#916),
(#917,#918,#919,#920,#921)),.UNSPECIFIED.,.F.,.F.,.F.)
B_SPLINE_SURFACE_WITH_KNOTS((3,3),(3,2,3),(-3.14159265358979,-1.5707963267949),
(-3.14159265358979,-2.34597859481693,-1.55036453604406),.UNSPECIFIED.)
GEOMETRIC_REPRESENTATION_ITEM()
RATIONAL_B_SPLINE_SURFACE(((1.,0.92191276155388,1.,0.92191276155388,1.),
(0.70710678118653,0.651890765357149,0.70710678118653,0.651890765357149,
0.70710678118653),(1.,0.92191276155388,1.,0.92191276155388,1.)))
REPRESENTATION_ITEM('')
SURFACE()
);
#16=FACE_BOUND('',#167,.T.);
#17=FACE_BOUND('',#168,.T.);
#18=FACE_BOUND('',#169,.T.);
#19=FACE_BOUND('',#180,.T.);
#20=FACE_BOUND('',#181,.T.);
#21=FACE_BOUND('',#182,.T.);
#22=PLANE('',#546);
#23=PLANE('',#547);
#24=PLANE('',#548);
#25=PLANE('',#549);
#26=PLANE('',#555);
#27=PLANE('',#564);
#28=PLANE('',#565);
#29=PLANE('',#566);
#30=PLANE('',#567);
#31=PLANE('',#568);
#32=PLANE('',#569);
#33=PLANE('',#570);
#34=PLANE('',#577);
#35=B_SPLINE_CURVE_WITH_KNOTS('',3,(#789,#790,#791,#792,#793,#794,#795,
#796,#797,#798,#799,#800,#801,#802,#803,#804,#805,#806),.UNSPECIFIED.,.F.,
 .F.,(4,2,2,2,2,2,2,2,4),(2.39473910076742,2.39875144119129,2.68806020759828,
2.97736897400526,3.26667774041224,3.55598650681923,3.84529527322621,4.13460403963319,
4.13861638005707),.UNSPECIFIED.);
#36=B_SPLINE_CURVE_WITH_KNOTS('',3,(#818,#819,#820,#821,#822,#823),
 .UNSPECIFIED.,.F.,.F.,(4,2,4),(3.29239278237957,3.50298079307598,3.68058625300565),
 .UNSPECIFIED.);
#37=B_SPLINE_CURVE_WITH_KNOTS('',3,(#829,#830,#831,#832,#833,#834,#835,
#836,#837,#838),.UNSPECIFIED.,.F.,.F.,(4,2,2,2,4),(-0.310255166462252,-0.272166659009566,
-0.23407815155688,-0.194732754037802,-0.155387356518725),.UNSPECIFIED.);
#38=B_SPLINE_CURVE_WITH_KNOTS('',3,(#872,#873,#874,#875,#876,#877,#878,
#879,#880,#881,#882,#883,#884),.UNSPECIFIED.,.F.,.F.,(4,3,3,3,4),(-20.0084811879236,
-19.306544717815,-18.4744742054466,-18.0972506658822,-17.9155131764771),
 .UNSPECIFIED.);
#39=B_SPLINE_CURVE_WITH_KNOTS('',3,(#922,#923,#924,#925,#926,#927,#928,
#929,#930,#931,#932,#933,#934,#935,#936,#937,#938,#939,#940,#941,#942,#943,
#944,#945,#946,#947,#948,#949,#950,#951,#952,#953,#954,#955,#956,#957,#958,
#959,#960,#961,#962,#963,#964),.UNSPECIFIED.,.F.,.F.,(4,3,3,3,3,3,3,3,3,
3,3,3,3,3,4),(-0.156604777639373,-0.148565694797081,-0.137178873857016,
-0.112718011046099,-0.110632563323332,-0.0839772496859029,-0.0794308733029117,
-0.0452751459638341,-0.0216945711337248,-0.0104320612399917,-0.00486067851392821,
-0.00208230360467762,-0.000694025624609104,0.,0.000693993478201048),
 .UNSPECIFIED.);
#40=B_SPLINE_CURVE_WITH_KNOTS('',3,(#990,#991,#992,#993,#994,#995,#996,
#997,#998,#999,#1000,#1001,#1002),.UNSPECIFIED.,.F.,.F.,(4,3,3,3,4),(-20.0084811879236,
-19.306544717815,-18.4744742054466,-18.0972506658822,-17.8213801095274),
 .UNSPECIFIED.);
#41=LINE('',#746,#80);
#42=LINE('',#749,#81);
#43=LINE('',#807,#82);
#44=LINE('',#808,#83);
#45=LINE('',#809,#84);
#46=LINE('',#812,#85);
#47=LINE('',#816,#86);
#48=LINE('',#824,#87);
#49=LINE('',#827,#88);
#50=LINE('',#839,#89);
#51=LINE('',#842,#90);
#52=LINE('',#844,#91);
#53=LINE('',#846,#92);
#54=LINE('',#847,#93);
#55=LINE('',#850,#94);
#56=LINE('',#851,#95);
#57=LINE('',#854,#96);
#58=LINE('',#855,#97);
#59=LINE('',#864,#98);
#60=LINE('',#868,#99);
#61=LINE('',#886,#100);
#62=LINE('',#901,#101);
#63=LINE('',#905,#102);
#64=LINE('',#967,#103);
#65=LINE('',#968,#104);
#66=LINE('',#971,#105);
#67=LINE('',#973,#106);
#68=LINE('',#975,#107);
#69=LINE('',#976,#108);
#70=LINE('',#979,#109);
#71=LINE('',#980,#110);
#72=LINE('',#982,#111);
#73=LINE('',#984,#112);
#74=LINE('',#985,#113);
#75=LINE('',#989,#114);
#76=LINE('',#1010,#115);
#77=LINE('',#1012,#116);
#78=LINE('',#1014,#117);
#79=LINE('',#1035,#118);
#80=VECTOR('',#588,10.);
#81=VECTOR('',#591,10.);
#82=VECTOR('',#600,10.);
#83=VECTOR('',#601,10.);
#84=VECTOR('',#602,10.);
#85=VECTOR('',#605,10.);
#86=VECTOR('',#608,10.);
#87=VECTOR('',#609,10.);
#88=VECTOR('',#612,10.);
#89=VECTOR('',#613,10.);
#90=VECTOR('',#616,10.);
#91=VECTOR('',#617,10.);
#92=VECTOR('',#618,10.);
#93=VECTOR('',#619,10.);
#94=VECTOR('',#622,10.);
#95=VECTOR('',#623,10.);
#96=VECTOR('',#626,10.);
#97=VECTOR('',#627,10.);
#98=VECTOR('',#638,10.);
#99=VECTOR('',#643,10.);
#100=VECTOR('',#646,10.);
#101=VECTOR('',#655,10.);
#102=VECTOR('',#660,10.);
#103=VECTOR('',#665,10.);
#104=VECTOR('',#666,10.);
#105=VECTOR('',#669,10.);
#106=VECTOR('',#670,10.);
#107=VECTOR('',#671,10.);
#108=VECTOR('',#672,10.);
#109=VECTOR('',#675,10.);
#110=VECTOR('',#676,10.);
#111=VECTOR('',#679,10.);
#112=VECTOR('',#682,10.);
#113=VECTOR('',#683,10.);
#114=VECTOR('',#688,10.);
#115=VECTOR('',#697,1.15);
#116=VECTOR('',#700,1.15);
#117=VECTOR('',#703,1.15);
#118=VECTOR('',#704,10.);
#119=CYLINDRICAL_SURFACE('',#537,4.);
#120=CYLINDRICAL_SURFACE('',#542,4.);
#121=CYLINDRICAL_SURFACE('',#543,4.);
#122=CYLINDRICAL_SURFACE('',#545,1.);
#123=CYLINDRICAL_SURFACE('',#551,15.);
#124=CYLINDRICAL_SURFACE('',#562,1.);
#125=CYLINDRICAL_SURFACE('',#574,1.15);
#126=CYLINDRICAL_SURFACE('',#575,1.15);
#127=CYLINDRICAL_SURFACE('',#576,1.15);
#128=FACE_OUTER_BOUND('',#155,.T.);
#129=FACE_OUTER_BOUND('',#156,.T.);
#130=FACE_OUTER_BOUND('',#157,.T.);
#131=FACE_OUTER_BOUND('',#158,.T.);
#132=FACE_OUTER_BOUND('',#159,.T.);
#133=FACE_OUTER_BOUND('',#160,.T.);
#134=FACE_OUTER_BOUND('',#161,.T.);
#135=FACE_OUTER_BOUND('',#162,.T.);
#136=FACE_OUTER_BOUND('',#163,.T.);
#137=FACE_OUTER_BOUND('',#164,.T.);
#138=FACE_OUTER_BOUND('',#165,.T.);
#139=FACE_OUTER_BOUND('',#166,.T.);
#140=FACE_OUTER_BOUND('',#170,.T.);
#141=FACE_OUTER_BOUND('',#171,.T.);
#142=FACE_OUTER_BOUND('',#172,.T.);
#143=FACE_OUTER_BOUND('',#173,.T.);
#144=FACE_OUTER_BOUND('',#174,.T.);
#145=FACE_OUTER_BOUND('',#175,.T.);
#146=FACE_OUTER_BOUND('',#176,.T.);
#147=FACE_OUTER_BOUND('',#177,.T.);
#148=FACE_OUTER_BOUND('',#178,.T.);
#149=FACE_OUTER_BOUND('',#179,.T.);
#150=FACE_OUTER_BOUND('',#183,.T.);
#151=FACE_OUTER_BOUND('',#184,.T.);
#152=FACE_OUTER_BOUND('',#185,.T.);
#153=FACE_OUTER_BOUND('',#186,.T.);
#154=FACE_OUTER_BOUND('',#187,.T.);
#155=EDGE_LOOP('',(#319,#320,#321));
#156=EDGE_LOOP('',(#322,#323,#324,#325));
#157=EDGE_LOOP('',(#326,#327,#328));
#158=EDGE_LOOP('',(#329,#330,#331,#332,#333,#334));
#159=EDGE_LOOP('',(#335,#336,#337,#338,#339,#340));
#160=EDGE_LOOP('',(#341,#342,#343,#344));
#161=EDGE_LOOP('',(#345,#346,#347,#348,#349,#350));
#162=EDGE_LOOP('',(#351,#352,#353,#354));
#163=EDGE_LOOP('',(#355,#356,#357,#358));
#164=EDGE_LOOP('',(#359,#360,#361));
#165=EDGE_LOOP('',(#362,#363,#364,#365,#366,#367,#368,#369));
#166=EDGE_LOOP('',(#370,#371,#372,#373,#374,#375,#376));
#167=EDGE_LOOP('',(#377));
#168=EDGE_LOOP('',(#378));
#169=EDGE_LOOP('',(#379));
#170=EDGE_LOOP('',(#380,#381,#382,#383,#384));
#171=EDGE_LOOP('',(#385,#386,#387,#388));
#172=EDGE_LOOP('',(#389,#390,#391));
#173=EDGE_LOOP('',(#392,#393,#394,#395,#396));
#174=EDGE_LOOP('',(#397,#398,#399,#400,#401,#402));
#175=EDGE_LOOP('',(#403,#404,#405,#406));
#176=EDGE_LOOP('',(#407,#408,#409,#410,#411));
#177=EDGE_LOOP('',(#412,#413,#414,#415,#416));
#178=EDGE_LOOP('',(#417,#418,#419,#420,#421));
#179=EDGE_LOOP('',(#422,#423,#424,#425,#426,#427,#428));
#180=EDGE_LOOP('',(#429));
#181=EDGE_LOOP('',(#430));
#182=EDGE_LOOP('',(#431));
#183=EDGE_LOOP('',(#432,#433,#434,#435));
#184=EDGE_LOOP('',(#436,#437,#438,#439));
#185=EDGE_LOOP('',(#440,#441,#442,#443));
#186=EDGE_LOOP('',(#444,#445,#446,#447,#448));
#187=EDGE_LOOP('',(#449,#450,#451,#452));
#188=ELLIPSE('',#535,5.,4.00000000000001);
#189=ELLIPSE('',#536,5.,4.);
#190=ELLIPSE('',#540,5.,4.);
#191=ELLIPSE('',#541,4.99999999999999,4.);
#192=ELLIPSE('',#557,72.9051899234993,58.2246735396486);
#193=ELLIPSE('',#561,72.9051899234993,58.2246735396486);
#194=CIRCLE('',#534,0.999999999999996);
#195=CIRCLE('',#538,4.);
#196=CIRCLE('',#539,1.);
#197=CIRCLE('',#544,4.);
#198=CIRCLE('',#550,15.);
#199=CIRCLE('',#552,15.);
#200=CIRCLE('',#553,15.);
#201=CIRCLE('',#554,15.);
#202=CIRCLE('',#556,1.);
#203=CIRCLE('',#558,1.15);
#204=CIRCLE('',#559,1.15);
#205=CIRCLE('',#560,1.15);
#206=CIRCLE('',#563,1.);
#207=CIRCLE('',#571,1.15);
#208=CIRCLE('',#572,1.15);
#209=CIRCLE('',#573,1.15);
#210=VERTEX_POINT('',#738);
#211=VERTEX_POINT('',#739);
#212=VERTEX_POINT('',#741);
#213=VERTEX_POINT('',#745);
#214=VERTEX_POINT('',#747);
#215=VERTEX_POINT('',#780);
#216=VERTEX_POINT('',#781);
#217=VERTEX_POINT('',#783);
#218=VERTEX_POINT('',#787);
#219=VERTEX_POINT('',#788);
#220=VERTEX_POINT('',#811);
#221=VERTEX_POINT('',#813);
#222=VERTEX_POINT('',#815);
#223=VERTEX_POINT('',#817);
#224=VERTEX_POINT('',#826);
#225=VERTEX_POINT('',#828);
#226=VERTEX_POINT('',#841);
#227=VERTEX_POINT('',#843);
#228=VERTEX_POINT('',#845);
#229=VERTEX_POINT('',#849);
#230=VERTEX_POINT('',#853);
#231=VERTEX_POINT('',#859);
#232=VERTEX_POINT('',#861);
#233=VERTEX_POINT('',#863);
#234=VERTEX_POINT('',#867);
#235=VERTEX_POINT('',#869);
#236=VERTEX_POINT('',#871);
#237=VERTEX_POINT('',#885);
#238=VERTEX_POINT('',#888);
#239=VERTEX_POINT('',#890);
#240=VERTEX_POINT('',#892);
#241=VERTEX_POINT('',#900);
#242=VERTEX_POINT('',#904);
#243=VERTEX_POINT('',#966);
#244=VERTEX_POINT('',#970);
#245=VERTEX_POINT('',#972);
#246=VERTEX_POINT('',#974);
#247=VERTEX_POINT('',#978);
#248=VERTEX_POINT('',#988);
#249=VERTEX_POINT('',#1003);
#250=VERTEX_POINT('',#1005);
#251=VERTEX_POINT('',#1007);
#252=EDGE_CURVE('',#210,#211,#194,.T.);
#253=EDGE_CURVE('',#212,#210,#188,.T.);
#254=EDGE_CURVE('',#211,#212,#189,.T.);
#255=EDGE_CURVE('',#213,#212,#41,.T.);
#256=EDGE_CURVE('',#214,#213,#195,.T.);
#257=EDGE_CURVE('',#211,#214,#42,.T.);
#258=EDGE_CURVE('',#215,#216,#196,.T.);
#259=EDGE_CURVE('',#217,#215,#190,.T.);
#260=EDGE_CURVE('',#216,#217,#191,.T.);
#261=EDGE_CURVE('',#218,#219,#35,.T.);
#262=EDGE_CURVE('',#212,#218,#43,.T.);
#263=EDGE_CURVE('',#216,#210,#44,.T.);
#264=EDGE_CURVE('',#219,#217,#45,.T.);
#265=EDGE_CURVE('',#220,#215,#46,.T.);
#266=EDGE_CURVE('',#221,#220,#197,.T.);
#267=EDGE_CURVE('',#222,#221,#47,.T.);
#268=EDGE_CURVE('',#223,#222,#36,.T.);
#269=EDGE_CURVE('',#217,#223,#48,.T.);
#270=EDGE_CURVE('',#224,#216,#49,.T.);
#271=EDGE_CURVE('',#225,#224,#37,.T.);
#272=EDGE_CURVE('',#215,#225,#50,.T.);
#273=EDGE_CURVE('',#226,#225,#51,.T.);
#274=EDGE_CURVE('',#227,#226,#52,.T.);
#275=EDGE_CURVE('',#227,#228,#53,.T.);
#276=EDGE_CURVE('',#228,#220,#54,.T.);
#277=EDGE_CURVE('',#229,#228,#55,.T.);
#278=EDGE_CURVE('',#221,#229,#56,.T.);
#279=EDGE_CURVE('',#230,#229,#57,.T.);
#280=EDGE_CURVE('',#222,#230,#58,.T.);
#281=EDGE_CURVE('',#219,#223,#198,.T.);
#282=EDGE_CURVE('',#231,#230,#199,.T.);
#283=EDGE_CURVE('',#232,#231,#200,.T.);
#284=EDGE_CURVE('',#232,#233,#59,.T.);
#285=EDGE_CURVE('',#233,#218,#201,.T.);
#286=EDGE_CURVE('',#210,#234,#60,.T.);
#287=EDGE_CURVE('',#234,#235,#202,.T.);
#288=EDGE_CURVE('',#236,#235,#38,.T.);
#289=EDGE_CURVE('',#237,#236,#61,.T.);
#290=EDGE_CURVE('',#224,#237,#192,.T.);
#291=EDGE_CURVE('',#238,#238,#203,.T.);
#292=EDGE_CURVE('',#239,#239,#204,.T.);
#293=EDGE_CURVE('',#240,#240,#205,.T.);
#294=EDGE_CURVE('',#241,#237,#62,.T.);
#295=EDGE_CURVE('',#226,#241,#193,.T.);
#296=EDGE_CURVE('',#242,#211,#63,.T.);
#297=EDGE_CURVE('',#234,#242,#206,.T.);
#298=EDGE_CURVE('',#235,#242,#39,.T.);
#299=EDGE_CURVE('',#233,#243,#64,.T.);
#300=EDGE_CURVE('',#243,#213,#65,.T.);
#301=EDGE_CURVE('',#214,#244,#66,.T.);
#302=EDGE_CURVE('',#245,#244,#67,.T.);
#303=EDGE_CURVE('',#245,#246,#68,.T.);
#304=EDGE_CURVE('',#246,#242,#69,.T.);
#305=EDGE_CURVE('',#232,#247,#70,.T.);
#306=EDGE_CURVE('',#247,#243,#71,.T.);
#307=EDGE_CURVE('',#227,#231,#72,.T.);
#308=EDGE_CURVE('',#231,#245,#73,.T.);
#309=EDGE_CURVE('',#244,#247,#74,.T.);
#310=EDGE_CURVE('',#241,#248,#75,.T.);
#311=EDGE_CURVE('',#248,#246,#40,.T.);
#312=EDGE_CURVE('',#249,#249,#207,.T.);
#313=EDGE_CURVE('',#250,#250,#208,.T.);
#314=EDGE_CURVE('',#251,#251,#209,.T.);
#315=EDGE_CURVE('',#240,#251,#76,.T.);
#316=EDGE_CURVE('',#239,#250,#77,.T.);
#317=EDGE_CURVE('',#238,#249,#78,.T.);
#318=EDGE_CURVE('',#248,#236,#79,.T.);
#319=ORIENTED_EDGE('',*,*,#252,.F.);
#320=ORIENTED_EDGE('',*,*,#253,.F.);
#321=ORIENTED_EDGE('',*,*,#254,.F.);
#322=ORIENTED_EDGE('',*,*,#254,.T.);
#323=ORIENTED_EDGE('',*,*,#255,.F.);
#324=ORIENTED_EDGE('',*,*,#256,.F.);
#325=ORIENTED_EDGE('',*,*,#257,.F.);
#326=ORIENTED_EDGE('',*,*,#258,.F.);
#327=ORIENTED_EDGE('',*,*,#259,.F.);
#328=ORIENTED_EDGE('',*,*,#260,.F.);
#329=ORIENTED_EDGE('',*,*,#261,.F.);
#330=ORIENTED_EDGE('',*,*,#262,.F.);
#331=ORIENTED_EDGE('',*,*,#253,.T.);
#332=ORIENTED_EDGE('',*,*,#263,.F.);
#333=ORIENTED_EDGE('',*,*,#260,.T.);
#334=ORIENTED_EDGE('',*,*,#264,.F.);
#335=ORIENTED_EDGE('',*,*,#259,.T.);
#336=ORIENTED_EDGE('',*,*,#265,.F.);
#337=ORIENTED_EDGE('',*,*,#266,.F.);
#338=ORIENTED_EDGE('',*,*,#267,.F.);
#339=ORIENTED_EDGE('',*,*,#268,.F.);
#340=ORIENTED_EDGE('',*,*,#269,.F.);
#341=ORIENTED_EDGE('',*,*,#258,.T.);
#342=ORIENTED_EDGE('',*,*,#270,.F.);
#343=ORIENTED_EDGE('',*,*,#271,.F.);
#344=ORIENTED_EDGE('',*,*,#272,.F.);
#345=ORIENTED_EDGE('',*,*,#265,.T.);
#346=ORIENTED_EDGE('',*,*,#272,.T.);
#347=ORIENTED_EDGE('',*,*,#273,.F.);
#348=ORIENTED_EDGE('',*,*,#274,.F.);
#349=ORIENTED_EDGE('',*,*,#275,.T.);
#350=ORIENTED_EDGE('',*,*,#276,.T.);
#351=ORIENTED_EDGE('',*,*,#266,.T.);
#352=ORIENTED_EDGE('',*,*,#276,.F.);
#353=ORIENTED_EDGE('',*,*,#277,.F.);
#354=ORIENTED_EDGE('',*,*,#278,.F.);
#355=ORIENTED_EDGE('',*,*,#267,.T.);
#356=ORIENTED_EDGE('',*,*,#278,.T.);
#357=ORIENTED_EDGE('',*,*,#279,.F.);
#358=ORIENTED_EDGE('',*,*,#280,.F.);
#359=ORIENTED_EDGE('',*,*,#269,.T.);
#360=ORIENTED_EDGE('',*,*,#281,.F.);
#361=ORIENTED_EDGE('',*,*,#264,.T.);
#362=ORIENTED_EDGE('',*,*,#268,.T.);
#363=ORIENTED_EDGE('',*,*,#280,.T.);
#364=ORIENTED_EDGE('',*,*,#282,.F.);
#365=ORIENTED_EDGE('',*,*,#283,.F.);
#366=ORIENTED_EDGE('',*,*,#284,.T.);
#367=ORIENTED_EDGE('',*,*,#285,.T.);
#368=ORIENTED_EDGE('',*,*,#261,.T.);
#369=ORIENTED_EDGE('',*,*,#281,.T.);
#370=ORIENTED_EDGE('',*,*,#263,.T.);
#371=ORIENTED_EDGE('',*,*,#286,.T.);
#372=ORIENTED_EDGE('',*,*,#287,.T.);
#373=ORIENTED_EDGE('',*,*,#288,.F.);
#374=ORIENTED_EDGE('',*,*,#289,.F.);
#375=ORIENTED_EDGE('',*,*,#290,.F.);
#376=ORIENTED_EDGE('',*,*,#270,.T.);
#377=ORIENTED_EDGE('',*,*,#291,.F.);
#378=ORIENTED_EDGE('',*,*,#292,.F.);
#379=ORIENTED_EDGE('',*,*,#293,.F.);
#380=ORIENTED_EDGE('',*,*,#271,.T.);
#381=ORIENTED_EDGE('',*,*,#290,.T.);
#382=ORIENTED_EDGE('',*,*,#294,.F.);
#383=ORIENTED_EDGE('',*,*,#295,.F.);
#384=ORIENTED_EDGE('',*,*,#273,.T.);
#385=ORIENTED_EDGE('',*,*,#252,.T.);
#386=ORIENTED_EDGE('',*,*,#296,.F.);
#387=ORIENTED_EDGE('',*,*,#297,.F.);
#388=ORIENTED_EDGE('',*,*,#286,.F.);
#389=ORIENTED_EDGE('',*,*,#298,.F.);
#390=ORIENTED_EDGE('',*,*,#287,.F.);
#391=ORIENTED_EDGE('',*,*,#297,.T.);
#392=ORIENTED_EDGE('',*,*,#255,.T.);
#393=ORIENTED_EDGE('',*,*,#262,.T.);
#394=ORIENTED_EDGE('',*,*,#285,.F.);
#395=ORIENTED_EDGE('',*,*,#299,.T.);
#396=ORIENTED_EDGE('',*,*,#300,.T.);
#397=ORIENTED_EDGE('',*,*,#257,.T.);
#398=ORIENTED_EDGE('',*,*,#301,.T.);
#399=ORIENTED_EDGE('',*,*,#302,.F.);
#400=ORIENTED_EDGE('',*,*,#303,.T.);
#401=ORIENTED_EDGE('',*,*,#304,.T.);
#402=ORIENTED_EDGE('',*,*,#296,.T.);
#403=ORIENTED_EDGE('',*,*,#284,.F.);
#404=ORIENTED_EDGE('',*,*,#305,.T.);
#405=ORIENTED_EDGE('',*,*,#306,.T.);
#406=ORIENTED_EDGE('',*,*,#299,.F.);
#407=ORIENTED_EDGE('',*,*,#307,.T.);
#408=ORIENTED_EDGE('',*,*,#282,.T.);
#409=ORIENTED_EDGE('',*,*,#279,.T.);
#410=ORIENTED_EDGE('',*,*,#277,.T.);
#411=ORIENTED_EDGE('',*,*,#275,.F.);
#412=ORIENTED_EDGE('',*,*,#308,.T.);
#413=ORIENTED_EDGE('',*,*,#302,.T.);
#414=ORIENTED_EDGE('',*,*,#309,.T.);
#415=ORIENTED_EDGE('',*,*,#305,.F.);
#416=ORIENTED_EDGE('',*,*,#283,.T.);
#417=ORIENTED_EDGE('',*,*,#256,.T.);
#418=ORIENTED_EDGE('',*,*,#300,.F.);
#419=ORIENTED_EDGE('',*,*,#306,.F.);
#420=ORIENTED_EDGE('',*,*,#309,.F.);
#421=ORIENTED_EDGE('',*,*,#301,.F.);
#422=ORIENTED_EDGE('',*,*,#308,.F.);
#423=ORIENTED_EDGE('',*,*,#307,.F.);
#424=ORIENTED_EDGE('',*,*,#274,.T.);
#425=ORIENTED_EDGE('',*,*,#295,.T.);
#426=ORIENTED_EDGE('',*,*,#310,.T.);
#427=ORIENTED_EDGE('',*,*,#311,.T.);
#428=ORIENTED_EDGE('',*,*,#303,.F.);
#429=ORIENTED_EDGE('',*,*,#312,.F.);
#430=ORIENTED_EDGE('',*,*,#313,.F.);
#431=ORIENTED_EDGE('',*,*,#314,.F.);
#432=ORIENTED_EDGE('',*,*,#293,.T.);
#433=ORIENTED_EDGE('',*,*,#315,.T.);
#434=ORIENTED_EDGE('',*,*,#314,.T.);
#435=ORIENTED_EDGE('',*,*,#315,.F.);
#436=ORIENTED_EDGE('',*,*,#292,.T.);
#437=ORIENTED_EDGE('',*,*,#316,.T.);
#438=ORIENTED_EDGE('',*,*,#313,.T.);
#439=ORIENTED_EDGE('',*,*,#316,.F.);
#440=ORIENTED_EDGE('',*,*,#291,.T.);
#441=ORIENTED_EDGE('',*,*,#317,.T.);
#442=ORIENTED_EDGE('',*,*,#312,.T.);
#443=ORIENTED_EDGE('',*,*,#317,.F.);
#444=ORIENTED_EDGE('',*,*,#298,.T.);
#445=ORIENTED_EDGE('',*,*,#304,.F.);
#446=ORIENTED_EDGE('',*,*,#311,.F.);
#447=ORIENTED_EDGE('',*,*,#318,.T.);
#448=ORIENTED_EDGE('',*,*,#288,.T.);
#449=ORIENTED_EDGE('',*,*,#310,.F.);
#450=ORIENTED_EDGE('',*,*,#294,.T.);
#451=ORIENTED_EDGE('',*,*,#289,.T.);
#452=ORIENTED_EDGE('',*,*,#318,.F.);
#453=B_SPLINE_SURFACE_WITH_KNOTS('',3,3,((#708,#709,#710,#711,#712,#713),
(#714,#715,#716,#717,#718,#719),(#720,#721,#722,#723,#724,#725),(#726,#727,
#728,#729,#730,#731),(#732,#733,#734,#735,#736,#737)),.UNSPECIFIED.,.F.,
 .F.,.F.,(4,1,4),(4,1,1,4),(0.,0.571428571428571,1.),(-1.5707963267949,
-0.897597901025657,-0.448798950512831,-4.14069600220048E-15),
 .UNSPECIFIED.);
#454=B_SPLINE_SURFACE_WITH_KNOTS('',3,3,((#750,#751,#752,#753,#754,#755),
(#756,#757,#758,#759,#760,#761),(#762,#763,#764,#765,#766,#767),(#768,#769,
#770,#771,#772,#773),(#774,#775,#776,#777,#778,#779)),.UNSPECIFIED.,.F.,
 .F.,.F.,(4,1,4),(4,1,1,4),(0.,0.571428571428571,1.),(-1.5707963267949,
-0.673198425769243,-0.44879895051283,-3.30489958199147E-15),
 .UNSPECIFIED.);
#455=B_SPLINE_SURFACE_WITH_KNOTS('',3,1,((#1015,#1016),(#1017,#1018),(#1019,
#1020),(#1021,#1022),(#1023,#1024),(#1025,#1026),(#1027,#1028),(#1029,#1030),
(#1031,#1032),(#1033,#1034)),.UNSPECIFIED.,.F.,.F.,.F.,(4,2,2,2,4),(2,2),
(-20.0084811879236,-19.306544717815,-18.4744742054466,-18.0972506658822,
-17.8213801095274),(0.,0.15),.UNSPECIFIED.);
#456=STYLED_ITEM('',(#1057),#484);
#457=STYLED_ITEM('',(#1057),#485);
#458=STYLED_ITEM('',(#1057),#486);
#459=STYLED_ITEM('',(#1057),#487);
#460=STYLED_ITEM('',(#1057),#488);
#461=STYLED_ITEM('',(#1057),#489);
#462=STYLED_ITEM('',(#1057),#490);
#463=STYLED_ITEM('',(#1057),#491);
#464=STYLED_ITEM('',(#1057),#492);
#465=STYLED_ITEM('',(#1057),#493);
#466=STYLED_ITEM('',(#1057),#494);
#467=STYLED_ITEM('',(#1057),#495);
#468=STYLED_ITEM('',(#1057),#496);
#469=STYLED_ITEM('',(#1057),#497);
#470=STYLED_ITEM('',(#1057),#498);
#471=STYLED_ITEM('',(#1057),#499);
#472=STYLED_ITEM('',(#1057),#500);
#473=STYLED_ITEM('',(#1057),#501);
#474=STYLED_ITEM('',(#1057),#502);
#475=STYLED_ITEM('',(#1057),#503);
#476=STYLED_ITEM('',(#1057),#504);
#477=STYLED_ITEM('',(#1057),#505);
#478=STYLED_ITEM('',(#1057),#506);
#479=STYLED_ITEM('',(#1057),#507);
#480=STYLED_ITEM('',(#1057),#508);
#481=STYLED_ITEM('',(#1057),#509);
#482=STYLED_ITEM('',(#1057),#510);
#483=STYLED_ITEM('',(#1056),#13);
#484=ADVANCED_FACE('',(#128),#453,.T.);
#485=ADVANCED_FACE('',(#129),#119,.T.);
#486=ADVANCED_FACE('',(#130),#454,.T.);
#487=ADVANCED_FACE('',(#131),#120,.T.);
#488=ADVANCED_FACE('',(#132),#121,.T.);
#489=ADVANCED_FACE('',(#133),#122,.T.);
#490=ADVANCED_FACE('',(#134),#22,.F.);
#491=ADVANCED_FACE('',(#135),#23,.F.);
#492=ADVANCED_FACE('',(#136),#24,.F.);
#493=ADVANCED_FACE('',(#137),#25,.F.);
#494=ADVANCED_FACE('',(#138),#123,.F.);
#495=ADVANCED_FACE('',(#139,#16,#17,#18),#26,.F.);
#496=ADVANCED_FACE('',(#140),#14,.F.);
#497=ADVANCED_FACE('',(#141),#124,.T.);
#498=ADVANCED_FACE('',(#142),#15,.F.);
#499=ADVANCED_FACE('',(#143),#27,.F.);
#500=ADVANCED_FACE('',(#144),#28,.F.);
#501=ADVANCED_FACE('',(#145),#29,.F.);
#502=ADVANCED_FACE('',(#146),#30,.F.);
#503=ADVANCED_FACE('',(#147),#31,.F.);
#504=ADVANCED_FACE('',(#148),#32,.F.);
#505=ADVANCED_FACE('',(#149,#19,#20,#21),#33,.T.);
#506=ADVANCED_FACE('',(#150),#125,.F.);
#507=ADVANCED_FACE('',(#151),#126,.F.);
#508=ADVANCED_FACE('',(#152),#127,.F.);
#509=ADVANCED_FACE('',(#153),#455,.F.);
#510=ADVANCED_FACE('',(#154),#34,.F.);
#511=CLOSED_SHELL('',(#484,#485,#486,#487,#488,#489,#490,#491,#492,#493,
#494,#495,#496,#497,#498,#499,#500,#501,#502,#503,#504,#505,#506,#507,#508,
#509,#510));
#512=DERIVED_UNIT_ELEMENT(#515,1.);
#513=DERIVED_UNIT_ELEMENT(#1042,-3.);
#514=DIMENSIONAL_EXPONENTS(0.,1.,0.,0.,0.,0.,0.);
#515=(
CONVERSION_BASED_UNIT('gram',#517)
MASS_UNIT()
NAMED_UNIT(#514)
);
#516=(
MASS_UNIT()
NAMED_UNIT(*)
SI_UNIT(.KILO.,.GRAM.)
);
#517=MASS_MEASURE_WITH_UNIT(MASS_MEASURE(0.001),#516);
#518=DERIVED_UNIT((#512,#513));
#519=MEASURE_REPRESENTATION_ITEM('density measure',
POSITIVE_RATIO_MEASURE(1.),#518);
#520=PROPERTY_DEFINITION_REPRESENTATION(#525,#522);
#521=PROPERTY_DEFINITION_REPRESENTATION(#526,#523);
#522=REPRESENTATION('material name',(#524),#1039);
#523=REPRESENTATION('density',(#519),#1039);
#524=DESCRIPTIVE_REPRESENTATION_ITEM('\X2\4E00822C\X0\','\X2\4E00822C\X0\');
#525=PROPERTY_DEFINITION('material property','material name',#1049);
#526=PROPERTY_DEFINITION('material property','density of part',#1049);
#527=DATE_TIME_ROLE('creation_date');
#528=APPLIED_DATE_AND_TIME_ASSIGNMENT(#529,#527,(#1049));
#529=DATE_AND_TIME(#530,#531);
#530=CALENDAR_DATE(2026,20,1);
#531=LOCAL_TIME(0,0,0.,#532);
#532=COORDINATED_UNIVERSAL_TIME_OFFSET(0,0,.BEHIND.);
#533=AXIS2_PLACEMENT_3D('',#707,#578,#579);
#534=AXIS2_PLACEMENT_3D('',#740,#580,#581);
#535=AXIS2_PLACEMENT_3D('',#742,#582,#583);
#536=AXIS2_PLACEMENT_3D('',#743,#584,#585);
#537=AXIS2_PLACEMENT_3D('',#744,#586,#587);
#538=AXIS2_PLACEMENT_3D('',#748,#589,#590);
#539=AXIS2_PLACEMENT_3D('',#782,#592,#593);
#540=AXIS2_PLACEMENT_3D('',#784,#594,#595);
#541=AXIS2_PLACEMENT_3D('',#785,#596,#597);
#542=AXIS2_PLACEMENT_3D('',#786,#598,#599);
#543=AXIS2_PLACEMENT_3D('',#810,#603,#604);
#544=AXIS2_PLACEMENT_3D('',#814,#606,#607);
#545=AXIS2_PLACEMENT_3D('',#825,#610,#611);
#546=AXIS2_PLACEMENT_3D('',#840,#614,#615);
#547=AXIS2_PLACEMENT_3D('',#848,#620,#621);
#548=AXIS2_PLACEMENT_3D('',#852,#624,#625);
#549=AXIS2_PLACEMENT_3D('',#856,#628,#629);
#550=AXIS2_PLACEMENT_3D('',#857,#630,#631);
#551=AXIS2_PLACEMENT_3D('',#858,#632,#633);
#552=AXIS2_PLACEMENT_3D('',#860,#634,#635);
#553=AXIS2_PLACEMENT_3D('',#862,#636,#637);
#554=AXIS2_PLACEMENT_3D('',#865,#639,#640);
#555=AXIS2_PLACEMENT_3D('',#866,#641,#642);
#556=AXIS2_PLACEMENT_3D('',#870,#644,#645);
#557=AXIS2_PLACEMENT_3D('',#887,#647,#648);
#558=AXIS2_PLACEMENT_3D('',#889,#649,#650);
#559=AXIS2_PLACEMENT_3D('',#891,#651,#652);
#560=AXIS2_PLACEMENT_3D('',#893,#653,#654);
#561=AXIS2_PLACEMENT_3D('',#902,#656,#657);
#562=AXIS2_PLACEMENT_3D('',#903,#658,#659);
#563=AXIS2_PLACEMENT_3D('',#906,#661,#662);
#564=AXIS2_PLACEMENT_3D('',#965,#663,#664);
#565=AXIS2_PLACEMENT_3D('',#969,#667,#668);
#566=AXIS2_PLACEMENT_3D('',#977,#673,#674);
#567=AXIS2_PLACEMENT_3D('',#981,#677,#678);
#568=AXIS2_PLACEMENT_3D('',#983,#680,#681);
#569=AXIS2_PLACEMENT_3D('',#986,#684,#685);
#570=AXIS2_PLACEMENT_3D('',#987,#686,#687);
#571=AXIS2_PLACEMENT_3D('',#1004,#689,#690);
#572=AXIS2_PLACEMENT_3D('',#1006,#691,#692);
#573=AXIS2_PLACEMENT_3D('',#1008,#693,#694);
#574=AXIS2_PLACEMENT_3D('',#1009,#695,#696);
#575=AXIS2_PLACEMENT_3D('',#1011,#698,#699);
#576=AXIS2_PLACEMENT_3D('',#1013,#701,#702);
#577=AXIS2_PLACEMENT_3D('',#1036,#705,#706);
#578=DIRECTION('axis',(0.,0.,1.));
#579=DIRECTION('refdir',(1.,0.,0.));
#580=DIRECTION('center_axis',(-0.601815023152031,-0.798635510047306,1.95318076667541E-14));
#581=DIRECTION('ref_axis',(0.798635510047306,-0.601815023152031,0.));
#582=DIRECTION('center_axis',(0.479181306028375,-0.361089013891231,-0.8));
#583=DIRECTION('ref_axis',(0.638908408037835,-0.481452018521637,0.600000000000001));
#584=DIRECTION('center_axis',(-0.638908408037833,0.481452018521639,0.600000000000001));
#585=DIRECTION('ref_axis',(0.479181306028378,-0.361089013891227,0.799999999999999));
#586=DIRECTION('center_axis',(0.798635510047293,-0.601815023152048,2.39837784854865E-16));
#587=DIRECTION('ref_axis',(0.425547483890754,0.564720584850819,0.707106781186546));
#588=DIRECTION('',(0.798635510047293,-0.601815023152048,2.39837784854865E-16));
#589=DIRECTION('center_axis',(-0.798635510047293,0.601815023152048,-1.70803542250024E-16));
#590=DIRECTION('ref_axis',(0.425547483890754,0.564720584850819,0.707106781186546));
#591=DIRECTION('',(-0.798635510047293,0.601815023152048,-2.39837784854865E-16));
#592=DIRECTION('center_axis',(-0.60181502315205,-0.798635510047291,5.34519116214981E-15));
#593=DIRECTION('ref_axis',(-8.88178419700123E-15,0.,-1.));
#594=DIRECTION('center_axis',(-0.638908408037837,0.481452018521636,-0.599999999999999));
#595=DIRECTION('ref_axis',(0.479181306028373,-0.361089013891231,-0.8));
#596=DIRECTION('center_axis',(0.479181306028378,-0.361089013891227,0.8));
#597=DIRECTION('ref_axis',(0.638908408037832,-0.481452018521641,-0.6));
#598=DIRECTION('center_axis',(1.40360750140545E-15,2.26152382704455E-15,
1.));
#599=DIRECTION('ref_axis',(0.99026806874157,0.139173100960068,-1.57009245868378E-15));
#600=DIRECTION('',(-1.40360750140545E-15,-2.26152382704455E-15,-1.));
#601=DIRECTION('',(1.40360750140545E-15,2.26152382704455E-15,1.));
#602=DIRECTION('',(-1.40360750140545E-15,-2.26152382704455E-15,-1.));
#603=DIRECTION('center_axis',(0.798635510047293,-0.601815023152048,2.7755575615629E-16));
#604=DIRECTION('ref_axis',(0.42554748389075,0.564720584850818,-0.707106781186549));
#605=DIRECTION('',(0.798635510047293,-0.601815023152048,2.7755575615629E-16));
#606=DIRECTION('center_axis',(-0.798635510047293,0.601815023152048,-2.34854870593783E-16));
#607=DIRECTION('ref_axis',(0.42554748389075,0.564720584850818,-0.707106781186549));
#608=DIRECTION('',(-0.798635510047293,0.601815023152048,-2.7755575615629E-16));
#609=DIRECTION('',(-0.798635510047293,0.601815023152048,-2.7755575615629E-16));
#610=DIRECTION('center_axis',(0.601815023152048,0.798635510047293,-3.55941022987177E-16));
#611=DIRECTION('ref_axis',(0.564720584850819,-0.425547483890751,-0.707106781186547));
#612=DIRECTION('',(0.601815023152048,0.798635510047293,-3.55941022987177E-16));
#613=DIRECTION('',(-0.601815023152048,-0.798635510047293,3.55941022987177E-16));
#614=DIRECTION('center_axis',(-7.45522789464899E-18,4.51304364257302E-16,
1.));
#615=DIRECTION('ref_axis',(-0.601815023152048,-0.798635510047293,3.55941022987177E-16));
#616=DIRECTION('',(0.798635510047294,-0.601815023152046,2.77555756156289E-16));
#617=DIRECTION('',(-0.601815023152048,-0.798635510047293,3.55941022987177E-16));
#618=DIRECTION('',(-0.798635510047293,0.601815023152048,-2.34854870593783E-16));
#619=DIRECTION('',(0.601815023152048,0.798635510047293,-2.05355864012606E-15));
#620=DIRECTION('center_axis',(0.798635510047293,-0.601815023152048,2.34854870593783E-16));
#621=DIRECTION('ref_axis',(2.94070157962142E-16,0.,-1.));
#622=DIRECTION('',(-1.40360750140545E-15,-2.26152382704455E-15,-1.));
#623=DIRECTION('',(-0.601815023152048,-0.798635510047293,2.65084531605054E-15));
#624=DIRECTION('center_axis',(-1.4077550958877E-15,-2.25839839042427E-15,
-1.));
#625=DIRECTION('ref_axis',(-0.601815023152048,-0.798635510047293,2.65084531605054E-15));
#626=DIRECTION('',(-0.798635510047293,0.601815023152048,-2.34854870593783E-16));
#627=DIRECTION('',(-0.601815023152048,-0.798635510047293,2.64826858819967E-15));
#628=DIRECTION('center_axis',(-0.601815023152048,-0.798635510047293,2.65084531605054E-15));
#629=DIRECTION('ref_axis',(1.40360750140545E-15,2.26152382704455E-15,1.));
#630=DIRECTION('center_axis',(0.601815023152048,0.798635510047293,-2.65084531605054E-15));
#631=DIRECTION('ref_axis',(-0.798635510047293,0.601815023152048,-5.76104740626117E-18));
#632=DIRECTION('center_axis',(0.601815023152048,0.798635510047293,-2.64826858819967E-15));
#633=DIRECTION('ref_axis',(0.794954192704429,-0.59904095155862,-0.0959050043396712));
#634=DIRECTION('center_axis',(0.601815023152048,0.798635510047293,-2.65084531605054E-15));
#635=DIRECTION('ref_axis',(-0.798635510047293,0.601815023152048,-5.76104740626136E-18));
#636=DIRECTION('center_axis',(0.601815023152048,0.798635510047293,-2.65084531605054E-15));
#637=DIRECTION('ref_axis',(-0.798635510047293,0.601815023152048,-5.76104740626136E-18));
#638=DIRECTION('',(0.601815023152048,0.798635510047293,-2.64826858819967E-15));
#639=DIRECTION('center_axis',(0.601815023152048,0.798635510047293,-2.65084531605054E-15));
#640=DIRECTION('ref_axis',(-0.798635510047293,0.601815023152048,-5.76104740626117E-18));
#641=DIRECTION('center_axis',(-0.798635510047293,0.601815023152048,-2.40048221540574E-16));
#642=DIRECTION('ref_axis',(-3.00572937867938E-16,0.,1.));
#643=DIRECTION('',(-0.601815023152048,-0.798635510047293,2.82164885830057E-15));
#644=DIRECTION('center_axis',(-0.798635510047293,0.601815023152048,-2.40048221540574E-16));
#645=DIRECTION('ref_axis',(-5.96744875736021E-15,-7.4940054162198E-15,1.));
#646=DIRECTION('',(2.15794722841323E-16,6.8524303019647E-16,1.));
#647=DIRECTION('center_axis',(0.798635510047293,-0.601815023152048,2.40048221540574E-16));
#648=DIRECTION('ref_axis',(-0.601815023152048,-0.798635510047293,3.35022877896388E-16));
#649=DIRECTION('center_axis',(0.798635510047293,-0.601815023152048,2.40048221540574E-16));
#650=DIRECTION('ref_axis',(1.4098033919356E-15,2.25685488864156E-15,1.));
#651=DIRECTION('center_axis',(0.798635510047293,-0.601815023152048,2.40048221540574E-16));
#652=DIRECTION('ref_axis',(1.4098033919356E-15,2.25685488864156E-15,1.));
#653=DIRECTION('center_axis',(0.798635510047293,-0.601815023152048,2.40048221540574E-16));
#654=DIRECTION('ref_axis',(1.4098033919356E-15,2.25685488864156E-15,1.));
#655=DIRECTION('',(0.798635510047294,-0.601815023152046,2.77555756156289E-16));
#656=DIRECTION('center_axis',(0.798635510047293,-0.601815023152048,2.40048221540574E-16));
#657=DIRECTION('ref_axis',(-0.601815023152048,-0.798635510047293,3.35022877896388E-16));
#658=DIRECTION('center_axis',(-0.601815023152048,-0.798635510047293,2.82164885830057E-15));
#659=DIRECTION('ref_axis',(0.56472058485082,-0.425547483890752,0.707106781186547));
#660=DIRECTION('',(0.601815023152048,0.798635510047293,-2.82164885830057E-15));
#661=DIRECTION('center_axis',(-0.601815023152046,-0.798635510047294,0.));
#662=DIRECTION('ref_axis',(0.798635510047294,-0.601815023152046,0.));
#663=DIRECTION('center_axis',(-0.601815023152048,-0.798635510047293,2.65084531605054E-15));
#664=DIRECTION('ref_axis',(1.40360750140545E-15,2.26152382704455E-15,1.));
#665=DIRECTION('',(-0.798635510047293,0.601815023152048,-1.70803542250024E-16));
#666=DIRECTION('',(1.70898168580488E-15,2.66676905710836E-15,1.));
#667=DIRECTION('center_axis',(-1.50656770134893E-15,-2.3978069571684E-15,
-1.));
#668=DIRECTION('ref_axis',(-0.601815023152048,-0.798635510047293,2.82164885830057E-15));
#669=DIRECTION('',(-0.601815023152048,-0.798635510047293,2.65084531605054E-15));
#670=DIRECTION('',(-0.798635510047293,0.601815023152048,-1.70803542250024E-16));
#671=DIRECTION('',(-0.601815023152048,-0.798635510047293,2.82164885830057E-15));
#672=DIRECTION('',(0.798635510047294,-0.601815023152046,2.77555756156289E-16));
#673=DIRECTION('center_axis',(1.45890876116872E-15,2.21985133877415E-15,
1.));
#674=DIRECTION('ref_axis',(0.601815023152048,0.798635510047293,-2.65084531605054E-15));
#675=DIRECTION('',(-0.798635510047293,0.601815023152048,-1.70803542250024E-16));
#676=DIRECTION('',(0.601815023152048,0.798635510047293,-2.65084531605054E-15));
#677=DIRECTION('center_axis',(0.601815023152048,0.798635510047293,-2.65084531605054E-15));
#678=DIRECTION('ref_axis',(-1.40360750140545E-15,-2.26152382704455E-15,
-1.));
#679=DIRECTION('',(1.40360750140545E-15,2.26152382704455E-15,1.));
#680=DIRECTION('center_axis',(0.601815023152048,0.798635510047293,-2.65084531605054E-15));
#681=DIRECTION('ref_axis',(-1.40360750140545E-15,-2.26152382704455E-15,
-1.));
#682=DIRECTION('',(1.40360750140545E-15,2.26152382704455E-15,1.));
#683=DIRECTION('',(-1.40360750140545E-15,-2.26152382704455E-15,-1.));
#684=DIRECTION('center_axis',(0.798635510047293,-0.601815023152048,1.70803542250024E-16));
#685=DIRECTION('ref_axis',(2.13869205790649E-16,0.,-1.));
#686=DIRECTION('center_axis',(-0.798635510047293,0.601815023152048,-2.40048221540574E-16));
#687=DIRECTION('ref_axis',(-3.00572937867938E-16,0.,1.));
#688=DIRECTION('',(2.15794722841323E-16,6.8524303019647E-16,1.));
#689=DIRECTION('center_axis',(-0.798635510047293,0.601815023152048,-2.40048221540574E-16));
#690=DIRECTION('ref_axis',(1.4098033919356E-15,2.25685488864156E-15,1.));
#691=DIRECTION('center_axis',(-0.798635510047293,0.601815023152048,-2.40048221540574E-16));
#692=DIRECTION('ref_axis',(1.4098033919356E-15,2.25685488864156E-15,1.));
#693=DIRECTION('center_axis',(-0.798635510047293,0.601815023152048,-2.40048221540574E-16));
#694=DIRECTION('ref_axis',(1.4098033919356E-15,2.25685488864156E-15,1.));
#695=DIRECTION('center_axis',(0.798635510047293,-0.601815023152048,2.32290126073743E-16));
#696=DIRECTION('ref_axis',(1.4098033919356E-15,2.25685488864156E-15,1.));
#697=DIRECTION('',(-0.798635510047293,0.601815023152048,-2.32290126073743E-16));
#698=DIRECTION('center_axis',(0.798635510047293,-0.601815023152048,2.32290126073743E-16));
#699=DIRECTION('ref_axis',(1.4098033919356E-15,2.25685488864156E-15,1.));
#700=DIRECTION('',(-0.798635510047293,0.601815023152048,-2.32290126073743E-16));
#701=DIRECTION('center_axis',(0.798635510047293,-0.601815023152048,2.32290126073743E-16));
#702=DIRECTION('ref_axis',(1.4098033919356E-15,2.25685488864156E-15,1.));
#703=DIRECTION('',(-0.798635510047293,0.601815023152048,-2.32290126073743E-16));
#704=DIRECTION('',(0.798635510047294,-0.601815023152046,2.77555756156289E-16));
#705=DIRECTION('center_axis',(0.601815023152046,0.798635510047294,-6.77127923050152E-16));
#706=DIRECTION('ref_axis',(2.15794722841323E-16,6.8524303019647E-16,1.));
#707=CARTESIAN_POINT('',(0.,0.,0.));
#708=CARTESIAN_POINT('Ctrl Pts',(50.7400637834776,88.1048406565844,32.0074854733525));
#709=CARTESIAN_POINT('Ctrl Pts',(51.4569173409806,87.5646527549975,32.6806838991218));
#710=CARTESIAN_POINT('Ctrl Pts',(52.331458936528,86.2486160540276,33.7985218722822));
#711=CARTESIAN_POINT('Ctrl Pts',(52.387736196501,84.0997281277413,34.8021554137811));
#712=CARTESIAN_POINT('Ctrl Pts',(51.8874709987833,82.9809408954557,35.0074854733525));
#713=CARTESIAN_POINT('Ctrl Pts',(51.5273457310586,82.5030385237871,35.0074854733525));
#714=CARTESIAN_POINT('Ctrl Pts',(50.7400637834776,88.1048406565844,32.0074854733525));
#715=CARTESIAN_POINT('Ctrl Pts',(51.42278145729,87.5903759884064,32.7234266563135));
#716=CARTESIAN_POINT('Ctrl Pts',(52.2772078828854,86.3645064348407,33.9113649872419));
#717=CARTESIAN_POINT('Ctrl Pts',(52.4217098921241,84.2291310162297,35.0483072814441));
#718=CARTESIAN_POINT('Ctrl Pts',(51.9148127452756,83.0172246185524,35.3066847736944));
#719=CARTESIAN_POINT('Ctrl Pts',(51.5273457310586,82.5030385237871,35.3066847736944));
#720=CARTESIAN_POINT('Ctrl Pts',(50.7400637834776,88.1048406565844,32.0074854733525));
#721=CARTESIAN_POINT('Ctrl Pts',(51.3630436608314,87.635391646872,32.7982264813989));
#722=CARTESIAN_POINT('Ctrl Pts',(52.1442828402147,86.519591587596,34.1117874376797));
#723=CARTESIAN_POINT('Ctrl Pts',(52.2730905144427,84.4709997129741,35.4776860972751));
#724=CARTESIAN_POINT('Ctrl Pts',(51.7376081819619,83.1996311928416,35.8244841943352));
#725=CARTESIAN_POINT('Ctrl Pts',(51.3266511242908,82.6542727575508,35.8244841943352));
#726=CARTESIAN_POINT('Ctrl Pts',(50.7400637834776,88.1048406565844,32.0074854733525));
#727=CARTESIAN_POINT('Ctrl Pts',(51.3033058643729,87.6804073053375,32.8730263064844));
#728=CARTESIAN_POINT('Ctrl Pts',(51.9500944202005,86.5924701203516,34.3116971224528));
#729=CARTESIAN_POINT('Ctrl Pts',(51.8467641287501,84.6225397518218,35.6959422300933));
#730=CARTESIAN_POINT('Ctrl Pts',(51.2882837042535,83.4745614644589,36.0074854733525));
#731=CARTESIAN_POINT('Ctrl Pts',(50.9079236103871,82.9698065715424,36.0074854733525));
#732=CARTESIAN_POINT('Ctrl Pts',(50.7400637834776,88.1048406565844,32.0074854733525));
#733=CARTESIAN_POINT('Ctrl Pts',(51.2777039516049,87.6996997303942,32.9050833743782));
#734=CARTESIAN_POINT('Ctrl Pts',(51.8546638472038,86.607906924657,34.3955340052588));
#735=CARTESIAN_POINT('Ctrl Pts',(51.6437619787384,84.6603529127084,35.7337120605906));
#736=CARTESIAN_POINT('Ctrl Pts',(51.088835488736,83.5827559186078,36.0074854733525));
#737=CARTESIAN_POINT('Ctrl Pts',(50.7287102210114,83.1048535469391,36.0074854733525));
#738=CARTESIAN_POINT('',(51.5273457310587,82.5030385237871,35.0074854733525));
#739=CARTESIAN_POINT('',(50.7287102210114,83.1048535469392,36.0074854733525));
#740=CARTESIAN_POINT('Origin',(50.7287102210114,83.1048535469391,35.0074854733525));
#741=CARTESIAN_POINT('',(50.7400637834777,88.1048406565844,32.0074854733525));
#742=CARTESIAN_POINT('Origin',(48.3328036908695,84.9102986163953,32.0074854733525));
#743=CARTESIAN_POINT('Origin',(48.3328036908695,84.9102986163953,32.0074854733525));
#744=CARTESIAN_POINT('Origin',(51.5273457310586,82.5030385237871,32.0074854733525));
#745=CARTESIAN_POINT('',(31.9721292973663,102.247493700658,32.0074854733525));
#746=CARTESIAN_POINT('',(53.9346058236668,85.6975805639762,32.0074854733525));
#747=CARTESIAN_POINT('',(29.5648692047581,99.0529516604684,36.0074854733525));
#748=CARTESIAN_POINT('Origin',(29.5648692047581,99.0529516604684,32.0074854733525));
#749=CARTESIAN_POINT('',(51.5273457310586,82.5030385237871,36.0074854733525));
#750=CARTESIAN_POINT('Ctrl Pts',(50.7400637834776,88.1048406565844,4.99999999999998));
#751=CARTESIAN_POINT('Ctrl Pts',(51.4569173409806,87.5646527549974,3.80320279863243));
#752=CARTESIAN_POINT('Ctrl Pts',(51.9118795861443,86.3259379330351,2.32476787333036));
#753=CARTESIAN_POINT('Ctrl Pts',(51.501776235178,84.3896143441614,1.20772050453457));
#754=CARTESIAN_POINT('Ctrl Pts',(51.088835488736,83.5827559186077,0.999999999999991));
#755=CARTESIAN_POINT('Ctrl Pts',(50.7287102210113,83.1048535469391,0.999999999999991));
#756=CARTESIAN_POINT('Ctrl Pts',(50.7400637834776,88.1048406565844,4.99999999999998));
#757=CARTESIAN_POINT('Ctrl Pts',(51.5024318525681,87.5303551104522,3.8601931415547));
#758=CARTESIAN_POINT('Ctrl Pts',(52.0704577428917,86.3159509985119,2.43881329917367));
#759=CARTESIAN_POINT('Ctrl Pts',(51.7742081671034,84.3164893181106,1.24168076333202));
#760=CARTESIAN_POINT('Ctrl Pts',(51.3551284210626,83.438977007842,0.999999999999989));
#761=CARTESIAN_POINT('Ctrl Pts',(50.9676614068456,82.9247909130767,0.999999999999989));
#762=CARTESIAN_POINT('Ctrl Pts',(50.7400637834776,88.1048406565844,4.99999999999998));
#763=CARTESIAN_POINT('Ctrl Pts',(51.5820822478462,87.4703342324981,3.95992624166867));
#764=CARTESIAN_POINT('Ctrl Pts',(52.299212442224,86.2275795703064,2.65892931489321));
#765=CARTESIAN_POINT('Ctrl Pts',(52.1915268109268,84.1143786166261,1.50099390817746));
#766=CARTESIAN_POINT('Ctrl Pts',(51.7921616068447,83.1585222385741,1.25128629391199));
#767=CARTESIAN_POINT('Ctrl Pts',(51.3812045491736,82.6131638032832,1.25128629391199));
#768=CARTESIAN_POINT('Ctrl Pts',(50.7400637834776,88.1048406565844,4.99999999999998));
#769=CARTESIAN_POINT('Ctrl Pts',(51.6617326431244,87.410313354544,4.05965934178264));
#770=CARTESIAN_POINT('Ctrl Pts',(52.4181373604798,86.0265630182823,2.89298966642784));
#771=CARTESIAN_POINT('Ctrl Pts',(52.2858443049641,83.8968888411635,1.95949505494501));
#772=CARTESIAN_POINT('Ctrl Pts',(51.907705824925,83.0077934167035,1.77560052474358));
#773=CARTESIAN_POINT('Ctrl Pts',(51.5273457310586,82.503038523787,1.77560052474358));
#774=CARTESIAN_POINT('Ctrl Pts',(50.7400637834776,88.1048406565844,4.99999999999998));
#775=CARTESIAN_POINT('Ctrl Pts',(51.695868526815,87.3845901211351,4.10240209897434));
#776=CARTESIAN_POINT('Ctrl Pts',(52.4460134296387,85.9234392119729,2.99357590499777));
#777=CARTESIAN_POINT('Ctrl Pts',(52.2589385024537,83.8190516510707,2.15579037840094));
#778=CARTESIAN_POINT('Ctrl Pts',(51.8874709987833,82.9809408954557,2.));
#779=CARTESIAN_POINT('Ctrl Pts',(51.5273457310586,82.503038523787,2.));
#780=CARTESIAN_POINT('',(50.7287102210113,83.1048535469391,0.999999999999992));
#781=CARTESIAN_POINT('',(51.5273457310586,82.503038523787,1.99999999999999));
#782=CARTESIAN_POINT('Origin',(50.7287102210113,83.1048535469391,1.99999999999999));
#783=CARTESIAN_POINT('',(50.7400637834776,88.1048406565844,4.99999999999998));
#784=CARTESIAN_POINT('Origin',(48.3328036908694,84.9102986163952,4.99999999999999));
#785=CARTESIAN_POINT('Origin',(48.3328036908694,84.9102986163952,4.99999999999999));
#786=CARTESIAN_POINT('Origin',(48.3328036908694,84.9102986163952,10.0953375134953));
#787=CARTESIAN_POINT('',(50.7400637834776,88.1048406565844,26.2915619758886));
#788=CARTESIAN_POINT('',(50.7400637834776,88.1048406565844,9.70843802411155));
#789=CARTESIAN_POINT('Ctrl Pts',(50.7400637834777,88.1048406565844,26.2915619758886));
#790=CARTESIAN_POINT('Ctrl Pts',(50.7458919124925,88.1004488463608,26.2805604176462));
#791=CARTESIAN_POINT('Ctrl Pts',(50.7516976406245,88.0960489105739,26.2695469275399));
#792=CARTESIAN_POINT('Ctrl Pts',(51.1744923751404,87.773813615143,25.4635396146968));
#793=CARTESIAN_POINT('Ctrl Pts',(51.4755664187662,87.4159621188314,24.6063738141906));
#794=CARTESIAN_POINT('Ctrl Pts',(51.9042376946754,86.7542974332626,22.8060101958166));
#795=CARTESIAN_POINT('Ctrl Pts',(52.0314403597005,86.4503825098002,21.8631244638736));
#796=CARTESIAN_POINT('Ctrl Pts',(52.1822299331441,86.0210157887151,19.9426314032367));
#797=CARTESIAN_POINT('Ctrl Pts',(52.208559273483,85.8994996393627,18.96436255469));
#798=CARTESIAN_POINT('Ctrl Pts',(52.208559273483,85.8994996393627,17.0356374453101));
#799=CARTESIAN_POINT('Ctrl Pts',(52.1822299331441,86.0210157887151,16.0573685967635));
#800=CARTESIAN_POINT('Ctrl Pts',(52.0314403597004,86.4503825098001,14.1368755361266));
#801=CARTESIAN_POINT('Ctrl Pts',(51.9042376946754,86.7542974332626,13.1939898041836));
#802=CARTESIAN_POINT('Ctrl Pts',(51.4755664187662,87.4159621188313,11.3936261858096));
#803=CARTESIAN_POINT('Ctrl Pts',(51.1744923751404,87.773813615143,10.5364603853033));
#804=CARTESIAN_POINT('Ctrl Pts',(50.7516976406244,88.0960489105739,9.73045307246022));
#805=CARTESIAN_POINT('Ctrl Pts',(50.7458919124925,88.1004488463607,9.71943958235393));
#806=CARTESIAN_POINT('Ctrl Pts',(50.7400637834776,88.1048406565844,9.70843802411156));
#807=CARTESIAN_POINT('',(50.7400637834776,88.1048406565844,10.0953375134953));
#808=CARTESIAN_POINT('',(51.5273457310586,82.503038523787,10.0953375134953));
#809=CARTESIAN_POINT('',(50.7400637834776,88.1048406565844,10.0953375134953));
#810=CARTESIAN_POINT('Origin',(50.9283690985231,82.954399791151,4.99999999999999));
#811=CARTESIAN_POINT('',(29.564869204758,99.0529516604684,0.999999999999972));
#812=CARTESIAN_POINT('',(50.9283690985231,82.954399791151,0.999999999999993));
#813=CARTESIAN_POINT('',(31.7964590368639,102.014371391145,3.49999999999999));
#814=CARTESIAN_POINT('Origin',(29.564869204758,99.0529516604684,4.99999999999999));
#815=CARTESIAN_POINT('',(43.6486675234322,93.0830916834289,3.49999999999999));
#816=CARTESIAN_POINT('',(53.159958930629,85.9158195218279,3.49999999999999));
#817=CARTESIAN_POINT('',(46.7335608189032,91.1239571922883,4.99999999999998));
#818=CARTESIAN_POINT('Ctrl Pts',(46.7335608189032,91.1239571922883,4.99999999999998));
#819=CARTESIAN_POINT('Ctrl Pts',(46.2474696528872,91.4902531591588,4.64963576016882));
#820=CARTESIAN_POINT('Ctrl Pts',(45.7074324436358,91.8398723674505,4.33750608364412));
#821=CARTESIAN_POINT('Ctrl Pts',(44.6574165293142,92.484627734285,3.84720652282148));
#822=CARTESIAN_POINT('Ctrl Pts',(44.155975690107,92.7796612082375,3.6556791669168));
#823=CARTESIAN_POINT('Ctrl Pts',(43.6486675234322,93.0830916834289,3.49999999999999));
#824=CARTESIAN_POINT('',(53.3356291911313,86.1489418313402,4.99999999999998));
#825=CARTESIAN_POINT('Origin',(41.7941633005868,71.2483093226651,2.));
#826=CARTESIAN_POINT('',(44.7837688471393,73.5540097407828,1.99999999999999));
#827=CARTESIAN_POINT('',(42.5927988106341,70.6464942995131,2.));
#828=CARTESIAN_POINT('',(44.1868485976923,74.4235099559562,0.999999999999997));
#829=CARTESIAN_POINT('Ctrl Pts',(44.1868485976923,74.4235099559563,0.999999999999995));
#830=CARTESIAN_POINT('Ctrl Pts',(44.288244712947,74.3471025026414,0.999999999999996));
#831=CARTESIAN_POINT('Ctrl Pts',(44.3909348619293,74.2593506132371,1.02568933350379));
#832=CARTESIAN_POINT('Ctrl Pts',(44.5675771251121,74.0844119945915,1.12844484554592));
#833=CARTESIAN_POINT('Ctrl Pts',(44.6415282369968,73.9971998921706,1.20546954417803));
#834=CARTESIAN_POINT('Ctrl Pts',(44.7481494660658,73.8433639843008,1.38320180429377));
#835=CARTESIAN_POINT('Ctrl Pts',(44.7868265093559,73.7668935002762,1.49670576288534));
#836=CARTESIAN_POINT('Ctrl Pts',(44.8175668480076,73.6394121900324,1.74316802982013));
#837=CARTESIAN_POINT('Ctrl Pts',(44.809652685064,73.5883587538644,1.87610148386461));
#838=CARTESIAN_POINT('Ctrl Pts',(44.7837688471393,73.5540097407828,1.99999999999999));
#839=CARTESIAN_POINT('',(41.7941633005868,71.2483093226651,0.999999999999998));
#840=CARTESIAN_POINT('Origin',(44.9130572576193,76.2180414680895,0.999999999999996));
#841=CARTESIAN_POINT('',(43.7875308426686,74.7244174675323,0.999999999999996));
#842=CARTESIAN_POINT('',(43.7875308426686,74.7244174675323,0.999999999999996));
#843=CARTESIAN_POINT('',(49.1257624196836,81.8084900384206,0.999999999999996));
#844=CARTESIAN_POINT('',(46.1166873039234,77.8153124881841,0.999999999999995));
#845=CARTESIAN_POINT('',(28.361239158454,97.4556806403738,0.99999999999999));
#846=CARTESIAN_POINT('',(49.1257624196836,81.8084900384206,0.999999999999996));
#847=CARTESIAN_POINT('',(23.023007581439,90.3716080694855,0.999999999999994));
#848=CARTESIAN_POINT('Origin',(30.1666842279101,99.8515871705157,2.24999999999998));
#849=CARTESIAN_POINT('',(28.361239158454,97.4556806403738,3.5));
#850=CARTESIAN_POINT('',(28.361239158454,97.4556806403738,3.5));
#851=CARTESIAN_POINT('',(31.9721292973662,102.247493700658,3.49999999999999));
#852=CARTESIAN_POINT('Origin',(52.7366525585958,86.6003030987042,3.49999999999999));
#853=CARTESIAN_POINT('',(40.2134476450223,88.5244009326575,3.50000000000001));
#854=CARTESIAN_POINT('',(49.1257624196836,81.8084900384206,3.50000000000001));
#855=CARTESIAN_POINT('',(43.8243377839346,93.3162139929412,3.49999999999999));
#856=CARTESIAN_POINT('Origin',(53.9346058236668,85.6975805639762,0.999999999999965));
#857=CARTESIAN_POINT('Origin',(40.7571199078865,95.627528445985,18.0000000000001));
#858=CARTESIAN_POINT('Origin',(40.7571199078865,95.627528445985,18.0000000000001));
#859=CARTESIAN_POINT('',(49.1257624196836,81.8084900384206,18.0000000000001));
#860=CARTESIAN_POINT('Origin',(37.1462297689742,90.8357153857013,18.0000000000001));
#861=CARTESIAN_POINT('',(42.3679869905032,86.9008390827646,31.5));
#862=CARTESIAN_POINT('Origin',(37.1462297689742,90.8357153857013,18.0000000000001));
#863=CARTESIAN_POINT('',(45.9788771294155,91.6926521430484,31.5));
#864=CARTESIAN_POINT('',(45.9788771294155,91.6926521430484,31.5));
#865=CARTESIAN_POINT('Origin',(40.7571199078865,95.627528445985,18.0000000000001));
#866=CARTESIAN_POINT('Origin',(39.0745870985779,65.9776696656647,19.1906750269906));
#867=CARTESIAN_POINT('',(46.1110105226902,75.3153189333615,35.0074854733526));
#868=CARTESIAN_POINT('',(46.5045964611224,75.8376251148205,35.0074854733526));
#869=CARTESIAN_POINT('',(45.5093211114383,74.5168501159357,36.0279158425637));
#870=CARTESIAN_POINT('Origin',(46.1110105226902,75.3153189333614,36.0074854733526));
#871=CARTESIAN_POINT('',(32.0381636744656,56.6400203979679,37.3769439808461));
#872=CARTESIAN_POINT('Ctrl Pts',(32.0381636744656,56.6400203979679,37.3769439808461));
#873=CARTESIAN_POINT('Ctrl Pts',(33.4860894564232,58.5614828090054,37.3473634697323));
#874=CARTESIAN_POINT('Ctrl Pts',(35.0320067396808,60.6129843344058,37.2265708179208));
#875=CARTESIAN_POINT('Ctrl Pts',(36.5761115136053,62.6620805786818,37.0482356981935));
#876=CARTESIAN_POINT('Ctrl Pts',(38.4064823592617,65.091064731055,36.8368385123173));
#877=CARTESIAN_POINT('Ctrl Pts',(40.2349683866528,67.5175476451097,36.5564381877828));
#878=CARTESIAN_POINT('Ctrl Pts',(41.8995768590862,69.7265576984778,36.3514144184602));
#879=CARTESIAN_POINT('Ctrl Pts',(42.6542358580849,70.7280240151883,36.258465815176));
#880=CARTESIAN_POINT('Ctrl Pts',(43.4848079142181,71.8302303612624,36.1666761284833));
#881=CARTESIAN_POINT('Ctrl Pts',(44.3159977058937,72.9332564700893,36.1016547528005));
#882=CARTESIAN_POINT('Ctrl Pts',(44.7164455308962,73.4646686825881,36.0703289728985));
#883=CARTESIAN_POINT('Ctrl Pts',(45.1170450543751,73.9962822057643,36.0453271739635));
#884=CARTESIAN_POINT('Ctrl Pts',(45.5093252069599,74.5168555508765,36.0280129457822));
#885=CARTESIAN_POINT('',(32.0381636744656,56.6400203979679,29.5018943917436));
#886=CARTESIAN_POINT('',(32.0381636744656,56.6400203979679,29.5018943917436));
#887=CARTESIAN_POINT('Origin',(2.50308598377069,17.4456484923747,-13.5552051357989));
#888=CARTESIAN_POINT('',(44.3055654532341,72.9194124032196,30.85));
#889=CARTESIAN_POINT('Origin',(44.3055654532341,72.9194124032196,32.));
#890=CARTESIAN_POINT('',(37.0837851754095,63.3357862826521,30.8500000000001));
#891=CARTESIAN_POINT('Origin',(37.0837851754095,63.3357862826521,32.0000000000001));
#892=CARTESIAN_POINT('',(44.3055654532341,72.9194124032196,12.85));
#893=CARTESIAN_POINT('Origin',(44.3055654532341,72.9194124032196,14.));
#894=CARTESIAN_POINT('Ctrl Pts',(30.8402104093946,57.542742932696,29.5018943917436));
#895=CARTESIAN_POINT('Ctrl Pts',(40.5165125078452,70.3836295248795,17.8129861695434));
#896=CARTESIAN_POINT('Ctrl Pts',(43.7875308426686,74.7244174675323,0.999999999999999));
#897=CARTESIAN_POINT('Ctrl Pts',(32.0381636744656,56.6400203979678,29.5018943917436));
#898=CARTESIAN_POINT('Ctrl Pts',(41.7144657729161,69.4809069901514,17.8129861695434));
#899=CARTESIAN_POINT('Ctrl Pts',(44.9854841077396,73.8216949328042,0.999999999999999));
#900=CARTESIAN_POINT('',(30.8402104093947,57.542742932696,29.5018943917436));
#901=CARTESIAN_POINT('',(30.8402104093947,57.542742932696,29.5018943917436));
#902=CARTESIAN_POINT('Origin',(1.30513271869975,18.3483710271028,-13.5552051357989));
#903=CARTESIAN_POINT('Origin',(45.7059609510751,76.4394401379725,35.0074854733526));
#904=CARTESIAN_POINT('',(45.3123750126429,75.9171339565135,36.0074854733526));
#905=CARTESIAN_POINT('',(45.7059609510751,76.4394401379725,36.0074854733526));
#906=CARTESIAN_POINT('Origin',(45.3123750126429,75.9171339565135,35.0074854733526));
#907=CARTESIAN_POINT('Ctrl Pts',(45.3123750126429,75.9171339565135,36.0074854733526));
#908=CARTESIAN_POINT('Ctrl Pts',(45.3123750126429,75.9171339565135,36.0074854733526));
#909=CARTESIAN_POINT('Ctrl Pts',(45.3123750126429,75.9171339565135,36.0074854733526));
#910=CARTESIAN_POINT('Ctrl Pts',(45.3123750126429,75.9171339565135,36.0074854733526));
#911=CARTESIAN_POINT('Ctrl Pts',(45.3123750126429,75.9171339565135,36.0074854733526));
#912=CARTESIAN_POINT('Ctrl Pts',(46.1110105226902,75.3153189333614,36.0074854733526));
#913=CARTESIAN_POINT('Ctrl Pts',(46.1110105226902,75.3153189333614,36.0074854733526));
#914=CARTESIAN_POINT('Ctrl Pts',(46.1110105226902,75.3153189333614,36.0074854733526));
#915=CARTESIAN_POINT('Ctrl Pts',(46.1110105226902,75.3153189333614,36.0074854733526));
#916=CARTESIAN_POINT('Ctrl Pts',(46.1110105226902,75.3153189333614,36.0074854733526));
#917=CARTESIAN_POINT('Ctrl Pts',(46.1110105226902,75.3153189333614,35.0074854733526));
#918=CARTESIAN_POINT('Ctrl Pts',(45.8581214490663,74.9797237977644,35.0074854733526));
#919=CARTESIAN_POINT('Ctrl Pts',(45.6811379716805,74.7448587905872,35.3076391935208));
#920=CARTESIAN_POINT('Ctrl Pts',(45.5041544942947,74.50999378341,35.607792913689));
#921=CARTESIAN_POINT('Ctrl Pts',(45.5093211114383,74.5168501159357,36.0279158425637));
#922=CARTESIAN_POINT('Ctrl Pts',(45.5093252069599,74.5168555508765,36.0280129457822));
#923=CARTESIAN_POINT('Ctrl Pts',(45.5254462676825,74.5382489210275,36.0273014039873));
#924=CARTESIAN_POINT('Ctrl Pts',(45.540700817701,74.5602821031312,36.0266025240529));
#925=CARTESIAN_POINT('Ctrl Pts',(45.5550519080512,74.5829017453046,36.0259180143238));
#926=CARTESIAN_POINT('Ctrl Pts',(45.5753792637108,74.6149409493045,36.0249484522642));
#927=CARTESIAN_POINT('Ctrl Pts',(45.5938659061259,74.6481124374156,36.0240091024086));
#928=CARTESIAN_POINT('Ctrl Pts',(45.6104220464183,74.6822551578525,36.0231037516381));
#929=CARTESIAN_POINT('Ctrl Pts',(45.6459875021766,74.7555996325743,36.0211589014372));
#930=CARTESIAN_POINT('Ctrl Pts',(45.6724383003554,74.8330006723159,36.0193834108512));
#931=CARTESIAN_POINT('Ctrl Pts',(45.6892010684224,74.9127253046679,36.0177946768274));
#932=CARTESIAN_POINT('Ctrl Pts',(45.6906302034763,74.9195223483483,36.0176592269139));
#933=CARTESIAN_POINT('Ctrl Pts',(45.6919889369615,74.9263363047435,36.0175251228602));
#934=CARTESIAN_POINT('Ctrl Pts',(45.6932769233479,74.9331661129193,36.0173923691054));
#935=CARTESIAN_POINT('Ctrl Pts',(45.7097394223676,75.0204618418038,36.0156955665758));
#936=CARTESIAN_POINT('Ctrl Pts',(45.7144829009802,75.1095025974158,36.0142370920521));
#937=CARTESIAN_POINT('Ctrl Pts',(45.7074317619461,75.197929178699,36.01300448484));
#938=CARTESIAN_POINT('Ctrl Pts',(45.7062291074805,75.2130113692987,36.0127942492227));
#939=CARTESIAN_POINT('Ctrl Pts',(45.7046834033923,75.2280757872232,36.0125905492314));
#940=CARTESIAN_POINT('Ctrl Pts',(45.7027943553735,75.2431108336589,36.0123932849011));
#941=CARTESIAN_POINT('Ctrl Pts',(45.6886024355622,75.3560651742872,36.010911289986));
#942=CARTESIAN_POINT('Ctrl Pts',(45.6552248510635,75.465775667934,36.009812163302));
#943=CARTESIAN_POINT('Ctrl Pts',(45.6041020317504,75.5675017052902,36.0090268939756));
#944=CARTESIAN_POINT('Ctrl Pts',(45.5688076445348,75.6377317552094,36.0084847564321));
#945=CARTESIAN_POINT('Ctrl Pts',(45.5253561313148,75.7035576365774,36.0080965256547));
#946=CARTESIAN_POINT('Ctrl Pts',(45.4746477747465,75.7636147522392,36.0078433418253));
#947=CARTESIAN_POINT('Ctrl Pts',(45.450428544653,75.792299119105,36.00772241664));
#948=CARTESIAN_POINT('Ctrl Pts',(45.4246133353963,75.8195971208019,36.0076328073611));
#949=CARTESIAN_POINT('Ctrl Pts',(45.3973247561313,75.8453790718271,36.0075733741817));
#950=CARTESIAN_POINT('Ctrl Pts',(45.3838255343264,75.8581329888439,36.0075439735426));
#951=CARTESIAN_POINT('Ctrl Pts',(45.3699736752654,75.8705084326892,36.0075219899478));
#952=CARTESIAN_POINT('Ctrl Pts',(45.3557852963194,75.8824910019695,36.0075073527503));
#953=CARTESIAN_POINT('Ctrl Pts',(45.3487097393159,75.8884665508545,36.0075000533734));
#954=CARTESIAN_POINT('Ctrl Pts',(45.341551519637,75.8943435299201,36.0074945830073));
#955=CARTESIAN_POINT('Ctrl Pts',(45.3343127091845,75.9001202379965,36.0074909372455));
#956=CARTESIAN_POINT('Ctrl Pts',(45.3306956735139,75.9030067010843,36.007489115558));
#957=CARTESIAN_POINT('Ctrl Pts',(45.3270586472912,75.9058680248816,36.0074877495526));
#958=CARTESIAN_POINT('Ctrl Pts',(45.3234018933747,75.9087040025854,36.007486838954));
#959=CARTESIAN_POINT('Ctrl Pts',(45.3215738150234,75.9101217598541,36.0074863837291));
#960=CARTESIAN_POINT('Ctrl Pts',(45.3197408228705,75.911533169864,36.0074860423266));
#961=CARTESIAN_POINT('Ctrl Pts',(45.3179029500311,75.9129382071161,36.0074858147295));
#962=CARTESIAN_POINT('Ctrl Pts',(45.3160651623198,75.9143431792885,36.007485587143));
#963=CARTESIAN_POINT('Ctrl Pts',(45.3142225054277,75.915741770843,36.0074854733526));
#964=CARTESIAN_POINT('Ctrl Pts',(45.3123750126429,75.9171339565135,36.0074854733526));
#965=CARTESIAN_POINT('Origin',(53.9346058236668,85.6975805639762,0.999999999999965));
#966=CARTESIAN_POINT('',(31.9721292973663,102.247493700658,31.5));
#967=CARTESIAN_POINT('',(52.7366525585959,86.6003030987043,31.5));
#968=CARTESIAN_POINT('',(31.9721292973662,102.247493700658,0.999999999999965));
#969=CARTESIAN_POINT('Origin',(53.9346058236668,85.6975805639762,36.0074854733525));
#970=CARTESIAN_POINT('',(28.361239158454,97.4556806403738,36.0074854733525));
#971=CARTESIAN_POINT('',(31.9721292973663,102.247493700658,36.0074854733525));
#972=CARTESIAN_POINT('',(49.1257624196836,81.8084900384206,36.0074854733525));
#973=CARTESIAN_POINT('',(49.1257624196836,81.8084900384206,36.0074854733525));
#974=CARTESIAN_POINT('',(44.9130572576193,76.2180414680895,36.0074854733526));
#975=CARTESIAN_POINT('',(50.7807537333517,84.0047376910506,36.0074854733525));
#976=CARTESIAN_POINT('',(44.9130572576193,76.2180414680895,36.0074854733526));
#977=CARTESIAN_POINT('Origin',(49.1257624196836,81.8084900384206,31.5));
#978=CARTESIAN_POINT('',(28.361239158454,97.4556806403738,31.5));
#979=CARTESIAN_POINT('',(49.1257624196836,81.8084900384206,31.5));
#980=CARTESIAN_POINT('',(28.361239158454,97.4556806403738,31.5));
#981=CARTESIAN_POINT('Origin',(49.1257624196836,81.8084900384206,3.50000000000001));
#982=CARTESIAN_POINT('',(49.1257624196836,81.8084900384206,18.3453375134953));
#983=CARTESIAN_POINT('Origin',(49.1257624196836,81.8084900384206,36.0074854733525));
#984=CARTESIAN_POINT('',(49.1257624196836,81.8084900384206,18.3453375134953));
#985=CARTESIAN_POINT('',(28.361239158454,97.4556806403739,36.0074854733525));
#986=CARTESIAN_POINT('Origin',(30.1666842279101,99.8515871705157,33.7537427366763));
#987=CARTESIAN_POINT('Origin',(37.876633833507,66.8803922003927,19.1906750269906));
#988=CARTESIAN_POINT('',(30.8402104093947,57.542742932696,37.3769439808461));
#989=CARTESIAN_POINT('',(30.8402104093947,57.542742932696,29.5018943917436));
#990=CARTESIAN_POINT('Ctrl Pts',(30.8402104093947,57.542742932696,37.3769439808461));
#991=CARTESIAN_POINT('Ctrl Pts',(32.2881361913523,59.4642053437334,37.3473634697323));
#992=CARTESIAN_POINT('Ctrl Pts',(33.8340534746098,61.5157068691339,37.2265708179208));
#993=CARTESIAN_POINT('Ctrl Pts',(35.3781582485344,63.5648031134099,37.0482356981935));
#994=CARTESIAN_POINT('Ctrl Pts',(37.2085290941908,65.9937872657831,36.8368385123173));
#995=CARTESIAN_POINT('Ctrl Pts',(39.0370151215819,68.4202701798378,36.5564381877828));
#996=CARTESIAN_POINT('Ctrl Pts',(40.7016235940152,70.6292802332059,36.3514144184602));
#997=CARTESIAN_POINT('Ctrl Pts',(41.4562825930139,71.6307465499164,36.258465815176));
#998=CARTESIAN_POINT('Ctrl Pts',(42.2868546491471,72.7329528959905,36.1666761284833));
#999=CARTESIAN_POINT('Ctrl Pts',(43.1180444408227,73.8359790048174,36.1016547528005));
#1000=CARTESIAN_POINT('Ctrl Pts',(43.7259089196162,74.6426424136473,36.0541034173105));
#1001=CARTESIAN_POINT('Ctrl Pts',(44.3341229432307,75.4497696841218,36.0211238484461));
#1002=CARTESIAN_POINT('Ctrl Pts',(44.9130572576193,76.2180414680895,36.0074854733526));
#1003=CARTESIAN_POINT('',(43.1076121881631,73.8221349379477,30.85));
#1004=CARTESIAN_POINT('Origin',(43.1076121881631,73.8221349379477,32.));
#1005=CARTESIAN_POINT('',(35.8858319103386,64.2385088173802,30.8500000000001));
#1006=CARTESIAN_POINT('Origin',(35.8858319103386,64.2385088173802,32.0000000000001));
#1007=CARTESIAN_POINT('',(43.1076121881631,73.8221349379476,12.85));
#1008=CARTESIAN_POINT('Origin',(43.1076121881631,73.8221349379476,14.));
#1009=CARTESIAN_POINT('Origin',(44.3055654532341,72.9194124032196,14.));
#1010=CARTESIAN_POINT('',(44.3055654532341,72.9194124032196,12.85));
#1011=CARTESIAN_POINT('Origin',(37.0837851754095,63.3357862826521,32.0000000000001));
#1012=CARTESIAN_POINT('',(37.0837851754095,63.3357862826521,30.8500000000001));
#1013=CARTESIAN_POINT('Origin',(44.3055654532341,72.9194124032196,32.));
#1014=CARTESIAN_POINT('',(44.3055654532341,72.9194124032196,30.85));
#1015=CARTESIAN_POINT('Ctrl Pts',(30.8402104093947,57.542742932696,37.3769439808461));
#1016=CARTESIAN_POINT('Ctrl Pts',(32.0381636744656,56.6400203979679,37.3769439808461));
#1017=CARTESIAN_POINT('Ctrl Pts',(32.2881361913523,59.4642053437334,37.3473634697323));
#1018=CARTESIAN_POINT('Ctrl Pts',(33.4860894564232,58.5614828090054,37.3473634697323));
#1019=CARTESIAN_POINT('Ctrl Pts',(33.8340534746098,61.5157068691339,37.2265708179208));
#1020=CARTESIAN_POINT('Ctrl Pts',(35.0320067396808,60.6129843344058,37.2265708179208));
#1021=CARTESIAN_POINT('Ctrl Pts',(37.2085290941908,65.9937872657831,36.8368385123173));
#1022=CARTESIAN_POINT('Ctrl Pts',(38.4064823592617,65.091064731055,36.8368385123173));
#1023=CARTESIAN_POINT('Ctrl Pts',(39.0370151215819,68.4202701798378,36.5564381877828));
#1024=CARTESIAN_POINT('Ctrl Pts',(40.2349683866528,67.5175476451097,36.5564381877828));
#1025=CARTESIAN_POINT('Ctrl Pts',(41.4562825930139,71.6307465499164,36.258465815176));
#1026=CARTESIAN_POINT('Ctrl Pts',(42.6542358580849,70.7280240151883,36.258465815176));
#1027=CARTESIAN_POINT('Ctrl Pts',(42.2868546491471,72.7329528959905,36.1666761284833));
#1028=CARTESIAN_POINT('Ctrl Pts',(43.4848079142181,71.8302303612624,36.1666761284833));
#1029=CARTESIAN_POINT('Ctrl Pts',(43.7259089196162,74.6426424136473,36.0541034173105));
#1030=CARTESIAN_POINT('Ctrl Pts',(44.9238621846872,73.7399198789192,36.0541034173105));
#1031=CARTESIAN_POINT('Ctrl Pts',(44.3341229432307,75.4497696841218,36.0211238484461));
#1032=CARTESIAN_POINT('Ctrl Pts',(45.5320762083016,74.5470471493937,36.0211238484461));
#1033=CARTESIAN_POINT('Ctrl Pts',(44.9130572576193,76.2180414680895,36.0074854733526));
#1034=CARTESIAN_POINT('Ctrl Pts',(46.1110105226902,75.3153189333615,36.0074854733526));
#1035=CARTESIAN_POINT('',(30.8402104093947,57.542742932696,37.3769439808461));
#1036=CARTESIAN_POINT('Origin',(30.8402104093947,57.542742932696,29.5018943917436));
#1037=UNCERTAINTY_MEASURE_WITH_UNIT(LENGTH_MEASURE(0.01),#1041,
'DISTANCE_ACCURACY_VALUE',
'Maximum model space distance between geometric entities at asserted c
onnectivities');
#1038=UNCERTAINTY_MEASURE_WITH_UNIT(LENGTH_MEASURE(0.01),#1041,
'DISTANCE_ACCURACY_VALUE',
'Maximum model space distance between geometric entities at asserted c
onnectivities');
#1039=(
GEOMETRIC_REPRESENTATION_CONTEXT(3)
GLOBAL_UNCERTAINTY_ASSIGNED_CONTEXT((#1037))
GLOBAL_UNIT_ASSIGNED_CONTEXT((#1041,#1043,#1044))
REPRESENTATION_CONTEXT('','3D')
);
#1040=(
GEOMETRIC_REPRESENTATION_CONTEXT(3)
GLOBAL_UNCERTAINTY_ASSIGNED_CONTEXT((#1038))
GLOBAL_UNIT_ASSIGNED_CONTEXT((#1041,#1043,#1044))
REPRESENTATION_CONTEXT('','3D')
);
#1041=(
LENGTH_UNIT()
NAMED_UNIT(*)
SI_UNIT(.MILLI.,.METRE.)
);
#1042=(
LENGTH_UNIT()
NAMED_UNIT(*)
SI_UNIT(.CENTI.,.METRE.)
);
#1043=(
NAMED_UNIT(*)
PLANE_ANGLE_UNIT()
SI_UNIT($,.RADIAN.)
);
#1044=(
NAMED_UNIT(*)
SI_UNIT($,.STERADIAN.)
SOLID_ANGLE_UNIT()
);
#1045=SHAPE_DEFINITION_REPRESENTATION(#1046,#1047);
#1046=PRODUCT_DEFINITION_SHAPE('',$,#1049);
#1047=SHAPE_REPRESENTATION('',(#533),#1039);
#1048=PRODUCT_DEFINITION_CONTEXT('part definition',#1053,'design');
#1049=PRODUCT_DEFINITION('handle_inside_cover_left',
'handle_inside_cover_left',#1050,#1048);
#1050=PRODUCT_DEFINITION_FORMATION('',$,#1055);
#1051=PRODUCT_RELATED_PRODUCT_CATEGORY('handle_inside_cover_left',
'handle_inside_cover_left',(#1055));
#1052=APPLICATION_PROTOCOL_DEFINITION('international standard',
'automotive_design',2009,#1053);
#1053=APPLICATION_CONTEXT(
'Core Data for Automotive Mechanical Design Process');
#1054=PRODUCT_CONTEXT('part definition',#1053,'mechanical');
#1055=PRODUCT('handle_inside_cover_left','handle_inside_cover_left',$,(#1054));
#1056=PRESENTATION_STYLE_ASSIGNMENT((#1058));
#1057=PRESENTATION_STYLE_ASSIGNMENT((#1059));
#1058=SURFACE_STYLE_USAGE(.BOTH.,#1064);
#1059=SURFACE_STYLE_USAGE(.BOTH.,#1065);
#1060=SURFACE_STYLE_RENDERING_WITH_PROPERTIES($,#1072,(#1062));
#1061=SURFACE_STYLE_RENDERING_WITH_PROPERTIES($,#1073,(#1063));
#1062=SURFACE_STYLE_TRANSPARENT(0.);
#1063=SURFACE_STYLE_TRANSPARENT(0.);
#1064=SURFACE_SIDE_STYLE('',(#1066,#1060));
#1065=SURFACE_SIDE_STYLE('',(#1067,#1061));
#1066=SURFACE_STYLE_FILL_AREA(#1068);
#1067=SURFACE_STYLE_FILL_AREA(#1069);
#1068=FILL_AREA_STYLE('',(#1070));
#1069=FILL_AREA_STYLE('',(#1071));
#1070=FILL_AREA_STYLE_COLOUR('',#1072);
#1071=FILL_AREA_STYLE_COLOUR('',#1073);
#1072=COLOUR_RGB('',0.749019607843137,0.749019607843137,0.749019607843137);
#1073=COLOUR_RGB('',0.352941176470588,0.352941176470588,0.352941176470588);
ENDSEC;
END-ISO-10303-21;
