ISO-10303-21;
HEADER;
/* Generated by software containing ST-Developer
 * from STEP Tools, Inc. (www.steptools.com) 
 */

FILE_DESCRIPTION(
/* description */ (''),
/* implementation_level */ '2;1');

FILE_NAME(
/* name */ 'handle_monitor_case_under_left.stp',
/* time_stamp */ '2026-02-03T22:13:15+09:00',
/* author */ ('hibik'),
/* organization */ (''),
/* preprocessor_version */ 'ST-DEVELOPER v20.1',
/* originating_system */ 'Autodesk Inventor 2026',
/* authorisation */ '');

FILE_SCHEMA (('AUTOMOTIVE_DESIGN { 1 0 10303 214 3 1 1 }'));
ENDSEC;

DATA;
#10=MECHANICAL_DESIGN_GEOMETRIC_PRESENTATION_REPRESENTATION('',(#691,#692,
#693,#694,#695,#696,#697,#698,#699,#700,#701,#702,#703,#704,#705,#706,#707,
#708,#709,#710,#711,#712,#713,#714,#715,#716,#717,#718,#719,#720,#721,#722,
#723,#724,#725,#726,#727,#728,#729,#730,#731,#732,#733),#1282);
#11=GEOMETRICALLY_BOUNDED_WIREFRAME_SHAPE_REPRESENTATION('',(#12),#1281);
#12=GEOMETRIC_CURVE_SET('\X2\30B930B130C330C1\X0\4',(#16,#17,#18,#19,#20,
#21,#1278));
#13=SHAPE_REPRESENTATION_RELATIONSHIP('SRR','None',#1289,#15);
#14=SHAPE_REPRESENTATION_RELATIONSHIP('SRR','None',#1289,#11);
#15=ADVANCED_BREP_SHAPE_REPRESENTATION('',(#22),#1281);
#16=POLYLINE('',(#1266,#1267));
#17=POLYLINE('',(#1268,#1269));
#18=POLYLINE('',(#1270,#1271));
#19=POLYLINE('',(#1272,#1273));
#20=POLYLINE('',(#1274,#1275));
#21=POLYLINE('',(#1276,#1277));
#22=MANIFOLD_SOLID_BREP('\X2\30BD30EA30C330C9\X0\1',#770);
#23=FACE_BOUND('',#99,.T.);
#24=FACE_BOUND('',#100,.T.);
#25=FACE_BOUND('',#108,.T.);
#26=FACE_BOUND('',#110,.T.);
#27=FACE_BOUND('',#113,.T.);
#28=FACE_BOUND('',#131,.T.);
#29=FACE_BOUND('',#134,.T.);
#30=FACE_BOUND('',#135,.T.);
#31=FACE_BOUND('',#137,.T.);
#32=FACE_BOUND('',#138,.T.);
#33=FACE_BOUND('',#139,.T.);
#34=FACE_BOUND('',#140,.T.);
#35=PLANE('',#799);
#36=PLANE('',#800);
#37=PLANE('',#802);
#38=PLANE('',#804);
#39=PLANE('',#805);
#40=PLANE('',#806);
#41=PLANE('',#816);
#42=PLANE('',#817);
#43=PLANE('',#820);
#44=PLANE('',#822);
#45=PLANE('',#825);
#46=PLANE('',#830);
#47=PLANE('',#839);
#48=PLANE('',#840);
#49=PLANE('',#841);
#50=PLANE('',#842);
#51=PLANE('',#847);
#52=PLANE('',#849);
#53=PLANE('',#851);
#54=PLANE('',#854);
#55=PLANE('',#857);
#56=PLANE('',#858);
#57=FACE_OUTER_BOUND('',#93,.T.);
#58=FACE_OUTER_BOUND('',#94,.T.);
#59=FACE_OUTER_BOUND('',#95,.T.);
#60=FACE_OUTER_BOUND('',#96,.T.);
#61=FACE_OUTER_BOUND('',#97,.T.);
#62=FACE_OUTER_BOUND('',#98,.T.);
#63=FACE_OUTER_BOUND('',#101,.T.);
#64=FACE_OUTER_BOUND('',#102,.T.);
#65=FACE_OUTER_BOUND('',#103,.T.);
#66=FACE_OUTER_BOUND('',#104,.T.);
#67=FACE_OUTER_BOUND('',#105,.T.);
#68=FACE_OUTER_BOUND('',#106,.T.);
#69=FACE_OUTER_BOUND('',#107,.T.);
#70=FACE_OUTER_BOUND('',#109,.T.);
#71=FACE_OUTER_BOUND('',#111,.T.);
#72=FACE_OUTER_BOUND('',#112,.T.);
#73=FACE_OUTER_BOUND('',#114,.T.);
#74=FACE_OUTER_BOUND('',#115,.T.);
#75=FACE_OUTER_BOUND('',#116,.T.);
#76=FACE_OUTER_BOUND('',#117,.T.);
#77=FACE_OUTER_BOUND('',#118,.T.);
#78=FACE_OUTER_BOUND('',#119,.T.);
#79=FACE_OUTER_BOUND('',#120,.T.);
#80=FACE_OUTER_BOUND('',#121,.T.);
#81=FACE_OUTER_BOUND('',#122,.T.);
#82=FACE_OUTER_BOUND('',#123,.T.);
#83=FACE_OUTER_BOUND('',#124,.T.);
#84=FACE_OUTER_BOUND('',#125,.T.);
#85=FACE_OUTER_BOUND('',#126,.T.);
#86=FACE_OUTER_BOUND('',#127,.T.);
#87=FACE_OUTER_BOUND('',#128,.T.);
#88=FACE_OUTER_BOUND('',#129,.T.);
#89=FACE_OUTER_BOUND('',#130,.T.);
#90=FACE_OUTER_BOUND('',#132,.T.);
#91=FACE_OUTER_BOUND('',#133,.T.);
#92=FACE_OUTER_BOUND('',#136,.T.);
#93=EDGE_LOOP('',(#477,#478,#479,#480));
#94=EDGE_LOOP('',(#481,#482,#483,#484));
#95=EDGE_LOOP('',(#485,#486,#487,#488));
#96=EDGE_LOOP('',(#489,#490,#491,#492,#493));
#97=EDGE_LOOP('',(#494,#495,#496,#497,#498));
#98=EDGE_LOOP('',(#499,#500,#501,#502));
#99=EDGE_LOOP('',(#503));
#100=EDGE_LOOP('',(#504));
#101=EDGE_LOOP('',(#505,#506,#507,#508,#509));
#102=EDGE_LOOP('',(#510,#511,#512,#513,#514,#515));
#103=EDGE_LOOP('',(#516,#517,#518,#519));
#104=EDGE_LOOP('',(#520,#521,#522,#523));
#105=EDGE_LOOP('',(#524,#525,#526,#527));
#106=EDGE_LOOP('',(#528,#529,#530,#531,#532,#533,#534));
#107=EDGE_LOOP('',(#535,#536,#537,#538));
#108=EDGE_LOOP('',(#539));
#109=EDGE_LOOP('',(#540,#541,#542,#543));
#110=EDGE_LOOP('',(#544));
#111=EDGE_LOOP('',(#545,#546,#547,#548,#549,#550));
#112=EDGE_LOOP('',(#551,#552));
#113=EDGE_LOOP('',(#553));
#114=EDGE_LOOP('',(#554,#555,#556,#557));
#115=EDGE_LOOP('',(#558,#559,#560,#561));
#116=EDGE_LOOP('',(#562,#563,#564,#565));
#117=EDGE_LOOP('',(#566,#567,#568,#569));
#118=EDGE_LOOP('',(#570,#571,#572,#573));
#119=EDGE_LOOP('',(#574,#575,#576,#577));
#120=EDGE_LOOP('',(#578,#579,#580,#581));
#121=EDGE_LOOP('',(#582,#583,#584,#585));
#122=EDGE_LOOP('',(#586,#587,#588,#589));
#123=EDGE_LOOP('',(#590,#591,#592,#593,#594,#595,#596,#597,#598,#599));
#124=EDGE_LOOP('',(#600,#601,#602,#603));
#125=EDGE_LOOP('',(#604,#605,#606,#607,#608,#609));
#126=EDGE_LOOP('',(#610,#611,#612,#613,#614,#615,#616,#617));
#127=EDGE_LOOP('',(#618,#619,#620,#621));
#128=EDGE_LOOP('',(#622,#623,#624,#625));
#129=EDGE_LOOP('',(#626,#627,#628,#629,#630,#631,#632,#633));
#130=EDGE_LOOP('',(#634,#635,#636,#637,#638,#639,#640,#641,#642,#643));
#131=EDGE_LOOP('',(#644,#645,#646,#647));
#132=EDGE_LOOP('',(#648,#649,#650,#651));
#133=EDGE_LOOP('',(#652,#653,#654,#655));
#134=EDGE_LOOP('',(#656));
#135=EDGE_LOOP('',(#657));
#136=EDGE_LOOP('',(#658,#659,#660,#661,#662,#663,#664,#665,#666,#667,#668,
#669));
#137=EDGE_LOOP('',(#670));
#138=EDGE_LOOP('',(#671));
#139=EDGE_LOOP('',(#672));
#140=EDGE_LOOP('',(#673,#674,#675,#676));
#141=LINE('',#1068,#211);
#142=LINE('',#1074,#212);
#143=LINE('',#1079,#213);
#144=LINE('',#1081,#214);
#145=LINE('',#1083,#215);
#146=LINE('',#1084,#216);
#147=LINE('',#1088,#217);
#148=LINE('',#1090,#218);
#149=LINE('',#1091,#219);
#150=LINE('',#1096,#220);
#151=LINE('',#1099,#221);
#152=LINE('',#1100,#222);
#153=LINE('',#1102,#223);
#154=LINE('',#1105,#224);
#155=LINE('',#1107,#225);
#156=LINE('',#1109,#226);
#157=LINE('',#1110,#227);
#158=LINE('',#1113,#228);
#159=LINE('',#1115,#229);
#160=LINE('',#1117,#230);
#161=LINE('',#1119,#231);
#162=LINE('',#1120,#232);
#163=LINE('',#1126,#233);
#164=LINE('',#1131,#234);
#165=LINE('',#1138,#235);
#166=LINE('',#1141,#236);
#167=LINE('',#1144,#237);
#168=LINE('',#1146,#238);
#169=LINE('',#1148,#239);
#170=LINE('',#1150,#240);
#171=LINE('',#1152,#241);
#172=LINE('',#1153,#242);
#173=LINE('',#1156,#243);
#174=LINE('',#1161,#244);
#175=LINE('',#1168,#245);
#176=LINE('',#1170,#246);
#177=LINE('',#1177,#247);
#178=LINE('',#1181,#248);
#179=LINE('',#1183,#249);
#180=LINE('',#1184,#250);
#181=LINE('',#1188,#251);
#182=LINE('',#1194,#252);
#183=LINE('',#1198,#253);
#184=LINE('',#1202,#254);
#185=LINE('',#1204,#255);
#186=LINE('',#1206,#256);
#187=LINE('',#1207,#257);
#188=LINE('',#1210,#258);
#189=LINE('',#1212,#259);
#190=LINE('',#1213,#260);
#191=LINE('',#1216,#261);
#192=LINE('',#1218,#262);
#193=LINE('',#1219,#263);
#194=LINE('',#1222,#264);
#195=LINE('',#1226,#265);
#196=LINE('',#1228,#266);
#197=LINE('',#1230,#267);
#198=LINE('',#1233,#268);
#199=LINE('',#1236,#269);
#200=LINE('',#1239,#270);
#201=LINE('',#1242,#271);
#202=LINE('',#1244,#272);
#203=LINE('',#1246,#273);
#204=LINE('',#1249,#274);
#205=LINE('',#1251,#275);
#206=LINE('',#1252,#276);
#207=LINE('',#1254,#277);
#208=LINE('',#1256,#278);
#209=LINE('',#1261,#279);
#210=LINE('',#1264,#280);
#211=VECTOR('',#865,1.3);
#212=VECTOR('',#872,1.3);
#213=VECTOR('',#877,10.);
#214=VECTOR('',#878,10.);
#215=VECTOR('',#879,10.);
#216=VECTOR('',#880,10.);
#217=VECTOR('',#883,10.);
#218=VECTOR('',#884,10.);
#219=VECTOR('',#885,10.);
#220=VECTOR('',#890,10.);
#221=VECTOR('',#893,10.);
#222=VECTOR('',#894,10.);
#223=VECTOR('',#897,10.);
#224=VECTOR('',#900,10.);
#225=VECTOR('',#901,10.);
#226=VECTOR('',#902,10.);
#227=VECTOR('',#903,10.);
#228=VECTOR('',#906,10.);
#229=VECTOR('',#907,10.);
#230=VECTOR('',#908,10.);
#231=VECTOR('',#909,10.);
#232=VECTOR('',#910,10.);
#233=VECTOR('',#917,10.);
#234=VECTOR('',#922,10.);
#235=VECTOR('',#929,10.);
#236=VECTOR('',#932,10.);
#237=VECTOR('',#935,10.);
#238=VECTOR('',#936,10.);
#239=VECTOR('',#937,10.);
#240=VECTOR('',#938,10.);
#241=VECTOR('',#939,10.);
#242=VECTOR('',#940,10.);
#243=VECTOR('',#943,10.);
#244=VECTOR('',#950,10.);
#245=VECTOR('',#957,10.);
#246=VECTOR('',#960,10.);
#247=VECTOR('',#969,10.);
#248=VECTOR('',#974,10.);
#249=VECTOR('',#975,10.);
#250=VECTOR('',#976,10.);
#251=VECTOR('',#981,1.6);
#252=VECTOR('',#990,1.6);
#253=VECTOR('',#995,1.6);
#254=VECTOR('',#998,10.);
#255=VECTOR('',#999,10.);
#256=VECTOR('',#1000,10.);
#257=VECTOR('',#1001,10.);
#258=VECTOR('',#1004,10.);
#259=VECTOR('',#1005,10.);
#260=VECTOR('',#1006,10.);
#261=VECTOR('',#1009,10.);
#262=VECTOR('',#1010,10.);
#263=VECTOR('',#1011,10.);
#264=VECTOR('',#1014,10.);
#265=VECTOR('',#1017,10.);
#266=VECTOR('',#1018,10.);
#267=VECTOR('',#1019,10.);
#268=VECTOR('',#1022,10.);
#269=VECTOR('',#1025,10.);
#270=VECTOR('',#1028,10.);
#271=VECTOR('',#1031,10.);
#272=VECTOR('',#1032,10.);
#273=VECTOR('',#1033,10.);
#274=VECTOR('',#1036,10.);
#275=VECTOR('',#1039,10.);
#276=VECTOR('',#1040,10.);
#277=VECTOR('',#1043,10.);
#278=VECTOR('',#1046,10.);
#279=VECTOR('',#1055,10.);
#280=VECTOR('',#1060,10.);
#281=CIRCLE('',#794,1.3);
#282=CIRCLE('',#795,1.3);
#283=CIRCLE('',#797,1.3);
#284=CIRCLE('',#798,1.3);
#285=CIRCLE('',#801,5.);
#286=CIRCLE('',#803,5.);
#287=CIRCLE('',#808,5.);
#288=CIRCLE('',#809,5.);
#289=CIRCLE('',#811,3.);
#290=CIRCLE('',#812,3.);
#291=CIRCLE('',#814,5.);
#292=CIRCLE('',#815,5.);
#293=CIRCLE('',#818,3.);
#294=CIRCLE('',#819,1.6);
#295=CIRCLE('',#821,1.6);
#296=CIRCLE('',#823,5.);
#297=CIRCLE('',#824,5.);
#298=CIRCLE('',#826,41.5208333333334);
#299=CIRCLE('',#827,1.6);
#300=CIRCLE('',#829,3.);
#301=CIRCLE('',#832,1.6);
#302=CIRCLE('',#834,41.5208333333334);
#303=CIRCLE('',#836,1.6);
#304=CIRCLE('',#838,1.6);
#305=CIRCLE('',#843,5.);
#306=CIRCLE('',#844,5.);
#307=CIRCLE('',#846,5.);
#308=CIRCLE('',#848,5.);
#309=CIRCLE('',#853,5.);
#310=CIRCLE('',#855,5.);
#311=VERTEX_POINT('',#1065);
#312=VERTEX_POINT('',#1067);
#313=VERTEX_POINT('',#1071);
#314=VERTEX_POINT('',#1073);
#315=VERTEX_POINT('',#1077);
#316=VERTEX_POINT('',#1078);
#317=VERTEX_POINT('',#1080);
#318=VERTEX_POINT('',#1082);
#319=VERTEX_POINT('',#1086);
#320=VERTEX_POINT('',#1087);
#321=VERTEX_POINT('',#1089);
#322=VERTEX_POINT('',#1094);
#323=VERTEX_POINT('',#1095);
#324=VERTEX_POINT('',#1098);
#325=VERTEX_POINT('',#1104);
#326=VERTEX_POINT('',#1106);
#327=VERTEX_POINT('',#1108);
#328=VERTEX_POINT('',#1112);
#329=VERTEX_POINT('',#1114);
#330=VERTEX_POINT('',#1116);
#331=VERTEX_POINT('',#1118);
#332=VERTEX_POINT('',#1122);
#333=VERTEX_POINT('',#1124);
#334=VERTEX_POINT('',#1128);
#335=VERTEX_POINT('',#1130);
#336=VERTEX_POINT('',#1134);
#337=VERTEX_POINT('',#1135);
#338=VERTEX_POINT('',#1137);
#339=VERTEX_POINT('',#1139);
#340=VERTEX_POINT('',#1143);
#341=VERTEX_POINT('',#1145);
#342=VERTEX_POINT('',#1147);
#343=VERTEX_POINT('',#1149);
#344=VERTEX_POINT('',#1151);
#345=VERTEX_POINT('',#1155);
#346=VERTEX_POINT('',#1158);
#347=VERTEX_POINT('',#1162);
#348=VERTEX_POINT('',#1165);
#349=VERTEX_POINT('',#1167);
#350=VERTEX_POINT('',#1173);
#351=VERTEX_POINT('',#1176);
#352=VERTEX_POINT('',#1180);
#353=VERTEX_POINT('',#1182);
#354=VERTEX_POINT('',#1186);
#355=VERTEX_POINT('',#1192);
#356=VERTEX_POINT('',#1196);
#357=VERTEX_POINT('',#1200);
#358=VERTEX_POINT('',#1201);
#359=VERTEX_POINT('',#1203);
#360=VERTEX_POINT('',#1205);
#361=VERTEX_POINT('',#1209);
#362=VERTEX_POINT('',#1211);
#363=VERTEX_POINT('',#1215);
#364=VERTEX_POINT('',#1217);
#365=VERTEX_POINT('',#1221);
#366=VERTEX_POINT('',#1223);
#367=VERTEX_POINT('',#1225);
#368=VERTEX_POINT('',#1227);
#369=VERTEX_POINT('',#1229);
#370=VERTEX_POINT('',#1231);
#371=VERTEX_POINT('',#1235);
#372=VERTEX_POINT('',#1237);
#373=VERTEX_POINT('',#1241);
#374=VERTEX_POINT('',#1243);
#375=VERTEX_POINT('',#1245);
#376=VERTEX_POINT('',#1247);
#377=EDGE_CURVE('',#311,#311,#281,.T.);
#378=EDGE_CURVE('',#311,#312,#141,.T.);
#379=EDGE_CURVE('',#312,#312,#282,.T.);
#380=EDGE_CURVE('',#313,#313,#283,.T.);
#381=EDGE_CURVE('',#313,#314,#142,.T.);
#382=EDGE_CURVE('',#314,#314,#284,.T.);
#383=EDGE_CURVE('',#315,#316,#143,.T.);
#384=EDGE_CURVE('',#315,#317,#144,.T.);
#385=EDGE_CURVE('',#317,#318,#145,.T.);
#386=EDGE_CURVE('',#318,#316,#146,.T.);
#387=EDGE_CURVE('',#319,#320,#147,.T.);
#388=EDGE_CURVE('',#320,#321,#148,.T.);
#389=EDGE_CURVE('',#321,#318,#149,.T.);
#390=EDGE_CURVE('',#317,#319,#285,.T.);
#391=EDGE_CURVE('',#322,#323,#150,.T.);
#392=EDGE_CURVE('',#323,#315,#286,.T.);
#393=EDGE_CURVE('',#316,#324,#151,.T.);
#394=EDGE_CURVE('',#322,#324,#152,.T.);
#395=EDGE_CURVE('',#324,#321,#153,.T.);
#396=EDGE_CURVE('',#319,#325,#154,.T.);
#397=EDGE_CURVE('',#325,#326,#155,.T.);
#398=EDGE_CURVE('',#326,#327,#156,.T.);
#399=EDGE_CURVE('',#327,#320,#157,.T.);
#400=EDGE_CURVE('',#322,#328,#158,.T.);
#401=EDGE_CURVE('',#328,#329,#159,.T.);
#402=EDGE_CURVE('',#330,#329,#160,.T.);
#403=EDGE_CURVE('',#330,#331,#161,.T.);
#404=EDGE_CURVE('',#331,#323,#162,.T.);
#405=EDGE_CURVE('',#329,#332,#287,.T.);
#406=EDGE_CURVE('',#333,#328,#288,.T.);
#407=EDGE_CURVE('',#332,#333,#163,.T.);
#408=EDGE_CURVE('',#334,#333,#289,.T.);
#409=EDGE_CURVE('',#335,#334,#164,.T.);
#410=EDGE_CURVE('',#332,#335,#290,.T.);
#411=EDGE_CURVE('',#336,#337,#291,.T.);
#412=EDGE_CURVE('',#338,#336,#165,.T.);
#413=EDGE_CURVE('',#339,#338,#292,.T.);
#414=EDGE_CURVE('',#337,#339,#166,.T.);
#415=EDGE_CURVE('',#339,#340,#167,.T.);
#416=EDGE_CURVE('',#341,#340,#168,.T.);
#417=EDGE_CURVE('',#342,#341,#169,.T.);
#418=EDGE_CURVE('',#342,#343,#170,.T.);
#419=EDGE_CURVE('',#343,#344,#171,.T.);
#420=EDGE_CURVE('',#337,#344,#172,.T.);
#421=EDGE_CURVE('',#344,#345,#173,.T.);
#422=EDGE_CURVE('',#345,#336,#293,.T.);
#423=EDGE_CURVE('',#346,#346,#294,.T.);
#424=EDGE_CURVE('',#335,#330,#174,.T.);
#425=EDGE_CURVE('',#347,#347,#295,.T.);
#426=EDGE_CURVE('',#325,#348,#296,.T.);
#427=EDGE_CURVE('',#348,#349,#175,.T.);
#428=EDGE_CURVE('',#349,#342,#297,.T.);
#429=EDGE_CURVE('',#326,#341,#176,.T.);
#430=EDGE_CURVE('',#341,#326,#298,.T.);
#431=EDGE_CURVE('',#350,#350,#299,.T.);
#432=EDGE_CURVE('',#345,#351,#177,.T.);
#433=EDGE_CURVE('',#338,#351,#300,.T.);
#434=EDGE_CURVE('',#348,#352,#178,.T.);
#435=EDGE_CURVE('',#352,#353,#179,.T.);
#436=EDGE_CURVE('',#353,#349,#180,.T.);
#437=EDGE_CURVE('',#354,#354,#301,.T.);
#438=EDGE_CURVE('',#354,#350,#181,.T.);
#439=EDGE_CURVE('',#327,#340,#302,.T.);
#440=EDGE_CURVE('',#355,#355,#303,.T.);
#441=EDGE_CURVE('',#355,#346,#182,.T.);
#442=EDGE_CURVE('',#356,#356,#304,.T.);
#443=EDGE_CURVE('',#356,#347,#183,.T.);
#444=EDGE_CURVE('',#357,#358,#184,.T.);
#445=EDGE_CURVE('',#359,#358,#185,.T.);
#446=EDGE_CURVE('',#359,#360,#186,.T.);
#447=EDGE_CURVE('',#360,#357,#187,.T.);
#448=EDGE_CURVE('',#358,#361,#188,.T.);
#449=EDGE_CURVE('',#362,#361,#189,.T.);
#450=EDGE_CURVE('',#362,#359,#190,.T.);
#451=EDGE_CURVE('',#361,#363,#191,.T.);
#452=EDGE_CURVE('',#364,#363,#192,.T.);
#453=EDGE_CURVE('',#364,#362,#193,.T.);
#454=EDGE_CURVE('',#357,#365,#194,.F.);
#455=EDGE_CURVE('',#366,#365,#305,.T.);
#456=EDGE_CURVE('',#366,#367,#195,.F.);
#457=EDGE_CURVE('',#367,#368,#196,.T.);
#458=EDGE_CURVE('',#369,#368,#197,.F.);
#459=EDGE_CURVE('',#370,#369,#306,.T.);
#460=EDGE_CURVE('',#370,#363,#198,.F.);
#461=EDGE_CURVE('',#371,#369,#199,.T.);
#462=EDGE_CURVE('',#371,#372,#307,.T.);
#463=EDGE_CURVE('',#370,#372,#200,.T.);
#464=EDGE_CURVE('',#371,#373,#201,.F.);
#465=EDGE_CURVE('',#373,#374,#202,.T.);
#466=EDGE_CURVE('',#375,#374,#203,.T.);
#467=EDGE_CURVE('',#376,#375,#308,.T.);
#468=EDGE_CURVE('',#376,#372,#204,.F.);
#469=EDGE_CURVE('',#376,#365,#205,.T.);
#470=EDGE_CURVE('',#360,#364,#206,.T.);
#471=EDGE_CURVE('',#366,#375,#207,.T.);
#472=EDGE_CURVE('',#374,#367,#208,.T.);
#473=EDGE_CURVE('',#352,#331,#309,.T.);
#474=EDGE_CURVE('',#343,#353,#310,.T.);
#475=EDGE_CURVE('',#351,#334,#209,.T.);
#476=EDGE_CURVE('',#368,#373,#210,.T.);
#477=ORIENTED_EDGE('',*,*,#377,.T.);
#478=ORIENTED_EDGE('',*,*,#378,.T.);
#479=ORIENTED_EDGE('',*,*,#379,.T.);
#480=ORIENTED_EDGE('',*,*,#378,.F.);
#481=ORIENTED_EDGE('',*,*,#380,.T.);
#482=ORIENTED_EDGE('',*,*,#381,.T.);
#483=ORIENTED_EDGE('',*,*,#382,.T.);
#484=ORIENTED_EDGE('',*,*,#381,.F.);
#485=ORIENTED_EDGE('',*,*,#383,.F.);
#486=ORIENTED_EDGE('',*,*,#384,.T.);
#487=ORIENTED_EDGE('',*,*,#385,.T.);
#488=ORIENTED_EDGE('',*,*,#386,.T.);
#489=ORIENTED_EDGE('',*,*,#387,.T.);
#490=ORIENTED_EDGE('',*,*,#388,.T.);
#491=ORIENTED_EDGE('',*,*,#389,.T.);
#492=ORIENTED_EDGE('',*,*,#385,.F.);
#493=ORIENTED_EDGE('',*,*,#390,.T.);
#494=ORIENTED_EDGE('',*,*,#391,.T.);
#495=ORIENTED_EDGE('',*,*,#392,.T.);
#496=ORIENTED_EDGE('',*,*,#383,.T.);
#497=ORIENTED_EDGE('',*,*,#393,.T.);
#498=ORIENTED_EDGE('',*,*,#394,.F.);
#499=ORIENTED_EDGE('',*,*,#393,.F.);
#500=ORIENTED_EDGE('',*,*,#386,.F.);
#501=ORIENTED_EDGE('',*,*,#389,.F.);
#502=ORIENTED_EDGE('',*,*,#395,.F.);
#503=ORIENTED_EDGE('',*,*,#377,.F.);
#504=ORIENTED_EDGE('',*,*,#380,.F.);
#505=ORIENTED_EDGE('',*,*,#387,.F.);
#506=ORIENTED_EDGE('',*,*,#396,.T.);
#507=ORIENTED_EDGE('',*,*,#397,.T.);
#508=ORIENTED_EDGE('',*,*,#398,.T.);
#509=ORIENTED_EDGE('',*,*,#399,.T.);
#510=ORIENTED_EDGE('',*,*,#391,.F.);
#511=ORIENTED_EDGE('',*,*,#400,.T.);
#512=ORIENTED_EDGE('',*,*,#401,.T.);
#513=ORIENTED_EDGE('',*,*,#402,.F.);
#514=ORIENTED_EDGE('',*,*,#403,.T.);
#515=ORIENTED_EDGE('',*,*,#404,.T.);
#516=ORIENTED_EDGE('',*,*,#405,.F.);
#517=ORIENTED_EDGE('',*,*,#401,.F.);
#518=ORIENTED_EDGE('',*,*,#406,.F.);
#519=ORIENTED_EDGE('',*,*,#407,.F.);
#520=ORIENTED_EDGE('',*,*,#407,.T.);
#521=ORIENTED_EDGE('',*,*,#408,.F.);
#522=ORIENTED_EDGE('',*,*,#409,.F.);
#523=ORIENTED_EDGE('',*,*,#410,.F.);
#524=ORIENTED_EDGE('',*,*,#411,.F.);
#525=ORIENTED_EDGE('',*,*,#412,.F.);
#526=ORIENTED_EDGE('',*,*,#413,.F.);
#527=ORIENTED_EDGE('',*,*,#414,.F.);
#528=ORIENTED_EDGE('',*,*,#414,.T.);
#529=ORIENTED_EDGE('',*,*,#415,.T.);
#530=ORIENTED_EDGE('',*,*,#416,.F.);
#531=ORIENTED_EDGE('',*,*,#417,.F.);
#532=ORIENTED_EDGE('',*,*,#418,.T.);
#533=ORIENTED_EDGE('',*,*,#419,.T.);
#534=ORIENTED_EDGE('',*,*,#420,.F.);
#535=ORIENTED_EDGE('',*,*,#421,.T.);
#536=ORIENTED_EDGE('',*,*,#422,.T.);
#537=ORIENTED_EDGE('',*,*,#411,.T.);
#538=ORIENTED_EDGE('',*,*,#420,.T.);
#539=ORIENTED_EDGE('',*,*,#423,.T.);
#540=ORIENTED_EDGE('',*,*,#402,.T.);
#541=ORIENTED_EDGE('',*,*,#405,.T.);
#542=ORIENTED_EDGE('',*,*,#410,.T.);
#543=ORIENTED_EDGE('',*,*,#424,.T.);
#544=ORIENTED_EDGE('',*,*,#425,.T.);
#545=ORIENTED_EDGE('',*,*,#426,.T.);
#546=ORIENTED_EDGE('',*,*,#427,.T.);
#547=ORIENTED_EDGE('',*,*,#428,.T.);
#548=ORIENTED_EDGE('',*,*,#417,.T.);
#549=ORIENTED_EDGE('',*,*,#429,.F.);
#550=ORIENTED_EDGE('',*,*,#397,.F.);
#551=ORIENTED_EDGE('',*,*,#430,.T.);
#552=ORIENTED_EDGE('',*,*,#429,.T.);
#553=ORIENTED_EDGE('',*,*,#431,.T.);
#554=ORIENTED_EDGE('',*,*,#412,.T.);
#555=ORIENTED_EDGE('',*,*,#422,.F.);
#556=ORIENTED_EDGE('',*,*,#432,.T.);
#557=ORIENTED_EDGE('',*,*,#433,.F.);
#558=ORIENTED_EDGE('',*,*,#427,.F.);
#559=ORIENTED_EDGE('',*,*,#434,.T.);
#560=ORIENTED_EDGE('',*,*,#435,.T.);
#561=ORIENTED_EDGE('',*,*,#436,.T.);
#562=ORIENTED_EDGE('',*,*,#437,.F.);
#563=ORIENTED_EDGE('',*,*,#438,.T.);
#564=ORIENTED_EDGE('',*,*,#431,.F.);
#565=ORIENTED_EDGE('',*,*,#438,.F.);
#566=ORIENTED_EDGE('',*,*,#430,.F.);
#567=ORIENTED_EDGE('',*,*,#416,.T.);
#568=ORIENTED_EDGE('',*,*,#439,.F.);
#569=ORIENTED_EDGE('',*,*,#398,.F.);
#570=ORIENTED_EDGE('',*,*,#440,.F.);
#571=ORIENTED_EDGE('',*,*,#441,.T.);
#572=ORIENTED_EDGE('',*,*,#423,.F.);
#573=ORIENTED_EDGE('',*,*,#441,.F.);
#574=ORIENTED_EDGE('',*,*,#442,.F.);
#575=ORIENTED_EDGE('',*,*,#443,.T.);
#576=ORIENTED_EDGE('',*,*,#425,.F.);
#577=ORIENTED_EDGE('',*,*,#443,.F.);
#578=ORIENTED_EDGE('',*,*,#444,.T.);
#579=ORIENTED_EDGE('',*,*,#445,.F.);
#580=ORIENTED_EDGE('',*,*,#446,.T.);
#581=ORIENTED_EDGE('',*,*,#447,.T.);
#582=ORIENTED_EDGE('',*,*,#448,.T.);
#583=ORIENTED_EDGE('',*,*,#449,.F.);
#584=ORIENTED_EDGE('',*,*,#450,.T.);
#585=ORIENTED_EDGE('',*,*,#445,.T.);
#586=ORIENTED_EDGE('',*,*,#451,.T.);
#587=ORIENTED_EDGE('',*,*,#452,.F.);
#588=ORIENTED_EDGE('',*,*,#453,.T.);
#589=ORIENTED_EDGE('',*,*,#449,.T.);
#590=ORIENTED_EDGE('',*,*,#444,.F.);
#591=ORIENTED_EDGE('',*,*,#454,.T.);
#592=ORIENTED_EDGE('',*,*,#455,.F.);
#593=ORIENTED_EDGE('',*,*,#456,.T.);
#594=ORIENTED_EDGE('',*,*,#457,.T.);
#595=ORIENTED_EDGE('',*,*,#458,.F.);
#596=ORIENTED_EDGE('',*,*,#459,.F.);
#597=ORIENTED_EDGE('',*,*,#460,.T.);
#598=ORIENTED_EDGE('',*,*,#451,.F.);
#599=ORIENTED_EDGE('',*,*,#448,.F.);
#600=ORIENTED_EDGE('',*,*,#459,.T.);
#601=ORIENTED_EDGE('',*,*,#461,.F.);
#602=ORIENTED_EDGE('',*,*,#462,.T.);
#603=ORIENTED_EDGE('',*,*,#463,.F.);
#604=ORIENTED_EDGE('',*,*,#462,.F.);
#605=ORIENTED_EDGE('',*,*,#464,.T.);
#606=ORIENTED_EDGE('',*,*,#465,.T.);
#607=ORIENTED_EDGE('',*,*,#466,.F.);
#608=ORIENTED_EDGE('',*,*,#467,.F.);
#609=ORIENTED_EDGE('',*,*,#468,.T.);
#610=ORIENTED_EDGE('',*,*,#463,.T.);
#611=ORIENTED_EDGE('',*,*,#468,.F.);
#612=ORIENTED_EDGE('',*,*,#469,.T.);
#613=ORIENTED_EDGE('',*,*,#454,.F.);
#614=ORIENTED_EDGE('',*,*,#447,.F.);
#615=ORIENTED_EDGE('',*,*,#470,.T.);
#616=ORIENTED_EDGE('',*,*,#452,.T.);
#617=ORIENTED_EDGE('',*,*,#460,.F.);
#618=ORIENTED_EDGE('',*,*,#467,.T.);
#619=ORIENTED_EDGE('',*,*,#471,.F.);
#620=ORIENTED_EDGE('',*,*,#455,.T.);
#621=ORIENTED_EDGE('',*,*,#469,.F.);
#622=ORIENTED_EDGE('',*,*,#471,.T.);
#623=ORIENTED_EDGE('',*,*,#466,.T.);
#624=ORIENTED_EDGE('',*,*,#472,.T.);
#625=ORIENTED_EDGE('',*,*,#456,.F.);
#626=ORIENTED_EDGE('',*,*,#390,.F.);
#627=ORIENTED_EDGE('',*,*,#384,.F.);
#628=ORIENTED_EDGE('',*,*,#392,.F.);
#629=ORIENTED_EDGE('',*,*,#404,.F.);
#630=ORIENTED_EDGE('',*,*,#473,.F.);
#631=ORIENTED_EDGE('',*,*,#434,.F.);
#632=ORIENTED_EDGE('',*,*,#426,.F.);
#633=ORIENTED_EDGE('',*,*,#396,.F.);
#634=ORIENTED_EDGE('',*,*,#421,.F.);
#635=ORIENTED_EDGE('',*,*,#419,.F.);
#636=ORIENTED_EDGE('',*,*,#474,.T.);
#637=ORIENTED_EDGE('',*,*,#435,.F.);
#638=ORIENTED_EDGE('',*,*,#473,.T.);
#639=ORIENTED_EDGE('',*,*,#403,.F.);
#640=ORIENTED_EDGE('',*,*,#424,.F.);
#641=ORIENTED_EDGE('',*,*,#409,.T.);
#642=ORIENTED_EDGE('',*,*,#475,.F.);
#643=ORIENTED_EDGE('',*,*,#432,.F.);
#644=ORIENTED_EDGE('',*,*,#470,.F.);
#645=ORIENTED_EDGE('',*,*,#446,.F.);
#646=ORIENTED_EDGE('',*,*,#450,.F.);
#647=ORIENTED_EDGE('',*,*,#453,.F.);
#648=ORIENTED_EDGE('',*,*,#428,.F.);
#649=ORIENTED_EDGE('',*,*,#436,.F.);
#650=ORIENTED_EDGE('',*,*,#474,.F.);
#651=ORIENTED_EDGE('',*,*,#418,.F.);
#652=ORIENTED_EDGE('',*,*,#461,.T.);
#653=ORIENTED_EDGE('',*,*,#458,.T.);
#654=ORIENTED_EDGE('',*,*,#476,.T.);
#655=ORIENTED_EDGE('',*,*,#464,.F.);
#656=ORIENTED_EDGE('',*,*,#379,.F.);
#657=ORIENTED_EDGE('',*,*,#382,.F.);
#658=ORIENTED_EDGE('',*,*,#399,.F.);
#659=ORIENTED_EDGE('',*,*,#439,.T.);
#660=ORIENTED_EDGE('',*,*,#415,.F.);
#661=ORIENTED_EDGE('',*,*,#413,.T.);
#662=ORIENTED_EDGE('',*,*,#433,.T.);
#663=ORIENTED_EDGE('',*,*,#475,.T.);
#664=ORIENTED_EDGE('',*,*,#408,.T.);
#665=ORIENTED_EDGE('',*,*,#406,.T.);
#666=ORIENTED_EDGE('',*,*,#400,.F.);
#667=ORIENTED_EDGE('',*,*,#394,.T.);
#668=ORIENTED_EDGE('',*,*,#395,.T.);
#669=ORIENTED_EDGE('',*,*,#388,.F.);
#670=ORIENTED_EDGE('',*,*,#440,.T.);
#671=ORIENTED_EDGE('',*,*,#437,.T.);
#672=ORIENTED_EDGE('',*,*,#442,.T.);
#673=ORIENTED_EDGE('',*,*,#472,.F.);
#674=ORIENTED_EDGE('',*,*,#465,.F.);
#675=ORIENTED_EDGE('',*,*,#476,.F.);
#676=ORIENTED_EDGE('',*,*,#457,.F.);
#677=CYLINDRICAL_SURFACE('',#793,1.3);
#678=CYLINDRICAL_SURFACE('',#796,1.3);
#679=CYLINDRICAL_SURFACE('',#807,5.);
#680=CYLINDRICAL_SURFACE('',#810,3.);
#681=CYLINDRICAL_SURFACE('',#813,5.);
#682=CYLINDRICAL_SURFACE('',#828,3.);
#683=CYLINDRICAL_SURFACE('',#831,1.6);
#684=CYLINDRICAL_SURFACE('',#833,41.5208333333334);
#685=CYLINDRICAL_SURFACE('',#835,1.6);
#686=CYLINDRICAL_SURFACE('',#837,1.6);
#687=CYLINDRICAL_SURFACE('',#845,5.);
#688=CYLINDRICAL_SURFACE('',#850,5.);
#689=CYLINDRICAL_SURFACE('',#852,5.);
#690=CYLINDRICAL_SURFACE('',#856,5.);
#691=STYLED_ITEM('',(#1299),#734);
#692=STYLED_ITEM('',(#1299),#735);
#693=STYLED_ITEM('',(#1299),#736);
#694=STYLED_ITEM('',(#1299),#737);
#695=STYLED_ITEM('',(#1299),#738);
#696=STYLED_ITEM('',(#1299),#739);
#697=STYLED_ITEM('',(#1299),#740);
#698=STYLED_ITEM('',(#1299),#741);
#699=STYLED_ITEM('',(#1299),#742);
#700=STYLED_ITEM('',(#1299),#743);
#701=STYLED_ITEM('',(#1299),#744);
#702=STYLED_ITEM('',(#1299),#745);
#703=STYLED_ITEM('',(#1299),#746);
#704=STYLED_ITEM('',(#1299),#747);
#705=STYLED_ITEM('',(#1299),#748);
#706=STYLED_ITEM('',(#1299),#749);
#707=STYLED_ITEM('',(#1299),#750);
#708=STYLED_ITEM('',(#1299),#751);
#709=STYLED_ITEM('',(#1299),#752);
#710=STYLED_ITEM('',(#1299),#753);
#711=STYLED_ITEM('',(#1299),#754);
#712=STYLED_ITEM('',(#1299),#755);
#713=STYLED_ITEM('',(#1299),#756);
#714=STYLED_ITEM('',(#1299),#757);
#715=STYLED_ITEM('',(#1299),#758);
#716=STYLED_ITEM('',(#1299),#759);
#717=STYLED_ITEM('',(#1299),#760);
#718=STYLED_ITEM('',(#1299),#761);
#719=STYLED_ITEM('',(#1299),#762);
#720=STYLED_ITEM('',(#1299),#763);
#721=STYLED_ITEM('',(#1299),#764);
#722=STYLED_ITEM('',(#1299),#765);
#723=STYLED_ITEM('',(#1299),#766);
#724=STYLED_ITEM('',(#1299),#767);
#725=STYLED_ITEM('',(#1299),#768);
#726=STYLED_ITEM('',(#1299),#769);
#727=STYLED_ITEM('',(#1298),#22);
#728=STYLED_ITEM('',(#1300),#16);
#729=STYLED_ITEM('',(#1300),#17);
#730=STYLED_ITEM('',(#1300),#18);
#731=STYLED_ITEM('',(#1300),#19);
#732=STYLED_ITEM('',(#1300),#20);
#733=STYLED_ITEM('',(#1300),#21);
#734=ADVANCED_FACE('',(#57),#677,.F.);
#735=ADVANCED_FACE('',(#58),#678,.F.);
#736=ADVANCED_FACE('',(#59),#35,.F.);
#737=ADVANCED_FACE('',(#60),#36,.F.);
#738=ADVANCED_FACE('',(#61),#37,.F.);
#739=ADVANCED_FACE('',(#62,#23,#24),#38,.F.);
#740=ADVANCED_FACE('',(#63),#39,.F.);
#741=ADVANCED_FACE('',(#64),#40,.F.);
#742=ADVANCED_FACE('',(#65),#679,.F.);
#743=ADVANCED_FACE('',(#66),#680,.T.);
#744=ADVANCED_FACE('',(#67),#681,.F.);
#745=ADVANCED_FACE('',(#68),#41,.F.);
#746=ADVANCED_FACE('',(#69,#25),#42,.F.);
#747=ADVANCED_FACE('',(#70,#26),#43,.F.);
#748=ADVANCED_FACE('',(#71),#44,.T.);
#749=ADVANCED_FACE('',(#72,#27),#45,.F.);
#750=ADVANCED_FACE('',(#73),#682,.T.);
#751=ADVANCED_FACE('',(#74),#46,.T.);
#752=ADVANCED_FACE('',(#75),#683,.F.);
#753=ADVANCED_FACE('',(#76),#684,.T.);
#754=ADVANCED_FACE('',(#77),#685,.F.);
#755=ADVANCED_FACE('',(#78),#686,.F.);
#756=ADVANCED_FACE('',(#79),#47,.T.);
#757=ADVANCED_FACE('',(#80),#48,.T.);
#758=ADVANCED_FACE('',(#81),#49,.T.);
#759=ADVANCED_FACE('',(#82),#50,.T.);
#760=ADVANCED_FACE('',(#83),#687,.F.);
#761=ADVANCED_FACE('',(#84),#51,.T.);
#762=ADVANCED_FACE('',(#85),#52,.F.);
#763=ADVANCED_FACE('',(#86),#688,.F.);
#764=ADVANCED_FACE('',(#87),#53,.T.);
#765=ADVANCED_FACE('',(#88),#689,.T.);
#766=ADVANCED_FACE('',(#89,#28),#54,.F.);
#767=ADVANCED_FACE('',(#90),#690,.T.);
#768=ADVANCED_FACE('',(#91,#29,#30),#55,.T.);
#769=ADVANCED_FACE('',(#92,#31,#32,#33,#34),#56,.F.);
#770=CLOSED_SHELL('',(#734,#735,#736,#737,#738,#739,#740,#741,#742,#743,
#744,#745,#746,#747,#748,#749,#750,#751,#752,#753,#754,#755,#756,#757,#758,
#759,#760,#761,#762,#763,#764,#765,#766,#767,#768,#769));
#771=DERIVED_UNIT_ELEMENT(#774,1.);
#772=DERIVED_UNIT_ELEMENT(#1284,-3.);
#773=DIMENSIONAL_EXPONENTS(0.,1.,0.,0.,0.,0.,0.);
#774=(
CONVERSION_BASED_UNIT('gram',#776)
MASS_UNIT()
NAMED_UNIT(#773)
);
#775=(
MASS_UNIT()
NAMED_UNIT(*)
SI_UNIT(.KILO.,.GRAM.)
);
#776=MASS_MEASURE_WITH_UNIT(MASS_MEASURE(0.001),#775);
#777=DERIVED_UNIT((#771,#772));
#778=MEASURE_REPRESENTATION_ITEM('density measure',
POSITIVE_RATIO_MEASURE(1.),#777);
#779=PROPERTY_DEFINITION_REPRESENTATION(#784,#781);
#780=PROPERTY_DEFINITION_REPRESENTATION(#785,#782);
#781=REPRESENTATION('material name',(#783),#1281);
#782=REPRESENTATION('density',(#778),#1281);
#783=DESCRIPTIVE_REPRESENTATION_ITEM('\X2\4E00822C\X0\','\X2\4E00822C\X0\');
#784=PROPERTY_DEFINITION('material property','material name',#1291);
#785=PROPERTY_DEFINITION('material property','density of part',#1291);
#786=DATE_TIME_ROLE('creation_date');
#787=APPLIED_DATE_AND_TIME_ASSIGNMENT(#788,#786,(#1291));
#788=DATE_AND_TIME(#789,#790);
#789=CALENDAR_DATE(2026,3,2);
#790=LOCAL_TIME(0,0,0.,#791);
#791=COORDINATED_UNIVERSAL_TIME_OFFSET(0,0,.BEHIND.);
#792=AXIS2_PLACEMENT_3D('',#1063,#859,#860);
#793=AXIS2_PLACEMENT_3D('',#1064,#861,#862);
#794=AXIS2_PLACEMENT_3D('',#1066,#863,#864);
#795=AXIS2_PLACEMENT_3D('',#1069,#866,#867);
#796=AXIS2_PLACEMENT_3D('',#1070,#868,#869);
#797=AXIS2_PLACEMENT_3D('',#1072,#870,#871);
#798=AXIS2_PLACEMENT_3D('',#1075,#873,#874);
#799=AXIS2_PLACEMENT_3D('',#1076,#875,#876);
#800=AXIS2_PLACEMENT_3D('',#1085,#881,#882);
#801=AXIS2_PLACEMENT_3D('',#1092,#886,#887);
#802=AXIS2_PLACEMENT_3D('',#1093,#888,#889);
#803=AXIS2_PLACEMENT_3D('',#1097,#891,#892);
#804=AXIS2_PLACEMENT_3D('',#1101,#895,#896);
#805=AXIS2_PLACEMENT_3D('',#1103,#898,#899);
#806=AXIS2_PLACEMENT_3D('',#1111,#904,#905);
#807=AXIS2_PLACEMENT_3D('',#1121,#911,#912);
#808=AXIS2_PLACEMENT_3D('',#1123,#913,#914);
#809=AXIS2_PLACEMENT_3D('',#1125,#915,#916);
#810=AXIS2_PLACEMENT_3D('',#1127,#918,#919);
#811=AXIS2_PLACEMENT_3D('',#1129,#920,#921);
#812=AXIS2_PLACEMENT_3D('',#1132,#923,#924);
#813=AXIS2_PLACEMENT_3D('',#1133,#925,#926);
#814=AXIS2_PLACEMENT_3D('',#1136,#927,#928);
#815=AXIS2_PLACEMENT_3D('',#1140,#930,#931);
#816=AXIS2_PLACEMENT_3D('',#1142,#933,#934);
#817=AXIS2_PLACEMENT_3D('',#1154,#941,#942);
#818=AXIS2_PLACEMENT_3D('',#1157,#944,#945);
#819=AXIS2_PLACEMENT_3D('',#1159,#946,#947);
#820=AXIS2_PLACEMENT_3D('',#1160,#948,#949);
#821=AXIS2_PLACEMENT_3D('',#1163,#951,#952);
#822=AXIS2_PLACEMENT_3D('',#1164,#953,#954);
#823=AXIS2_PLACEMENT_3D('',#1166,#955,#956);
#824=AXIS2_PLACEMENT_3D('',#1169,#958,#959);
#825=AXIS2_PLACEMENT_3D('',#1171,#961,#962);
#826=AXIS2_PLACEMENT_3D('',#1172,#963,#964);
#827=AXIS2_PLACEMENT_3D('',#1174,#965,#966);
#828=AXIS2_PLACEMENT_3D('',#1175,#967,#968);
#829=AXIS2_PLACEMENT_3D('',#1178,#970,#971);
#830=AXIS2_PLACEMENT_3D('',#1179,#972,#973);
#831=AXIS2_PLACEMENT_3D('',#1185,#977,#978);
#832=AXIS2_PLACEMENT_3D('',#1187,#979,#980);
#833=AXIS2_PLACEMENT_3D('',#1189,#982,#983);
#834=AXIS2_PLACEMENT_3D('',#1190,#984,#985);
#835=AXIS2_PLACEMENT_3D('',#1191,#986,#987);
#836=AXIS2_PLACEMENT_3D('',#1193,#988,#989);
#837=AXIS2_PLACEMENT_3D('',#1195,#991,#992);
#838=AXIS2_PLACEMENT_3D('',#1197,#993,#994);
#839=AXIS2_PLACEMENT_3D('',#1199,#996,#997);
#840=AXIS2_PLACEMENT_3D('',#1208,#1002,#1003);
#841=AXIS2_PLACEMENT_3D('',#1214,#1007,#1008);
#842=AXIS2_PLACEMENT_3D('',#1220,#1012,#1013);
#843=AXIS2_PLACEMENT_3D('',#1224,#1015,#1016);
#844=AXIS2_PLACEMENT_3D('',#1232,#1020,#1021);
#845=AXIS2_PLACEMENT_3D('',#1234,#1023,#1024);
#846=AXIS2_PLACEMENT_3D('',#1238,#1026,#1027);
#847=AXIS2_PLACEMENT_3D('',#1240,#1029,#1030);
#848=AXIS2_PLACEMENT_3D('',#1248,#1034,#1035);
#849=AXIS2_PLACEMENT_3D('',#1250,#1037,#1038);
#850=AXIS2_PLACEMENT_3D('',#1253,#1041,#1042);
#851=AXIS2_PLACEMENT_3D('',#1255,#1044,#1045);
#852=AXIS2_PLACEMENT_3D('',#1257,#1047,#1048);
#853=AXIS2_PLACEMENT_3D('',#1258,#1049,#1050);
#854=AXIS2_PLACEMENT_3D('',#1259,#1051,#1052);
#855=AXIS2_PLACEMENT_3D('',#1260,#1053,#1054);
#856=AXIS2_PLACEMENT_3D('',#1262,#1056,#1057);
#857=AXIS2_PLACEMENT_3D('',#1263,#1058,#1059);
#858=AXIS2_PLACEMENT_3D('',#1265,#1061,#1062);
#859=DIRECTION('axis',(0.,0.,1.));
#860=DIRECTION('refdir',(1.,0.,0.));
#861=DIRECTION('center_axis',(1.,0.,-9.55030558817341E-17));
#862=DIRECTION('ref_axis',(9.55030558817341E-17,0.,1.));
#863=DIRECTION('center_axis',(1.,0.,-1.11022302462516E-16));
#864=DIRECTION('ref_axis',(9.55030558817341E-17,0.,1.));
#865=DIRECTION('',(-1.,0.,9.55030558817341E-17));
#866=DIRECTION('center_axis',(-1.,0.,9.15647855360954E-17));
#867=DIRECTION('ref_axis',(9.55030558817341E-17,0.,1.));
#868=DIRECTION('center_axis',(1.,0.,0.));
#869=DIRECTION('ref_axis',(0.,0.,1.));
#870=DIRECTION('center_axis',(1.,0.,-1.11022302462516E-16));
#871=DIRECTION('ref_axis',(0.,0.,1.));
#872=DIRECTION('',(-1.,0.,0.));
#873=DIRECTION('center_axis',(-1.,0.,9.15647855360954E-17));
#874=DIRECTION('ref_axis',(0.,0.,1.));
#875=DIRECTION('center_axis',(1.35585468084861E-32,1.,1.22124532708767E-16));
#876=DIRECTION('ref_axis',(9.15647855360954E-17,-1.22124532708767E-16,1.));
#877=DIRECTION('',(1.,-4.44089209850065E-15,-1.11022302462516E-16));
#878=DIRECTION('',(-9.15647855360954E-17,0.,-1.));
#879=DIRECTION('',(1.,0.,-1.11022302462516E-16));
#880=DIRECTION('',(9.15647855360954E-17,-1.22124532708767E-16,1.));
#881=DIRECTION('center_axis',(1.11022302462516E-16,4.44089209850063E-16,
1.));
#882=DIRECTION('ref_axis',(4.06629332588151E-32,-1.,4.44089209850063E-16));
#883=DIRECTION('',(-4.06629332588151E-32,1.,-4.44089209850063E-16));
#884=DIRECTION('',(1.,0.,-1.11022302462516E-16));
#885=DIRECTION('',(4.06629332588151E-32,-1.,4.44089209850063E-16));
#886=DIRECTION('center_axis',(1.11022302462516E-16,4.44089209850063E-16,
1.));
#887=DIRECTION('ref_axis',(0.707106781186548,-0.707106781186547,0.));
#888=DIRECTION('center_axis',(-1.11022302462516E-16,0.,-1.));
#889=DIRECTION('ref_axis',(0.,1.,0.));
#890=DIRECTION('',(0.,-1.,0.));
#891=DIRECTION('center_axis',(-1.11022302462516E-16,0.,-1.));
#892=DIRECTION('ref_axis',(0.707106781186548,-0.707106781186547,0.));
#893=DIRECTION('',(0.,1.,0.));
#894=DIRECTION('',(1.,0.,-1.11022302462516E-16));
#895=DIRECTION('center_axis',(-1.,0.,1.11022302462516E-16));
#896=DIRECTION('ref_axis',(1.11022302462516E-16,0.,1.));
#897=DIRECTION('',(-9.15647855360954E-17,0.,-1.));
#898=DIRECTION('center_axis',(-1.,0.,9.15647855360954E-17));
#899=DIRECTION('ref_axis',(9.15647855360954E-17,0.,1.));
#900=DIRECTION('',(-9.15647855360954E-17,0.,-1.));
#901=DIRECTION('',(0.,1.,0.));
#902=DIRECTION('',(0.,1.,0.));
#903=DIRECTION('',(9.15647855360954E-17,0.,1.));
#904=DIRECTION('center_axis',(-1.,0.,9.15647855360954E-17));
#905=DIRECTION('ref_axis',(9.15647855360954E-17,0.,1.));
#906=DIRECTION('',(9.15647855360954E-17,0.,1.));
#907=DIRECTION('',(0.,-1.,0.));
#908=DIRECTION('',(-9.15647855360954E-17,0.,-1.));
#909=DIRECTION('',(0.,-1.,0.));
#910=DIRECTION('',(-9.15647855360954E-17,0.,-1.));
#911=DIRECTION('center_axis',(0.,-1.,0.));
#912=DIRECTION('ref_axis',(-0.790569415042095,0.,0.612372435695795));
#913=DIRECTION('center_axis',(0.,1.,0.));
#914=DIRECTION('ref_axis',(-0.790569415042095,0.,0.612372435695795));
#915=DIRECTION('center_axis',(0.,-1.,0.));
#916=DIRECTION('ref_axis',(-0.790569415042095,0.,0.612372435695795));
#917=DIRECTION('',(0.,1.,0.));
#918=DIRECTION('center_axis',(0.,-1.,0.));
#919=DIRECTION('ref_axis',(1.,0.,0.));
#920=DIRECTION('center_axis',(0.,1.,0.));
#921=DIRECTION('ref_axis',(1.,0.,0.));
#922=DIRECTION('',(0.,1.,0.));
#923=DIRECTION('center_axis',(0.,-1.,0.));
#924=DIRECTION('ref_axis',(1.,0.,0.));
#925=DIRECTION('center_axis',(0.,-1.,0.));
#926=DIRECTION('ref_axis',(0.790569415042095,0.,0.612372435695795));
#927=DIRECTION('center_axis',(0.,1.,0.));
#928=DIRECTION('ref_axis',(0.790569415042095,0.,0.612372435695795));
#929=DIRECTION('',(0.,-1.,0.));
#930=DIRECTION('center_axis',(0.,-1.,0.));
#931=DIRECTION('ref_axis',(0.790569415042095,0.,0.612372435695795));
#932=DIRECTION('',(0.,1.,0.));
#933=DIRECTION('center_axis',(1.,0.,4.57823927680477E-17));
#934=DIRECTION('ref_axis',(4.57823927680477E-17,0.,-1.));
#935=DIRECTION('',(4.57823927680477E-17,0.,-1.));
#936=DIRECTION('',(0.,1.,0.));
#937=DIRECTION('',(0.,1.,0.));
#938=DIRECTION('',(-4.57823927680477E-17,0.,1.));
#939=DIRECTION('',(0.,1.,0.));
#940=DIRECTION('',(-4.57823927680477E-17,0.,1.));
#941=DIRECTION('center_axis',(0.,1.,0.));
#942=DIRECTION('ref_axis',(0.,0.,1.));
#943=DIRECTION('',(-1.,0.,0.));
#944=DIRECTION('center_axis',(0.,-1.,0.));
#945=DIRECTION('ref_axis',(1.,0.,0.));
#946=DIRECTION('center_axis',(0.,1.,0.));
#947=DIRECTION('ref_axis',(-1.,0.,0.));
#948=DIRECTION('center_axis',(0.,1.,0.));
#949=DIRECTION('ref_axis',(0.,0.,1.));
#950=DIRECTION('',(-1.,0.,0.));
#951=DIRECTION('center_axis',(0.,1.,0.));
#952=DIRECTION('ref_axis',(-1.,0.,0.));
#953=DIRECTION('center_axis',(0.,0.,-1.));
#954=DIRECTION('ref_axis',(-1.,0.,0.));
#955=DIRECTION('center_axis',(0.,0.,-1.));
#956=DIRECTION('ref_axis',(0.707106781186548,-0.707106781186547,0.));
#957=DIRECTION('',(-1.,0.,0.));
#958=DIRECTION('center_axis',(0.,0.,-1.));
#959=DIRECTION('ref_axis',(-0.707106781186547,-0.707106781186547,0.));
#960=DIRECTION('',(-1.,0.,0.));
#961=DIRECTION('center_axis',(0.,1.,0.));
#962=DIRECTION('ref_axis',(0.,0.,1.));
#963=DIRECTION('center_axis',(0.,-1.,0.));
#964=DIRECTION('ref_axis',(0.517812343201204,0.,-0.855494229804315));
#965=DIRECTION('center_axis',(0.,1.,0.));
#966=DIRECTION('ref_axis',(-1.,0.,0.));
#967=DIRECTION('center_axis',(0.,-1.,0.));
#968=DIRECTION('ref_axis',(-0.992029696267167,0.,0.126004292482728));
#969=DIRECTION('',(0.,1.,0.));
#970=DIRECTION('center_axis',(0.,1.,0.));
#971=DIRECTION('ref_axis',(1.,0.,0.));
#972=DIRECTION('center_axis',(0.,-1.,0.));
#973=DIRECTION('ref_axis',(0.,0.,-1.));
#974=DIRECTION('',(9.15647855360954E-17,0.,1.));
#975=DIRECTION('',(-1.,0.,0.));
#976=DIRECTION('',(4.57823927680477E-17,0.,-1.));
#977=DIRECTION('center_axis',(0.,-1.,0.));
#978=DIRECTION('ref_axis',(-1.,0.,0.));
#979=DIRECTION('center_axis',(0.,-1.,0.));
#980=DIRECTION('ref_axis',(-1.,0.,0.));
#981=DIRECTION('',(0.,-1.,0.));
#982=DIRECTION('center_axis',(0.,-1.,0.));
#983=DIRECTION('ref_axis',(0.517812343201204,0.,-0.855494229804315));
#984=DIRECTION('center_axis',(0.,1.,0.));
#985=DIRECTION('ref_axis',(0.517812343201204,0.,-0.855494229804315));
#986=DIRECTION('center_axis',(0.,-1.,0.));
#987=DIRECTION('ref_axis',(-1.,0.,0.));
#988=DIRECTION('center_axis',(0.,-1.,0.));
#989=DIRECTION('ref_axis',(-1.,0.,0.));
#990=DIRECTION('',(0.,-1.,0.));
#991=DIRECTION('center_axis',(0.,-1.,0.));
#992=DIRECTION('ref_axis',(-1.,0.,0.));
#993=DIRECTION('center_axis',(0.,-1.,0.));
#994=DIRECTION('ref_axis',(-1.,0.,0.));
#995=DIRECTION('',(0.,-1.,0.));
#996=DIRECTION('center_axis',(1.,0.,0.));
#997=DIRECTION('ref_axis',(0.,-1.,0.));
#998=DIRECTION('',(0.,1.,0.));
#999=DIRECTION('',(0.,0.,-1.));
#1000=DIRECTION('',(0.,-1.,0.));
#1001=DIRECTION('',(0.,0.,-1.));
#1002=DIRECTION('center_axis',(0.,-1.,0.));
#1003=DIRECTION('ref_axis',(-1.,0.,0.));
#1004=DIRECTION('',(1.,0.,0.));
#1005=DIRECTION('',(0.,0.,-1.));
#1006=DIRECTION('',(-1.,0.,0.));
#1007=DIRECTION('center_axis',(-1.,4.16333634234434E-16,0.));
#1008=DIRECTION('ref_axis',(4.16333634234434E-16,1.,0.));
#1009=DIRECTION('',(-4.16333634234434E-16,-1.,0.));
#1010=DIRECTION('',(0.,0.,-1.));
#1011=DIRECTION('',(4.16333634234434E-16,1.,0.));
#1012=DIRECTION('center_axis',(0.,0.,-1.));
#1013=DIRECTION('ref_axis',(-1.,0.,0.));
#1014=DIRECTION('',(1.,0.,0.));
#1015=DIRECTION('center_axis',(0.,0.,1.));
#1016=DIRECTION('ref_axis',(-0.707106781186547,-0.707106781186547,0.));
#1017=DIRECTION('',(0.,-1.,0.));
#1018=DIRECTION('',(1.,0.,0.));
#1019=DIRECTION('',(0.,-1.,0.));
#1020=DIRECTION('center_axis',(0.,0.,1.));
#1021=DIRECTION('ref_axis',(0.707106781186547,-0.707106781186548,0.));
#1022=DIRECTION('',(1.,0.,0.));
#1023=DIRECTION('center_axis',(-9.15647855360954E-17,0.,-1.));
#1024=DIRECTION('ref_axis',(0.707106781186547,-0.707106781186548,0.));
#1025=DIRECTION('',(9.15647855360954E-17,0.,1.));
#1026=DIRECTION('center_axis',(0.,0.,-1.));
#1027=DIRECTION('ref_axis',(0.707106781186547,-0.707106781186548,0.));
#1028=DIRECTION('',(-9.15647855360954E-17,0.,-1.));
#1029=DIRECTION('center_axis',(0.,0.,1.));
#1030=DIRECTION('ref_axis',(1.,0.,0.));
#1031=DIRECTION('',(0.,-1.,0.));
#1032=DIRECTION('',(-1.,0.,0.));
#1033=DIRECTION('',(0.,1.,0.));
#1034=DIRECTION('center_axis',(0.,0.,-1.));
#1035=DIRECTION('ref_axis',(-0.707106781186547,-0.707106781186547,0.));
#1036=DIRECTION('',(-1.,0.,0.));
#1037=DIRECTION('center_axis',(0.,-1.,0.));
#1038=DIRECTION('ref_axis',(0.,0.,-1.));
#1039=DIRECTION('',(-4.57823927680477E-17,0.,1.));
#1040=DIRECTION('',(1.,0.,0.));
#1041=DIRECTION('center_axis',(-4.57823927680477E-17,0.,1.));
#1042=DIRECTION('ref_axis',(-0.707106781186547,-0.707106781186547,0.));
#1043=DIRECTION('',(4.57823927680477E-17,0.,-1.));
#1044=DIRECTION('center_axis',(1.,0.,4.57823927680477E-17));
#1045=DIRECTION('ref_axis',(4.57823927680477E-17,0.,-1.));
#1046=DIRECTION('',(-4.57823927680477E-17,0.,1.));
#1047=DIRECTION('center_axis',(-9.15647855360954E-17,0.,-1.));
#1048=DIRECTION('ref_axis',(0.707106781186548,-0.707106781186547,0.));
#1049=DIRECTION('center_axis',(0.,0.,1.));
#1050=DIRECTION('ref_axis',(0.707106781186548,-0.707106781186547,0.));
#1051=DIRECTION('center_axis',(0.,0.,-1.));
#1052=DIRECTION('ref_axis',(-1.,0.,0.));
#1053=DIRECTION('center_axis',(0.,0.,1.));
#1054=DIRECTION('ref_axis',(-0.707106781186547,-0.707106781186547,0.));
#1055=DIRECTION('',(1.,0.,1.81260901979617E-16));
#1056=DIRECTION('center_axis',(-4.57823927680477E-17,0.,1.));
#1057=DIRECTION('ref_axis',(-0.707106781186547,-0.707106781186547,0.));
#1058=DIRECTION('center_axis',(-1.,0.,9.15647855360954E-17));
#1059=DIRECTION('ref_axis',(9.15647855360954E-17,0.,1.));
#1060=DIRECTION('',(-9.15647855360954E-17,0.,-1.));
#1061=DIRECTION('center_axis',(0.,-1.,0.));
#1062=DIRECTION('ref_axis',(0.,0.,-1.));
#1063=CARTESIAN_POINT('',(0.,0.,0.));
#1064=CARTESIAN_POINT('Origin',(26.5,9.,-9.49999999999999));
#1065=CARTESIAN_POINT('',(26.5,9.,-10.8));
#1066=CARTESIAN_POINT('Origin',(26.5,9.,-9.49999999999999));
#1067=CARTESIAN_POINT('',(20.,9.,-10.8));
#1068=CARTESIAN_POINT('',(26.5,9.,-10.8));
#1069=CARTESIAN_POINT('Origin',(20.,9.,-9.49999999999999));
#1070=CARTESIAN_POINT('Origin',(26.5,9.,-22.5));
#1071=CARTESIAN_POINT('',(26.5,9.,-23.8));
#1072=CARTESIAN_POINT('Origin',(26.5,9.,-22.5));
#1073=CARTESIAN_POINT('',(20.,9.,-23.8));
#1074=CARTESIAN_POINT('',(26.5,9.,-23.8));
#1075=CARTESIAN_POINT('Origin',(20.,9.,-22.5));
#1076=CARTESIAN_POINT('Origin',(21.5,4.,-28.5));
#1077=CARTESIAN_POINT('',(21.3989794855664,4.00000000000002,-3.49999999999999));
#1078=CARTESIAN_POINT('',(26.5,4.,-3.49999999999999));
#1079=CARTESIAN_POINT('',(21.4747448713916,4.00000000000002,-3.49999999999999));
#1080=CARTESIAN_POINT('',(21.3989794855664,4.00000000000001,-28.5));
#1081=CARTESIAN_POINT('',(21.3989794855664,4.00000000000001,-24.25));
#1082=CARTESIAN_POINT('',(26.5,4.,-28.5));
#1083=CARTESIAN_POINT('',(21.5,4.,-28.5));
#1084=CARTESIAN_POINT('',(26.5,4.,-28.5));
#1085=CARTESIAN_POINT('Origin',(21.5,14.,-28.5));
#1086=CARTESIAN_POINT('',(21.5,5.,-28.5));
#1087=CARTESIAN_POINT('',(21.5,14.,-28.5));
#1088=CARTESIAN_POINT('',(21.5,7.00000000000001,-28.5));
#1089=CARTESIAN_POINT('',(26.5,14.,-28.5));
#1090=CARTESIAN_POINT('',(21.5,14.,-28.5));
#1091=CARTESIAN_POINT('',(26.5,14.,-28.5));
#1092=CARTESIAN_POINT('Origin',(16.5,5.,-28.5));
#1093=CARTESIAN_POINT('Origin',(21.5,4.,-3.49999999999999));
#1094=CARTESIAN_POINT('',(21.5,14.,-3.49999999999999));
#1095=CARTESIAN_POINT('',(21.5,5.,-3.49999999999999));
#1096=CARTESIAN_POINT('',(21.5,2.,-3.49999999999999));
#1097=CARTESIAN_POINT('Origin',(16.5,5.,-3.49999999999999));
#1098=CARTESIAN_POINT('',(26.5,14.,-3.49999999999999));
#1099=CARTESIAN_POINT('',(26.5,4.,-3.49999999999999));
#1100=CARTESIAN_POINT('',(21.5,14.,-3.49999999999999));
#1101=CARTESIAN_POINT('Origin',(26.5,9.,-16.));
#1102=CARTESIAN_POINT('',(26.5,14.,-3.49999999999999));
#1103=CARTESIAN_POINT('Origin',(21.5,0.,-48.5));
#1104=CARTESIAN_POINT('',(21.5,5.,-48.5));
#1105=CARTESIAN_POINT('',(21.5,5.,-24.25));
#1106=CARTESIAN_POINT('',(21.5,11.,-48.5));
#1107=CARTESIAN_POINT('',(21.5,0.,-48.5));
#1108=CARTESIAN_POINT('',(21.5,14.,-48.5));
#1109=CARTESIAN_POINT('',(21.5,0.,-48.5));
#1110=CARTESIAN_POINT('',(21.5,14.,-48.5));
#1111=CARTESIAN_POINT('Origin',(21.5,0.,-48.5));
#1112=CARTESIAN_POINT('',(21.5,14.,37.7540333075852));
#1113=CARTESIAN_POINT('',(21.5,14.,-48.5));
#1114=CARTESIAN_POINT('',(21.5,11.,37.7540333075852));
#1115=CARTESIAN_POINT('',(21.5,0.,37.7540333075852));
#1116=CARTESIAN_POINT('',(21.5,11.,48.5));
#1117=CARTESIAN_POINT('',(21.5,11.,-48.5));
#1118=CARTESIAN_POINT('',(21.5,5.,48.5));
#1119=CARTESIAN_POINT('',(21.5,0.,48.5));
#1120=CARTESIAN_POINT('',(21.5,5.,-24.25));
#1121=CARTESIAN_POINT('Origin',(26.5,0.,37.7540333075852));
#1122=CARTESIAN_POINT('',(25.25,11.,42.5952624903444));
#1123=CARTESIAN_POINT('Origin',(26.5,11.,37.7540333075852));
#1124=CARTESIAN_POINT('',(25.25,14.,42.5952624903444));
#1125=CARTESIAN_POINT('Origin',(26.5,14.,37.7540333075852));
#1126=CARTESIAN_POINT('',(25.25,0.,42.5952624903444));
#1127=CARTESIAN_POINT('Origin',(24.5,0.,45.5));
#1128=CARTESIAN_POINT('',(24.5,14.,48.5));
#1129=CARTESIAN_POINT('Origin',(24.5,14.,45.5));
#1130=CARTESIAN_POINT('',(24.5,11.,48.5));
#1131=CARTESIAN_POINT('',(24.5,0.,48.5));
#1132=CARTESIAN_POINT('Origin',(24.5,11.,45.5));
#1133=CARTESIAN_POINT('Origin',(-26.5,0.,37.7540333075852));
#1134=CARTESIAN_POINT('',(-25.25,11.,42.5952624903444));
#1135=CARTESIAN_POINT('',(-21.5,11.,37.7540333075852));
#1136=CARTESIAN_POINT('Origin',(-26.5,11.,37.7540333075852));
#1137=CARTESIAN_POINT('',(-25.25,14.,42.5952624903444));
#1138=CARTESIAN_POINT('',(-25.25,0.,42.5952624903444));
#1139=CARTESIAN_POINT('',(-21.5,14.,37.7540333075852));
#1140=CARTESIAN_POINT('Origin',(-26.5,14.,37.7540333075852));
#1141=CARTESIAN_POINT('',(-21.5,0.,37.7540333075852));
#1142=CARTESIAN_POINT('Origin',(-21.5,0.,48.5));
#1143=CARTESIAN_POINT('',(-21.5,14.,-48.5));
#1144=CARTESIAN_POINT('',(-21.5,14.,48.5));
#1145=CARTESIAN_POINT('',(-21.5,11.,-48.5));
#1146=CARTESIAN_POINT('',(-21.5,0.,-48.5));
#1147=CARTESIAN_POINT('',(-21.5,5.,-48.5));
#1148=CARTESIAN_POINT('',(-21.5,0.,-48.5));
#1149=CARTESIAN_POINT('',(-21.5,5.,48.5));
#1150=CARTESIAN_POINT('',(-21.5,5.,24.25));
#1151=CARTESIAN_POINT('',(-21.5,11.,48.5));
#1152=CARTESIAN_POINT('',(-21.5,0.,48.5));
#1153=CARTESIAN_POINT('',(-21.5,11.,48.5));
#1154=CARTESIAN_POINT('Origin',(-24.5,11.,45.5));
#1155=CARTESIAN_POINT('',(-24.5,11.,48.5));
#1156=CARTESIAN_POINT('',(-1.5,11.,48.5));
#1157=CARTESIAN_POINT('Origin',(-24.5,11.,45.5));
#1158=CARTESIAN_POINT('',(-22.9,11.,45.5));
#1159=CARTESIAN_POINT('Origin',(-24.5,11.,45.5));
#1160=CARTESIAN_POINT('Origin',(24.5,11.,45.5));
#1161=CARTESIAN_POINT('',(23.,11.,48.5));
#1162=CARTESIAN_POINT('',(26.1,11.,45.5));
#1163=CARTESIAN_POINT('Origin',(24.5,11.,45.5));
#1164=CARTESIAN_POINT('Origin',(21.5,0.,-48.5));
#1165=CARTESIAN_POINT('',(16.5,0.,-48.5));
#1166=CARTESIAN_POINT('Origin',(16.5,5.,-48.5));
#1167=CARTESIAN_POINT('',(-16.5,0.,-48.5));
#1168=CARTESIAN_POINT('',(10.75,0.,-48.5));
#1169=CARTESIAN_POINT('Origin',(-16.5,5.,-48.5));
#1170=CARTESIAN_POINT('',(-21.5,11.,-48.5));
#1171=CARTESIAN_POINT('Origin',(-2.22044604925031E-15,11.,-51.5));
#1172=CARTESIAN_POINT('Origin',(0.,11.,-12.9791666666666));
#1173=CARTESIAN_POINT('',(1.6,11.,-51.5));
#1174=CARTESIAN_POINT('Origin',(0.,11.,-51.5));
#1175=CARTESIAN_POINT('Origin',(-24.5,0.,45.5));
#1176=CARTESIAN_POINT('',(-24.5,14.,48.5));
#1177=CARTESIAN_POINT('',(-24.5,0.,48.5));
#1178=CARTESIAN_POINT('Origin',(-24.5,14.,45.5));
#1179=CARTESIAN_POINT('Origin',(2.22044604925031E-15,0.,0.));
#1180=CARTESIAN_POINT('',(16.5,0.,48.5));
#1181=CARTESIAN_POINT('',(16.5,0.,-24.25));
#1182=CARTESIAN_POINT('',(-16.5,0.,48.5));
#1183=CARTESIAN_POINT('',(21.5,0.,48.5));
#1184=CARTESIAN_POINT('',(-16.5,0.,24.25));
#1185=CARTESIAN_POINT('Origin',(0.,0.,-51.5));
#1186=CARTESIAN_POINT('',(1.6,14.,-51.5));
#1187=CARTESIAN_POINT('Origin',(0.,14.,-51.5));
#1188=CARTESIAN_POINT('',(1.6,0.,-51.5));
#1189=CARTESIAN_POINT('Origin',(0.,0.,-12.9791666666666));
#1190=CARTESIAN_POINT('Origin',(0.,14.,-12.9791666666666));
#1191=CARTESIAN_POINT('Origin',(-24.5,0.,45.5));
#1192=CARTESIAN_POINT('',(-22.9,14.,45.5));
#1193=CARTESIAN_POINT('Origin',(-24.5,14.,45.5));
#1194=CARTESIAN_POINT('',(-22.9,0.,45.5));
#1195=CARTESIAN_POINT('Origin',(24.5,0.,45.5));
#1196=CARTESIAN_POINT('',(26.1,14.,45.5));
#1197=CARTESIAN_POINT('Origin',(24.5,14.,45.5));
#1198=CARTESIAN_POINT('',(26.1,0.,45.5));
#1199=CARTESIAN_POINT('Origin',(-12.5,9.50000000000001,48.5));
#1200=CARTESIAN_POINT('',(-12.5,1.5,47.));
#1201=CARTESIAN_POINT('',(-12.5,9.50000000000001,47.));
#1202=CARTESIAN_POINT('',(-12.5,4.75,47.));
#1203=CARTESIAN_POINT('',(-12.5,9.50000000000001,48.5));
#1204=CARTESIAN_POINT('',(-12.5,9.50000000000001,48.5));
#1205=CARTESIAN_POINT('',(-12.5,1.5,48.5));
#1206=CARTESIAN_POINT('',(-12.5,4.75,48.5));
#1207=CARTESIAN_POINT('',(-12.5,1.5,48.5));
#1208=CARTESIAN_POINT('Origin',(12.5,9.5,48.5));
#1209=CARTESIAN_POINT('',(12.5,9.5,47.));
#1210=CARTESIAN_POINT('',(17.,9.5,47.));
#1211=CARTESIAN_POINT('',(12.5,9.5,48.5));
#1212=CARTESIAN_POINT('',(12.5,9.5,48.5));
#1213=CARTESIAN_POINT('',(17.,9.5,48.5));
#1214=CARTESIAN_POINT('Origin',(12.5,1.5,48.5));
#1215=CARTESIAN_POINT('',(12.5,1.5,47.));
#1216=CARTESIAN_POINT('',(12.5,0.750000000000002,47.));
#1217=CARTESIAN_POINT('',(12.5,1.5,48.5));
#1218=CARTESIAN_POINT('',(12.5,1.5,48.5));
#1219=CARTESIAN_POINT('',(12.5,0.750000000000002,48.5));
#1220=CARTESIAN_POINT('Origin',(21.5,0.,47.));
#1221=CARTESIAN_POINT('',(-15.,1.5,47.));
#1222=CARTESIAN_POINT('',(10.75,1.5,47.));
#1223=CARTESIAN_POINT('',(-20.,6.5,47.));
#1224=CARTESIAN_POINT('Origin',(-15.,6.5,47.));
#1225=CARTESIAN_POINT('',(-20.,14.,47.));
#1226=CARTESIAN_POINT('',(-20.,0.,47.));
#1227=CARTESIAN_POINT('',(20.,14.,47.));
#1228=CARTESIAN_POINT('',(10.75,14.,47.));
#1229=CARTESIAN_POINT('',(20.,6.5,47.));
#1230=CARTESIAN_POINT('',(20.,0.,47.));
#1231=CARTESIAN_POINT('',(15.,1.5,47.));
#1232=CARTESIAN_POINT('Origin',(15.,6.5,47.));
#1233=CARTESIAN_POINT('',(10.75,1.5,47.));
#1234=CARTESIAN_POINT('Origin',(15.,6.5,-24.25));
#1235=CARTESIAN_POINT('',(20.,6.5,-47.));
#1236=CARTESIAN_POINT('',(20.,6.5,-24.25));
#1237=CARTESIAN_POINT('',(15.,1.5,-47.));
#1238=CARTESIAN_POINT('Origin',(15.,6.5,-47.));
#1239=CARTESIAN_POINT('',(15.,1.5,-24.25));
#1240=CARTESIAN_POINT('Origin',(-21.5,0.,-47.));
#1241=CARTESIAN_POINT('',(20.,14.,-47.));
#1242=CARTESIAN_POINT('',(20.,0.,-47.));
#1243=CARTESIAN_POINT('',(-20.,14.,-47.));
#1244=CARTESIAN_POINT('',(-10.75,14.,-47.));
#1245=CARTESIAN_POINT('',(-20.,6.5,-47.));
#1246=CARTESIAN_POINT('',(-20.,0.,-47.));
#1247=CARTESIAN_POINT('',(-15.,1.5,-47.));
#1248=CARTESIAN_POINT('Origin',(-15.,6.5,-47.));
#1249=CARTESIAN_POINT('',(-10.75,1.5,-47.));
#1250=CARTESIAN_POINT('Origin',(2.22044604925031E-15,1.5,0.));
#1251=CARTESIAN_POINT('',(-15.,1.5,24.25));
#1252=CARTESIAN_POINT('',(4.50000000000001,1.5,48.5));
#1253=CARTESIAN_POINT('Origin',(-15.,6.5,24.25));
#1254=CARTESIAN_POINT('',(-20.,6.5,24.25));
#1255=CARTESIAN_POINT('Origin',(-20.,0.,48.5));
#1256=CARTESIAN_POINT('',(-20.,14.,24.25));
#1257=CARTESIAN_POINT('Origin',(16.5,5.,-24.25));
#1258=CARTESIAN_POINT('Origin',(16.5,5.,48.5));
#1259=CARTESIAN_POINT('Origin',(21.5,0.,48.5));
#1260=CARTESIAN_POINT('Origin',(-16.5,5.,48.5));
#1261=CARTESIAN_POINT('',(12.25,14.,48.5));
#1262=CARTESIAN_POINT('Origin',(-16.5,5.,24.25));
#1263=CARTESIAN_POINT('Origin',(20.,0.,-48.5));
#1264=CARTESIAN_POINT('',(20.,14.,-24.25));
#1265=CARTESIAN_POINT('Origin',(4.44089209850063E-15,14.,0.));
#1266=CARTESIAN_POINT('polyline point',(21.5,14.,-28.5));
#1267=CARTESIAN_POINT('polyline point',(21.5,14.,-3.49999999999999));
#1268=CARTESIAN_POINT('polyline point',(21.5,14.,-3.49999999999999));
#1269=CARTESIAN_POINT('polyline point',(21.5,4.,-3.49999999999999));
#1270=CARTESIAN_POINT('polyline point',(21.5,4.,-3.49999999999999));
#1271=CARTESIAN_POINT('polyline point',(21.5,4.,-28.5));
#1272=CARTESIAN_POINT('polyline point',(21.5,4.,-28.5));
#1273=CARTESIAN_POINT('polyline point',(21.5,14.,-28.5));
#1274=CARTESIAN_POINT('polyline point',(21.5,14.,-48.5));
#1275=CARTESIAN_POINT('polyline point',(21.5,14.,37.7540333075852));
#1276=CARTESIAN_POINT('polyline point',(21.5,5.,-48.5));
#1277=CARTESIAN_POINT('polyline point',(21.5,11.,-48.5));
#1278=CARTESIAN_POINT('',(21.5,0.,0.));
#1279=UNCERTAINTY_MEASURE_WITH_UNIT(LENGTH_MEASURE(0.01),#1283,
'DISTANCE_ACCURACY_VALUE',
'Maximum model space distance between geometric entities at asserted c
onnectivities');
#1280=UNCERTAINTY_MEASURE_WITH_UNIT(LENGTH_MEASURE(0.01),#1283,
'DISTANCE_ACCURACY_VALUE',
'Maximum model space distance between geometric entities at asserted c
onnectivities');
#1281=(
GEOMETRIC_REPRESENTATION_CONTEXT(3)
GLOBAL_UNCERTAINTY_ASSIGNED_CONTEXT((#1279))
GLOBAL_UNIT_ASSIGNED_CONTEXT((#1283,#1285,#1286))
REPRESENTATION_CONTEXT('','3D')
);
#1282=(
GEOMETRIC_REPRESENTATION_CONTEXT(3)
GLOBAL_UNCERTAINTY_ASSIGNED_CONTEXT((#1280))
GLOBAL_UNIT_ASSIGNED_CONTEXT((#1283,#1285,#1286))
REPRESENTATION_CONTEXT('','3D')
);
#1283=(
LENGTH_UNIT()
NAMED_UNIT(*)
SI_UNIT(.MILLI.,.METRE.)
);
#1284=(
LENGTH_UNIT()
NAMED_UNIT(*)
SI_UNIT(.CENTI.,.METRE.)
);
#1285=(
NAMED_UNIT(*)
PLANE_ANGLE_UNIT()
SI_UNIT($,.RADIAN.)
);
#1286=(
NAMED_UNIT(*)
SI_UNIT($,.STERADIAN.)
SOLID_ANGLE_UNIT()
);
#1287=SHAPE_DEFINITION_REPRESENTATION(#1288,#1289);
#1288=PRODUCT_DEFINITION_SHAPE('',$,#1291);
#1289=SHAPE_REPRESENTATION('',(#792),#1281);
#1290=PRODUCT_DEFINITION_CONTEXT('part definition',#1295,'design');
#1291=PRODUCT_DEFINITION('handle_monitor_case_under_left',
'handle_monitor_case_under_left',#1292,#1290);
#1292=PRODUCT_DEFINITION_FORMATION('',$,#1297);
#1293=PRODUCT_RELATED_PRODUCT_CATEGORY('handle_monitor_case_under_left',
'handle_monitor_case_under_left',(#1297));
#1294=APPLICATION_PROTOCOL_DEFINITION('international standard',
'automotive_design',2009,#1295);
#1295=APPLICATION_CONTEXT(
'Core Data for Automotive Mechanical Design Process');
#1296=PRODUCT_CONTEXT('part definition',#1295,'mechanical');
#1297=PRODUCT('handle_monitor_case_under_left',
'handle_monitor_case_under_left',$,(#1296));
#1298=PRESENTATION_STYLE_ASSIGNMENT((#1301));
#1299=PRESENTATION_STYLE_ASSIGNMENT((#1302));
#1300=PRESENTATION_STYLE_ASSIGNMENT((#1303));
#1301=SURFACE_STYLE_USAGE(.BOTH.,#1308);
#1302=SURFACE_STYLE_USAGE(.BOTH.,#1309);
#1303=SURFACE_STYLE_USAGE(.BOTH.,#1310);
#1304=SURFACE_STYLE_RENDERING_WITH_PROPERTIES($,#1320,(#1306));
#1305=SURFACE_STYLE_RENDERING_WITH_PROPERTIES($,#1321,(#1307));
#1306=SURFACE_STYLE_TRANSPARENT(0.);
#1307=SURFACE_STYLE_TRANSPARENT(0.);
#1308=SURFACE_SIDE_STYLE('',(#1311,#1304));
#1309=SURFACE_SIDE_STYLE('',(#1312,#1305));
#1310=SURFACE_SIDE_STYLE('',(#1313));
#1311=SURFACE_STYLE_FILL_AREA(#1314);
#1312=SURFACE_STYLE_FILL_AREA(#1315);
#1313=SURFACE_STYLE_FILL_AREA(#1316);
#1314=FILL_AREA_STYLE('',(#1317));
#1315=FILL_AREA_STYLE('',(#1318));
#1316=FILL_AREA_STYLE('',(#1319));
#1317=FILL_AREA_STYLE_COLOUR('',#1320);
#1318=FILL_AREA_STYLE_COLOUR('',#1321);
#1319=FILL_AREA_STYLE_COLOUR('',#1322);
#1320=COLOUR_RGB('',0.749019607843137,0.749019607843137,0.749019607843137);
#1321=COLOUR_RGB('',0.352941176470588,0.352941176470588,0.352941176470588);
#1322=COLOUR_RGB('',1.,1.,0.);
ENDSEC;
END-ISO-10303-21;
