ISO-10303-21;
HEADER;
/* Generated by software containing ST-Developer
 * from STEP Tools, Inc. (www.steptools.com) 
 */

FILE_DESCRIPTION(
/* description */ (''),
/* implementation_level */ '2;1');

FILE_NAME(
/* name */ 'pole_setter.stp',
/* time_stamp */ '2026-02-02T14:32:26+09:00',
/* author */ ('hibik'),
/* organization */ (''),
/* preprocessor_version */ 'ST-DEVELOPER v20.1',
/* originating_system */ 'Autodesk Inventor 2026',
/* authorisation */ '');

FILE_SCHEMA (('AUTOMOTIVE_DESIGN { 1 0 10303 214 3 1 1 }'));
ENDSEC;

DATA;
#10=MECHANICAL_DESIGN_GEOMETRIC_PRESENTATION_REPRESENTATION('',(#13),#826);
#11=SHAPE_REPRESENTATION_RELATIONSHIP('SRR','None',#833,#12);
#12=ADVANCED_BREP_SHAPE_REPRESENTATION('',(#14),#825);
#13=STYLED_ITEM('',(#843),#14);
#14=MANIFOLD_SOLID_BREP('\X2\30BD30EA30C330C9\X0\1',#487);
#15=FACE_BOUND('',#80,.T.);
#16=FACE_BOUND('',#81,.T.);
#17=FACE_BOUND('',#83,.T.);
#18=FACE_BOUND('',#84,.T.);
#19=FACE_BOUND('',#86,.T.);
#20=FACE_BOUND('',#87,.T.);
#21=FACE_BOUND('',#89,.T.);
#22=FACE_BOUND('',#90,.T.);
#23=FACE_BOUND('',#92,.T.);
#24=FACE_BOUND('',#93,.T.);
#25=FACE_BOUND('',#97,.T.);
#26=FACE_BOUND('',#102,.T.);
#27=FACE_BOUND('',#104,.T.);
#28=FACE_BOUND('',#105,.T.);
#29=FACE_BOUND('',#107,.T.);
#30=FACE_BOUND('',#109,.T.);
#31=FACE_BOUND('',#111,.T.);
#32=FACE_BOUND('',#112,.T.);
#33=PLANE('',#528);
#34=PLANE('',#533);
#35=PLANE('',#534);
#36=PLANE('',#535);
#37=PLANE('',#536);
#38=PLANE('',#537);
#39=PLANE('',#538);
#40=PLANE('',#543);
#41=PLANE('',#550);
#42=PLANE('',#551);
#43=PLANE('',#552);
#44=PLANE('',#553);
#45=PLANE('',#554);
#46=PLANE('',#555);
#47=FACE_OUTER_BOUND('',#71,.T.);
#48=FACE_OUTER_BOUND('',#72,.T.);
#49=FACE_OUTER_BOUND('',#73,.T.);
#50=FACE_OUTER_BOUND('',#74,.T.);
#51=FACE_OUTER_BOUND('',#75,.T.);
#52=FACE_OUTER_BOUND('',#76,.T.);
#53=FACE_OUTER_BOUND('',#77,.T.);
#54=FACE_OUTER_BOUND('',#78,.T.);
#55=FACE_OUTER_BOUND('',#79,.T.);
#56=FACE_OUTER_BOUND('',#82,.T.);
#57=FACE_OUTER_BOUND('',#85,.T.);
#58=FACE_OUTER_BOUND('',#88,.T.);
#59=FACE_OUTER_BOUND('',#91,.T.);
#60=FACE_OUTER_BOUND('',#94,.T.);
#61=FACE_OUTER_BOUND('',#95,.T.);
#62=FACE_OUTER_BOUND('',#96,.T.);
#63=FACE_OUTER_BOUND('',#98,.T.);
#64=FACE_OUTER_BOUND('',#99,.T.);
#65=FACE_OUTER_BOUND('',#100,.T.);
#66=FACE_OUTER_BOUND('',#101,.T.);
#67=FACE_OUTER_BOUND('',#103,.T.);
#68=FACE_OUTER_BOUND('',#106,.T.);
#69=FACE_OUTER_BOUND('',#108,.T.);
#70=FACE_OUTER_BOUND('',#110,.T.);
#71=EDGE_LOOP('',(#325,#326,#327,#328));
#72=EDGE_LOOP('',(#329,#330,#331,#332));
#73=EDGE_LOOP('',(#333,#334,#335,#336));
#74=EDGE_LOOP('',(#337,#338,#339,#340));
#75=EDGE_LOOP('',(#341,#342,#343,#344));
#76=EDGE_LOOP('',(#345,#346,#347,#348));
#77=EDGE_LOOP('',(#349,#350,#351,#352,#353,#354,#355,#356,#357,#358));
#78=EDGE_LOOP('',(#359,#360,#361,#362));
#79=EDGE_LOOP('',(#363,#364,#365,#366,#367,#368));
#80=EDGE_LOOP('',(#369));
#81=EDGE_LOOP('',(#370));
#82=EDGE_LOOP('',(#371,#372,#373,#374));
#83=EDGE_LOOP('',(#375));
#84=EDGE_LOOP('',(#376));
#85=EDGE_LOOP('',(#377,#378,#379,#380));
#86=EDGE_LOOP('',(#381));
#87=EDGE_LOOP('',(#382));
#88=EDGE_LOOP('',(#383,#384,#385,#386));
#89=EDGE_LOOP('',(#387));
#90=EDGE_LOOP('',(#388));
#91=EDGE_LOOP('',(#389,#390,#391,#392));
#92=EDGE_LOOP('',(#393));
#93=EDGE_LOOP('',(#394));
#94=EDGE_LOOP('',(#395,#396,#397,#398,#399));
#95=EDGE_LOOP('',(#400,#401,#402,#403,#404));
#96=EDGE_LOOP('',(#405));
#97=EDGE_LOOP('',(#406));
#98=EDGE_LOOP('',(#407,#408,#409,#410));
#99=EDGE_LOOP('',(#411,#412,#413,#414));
#100=EDGE_LOOP('',(#415,#416,#417,#418));
#101=EDGE_LOOP('',(#419,#420,#421,#422,#423,#424));
#102=EDGE_LOOP('',(#425,#426,#427,#428));
#103=EDGE_LOOP('',(#429,#430,#431,#432));
#104=EDGE_LOOP('',(#433));
#105=EDGE_LOOP('',(#434));
#106=EDGE_LOOP('',(#435,#436,#437,#438,#439,#440));
#107=EDGE_LOOP('',(#441,#442,#443,#444));
#108=EDGE_LOOP('',(#445));
#109=EDGE_LOOP('',(#446));
#110=EDGE_LOOP('',(#447,#448,#449,#450));
#111=EDGE_LOOP('',(#451));
#112=EDGE_LOOP('',(#452));
#113=LINE('',#697,#155);
#114=LINE('',#703,#156);
#115=LINE('',#709,#157);
#116=LINE('',#715,#158);
#117=LINE('',#721,#159);
#118=LINE('',#727,#160);
#119=LINE('',#732,#161);
#120=LINE('',#734,#162);
#121=LINE('',#739,#163);
#122=LINE('',#744,#164);
#123=LINE('',#746,#165);
#124=LINE('',#747,#166);
#125=LINE('',#751,#167);
#126=LINE('',#753,#168);
#127=LINE('',#755,#169);
#128=LINE('',#756,#170);
#129=LINE('',#759,#171);
#130=LINE('',#761,#172);
#131=LINE('',#762,#173);
#132=LINE('',#765,#174);
#133=LINE('',#767,#175);
#134=LINE('',#768,#176);
#135=LINE('',#771,#177);
#136=LINE('',#773,#178);
#137=LINE('',#774,#179);
#138=LINE('',#776,#180);
#139=LINE('',#777,#181);
#140=LINE('',#780,#182);
#141=LINE('',#782,#183);
#142=LINE('',#783,#184);
#143=LINE('',#786,#185);
#144=LINE('',#790,#186);
#145=LINE('',#797,#187);
#146=LINE('',#803,#188);
#147=LINE('',#808,#189);
#148=LINE('',#809,#190);
#149=LINE('',#810,#191);
#150=LINE('',#813,#192);
#151=LINE('',#814,#193);
#152=LINE('',#817,#194);
#153=LINE('',#818,#195);
#154=LINE('',#820,#196);
#155=VECTOR('',#562,1.6);
#156=VECTOR('',#569,1.6);
#157=VECTOR('',#576,1.6);
#158=VECTOR('',#583,1.6);
#159=VECTOR('',#590,1.75);
#160=VECTOR('',#597,1.75);
#161=VECTOR('',#602,10.);
#162=VECTOR('',#603,10.);
#163=VECTOR('',#608,10.);
#164=VECTOR('',#613,10.);
#165=VECTOR('',#614,10.);
#166=VECTOR('',#615,10.);
#167=VECTOR('',#618,10.);
#168=VECTOR('',#619,10.);
#169=VECTOR('',#620,10.);
#170=VECTOR('',#621,10.);
#171=VECTOR('',#624,10.);
#172=VECTOR('',#625,10.);
#173=VECTOR('',#626,10.);
#174=VECTOR('',#629,10.);
#175=VECTOR('',#630,10.);
#176=VECTOR('',#631,10.);
#177=VECTOR('',#634,10.);
#178=VECTOR('',#635,10.);
#179=VECTOR('',#636,10.);
#180=VECTOR('',#639,10.);
#181=VECTOR('',#640,10.);
#182=VECTOR('',#643,10.);
#183=VECTOR('',#644,10.);
#184=VECTOR('',#645,10.);
#185=VECTOR('',#648,3.5);
#186=VECTOR('',#653,3.5);
#187=VECTOR('',#662,1.75);
#188=VECTOR('',#669,1.75);
#189=VECTOR('',#674,10.);
#190=VECTOR('',#675,10.);
#191=VECTOR('',#676,10.);
#192=VECTOR('',#679,10.);
#193=VECTOR('',#680,10.);
#194=VECTOR('',#683,10.);
#195=VECTOR('',#684,10.);
#196=VECTOR('',#687,10.);
#197=CIRCLE('',#511,1.6);
#198=CIRCLE('',#512,1.6);
#199=CIRCLE('',#514,1.6);
#200=CIRCLE('',#515,1.6);
#201=CIRCLE('',#517,1.6);
#202=CIRCLE('',#518,1.6);
#203=CIRCLE('',#520,1.6);
#204=CIRCLE('',#521,1.6);
#205=CIRCLE('',#523,1.75);
#206=CIRCLE('',#524,1.75);
#207=CIRCLE('',#526,1.75);
#208=CIRCLE('',#527,1.75);
#209=CIRCLE('',#529,3.5);
#210=CIRCLE('',#530,3.5);
#211=CIRCLE('',#531,3.5);
#212=CIRCLE('',#532,3.5);
#213=CIRCLE('',#540,3.5);
#214=CIRCLE('',#542,3.5);
#215=CIRCLE('',#544,1.75);
#216=CIRCLE('',#546,1.75);
#217=CIRCLE('',#548,1.75);
#218=CIRCLE('',#549,1.75);
#219=VERTEX_POINT('',#694);
#220=VERTEX_POINT('',#696);
#221=VERTEX_POINT('',#700);
#222=VERTEX_POINT('',#702);
#223=VERTEX_POINT('',#706);
#224=VERTEX_POINT('',#708);
#225=VERTEX_POINT('',#712);
#226=VERTEX_POINT('',#714);
#227=VERTEX_POINT('',#718);
#228=VERTEX_POINT('',#720);
#229=VERTEX_POINT('',#724);
#230=VERTEX_POINT('',#726);
#231=VERTEX_POINT('',#730);
#232=VERTEX_POINT('',#731);
#233=VERTEX_POINT('',#733);
#234=VERTEX_POINT('',#735);
#235=VERTEX_POINT('',#738);
#236=VERTEX_POINT('',#740);
#237=VERTEX_POINT('',#743);
#238=VERTEX_POINT('',#745);
#239=VERTEX_POINT('',#749);
#240=VERTEX_POINT('',#750);
#241=VERTEX_POINT('',#752);
#242=VERTEX_POINT('',#754);
#243=VERTEX_POINT('',#758);
#244=VERTEX_POINT('',#760);
#245=VERTEX_POINT('',#764);
#246=VERTEX_POINT('',#766);
#247=VERTEX_POINT('',#770);
#248=VERTEX_POINT('',#772);
#249=VERTEX_POINT('',#779);
#250=VERTEX_POINT('',#781);
#251=VERTEX_POINT('',#785);
#252=VERTEX_POINT('',#789);
#253=VERTEX_POINT('',#793);
#254=VERTEX_POINT('',#796);
#255=VERTEX_POINT('',#800);
#256=VERTEX_POINT('',#802);
#257=VERTEX_POINT('',#806);
#258=VERTEX_POINT('',#807);
#259=VERTEX_POINT('',#812);
#260=VERTEX_POINT('',#816);
#261=EDGE_CURVE('',#219,#219,#197,.T.);
#262=EDGE_CURVE('',#219,#220,#113,.T.);
#263=EDGE_CURVE('',#220,#220,#198,.T.);
#264=EDGE_CURVE('',#221,#221,#199,.T.);
#265=EDGE_CURVE('',#221,#222,#114,.T.);
#266=EDGE_CURVE('',#222,#222,#200,.T.);
#267=EDGE_CURVE('',#223,#223,#201,.T.);
#268=EDGE_CURVE('',#223,#224,#115,.T.);
#269=EDGE_CURVE('',#224,#224,#202,.T.);
#270=EDGE_CURVE('',#225,#225,#203,.T.);
#271=EDGE_CURVE('',#225,#226,#116,.T.);
#272=EDGE_CURVE('',#226,#226,#204,.T.);
#273=EDGE_CURVE('',#227,#227,#205,.T.);
#274=EDGE_CURVE('',#227,#228,#117,.T.);
#275=EDGE_CURVE('',#228,#228,#206,.T.);
#276=EDGE_CURVE('',#229,#229,#207,.T.);
#277=EDGE_CURVE('',#229,#230,#118,.T.);
#278=EDGE_CURVE('',#230,#230,#208,.T.);
#279=EDGE_CURVE('',#231,#232,#119,.T.);
#280=EDGE_CURVE('',#233,#232,#120,.T.);
#281=EDGE_CURVE('',#233,#234,#209,.T.);
#282=EDGE_CURVE('',#234,#233,#210,.T.);
#283=EDGE_CURVE('',#235,#233,#121,.T.);
#284=EDGE_CURVE('',#235,#236,#211,.T.);
#285=EDGE_CURVE('',#236,#235,#212,.T.);
#286=EDGE_CURVE('',#237,#235,#122,.T.);
#287=EDGE_CURVE('',#238,#237,#123,.T.);
#288=EDGE_CURVE('',#238,#231,#124,.T.);
#289=EDGE_CURVE('',#239,#240,#125,.T.);
#290=EDGE_CURVE('',#240,#241,#126,.T.);
#291=EDGE_CURVE('',#242,#241,#127,.T.);
#292=EDGE_CURVE('',#239,#242,#128,.T.);
#293=EDGE_CURVE('',#232,#243,#129,.T.);
#294=EDGE_CURVE('',#244,#243,#130,.T.);
#295=EDGE_CURVE('',#237,#244,#131,.T.);
#296=EDGE_CURVE('',#241,#245,#132,.T.);
#297=EDGE_CURVE('',#246,#245,#133,.T.);
#298=EDGE_CURVE('',#242,#246,#134,.T.);
#299=EDGE_CURVE('',#243,#247,#135,.T.);
#300=EDGE_CURVE('',#248,#247,#136,.T.);
#301=EDGE_CURVE('',#244,#248,#137,.T.);
#302=EDGE_CURVE('',#247,#231,#138,.T.);
#303=EDGE_CURVE('',#248,#238,#139,.T.);
#304=EDGE_CURVE('',#245,#249,#140,.T.);
#305=EDGE_CURVE('',#250,#249,#141,.T.);
#306=EDGE_CURVE('',#246,#250,#142,.T.);
#307=EDGE_CURVE('',#234,#251,#143,.T.);
#308=EDGE_CURVE('',#251,#251,#213,.T.);
#309=EDGE_CURVE('',#236,#252,#144,.T.);
#310=EDGE_CURVE('',#252,#252,#214,.T.);
#311=EDGE_CURVE('',#253,#253,#215,.T.);
#312=EDGE_CURVE('',#253,#254,#145,.T.);
#313=EDGE_CURVE('',#254,#254,#216,.T.);
#314=EDGE_CURVE('',#255,#255,#217,.T.);
#315=EDGE_CURVE('',#255,#256,#146,.T.);
#316=EDGE_CURVE('',#256,#256,#218,.T.);
#317=EDGE_CURVE('',#257,#258,#147,.T.);
#318=EDGE_CURVE('',#258,#240,#148,.T.);
#319=EDGE_CURVE('',#257,#239,#149,.T.);
#320=EDGE_CURVE('',#259,#257,#150,.T.);
#321=EDGE_CURVE('',#259,#250,#151,.T.);
#322=EDGE_CURVE('',#260,#259,#152,.T.);
#323=EDGE_CURVE('',#260,#249,#153,.T.);
#324=EDGE_CURVE('',#258,#260,#154,.T.);
#325=ORIENTED_EDGE('',*,*,#261,.F.);
#326=ORIENTED_EDGE('',*,*,#262,.T.);
#327=ORIENTED_EDGE('',*,*,#263,.F.);
#328=ORIENTED_EDGE('',*,*,#262,.F.);
#329=ORIENTED_EDGE('',*,*,#264,.F.);
#330=ORIENTED_EDGE('',*,*,#265,.T.);
#331=ORIENTED_EDGE('',*,*,#266,.F.);
#332=ORIENTED_EDGE('',*,*,#265,.F.);
#333=ORIENTED_EDGE('',*,*,#267,.F.);
#334=ORIENTED_EDGE('',*,*,#268,.T.);
#335=ORIENTED_EDGE('',*,*,#269,.F.);
#336=ORIENTED_EDGE('',*,*,#268,.F.);
#337=ORIENTED_EDGE('',*,*,#270,.F.);
#338=ORIENTED_EDGE('',*,*,#271,.T.);
#339=ORIENTED_EDGE('',*,*,#272,.F.);
#340=ORIENTED_EDGE('',*,*,#271,.F.);
#341=ORIENTED_EDGE('',*,*,#273,.F.);
#342=ORIENTED_EDGE('',*,*,#274,.T.);
#343=ORIENTED_EDGE('',*,*,#275,.F.);
#344=ORIENTED_EDGE('',*,*,#274,.F.);
#345=ORIENTED_EDGE('',*,*,#276,.F.);
#346=ORIENTED_EDGE('',*,*,#277,.T.);
#347=ORIENTED_EDGE('',*,*,#278,.F.);
#348=ORIENTED_EDGE('',*,*,#277,.F.);
#349=ORIENTED_EDGE('',*,*,#279,.T.);
#350=ORIENTED_EDGE('',*,*,#280,.F.);
#351=ORIENTED_EDGE('',*,*,#281,.T.);
#352=ORIENTED_EDGE('',*,*,#282,.T.);
#353=ORIENTED_EDGE('',*,*,#283,.F.);
#354=ORIENTED_EDGE('',*,*,#284,.T.);
#355=ORIENTED_EDGE('',*,*,#285,.T.);
#356=ORIENTED_EDGE('',*,*,#286,.F.);
#357=ORIENTED_EDGE('',*,*,#287,.F.);
#358=ORIENTED_EDGE('',*,*,#288,.T.);
#359=ORIENTED_EDGE('',*,*,#289,.T.);
#360=ORIENTED_EDGE('',*,*,#290,.T.);
#361=ORIENTED_EDGE('',*,*,#291,.F.);
#362=ORIENTED_EDGE('',*,*,#292,.F.);
#363=ORIENTED_EDGE('',*,*,#293,.T.);
#364=ORIENTED_EDGE('',*,*,#294,.F.);
#365=ORIENTED_EDGE('',*,*,#295,.F.);
#366=ORIENTED_EDGE('',*,*,#286,.T.);
#367=ORIENTED_EDGE('',*,*,#283,.T.);
#368=ORIENTED_EDGE('',*,*,#280,.T.);
#369=ORIENTED_EDGE('',*,*,#266,.T.);
#370=ORIENTED_EDGE('',*,*,#272,.T.);
#371=ORIENTED_EDGE('',*,*,#296,.T.);
#372=ORIENTED_EDGE('',*,*,#297,.F.);
#373=ORIENTED_EDGE('',*,*,#298,.F.);
#374=ORIENTED_EDGE('',*,*,#291,.T.);
#375=ORIENTED_EDGE('',*,*,#263,.T.);
#376=ORIENTED_EDGE('',*,*,#269,.T.);
#377=ORIENTED_EDGE('',*,*,#299,.T.);
#378=ORIENTED_EDGE('',*,*,#300,.F.);
#379=ORIENTED_EDGE('',*,*,#301,.F.);
#380=ORIENTED_EDGE('',*,*,#294,.T.);
#381=ORIENTED_EDGE('',*,*,#275,.T.);
#382=ORIENTED_EDGE('',*,*,#278,.T.);
#383=ORIENTED_EDGE('',*,*,#302,.T.);
#384=ORIENTED_EDGE('',*,*,#288,.F.);
#385=ORIENTED_EDGE('',*,*,#303,.F.);
#386=ORIENTED_EDGE('',*,*,#300,.T.);
#387=ORIENTED_EDGE('',*,*,#261,.T.);
#388=ORIENTED_EDGE('',*,*,#267,.T.);
#389=ORIENTED_EDGE('',*,*,#304,.T.);
#390=ORIENTED_EDGE('',*,*,#305,.F.);
#391=ORIENTED_EDGE('',*,*,#306,.F.);
#392=ORIENTED_EDGE('',*,*,#297,.T.);
#393=ORIENTED_EDGE('',*,*,#273,.T.);
#394=ORIENTED_EDGE('',*,*,#276,.T.);
#395=ORIENTED_EDGE('',*,*,#281,.F.);
#396=ORIENTED_EDGE('',*,*,#282,.F.);
#397=ORIENTED_EDGE('',*,*,#307,.T.);
#398=ORIENTED_EDGE('',*,*,#308,.F.);
#399=ORIENTED_EDGE('',*,*,#307,.F.);
#400=ORIENTED_EDGE('',*,*,#284,.F.);
#401=ORIENTED_EDGE('',*,*,#285,.F.);
#402=ORIENTED_EDGE('',*,*,#309,.T.);
#403=ORIENTED_EDGE('',*,*,#310,.F.);
#404=ORIENTED_EDGE('',*,*,#309,.F.);
#405=ORIENTED_EDGE('',*,*,#310,.T.);
#406=ORIENTED_EDGE('',*,*,#311,.T.);
#407=ORIENTED_EDGE('',*,*,#311,.F.);
#408=ORIENTED_EDGE('',*,*,#312,.T.);
#409=ORIENTED_EDGE('',*,*,#313,.F.);
#410=ORIENTED_EDGE('',*,*,#312,.F.);
#411=ORIENTED_EDGE('',*,*,#314,.F.);
#412=ORIENTED_EDGE('',*,*,#315,.T.);
#413=ORIENTED_EDGE('',*,*,#316,.F.);
#414=ORIENTED_EDGE('',*,*,#315,.F.);
#415=ORIENTED_EDGE('',*,*,#317,.T.);
#416=ORIENTED_EDGE('',*,*,#318,.T.);
#417=ORIENTED_EDGE('',*,*,#289,.F.);
#418=ORIENTED_EDGE('',*,*,#319,.F.);
#419=ORIENTED_EDGE('',*,*,#320,.T.);
#420=ORIENTED_EDGE('',*,*,#319,.T.);
#421=ORIENTED_EDGE('',*,*,#292,.T.);
#422=ORIENTED_EDGE('',*,*,#298,.T.);
#423=ORIENTED_EDGE('',*,*,#306,.T.);
#424=ORIENTED_EDGE('',*,*,#321,.F.);
#425=ORIENTED_EDGE('',*,*,#295,.T.);
#426=ORIENTED_EDGE('',*,*,#301,.T.);
#427=ORIENTED_EDGE('',*,*,#303,.T.);
#428=ORIENTED_EDGE('',*,*,#287,.T.);
#429=ORIENTED_EDGE('',*,*,#322,.T.);
#430=ORIENTED_EDGE('',*,*,#321,.T.);
#431=ORIENTED_EDGE('',*,*,#305,.T.);
#432=ORIENTED_EDGE('',*,*,#323,.F.);
#433=ORIENTED_EDGE('',*,*,#264,.T.);
#434=ORIENTED_EDGE('',*,*,#270,.T.);
#435=ORIENTED_EDGE('',*,*,#324,.T.);
#436=ORIENTED_EDGE('',*,*,#323,.T.);
#437=ORIENTED_EDGE('',*,*,#304,.F.);
#438=ORIENTED_EDGE('',*,*,#296,.F.);
#439=ORIENTED_EDGE('',*,*,#290,.F.);
#440=ORIENTED_EDGE('',*,*,#318,.F.);
#441=ORIENTED_EDGE('',*,*,#299,.F.);
#442=ORIENTED_EDGE('',*,*,#293,.F.);
#443=ORIENTED_EDGE('',*,*,#279,.F.);
#444=ORIENTED_EDGE('',*,*,#302,.F.);
#445=ORIENTED_EDGE('',*,*,#308,.T.);
#446=ORIENTED_EDGE('',*,*,#314,.T.);
#447=ORIENTED_EDGE('',*,*,#324,.F.);
#448=ORIENTED_EDGE('',*,*,#317,.F.);
#449=ORIENTED_EDGE('',*,*,#320,.F.);
#450=ORIENTED_EDGE('',*,*,#322,.F.);
#451=ORIENTED_EDGE('',*,*,#313,.T.);
#452=ORIENTED_EDGE('',*,*,#316,.T.);
#453=CYLINDRICAL_SURFACE('',#510,1.6);
#454=CYLINDRICAL_SURFACE('',#513,1.6);
#455=CYLINDRICAL_SURFACE('',#516,1.6);
#456=CYLINDRICAL_SURFACE('',#519,1.6);
#457=CYLINDRICAL_SURFACE('',#522,1.75);
#458=CYLINDRICAL_SURFACE('',#525,1.75);
#459=CYLINDRICAL_SURFACE('',#539,3.5);
#460=CYLINDRICAL_SURFACE('',#541,3.5);
#461=CYLINDRICAL_SURFACE('',#545,1.75);
#462=CYLINDRICAL_SURFACE('',#547,1.75);
#463=ADVANCED_FACE('',(#47),#453,.F.);
#464=ADVANCED_FACE('',(#48),#454,.F.);
#465=ADVANCED_FACE('',(#49),#455,.F.);
#466=ADVANCED_FACE('',(#50),#456,.F.);
#467=ADVANCED_FACE('',(#51),#457,.F.);
#468=ADVANCED_FACE('',(#52),#458,.F.);
#469=ADVANCED_FACE('',(#53),#33,.T.);
#470=ADVANCED_FACE('',(#54),#34,.T.);
#471=ADVANCED_FACE('',(#55,#15,#16),#35,.T.);
#472=ADVANCED_FACE('',(#56,#17,#18),#36,.T.);
#473=ADVANCED_FACE('',(#57,#19,#20),#37,.T.);
#474=ADVANCED_FACE('',(#58,#21,#22),#38,.T.);
#475=ADVANCED_FACE('',(#59,#23,#24),#39,.T.);
#476=ADVANCED_FACE('',(#60),#459,.F.);
#477=ADVANCED_FACE('',(#61),#460,.F.);
#478=ADVANCED_FACE('',(#62,#25),#40,.T.);
#479=ADVANCED_FACE('',(#63),#461,.F.);
#480=ADVANCED_FACE('',(#64),#462,.F.);
#481=ADVANCED_FACE('',(#65),#41,.T.);
#482=ADVANCED_FACE('',(#66,#26),#42,.T.);
#483=ADVANCED_FACE('',(#67,#27,#28),#43,.T.);
#484=ADVANCED_FACE('',(#68,#29),#44,.T.);
#485=ADVANCED_FACE('',(#69,#30),#45,.T.);
#486=ADVANCED_FACE('',(#70,#31,#32),#46,.F.);
#487=CLOSED_SHELL('',(#463,#464,#465,#466,#467,#468,#469,#470,#471,#472,
#473,#474,#475,#476,#477,#478,#479,#480,#481,#482,#483,#484,#485,#486));
#488=DERIVED_UNIT_ELEMENT(#491,1.);
#489=DERIVED_UNIT_ELEMENT(#828,-3.);
#490=DIMENSIONAL_EXPONENTS(0.,1.,0.,0.,0.,0.,0.);
#491=(
CONVERSION_BASED_UNIT('gram',#493)
MASS_UNIT()
NAMED_UNIT(#490)
);
#492=(
MASS_UNIT()
NAMED_UNIT(*)
SI_UNIT(.KILO.,.GRAM.)
);
#493=MASS_MEASURE_WITH_UNIT(MASS_MEASURE(0.001),#492);
#494=DERIVED_UNIT((#488,#489));
#495=MEASURE_REPRESENTATION_ITEM('density measure',
POSITIVE_RATIO_MEASURE(1.),#494);
#496=PROPERTY_DEFINITION_REPRESENTATION(#501,#498);
#497=PROPERTY_DEFINITION_REPRESENTATION(#502,#499);
#498=REPRESENTATION('material name',(#500),#825);
#499=REPRESENTATION('density',(#495),#825);
#500=DESCRIPTIVE_REPRESENTATION_ITEM('\X2\4E00822C\X0\','\X2\4E00822C\X0\');
#501=PROPERTY_DEFINITION('material property','material name',#835);
#502=PROPERTY_DEFINITION('material property','density of part',#835);
#503=DATE_TIME_ROLE('creation_date');
#504=APPLIED_DATE_AND_TIME_ASSIGNMENT(#505,#503,(#835));
#505=DATE_AND_TIME(#506,#507);
#506=CALENDAR_DATE(2026,1,2);
#507=LOCAL_TIME(0,0,0.,#508);
#508=COORDINATED_UNIVERSAL_TIME_OFFSET(0,0,.BEHIND.);
#509=AXIS2_PLACEMENT_3D('',#692,#556,#557);
#510=AXIS2_PLACEMENT_3D('',#693,#558,#559);
#511=AXIS2_PLACEMENT_3D('',#695,#560,#561);
#512=AXIS2_PLACEMENT_3D('',#698,#563,#564);
#513=AXIS2_PLACEMENT_3D('',#699,#565,#566);
#514=AXIS2_PLACEMENT_3D('',#701,#567,#568);
#515=AXIS2_PLACEMENT_3D('',#704,#570,#571);
#516=AXIS2_PLACEMENT_3D('',#705,#572,#573);
#517=AXIS2_PLACEMENT_3D('',#707,#574,#575);
#518=AXIS2_PLACEMENT_3D('',#710,#577,#578);
#519=AXIS2_PLACEMENT_3D('',#711,#579,#580);
#520=AXIS2_PLACEMENT_3D('',#713,#581,#582);
#521=AXIS2_PLACEMENT_3D('',#716,#584,#585);
#522=AXIS2_PLACEMENT_3D('',#717,#586,#587);
#523=AXIS2_PLACEMENT_3D('',#719,#588,#589);
#524=AXIS2_PLACEMENT_3D('',#722,#591,#592);
#525=AXIS2_PLACEMENT_3D('',#723,#593,#594);
#526=AXIS2_PLACEMENT_3D('',#725,#595,#596);
#527=AXIS2_PLACEMENT_3D('',#728,#598,#599);
#528=AXIS2_PLACEMENT_3D('',#729,#600,#601);
#529=AXIS2_PLACEMENT_3D('',#736,#604,#605);
#530=AXIS2_PLACEMENT_3D('',#737,#606,#607);
#531=AXIS2_PLACEMENT_3D('',#741,#609,#610);
#532=AXIS2_PLACEMENT_3D('',#742,#611,#612);
#533=AXIS2_PLACEMENT_3D('',#748,#616,#617);
#534=AXIS2_PLACEMENT_3D('',#757,#622,#623);
#535=AXIS2_PLACEMENT_3D('',#763,#627,#628);
#536=AXIS2_PLACEMENT_3D('',#769,#632,#633);
#537=AXIS2_PLACEMENT_3D('',#775,#637,#638);
#538=AXIS2_PLACEMENT_3D('',#778,#641,#642);
#539=AXIS2_PLACEMENT_3D('',#784,#646,#647);
#540=AXIS2_PLACEMENT_3D('',#787,#649,#650);
#541=AXIS2_PLACEMENT_3D('',#788,#651,#652);
#542=AXIS2_PLACEMENT_3D('',#791,#654,#655);
#543=AXIS2_PLACEMENT_3D('',#792,#656,#657);
#544=AXIS2_PLACEMENT_3D('',#794,#658,#659);
#545=AXIS2_PLACEMENT_3D('',#795,#660,#661);
#546=AXIS2_PLACEMENT_3D('',#798,#663,#664);
#547=AXIS2_PLACEMENT_3D('',#799,#665,#666);
#548=AXIS2_PLACEMENT_3D('',#801,#667,#668);
#549=AXIS2_PLACEMENT_3D('',#804,#670,#671);
#550=AXIS2_PLACEMENT_3D('',#805,#672,#673);
#551=AXIS2_PLACEMENT_3D('',#811,#677,#678);
#552=AXIS2_PLACEMENT_3D('',#815,#681,#682);
#553=AXIS2_PLACEMENT_3D('',#819,#685,#686);
#554=AXIS2_PLACEMENT_3D('',#821,#688,#689);
#555=AXIS2_PLACEMENT_3D('',#822,#690,#691);
#556=DIRECTION('axis',(0.,0.,1.));
#557=DIRECTION('refdir',(1.,0.,0.));
#558=DIRECTION('center_axis',(1.,0.,-4.80096443081148E-16));
#559=DIRECTION('ref_axis',(4.80096443081148E-16,0.,1.));
#560=DIRECTION('center_axis',(1.,-1.43254583822601E-16,-8.88178419700123E-16));
#561=DIRECTION('ref_axis',(4.80096443081148E-16,0.,1.));
#562=DIRECTION('',(1.,0.,-4.80096443081148E-16));
#563=DIRECTION('center_axis',(-1.,1.20024110770287E-16,8.88178419700123E-16));
#564=DIRECTION('ref_axis',(4.80096443081148E-16,0.,1.));
#565=DIRECTION('center_axis',(1.,0.,-4.80096443081148E-16));
#566=DIRECTION('ref_axis',(4.80096443081148E-16,0.,1.));
#567=DIRECTION('center_axis',(1.,0.,-4.88498130835069E-16));
#568=DIRECTION('ref_axis',(4.80096443081148E-16,0.,1.));
#569=DIRECTION('',(1.,0.,-4.80096443081148E-16));
#570=DIRECTION('center_axis',(-1.,-7.16272919113004E-17,8.88178419700123E-16));
#571=DIRECTION('ref_axis',(4.80096443081148E-16,0.,1.));
#572=DIRECTION('center_axis',(1.,0.,-4.80096443081148E-16));
#573=DIRECTION('ref_axis',(4.80096443081148E-16,0.,1.));
#574=DIRECTION('center_axis',(1.,-1.43254583822601E-16,-8.88178419700123E-16));
#575=DIRECTION('ref_axis',(4.80096443081148E-16,0.,1.));
#576=DIRECTION('',(1.,0.,-4.80096443081148E-16));
#577=DIRECTION('center_axis',(-1.,1.20024110770287E-16,8.88178419700123E-16));
#578=DIRECTION('ref_axis',(4.80096443081148E-16,0.,1.));
#579=DIRECTION('center_axis',(1.,0.,-4.80096443081148E-16));
#580=DIRECTION('ref_axis',(4.80096443081148E-16,0.,1.));
#581=DIRECTION('center_axis',(1.,0.,-4.88498130835069E-16));
#582=DIRECTION('ref_axis',(4.80096443081148E-16,0.,1.));
#583=DIRECTION('',(1.,0.,-4.80096443081148E-16));
#584=DIRECTION('center_axis',(-1.,-7.16272919113004E-17,8.88178419700123E-16));
#585=DIRECTION('ref_axis',(4.80096443081148E-16,0.,1.));
#586=DIRECTION('center_axis',(0.,-1.,0.));
#587=DIRECTION('ref_axis',(1.,0.,-8.4016877539201E-16));
#588=DIRECTION('center_axis',(0.,-1.,0.));
#589=DIRECTION('ref_axis',(1.,0.,-8.4016877539201E-16));
#590=DIRECTION('',(0.,-1.,0.));
#591=DIRECTION('center_axis',(0.,1.,0.));
#592=DIRECTION('ref_axis',(1.,0.,-8.4016877539201E-16));
#593=DIRECTION('center_axis',(0.,-1.,0.));
#594=DIRECTION('ref_axis',(1.,0.,-8.4016877539201E-16));
#595=DIRECTION('center_axis',(0.,-1.,0.));
#596=DIRECTION('ref_axis',(1.,0.,-8.4016877539201E-16));
#597=DIRECTION('',(0.,-1.,0.));
#598=DIRECTION('center_axis',(0.,1.,0.));
#599=DIRECTION('ref_axis',(1.,0.,-8.4016877539201E-16));
#600=DIRECTION('center_axis',(0.,1.,0.));
#601=DIRECTION('ref_axis',(1.,0.,-8.88178419700125E-16));
#602=DIRECTION('',(-1.,0.,0.));
#603=DIRECTION('',(-8.88178419700123E-16,0.,-1.));
#604=DIRECTION('center_axis',(0.,-1.,0.));
#605=DIRECTION('ref_axis',(1.,0.,-8.59527502935605E-16));
#606=DIRECTION('center_axis',(0.,-1.,0.));
#607=DIRECTION('ref_axis',(1.,0.,-8.59527502935605E-16));
#608=DIRECTION('',(-8.88178419700123E-16,0.,-1.));
#609=DIRECTION('center_axis',(0.,-1.,0.));
#610=DIRECTION('ref_axis',(1.,0.,-8.59527502935605E-16));
#611=DIRECTION('center_axis',(0.,-1.,0.));
#612=DIRECTION('ref_axis',(1.,0.,-8.59527502935605E-16));
#613=DIRECTION('',(-8.88178419700123E-16,0.,-1.));
#614=DIRECTION('',(-1.,0.,8.88178419700125E-16));
#615=DIRECTION('',(-8.88178419700123E-16,0.,-1.));
#616=DIRECTION('center_axis',(0.,-1.,0.));
#617=DIRECTION('ref_axis',(-1.,0.,8.88178419700125E-16));
#618=DIRECTION('',(-4.89858719658941E-16,0.,-1.));
#619=DIRECTION('',(1.,0.,0.));
#620=DIRECTION('',(-8.88178419700123E-16,0.,-1.));
#621=DIRECTION('',(1.,0.,-8.88178419700125E-16));
#622=DIRECTION('center_axis',(1.,7.16272919113004E-17,-8.88178419700123E-16));
#623=DIRECTION('ref_axis',(7.16272919113004E-17,-1.,-6.36178149371784E-32));
#624=DIRECTION('',(-7.16272919113004E-17,1.,0.));
#625=DIRECTION('',(-8.88178419700123E-16,0.,-1.));
#626=DIRECTION('',(-7.16272919113004E-17,1.,6.36178149371784E-32));
#627=DIRECTION('center_axis',(1.,-1.20024110770287E-16,-8.88178419700123E-16));
#628=DIRECTION('ref_axis',(-1.20024110770287E-16,-1.,1.06602825029866E-31));
#629=DIRECTION('',(1.20024110770287E-16,1.,0.));
#630=DIRECTION('',(-8.88178419700123E-16,0.,-1.));
#631=DIRECTION('',(1.20024110770287E-16,1.,-1.06602825029866E-31));
#632=DIRECTION('center_axis',(0.,-1.,0.));
#633=DIRECTION('ref_axis',(-1.,0.,8.88178419700125E-16));
#634=DIRECTION('',(1.,0.,0.));
#635=DIRECTION('',(-8.88178419700123E-16,0.,-1.));
#636=DIRECTION('',(1.,0.,-8.88178419700125E-16));
#637=DIRECTION('center_axis',(-1.,1.43254583822601E-16,8.88178419700123E-16));
#638=DIRECTION('ref_axis',(1.43254583822601E-16,1.,-1.27235629874357E-31));
#639=DIRECTION('',(-1.43254583822601E-16,-1.,0.));
#640=DIRECTION('',(-1.43254583822601E-16,-1.,1.27235629874357E-31));
#641=DIRECTION('center_axis',(0.,1.,0.));
#642=DIRECTION('ref_axis',(1.,0.,-8.88178419700125E-16));
#643=DIRECTION('',(-1.,0.,0.));
#644=DIRECTION('',(-8.88178419700123E-16,0.,-1.));
#645=DIRECTION('',(-1.,0.,8.88178419700125E-16));
#646=DIRECTION('center_axis',(0.,1.,0.));
#647=DIRECTION('ref_axis',(-1.,0.,0.));
#648=DIRECTION('',(0.,-1.,0.));
#649=DIRECTION('center_axis',(0.,1.,0.));
#650=DIRECTION('ref_axis',(-1.,0.,0.));
#651=DIRECTION('center_axis',(0.,1.,0.));
#652=DIRECTION('ref_axis',(-1.,0.,0.));
#653=DIRECTION('',(0.,-1.,0.));
#654=DIRECTION('center_axis',(0.,1.,0.));
#655=DIRECTION('ref_axis',(-1.,0.,0.));
#656=DIRECTION('center_axis',(0.,1.,0.));
#657=DIRECTION('ref_axis',(0.,0.,1.));
#658=DIRECTION('center_axis',(0.,-1.,0.));
#659=DIRECTION('ref_axis',(1.,0.,0.));
#660=DIRECTION('center_axis',(0.,-1.,0.));
#661=DIRECTION('ref_axis',(1.,0.,0.));
#662=DIRECTION('',(0.,-1.,0.));
#663=DIRECTION('center_axis',(0.,1.,0.));
#664=DIRECTION('ref_axis',(1.,0.,0.));
#665=DIRECTION('center_axis',(0.,-1.,0.));
#666=DIRECTION('ref_axis',(1.,0.,0.));
#667=DIRECTION('center_axis',(0.,-1.,0.));
#668=DIRECTION('ref_axis',(1.,0.,0.));
#669=DIRECTION('',(0.,-1.,0.));
#670=DIRECTION('center_axis',(0.,1.,0.));
#671=DIRECTION('ref_axis',(1.,0.,0.));
#672=DIRECTION('center_axis',(1.,0.,-4.89858719658941E-16));
#673=DIRECTION('ref_axis',(-4.89858719658941E-16,0.,-1.));
#674=DIRECTION('',(-4.89858719658941E-16,0.,-1.));
#675=DIRECTION('',(0.,1.,0.));
#676=DIRECTION('',(0.,1.,0.));
#677=DIRECTION('center_axis',(8.88178419700125E-16,0.,1.));
#678=DIRECTION('ref_axis',(1.,0.,-8.88178419700125E-16));
#679=DIRECTION('',(1.,0.,-8.88178419700125E-16));
#680=DIRECTION('',(0.,1.,0.));
#681=DIRECTION('center_axis',(-1.,0.,4.88498130835069E-16));
#682=DIRECTION('ref_axis',(4.88498130835069E-16,0.,1.));
#683=DIRECTION('',(4.88498130835069E-16,0.,1.));
#684=DIRECTION('',(0.,1.,0.));
#685=DIRECTION('center_axis',(0.,0.,-1.));
#686=DIRECTION('ref_axis',(-1.,0.,0.));
#687=DIRECTION('',(-1.,0.,0.));
#688=DIRECTION('center_axis',(0.,1.,0.));
#689=DIRECTION('ref_axis',(0.,0.,1.));
#690=DIRECTION('center_axis',(0.,1.,0.));
#691=DIRECTION('ref_axis',(0.,0.,1.));
#692=CARTESIAN_POINT('',(0.,0.,0.));
#693=CARTESIAN_POINT('Origin',(-9.99999999999999,11.75,7.5));
#694=CARTESIAN_POINT('',(7.,11.75,5.9));
#695=CARTESIAN_POINT('Origin',(7.00000000000001,11.75,7.5));
#696=CARTESIAN_POINT('',(8.50000000000001,11.75,5.89999999999999));
#697=CARTESIAN_POINT('',(-10.,11.75,5.9));
#698=CARTESIAN_POINT('Origin',(8.50000000000001,11.75,7.5));
#699=CARTESIAN_POINT('Origin',(-9.99999999999999,11.75,7.5));
#700=CARTESIAN_POINT('',(-10.,11.75,5.9));
#701=CARTESIAN_POINT('Origin',(-9.99999999999999,11.75,7.5));
#702=CARTESIAN_POINT('',(-8.5,11.75,5.9));
#703=CARTESIAN_POINT('',(-10.,11.75,5.9));
#704=CARTESIAN_POINT('Origin',(-8.49999999999999,11.75,7.5));
#705=CARTESIAN_POINT('Origin',(-10.,11.75,-7.5));
#706=CARTESIAN_POINT('',(7.,11.75,-9.1));
#707=CARTESIAN_POINT('Origin',(7.,11.75,-7.5));
#708=CARTESIAN_POINT('',(8.5,11.75,-9.1));
#709=CARTESIAN_POINT('',(-10.,11.75,-9.1));
#710=CARTESIAN_POINT('Origin',(8.5,11.75,-7.5));
#711=CARTESIAN_POINT('Origin',(-10.,11.75,-7.5));
#712=CARTESIAN_POINT('',(-10.,11.75,-9.1));
#713=CARTESIAN_POINT('Origin',(-10.,11.75,-7.5));
#714=CARTESIAN_POINT('',(-8.5,11.75,-9.1));
#715=CARTESIAN_POINT('',(-10.,11.75,-9.1));
#716=CARTESIAN_POINT('Origin',(-8.5,11.75,-7.5));
#717=CARTESIAN_POINT('Origin',(-4.99999999999999,21.,6.5));
#718=CARTESIAN_POINT('',(-6.74999999999999,21.,6.5));
#719=CARTESIAN_POINT('Origin',(-4.99999999999999,21.,6.5));
#720=CARTESIAN_POINT('',(-6.74999999999999,19.5,6.5));
#721=CARTESIAN_POINT('',(-6.74999999999999,21.,6.5));
#722=CARTESIAN_POINT('Origin',(-4.99999999999999,19.5,6.5));
#723=CARTESIAN_POINT('Origin',(-4.99999999999999,21.,-6.5));
#724=CARTESIAN_POINT('',(-6.74999999999999,21.,-6.5));
#725=CARTESIAN_POINT('Origin',(-4.99999999999999,21.,-6.5));
#726=CARTESIAN_POINT('',(-6.74999999999999,19.5,-6.5));
#727=CARTESIAN_POINT('',(-6.74999999999999,21.,-6.5));
#728=CARTESIAN_POINT('Origin',(-4.99999999999999,19.5,-6.5));
#729=CARTESIAN_POINT('Origin',(-8.49999999999999,4.,12.5));
#730=CARTESIAN_POINT('',(6.99999999999998,4.,-12.5));
#731=CARTESIAN_POINT('',(-8.50000000000001,4.,-12.5));
#732=CARTESIAN_POINT('',(-4.625,4.,-12.5));
#733=CARTESIAN_POINT('',(-8.50000000000001,4.,-6.5));
#734=CARTESIAN_POINT('',(-8.49999999999999,4.,12.5));
#735=CARTESIAN_POINT('',(-1.49999999999999,4.,-6.5));
#736=CARTESIAN_POINT('Origin',(-4.99999999999999,4.,-6.5));
#737=CARTESIAN_POINT('Origin',(-4.99999999999999,4.,-6.5));
#738=CARTESIAN_POINT('',(-8.5,4.,6.5));
#739=CARTESIAN_POINT('',(-8.49999999999999,4.,12.5));
#740=CARTESIAN_POINT('',(-1.49999999999999,4.,6.5));
#741=CARTESIAN_POINT('Origin',(-4.99999999999999,4.,6.5));
#742=CARTESIAN_POINT('Origin',(-4.99999999999999,4.,6.5));
#743=CARTESIAN_POINT('',(-8.49999999999999,4.,12.5));
#744=CARTESIAN_POINT('',(-8.49999999999999,4.,12.5));
#745=CARTESIAN_POINT('',(7.00000000000001,4.,12.5));
#746=CARTESIAN_POINT('',(7.00000000000001,4.,12.5));
#747=CARTESIAN_POINT('',(7.00000000000001,4.,12.5));
#748=CARTESIAN_POINT('Origin',(8.50000000000001,2.5,12.5));
#749=CARTESIAN_POINT('',(8.88178419700125E-15,2.5,12.5));
#750=CARTESIAN_POINT('',(-4.44089209850063E-15,2.5,-12.5));
#751=CARTESIAN_POINT('',(7.8055758929729E-15,2.5,12.5));
#752=CARTESIAN_POINT('',(8.49999999999999,2.5,-12.5));
#753=CARTESIAN_POINT('',(3.875,2.5,-12.5));
#754=CARTESIAN_POINT('',(8.50000000000001,2.5,12.5));
#755=CARTESIAN_POINT('',(8.50000000000001,2.5,12.5));
#756=CARTESIAN_POINT('',(-9.99999999999999,2.5,12.5));
#757=CARTESIAN_POINT('Origin',(-8.49999999999999,19.5,12.5));
#758=CARTESIAN_POINT('',(-8.50000000000002,19.5,-12.5));
#759=CARTESIAN_POINT('',(-8.50000000000001,15.625,-12.5));
#760=CARTESIAN_POINT('',(-8.49999999999999,19.5,12.5));
#761=CARTESIAN_POINT('',(-8.49999999999999,19.5,12.5));
#762=CARTESIAN_POINT('',(-8.49999999999999,4.,12.5));
#763=CARTESIAN_POINT('Origin',(8.50000000000001,21.,12.5));
#764=CARTESIAN_POINT('',(8.49999999999999,21.,-12.5));
#765=CARTESIAN_POINT('',(8.49999999999999,16.375,-12.5));
#766=CARTESIAN_POINT('',(8.50000000000001,21.,12.5));
#767=CARTESIAN_POINT('',(8.50000000000001,21.,12.5));
#768=CARTESIAN_POINT('',(8.50000000000001,2.5,12.5));
#769=CARTESIAN_POINT('Origin',(7.00000000000001,19.5,12.5));
#770=CARTESIAN_POINT('',(6.99999999999999,19.5,-12.5));
#771=CARTESIAN_POINT('',(3.125,19.5,-12.5));
#772=CARTESIAN_POINT('',(7.00000000000001,19.5,12.5));
#773=CARTESIAN_POINT('',(7.00000000000001,19.5,12.5));
#774=CARTESIAN_POINT('',(-8.49999999999999,19.5,12.5));
#775=CARTESIAN_POINT('Origin',(7.00000000000001,4.,12.5));
#776=CARTESIAN_POINT('',(6.99999999999999,7.875,-12.5));
#777=CARTESIAN_POINT('',(7.00000000000001,19.5,12.5));
#778=CARTESIAN_POINT('Origin',(-9.99999999999999,21.,12.5));
#779=CARTESIAN_POINT('',(-10.,21.,-12.5));
#780=CARTESIAN_POINT('',(-5.375,21.,-12.5));
#781=CARTESIAN_POINT('',(-9.99999999999999,21.,12.5));
#782=CARTESIAN_POINT('',(-9.99999999999999,21.,12.5));
#783=CARTESIAN_POINT('',(8.50000000000001,21.,12.5));
#784=CARTESIAN_POINT('Origin',(-4.99999999999999,1.,-6.5));
#785=CARTESIAN_POINT('',(-1.49999999999999,1.,-6.5));
#786=CARTESIAN_POINT('',(-1.49999999999999,1.,-6.5));
#787=CARTESIAN_POINT('Origin',(-4.99999999999999,1.,-6.5));
#788=CARTESIAN_POINT('Origin',(-4.99999999999999,1.,6.5));
#789=CARTESIAN_POINT('',(-1.49999999999999,1.,6.5));
#790=CARTESIAN_POINT('',(-1.49999999999999,1.,6.5));
#791=CARTESIAN_POINT('Origin',(-4.99999999999999,1.,6.5));
#792=CARTESIAN_POINT('Origin',(-5.,1.,4.44089209850063E-15));
#793=CARTESIAN_POINT('',(-6.74999999999999,1.,6.5));
#794=CARTESIAN_POINT('Origin',(-4.99999999999999,1.,6.5));
#795=CARTESIAN_POINT('Origin',(-4.99999999999999,1.,6.5));
#796=CARTESIAN_POINT('',(-6.74999999999999,0.,6.5));
#797=CARTESIAN_POINT('',(-6.74999999999999,1.,6.5));
#798=CARTESIAN_POINT('Origin',(-4.99999999999999,0.,6.5));
#799=CARTESIAN_POINT('Origin',(-4.99999999999999,1.,-6.5));
#800=CARTESIAN_POINT('',(-6.74999999999999,1.,-6.5));
#801=CARTESIAN_POINT('Origin',(-4.99999999999999,1.,-6.5));
#802=CARTESIAN_POINT('',(-6.74999999999999,0.,-6.5));
#803=CARTESIAN_POINT('',(-6.74999999999999,1.,-6.5));
#804=CARTESIAN_POINT('Origin',(-4.99999999999999,0.,-6.5));
#805=CARTESIAN_POINT('Origin',(7.8055758929729E-15,0.,12.5));
#806=CARTESIAN_POINT('',(7.8055758929729E-15,0.,12.5));
#807=CARTESIAN_POINT('',(-4.44089209850063E-15,0.,-12.5));
#808=CARTESIAN_POINT('',(7.8055758929729E-15,0.,12.5));
#809=CARTESIAN_POINT('',(-4.44089209850063E-15,0.,-12.5));
#810=CARTESIAN_POINT('',(7.8055758929729E-15,0.,12.5));
#811=CARTESIAN_POINT('Origin',(-9.99999999999999,0.,12.5));
#812=CARTESIAN_POINT('',(-9.99999999999999,0.,12.5));
#813=CARTESIAN_POINT('',(-9.99999999999999,0.,12.5));
#814=CARTESIAN_POINT('',(-9.99999999999999,0.,12.5));
#815=CARTESIAN_POINT('Origin',(-10.,0.,-12.5));
#816=CARTESIAN_POINT('',(-10.,0.,-12.5));
#817=CARTESIAN_POINT('',(-10.,0.,-12.5));
#818=CARTESIAN_POINT('',(-10.,0.,-12.5));
#819=CARTESIAN_POINT('Origin',(-4.44089209850063E-15,0.,-12.5));
#820=CARTESIAN_POINT('',(-4.44089209850063E-15,0.,-12.5));
#821=CARTESIAN_POINT('Origin',(-5.,1.,4.44089209850063E-15));
#822=CARTESIAN_POINT('Origin',(-5.,0.,4.44089209850063E-15));
#823=UNCERTAINTY_MEASURE_WITH_UNIT(LENGTH_MEASURE(0.01),#827,
'DISTANCE_ACCURACY_VALUE',
'Maximum model space distance between geometric entities at asserted c
onnectivities');
#824=UNCERTAINTY_MEASURE_WITH_UNIT(LENGTH_MEASURE(0.01),#827,
'DISTANCE_ACCURACY_VALUE',
'Maximum model space distance between geometric entities at asserted c
onnectivities');
#825=(
GEOMETRIC_REPRESENTATION_CONTEXT(3)
GLOBAL_UNCERTAINTY_ASSIGNED_CONTEXT((#823))
GLOBAL_UNIT_ASSIGNED_CONTEXT((#827,#829,#830))
REPRESENTATION_CONTEXT('','3D')
);
#826=(
GEOMETRIC_REPRESENTATION_CONTEXT(3)
GLOBAL_UNCERTAINTY_ASSIGNED_CONTEXT((#824))
GLOBAL_UNIT_ASSIGNED_CONTEXT((#827,#829,#830))
REPRESENTATION_CONTEXT('','3D')
);
#827=(
LENGTH_UNIT()
NAMED_UNIT(*)
SI_UNIT(.MILLI.,.METRE.)
);
#828=(
LENGTH_UNIT()
NAMED_UNIT(*)
SI_UNIT(.CENTI.,.METRE.)
);
#829=(
NAMED_UNIT(*)
PLANE_ANGLE_UNIT()
SI_UNIT($,.RADIAN.)
);
#830=(
NAMED_UNIT(*)
SI_UNIT($,.STERADIAN.)
SOLID_ANGLE_UNIT()
);
#831=SHAPE_DEFINITION_REPRESENTATION(#832,#833);
#832=PRODUCT_DEFINITION_SHAPE('',$,#835);
#833=SHAPE_REPRESENTATION('',(#509),#825);
#834=PRODUCT_DEFINITION_CONTEXT('part definition',#839,'design');
#835=PRODUCT_DEFINITION('pole_setter','pole_setter',#836,#834);
#836=PRODUCT_DEFINITION_FORMATION('',$,#841);
#837=PRODUCT_RELATED_PRODUCT_CATEGORY('pole_setter','pole_setter',(#841));
#838=APPLICATION_PROTOCOL_DEFINITION('international standard',
'automotive_design',2009,#839);
#839=APPLICATION_CONTEXT(
'Core Data for Automotive Mechanical Design Process');
#840=PRODUCT_CONTEXT('part definition',#839,'mechanical');
#841=PRODUCT('pole_setter','pole_setter',$,(#840));
#842=PRESENTATION_STYLE_ASSIGNMENT((#844));
#843=PRESENTATION_STYLE_ASSIGNMENT((#845));
#844=SURFACE_STYLE_USAGE(.BOTH.,#850);
#845=SURFACE_STYLE_USAGE(.BOTH.,#851);
#846=SURFACE_STYLE_RENDERING_WITH_PROPERTIES($,#858,(#848));
#847=SURFACE_STYLE_RENDERING_WITH_PROPERTIES($,#859,(#849));
#848=SURFACE_STYLE_TRANSPARENT(0.);
#849=SURFACE_STYLE_TRANSPARENT(0.);
#850=SURFACE_SIDE_STYLE('',(#852,#846));
#851=SURFACE_SIDE_STYLE('',(#853,#847));
#852=SURFACE_STYLE_FILL_AREA(#854);
#853=SURFACE_STYLE_FILL_AREA(#855);
#854=FILL_AREA_STYLE('',(#856));
#855=FILL_AREA_STYLE('',(#857));
#856=FILL_AREA_STYLE_COLOUR('',#858);
#857=FILL_AREA_STYLE_COLOUR('',#859);
#858=COLOUR_RGB('',0.749019607843137,0.749019607843137,0.749019607843137);
#859=COLOUR_RGB('',0.352941176470588,0.352941176470588,0.352941176470588);
ENDSEC;
END-ISO-10303-21;
