ISO-10303-21;
HEADER;
/* Generated by software containing ST-Developer
 * from STEP Tools, Inc. (www.steptools.com) 
 */

FILE_DESCRIPTION(
/* description */ (''),
/* implementation_level */ '2;1');

FILE_NAME(
/* name */ 'pole_setter_crow.stp',
/* time_stamp */ '2026-02-04T16:57:13+09:00',
/* author */ ('hibik'),
/* organization */ (''),
/* preprocessor_version */ 'ST-DEVELOPER v20.1',
/* originating_system */ 'Autodesk Inventor 2026',
/* authorisation */ '');

FILE_SCHEMA (('AUTOMOTIVE_DESIGN { 1 0 10303 214 3 1 1 }'));
ENDSEC;

DATA;
#10=MECHANICAL_DESIGN_GEOMETRIC_PRESENTATION_REPRESENTATION('',(#13),#1004);
#11=SHAPE_REPRESENTATION_RELATIONSHIP('SRR','None',#1011,#12);
#12=ADVANCED_BREP_SHAPE_REPRESENTATION('',(#14),#1003);
#13=STYLED_ITEM('',(#1021),#14);
#14=MANIFOLD_SOLID_BREP('\X2\30BD30EA30C330C9\X0\1',#586);
#15=FACE_BOUND('',#93,.T.);
#16=FACE_BOUND('',#94,.T.);
#17=FACE_BOUND('',#96,.T.);
#18=FACE_BOUND('',#97,.T.);
#19=FACE_BOUND('',#99,.T.);
#20=FACE_BOUND('',#100,.T.);
#21=FACE_BOUND('',#102,.T.);
#22=FACE_BOUND('',#103,.T.);
#23=FACE_BOUND('',#105,.T.);
#24=FACE_BOUND('',#106,.T.);
#25=FACE_BOUND('',#110,.T.);
#26=FACE_BOUND('',#115,.T.);
#27=FACE_BOUND('',#117,.T.);
#28=FACE_BOUND('',#118,.T.);
#29=FACE_BOUND('',#120,.T.);
#30=FACE_BOUND('',#122,.T.);
#31=FACE_BOUND('',#124,.T.);
#32=FACE_BOUND('',#125,.T.);
#33=PLANE('',#612);
#34=PLANE('',#617);
#35=PLANE('',#618);
#36=PLANE('',#619);
#37=PLANE('',#638);
#38=PLANE('',#643);
#39=PLANE('',#644);
#40=PLANE('',#645);
#41=PLANE('',#646);
#42=PLANE('',#647);
#43=PLANE('',#652);
#44=PLANE('',#659);
#45=PLANE('',#660);
#46=PLANE('',#661);
#47=PLANE('',#662);
#48=PLANE('',#663);
#49=PLANE('',#664);
#50=FACE_OUTER_BOUND('',#79,.T.);
#51=FACE_OUTER_BOUND('',#80,.T.);
#52=FACE_OUTER_BOUND('',#81,.T.);
#53=FACE_OUTER_BOUND('',#82,.T.);
#54=FACE_OUTER_BOUND('',#83,.T.);
#55=FACE_OUTER_BOUND('',#84,.T.);
#56=FACE_OUTER_BOUND('',#85,.T.);
#57=FACE_OUTER_BOUND('',#86,.T.);
#58=FACE_OUTER_BOUND('',#87,.T.);
#59=FACE_OUTER_BOUND('',#88,.T.);
#60=FACE_OUTER_BOUND('',#89,.T.);
#61=FACE_OUTER_BOUND('',#90,.T.);
#62=FACE_OUTER_BOUND('',#91,.T.);
#63=FACE_OUTER_BOUND('',#92,.T.);
#64=FACE_OUTER_BOUND('',#95,.T.);
#65=FACE_OUTER_BOUND('',#98,.T.);
#66=FACE_OUTER_BOUND('',#101,.T.);
#67=FACE_OUTER_BOUND('',#104,.T.);
#68=FACE_OUTER_BOUND('',#107,.T.);
#69=FACE_OUTER_BOUND('',#108,.T.);
#70=FACE_OUTER_BOUND('',#109,.T.);
#71=FACE_OUTER_BOUND('',#111,.T.);
#72=FACE_OUTER_BOUND('',#112,.T.);
#73=FACE_OUTER_BOUND('',#113,.T.);
#74=FACE_OUTER_BOUND('',#114,.T.);
#75=FACE_OUTER_BOUND('',#116,.T.);
#76=FACE_OUTER_BOUND('',#119,.T.);
#77=FACE_OUTER_BOUND('',#121,.T.);
#78=FACE_OUTER_BOUND('',#123,.T.);
#79=EDGE_LOOP('',(#387,#388,#389,#390,#391,#392));
#80=EDGE_LOOP('',(#393,#394,#395));
#81=EDGE_LOOP('',(#396,#397,#398,#399,#400,#401));
#82=EDGE_LOOP('',(#402,#403,#404,#405));
#83=EDGE_LOOP('',(#406,#407,#408));
#84=EDGE_LOOP('',(#409,#410,#411,#412));
#85=EDGE_LOOP('',(#413,#414,#415,#416));
#86=EDGE_LOOP('',(#417,#418,#419,#420));
#87=EDGE_LOOP('',(#421,#422,#423,#424));
#88=EDGE_LOOP('',(#425,#426,#427,#428));
#89=EDGE_LOOP('',(#429,#430,#431,#432));
#90=EDGE_LOOP('',(#433,#434,#435,#436));
#91=EDGE_LOOP('',(#437,#438,#439,#440,#441,#442,#443,#444,#445,#446));
#92=EDGE_LOOP('',(#447,#448,#449,#450,#451,#452));
#93=EDGE_LOOP('',(#453));
#94=EDGE_LOOP('',(#454));
#95=EDGE_LOOP('',(#455,#456,#457,#458));
#96=EDGE_LOOP('',(#459));
#97=EDGE_LOOP('',(#460));
#98=EDGE_LOOP('',(#461,#462,#463,#464));
#99=EDGE_LOOP('',(#465));
#100=EDGE_LOOP('',(#466));
#101=EDGE_LOOP('',(#467,#468,#469,#470));
#102=EDGE_LOOP('',(#471));
#103=EDGE_LOOP('',(#472));
#104=EDGE_LOOP('',(#473,#474,#475,#476));
#105=EDGE_LOOP('',(#477));
#106=EDGE_LOOP('',(#478));
#107=EDGE_LOOP('',(#479,#480,#481,#482,#483));
#108=EDGE_LOOP('',(#484,#485,#486,#487,#488));
#109=EDGE_LOOP('',(#489));
#110=EDGE_LOOP('',(#490));
#111=EDGE_LOOP('',(#491,#492,#493,#494));
#112=EDGE_LOOP('',(#495,#496,#497,#498));
#113=EDGE_LOOP('',(#499,#500,#501,#502));
#114=EDGE_LOOP('',(#503,#504,#505,#506,#507,#508,#509,#510,#511,#512));
#115=EDGE_LOOP('',(#513,#514,#515,#516));
#116=EDGE_LOOP('',(#517,#518,#519,#520));
#117=EDGE_LOOP('',(#521));
#118=EDGE_LOOP('',(#522));
#119=EDGE_LOOP('',(#523,#524,#525,#526,#527,#528,#529,#530,#531,#532));
#120=EDGE_LOOP('',(#533,#534,#535,#536));
#121=EDGE_LOOP('',(#537));
#122=EDGE_LOOP('',(#538));
#123=EDGE_LOOP('',(#539,#540,#541,#542));
#124=EDGE_LOOP('',(#543));
#125=EDGE_LOOP('',(#544));
#126=B_SPLINE_CURVE_WITH_KNOTS('',3,(#838,#839,#840,#841,#842,#843,#844,
#845,#846,#847,#848),.UNSPECIFIED.,.F.,.F.,(4,2,3,2,4),(6.70260712888914,
6.75459362001671,7.08427410587819,7.41395459173966,7.46594108286723),
 .UNSPECIFIED.);
#127=LINE('',#836,#178);
#128=LINE('',#850,#179);
#129=LINE('',#853,#180);
#130=LINE('',#857,#181);
#131=LINE('',#862,#182);
#132=LINE('',#865,#183);
#133=LINE('',#869,#184);
#134=LINE('',#870,#185);
#135=LINE('',#871,#186);
#136=LINE('',#873,#187);
#137=LINE('',#876,#188);
#138=LINE('',#878,#189);
#139=LINE('',#879,#190);
#140=LINE('',#884,#191);
#141=LINE('',#890,#192);
#142=LINE('',#896,#193);
#143=LINE('',#902,#194);
#144=LINE('',#908,#195);
#145=LINE('',#914,#196);
#146=LINE('',#919,#197);
#147=LINE('',#921,#198);
#148=LINE('',#926,#199);
#149=LINE('',#931,#200);
#150=LINE('',#933,#201);
#151=LINE('',#934,#202);
#152=LINE('',#937,#203);
#153=LINE('',#939,#204);
#154=LINE('',#940,#205);
#155=LINE('',#943,#206);
#156=LINE('',#945,#207);
#157=LINE('',#946,#208);
#158=LINE('',#949,#209);
#159=LINE('',#951,#210);
#160=LINE('',#952,#211);
#161=LINE('',#954,#212);
#162=LINE('',#955,#213);
#163=LINE('',#958,#214);
#164=LINE('',#960,#215);
#165=LINE('',#961,#216);
#166=LINE('',#964,#217);
#167=LINE('',#968,#218);
#168=LINE('',#975,#219);
#169=LINE('',#981,#220);
#170=LINE('',#986,#221);
#171=LINE('',#987,#222);
#172=LINE('',#988,#223);
#173=LINE('',#991,#224);
#174=LINE('',#992,#225);
#175=LINE('',#995,#226);
#176=LINE('',#996,#227);
#177=LINE('',#998,#228);
#178=VECTOR('',#671,5.);
#179=VECTOR('',#672,5.);
#180=VECTOR('',#675,10.);
#181=VECTOR('',#680,10.);
#182=VECTOR('',#685,10.);
#183=VECTOR('',#688,10.);
#184=VECTOR('',#691,10.);
#185=VECTOR('',#692,10.);
#186=VECTOR('',#693,10.);
#187=VECTOR('',#696,10.);
#188=VECTOR('',#699,10.);
#189=VECTOR('',#700,10.);
#190=VECTOR('',#701,10.);
#191=VECTOR('',#706,1.6);
#192=VECTOR('',#713,1.6);
#193=VECTOR('',#720,1.6);
#194=VECTOR('',#727,1.6);
#195=VECTOR('',#734,1.75);
#196=VECTOR('',#741,1.75);
#197=VECTOR('',#746,10.);
#198=VECTOR('',#747,10.);
#199=VECTOR('',#752,10.);
#200=VECTOR('',#757,10.);
#201=VECTOR('',#758,10.);
#202=VECTOR('',#759,10.);
#203=VECTOR('',#762,10.);
#204=VECTOR('',#763,10.);
#205=VECTOR('',#764,10.);
#206=VECTOR('',#767,10.);
#207=VECTOR('',#768,10.);
#208=VECTOR('',#769,10.);
#209=VECTOR('',#772,10.);
#210=VECTOR('',#773,10.);
#211=VECTOR('',#774,10.);
#212=VECTOR('',#777,10.);
#213=VECTOR('',#778,10.);
#214=VECTOR('',#781,10.);
#215=VECTOR('',#782,10.);
#216=VECTOR('',#783,10.);
#217=VECTOR('',#786,3.5);
#218=VECTOR('',#791,3.5);
#219=VECTOR('',#800,1.75);
#220=VECTOR('',#807,1.75);
#221=VECTOR('',#812,10.);
#222=VECTOR('',#813,10.);
#223=VECTOR('',#814,10.);
#224=VECTOR('',#817,10.);
#225=VECTOR('',#818,10.);
#226=VECTOR('',#821,10.);
#227=VECTOR('',#822,10.);
#228=VECTOR('',#825,10.);
#229=CIRCLE('',#610,5.);
#230=CIRCLE('',#611,5.);
#231=CIRCLE('',#613,23.25);
#232=CIRCLE('',#615,23.25);
#233=CIRCLE('',#616,23.25);
#234=CIRCLE('',#621,1.6);
#235=CIRCLE('',#622,1.6);
#236=CIRCLE('',#624,1.6);
#237=CIRCLE('',#625,1.6);
#238=CIRCLE('',#627,1.6);
#239=CIRCLE('',#628,1.6);
#240=CIRCLE('',#630,1.6);
#241=CIRCLE('',#631,1.6);
#242=CIRCLE('',#633,1.75);
#243=CIRCLE('',#634,1.75);
#244=CIRCLE('',#636,1.75);
#245=CIRCLE('',#637,1.75);
#246=CIRCLE('',#639,3.5);
#247=CIRCLE('',#640,3.5);
#248=CIRCLE('',#641,3.5);
#249=CIRCLE('',#642,3.5);
#250=CIRCLE('',#649,3.5);
#251=CIRCLE('',#651,3.5);
#252=CIRCLE('',#653,1.75);
#253=CIRCLE('',#655,1.75);
#254=CIRCLE('',#657,1.75);
#255=CIRCLE('',#658,1.75);
#256=VERTEX_POINT('',#832);
#257=VERTEX_POINT('',#833);
#258=VERTEX_POINT('',#835);
#259=VERTEX_POINT('',#837);
#260=VERTEX_POINT('',#849);
#261=VERTEX_POINT('',#851);
#262=VERTEX_POINT('',#855);
#263=VERTEX_POINT('',#859);
#264=VERTEX_POINT('',#860);
#265=VERTEX_POINT('',#863);
#266=VERTEX_POINT('',#867);
#267=VERTEX_POINT('',#868);
#268=VERTEX_POINT('',#875);
#269=VERTEX_POINT('',#877);
#270=VERTEX_POINT('',#881);
#271=VERTEX_POINT('',#883);
#272=VERTEX_POINT('',#887);
#273=VERTEX_POINT('',#889);
#274=VERTEX_POINT('',#893);
#275=VERTEX_POINT('',#895);
#276=VERTEX_POINT('',#899);
#277=VERTEX_POINT('',#901);
#278=VERTEX_POINT('',#905);
#279=VERTEX_POINT('',#907);
#280=VERTEX_POINT('',#911);
#281=VERTEX_POINT('',#913);
#282=VERTEX_POINT('',#917);
#283=VERTEX_POINT('',#918);
#284=VERTEX_POINT('',#920);
#285=VERTEX_POINT('',#922);
#286=VERTEX_POINT('',#925);
#287=VERTEX_POINT('',#927);
#288=VERTEX_POINT('',#930);
#289=VERTEX_POINT('',#932);
#290=VERTEX_POINT('',#936);
#291=VERTEX_POINT('',#938);
#292=VERTEX_POINT('',#942);
#293=VERTEX_POINT('',#944);
#294=VERTEX_POINT('',#948);
#295=VERTEX_POINT('',#950);
#296=VERTEX_POINT('',#957);
#297=VERTEX_POINT('',#959);
#298=VERTEX_POINT('',#963);
#299=VERTEX_POINT('',#967);
#300=VERTEX_POINT('',#971);
#301=VERTEX_POINT('',#974);
#302=VERTEX_POINT('',#978);
#303=VERTEX_POINT('',#980);
#304=VERTEX_POINT('',#984);
#305=VERTEX_POINT('',#985);
#306=VERTEX_POINT('',#990);
#307=VERTEX_POINT('',#994);
#308=EDGE_CURVE('',#256,#257,#229,.F.);
#309=EDGE_CURVE('',#256,#258,#127,.T.);
#310=EDGE_CURVE('',#259,#258,#126,.F.);
#311=EDGE_CURVE('',#259,#260,#128,.T.);
#312=EDGE_CURVE('',#260,#261,#230,.T.);
#313=EDGE_CURVE('',#257,#261,#129,.T.);
#314=EDGE_CURVE('',#259,#262,#231,.T.);
#315=EDGE_CURVE('',#262,#260,#130,.T.);
#316=EDGE_CURVE('',#263,#264,#232,.T.);
#317=EDGE_CURVE('',#263,#262,#131,.T.);
#318=EDGE_CURVE('',#265,#258,#233,.T.);
#319=EDGE_CURVE('',#264,#265,#132,.T.);
#320=EDGE_CURVE('',#266,#267,#133,.T.);
#321=EDGE_CURVE('',#266,#263,#134,.T.);
#322=EDGE_CURVE('',#264,#267,#135,.T.);
#323=EDGE_CURVE('',#256,#265,#136,.T.);
#324=EDGE_CURVE('',#268,#267,#137,.T.);
#325=EDGE_CURVE('',#268,#269,#138,.T.);
#326=EDGE_CURVE('',#269,#266,#139,.T.);
#327=EDGE_CURVE('',#270,#270,#234,.T.);
#328=EDGE_CURVE('',#270,#271,#140,.T.);
#329=EDGE_CURVE('',#271,#271,#235,.T.);
#330=EDGE_CURVE('',#272,#272,#236,.T.);
#331=EDGE_CURVE('',#272,#273,#141,.T.);
#332=EDGE_CURVE('',#273,#273,#237,.T.);
#333=EDGE_CURVE('',#274,#274,#238,.T.);
#334=EDGE_CURVE('',#274,#275,#142,.T.);
#335=EDGE_CURVE('',#275,#275,#239,.T.);
#336=EDGE_CURVE('',#276,#276,#240,.T.);
#337=EDGE_CURVE('',#276,#277,#143,.T.);
#338=EDGE_CURVE('',#277,#277,#241,.T.);
#339=EDGE_CURVE('',#278,#278,#242,.T.);
#340=EDGE_CURVE('',#278,#279,#144,.T.);
#341=EDGE_CURVE('',#279,#279,#243,.T.);
#342=EDGE_CURVE('',#280,#280,#244,.T.);
#343=EDGE_CURVE('',#280,#281,#145,.T.);
#344=EDGE_CURVE('',#281,#281,#245,.T.);
#345=EDGE_CURVE('',#282,#283,#146,.T.);
#346=EDGE_CURVE('',#284,#283,#147,.T.);
#347=EDGE_CURVE('',#284,#285,#246,.T.);
#348=EDGE_CURVE('',#285,#284,#247,.T.);
#349=EDGE_CURVE('',#286,#284,#148,.T.);
#350=EDGE_CURVE('',#286,#287,#248,.T.);
#351=EDGE_CURVE('',#287,#286,#249,.T.);
#352=EDGE_CURVE('',#288,#286,#149,.T.);
#353=EDGE_CURVE('',#289,#288,#150,.T.);
#354=EDGE_CURVE('',#289,#282,#151,.T.);
#355=EDGE_CURVE('',#283,#290,#152,.T.);
#356=EDGE_CURVE('',#291,#290,#153,.T.);
#357=EDGE_CURVE('',#288,#291,#154,.T.);
#358=EDGE_CURVE('',#261,#292,#155,.T.);
#359=EDGE_CURVE('',#293,#292,#156,.T.);
#360=EDGE_CURVE('',#257,#293,#157,.T.);
#361=EDGE_CURVE('',#290,#294,#158,.T.);
#362=EDGE_CURVE('',#295,#294,#159,.T.);
#363=EDGE_CURVE('',#291,#295,#160,.T.);
#364=EDGE_CURVE('',#294,#282,#161,.T.);
#365=EDGE_CURVE('',#295,#289,#162,.T.);
#366=EDGE_CURVE('',#292,#296,#163,.T.);
#367=EDGE_CURVE('',#297,#296,#164,.T.);
#368=EDGE_CURVE('',#293,#297,#165,.T.);
#369=EDGE_CURVE('',#285,#298,#166,.T.);
#370=EDGE_CURVE('',#298,#298,#250,.T.);
#371=EDGE_CURVE('',#287,#299,#167,.T.);
#372=EDGE_CURVE('',#299,#299,#251,.T.);
#373=EDGE_CURVE('',#300,#300,#252,.T.);
#374=EDGE_CURVE('',#300,#301,#168,.T.);
#375=EDGE_CURVE('',#301,#301,#253,.T.);
#376=EDGE_CURVE('',#302,#302,#254,.T.);
#377=EDGE_CURVE('',#302,#303,#169,.T.);
#378=EDGE_CURVE('',#303,#303,#255,.T.);
#379=EDGE_CURVE('',#304,#305,#170,.T.);
#380=EDGE_CURVE('',#305,#269,#171,.T.);
#381=EDGE_CURVE('',#304,#268,#172,.T.);
#382=EDGE_CURVE('',#306,#304,#173,.T.);
#383=EDGE_CURVE('',#306,#297,#174,.T.);
#384=EDGE_CURVE('',#307,#306,#175,.T.);
#385=EDGE_CURVE('',#307,#296,#176,.T.);
#386=EDGE_CURVE('',#305,#307,#177,.T.);
#387=ORIENTED_EDGE('',*,*,#308,.F.);
#388=ORIENTED_EDGE('',*,*,#309,.T.);
#389=ORIENTED_EDGE('',*,*,#310,.F.);
#390=ORIENTED_EDGE('',*,*,#311,.T.);
#391=ORIENTED_EDGE('',*,*,#312,.T.);
#392=ORIENTED_EDGE('',*,*,#313,.F.);
#393=ORIENTED_EDGE('',*,*,#311,.F.);
#394=ORIENTED_EDGE('',*,*,#314,.T.);
#395=ORIENTED_EDGE('',*,*,#315,.T.);
#396=ORIENTED_EDGE('',*,*,#316,.F.);
#397=ORIENTED_EDGE('',*,*,#317,.T.);
#398=ORIENTED_EDGE('',*,*,#314,.F.);
#399=ORIENTED_EDGE('',*,*,#310,.T.);
#400=ORIENTED_EDGE('',*,*,#318,.F.);
#401=ORIENTED_EDGE('',*,*,#319,.F.);
#402=ORIENTED_EDGE('',*,*,#320,.F.);
#403=ORIENTED_EDGE('',*,*,#321,.T.);
#404=ORIENTED_EDGE('',*,*,#316,.T.);
#405=ORIENTED_EDGE('',*,*,#322,.T.);
#406=ORIENTED_EDGE('',*,*,#309,.F.);
#407=ORIENTED_EDGE('',*,*,#323,.T.);
#408=ORIENTED_EDGE('',*,*,#318,.T.);
#409=ORIENTED_EDGE('',*,*,#320,.T.);
#410=ORIENTED_EDGE('',*,*,#324,.F.);
#411=ORIENTED_EDGE('',*,*,#325,.T.);
#412=ORIENTED_EDGE('',*,*,#326,.T.);
#413=ORIENTED_EDGE('',*,*,#327,.F.);
#414=ORIENTED_EDGE('',*,*,#328,.T.);
#415=ORIENTED_EDGE('',*,*,#329,.F.);
#416=ORIENTED_EDGE('',*,*,#328,.F.);
#417=ORIENTED_EDGE('',*,*,#330,.F.);
#418=ORIENTED_EDGE('',*,*,#331,.T.);
#419=ORIENTED_EDGE('',*,*,#332,.F.);
#420=ORIENTED_EDGE('',*,*,#331,.F.);
#421=ORIENTED_EDGE('',*,*,#333,.F.);
#422=ORIENTED_EDGE('',*,*,#334,.T.);
#423=ORIENTED_EDGE('',*,*,#335,.F.);
#424=ORIENTED_EDGE('',*,*,#334,.F.);
#425=ORIENTED_EDGE('',*,*,#336,.F.);
#426=ORIENTED_EDGE('',*,*,#337,.T.);
#427=ORIENTED_EDGE('',*,*,#338,.F.);
#428=ORIENTED_EDGE('',*,*,#337,.F.);
#429=ORIENTED_EDGE('',*,*,#339,.F.);
#430=ORIENTED_EDGE('',*,*,#340,.T.);
#431=ORIENTED_EDGE('',*,*,#341,.F.);
#432=ORIENTED_EDGE('',*,*,#340,.F.);
#433=ORIENTED_EDGE('',*,*,#342,.F.);
#434=ORIENTED_EDGE('',*,*,#343,.T.);
#435=ORIENTED_EDGE('',*,*,#344,.F.);
#436=ORIENTED_EDGE('',*,*,#343,.F.);
#437=ORIENTED_EDGE('',*,*,#345,.T.);
#438=ORIENTED_EDGE('',*,*,#346,.F.);
#439=ORIENTED_EDGE('',*,*,#347,.T.);
#440=ORIENTED_EDGE('',*,*,#348,.T.);
#441=ORIENTED_EDGE('',*,*,#349,.F.);
#442=ORIENTED_EDGE('',*,*,#350,.T.);
#443=ORIENTED_EDGE('',*,*,#351,.T.);
#444=ORIENTED_EDGE('',*,*,#352,.F.);
#445=ORIENTED_EDGE('',*,*,#353,.F.);
#446=ORIENTED_EDGE('',*,*,#354,.T.);
#447=ORIENTED_EDGE('',*,*,#355,.T.);
#448=ORIENTED_EDGE('',*,*,#356,.F.);
#449=ORIENTED_EDGE('',*,*,#357,.F.);
#450=ORIENTED_EDGE('',*,*,#352,.T.);
#451=ORIENTED_EDGE('',*,*,#349,.T.);
#452=ORIENTED_EDGE('',*,*,#346,.T.);
#453=ORIENTED_EDGE('',*,*,#332,.T.);
#454=ORIENTED_EDGE('',*,*,#338,.T.);
#455=ORIENTED_EDGE('',*,*,#358,.T.);
#456=ORIENTED_EDGE('',*,*,#359,.F.);
#457=ORIENTED_EDGE('',*,*,#360,.F.);
#458=ORIENTED_EDGE('',*,*,#313,.T.);
#459=ORIENTED_EDGE('',*,*,#329,.T.);
#460=ORIENTED_EDGE('',*,*,#335,.T.);
#461=ORIENTED_EDGE('',*,*,#361,.T.);
#462=ORIENTED_EDGE('',*,*,#362,.F.);
#463=ORIENTED_EDGE('',*,*,#363,.F.);
#464=ORIENTED_EDGE('',*,*,#356,.T.);
#465=ORIENTED_EDGE('',*,*,#341,.T.);
#466=ORIENTED_EDGE('',*,*,#344,.T.);
#467=ORIENTED_EDGE('',*,*,#364,.T.);
#468=ORIENTED_EDGE('',*,*,#354,.F.);
#469=ORIENTED_EDGE('',*,*,#365,.F.);
#470=ORIENTED_EDGE('',*,*,#362,.T.);
#471=ORIENTED_EDGE('',*,*,#327,.T.);
#472=ORIENTED_EDGE('',*,*,#333,.T.);
#473=ORIENTED_EDGE('',*,*,#366,.T.);
#474=ORIENTED_EDGE('',*,*,#367,.F.);
#475=ORIENTED_EDGE('',*,*,#368,.F.);
#476=ORIENTED_EDGE('',*,*,#359,.T.);
#477=ORIENTED_EDGE('',*,*,#339,.T.);
#478=ORIENTED_EDGE('',*,*,#342,.T.);
#479=ORIENTED_EDGE('',*,*,#347,.F.);
#480=ORIENTED_EDGE('',*,*,#348,.F.);
#481=ORIENTED_EDGE('',*,*,#369,.T.);
#482=ORIENTED_EDGE('',*,*,#370,.F.);
#483=ORIENTED_EDGE('',*,*,#369,.F.);
#484=ORIENTED_EDGE('',*,*,#350,.F.);
#485=ORIENTED_EDGE('',*,*,#351,.F.);
#486=ORIENTED_EDGE('',*,*,#371,.T.);
#487=ORIENTED_EDGE('',*,*,#372,.F.);
#488=ORIENTED_EDGE('',*,*,#371,.F.);
#489=ORIENTED_EDGE('',*,*,#372,.T.);
#490=ORIENTED_EDGE('',*,*,#373,.T.);
#491=ORIENTED_EDGE('',*,*,#373,.F.);
#492=ORIENTED_EDGE('',*,*,#374,.T.);
#493=ORIENTED_EDGE('',*,*,#375,.F.);
#494=ORIENTED_EDGE('',*,*,#374,.F.);
#495=ORIENTED_EDGE('',*,*,#376,.F.);
#496=ORIENTED_EDGE('',*,*,#377,.T.);
#497=ORIENTED_EDGE('',*,*,#378,.F.);
#498=ORIENTED_EDGE('',*,*,#377,.F.);
#499=ORIENTED_EDGE('',*,*,#379,.T.);
#500=ORIENTED_EDGE('',*,*,#380,.T.);
#501=ORIENTED_EDGE('',*,*,#325,.F.);
#502=ORIENTED_EDGE('',*,*,#381,.F.);
#503=ORIENTED_EDGE('',*,*,#382,.T.);
#504=ORIENTED_EDGE('',*,*,#381,.T.);
#505=ORIENTED_EDGE('',*,*,#324,.T.);
#506=ORIENTED_EDGE('',*,*,#322,.F.);
#507=ORIENTED_EDGE('',*,*,#319,.T.);
#508=ORIENTED_EDGE('',*,*,#323,.F.);
#509=ORIENTED_EDGE('',*,*,#308,.T.);
#510=ORIENTED_EDGE('',*,*,#360,.T.);
#511=ORIENTED_EDGE('',*,*,#368,.T.);
#512=ORIENTED_EDGE('',*,*,#383,.F.);
#513=ORIENTED_EDGE('',*,*,#357,.T.);
#514=ORIENTED_EDGE('',*,*,#363,.T.);
#515=ORIENTED_EDGE('',*,*,#365,.T.);
#516=ORIENTED_EDGE('',*,*,#353,.T.);
#517=ORIENTED_EDGE('',*,*,#384,.T.);
#518=ORIENTED_EDGE('',*,*,#383,.T.);
#519=ORIENTED_EDGE('',*,*,#367,.T.);
#520=ORIENTED_EDGE('',*,*,#385,.F.);
#521=ORIENTED_EDGE('',*,*,#330,.T.);
#522=ORIENTED_EDGE('',*,*,#336,.T.);
#523=ORIENTED_EDGE('',*,*,#386,.T.);
#524=ORIENTED_EDGE('',*,*,#385,.T.);
#525=ORIENTED_EDGE('',*,*,#366,.F.);
#526=ORIENTED_EDGE('',*,*,#358,.F.);
#527=ORIENTED_EDGE('',*,*,#312,.F.);
#528=ORIENTED_EDGE('',*,*,#315,.F.);
#529=ORIENTED_EDGE('',*,*,#317,.F.);
#530=ORIENTED_EDGE('',*,*,#321,.F.);
#531=ORIENTED_EDGE('',*,*,#326,.F.);
#532=ORIENTED_EDGE('',*,*,#380,.F.);
#533=ORIENTED_EDGE('',*,*,#361,.F.);
#534=ORIENTED_EDGE('',*,*,#355,.F.);
#535=ORIENTED_EDGE('',*,*,#345,.F.);
#536=ORIENTED_EDGE('',*,*,#364,.F.);
#537=ORIENTED_EDGE('',*,*,#370,.T.);
#538=ORIENTED_EDGE('',*,*,#376,.T.);
#539=ORIENTED_EDGE('',*,*,#386,.F.);
#540=ORIENTED_EDGE('',*,*,#379,.F.);
#541=ORIENTED_EDGE('',*,*,#382,.F.);
#542=ORIENTED_EDGE('',*,*,#384,.F.);
#543=ORIENTED_EDGE('',*,*,#375,.T.);
#544=ORIENTED_EDGE('',*,*,#378,.T.);
#545=CYLINDRICAL_SURFACE('',#609,5.);
#546=CYLINDRICAL_SURFACE('',#614,23.25);
#547=CYLINDRICAL_SURFACE('',#620,1.6);
#548=CYLINDRICAL_SURFACE('',#623,1.6);
#549=CYLINDRICAL_SURFACE('',#626,1.6);
#550=CYLINDRICAL_SURFACE('',#629,1.6);
#551=CYLINDRICAL_SURFACE('',#632,1.75);
#552=CYLINDRICAL_SURFACE('',#635,1.75);
#553=CYLINDRICAL_SURFACE('',#648,3.5);
#554=CYLINDRICAL_SURFACE('',#650,3.5);
#555=CYLINDRICAL_SURFACE('',#654,1.75);
#556=CYLINDRICAL_SURFACE('',#656,1.75);
#557=ADVANCED_FACE('',(#50),#545,.F.);
#558=ADVANCED_FACE('',(#51),#33,.F.);
#559=ADVANCED_FACE('',(#52),#546,.F.);
#560=ADVANCED_FACE('',(#53),#34,.T.);
#561=ADVANCED_FACE('',(#54),#35,.F.);
#562=ADVANCED_FACE('',(#55),#36,.T.);
#563=ADVANCED_FACE('',(#56),#547,.F.);
#564=ADVANCED_FACE('',(#57),#548,.F.);
#565=ADVANCED_FACE('',(#58),#549,.F.);
#566=ADVANCED_FACE('',(#59),#550,.F.);
#567=ADVANCED_FACE('',(#60),#551,.F.);
#568=ADVANCED_FACE('',(#61),#552,.F.);
#569=ADVANCED_FACE('',(#62),#37,.T.);
#570=ADVANCED_FACE('',(#63,#15,#16),#38,.T.);
#571=ADVANCED_FACE('',(#64,#17,#18),#39,.T.);
#572=ADVANCED_FACE('',(#65,#19,#20),#40,.T.);
#573=ADVANCED_FACE('',(#66,#21,#22),#41,.T.);
#574=ADVANCED_FACE('',(#67,#23,#24),#42,.T.);
#575=ADVANCED_FACE('',(#68),#553,.F.);
#576=ADVANCED_FACE('',(#69),#554,.F.);
#577=ADVANCED_FACE('',(#70,#25),#43,.T.);
#578=ADVANCED_FACE('',(#71),#555,.F.);
#579=ADVANCED_FACE('',(#72),#556,.F.);
#580=ADVANCED_FACE('',(#73),#44,.T.);
#581=ADVANCED_FACE('',(#74,#26),#45,.T.);
#582=ADVANCED_FACE('',(#75,#27,#28),#46,.T.);
#583=ADVANCED_FACE('',(#76,#29),#47,.T.);
#584=ADVANCED_FACE('',(#77,#30),#48,.T.);
#585=ADVANCED_FACE('',(#78,#31,#32),#49,.F.);
#586=CLOSED_SHELL('',(#557,#558,#559,#560,#561,#562,#563,#564,#565,#566,
#567,#568,#569,#570,#571,#572,#573,#574,#575,#576,#577,#578,#579,#580,#581,
#582,#583,#584,#585));
#587=DERIVED_UNIT_ELEMENT(#590,1.);
#588=DERIVED_UNIT_ELEMENT(#1006,-3.);
#589=DIMENSIONAL_EXPONENTS(0.,1.,0.,0.,0.,0.,0.);
#590=(
CONVERSION_BASED_UNIT('gram',#592)
MASS_UNIT()
NAMED_UNIT(#589)
);
#591=(
MASS_UNIT()
NAMED_UNIT(*)
SI_UNIT(.KILO.,.GRAM.)
);
#592=MASS_MEASURE_WITH_UNIT(MASS_MEASURE(0.001),#591);
#593=DERIVED_UNIT((#587,#588));
#594=MEASURE_REPRESENTATION_ITEM('density measure',
POSITIVE_RATIO_MEASURE(1.),#593);
#595=PROPERTY_DEFINITION_REPRESENTATION(#600,#597);
#596=PROPERTY_DEFINITION_REPRESENTATION(#601,#598);
#597=REPRESENTATION('material name',(#599),#1003);
#598=REPRESENTATION('density',(#594),#1003);
#599=DESCRIPTIVE_REPRESENTATION_ITEM('\X2\4E00822C\X0\','\X2\4E00822C\X0\');
#600=PROPERTY_DEFINITION('material property','material name',#1013);
#601=PROPERTY_DEFINITION('material property','density of part',#1013);
#602=DATE_TIME_ROLE('creation_date');
#603=APPLIED_DATE_AND_TIME_ASSIGNMENT(#604,#602,(#1013));
#604=DATE_AND_TIME(#605,#606);
#605=CALENDAR_DATE(2026,1,2);
#606=LOCAL_TIME(0,0,0.,#607);
#607=COORDINATED_UNIVERSAL_TIME_OFFSET(0,0,.BEHIND.);
#608=AXIS2_PLACEMENT_3D('',#830,#665,#666);
#609=AXIS2_PLACEMENT_3D('',#831,#667,#668);
#610=AXIS2_PLACEMENT_3D('',#834,#669,#670);
#611=AXIS2_PLACEMENT_3D('',#852,#673,#674);
#612=AXIS2_PLACEMENT_3D('',#854,#676,#677);
#613=AXIS2_PLACEMENT_3D('',#856,#678,#679);
#614=AXIS2_PLACEMENT_3D('',#858,#681,#682);
#615=AXIS2_PLACEMENT_3D('',#861,#683,#684);
#616=AXIS2_PLACEMENT_3D('',#864,#686,#687);
#617=AXIS2_PLACEMENT_3D('',#866,#689,#690);
#618=AXIS2_PLACEMENT_3D('',#872,#694,#695);
#619=AXIS2_PLACEMENT_3D('',#874,#697,#698);
#620=AXIS2_PLACEMENT_3D('',#880,#702,#703);
#621=AXIS2_PLACEMENT_3D('',#882,#704,#705);
#622=AXIS2_PLACEMENT_3D('',#885,#707,#708);
#623=AXIS2_PLACEMENT_3D('',#886,#709,#710);
#624=AXIS2_PLACEMENT_3D('',#888,#711,#712);
#625=AXIS2_PLACEMENT_3D('',#891,#714,#715);
#626=AXIS2_PLACEMENT_3D('',#892,#716,#717);
#627=AXIS2_PLACEMENT_3D('',#894,#718,#719);
#628=AXIS2_PLACEMENT_3D('',#897,#721,#722);
#629=AXIS2_PLACEMENT_3D('',#898,#723,#724);
#630=AXIS2_PLACEMENT_3D('',#900,#725,#726);
#631=AXIS2_PLACEMENT_3D('',#903,#728,#729);
#632=AXIS2_PLACEMENT_3D('',#904,#730,#731);
#633=AXIS2_PLACEMENT_3D('',#906,#732,#733);
#634=AXIS2_PLACEMENT_3D('',#909,#735,#736);
#635=AXIS2_PLACEMENT_3D('',#910,#737,#738);
#636=AXIS2_PLACEMENT_3D('',#912,#739,#740);
#637=AXIS2_PLACEMENT_3D('',#915,#742,#743);
#638=AXIS2_PLACEMENT_3D('',#916,#744,#745);
#639=AXIS2_PLACEMENT_3D('',#923,#748,#749);
#640=AXIS2_PLACEMENT_3D('',#924,#750,#751);
#641=AXIS2_PLACEMENT_3D('',#928,#753,#754);
#642=AXIS2_PLACEMENT_3D('',#929,#755,#756);
#643=AXIS2_PLACEMENT_3D('',#935,#760,#761);
#644=AXIS2_PLACEMENT_3D('',#941,#765,#766);
#645=AXIS2_PLACEMENT_3D('',#947,#770,#771);
#646=AXIS2_PLACEMENT_3D('',#953,#775,#776);
#647=AXIS2_PLACEMENT_3D('',#956,#779,#780);
#648=AXIS2_PLACEMENT_3D('',#962,#784,#785);
#649=AXIS2_PLACEMENT_3D('',#965,#787,#788);
#650=AXIS2_PLACEMENT_3D('',#966,#789,#790);
#651=AXIS2_PLACEMENT_3D('',#969,#792,#793);
#652=AXIS2_PLACEMENT_3D('',#970,#794,#795);
#653=AXIS2_PLACEMENT_3D('',#972,#796,#797);
#654=AXIS2_PLACEMENT_3D('',#973,#798,#799);
#655=AXIS2_PLACEMENT_3D('',#976,#801,#802);
#656=AXIS2_PLACEMENT_3D('',#977,#803,#804);
#657=AXIS2_PLACEMENT_3D('',#979,#805,#806);
#658=AXIS2_PLACEMENT_3D('',#982,#808,#809);
#659=AXIS2_PLACEMENT_3D('',#983,#810,#811);
#660=AXIS2_PLACEMENT_3D('',#989,#815,#816);
#661=AXIS2_PLACEMENT_3D('',#993,#819,#820);
#662=AXIS2_PLACEMENT_3D('',#997,#823,#824);
#663=AXIS2_PLACEMENT_3D('',#999,#826,#827);
#664=AXIS2_PLACEMENT_3D('',#1000,#828,#829);
#665=DIRECTION('axis',(0.,0.,1.));
#666=DIRECTION('refdir',(1.,0.,0.));
#667=DIRECTION('center_axis',(4.88498130835069E-16,0.,1.));
#668=DIRECTION('ref_axis',(-0.4,0.916515138991168,0.));
#669=DIRECTION('center_axis',(8.88178419700125E-16,0.,1.));
#670=DIRECTION('ref_axis',(-0.4,0.916515138991168,0.));
#671=DIRECTION('',(-4.88498130835069E-16,0.,-1.));
#672=DIRECTION('',(-4.88498130835069E-16,0.,-1.));
#673=DIRECTION('center_axis',(0.,0.,-1.));
#674=DIRECTION('ref_axis',(-0.4,0.916515138991168,0.));
#675=DIRECTION('',(-8.88178419700123E-16,0.,-1.));
#676=DIRECTION('center_axis',(-1.,0.,4.88498130835069E-16));
#677=DIRECTION('ref_axis',(4.88498130835069E-16,0.,1.));
#678=DIRECTION('center_axis',(-1.,0.,4.88498130835069E-16));
#679=DIRECTION('ref_axis',(-4.88498130835069E-16,0.,-1.));
#680=DIRECTION('',(-1.3736937982186E-31,1.,-2.81207585353566E-16));
#681=DIRECTION('center_axis',(1.,0.,0.));
#682=DIRECTION('ref_axis',(0.,0.,-1.));
#683=DIRECTION('center_axis',(1.,0.,-4.88498130835069E-16));
#684=DIRECTION('ref_axis',(-4.88498130835069E-16,0.,-1.));
#685=DIRECTION('',(1.,0.,0.));
#686=DIRECTION('center_axis',(-1.,0.,4.88498130835069E-16));
#687=DIRECTION('ref_axis',(-4.88498130835069E-16,0.,-1.));
#688=DIRECTION('',(1.,0.,0.));
#689=DIRECTION('center_axis',(-1.,0.,4.88498130835069E-16));
#690=DIRECTION('ref_axis',(4.88498130835069E-16,0.,1.));
#691=DIRECTION('',(4.88498130835069E-16,0.,1.));
#692=DIRECTION('',(1.3736937982186E-31,-1.,2.81207585353566E-16));
#693=DIRECTION('',(-2.7473875964372E-31,1.,-5.62415170707131E-16));
#694=DIRECTION('center_axis',(-1.,0.,4.88498130835069E-16));
#695=DIRECTION('ref_axis',(4.88498130835069E-16,0.,1.));
#696=DIRECTION('',(2.7473875964372E-31,-1.,5.62415170707131E-16));
#697=DIRECTION('center_axis',(0.,-1.,0.));
#698=DIRECTION('ref_axis',(-1.,0.,8.88178419700125E-16));
#699=DIRECTION('',(1.,0.,-8.88178419700125E-16));
#700=DIRECTION('',(-4.89858719658941E-16,0.,-1.));
#701=DIRECTION('',(1.,0.,0.));
#702=DIRECTION('center_axis',(1.,0.,-4.80096443081148E-16));
#703=DIRECTION('ref_axis',(4.80096443081148E-16,0.,1.));
#704=DIRECTION('center_axis',(1.,-1.43254583822601E-16,-8.88178419700123E-16));
#705=DIRECTION('ref_axis',(4.80096443081148E-16,0.,1.));
#706=DIRECTION('',(1.,0.,-4.80096443081148E-16));
#707=DIRECTION('center_axis',(-1.,1.20024110770287E-16,8.88178419700123E-16));
#708=DIRECTION('ref_axis',(4.80096443081148E-16,0.,1.));
#709=DIRECTION('center_axis',(1.,0.,-4.80096443081148E-16));
#710=DIRECTION('ref_axis',(4.80096443081148E-16,0.,1.));
#711=DIRECTION('center_axis',(1.,0.,-4.88498130835069E-16));
#712=DIRECTION('ref_axis',(4.80096443081148E-16,0.,1.));
#713=DIRECTION('',(1.,0.,-4.80096443081148E-16));
#714=DIRECTION('center_axis',(-1.,-7.16272919113004E-17,8.88178419700123E-16));
#715=DIRECTION('ref_axis',(4.80096443081148E-16,0.,1.));
#716=DIRECTION('center_axis',(1.,0.,-4.80096443081148E-16));
#717=DIRECTION('ref_axis',(4.80096443081148E-16,0.,1.));
#718=DIRECTION('center_axis',(1.,-1.43254583822601E-16,-8.88178419700123E-16));
#719=DIRECTION('ref_axis',(4.80096443081148E-16,0.,1.));
#720=DIRECTION('',(1.,0.,-4.80096443081148E-16));
#721=DIRECTION('center_axis',(-1.,1.20024110770287E-16,8.88178419700123E-16));
#722=DIRECTION('ref_axis',(4.80096443081148E-16,0.,1.));
#723=DIRECTION('center_axis',(1.,0.,-4.80096443081148E-16));
#724=DIRECTION('ref_axis',(4.80096443081148E-16,0.,1.));
#725=DIRECTION('center_axis',(1.,0.,-4.88498130835069E-16));
#726=DIRECTION('ref_axis',(4.80096443081148E-16,0.,1.));
#727=DIRECTION('',(1.,0.,-4.80096443081148E-16));
#728=DIRECTION('center_axis',(-1.,-7.16272919113004E-17,8.88178419700123E-16));
#729=DIRECTION('ref_axis',(4.80096443081148E-16,0.,1.));
#730=DIRECTION('center_axis',(0.,-1.,0.));
#731=DIRECTION('ref_axis',(1.,0.,-8.4016877539201E-16));
#732=DIRECTION('center_axis',(0.,-1.,0.));
#733=DIRECTION('ref_axis',(1.,0.,-8.4016877539201E-16));
#734=DIRECTION('',(0.,-1.,0.));
#735=DIRECTION('center_axis',(0.,1.,0.));
#736=DIRECTION('ref_axis',(1.,0.,-8.4016877539201E-16));
#737=DIRECTION('center_axis',(0.,-1.,0.));
#738=DIRECTION('ref_axis',(1.,0.,-8.4016877539201E-16));
#739=DIRECTION('center_axis',(0.,-1.,0.));
#740=DIRECTION('ref_axis',(1.,0.,-8.4016877539201E-16));
#741=DIRECTION('',(0.,-1.,0.));
#742=DIRECTION('center_axis',(0.,1.,0.));
#743=DIRECTION('ref_axis',(1.,0.,-8.4016877539201E-16));
#744=DIRECTION('center_axis',(0.,1.,0.));
#745=DIRECTION('ref_axis',(1.,0.,-8.88178419700125E-16));
#746=DIRECTION('',(-1.,0.,0.));
#747=DIRECTION('',(-8.88178419700123E-16,0.,-1.));
#748=DIRECTION('center_axis',(0.,-1.,0.));
#749=DIRECTION('ref_axis',(1.,0.,-8.59527502935605E-16));
#750=DIRECTION('center_axis',(0.,-1.,0.));
#751=DIRECTION('ref_axis',(1.,0.,-8.59527502935605E-16));
#752=DIRECTION('',(-8.88178419700123E-16,0.,-1.));
#753=DIRECTION('center_axis',(0.,-1.,0.));
#754=DIRECTION('ref_axis',(1.,0.,-8.59527502935605E-16));
#755=DIRECTION('center_axis',(0.,-1.,0.));
#756=DIRECTION('ref_axis',(1.,0.,-8.59527502935605E-16));
#757=DIRECTION('',(-8.88178419700123E-16,0.,-1.));
#758=DIRECTION('',(-1.,0.,8.88178419700125E-16));
#759=DIRECTION('',(-8.88178419700123E-16,0.,-1.));
#760=DIRECTION('center_axis',(1.,7.16272919113004E-17,-8.88178419700123E-16));
#761=DIRECTION('ref_axis',(7.16272919113004E-17,-1.,-6.36178149371784E-32));
#762=DIRECTION('',(-7.16272919113004E-17,1.,0.));
#763=DIRECTION('',(-8.88178419700123E-16,0.,-1.));
#764=DIRECTION('',(-7.16272919113004E-17,1.,6.36178149371784E-32));
#765=DIRECTION('center_axis',(1.,-1.20024110770287E-16,-8.88178419700123E-16));
#766=DIRECTION('ref_axis',(-1.20024110770287E-16,-1.,1.06602825029866E-31));
#767=DIRECTION('',(1.20024110770287E-16,1.,0.));
#768=DIRECTION('',(-8.88178419700123E-16,0.,-1.));
#769=DIRECTION('',(1.20024110770287E-16,1.,-1.06602825029866E-31));
#770=DIRECTION('center_axis',(0.,-1.,0.));
#771=DIRECTION('ref_axis',(-1.,0.,8.88178419700125E-16));
#772=DIRECTION('',(1.,0.,0.));
#773=DIRECTION('',(-8.88178419700123E-16,0.,-1.));
#774=DIRECTION('',(1.,0.,-8.88178419700125E-16));
#775=DIRECTION('center_axis',(-1.,1.43254583822601E-16,8.88178419700123E-16));
#776=DIRECTION('ref_axis',(1.43254583822601E-16,1.,-1.27235629874357E-31));
#777=DIRECTION('',(-1.43254583822601E-16,-1.,0.));
#778=DIRECTION('',(-1.43254583822601E-16,-1.,1.27235629874357E-31));
#779=DIRECTION('center_axis',(0.,1.,0.));
#780=DIRECTION('ref_axis',(1.,0.,-8.88178419700125E-16));
#781=DIRECTION('',(-1.,0.,0.));
#782=DIRECTION('',(-8.88178419700123E-16,0.,-1.));
#783=DIRECTION('',(-1.,0.,8.88178419700125E-16));
#784=DIRECTION('center_axis',(0.,1.,0.));
#785=DIRECTION('ref_axis',(-1.,0.,0.));
#786=DIRECTION('',(0.,-1.,0.));
#787=DIRECTION('center_axis',(0.,1.,0.));
#788=DIRECTION('ref_axis',(-1.,0.,0.));
#789=DIRECTION('center_axis',(0.,1.,0.));
#790=DIRECTION('ref_axis',(-1.,0.,0.));
#791=DIRECTION('',(0.,-1.,0.));
#792=DIRECTION('center_axis',(0.,1.,0.));
#793=DIRECTION('ref_axis',(-1.,0.,0.));
#794=DIRECTION('center_axis',(0.,1.,0.));
#795=DIRECTION('ref_axis',(0.,0.,1.));
#796=DIRECTION('center_axis',(0.,-1.,0.));
#797=DIRECTION('ref_axis',(1.,0.,0.));
#798=DIRECTION('center_axis',(0.,-1.,0.));
#799=DIRECTION('ref_axis',(1.,0.,0.));
#800=DIRECTION('',(0.,-1.,0.));
#801=DIRECTION('center_axis',(0.,1.,0.));
#802=DIRECTION('ref_axis',(1.,0.,0.));
#803=DIRECTION('center_axis',(0.,-1.,0.));
#804=DIRECTION('ref_axis',(1.,0.,0.));
#805=DIRECTION('center_axis',(0.,-1.,0.));
#806=DIRECTION('ref_axis',(1.,0.,0.));
#807=DIRECTION('',(0.,-1.,0.));
#808=DIRECTION('center_axis',(0.,1.,0.));
#809=DIRECTION('ref_axis',(1.,0.,0.));
#810=DIRECTION('center_axis',(1.,0.,-4.89858719658941E-16));
#811=DIRECTION('ref_axis',(-4.89858719658941E-16,0.,-1.));
#812=DIRECTION('',(-4.89858719658941E-16,0.,-1.));
#813=DIRECTION('',(0.,1.,0.));
#814=DIRECTION('',(0.,1.,0.));
#815=DIRECTION('center_axis',(8.88178419700125E-16,0.,1.));
#816=DIRECTION('ref_axis',(1.,0.,-8.88178419700125E-16));
#817=DIRECTION('',(1.,0.,-8.88178419700125E-16));
#818=DIRECTION('',(0.,1.,0.));
#819=DIRECTION('center_axis',(-1.,0.,4.88498130835069E-16));
#820=DIRECTION('ref_axis',(4.88498130835069E-16,0.,1.));
#821=DIRECTION('',(4.88498130835069E-16,0.,1.));
#822=DIRECTION('',(0.,1.,0.));
#823=DIRECTION('center_axis',(0.,0.,-1.));
#824=DIRECTION('ref_axis',(-1.,0.,0.));
#825=DIRECTION('',(-1.,0.,0.));
#826=DIRECTION('center_axis',(0.,1.,0.));
#827=DIRECTION('ref_axis',(0.,0.,1.));
#828=DIRECTION('center_axis',(0.,1.,0.));
#829=DIRECTION('ref_axis',(0.,0.,1.));
#830=CARTESIAN_POINT('',(0.,0.,0.));
#831=CARTESIAN_POINT('Origin',(10.5,-2.08257569495584,12.5));
#832=CARTESIAN_POINT('',(5.50000000000001,-2.08257569495584,12.5));
#833=CARTESIAN_POINT('',(8.50000000000001,2.5,12.5));
#834=CARTESIAN_POINT('Origin',(10.5,-2.08257569495584,12.5));
#835=CARTESIAN_POINT('',(5.5,-2.08257569495584,3.91843887569669));
#836=CARTESIAN_POINT('',(5.50000000000001,-2.08257569495584,12.5));
#837=CARTESIAN_POINT('',(5.5,-2.08257569495584,-3.91843887569669));
#838=CARTESIAN_POINT('Ctrl Pts',(5.50000000000001,-2.0825756949558,3.91843887569645));
#839=CARTESIAN_POINT('Ctrl Pts',(5.50000000000001,-2.05185687196319,3.73877643281914));
#840=CARTESIAN_POINT('Ctrl Pts',(5.50028172165171,-2.02328871522445,3.55896936586482));
#841=CARTESIAN_POINT('Ctrl Pts',(5.50360578634459,-1.82937923054376,2.23896471052858));
#842=CARTESIAN_POINT('Ctrl Pts',(5.51107292024381,-1.75,1.09893495287158));
#843=CARTESIAN_POINT('Ctrl Pts',(5.51107292024381,-1.75,-2.22044604925031E-15));
#844=CARTESIAN_POINT('Ctrl Pts',(5.51107292024381,-1.75,-1.09893495287159));
#845=CARTESIAN_POINT('Ctrl Pts',(5.50360578634459,-1.82937923054376,-2.23896471052858));
#846=CARTESIAN_POINT('Ctrl Pts',(5.50028172165171,-2.02328871522445,-3.55896936586482));
#847=CARTESIAN_POINT('Ctrl Pts',(5.5,-2.05185687196319,-3.73877643281914));
#848=CARTESIAN_POINT('Ctrl Pts',(5.5,-2.0825756949558,-3.91843887569645));
#849=CARTESIAN_POINT('',(5.5,-2.08257569495584,-12.5));
#850=CARTESIAN_POINT('',(5.50000000000001,-2.08257569495584,12.5));
#851=CARTESIAN_POINT('',(8.49999999999999,2.5,-12.5));
#852=CARTESIAN_POINT('Origin',(10.5,-2.08257569495584,-12.5));
#853=CARTESIAN_POINT('',(8.50000000000001,2.5,12.5));
#854=CARTESIAN_POINT('Origin',(5.5,-1.44805503994232,-2.22044604925031E-15));
#855=CARTESIAN_POINT('',(5.5,-5.39611007988464,-12.5));
#856=CARTESIAN_POINT('Origin',(5.5,-25.,-2.22044604925031E-15));
#857=CARTESIAN_POINT('',(5.5,2.5,-12.5));
#858=CARTESIAN_POINT('Origin',(3.5,-25.,-2.22044604925031E-15));
#859=CARTESIAN_POINT('',(3.5,-5.39611007988464,-12.5));
#860=CARTESIAN_POINT('',(3.50000000000001,-5.39611007988464,12.5));
#861=CARTESIAN_POINT('Origin',(3.5,-25.,-2.22044604925031E-15));
#862=CARTESIAN_POINT('',(3.5,-5.39611007988464,-12.5));
#863=CARTESIAN_POINT('',(5.50000000000001,-5.39611007988464,12.5));
#864=CARTESIAN_POINT('Origin',(5.5,-25.,-2.22044604925031E-15));
#865=CARTESIAN_POINT('',(3.50000000000001,-5.39611007988464,12.5));
#866=CARTESIAN_POINT('Origin',(3.5,-1.44805503994232,-2.22044604925031E-15));
#867=CARTESIAN_POINT('',(3.5,2.5,-12.5));
#868=CARTESIAN_POINT('',(3.50000000000001,2.5,12.5));
#869=CARTESIAN_POINT('',(3.5,2.5,6.24999999999999));
#870=CARTESIAN_POINT('',(3.5,2.5,-12.5));
#871=CARTESIAN_POINT('',(3.50000000000001,-5.39611007988464,12.5));
#872=CARTESIAN_POINT('Origin',(5.5,-1.44805503994232,-2.22044604925031E-15));
#873=CARTESIAN_POINT('',(5.50000000000001,-5.39611007988464,12.5));
#874=CARTESIAN_POINT('Origin',(8.50000000000001,2.5,12.5));
#875=CARTESIAN_POINT('',(8.88178419700125E-15,2.5,12.5));
#876=CARTESIAN_POINT('',(-9.99999999999999,2.5,12.5));
#877=CARTESIAN_POINT('',(-4.44089209850063E-15,2.5,-12.5));
#878=CARTESIAN_POINT('',(7.8055758929729E-15,2.5,12.5));
#879=CARTESIAN_POINT('',(3.875,2.5,-12.5));
#880=CARTESIAN_POINT('Origin',(-10.,11.75,6.49999999999999));
#881=CARTESIAN_POINT('',(7.,11.75,4.89999999999999));
#882=CARTESIAN_POINT('Origin',(7.,11.75,6.49999999999999));
#883=CARTESIAN_POINT('',(8.50000000000001,11.75,4.89999999999998));
#884=CARTESIAN_POINT('',(-10.,11.75,4.89999999999999));
#885=CARTESIAN_POINT('Origin',(8.50000000000001,11.75,6.49999999999999));
#886=CARTESIAN_POINT('Origin',(-10.,11.75,6.49999999999999));
#887=CARTESIAN_POINT('',(-10.,11.75,4.89999999999999));
#888=CARTESIAN_POINT('Origin',(-10.,11.75,6.49999999999999));
#889=CARTESIAN_POINT('',(-8.5,11.75,4.89999999999999));
#890=CARTESIAN_POINT('',(-10.,11.75,4.89999999999999));
#891=CARTESIAN_POINT('Origin',(-8.5,11.75,6.49999999999999));
#892=CARTESIAN_POINT('Origin',(-10.,11.75,-6.49999999999999));
#893=CARTESIAN_POINT('',(7.,11.75,-8.1));
#894=CARTESIAN_POINT('Origin',(7.,11.75,-6.5));
#895=CARTESIAN_POINT('',(8.5,11.75,-8.1));
#896=CARTESIAN_POINT('',(-10.,11.75,-8.09999999999999));
#897=CARTESIAN_POINT('Origin',(8.5,11.75,-6.5));
#898=CARTESIAN_POINT('Origin',(-10.,11.75,-6.49999999999999));
#899=CARTESIAN_POINT('',(-10.,11.75,-8.09999999999999));
#900=CARTESIAN_POINT('Origin',(-10.,11.75,-6.49999999999999));
#901=CARTESIAN_POINT('',(-8.5,11.75,-8.1));
#902=CARTESIAN_POINT('',(-10.,11.75,-8.09999999999999));
#903=CARTESIAN_POINT('Origin',(-8.5,11.75,-6.5));
#904=CARTESIAN_POINT('Origin',(-4.99999999999999,21.,6.5));
#905=CARTESIAN_POINT('',(-6.74999999999999,21.,6.5));
#906=CARTESIAN_POINT('Origin',(-4.99999999999999,21.,6.5));
#907=CARTESIAN_POINT('',(-6.74999999999999,19.5,6.5));
#908=CARTESIAN_POINT('',(-6.74999999999999,21.,6.5));
#909=CARTESIAN_POINT('Origin',(-4.99999999999999,19.5,6.5));
#910=CARTESIAN_POINT('Origin',(-4.99999999999999,21.,-6.5));
#911=CARTESIAN_POINT('',(-6.74999999999999,21.,-6.5));
#912=CARTESIAN_POINT('Origin',(-4.99999999999999,21.,-6.5));
#913=CARTESIAN_POINT('',(-6.74999999999999,19.5,-6.5));
#914=CARTESIAN_POINT('',(-6.74999999999999,21.,-6.5));
#915=CARTESIAN_POINT('Origin',(-4.99999999999999,19.5,-6.5));
#916=CARTESIAN_POINT('Origin',(-8.49999999999999,4.,12.5));
#917=CARTESIAN_POINT('',(6.99999999999998,4.,-12.5));
#918=CARTESIAN_POINT('',(-8.50000000000001,4.,-12.5));
#919=CARTESIAN_POINT('',(-4.625,4.,-12.5));
#920=CARTESIAN_POINT('',(-8.50000000000001,4.,-6.5));
#921=CARTESIAN_POINT('',(-8.49999999999999,4.,12.5));
#922=CARTESIAN_POINT('',(-1.49999999999999,4.,-6.5));
#923=CARTESIAN_POINT('Origin',(-4.99999999999999,4.,-6.5));
#924=CARTESIAN_POINT('Origin',(-4.99999999999999,4.,-6.5));
#925=CARTESIAN_POINT('',(-8.5,4.,6.5));
#926=CARTESIAN_POINT('',(-8.49999999999999,4.,12.5));
#927=CARTESIAN_POINT('',(-1.49999999999999,4.,6.5));
#928=CARTESIAN_POINT('Origin',(-4.99999999999999,4.,6.5));
#929=CARTESIAN_POINT('Origin',(-4.99999999999999,4.,6.5));
#930=CARTESIAN_POINT('',(-8.49999999999999,4.,12.5));
#931=CARTESIAN_POINT('',(-8.49999999999999,4.,12.5));
#932=CARTESIAN_POINT('',(7.00000000000001,4.,12.5));
#933=CARTESIAN_POINT('',(7.00000000000001,4.,12.5));
#934=CARTESIAN_POINT('',(7.00000000000001,4.,12.5));
#935=CARTESIAN_POINT('Origin',(-8.49999999999999,19.5,12.5));
#936=CARTESIAN_POINT('',(-8.50000000000002,19.5,-12.5));
#937=CARTESIAN_POINT('',(-8.50000000000001,15.625,-12.5));
#938=CARTESIAN_POINT('',(-8.49999999999999,19.5,12.5));
#939=CARTESIAN_POINT('',(-8.49999999999999,19.5,12.5));
#940=CARTESIAN_POINT('',(-8.49999999999999,4.,12.5));
#941=CARTESIAN_POINT('Origin',(8.50000000000001,21.,12.5));
#942=CARTESIAN_POINT('',(8.49999999999999,21.,-12.5));
#943=CARTESIAN_POINT('',(8.49999999999999,16.375,-12.5));
#944=CARTESIAN_POINT('',(8.50000000000001,21.,12.5));
#945=CARTESIAN_POINT('',(8.50000000000001,21.,12.5));
#946=CARTESIAN_POINT('',(8.50000000000001,2.5,12.5));
#947=CARTESIAN_POINT('Origin',(7.00000000000001,19.5,12.5));
#948=CARTESIAN_POINT('',(6.99999999999999,19.5,-12.5));
#949=CARTESIAN_POINT('',(3.125,19.5,-12.5));
#950=CARTESIAN_POINT('',(7.00000000000001,19.5,12.5));
#951=CARTESIAN_POINT('',(7.00000000000001,19.5,12.5));
#952=CARTESIAN_POINT('',(-8.49999999999999,19.5,12.5));
#953=CARTESIAN_POINT('Origin',(7.00000000000001,4.,12.5));
#954=CARTESIAN_POINT('',(6.99999999999999,7.875,-12.5));
#955=CARTESIAN_POINT('',(7.00000000000001,19.5,12.5));
#956=CARTESIAN_POINT('Origin',(-9.99999999999999,21.,12.5));
#957=CARTESIAN_POINT('',(-10.,21.,-12.5));
#958=CARTESIAN_POINT('',(-5.375,21.,-12.5));
#959=CARTESIAN_POINT('',(-9.99999999999999,21.,12.5));
#960=CARTESIAN_POINT('',(-9.99999999999999,21.,12.5));
#961=CARTESIAN_POINT('',(8.50000000000001,21.,12.5));
#962=CARTESIAN_POINT('Origin',(-4.99999999999999,1.,-6.5));
#963=CARTESIAN_POINT('',(-1.49999999999999,1.,-6.5));
#964=CARTESIAN_POINT('',(-1.49999999999999,1.,-6.5));
#965=CARTESIAN_POINT('Origin',(-4.99999999999999,1.,-6.5));
#966=CARTESIAN_POINT('Origin',(-4.99999999999999,1.,6.5));
#967=CARTESIAN_POINT('',(-1.49999999999999,1.,6.5));
#968=CARTESIAN_POINT('',(-1.49999999999999,1.,6.5));
#969=CARTESIAN_POINT('Origin',(-4.99999999999999,1.,6.5));
#970=CARTESIAN_POINT('Origin',(-5.,1.,4.44089209850063E-15));
#971=CARTESIAN_POINT('',(-6.74999999999999,1.,6.5));
#972=CARTESIAN_POINT('Origin',(-4.99999999999999,1.,6.5));
#973=CARTESIAN_POINT('Origin',(-4.99999999999999,1.,6.5));
#974=CARTESIAN_POINT('',(-6.74999999999999,0.,6.5));
#975=CARTESIAN_POINT('',(-6.74999999999999,1.,6.5));
#976=CARTESIAN_POINT('Origin',(-4.99999999999999,0.,6.5));
#977=CARTESIAN_POINT('Origin',(-4.99999999999999,1.,-6.5));
#978=CARTESIAN_POINT('',(-6.74999999999999,1.,-6.5));
#979=CARTESIAN_POINT('Origin',(-4.99999999999999,1.,-6.5));
#980=CARTESIAN_POINT('',(-6.74999999999999,0.,-6.5));
#981=CARTESIAN_POINT('',(-6.74999999999999,1.,-6.5));
#982=CARTESIAN_POINT('Origin',(-4.99999999999999,0.,-6.5));
#983=CARTESIAN_POINT('Origin',(7.8055758929729E-15,0.,12.5));
#984=CARTESIAN_POINT('',(7.8055758929729E-15,0.,12.5));
#985=CARTESIAN_POINT('',(-4.44089209850063E-15,0.,-12.5));
#986=CARTESIAN_POINT('',(7.8055758929729E-15,0.,12.5));
#987=CARTESIAN_POINT('',(-4.44089209850063E-15,0.,-12.5));
#988=CARTESIAN_POINT('',(7.8055758929729E-15,0.,12.5));
#989=CARTESIAN_POINT('Origin',(-9.99999999999999,0.,12.5));
#990=CARTESIAN_POINT('',(-9.99999999999999,0.,12.5));
#991=CARTESIAN_POINT('',(-9.99999999999999,0.,12.5));
#992=CARTESIAN_POINT('',(-9.99999999999999,0.,12.5));
#993=CARTESIAN_POINT('Origin',(-10.,0.,-12.5));
#994=CARTESIAN_POINT('',(-10.,0.,-12.5));
#995=CARTESIAN_POINT('',(-10.,0.,-12.5));
#996=CARTESIAN_POINT('',(-10.,0.,-12.5));
#997=CARTESIAN_POINT('Origin',(-4.44089209850063E-15,0.,-12.5));
#998=CARTESIAN_POINT('',(-4.44089209850063E-15,0.,-12.5));
#999=CARTESIAN_POINT('Origin',(-5.,1.,4.44089209850063E-15));
#1000=CARTESIAN_POINT('Origin',(-5.,0.,4.44089209850063E-15));
#1001=UNCERTAINTY_MEASURE_WITH_UNIT(LENGTH_MEASURE(0.01),#1005,
'DISTANCE_ACCURACY_VALUE',
'Maximum model space distance between geometric entities at asserted c
onnectivities');
#1002=UNCERTAINTY_MEASURE_WITH_UNIT(LENGTH_MEASURE(0.01),#1005,
'DISTANCE_ACCURACY_VALUE',
'Maximum model space distance between geometric entities at asserted c
onnectivities');
#1003=(
GEOMETRIC_REPRESENTATION_CONTEXT(3)
GLOBAL_UNCERTAINTY_ASSIGNED_CONTEXT((#1001))
GLOBAL_UNIT_ASSIGNED_CONTEXT((#1005,#1007,#1008))
REPRESENTATION_CONTEXT('','3D')
);
#1004=(
GEOMETRIC_REPRESENTATION_CONTEXT(3)
GLOBAL_UNCERTAINTY_ASSIGNED_CONTEXT((#1002))
GLOBAL_UNIT_ASSIGNED_CONTEXT((#1005,#1007,#1008))
REPRESENTATION_CONTEXT('','3D')
);
#1005=(
LENGTH_UNIT()
NAMED_UNIT(*)
SI_UNIT(.MILLI.,.METRE.)
);
#1006=(
LENGTH_UNIT()
NAMED_UNIT(*)
SI_UNIT(.CENTI.,.METRE.)
);
#1007=(
NAMED_UNIT(*)
PLANE_ANGLE_UNIT()
SI_UNIT($,.RADIAN.)
);
#1008=(
NAMED_UNIT(*)
SI_UNIT($,.STERADIAN.)
SOLID_ANGLE_UNIT()
);
#1009=SHAPE_DEFINITION_REPRESENTATION(#1010,#1011);
#1010=PRODUCT_DEFINITION_SHAPE('',$,#1013);
#1011=SHAPE_REPRESENTATION('',(#608),#1003);
#1012=PRODUCT_DEFINITION_CONTEXT('part definition',#1017,'design');
#1013=PRODUCT_DEFINITION('pole_setter_crow','pole_setter_crow',#1014,#1012);
#1014=PRODUCT_DEFINITION_FORMATION('',$,#1019);
#1015=PRODUCT_RELATED_PRODUCT_CATEGORY('pole_setter_crow',
'pole_setter_crow',(#1019));
#1016=APPLICATION_PROTOCOL_DEFINITION('international standard',
'automotive_design',2009,#1017);
#1017=APPLICATION_CONTEXT(
'Core Data for Automotive Mechanical Design Process');
#1018=PRODUCT_CONTEXT('part definition',#1017,'mechanical');
#1019=PRODUCT('pole_setter_crow','pole_setter_crow',$,(#1018));
#1020=PRESENTATION_STYLE_ASSIGNMENT((#1022));
#1021=PRESENTATION_STYLE_ASSIGNMENT((#1023));
#1022=SURFACE_STYLE_USAGE(.BOTH.,#1028);
#1023=SURFACE_STYLE_USAGE(.BOTH.,#1029);
#1024=SURFACE_STYLE_RENDERING_WITH_PROPERTIES($,#1036,(#1026));
#1025=SURFACE_STYLE_RENDERING_WITH_PROPERTIES($,#1037,(#1027));
#1026=SURFACE_STYLE_TRANSPARENT(0.);
#1027=SURFACE_STYLE_TRANSPARENT(0.);
#1028=SURFACE_SIDE_STYLE('',(#1030,#1024));
#1029=SURFACE_SIDE_STYLE('',(#1031,#1025));
#1030=SURFACE_STYLE_FILL_AREA(#1032);
#1031=SURFACE_STYLE_FILL_AREA(#1033);
#1032=FILL_AREA_STYLE('',(#1034));
#1033=FILL_AREA_STYLE('',(#1035));
#1034=FILL_AREA_STYLE_COLOUR('',#1036);
#1035=FILL_AREA_STYLE_COLOUR('',#1037);
#1036=COLOUR_RGB('',0.749019607843137,0.749019607843137,0.749019607843137);
#1037=COLOUR_RGB('',0.352941176470588,0.352941176470588,0.352941176470588);
ENDSEC;
END-ISO-10303-21;
