ISO-10303-21;
HEADER;
/* Generated by software containing ST-Developer
 * from STEP Tools, Inc. (www.steptools.com) 
 */

FILE_DESCRIPTION(
/* description */ (''),
/* implementation_level */ '2;1');

FILE_NAME(
/* name */ 'volume_connection.stp',
/* time_stamp */ '2026-02-10T12:39:14+09:00',
/* author */ ('hibik'),
/* organization */ (''),
/* preprocessor_version */ 'ST-DEVELOPER v20.1',
/* originating_system */ 'Autodesk Inventor 2026',
/* authorisation */ '');

FILE_SCHEMA (('AUTOMOTIVE_DESIGN { 1 0 10303 214 3 1 1 }'));
ENDSEC;

DATA;
#10=MECHANICAL_DESIGN_GEOMETRIC_PRESENTATION_REPRESENTATION('',(#13),#1609);
#11=SHAPE_REPRESENTATION_RELATIONSHIP('SRR','None',#1616,#12);
#12=ADVANCED_BREP_SHAPE_REPRESENTATION('',(#14),#1608);
#13=STYLED_ITEM('',(#1626),#14);
#14=MANIFOLD_SOLID_BREP('\X2\30BD30EA30C330C9\X0\1',#924);
#15=FACE_BOUND('',#130,.T.);
#16=FACE_BOUND('',#131,.T.);
#17=FACE_BOUND('',#135,.T.);
#18=FACE_BOUND('',#139,.T.);
#19=FACE_BOUND('',#146,.T.);
#20=FACE_BOUND('',#147,.T.);
#21=FACE_BOUND('',#149,.T.);
#22=FACE_BOUND('',#153,.T.);
#23=FACE_BOUND('',#158,.T.);
#24=FACE_BOUND('',#161,.T.);
#25=FACE_BOUND('',#166,.T.);
#26=FACE_BOUND('',#169,.T.);
#27=FACE_BOUND('',#175,.T.);
#28=FACE_BOUND('',#176,.T.);
#29=FACE_BOUND('',#179,.T.);
#30=FACE_BOUND('',#180,.T.);
#31=FACE_BOUND('',#183,.T.);
#32=FACE_BOUND('',#184,.T.);
#33=FACE_BOUND('',#187,.T.);
#34=FACE_BOUND('',#188,.T.);
#35=FACE_BOUND('',#189,.T.);
#36=FACE_BOUND('',#193,.T.);
#37=FACE_BOUND('',#197,.T.);
#38=FACE_BOUND('',#199,.T.);
#39=FACE_BOUND('',#200,.T.);
#40=CONICAL_SURFACE('',#952,4.75,0.785398163397448);
#41=CONICAL_SURFACE('',#955,30.75,0.785398163397448);
#42=(
BOUNDED_CURVE()
B_SPLINE_CURVE(2,(#1358,#1359,#1360),.UNSPECIFIED.,.F.,.F.)
B_SPLINE_CURVE_WITH_KNOTS((3,3),(2.33925176451397,2.68196247016944),
 .UNSPECIFIED.)
CURVE()
GEOMETRIC_REPRESENTATION_ITEM()
RATIONAL_B_SPLINE_CURVE((1.96201131715146,1.84395658886313,1.67066261214916))
REPRESENTATION_ITEM('')
);
#43=(
BOUNDED_CURVE()
B_SPLINE_CURVE(2,(#1363,#1364,#1365),.UNSPECIFIED.,.F.,.F.)
B_SPLINE_CURVE_WITH_KNOTS((3,3),(3.98135946803872,4.65125257397313),
 .UNSPECIFIED.)
CURVE()
GEOMETRIC_REPRESENTATION_ITEM()
RATIONAL_B_SPLINE_CURVE((1.18421052631579,1.16956454774751,1.14477488081172))
REPRESENTATION_ITEM('')
);
#44=(
BOUNDED_CURVE()
B_SPLINE_CURVE(2,(#1372,#1373,#1374),.UNSPECIFIED.,.F.,.F.)
B_SPLINE_CURVE_WITH_KNOTS((3,3),(1.68374582404828,2.72910478132383),
 .UNSPECIFIED.)
CURVE()
GEOMETRIC_REPRESENTATION_ITEM()
RATIONAL_B_SPLINE_CURVE((2.75,2.74999999999999,2.07544731508874))
REPRESENTATION_ITEM('')
);
#45=(
BOUNDED_CURVE()
B_SPLINE_CURVE(2,(#1386,#1387,#1388),.UNSPECIFIED.,.F.,.F.)
B_SPLINE_CURVE_WITH_KNOTS((3,3),(1.25756734230867,4.22148367041242),
 .UNSPECIFIED.)
CURVE()
GEOMETRIC_REPRESENTATION_ITEM()
RATIONAL_B_SPLINE_CURVE((1.112,1.20466666666667,1.112))
REPRESENTATION_ITEM('')
);
#46=PLANE('',#949);
#47=PLANE('',#950);
#48=PLANE('',#959);
#49=PLANE('',#966);
#50=PLANE('',#968);
#51=PLANE('',#971);
#52=PLANE('',#978);
#53=PLANE('',#983);
#54=PLANE('',#986);
#55=PLANE('',#993);
#56=PLANE('',#1003);
#57=PLANE('',#1008);
#58=PLANE('',#1018);
#59=PLANE('',#1024);
#60=PLANE('',#1026);
#61=PLANE('',#1029);
#62=PLANE('',#1030);
#63=PLANE('',#1031);
#64=PLANE('',#1032);
#65=PLANE('',#1033);
#66=PLANE('',#1034);
#67=PLANE('',#1035);
#68=PLANE('',#1036);
#69=PLANE('',#1041);
#70=PLANE('',#1048);
#71=PLANE('',#1049);
#72=FACE_OUTER_BOUND('',#124,.T.);
#73=FACE_OUTER_BOUND('',#125,.T.);
#74=FACE_OUTER_BOUND('',#126,.T.);
#75=FACE_OUTER_BOUND('',#127,.T.);
#76=FACE_OUTER_BOUND('',#128,.T.);
#77=FACE_OUTER_BOUND('',#129,.T.);
#78=FACE_OUTER_BOUND('',#132,.T.);
#79=FACE_OUTER_BOUND('',#133,.T.);
#80=FACE_OUTER_BOUND('',#134,.T.);
#81=FACE_OUTER_BOUND('',#136,.T.);
#82=FACE_OUTER_BOUND('',#137,.T.);
#83=FACE_OUTER_BOUND('',#138,.T.);
#84=FACE_OUTER_BOUND('',#140,.T.);
#85=FACE_OUTER_BOUND('',#141,.T.);
#86=FACE_OUTER_BOUND('',#142,.T.);
#87=FACE_OUTER_BOUND('',#143,.T.);
#88=FACE_OUTER_BOUND('',#144,.T.);
#89=FACE_OUTER_BOUND('',#145,.T.);
#90=FACE_OUTER_BOUND('',#148,.T.);
#91=FACE_OUTER_BOUND('',#150,.T.);
#92=FACE_OUTER_BOUND('',#151,.T.);
#93=FACE_OUTER_BOUND('',#152,.T.);
#94=FACE_OUTER_BOUND('',#154,.T.);
#95=FACE_OUTER_BOUND('',#155,.T.);
#96=FACE_OUTER_BOUND('',#156,.T.);
#97=FACE_OUTER_BOUND('',#157,.T.);
#98=FACE_OUTER_BOUND('',#159,.T.);
#99=FACE_OUTER_BOUND('',#160,.T.);
#100=FACE_OUTER_BOUND('',#162,.T.);
#101=FACE_OUTER_BOUND('',#163,.T.);
#102=FACE_OUTER_BOUND('',#164,.T.);
#103=FACE_OUTER_BOUND('',#165,.T.);
#104=FACE_OUTER_BOUND('',#167,.T.);
#105=FACE_OUTER_BOUND('',#168,.T.);
#106=FACE_OUTER_BOUND('',#170,.T.);
#107=FACE_OUTER_BOUND('',#171,.T.);
#108=FACE_OUTER_BOUND('',#172,.T.);
#109=FACE_OUTER_BOUND('',#173,.T.);
#110=FACE_OUTER_BOUND('',#174,.T.);
#111=FACE_OUTER_BOUND('',#177,.T.);
#112=FACE_OUTER_BOUND('',#178,.T.);
#113=FACE_OUTER_BOUND('',#181,.T.);
#114=FACE_OUTER_BOUND('',#182,.T.);
#115=FACE_OUTER_BOUND('',#185,.T.);
#116=FACE_OUTER_BOUND('',#186,.T.);
#117=FACE_OUTER_BOUND('',#190,.T.);
#118=FACE_OUTER_BOUND('',#191,.T.);
#119=FACE_OUTER_BOUND('',#192,.T.);
#120=FACE_OUTER_BOUND('',#194,.T.);
#121=FACE_OUTER_BOUND('',#195,.T.);
#122=FACE_OUTER_BOUND('',#196,.T.);
#123=FACE_OUTER_BOUND('',#198,.T.);
#124=EDGE_LOOP('',(#598,#599,#600,#601));
#125=EDGE_LOOP('',(#602,#603,#604,#605,#606,#607,#608,#609));
#126=EDGE_LOOP('',(#610,#611,#612,#613));
#127=EDGE_LOOP('',(#614,#615,#616,#617,#618));
#128=EDGE_LOOP('',(#619,#620,#621,#622,#623,#624,#625));
#129=EDGE_LOOP('',(#626,#627,#628,#629));
#130=EDGE_LOOP('',(#630));
#131=EDGE_LOOP('',(#631));
#132=EDGE_LOOP('',(#632,#633,#634,#635));
#133=EDGE_LOOP('',(#636,#637,#638,#639));
#134=EDGE_LOOP('',(#640,#641,#642));
#135=EDGE_LOOP('',(#643));
#136=EDGE_LOOP('',(#644,#645,#646,#647,#648,#649,#650,#651,#652,#653,#654,
#655));
#137=EDGE_LOOP('',(#656,#657,#658,#659));
#138=EDGE_LOOP('',(#660,#661,#662,#663));
#139=EDGE_LOOP('',(#664));
#140=EDGE_LOOP('',(#665,#666,#667,#668,#669));
#141=EDGE_LOOP('',(#670,#671,#672,#673));
#142=EDGE_LOOP('',(#674,#675,#676,#677,#678,#679,#680,#681,#682,#683,#684,
#685));
#143=EDGE_LOOP('',(#686,#687,#688,#689));
#144=EDGE_LOOP('',(#690,#691,#692,#693));
#145=EDGE_LOOP('',(#694,#695,#696,#697));
#146=EDGE_LOOP('',(#698));
#147=EDGE_LOOP('',(#699));
#148=EDGE_LOOP('',(#700));
#149=EDGE_LOOP('',(#701));
#150=EDGE_LOOP('',(#702,#703,#704,#705));
#151=EDGE_LOOP('',(#706,#707,#708,#709));
#152=EDGE_LOOP('',(#710));
#153=EDGE_LOOP('',(#711));
#154=EDGE_LOOP('',(#712,#713,#714,#715));
#155=EDGE_LOOP('',(#716,#717,#718,#719));
#156=EDGE_LOOP('',(#720,#721,#722,#723));
#157=EDGE_LOOP('',(#724));
#158=EDGE_LOOP('',(#725));
#159=EDGE_LOOP('',(#726,#727,#728,#729));
#160=EDGE_LOOP('',(#730));
#161=EDGE_LOOP('',(#731));
#162=EDGE_LOOP('',(#732,#733,#734,#735));
#163=EDGE_LOOP('',(#736,#737,#738,#739));
#164=EDGE_LOOP('',(#740,#741,#742,#743,#744));
#165=EDGE_LOOP('',(#745));
#166=EDGE_LOOP('',(#746));
#167=EDGE_LOOP('',(#747,#748,#749,#750,#751));
#168=EDGE_LOOP('',(#752));
#169=EDGE_LOOP('',(#753));
#170=EDGE_LOOP('',(#754,#755,#756,#757,#758,#759,#760,#761,#762,#763));
#171=EDGE_LOOP('',(#764,#765,#766,#767));
#172=EDGE_LOOP('',(#768,#769,#770,#771));
#173=EDGE_LOOP('',(#772,#773,#774,#775));
#174=EDGE_LOOP('',(#776,#777,#778,#779,#780,#781));
#175=EDGE_LOOP('',(#782));
#176=EDGE_LOOP('',(#783));
#177=EDGE_LOOP('',(#784,#785,#786,#787));
#178=EDGE_LOOP('',(#788,#789,#790,#791));
#179=EDGE_LOOP('',(#792));
#180=EDGE_LOOP('',(#793));
#181=EDGE_LOOP('',(#794,#795,#796,#797));
#182=EDGE_LOOP('',(#798,#799,#800,#801));
#183=EDGE_LOOP('',(#802));
#184=EDGE_LOOP('',(#803));
#185=EDGE_LOOP('',(#804,#805,#806,#807));
#186=EDGE_LOOP('',(#808,#809,#810,#811,#812,#813,#814,#815));
#187=EDGE_LOOP('',(#816,#817,#818,#819));
#188=EDGE_LOOP('',(#820));
#189=EDGE_LOOP('',(#821));
#190=EDGE_LOOP('',(#822,#823,#824,#825));
#191=EDGE_LOOP('',(#826,#827,#828,#829));
#192=EDGE_LOOP('',(#830));
#193=EDGE_LOOP('',(#831));
#194=EDGE_LOOP('',(#832,#833,#834,#835));
#195=EDGE_LOOP('',(#836,#837,#838,#839));
#196=EDGE_LOOP('',(#840));
#197=EDGE_LOOP('',(#841));
#198=EDGE_LOOP('',(#842,#843,#844,#845));
#199=EDGE_LOOP('',(#846));
#200=EDGE_LOOP('',(#847));
#201=B_SPLINE_CURVE_WITH_KNOTS('',3,(#1335,#1336,#1337,#1338,#1339,#1340,
#1341,#1342,#1343,#1344,#1345,#1346),.UNSPECIFIED.,.F.,.F.,(4,2,2,2,2,4),
(0.283799248091835,0.32274027180437,0.374068721039571,0.427514341384338,
0.480959961729105,0.511113124551746),.UNSPECIFIED.);
#202=LINE('',#1333,#271);
#203=LINE('',#1347,#272);
#204=LINE('',#1350,#273);
#205=LINE('',#1352,#274);
#206=LINE('',#1354,#275);
#207=LINE('',#1356,#276);
#208=LINE('',#1362,#277);
#209=LINE('',#1369,#278);
#210=LINE('',#1378,#279);
#211=LINE('',#1391,#280);
#212=LINE('',#1393,#281);
#213=LINE('',#1394,#282);
#214=LINE('',#1401,#283);
#215=LINE('',#1405,#284);
#216=LINE('',#1412,#285);
#217=LINE('',#1414,#286);
#218=LINE('',#1416,#287);
#219=LINE('',#1418,#288);
#220=LINE('',#1420,#289);
#221=LINE('',#1422,#290);
#222=LINE('',#1424,#291);
#223=LINE('',#1426,#292);
#224=LINE('',#1427,#293);
#225=LINE('',#1430,#294);
#226=LINE('',#1435,#295);
#227=LINE('',#1439,#296);
#228=LINE('',#1443,#297);
#229=LINE('',#1446,#298);
#230=LINE('',#1451,#299);
#231=LINE('',#1453,#300);
#232=LINE('',#1455,#301);
#233=LINE('',#1457,#302);
#234=LINE('',#1459,#303);
#235=LINE('',#1461,#304);
#236=LINE('',#1463,#305);
#237=LINE('',#1465,#306);
#238=LINE('',#1466,#307);
#239=LINE('',#1469,#308);
#240=LINE('',#1472,#309);
#241=LINE('',#1475,#310);
#242=LINE('',#1478,#311);
#243=LINE('',#1480,#312);
#244=LINE('',#1493,#313);
#245=LINE('',#1496,#314);
#246=LINE('',#1506,#315);
#247=LINE('',#1509,#316);
#248=LINE('',#1515,#317);
#249=LINE('',#1524,#318);
#250=LINE('',#1531,#319);
#251=LINE('',#1535,#320);
#252=LINE('',#1543,#321);
#253=LINE('',#1554,#322);
#254=LINE('',#1560,#323);
#255=LINE('',#1561,#324);
#256=LINE('',#1562,#325);
#257=LINE('',#1563,#326);
#258=LINE('',#1565,#327);
#259=LINE('',#1567,#328);
#260=LINE('',#1569,#329);
#261=LINE('',#1570,#330);
#262=LINE('',#1573,#331);
#263=LINE('',#1575,#332);
#264=LINE('',#1577,#333);
#265=LINE('',#1579,#334);
#266=LINE('',#1582,#335);
#267=LINE('',#1585,#336);
#268=LINE('',#1589,#337);
#269=LINE('',#1598,#338);
#270=LINE('',#1602,#339);
#271=VECTOR('',#1056,1.);
#272=VECTOR('',#1057,10.);
#273=VECTOR('',#1060,10.);
#274=VECTOR('',#1061,10.);
#275=VECTOR('',#1062,10.);
#276=VECTOR('',#1063,10.);
#277=VECTOR('',#1064,10.);
#278=VECTOR('',#1069,10.);
#279=VECTOR('',#1074,10.);
#280=VECTOR('',#1087,10.);
#281=VECTOR('',#1088,10.);
#282=VECTOR('',#1089,10.);
#283=VECTOR('',#1096,10.);
#284=VECTOR('',#1101,10.);
#285=VECTOR('',#1110,10.);
#286=VECTOR('',#1111,10.);
#287=VECTOR('',#1112,10.);
#288=VECTOR('',#1113,10.);
#289=VECTOR('',#1114,10.);
#290=VECTOR('',#1115,10.);
#291=VECTOR('',#1116,10.);
#292=VECTOR('',#1117,10.);
#293=VECTOR('',#1118,10.);
#294=VECTOR('',#1121,23.5000000000001);
#295=VECTOR('',#1126,10.);
#296=VECTOR('',#1129,10.);
#297=VECTOR('',#1134,10.);
#298=VECTOR('',#1137,10.);
#299=VECTOR('',#1144,10.);
#300=VECTOR('',#1145,10.);
#301=VECTOR('',#1146,10.);
#302=VECTOR('',#1147,10.);
#303=VECTOR('',#1148,10.);
#304=VECTOR('',#1149,10.);
#305=VECTOR('',#1150,10.);
#306=VECTOR('',#1151,10.);
#307=VECTOR('',#1152,10.);
#308=VECTOR('',#1155,10.);
#309=VECTOR('',#1158,10.);
#310=VECTOR('',#1161,10.);
#311=VECTOR('',#1164,10.);
#312=VECTOR('',#1167,10.);
#313=VECTOR('',#1182,3.5);
#314=VECTOR('',#1185,1.75);
#315=VECTOR('',#1198,3.5);
#316=VECTOR('',#1201,1.75);
#317=VECTOR('',#1208,3.5);
#318=VECTOR('',#1219,3.5);
#319=VECTOR('',#1228,1.75);
#320=VECTOR('',#1233,1.75);
#321=VECTOR('',#1242,3.);
#322=VECTOR('',#1255,3.);
#323=VECTOR('',#1264,10.);
#324=VECTOR('',#1265,10.);
#325=VECTOR('',#1266,10.);
#326=VECTOR('',#1267,10.);
#327=VECTOR('',#1270,1.6);
#328=VECTOR('',#1273,1.6);
#329=VECTOR('',#1276,10.);
#330=VECTOR('',#1277,10.);
#331=VECTOR('',#1282,10.);
#332=VECTOR('',#1285,10.);
#333=VECTOR('',#1288,10.);
#334=VECTOR('',#1291,10.);
#335=VECTOR('',#1296,10.);
#336=VECTOR('',#1299,3.);
#337=VECTOR('',#1304,3.);
#338=VECTOR('',#1315,1.6);
#339=VECTOR('',#1320,1.6);
#340=CIRCLE('',#948,1.);
#341=CIRCLE('',#951,3.);
#342=CIRCLE('',#953,3.);
#343=CIRCLE('',#954,6.5);
#344=CIRCLE('',#956,32.5);
#345=CIRCLE('',#957,29.);
#346=CIRCLE('',#958,32.5);
#347=CIRCLE('',#960,3.);
#348=CIRCLE('',#961,3.);
#349=CIRCLE('',#963,32.5);
#350=CIRCLE('',#965,3.);
#351=CIRCLE('',#967,23.5000000000001);
#352=CIRCLE('',#970,23.5000000000001);
#353=CIRCLE('',#972,27.9508497187474);
#354=CIRCLE('',#973,27.9508497187474);
#355=CIRCLE('',#975,3.);
#356=CIRCLE('',#977,32.5);
#357=CIRCLE('',#980,27.9508497187474);
#358=CIRCLE('',#982,27.9508497187474);
#359=CIRCLE('',#984,1.6);
#360=CIRCLE('',#985,1.6);
#361=CIRCLE('',#987,3.5);
#362=CIRCLE('',#988,1.75);
#363=CIRCLE('',#990,3.5);
#364=CIRCLE('',#992,1.75);
#365=CIRCLE('',#994,3.5);
#366=CIRCLE('',#995,1.75);
#367=CIRCLE('',#997,3.5);
#368=CIRCLE('',#999,1.75);
#369=CIRCLE('',#1001,3.5);
#370=CIRCLE('',#1002,3.5);
#371=CIRCLE('',#1004,1.75);
#372=CIRCLE('',#1006,3.5);
#373=CIRCLE('',#1007,3.5);
#374=CIRCLE('',#1009,1.75);
#375=CIRCLE('',#1011,1.75);
#376=CIRCLE('',#1013,1.75);
#377=CIRCLE('',#1015,3.);
#378=CIRCLE('',#1016,3.);
#379=CIRCLE('',#1017,3.);
#380=CIRCLE('',#1019,1.6);
#381=CIRCLE('',#1021,3.);
#382=CIRCLE('',#1022,3.);
#383=CIRCLE('',#1023,3.);
#384=CIRCLE('',#1025,1.6);
#385=CIRCLE('',#1038,3.);
#386=CIRCLE('',#1040,3.);
#387=CIRCLE('',#1042,1.6);
#388=CIRCLE('',#1044,1.6);
#389=CIRCLE('',#1045,1.6);
#390=CIRCLE('',#1047,1.6);
#391=VERTEX_POINT('',#1329);
#392=VERTEX_POINT('',#1330);
#393=VERTEX_POINT('',#1332);
#394=VERTEX_POINT('',#1334);
#395=VERTEX_POINT('',#1349);
#396=VERTEX_POINT('',#1351);
#397=VERTEX_POINT('',#1353);
#398=VERTEX_POINT('',#1355);
#399=VERTEX_POINT('',#1357);
#400=VERTEX_POINT('',#1361);
#401=VERTEX_POINT('',#1367);
#402=VERTEX_POINT('',#1371);
#403=VERTEX_POINT('',#1375);
#404=VERTEX_POINT('',#1377);
#405=VERTEX_POINT('',#1381);
#406=VERTEX_POINT('',#1384);
#407=VERTEX_POINT('',#1390);
#408=VERTEX_POINT('',#1392);
#409=VERTEX_POINT('',#1395);
#410=VERTEX_POINT('',#1397);
#411=VERTEX_POINT('',#1400);
#412=VERTEX_POINT('',#1404);
#413=VERTEX_POINT('',#1408);
#414=VERTEX_POINT('',#1411);
#415=VERTEX_POINT('',#1413);
#416=VERTEX_POINT('',#1415);
#417=VERTEX_POINT('',#1417);
#418=VERTEX_POINT('',#1419);
#419=VERTEX_POINT('',#1421);
#420=VERTEX_POINT('',#1423);
#421=VERTEX_POINT('',#1425);
#422=VERTEX_POINT('',#1429);
#423=VERTEX_POINT('',#1433);
#424=VERTEX_POINT('',#1434);
#425=VERTEX_POINT('',#1436);
#426=VERTEX_POINT('',#1438);
#427=VERTEX_POINT('',#1442);
#428=VERTEX_POINT('',#1444);
#429=VERTEX_POINT('',#1450);
#430=VERTEX_POINT('',#1452);
#431=VERTEX_POINT('',#1454);
#432=VERTEX_POINT('',#1456);
#433=VERTEX_POINT('',#1458);
#434=VERTEX_POINT('',#1460);
#435=VERTEX_POINT('',#1462);
#436=VERTEX_POINT('',#1464);
#437=VERTEX_POINT('',#1468);
#438=VERTEX_POINT('',#1470);
#439=VERTEX_POINT('',#1474);
#440=VERTEX_POINT('',#1476);
#441=VERTEX_POINT('',#1481);
#442=VERTEX_POINT('',#1483);
#443=VERTEX_POINT('',#1486);
#444=VERTEX_POINT('',#1488);
#445=VERTEX_POINT('',#1491);
#446=VERTEX_POINT('',#1495);
#447=VERTEX_POINT('',#1499);
#448=VERTEX_POINT('',#1501);
#449=VERTEX_POINT('',#1504);
#450=VERTEX_POINT('',#1508);
#451=VERTEX_POINT('',#1512);
#452=VERTEX_POINT('',#1514);
#453=VERTEX_POINT('',#1518);
#454=VERTEX_POINT('',#1521);
#455=VERTEX_POINT('',#1523);
#456=VERTEX_POINT('',#1527);
#457=VERTEX_POINT('',#1530);
#458=VERTEX_POINT('',#1534);
#459=VERTEX_POINT('',#1538);
#460=VERTEX_POINT('',#1539);
#461=VERTEX_POINT('',#1542);
#462=VERTEX_POINT('',#1546);
#463=VERTEX_POINT('',#1549);
#464=VERTEX_POINT('',#1550);
#465=VERTEX_POINT('',#1553);
#466=VERTEX_POINT('',#1557);
#467=VERTEX_POINT('',#1584);
#468=VERTEX_POINT('',#1588);
#469=VERTEX_POINT('',#1592);
#470=VERTEX_POINT('',#1595);
#471=VERTEX_POINT('',#1597);
#472=VERTEX_POINT('',#1601);
#473=EDGE_CURVE('',#391,#392,#340,.T.);
#474=EDGE_CURVE('',#392,#393,#202,.T.);
#475=EDGE_CURVE('',#394,#393,#201,.T.);
#476=EDGE_CURVE('',#394,#391,#203,.T.);
#477=EDGE_CURVE('',#392,#395,#204,.T.);
#478=EDGE_CURVE('',#395,#396,#205,.T.);
#479=EDGE_CURVE('',#396,#397,#206,.T.);
#480=EDGE_CURVE('',#398,#397,#207,.T.);
#481=EDGE_CURVE('',#399,#398,#42,.F.);
#482=EDGE_CURVE('',#399,#400,#208,.T.);
#483=EDGE_CURVE('',#400,#393,#43,.T.);
#484=EDGE_CURVE('',#391,#401,#341,.T.);
#485=EDGE_CURVE('',#395,#401,#209,.T.);
#486=EDGE_CURVE('',#402,#398,#44,.T.);
#487=EDGE_CURVE('',#402,#403,#342,.T.);
#488=EDGE_CURVE('',#403,#404,#210,.T.);
#489=EDGE_CURVE('',#404,#399,#343,.T.);
#490=EDGE_CURVE('',#405,#394,#344,.T.);
#491=EDGE_CURVE('',#400,#404,#345,.T.);
#492=EDGE_CURVE('',#403,#406,#346,.T.);
#493=EDGE_CURVE('',#406,#405,#45,.T.);
#494=EDGE_CURVE('',#406,#407,#211,.T.);
#495=EDGE_CURVE('',#407,#408,#212,.T.);
#496=EDGE_CURVE('',#408,#405,#213,.T.);
#497=EDGE_CURVE('',#409,#409,#347,.T.);
#498=EDGE_CURVE('',#410,#410,#348,.T.);
#499=EDGE_CURVE('',#411,#403,#214,.T.);
#500=EDGE_CURVE('',#411,#407,#349,.T.);
#501=EDGE_CURVE('',#402,#412,#215,.T.);
#502=EDGE_CURVE('',#412,#411,#350,.T.);
#503=EDGE_CURVE('',#413,#413,#351,.T.);
#504=EDGE_CURVE('',#397,#414,#216,.T.);
#505=EDGE_CURVE('',#414,#415,#217,.T.);
#506=EDGE_CURVE('',#415,#416,#218,.T.);
#507=EDGE_CURVE('',#416,#417,#219,.T.);
#508=EDGE_CURVE('',#417,#418,#220,.T.);
#509=EDGE_CURVE('',#418,#419,#221,.T.);
#510=EDGE_CURVE('',#419,#420,#222,.T.);
#511=EDGE_CURVE('',#420,#421,#223,.T.);
#512=EDGE_CURVE('',#421,#412,#224,.T.);
#513=EDGE_CURVE('',#413,#422,#225,.T.);
#514=EDGE_CURVE('',#422,#422,#352,.T.);
#515=EDGE_CURVE('',#423,#424,#226,.T.);
#516=EDGE_CURVE('',#424,#425,#353,.T.);
#517=EDGE_CURVE('',#425,#426,#227,.T.);
#518=EDGE_CURVE('',#426,#423,#354,.T.);
#519=EDGE_CURVE('',#427,#394,#228,.T.);
#520=EDGE_CURVE('',#427,#428,#355,.T.);
#521=EDGE_CURVE('',#401,#428,#229,.T.);
#522=EDGE_CURVE('',#408,#427,#356,.T.);
#523=EDGE_CURVE('',#429,#428,#230,.T.);
#524=EDGE_CURVE('',#430,#429,#231,.T.);
#525=EDGE_CURVE('',#431,#430,#232,.T.);
#526=EDGE_CURVE('',#432,#431,#233,.T.);
#527=EDGE_CURVE('',#433,#432,#234,.T.);
#528=EDGE_CURVE('',#434,#433,#235,.T.);
#529=EDGE_CURVE('',#435,#434,#236,.T.);
#530=EDGE_CURVE('',#436,#435,#237,.T.);
#531=EDGE_CURVE('',#396,#436,#238,.T.);
#532=EDGE_CURVE('',#424,#437,#239,.T.);
#533=EDGE_CURVE('',#437,#438,#357,.T.);
#534=EDGE_CURVE('',#425,#438,#240,.T.);
#535=EDGE_CURVE('',#439,#426,#241,.T.);
#536=EDGE_CURVE('',#439,#440,#358,.T.);
#537=EDGE_CURVE('',#423,#440,#242,.T.);
#538=EDGE_CURVE('',#438,#439,#243,.T.);
#539=EDGE_CURVE('',#441,#441,#359,.T.);
#540=EDGE_CURVE('',#442,#442,#360,.T.);
#541=EDGE_CURVE('',#443,#443,#361,.T.);
#542=EDGE_CURVE('',#444,#444,#362,.T.);
#543=EDGE_CURVE('',#445,#445,#363,.T.);
#544=EDGE_CURVE('',#445,#443,#244,.T.);
#545=EDGE_CURVE('',#444,#446,#245,.T.);
#546=EDGE_CURVE('',#446,#446,#364,.T.);
#547=EDGE_CURVE('',#447,#447,#365,.T.);
#548=EDGE_CURVE('',#448,#448,#366,.T.);
#549=EDGE_CURVE('',#449,#449,#367,.T.);
#550=EDGE_CURVE('',#449,#447,#246,.T.);
#551=EDGE_CURVE('',#448,#450,#247,.T.);
#552=EDGE_CURVE('',#450,#450,#368,.T.);
#553=EDGE_CURVE('',#451,#451,#369,.T.);
#554=EDGE_CURVE('',#451,#452,#248,.T.);
#555=EDGE_CURVE('',#452,#452,#370,.T.);
#556=EDGE_CURVE('',#453,#453,#371,.T.);
#557=EDGE_CURVE('',#454,#454,#372,.T.);
#558=EDGE_CURVE('',#454,#455,#249,.T.);
#559=EDGE_CURVE('',#455,#455,#373,.T.);
#560=EDGE_CURVE('',#456,#456,#374,.T.);
#561=EDGE_CURVE('',#456,#457,#250,.T.);
#562=EDGE_CURVE('',#457,#457,#375,.T.);
#563=EDGE_CURVE('',#453,#458,#251,.T.);
#564=EDGE_CURVE('',#458,#458,#376,.T.);
#565=EDGE_CURVE('',#459,#460,#377,.T.);
#566=EDGE_CURVE('',#460,#459,#378,.T.);
#567=EDGE_CURVE('',#460,#461,#252,.T.);
#568=EDGE_CURVE('',#461,#461,#379,.T.);
#569=EDGE_CURVE('',#462,#462,#380,.T.);
#570=EDGE_CURVE('',#463,#464,#381,.T.);
#571=EDGE_CURVE('',#464,#463,#382,.T.);
#572=EDGE_CURVE('',#464,#465,#253,.T.);
#573=EDGE_CURVE('',#465,#465,#383,.T.);
#574=EDGE_CURVE('',#466,#466,#384,.T.);
#575=EDGE_CURVE('',#431,#459,#254,.T.);
#576=EDGE_CURVE('',#459,#463,#255,.T.);
#577=EDGE_CURVE('',#463,#419,#256,.T.);
#578=EDGE_CURVE('',#432,#418,#257,.T.);
#579=EDGE_CURVE('',#462,#441,#258,.T.);
#580=EDGE_CURVE('',#466,#442,#259,.T.);
#581=EDGE_CURVE('',#429,#421,#260,.T.);
#582=EDGE_CURVE('',#430,#420,#261,.T.);
#583=EDGE_CURVE('',#433,#417,#262,.T.);
#584=EDGE_CURVE('',#434,#416,#263,.T.);
#585=EDGE_CURVE('',#435,#415,#264,.T.);
#586=EDGE_CURVE('',#436,#414,#265,.T.);
#587=EDGE_CURVE('',#440,#437,#266,.T.);
#588=EDGE_CURVE('',#409,#467,#267,.T.);
#589=EDGE_CURVE('',#467,#467,#385,.T.);
#590=EDGE_CURVE('',#410,#468,#268,.T.);
#591=EDGE_CURVE('',#468,#468,#386,.T.);
#592=EDGE_CURVE('',#469,#469,#387,.T.);
#593=EDGE_CURVE('',#470,#470,#388,.T.);
#594=EDGE_CURVE('',#470,#471,#269,.T.);
#595=EDGE_CURVE('',#471,#471,#389,.T.);
#596=EDGE_CURVE('',#469,#472,#270,.T.);
#597=EDGE_CURVE('',#472,#472,#390,.T.);
#598=ORIENTED_EDGE('',*,*,#473,.T.);
#599=ORIENTED_EDGE('',*,*,#474,.T.);
#600=ORIENTED_EDGE('',*,*,#475,.F.);
#601=ORIENTED_EDGE('',*,*,#476,.T.);
#602=ORIENTED_EDGE('',*,*,#474,.F.);
#603=ORIENTED_EDGE('',*,*,#477,.T.);
#604=ORIENTED_EDGE('',*,*,#478,.T.);
#605=ORIENTED_EDGE('',*,*,#479,.T.);
#606=ORIENTED_EDGE('',*,*,#480,.F.);
#607=ORIENTED_EDGE('',*,*,#481,.F.);
#608=ORIENTED_EDGE('',*,*,#482,.T.);
#609=ORIENTED_EDGE('',*,*,#483,.T.);
#610=ORIENTED_EDGE('',*,*,#473,.F.);
#611=ORIENTED_EDGE('',*,*,#484,.T.);
#612=ORIENTED_EDGE('',*,*,#485,.F.);
#613=ORIENTED_EDGE('',*,*,#477,.F.);
#614=ORIENTED_EDGE('',*,*,#486,.F.);
#615=ORIENTED_EDGE('',*,*,#487,.T.);
#616=ORIENTED_EDGE('',*,*,#488,.T.);
#617=ORIENTED_EDGE('',*,*,#489,.T.);
#618=ORIENTED_EDGE('',*,*,#481,.T.);
#619=ORIENTED_EDGE('',*,*,#490,.T.);
#620=ORIENTED_EDGE('',*,*,#475,.T.);
#621=ORIENTED_EDGE('',*,*,#483,.F.);
#622=ORIENTED_EDGE('',*,*,#491,.T.);
#623=ORIENTED_EDGE('',*,*,#488,.F.);
#624=ORIENTED_EDGE('',*,*,#492,.T.);
#625=ORIENTED_EDGE('',*,*,#493,.T.);
#626=ORIENTED_EDGE('',*,*,#493,.F.);
#627=ORIENTED_EDGE('',*,*,#494,.T.);
#628=ORIENTED_EDGE('',*,*,#495,.T.);
#629=ORIENTED_EDGE('',*,*,#496,.T.);
#630=ORIENTED_EDGE('',*,*,#497,.T.);
#631=ORIENTED_EDGE('',*,*,#498,.T.);
#632=ORIENTED_EDGE('',*,*,#492,.F.);
#633=ORIENTED_EDGE('',*,*,#499,.F.);
#634=ORIENTED_EDGE('',*,*,#500,.T.);
#635=ORIENTED_EDGE('',*,*,#494,.F.);
#636=ORIENTED_EDGE('',*,*,#487,.F.);
#637=ORIENTED_EDGE('',*,*,#501,.T.);
#638=ORIENTED_EDGE('',*,*,#502,.T.);
#639=ORIENTED_EDGE('',*,*,#499,.T.);
#640=ORIENTED_EDGE('',*,*,#491,.F.);
#641=ORIENTED_EDGE('',*,*,#482,.F.);
#642=ORIENTED_EDGE('',*,*,#489,.F.);
#643=ORIENTED_EDGE('',*,*,#503,.T.);
#644=ORIENTED_EDGE('',*,*,#486,.T.);
#645=ORIENTED_EDGE('',*,*,#480,.T.);
#646=ORIENTED_EDGE('',*,*,#504,.T.);
#647=ORIENTED_EDGE('',*,*,#505,.T.);
#648=ORIENTED_EDGE('',*,*,#506,.T.);
#649=ORIENTED_EDGE('',*,*,#507,.T.);
#650=ORIENTED_EDGE('',*,*,#508,.T.);
#651=ORIENTED_EDGE('',*,*,#509,.T.);
#652=ORIENTED_EDGE('',*,*,#510,.T.);
#653=ORIENTED_EDGE('',*,*,#511,.T.);
#654=ORIENTED_EDGE('',*,*,#512,.T.);
#655=ORIENTED_EDGE('',*,*,#501,.F.);
#656=ORIENTED_EDGE('',*,*,#503,.F.);
#657=ORIENTED_EDGE('',*,*,#513,.T.);
#658=ORIENTED_EDGE('',*,*,#514,.T.);
#659=ORIENTED_EDGE('',*,*,#513,.F.);
#660=ORIENTED_EDGE('',*,*,#515,.T.);
#661=ORIENTED_EDGE('',*,*,#516,.T.);
#662=ORIENTED_EDGE('',*,*,#517,.T.);
#663=ORIENTED_EDGE('',*,*,#518,.T.);
#664=ORIENTED_EDGE('',*,*,#514,.F.);
#665=ORIENTED_EDGE('',*,*,#519,.F.);
#666=ORIENTED_EDGE('',*,*,#520,.T.);
#667=ORIENTED_EDGE('',*,*,#521,.F.);
#668=ORIENTED_EDGE('',*,*,#484,.F.);
#669=ORIENTED_EDGE('',*,*,#476,.F.);
#670=ORIENTED_EDGE('',*,*,#490,.F.);
#671=ORIENTED_EDGE('',*,*,#496,.F.);
#672=ORIENTED_EDGE('',*,*,#522,.T.);
#673=ORIENTED_EDGE('',*,*,#519,.T.);
#674=ORIENTED_EDGE('',*,*,#521,.T.);
#675=ORIENTED_EDGE('',*,*,#523,.F.);
#676=ORIENTED_EDGE('',*,*,#524,.F.);
#677=ORIENTED_EDGE('',*,*,#525,.F.);
#678=ORIENTED_EDGE('',*,*,#526,.F.);
#679=ORIENTED_EDGE('',*,*,#527,.F.);
#680=ORIENTED_EDGE('',*,*,#528,.F.);
#681=ORIENTED_EDGE('',*,*,#529,.F.);
#682=ORIENTED_EDGE('',*,*,#530,.F.);
#683=ORIENTED_EDGE('',*,*,#531,.F.);
#684=ORIENTED_EDGE('',*,*,#478,.F.);
#685=ORIENTED_EDGE('',*,*,#485,.T.);
#686=ORIENTED_EDGE('',*,*,#532,.T.);
#687=ORIENTED_EDGE('',*,*,#533,.T.);
#688=ORIENTED_EDGE('',*,*,#534,.F.);
#689=ORIENTED_EDGE('',*,*,#516,.F.);
#690=ORIENTED_EDGE('',*,*,#535,.F.);
#691=ORIENTED_EDGE('',*,*,#536,.T.);
#692=ORIENTED_EDGE('',*,*,#537,.F.);
#693=ORIENTED_EDGE('',*,*,#518,.F.);
#694=ORIENTED_EDGE('',*,*,#534,.T.);
#695=ORIENTED_EDGE('',*,*,#538,.T.);
#696=ORIENTED_EDGE('',*,*,#535,.T.);
#697=ORIENTED_EDGE('',*,*,#517,.F.);
#698=ORIENTED_EDGE('',*,*,#539,.T.);
#699=ORIENTED_EDGE('',*,*,#540,.T.);
#700=ORIENTED_EDGE('',*,*,#541,.T.);
#701=ORIENTED_EDGE('',*,*,#542,.F.);
#702=ORIENTED_EDGE('',*,*,#543,.F.);
#703=ORIENTED_EDGE('',*,*,#544,.T.);
#704=ORIENTED_EDGE('',*,*,#541,.F.);
#705=ORIENTED_EDGE('',*,*,#544,.F.);
#706=ORIENTED_EDGE('',*,*,#542,.T.);
#707=ORIENTED_EDGE('',*,*,#545,.T.);
#708=ORIENTED_EDGE('',*,*,#546,.F.);
#709=ORIENTED_EDGE('',*,*,#545,.F.);
#710=ORIENTED_EDGE('',*,*,#547,.T.);
#711=ORIENTED_EDGE('',*,*,#548,.F.);
#712=ORIENTED_EDGE('',*,*,#549,.F.);
#713=ORIENTED_EDGE('',*,*,#550,.T.);
#714=ORIENTED_EDGE('',*,*,#547,.F.);
#715=ORIENTED_EDGE('',*,*,#550,.F.);
#716=ORIENTED_EDGE('',*,*,#548,.T.);
#717=ORIENTED_EDGE('',*,*,#551,.T.);
#718=ORIENTED_EDGE('',*,*,#552,.F.);
#719=ORIENTED_EDGE('',*,*,#551,.F.);
#720=ORIENTED_EDGE('',*,*,#553,.F.);
#721=ORIENTED_EDGE('',*,*,#554,.T.);
#722=ORIENTED_EDGE('',*,*,#555,.T.);
#723=ORIENTED_EDGE('',*,*,#554,.F.);
#724=ORIENTED_EDGE('',*,*,#555,.F.);
#725=ORIENTED_EDGE('',*,*,#556,.F.);
#726=ORIENTED_EDGE('',*,*,#557,.F.);
#727=ORIENTED_EDGE('',*,*,#558,.T.);
#728=ORIENTED_EDGE('',*,*,#559,.T.);
#729=ORIENTED_EDGE('',*,*,#558,.F.);
#730=ORIENTED_EDGE('',*,*,#559,.F.);
#731=ORIENTED_EDGE('',*,*,#560,.F.);
#732=ORIENTED_EDGE('',*,*,#560,.T.);
#733=ORIENTED_EDGE('',*,*,#561,.T.);
#734=ORIENTED_EDGE('',*,*,#562,.F.);
#735=ORIENTED_EDGE('',*,*,#561,.F.);
#736=ORIENTED_EDGE('',*,*,#556,.T.);
#737=ORIENTED_EDGE('',*,*,#563,.T.);
#738=ORIENTED_EDGE('',*,*,#564,.F.);
#739=ORIENTED_EDGE('',*,*,#563,.F.);
#740=ORIENTED_EDGE('',*,*,#565,.F.);
#741=ORIENTED_EDGE('',*,*,#566,.F.);
#742=ORIENTED_EDGE('',*,*,#567,.T.);
#743=ORIENTED_EDGE('',*,*,#568,.T.);
#744=ORIENTED_EDGE('',*,*,#567,.F.);
#745=ORIENTED_EDGE('',*,*,#568,.F.);
#746=ORIENTED_EDGE('',*,*,#569,.F.);
#747=ORIENTED_EDGE('',*,*,#570,.F.);
#748=ORIENTED_EDGE('',*,*,#571,.F.);
#749=ORIENTED_EDGE('',*,*,#572,.T.);
#750=ORIENTED_EDGE('',*,*,#573,.T.);
#751=ORIENTED_EDGE('',*,*,#572,.F.);
#752=ORIENTED_EDGE('',*,*,#573,.F.);
#753=ORIENTED_EDGE('',*,*,#574,.F.);
#754=ORIENTED_EDGE('',*,*,#526,.T.);
#755=ORIENTED_EDGE('',*,*,#575,.T.);
#756=ORIENTED_EDGE('',*,*,#565,.T.);
#757=ORIENTED_EDGE('',*,*,#566,.T.);
#758=ORIENTED_EDGE('',*,*,#576,.T.);
#759=ORIENTED_EDGE('',*,*,#570,.T.);
#760=ORIENTED_EDGE('',*,*,#571,.T.);
#761=ORIENTED_EDGE('',*,*,#577,.T.);
#762=ORIENTED_EDGE('',*,*,#509,.F.);
#763=ORIENTED_EDGE('',*,*,#578,.F.);
#764=ORIENTED_EDGE('',*,*,#569,.T.);
#765=ORIENTED_EDGE('',*,*,#579,.T.);
#766=ORIENTED_EDGE('',*,*,#539,.F.);
#767=ORIENTED_EDGE('',*,*,#579,.F.);
#768=ORIENTED_EDGE('',*,*,#574,.T.);
#769=ORIENTED_EDGE('',*,*,#580,.T.);
#770=ORIENTED_EDGE('',*,*,#540,.F.);
#771=ORIENTED_EDGE('',*,*,#580,.F.);
#772=ORIENTED_EDGE('',*,*,#524,.T.);
#773=ORIENTED_EDGE('',*,*,#581,.T.);
#774=ORIENTED_EDGE('',*,*,#511,.F.);
#775=ORIENTED_EDGE('',*,*,#582,.F.);
#776=ORIENTED_EDGE('',*,*,#525,.T.);
#777=ORIENTED_EDGE('',*,*,#582,.T.);
#778=ORIENTED_EDGE('',*,*,#510,.F.);
#779=ORIENTED_EDGE('',*,*,#577,.F.);
#780=ORIENTED_EDGE('',*,*,#576,.F.);
#781=ORIENTED_EDGE('',*,*,#575,.F.);
#782=ORIENTED_EDGE('',*,*,#546,.T.);
#783=ORIENTED_EDGE('',*,*,#552,.T.);
#784=ORIENTED_EDGE('',*,*,#527,.T.);
#785=ORIENTED_EDGE('',*,*,#578,.T.);
#786=ORIENTED_EDGE('',*,*,#508,.F.);
#787=ORIENTED_EDGE('',*,*,#583,.F.);
#788=ORIENTED_EDGE('',*,*,#528,.T.);
#789=ORIENTED_EDGE('',*,*,#583,.T.);
#790=ORIENTED_EDGE('',*,*,#507,.F.);
#791=ORIENTED_EDGE('',*,*,#584,.F.);
#792=ORIENTED_EDGE('',*,*,#562,.T.);
#793=ORIENTED_EDGE('',*,*,#564,.T.);
#794=ORIENTED_EDGE('',*,*,#529,.T.);
#795=ORIENTED_EDGE('',*,*,#584,.T.);
#796=ORIENTED_EDGE('',*,*,#506,.F.);
#797=ORIENTED_EDGE('',*,*,#585,.F.);
#798=ORIENTED_EDGE('',*,*,#530,.T.);
#799=ORIENTED_EDGE('',*,*,#585,.T.);
#800=ORIENTED_EDGE('',*,*,#505,.F.);
#801=ORIENTED_EDGE('',*,*,#586,.F.);
#802=ORIENTED_EDGE('',*,*,#553,.T.);
#803=ORIENTED_EDGE('',*,*,#557,.T.);
#804=ORIENTED_EDGE('',*,*,#531,.T.);
#805=ORIENTED_EDGE('',*,*,#586,.T.);
#806=ORIENTED_EDGE('',*,*,#504,.F.);
#807=ORIENTED_EDGE('',*,*,#479,.F.);
#808=ORIENTED_EDGE('',*,*,#523,.T.);
#809=ORIENTED_EDGE('',*,*,#520,.F.);
#810=ORIENTED_EDGE('',*,*,#522,.F.);
#811=ORIENTED_EDGE('',*,*,#495,.F.);
#812=ORIENTED_EDGE('',*,*,#500,.F.);
#813=ORIENTED_EDGE('',*,*,#502,.F.);
#814=ORIENTED_EDGE('',*,*,#512,.F.);
#815=ORIENTED_EDGE('',*,*,#581,.F.);
#816=ORIENTED_EDGE('',*,*,#538,.F.);
#817=ORIENTED_EDGE('',*,*,#533,.F.);
#818=ORIENTED_EDGE('',*,*,#587,.F.);
#819=ORIENTED_EDGE('',*,*,#536,.F.);
#820=ORIENTED_EDGE('',*,*,#543,.T.);
#821=ORIENTED_EDGE('',*,*,#549,.T.);
#822=ORIENTED_EDGE('',*,*,#497,.F.);
#823=ORIENTED_EDGE('',*,*,#588,.T.);
#824=ORIENTED_EDGE('',*,*,#589,.F.);
#825=ORIENTED_EDGE('',*,*,#588,.F.);
#826=ORIENTED_EDGE('',*,*,#498,.F.);
#827=ORIENTED_EDGE('',*,*,#590,.T.);
#828=ORIENTED_EDGE('',*,*,#591,.F.);
#829=ORIENTED_EDGE('',*,*,#590,.F.);
#830=ORIENTED_EDGE('',*,*,#591,.T.);
#831=ORIENTED_EDGE('',*,*,#592,.T.);
#832=ORIENTED_EDGE('',*,*,#593,.F.);
#833=ORIENTED_EDGE('',*,*,#594,.T.);
#834=ORIENTED_EDGE('',*,*,#595,.T.);
#835=ORIENTED_EDGE('',*,*,#594,.F.);
#836=ORIENTED_EDGE('',*,*,#592,.F.);
#837=ORIENTED_EDGE('',*,*,#596,.T.);
#838=ORIENTED_EDGE('',*,*,#597,.T.);
#839=ORIENTED_EDGE('',*,*,#596,.F.);
#840=ORIENTED_EDGE('',*,*,#589,.T.);
#841=ORIENTED_EDGE('',*,*,#593,.T.);
#842=ORIENTED_EDGE('',*,*,#532,.F.);
#843=ORIENTED_EDGE('',*,*,#515,.F.);
#844=ORIENTED_EDGE('',*,*,#537,.T.);
#845=ORIENTED_EDGE('',*,*,#587,.T.);
#846=ORIENTED_EDGE('',*,*,#597,.F.);
#847=ORIENTED_EDGE('',*,*,#595,.F.);
#848=CYLINDRICAL_SURFACE('',#947,1.);
#849=CYLINDRICAL_SURFACE('',#962,32.5);
#850=CYLINDRICAL_SURFACE('',#964,3.);
#851=CYLINDRICAL_SURFACE('',#969,23.5000000000001);
#852=CYLINDRICAL_SURFACE('',#974,3.);
#853=CYLINDRICAL_SURFACE('',#976,32.5);
#854=CYLINDRICAL_SURFACE('',#979,27.9508497187474);
#855=CYLINDRICAL_SURFACE('',#981,27.9508497187474);
#856=CYLINDRICAL_SURFACE('',#989,3.5);
#857=CYLINDRICAL_SURFACE('',#991,1.75);
#858=CYLINDRICAL_SURFACE('',#996,3.5);
#859=CYLINDRICAL_SURFACE('',#998,1.75);
#860=CYLINDRICAL_SURFACE('',#1000,3.5);
#861=CYLINDRICAL_SURFACE('',#1005,3.5);
#862=CYLINDRICAL_SURFACE('',#1010,1.75);
#863=CYLINDRICAL_SURFACE('',#1012,1.75);
#864=CYLINDRICAL_SURFACE('',#1014,3.);
#865=CYLINDRICAL_SURFACE('',#1020,3.);
#866=CYLINDRICAL_SURFACE('',#1027,1.6);
#867=CYLINDRICAL_SURFACE('',#1028,1.6);
#868=CYLINDRICAL_SURFACE('',#1037,3.);
#869=CYLINDRICAL_SURFACE('',#1039,3.);
#870=CYLINDRICAL_SURFACE('',#1043,1.6);
#871=CYLINDRICAL_SURFACE('',#1046,1.6);
#872=ADVANCED_FACE('',(#72),#848,.T.);
#873=ADVANCED_FACE('',(#73),#46,.T.);
#874=ADVANCED_FACE('',(#74),#47,.T.);
#875=ADVANCED_FACE('',(#75),#40,.F.);
#876=ADVANCED_FACE('',(#76),#41,.T.);
#877=ADVANCED_FACE('',(#77,#15,#16),#48,.T.);
#878=ADVANCED_FACE('',(#78),#849,.T.);
#879=ADVANCED_FACE('',(#79),#850,.F.);
#880=ADVANCED_FACE('',(#80,#17),#49,.T.);
#881=ADVANCED_FACE('',(#81),#50,.T.);
#882=ADVANCED_FACE('',(#82),#851,.F.);
#883=ADVANCED_FACE('',(#83,#18),#51,.F.);
#884=ADVANCED_FACE('',(#84),#852,.F.);
#885=ADVANCED_FACE('',(#85),#853,.T.);
#886=ADVANCED_FACE('',(#86),#52,.F.);
#887=ADVANCED_FACE('',(#87),#854,.F.);
#888=ADVANCED_FACE('',(#88),#855,.F.);
#889=ADVANCED_FACE('',(#89,#19,#20),#53,.T.);
#890=ADVANCED_FACE('',(#90,#21),#54,.F.);
#891=ADVANCED_FACE('',(#91),#856,.F.);
#892=ADVANCED_FACE('',(#92),#857,.F.);
#893=ADVANCED_FACE('',(#93,#22),#55,.F.);
#894=ADVANCED_FACE('',(#94),#858,.F.);
#895=ADVANCED_FACE('',(#95),#859,.F.);
#896=ADVANCED_FACE('',(#96),#860,.F.);
#897=ADVANCED_FACE('',(#97,#23),#56,.T.);
#898=ADVANCED_FACE('',(#98),#861,.F.);
#899=ADVANCED_FACE('',(#99,#24),#57,.T.);
#900=ADVANCED_FACE('',(#100),#862,.F.);
#901=ADVANCED_FACE('',(#101),#863,.F.);
#902=ADVANCED_FACE('',(#102),#864,.F.);
#903=ADVANCED_FACE('',(#103,#25),#58,.T.);
#904=ADVANCED_FACE('',(#104),#865,.F.);
#905=ADVANCED_FACE('',(#105,#26),#59,.T.);
#906=ADVANCED_FACE('',(#106),#60,.T.);
#907=ADVANCED_FACE('',(#107),#866,.F.);
#908=ADVANCED_FACE('',(#108),#867,.F.);
#909=ADVANCED_FACE('',(#109),#61,.T.);
#910=ADVANCED_FACE('',(#110,#27,#28),#62,.T.);
#911=ADVANCED_FACE('',(#111),#63,.T.);
#912=ADVANCED_FACE('',(#112,#29,#30),#64,.T.);
#913=ADVANCED_FACE('',(#113),#65,.T.);
#914=ADVANCED_FACE('',(#114,#31,#32),#66,.T.);
#915=ADVANCED_FACE('',(#115),#67,.T.);
#916=ADVANCED_FACE('',(#116,#33,#34,#35),#68,.T.);
#917=ADVANCED_FACE('',(#117),#868,.F.);
#918=ADVANCED_FACE('',(#118),#869,.F.);
#919=ADVANCED_FACE('',(#119,#36),#69,.T.);
#920=ADVANCED_FACE('',(#120),#870,.F.);
#921=ADVANCED_FACE('',(#121),#871,.F.);
#922=ADVANCED_FACE('',(#122,#37),#70,.T.);
#923=ADVANCED_FACE('',(#123,#38,#39),#71,.F.);
#924=CLOSED_SHELL('',(#872,#873,#874,#875,#876,#877,#878,#879,#880,#881,
#882,#883,#884,#885,#886,#887,#888,#889,#890,#891,#892,#893,#894,#895,#896,
#897,#898,#899,#900,#901,#902,#903,#904,#905,#906,#907,#908,#909,#910,#911,
#912,#913,#914,#915,#916,#917,#918,#919,#920,#921,#922,#923));
#925=DERIVED_UNIT_ELEMENT(#928,1.);
#926=DERIVED_UNIT_ELEMENT(#1611,-3.);
#927=DIMENSIONAL_EXPONENTS(0.,1.,0.,0.,0.,0.,0.);
#928=(
CONVERSION_BASED_UNIT('gram',#930)
MASS_UNIT()
NAMED_UNIT(#927)
);
#929=(
MASS_UNIT()
NAMED_UNIT(*)
SI_UNIT(.KILO.,.GRAM.)
);
#930=MASS_MEASURE_WITH_UNIT(MASS_MEASURE(0.001),#929);
#931=DERIVED_UNIT((#925,#926));
#932=MEASURE_REPRESENTATION_ITEM('density measure',
POSITIVE_RATIO_MEASURE(1.),#931);
#933=PROPERTY_DEFINITION_REPRESENTATION(#938,#935);
#934=PROPERTY_DEFINITION_REPRESENTATION(#939,#936);
#935=REPRESENTATION('material name',(#937),#1608);
#936=REPRESENTATION('density',(#932),#1608);
#937=DESCRIPTIVE_REPRESENTATION_ITEM('\X2\4E00822C\X0\','\X2\4E00822C\X0\');
#938=PROPERTY_DEFINITION('material property','material name',#1618);
#939=PROPERTY_DEFINITION('material property','density of part',#1618);
#940=DATE_TIME_ROLE('creation_date');
#941=APPLIED_DATE_AND_TIME_ASSIGNMENT(#942,#940,(#1618));
#942=DATE_AND_TIME(#943,#944);
#943=CALENDAR_DATE(2026,3,2);
#944=LOCAL_TIME(0,0,0.,#945);
#945=COORDINATED_UNIVERSAL_TIME_OFFSET(0,0,.BEHIND.);
#946=AXIS2_PLACEMENT_3D('',#1327,#1050,#1051);
#947=AXIS2_PLACEMENT_3D('',#1328,#1052,#1053);
#948=AXIS2_PLACEMENT_3D('',#1331,#1054,#1055);
#949=AXIS2_PLACEMENT_3D('',#1348,#1058,#1059);
#950=AXIS2_PLACEMENT_3D('',#1366,#1065,#1066);
#951=AXIS2_PLACEMENT_3D('',#1368,#1067,#1068);
#952=AXIS2_PLACEMENT_3D('',#1370,#1070,#1071);
#953=AXIS2_PLACEMENT_3D('',#1376,#1072,#1073);
#954=AXIS2_PLACEMENT_3D('',#1379,#1075,#1076);
#955=AXIS2_PLACEMENT_3D('',#1380,#1077,#1078);
#956=AXIS2_PLACEMENT_3D('',#1382,#1079,#1080);
#957=AXIS2_PLACEMENT_3D('',#1383,#1081,#1082);
#958=AXIS2_PLACEMENT_3D('',#1385,#1083,#1084);
#959=AXIS2_PLACEMENT_3D('',#1389,#1085,#1086);
#960=AXIS2_PLACEMENT_3D('',#1396,#1090,#1091);
#961=AXIS2_PLACEMENT_3D('',#1398,#1092,#1093);
#962=AXIS2_PLACEMENT_3D('',#1399,#1094,#1095);
#963=AXIS2_PLACEMENT_3D('',#1402,#1097,#1098);
#964=AXIS2_PLACEMENT_3D('',#1403,#1099,#1100);
#965=AXIS2_PLACEMENT_3D('',#1406,#1102,#1103);
#966=AXIS2_PLACEMENT_3D('',#1407,#1104,#1105);
#967=AXIS2_PLACEMENT_3D('',#1409,#1106,#1107);
#968=AXIS2_PLACEMENT_3D('',#1410,#1108,#1109);
#969=AXIS2_PLACEMENT_3D('',#1428,#1119,#1120);
#970=AXIS2_PLACEMENT_3D('',#1431,#1122,#1123);
#971=AXIS2_PLACEMENT_3D('',#1432,#1124,#1125);
#972=AXIS2_PLACEMENT_3D('',#1437,#1127,#1128);
#973=AXIS2_PLACEMENT_3D('',#1440,#1130,#1131);
#974=AXIS2_PLACEMENT_3D('',#1441,#1132,#1133);
#975=AXIS2_PLACEMENT_3D('',#1445,#1135,#1136);
#976=AXIS2_PLACEMENT_3D('',#1447,#1138,#1139);
#977=AXIS2_PLACEMENT_3D('',#1448,#1140,#1141);
#978=AXIS2_PLACEMENT_3D('',#1449,#1142,#1143);
#979=AXIS2_PLACEMENT_3D('',#1467,#1153,#1154);
#980=AXIS2_PLACEMENT_3D('',#1471,#1156,#1157);
#981=AXIS2_PLACEMENT_3D('',#1473,#1159,#1160);
#982=AXIS2_PLACEMENT_3D('',#1477,#1162,#1163);
#983=AXIS2_PLACEMENT_3D('',#1479,#1165,#1166);
#984=AXIS2_PLACEMENT_3D('',#1482,#1168,#1169);
#985=AXIS2_PLACEMENT_3D('',#1484,#1170,#1171);
#986=AXIS2_PLACEMENT_3D('',#1485,#1172,#1173);
#987=AXIS2_PLACEMENT_3D('',#1487,#1174,#1175);
#988=AXIS2_PLACEMENT_3D('',#1489,#1176,#1177);
#989=AXIS2_PLACEMENT_3D('',#1490,#1178,#1179);
#990=AXIS2_PLACEMENT_3D('',#1492,#1180,#1181);
#991=AXIS2_PLACEMENT_3D('',#1494,#1183,#1184);
#992=AXIS2_PLACEMENT_3D('',#1497,#1186,#1187);
#993=AXIS2_PLACEMENT_3D('',#1498,#1188,#1189);
#994=AXIS2_PLACEMENT_3D('',#1500,#1190,#1191);
#995=AXIS2_PLACEMENT_3D('',#1502,#1192,#1193);
#996=AXIS2_PLACEMENT_3D('',#1503,#1194,#1195);
#997=AXIS2_PLACEMENT_3D('',#1505,#1196,#1197);
#998=AXIS2_PLACEMENT_3D('',#1507,#1199,#1200);
#999=AXIS2_PLACEMENT_3D('',#1510,#1202,#1203);
#1000=AXIS2_PLACEMENT_3D('',#1511,#1204,#1205);
#1001=AXIS2_PLACEMENT_3D('',#1513,#1206,#1207);
#1002=AXIS2_PLACEMENT_3D('',#1516,#1209,#1210);
#1003=AXIS2_PLACEMENT_3D('',#1517,#1211,#1212);
#1004=AXIS2_PLACEMENT_3D('',#1519,#1213,#1214);
#1005=AXIS2_PLACEMENT_3D('',#1520,#1215,#1216);
#1006=AXIS2_PLACEMENT_3D('',#1522,#1217,#1218);
#1007=AXIS2_PLACEMENT_3D('',#1525,#1220,#1221);
#1008=AXIS2_PLACEMENT_3D('',#1526,#1222,#1223);
#1009=AXIS2_PLACEMENT_3D('',#1528,#1224,#1225);
#1010=AXIS2_PLACEMENT_3D('',#1529,#1226,#1227);
#1011=AXIS2_PLACEMENT_3D('',#1532,#1229,#1230);
#1012=AXIS2_PLACEMENT_3D('',#1533,#1231,#1232);
#1013=AXIS2_PLACEMENT_3D('',#1536,#1234,#1235);
#1014=AXIS2_PLACEMENT_3D('',#1537,#1236,#1237);
#1015=AXIS2_PLACEMENT_3D('',#1540,#1238,#1239);
#1016=AXIS2_PLACEMENT_3D('',#1541,#1240,#1241);
#1017=AXIS2_PLACEMENT_3D('',#1544,#1243,#1244);
#1018=AXIS2_PLACEMENT_3D('',#1545,#1245,#1246);
#1019=AXIS2_PLACEMENT_3D('',#1547,#1247,#1248);
#1020=AXIS2_PLACEMENT_3D('',#1548,#1249,#1250);
#1021=AXIS2_PLACEMENT_3D('',#1551,#1251,#1252);
#1022=AXIS2_PLACEMENT_3D('',#1552,#1253,#1254);
#1023=AXIS2_PLACEMENT_3D('',#1555,#1256,#1257);
#1024=AXIS2_PLACEMENT_3D('',#1556,#1258,#1259);
#1025=AXIS2_PLACEMENT_3D('',#1558,#1260,#1261);
#1026=AXIS2_PLACEMENT_3D('',#1559,#1262,#1263);
#1027=AXIS2_PLACEMENT_3D('',#1564,#1268,#1269);
#1028=AXIS2_PLACEMENT_3D('',#1566,#1271,#1272);
#1029=AXIS2_PLACEMENT_3D('',#1568,#1274,#1275);
#1030=AXIS2_PLACEMENT_3D('',#1571,#1278,#1279);
#1031=AXIS2_PLACEMENT_3D('',#1572,#1280,#1281);
#1032=AXIS2_PLACEMENT_3D('',#1574,#1283,#1284);
#1033=AXIS2_PLACEMENT_3D('',#1576,#1286,#1287);
#1034=AXIS2_PLACEMENT_3D('',#1578,#1289,#1290);
#1035=AXIS2_PLACEMENT_3D('',#1580,#1292,#1293);
#1036=AXIS2_PLACEMENT_3D('',#1581,#1294,#1295);
#1037=AXIS2_PLACEMENT_3D('',#1583,#1297,#1298);
#1038=AXIS2_PLACEMENT_3D('',#1586,#1300,#1301);
#1039=AXIS2_PLACEMENT_3D('',#1587,#1302,#1303);
#1040=AXIS2_PLACEMENT_3D('',#1590,#1305,#1306);
#1041=AXIS2_PLACEMENT_3D('',#1591,#1307,#1308);
#1042=AXIS2_PLACEMENT_3D('',#1593,#1309,#1310);
#1043=AXIS2_PLACEMENT_3D('',#1594,#1311,#1312);
#1044=AXIS2_PLACEMENT_3D('',#1596,#1313,#1314);
#1045=AXIS2_PLACEMENT_3D('',#1599,#1316,#1317);
#1046=AXIS2_PLACEMENT_3D('',#1600,#1318,#1319);
#1047=AXIS2_PLACEMENT_3D('',#1603,#1321,#1322);
#1048=AXIS2_PLACEMENT_3D('',#1604,#1323,#1324);
#1049=AXIS2_PLACEMENT_3D('',#1605,#1325,#1326);
#1050=DIRECTION('axis',(0.,0.,1.));
#1051=DIRECTION('refdir',(1.,0.,0.));
#1052=DIRECTION('center_axis',(-1.,1.77635683940025E-16,5.55111512312579E-16));
#1053=DIRECTION('ref_axis',(0.,-0.97114241097606,-0.238500351369983));
#1054=DIRECTION('center_axis',(-1.,1.77635683940025E-16,0.));
#1055=DIRECTION('ref_axis',(0.,-0.97114241097606,-0.238500351369983));
#1056=DIRECTION('',(-1.,1.77635683940025E-16,5.55111512312579E-16));
#1057=DIRECTION('',(1.,-1.77635683940025E-16,0.));
#1058=DIRECTION('center_axis',(5.55111512312579E-16,0.,1.));
#1059=DIRECTION('ref_axis',(1.,0.,-5.55111512312579E-16));
#1060=DIRECTION('',(1.77635683940025E-16,1.,-9.86076131526266E-32));
#1061=DIRECTION('',(1.,0.,-5.55111512312579E-16));
#1062=DIRECTION('',(0.,1.,0.));
#1063=DIRECTION('',(1.,0.,-5.55111512312579E-16));
#1064=DIRECTION('',(-1.77635683940025E-16,-1.,9.86076131526266E-32));
#1065=DIRECTION('center_axis',(1.,-1.77635683940025E-16,0.));
#1066=DIRECTION('ref_axis',(0.,0.,-1.));
#1067=DIRECTION('center_axis',(-1.,1.77635683940025E-16,0.));
#1068=DIRECTION('ref_axis',(-1.77635683940025E-16,-1.,0.));
#1069=DIRECTION('',(0.,0.,-1.));
#1070=DIRECTION('center_axis',(1.,0.,0.));
#1071=DIRECTION('ref_axis',(-1.03009167548904E-16,-0.84753162722988,0.530744892434276));
#1072=DIRECTION('center_axis',(-1.,1.77635683940025E-16,0.));
#1073=DIRECTION('ref_axis',(0.,-0.84753162722988,0.530744892434276));
#1074=DIRECTION('',(0.707106781186548,-0.308736763616661,0.636145903697815));
#1075=DIRECTION('center_axis',(1.,-1.77635683940025E-16,0.));
#1076=DIRECTION('ref_axis',(-1.50551860263782E-16,-0.84753162722988,0.530744892434276));
#1077=DIRECTION('center_axis',(-1.,0.,0.));
#1078=DIRECTION('ref_axis',(0.,0.,1.));
#1079=DIRECTION('center_axis',(1.,0.,0.));
#1080=DIRECTION('ref_axis',(0.,0.,1.));
#1081=DIRECTION('center_axis',(-1.,1.77635683940025E-16,0.));
#1082=DIRECTION('ref_axis',(0.,0.,1.));
#1083=DIRECTION('center_axis',(1.,-1.77635683940025E-16,0.));
#1084=DIRECTION('ref_axis',(0.,0.,1.));
#1085=DIRECTION('center_axis',(5.55111512312579E-16,0.,1.));
#1086=DIRECTION('ref_axis',(1.,0.,-5.55111512312579E-16));
#1087=DIRECTION('',(-1.,0.,5.55111512312579E-16));
#1088=DIRECTION('',(0.,-1.,0.));
#1089=DIRECTION('',(1.,0.,-5.55111512312579E-16));
#1090=DIRECTION('center_axis',(-5.55111512312579E-16,0.,-1.));
#1091=DIRECTION('ref_axis',(-1.,0.,5.55111512312579E-16));
#1092=DIRECTION('center_axis',(-5.55111512312579E-16,0.,-1.));
#1093=DIRECTION('ref_axis',(-1.,0.,5.55111512312579E-16));
#1094=DIRECTION('center_axis',(1.,0.,0.));
#1095=DIRECTION('ref_axis',(0.,0.,1.));
#1096=DIRECTION('',(1.,-1.77635683940025E-16,0.));
#1097=DIRECTION('center_axis',(1.,0.,0.));
#1098=DIRECTION('ref_axis',(0.,0.384615384615384,0.923076923076923));
#1099=DIRECTION('center_axis',(1.,0.,0.));
#1100=DIRECTION('ref_axis',(0.,-0.84753162722988,0.530744892434276));
#1101=DIRECTION('',(-1.,1.77635683940025E-16,0.));
#1102=DIRECTION('center_axis',(-1.,0.,0.));
#1103=DIRECTION('ref_axis',(0.,-0.84753162722988,0.530744892434276));
#1104=DIRECTION('center_axis',(1.,-1.77635683940025E-16,0.));
#1105=DIRECTION('ref_axis',(0.,0.,-1.));
#1106=DIRECTION('center_axis',(-1.,1.77635683940025E-16,0.));
#1107=DIRECTION('ref_axis',(0.,0.,1.));
#1108=DIRECTION('center_axis',(0.,1.,0.));
#1109=DIRECTION('ref_axis',(0.,0.,1.));
#1110=DIRECTION('',(0.707106781186547,0.,-0.707106781186548));
#1111=DIRECTION('',(-8.88178419700125E-16,0.,-1.));
#1112=DIRECTION('',(-1.,0.,4.99600361081322E-15));
#1113=DIRECTION('',(0.,0.,1.));
#1114=DIRECTION('',(-0.707106781186547,0.,0.707106781186548));
#1115=DIRECTION('',(-1.,0.,2.65488114584277E-16));
#1116=DIRECTION('',(0.,0.,-1.));
#1117=DIRECTION('',(-1.,0.,-4.44089209850064E-15));
#1118=DIRECTION('',(0.,0.,1.));
#1119=DIRECTION('center_axis',(1.,-1.77635683940025E-16,0.));
#1120=DIRECTION('ref_axis',(0.,0.,1.));
#1121=DIRECTION('',(-1.,1.77635683940025E-16,0.));
#1122=DIRECTION('center_axis',(-1.,1.77635683940025E-16,0.));
#1123=DIRECTION('ref_axis',(0.,0.,1.));
#1124=DIRECTION('center_axis',(1.,-1.77635683940025E-16,0.));
#1125=DIRECTION('ref_axis',(0.,0.,-1.));
#1126=DIRECTION('',(1.77635683940025E-16,1.,0.));
#1127=DIRECTION('center_axis',(-1.,1.77635683940025E-16,0.));
#1128=DIRECTION('ref_axis',(0.,-0.447213595499958,0.894427190999916));
#1129=DIRECTION('',(-1.77635683940025E-16,-1.,0.));
#1130=DIRECTION('center_axis',(-1.,1.77635683940025E-16,0.));
#1131=DIRECTION('ref_axis',(0.,0.447213595499958,-0.894427190999916));
#1132=DIRECTION('center_axis',(-1.,0.,0.));
#1133=DIRECTION('ref_axis',(0.,0.847531627229881,0.530744892434276));
#1134=DIRECTION('',(1.,-1.77635683940025E-16,0.));
#1135=DIRECTION('center_axis',(-1.,0.,0.));
#1136=DIRECTION('ref_axis',(0.,0.847531627229881,0.530744892434276));
#1137=DIRECTION('',(-1.,1.77635683940025E-16,0.));
#1138=DIRECTION('center_axis',(1.,0.,0.));
#1139=DIRECTION('ref_axis',(0.,0.,1.));
#1140=DIRECTION('center_axis',(1.,0.,0.));
#1141=DIRECTION('ref_axis',(0.,-0.384615384615385,-0.923076923076923));
#1142=DIRECTION('center_axis',(0.,1.,0.));
#1143=DIRECTION('ref_axis',(0.,0.,1.));
#1144=DIRECTION('',(0.,0.,1.));
#1145=DIRECTION('',(-1.,0.,-4.44089209850064E-15));
#1146=DIRECTION('',(0.,0.,-1.));
#1147=DIRECTION('',(-1.,0.,2.65488114584277E-16));
#1148=DIRECTION('',(-0.707106781186547,0.,0.707106781186548));
#1149=DIRECTION('',(0.,0.,1.));
#1150=DIRECTION('',(-1.,0.,4.99600361081322E-15));
#1151=DIRECTION('',(-8.88178419700125E-16,0.,-1.));
#1152=DIRECTION('',(0.707106781186547,0.,-0.707106781186548));
#1153=DIRECTION('center_axis',(1.,0.,0.));
#1154=DIRECTION('ref_axis',(0.,0.,-1.));
#1155=DIRECTION('',(-1.,0.,0.));
#1156=DIRECTION('center_axis',(-1.,0.,0.));
#1157=DIRECTION('ref_axis',(0.,-0.447213595499958,-0.894427190999916));
#1158=DIRECTION('',(-1.,0.,5.55111512312579E-16));
#1159=DIRECTION('center_axis',(1.,0.,0.));
#1160=DIRECTION('ref_axis',(0.,0.,-1.));
#1161=DIRECTION('',(1.,0.,-5.55111512312579E-16));
#1162=DIRECTION('center_axis',(-1.,0.,0.));
#1163=DIRECTION('ref_axis',(0.,0.447213595499958,0.894427190999916));
#1164=DIRECTION('',(-1.,0.,0.));
#1165=DIRECTION('center_axis',(5.55111512312579E-16,0.,1.));
#1166=DIRECTION('ref_axis',(1.,0.,-5.55111512312579E-16));
#1167=DIRECTION('',(0.,-1.,0.));
#1168=DIRECTION('center_axis',(-5.55111512312579E-16,0.,-1.));
#1169=DIRECTION('ref_axis',(-1.,0.,5.55111512312579E-16));
#1170=DIRECTION('center_axis',(-5.55111512312579E-16,0.,-1.));
#1171=DIRECTION('ref_axis',(-1.,0.,5.55111512312579E-16));
#1172=DIRECTION('center_axis',(1.,0.,-8.88178419700125E-16));
#1173=DIRECTION('ref_axis',(-8.88178419700125E-16,0.,-1.));
#1174=DIRECTION('center_axis',(-1.,0.,8.88178419700125E-16));
#1175=DIRECTION('ref_axis',(-8.88178419700125E-16,0.,-1.));
#1176=DIRECTION('center_axis',(-1.,0.,8.88178419700125E-16));
#1177=DIRECTION('ref_axis',(-9.43689570931383E-16,0.,-1.));
#1178=DIRECTION('center_axis',(-1.,0.,6.66133814775095E-16));
#1179=DIRECTION('ref_axis',(-6.66133814775095E-16,0.,-1.));
#1180=DIRECTION('center_axis',(1.,0.,0.));
#1181=DIRECTION('ref_axis',(-6.66133814775095E-16,0.,-1.));
#1182=DIRECTION('',(1.,0.,-6.66133814775095E-16));
#1183=DIRECTION('center_axis',(-1.,0.,9.43689570931383E-16));
#1184=DIRECTION('ref_axis',(-9.43689570931383E-16,0.,-1.));
#1185=DIRECTION('',(1.,0.,-9.43689570931383E-16));
#1186=DIRECTION('center_axis',(-1.,0.,0.));
#1187=DIRECTION('ref_axis',(-9.43689570931383E-16,0.,-1.));
#1188=DIRECTION('center_axis',(1.,0.,-8.88178419700125E-16));
#1189=DIRECTION('ref_axis',(-8.88178419700125E-16,0.,-1.));
#1190=DIRECTION('center_axis',(-1.,0.,8.88178419700125E-16));
#1191=DIRECTION('ref_axis',(-8.88178419700125E-16,0.,-1.));
#1192=DIRECTION('center_axis',(-1.,0.,8.88178419700125E-16));
#1193=DIRECTION('ref_axis',(-9.43689570931383E-16,0.,-1.));
#1194=DIRECTION('center_axis',(-1.,0.,6.66133814775095E-16));
#1195=DIRECTION('ref_axis',(-6.66133814775095E-16,0.,-1.));
#1196=DIRECTION('center_axis',(1.,0.,0.));
#1197=DIRECTION('ref_axis',(-6.66133814775095E-16,0.,-1.));
#1198=DIRECTION('',(1.,0.,-6.66133814775095E-16));
#1199=DIRECTION('center_axis',(-1.,0.,9.43689570931383E-16));
#1200=DIRECTION('ref_axis',(-9.43689570931383E-16,0.,-1.));
#1201=DIRECTION('',(1.,0.,-9.43689570931383E-16));
#1202=DIRECTION('center_axis',(-1.,0.,0.));
#1203=DIRECTION('ref_axis',(-9.43689570931383E-16,0.,-1.));
#1204=DIRECTION('center_axis',(-1.,0.,1.11022302462516E-15));
#1205=DIRECTION('ref_axis',(-1.11022302462516E-15,0.,-1.));
#1206=DIRECTION('center_axis',(-1.,0.,8.88178419700125E-16));
#1207=DIRECTION('ref_axis',(-1.11022302462516E-15,0.,-1.));
#1208=DIRECTION('',(-1.,0.,1.11022302462516E-15));
#1209=DIRECTION('center_axis',(-1.,0.,8.88178419700125E-16));
#1210=DIRECTION('ref_axis',(-8.88178419700125E-16,0.,-1.));
#1211=DIRECTION('center_axis',(1.,0.,-8.88178419700125E-16));
#1212=DIRECTION('ref_axis',(-8.88178419700125E-16,0.,-1.));
#1213=DIRECTION('center_axis',(1.,0.,-8.88178419700125E-16));
#1214=DIRECTION('ref_axis',(-8.32667268468868E-16,0.,-1.));
#1215=DIRECTION('center_axis',(-1.,0.,1.11022302462516E-15));
#1216=DIRECTION('ref_axis',(-1.11022302462516E-15,0.,-1.));
#1217=DIRECTION('center_axis',(-1.,0.,8.88178419700125E-16));
#1218=DIRECTION('ref_axis',(-1.11022302462516E-15,0.,-1.));
#1219=DIRECTION('',(-1.,0.,1.11022302462516E-15));
#1220=DIRECTION('center_axis',(-1.,0.,8.88178419700125E-16));
#1221=DIRECTION('ref_axis',(-8.88178419700125E-16,0.,-1.));
#1222=DIRECTION('center_axis',(1.,0.,-8.88178419700125E-16));
#1223=DIRECTION('ref_axis',(-8.88178419700125E-16,0.,-1.));
#1224=DIRECTION('center_axis',(1.,0.,-8.88178419700125E-16));
#1225=DIRECTION('ref_axis',(-8.32667268468868E-16,0.,-1.));
#1226=DIRECTION('center_axis',(-1.,0.,8.32667268468868E-16));
#1227=DIRECTION('ref_axis',(-8.32667268468868E-16,0.,-1.));
#1228=DIRECTION('',(-1.,0.,8.32667268468868E-16));
#1229=DIRECTION('center_axis',(1.,0.,0.));
#1230=DIRECTION('ref_axis',(-8.32667268468868E-16,0.,-1.));
#1231=DIRECTION('center_axis',(-1.,0.,8.32667268468868E-16));
#1232=DIRECTION('ref_axis',(-8.32667268468868E-16,0.,-1.));
#1233=DIRECTION('',(-1.,0.,8.32667268468868E-16));
#1234=DIRECTION('center_axis',(1.,0.,0.));
#1235=DIRECTION('ref_axis',(-8.32667268468868E-16,0.,-1.));
#1236=DIRECTION('center_axis',(0.,0.,1.));
#1237=DIRECTION('ref_axis',(-1.,0.,0.));
#1238=DIRECTION('center_axis',(2.65488114584277E-16,0.,1.));
#1239=DIRECTION('ref_axis',(-1.,0.,0.));
#1240=DIRECTION('center_axis',(2.65488114584277E-16,0.,1.));
#1241=DIRECTION('ref_axis',(-1.,0.,0.));
#1242=DIRECTION('',(0.,0.,1.));
#1243=DIRECTION('center_axis',(2.65488114584277E-16,0.,1.));
#1244=DIRECTION('ref_axis',(-1.,0.,2.65488114584277E-16));
#1245=DIRECTION('center_axis',(-2.65488114584277E-16,0.,-1.));
#1246=DIRECTION('ref_axis',(-1.,0.,2.65488114584277E-16));
#1247=DIRECTION('center_axis',(-2.65488114584277E-16,0.,-1.));
#1248=DIRECTION('ref_axis',(-1.,0.,0.));
#1249=DIRECTION('center_axis',(0.,0.,1.));
#1250=DIRECTION('ref_axis',(-1.,0.,0.));
#1251=DIRECTION('center_axis',(2.65488114584277E-16,0.,1.));
#1252=DIRECTION('ref_axis',(-1.,0.,0.));
#1253=DIRECTION('center_axis',(2.65488114584277E-16,0.,1.));
#1254=DIRECTION('ref_axis',(-1.,0.,0.));
#1255=DIRECTION('',(0.,0.,1.));
#1256=DIRECTION('center_axis',(2.65488114584277E-16,0.,1.));
#1257=DIRECTION('ref_axis',(-1.,0.,2.65488114584277E-16));
#1258=DIRECTION('center_axis',(-2.65488114584277E-16,0.,-1.));
#1259=DIRECTION('ref_axis',(-1.,0.,2.65488114584277E-16));
#1260=DIRECTION('center_axis',(-2.65488114584277E-16,0.,-1.));
#1261=DIRECTION('ref_axis',(-1.,0.,0.));
#1262=DIRECTION('center_axis',(-2.65488114584277E-16,0.,-1.));
#1263=DIRECTION('ref_axis',(-1.,0.,2.65488114584277E-16));
#1264=DIRECTION('',(0.,1.,0.));
#1265=DIRECTION('',(0.,1.,0.));
#1266=DIRECTION('',(0.,1.,0.));
#1267=DIRECTION('',(0.,1.,0.));
#1268=DIRECTION('center_axis',(0.,0.,1.));
#1269=DIRECTION('ref_axis',(-1.,0.,0.));
#1270=DIRECTION('',(0.,0.,1.));
#1271=DIRECTION('center_axis',(0.,0.,1.));
#1272=DIRECTION('ref_axis',(-1.,0.,0.));
#1273=DIRECTION('',(0.,0.,1.));
#1274=DIRECTION('center_axis',(4.44089209850064E-15,0.,-1.));
#1275=DIRECTION('ref_axis',(-1.,0.,-4.44089209850064E-15));
#1276=DIRECTION('',(0.,1.,0.));
#1277=DIRECTION('',(0.,1.,0.));
#1278=DIRECTION('center_axis',(1.,0.,0.));
#1279=DIRECTION('ref_axis',(0.,0.,-1.));
#1280=DIRECTION('center_axis',(-0.707106781186548,0.,-0.707106781186547));
#1281=DIRECTION('ref_axis',(-0.707106781186547,0.,0.707106781186548));
#1282=DIRECTION('',(0.,1.,0.));
#1283=DIRECTION('center_axis',(-1.,0.,0.));
#1284=DIRECTION('ref_axis',(0.,0.,1.));
#1285=DIRECTION('',(0.,1.,0.));
#1286=DIRECTION('center_axis',(-4.99600361081322E-15,0.,-1.));
#1287=DIRECTION('ref_axis',(-1.,0.,4.99600361081322E-15));
#1288=DIRECTION('',(0.,1.,0.));
#1289=DIRECTION('center_axis',(1.,0.,-8.88178419700125E-16));
#1290=DIRECTION('ref_axis',(-8.88178419700125E-16,0.,-1.));
#1291=DIRECTION('',(0.,1.,0.));
#1292=DIRECTION('center_axis',(0.707106781186548,0.,0.707106781186547));
#1293=DIRECTION('ref_axis',(0.707106781186547,0.,-0.707106781186548));
#1294=DIRECTION('center_axis',(-1.,0.,0.));
#1295=DIRECTION('ref_axis',(0.,0.,1.));
#1296=DIRECTION('',(0.,1.,0.));
#1297=DIRECTION('center_axis',(0.,0.,1.));
#1298=DIRECTION('ref_axis',(-1.,0.,0.));
#1299=DIRECTION('',(0.,0.,-1.));
#1300=DIRECTION('center_axis',(5.55111512312579E-16,0.,1.));
#1301=DIRECTION('ref_axis',(-1.,0.,0.));
#1302=DIRECTION('center_axis',(0.,0.,1.));
#1303=DIRECTION('ref_axis',(-1.,0.,0.));
#1304=DIRECTION('',(0.,0.,-1.));
#1305=DIRECTION('center_axis',(5.55111512312579E-16,0.,1.));
#1306=DIRECTION('ref_axis',(-1.,0.,0.));
#1307=DIRECTION('center_axis',(5.55111512312579E-16,0.,1.));
#1308=DIRECTION('ref_axis',(1.,0.,-5.55111512312579E-16));
#1309=DIRECTION('center_axis',(-5.55111512312579E-16,0.,-1.));
#1310=DIRECTION('ref_axis',(-1.,0.,5.55111512312579E-16));
#1311=DIRECTION('center_axis',(0.,0.,1.));
#1312=DIRECTION('ref_axis',(-1.,0.,0.));
#1313=DIRECTION('center_axis',(-5.55111512312579E-16,0.,-1.));
#1314=DIRECTION('ref_axis',(-1.,0.,5.55111512312579E-16));
#1315=DIRECTION('',(0.,0.,-1.));
#1316=DIRECTION('center_axis',(-5.55111512312579E-16,0.,-1.));
#1317=DIRECTION('ref_axis',(-1.,0.,5.55111512312579E-16));
#1318=DIRECTION('center_axis',(0.,0.,1.));
#1319=DIRECTION('ref_axis',(-1.,0.,0.));
#1320=DIRECTION('',(0.,0.,-1.));
#1321=DIRECTION('center_axis',(-5.55111512312579E-16,0.,-1.));
#1322=DIRECTION('ref_axis',(-1.,0.,5.55111512312579E-16));
#1323=DIRECTION('center_axis',(5.55111512312579E-16,0.,1.));
#1324=DIRECTION('ref_axis',(1.,0.,-5.55111512312579E-16));
#1325=DIRECTION('center_axis',(5.55111512312579E-16,0.,1.));
#1326=DIRECTION('ref_axis',(1.,0.,-5.55111512312579E-16));
#1327=CARTESIAN_POINT('',(0.,0.,0.));
#1328=CARTESIAN_POINT('Origin',(-13.,-0.718998434094361,11.));
#1329=CARTESIAN_POINT('',(-11.5,-1.69014084507042,10.76149964863));
#1330=CARTESIAN_POINT('',(-11.5,-0.718998434094361,12.));
#1331=CARTESIAN_POINT('Origin',(-11.5,-0.718998434094361,11.));
#1332=CARTESIAN_POINT('',(-13.4635579286456,-0.718998434094362,12.));
#1333=CARTESIAN_POINT('',(-13.,-0.718998434094361,12.));
#1334=CARTESIAN_POINT('',(-15.,-1.69014084507042,10.76149964863));
#1335=CARTESIAN_POINT('Ctrl Pts',(-15.,-1.69014084507042,10.76149964863));
#1336=CARTESIAN_POINT('Ctrl Pts',(-14.9185742886128,-1.71537643198371,10.8642556763532));
#1337=CARTESIAN_POINT('Ctrl Pts',(-14.8272128038792,-1.72377716129587,10.9701132494394));
#1338=CARTESIAN_POINT('Ctrl Pts',(-14.6073014069318,-1.70665197628276,11.2067298861364));
#1339=CARTESIAN_POINT('Ctrl Pts',(-14.4759963568312,-1.66907195906255,11.3346595549436));
#1340=CARTESIAN_POINT('Ctrl Pts',(-14.2290415065228,-1.55964234174552,11.5560457716434));
#1341=CARTESIAN_POINT('Ctrl Pts',(-14.0924418086728,-1.47681500396932,11.6674376007791));
#1342=CARTESIAN_POINT('Ctrl Pts',(-13.8340732013608,-1.26344504243181,11.8504921125713));
#1343=CARTESIAN_POINT('Ctrl Pts',(-13.7122680165609,-1.13306504216946,11.9222930864902));
#1344=CARTESIAN_POINT('Ctrl Pts',(-13.5585121050841,-0.909360276460275,
11.9852863242857));
#1345=CARTESIAN_POINT('Ctrl Pts',(-13.5051622539755,-0.81645044181321,12.));
#1346=CARTESIAN_POINT('Ctrl Pts',(-13.4635579286456,-0.718998434094362,
12.));
#1347=CARTESIAN_POINT('',(-13.,-1.69014084507042,10.76149964863));
#1348=CARTESIAN_POINT('Origin',(-29.,0.,12.));
#1349=CARTESIAN_POINT('',(-11.5,-9.76996261670144E-16,12.));
#1350=CARTESIAN_POINT('',(-11.5,6.25,12.));
#1351=CARTESIAN_POINT('',(17.,0.,12.));
#1352=CARTESIAN_POINT('',(-29.,0.,12.));
#1353=CARTESIAN_POINT('',(17.,25.,12.));
#1354=CARTESIAN_POINT('',(17.,0.,12.));
#1355=CARTESIAN_POINT('',(-13.049906600799,25.,12.));
#1356=CARTESIAN_POINT('',(-29.,25.,12.));
#1357=CARTESIAN_POINT('',(-11.5,22.8282908686598,12.));
#1358=CARTESIAN_POINT('Ctrl Pts',(-13.0499066007992,25.0000000000003,12.));
#1359=CARTESIAN_POINT('Ctrl Pts',(-12.480904482951,24.0611287907696,12.));
#1360=CARTESIAN_POINT('Ctrl Pts',(-11.5000000000985,22.8282908687837,12.));
#1361=CARTESIAN_POINT('',(-11.5,4.95016556472932,12.));
#1362=CARTESIAN_POINT('',(-11.5,6.25,12.));
#1363=CARTESIAN_POINT('Ctrl Pts',(-11.5,4.95016556472933,12.));
#1364=CARTESIAN_POINT('Ctrl Pts',(-12.2137876913249,2.20840437434893,12.));
#1365=CARTESIAN_POINT('Ctrl Pts',(-13.4635579286456,-0.718998434094378,
12.));
#1366=CARTESIAN_POINT('Origin',(-11.5,12.5,39.0312805773287));
#1367=CARTESIAN_POINT('',(-11.5,-9.76996261670138E-16,8.06256115465739));
#1368=CARTESIAN_POINT('Origin',(-11.5,-3.,8.06256115465739));
#1369=CARTESIAN_POINT('',(-11.5,0.,20.0156402886644));
#1370=CARTESIAN_POINT('Origin',(-13.25,28.,8.06256115465739));
#1371=CARTESIAN_POINT('',(-15.,25.,8.06256115465739));
#1372=CARTESIAN_POINT('Ctrl Pts',(-15.,25.,8.06256115465742));
#1373=CARTESIAN_POINT('Ctrl Pts',(-15.,25.,9.54836967825676));
#1374=CARTESIAN_POINT('Ctrl Pts',(-13.0499066008358,25.,11.9999999999537));
#1375=CARTESIAN_POINT('',(-15.,26.6901408450704,10.76149964863));
#1376=CARTESIAN_POINT('Origin',(-15.,28.,8.06256115465739));
#1377=CARTESIAN_POINT('',(-11.5,25.1619718309859,13.9102612249314));
#1378=CARTESIAN_POINT('',(-15.,26.6901408450704,10.76149964863));
#1379=CARTESIAN_POINT('Origin',(-11.5,28.,8.06256115465739));
#1380=CARTESIAN_POINT('Origin',(-13.25,12.5,40.));
#1381=CARTESIAN_POINT('',(-15.,-2.35922392732846E-15,70.));
#1382=CARTESIAN_POINT('Origin',(-15.,12.5,40.));
#1383=CARTESIAN_POINT('Origin',(-11.5,12.5,40.));
#1384=CARTESIAN_POINT('',(-15.,25.,70.));
#1385=CARTESIAN_POINT('Origin',(-15.,12.5,40.));
#1386=CARTESIAN_POINT('Ctrl Pts',(-15.,25.,70.));
#1387=CARTESIAN_POINT('Ctrl Pts',(-10.1923076923077,12.5,70.));
#1388=CARTESIAN_POINT('Ctrl Pts',(-15.,-2.35922392732846E-15,70.));
#1389=CARTESIAN_POINT('Origin',(-22.,12.5,70.));
#1390=CARTESIAN_POINT('',(-29.,25.,70.));
#1391=CARTESIAN_POINT('',(-17.,25.,70.));
#1392=CARTESIAN_POINT('',(-29.,0.,70.));
#1393=CARTESIAN_POINT('',(-29.,6.25,70.));
#1394=CARTESIAN_POINT('',(-27.,0.,70.));
#1395=CARTESIAN_POINT('',(-19.,19.,70.));
#1396=CARTESIAN_POINT('Origin',(-22.,19.,70.));
#1397=CARTESIAN_POINT('',(-19.,6.,70.));
#1398=CARTESIAN_POINT('Origin',(-22.,6.,70.));
#1399=CARTESIAN_POINT('Origin',(-27.,12.5,40.));
#1400=CARTESIAN_POINT('',(-29.,26.6901408450704,10.76149964863));
#1401=CARTESIAN_POINT('',(-13.,26.6901408450704,10.76149964863));
#1402=CARTESIAN_POINT('Origin',(-29.,12.5,40.));
#1403=CARTESIAN_POINT('Origin',(-27.,28.,8.06256115465739));
#1404=CARTESIAN_POINT('',(-29.,25.,8.06256115465739));
#1405=CARTESIAN_POINT('',(-13.,25.,8.06256115465739));
#1406=CARTESIAN_POINT('Origin',(-29.,28.,8.06256115465739));
#1407=CARTESIAN_POINT('Origin',(-11.5,12.5,39.0312805773287));
#1408=CARTESIAN_POINT('',(-11.5,12.4999999999999,16.4999999999996));
#1409=CARTESIAN_POINT('Origin',(-11.5,12.4999999999999,39.9999999999997));
#1410=CARTESIAN_POINT('Origin',(0.,25.,1.));
#1411=CARTESIAN_POINT('',(29.,25.,-3.33066907387547E-15));
#1412=CARTESIAN_POINT('',(17.,25.,12.));
#1413=CARTESIAN_POINT('',(29.,25.,-10.));
#1414=CARTESIAN_POINT('',(29.,25.,-3.55147571752733E-15));
#1415=CARTESIAN_POINT('',(25.,25.,-9.99999999999998));
#1416=CARTESIAN_POINT('',(29.,25.,-10.));
#1417=CARTESIAN_POINT('',(25.,25.,-2.22044604925031E-15));
#1418=CARTESIAN_POINT('',(25.,25.,-9.99999999999998));
#1419=CARTESIAN_POINT('',(17.,25.,8.));
#1420=CARTESIAN_POINT('',(25.,25.,-2.22044604925031E-15));
#1421=CARTESIAN_POINT('',(-25.,25.,8.00000000000001));
#1422=CARTESIAN_POINT('',(17.,25.,7.99999999999999));
#1423=CARTESIAN_POINT('',(-25.,25.,-9.99999999999997));
#1424=CARTESIAN_POINT('',(-25.,25.,12.));
#1425=CARTESIAN_POINT('',(-29.,25.,-9.99999999999998));
#1426=CARTESIAN_POINT('',(-25.,25.,-9.99999999999997));
#1427=CARTESIAN_POINT('',(-29.,25.,-9.99999999999998));
#1428=CARTESIAN_POINT('Origin',(-13.,12.4999999999999,39.9999999999997));
#1429=CARTESIAN_POINT('',(-13.,12.4999999999999,16.4999999999996));
#1430=CARTESIAN_POINT('',(-13.,12.4999999999999,16.4999999999996));
#1431=CARTESIAN_POINT('Origin',(-13.,12.4999999999999,39.9999999999997));
#1432=CARTESIAN_POINT('Origin',(-13.,12.5,39.0312805773287));
#1433=CARTESIAN_POINT('',(-13.,-7.105427357601E-16,65.));
#1434=CARTESIAN_POINT('',(-13.,25.,65.));
#1435=CARTESIAN_POINT('',(-13.,18.75,65.));
#1436=CARTESIAN_POINT('',(-13.,25.,15.));
#1437=CARTESIAN_POINT('Origin',(-13.,12.5,40.));
#1438=CARTESIAN_POINT('',(-13.,-7.10542735760106E-16,15.));
#1439=CARTESIAN_POINT('',(-13.,6.25,15.));
#1440=CARTESIAN_POINT('Origin',(-13.,12.5,40.));
#1441=CARTESIAN_POINT('Origin',(-27.,-3.,8.06256115465739));
#1442=CARTESIAN_POINT('',(-29.,-1.69014084507042,10.76149964863));
#1443=CARTESIAN_POINT('',(-13.,-1.69014084507042,10.76149964863));
#1444=CARTESIAN_POINT('',(-29.,0.,8.06256115465739));
#1445=CARTESIAN_POINT('Origin',(-29.,-3.,8.06256115465739));
#1446=CARTESIAN_POINT('',(-13.,0.,8.06256115465739));
#1447=CARTESIAN_POINT('Origin',(-27.,12.5,40.));
#1448=CARTESIAN_POINT('Origin',(-29.,12.5,40.));
#1449=CARTESIAN_POINT('Origin',(0.,0.,1.));
#1450=CARTESIAN_POINT('',(-29.,0.,-9.99999999999998));
#1451=CARTESIAN_POINT('',(-29.,0.,-9.99999999999998));
#1452=CARTESIAN_POINT('',(-25.,0.,-9.99999999999997));
#1453=CARTESIAN_POINT('',(-25.,0.,-9.99999999999997));
#1454=CARTESIAN_POINT('',(-25.,0.,8.00000000000001));
#1455=CARTESIAN_POINT('',(-25.,0.,12.));
#1456=CARTESIAN_POINT('',(17.,0.,7.99999999999999));
#1457=CARTESIAN_POINT('',(17.,0.,7.99999999999999));
#1458=CARTESIAN_POINT('',(25.,0.,-2.22044604925031E-15));
#1459=CARTESIAN_POINT('',(25.,0.,-2.22044604925031E-15));
#1460=CARTESIAN_POINT('',(25.,0.,-9.99999999999998));
#1461=CARTESIAN_POINT('',(25.,0.,-9.99999999999998));
#1462=CARTESIAN_POINT('',(29.,0.,-10.));
#1463=CARTESIAN_POINT('',(29.,0.,-10.));
#1464=CARTESIAN_POINT('',(29.,0.,-3.55147571752733E-15));
#1465=CARTESIAN_POINT('',(29.,0.,-3.55147571752733E-15));
#1466=CARTESIAN_POINT('',(17.,0.,12.));
#1467=CARTESIAN_POINT('Origin',(-27.,12.5,40.));
#1468=CARTESIAN_POINT('',(-29.,25.,65.));
#1469=CARTESIAN_POINT('',(-13.,25.,65.));
#1470=CARTESIAN_POINT('',(-29.,25.,15.));
#1471=CARTESIAN_POINT('Origin',(-29.,12.5,40.));
#1472=CARTESIAN_POINT('',(17.,25.,15.));
#1473=CARTESIAN_POINT('Origin',(-27.,12.5,40.));
#1474=CARTESIAN_POINT('',(-29.,0.,15.));
#1475=CARTESIAN_POINT('',(-29.,0.,15.));
#1476=CARTESIAN_POINT('',(-29.,0.,65.));
#1477=CARTESIAN_POINT('Origin',(-29.,12.5,40.));
#1478=CARTESIAN_POINT('',(-27.,0.,65.));
#1479=CARTESIAN_POINT('Origin',(-22.,12.5,15.));
#1480=CARTESIAN_POINT('',(-29.,6.25,15.));
#1481=CARTESIAN_POINT('',(-20.4,6.,15.));
#1482=CARTESIAN_POINT('Origin',(-22.,6.,15.));
#1483=CARTESIAN_POINT('',(-20.4,19.,15.));
#1484=CARTESIAN_POINT('Origin',(-22.,19.,15.));
#1485=CARTESIAN_POINT('Origin',(-27.,19.,-4.99999999999995));
#1486=CARTESIAN_POINT('',(-27.,19.,-1.49999999999995));
#1487=CARTESIAN_POINT('Origin',(-27.,19.,-4.99999999999995));
#1488=CARTESIAN_POINT('',(-27.,19.,-3.24999999999995));
#1489=CARTESIAN_POINT('Origin',(-27.,19.,-4.99999999999995));
#1490=CARTESIAN_POINT('Origin',(-29.,19.,-4.99999999999995));
#1491=CARTESIAN_POINT('',(-29.,19.,-1.49999999999995));
#1492=CARTESIAN_POINT('Origin',(-29.,19.,-4.99999999999995));
#1493=CARTESIAN_POINT('',(-29.,19.,-1.49999999999995));
#1494=CARTESIAN_POINT('Origin',(-29.,19.,-4.99999999999995));
#1495=CARTESIAN_POINT('',(-25.,19.,-3.24999999999995));
#1496=CARTESIAN_POINT('',(-29.,19.,-3.24999999999995));
#1497=CARTESIAN_POINT('Origin',(-25.,19.,-4.99999999999995));
#1498=CARTESIAN_POINT('Origin',(-27.,6.,-4.99999999999995));
#1499=CARTESIAN_POINT('',(-27.,6.,-1.49999999999995));
#1500=CARTESIAN_POINT('Origin',(-27.,6.,-4.99999999999995));
#1501=CARTESIAN_POINT('',(-27.,6.,-3.24999999999995));
#1502=CARTESIAN_POINT('Origin',(-27.,6.,-4.99999999999995));
#1503=CARTESIAN_POINT('Origin',(-29.,6.,-4.99999999999995));
#1504=CARTESIAN_POINT('',(-29.,6.,-1.49999999999995));
#1505=CARTESIAN_POINT('Origin',(-29.,6.,-4.99999999999995));
#1506=CARTESIAN_POINT('',(-29.,6.,-1.49999999999995));
#1507=CARTESIAN_POINT('Origin',(-29.,6.,-4.99999999999995));
#1508=CARTESIAN_POINT('',(-25.,6.,-3.24999999999995));
#1509=CARTESIAN_POINT('',(-29.,6.,-3.24999999999995));
#1510=CARTESIAN_POINT('Origin',(-25.,6.,-4.99999999999995));
#1511=CARTESIAN_POINT('Origin',(29.,19.,-5.));
#1512=CARTESIAN_POINT('',(29.,19.,-1.5));
#1513=CARTESIAN_POINT('Origin',(29.,19.,-5.));
#1514=CARTESIAN_POINT('',(27.,19.,-1.5));
#1515=CARTESIAN_POINT('',(29.,19.,-1.5));
#1516=CARTESIAN_POINT('Origin',(27.,19.,-5.));
#1517=CARTESIAN_POINT('Origin',(27.,19.,-5.));
#1518=CARTESIAN_POINT('',(27.,19.,-3.25));
#1519=CARTESIAN_POINT('Origin',(27.,19.,-5.));
#1520=CARTESIAN_POINT('Origin',(29.,6.,-5.));
#1521=CARTESIAN_POINT('',(29.,6.,-1.5));
#1522=CARTESIAN_POINT('Origin',(29.,6.,-5.));
#1523=CARTESIAN_POINT('',(27.,6.,-1.5));
#1524=CARTESIAN_POINT('',(29.,6.,-1.5));
#1525=CARTESIAN_POINT('Origin',(27.,6.,-5.));
#1526=CARTESIAN_POINT('Origin',(27.,6.,-5.));
#1527=CARTESIAN_POINT('',(27.,6.,-3.25));
#1528=CARTESIAN_POINT('Origin',(27.,6.,-5.));
#1529=CARTESIAN_POINT('Origin',(29.,6.,-5.));
#1530=CARTESIAN_POINT('',(25.,6.,-3.25));
#1531=CARTESIAN_POINT('',(29.,6.,-3.25));
#1532=CARTESIAN_POINT('Origin',(25.,6.,-5.));
#1533=CARTESIAN_POINT('Origin',(29.,19.,-5.));
#1534=CARTESIAN_POINT('',(25.,19.,-3.25));
#1535=CARTESIAN_POINT('',(29.,19.,-3.25));
#1536=CARTESIAN_POINT('Origin',(25.,19.,-5.));
#1537=CARTESIAN_POINT('Origin',(-22.,6.,8.00000000000001));
#1538=CARTESIAN_POINT('',(-25.,6.,8.00000000000001));
#1539=CARTESIAN_POINT('',(-19.,6.,7.99999999999999));
#1540=CARTESIAN_POINT('Origin',(-22.,6.,7.99999999999999));
#1541=CARTESIAN_POINT('Origin',(-22.,6.,7.99999999999999));
#1542=CARTESIAN_POINT('',(-19.,6.,10.));
#1543=CARTESIAN_POINT('',(-19.,6.,8.00000000000001));
#1544=CARTESIAN_POINT('Origin',(-22.,6.,10.));
#1545=CARTESIAN_POINT('Origin',(-22.,6.,10.));
#1546=CARTESIAN_POINT('',(-20.4,6.,10.));
#1547=CARTESIAN_POINT('Origin',(-22.,6.,10.));
#1548=CARTESIAN_POINT('Origin',(-22.,19.,8.00000000000001));
#1549=CARTESIAN_POINT('',(-25.,19.,8.00000000000001));
#1550=CARTESIAN_POINT('',(-19.,19.,7.99999999999999));
#1551=CARTESIAN_POINT('Origin',(-22.,19.,7.99999999999999));
#1552=CARTESIAN_POINT('Origin',(-22.,19.,7.99999999999999));
#1553=CARTESIAN_POINT('',(-19.,19.,10.));
#1554=CARTESIAN_POINT('',(-19.,19.,8.00000000000001));
#1555=CARTESIAN_POINT('Origin',(-22.,19.,10.));
#1556=CARTESIAN_POINT('Origin',(-22.,19.,10.));
#1557=CARTESIAN_POINT('',(-20.4,19.,10.));
#1558=CARTESIAN_POINT('Origin',(-22.,19.,10.));
#1559=CARTESIAN_POINT('Origin',(17.,0.,7.99999999999999));
#1560=CARTESIAN_POINT('',(-25.,0.,8.00000000000001));
#1561=CARTESIAN_POINT('',(-25.,0.,8.00000000000001));
#1562=CARTESIAN_POINT('',(-25.,0.,8.00000000000001));
#1563=CARTESIAN_POINT('',(17.,0.,7.99999999999999));
#1564=CARTESIAN_POINT('Origin',(-22.,6.,8.00000000000001));
#1565=CARTESIAN_POINT('',(-20.4,6.,8.00000000000001));
#1566=CARTESIAN_POINT('Origin',(-22.,19.,8.00000000000001));
#1567=CARTESIAN_POINT('',(-20.4,19.,8.00000000000001));
#1568=CARTESIAN_POINT('Origin',(-25.,0.,-9.99999999999997));
#1569=CARTESIAN_POINT('',(-29.,0.,-9.99999999999998));
#1570=CARTESIAN_POINT('',(-25.,0.,-9.99999999999997));
#1571=CARTESIAN_POINT('Origin',(-25.,0.,8.00000000000001));
#1572=CARTESIAN_POINT('Origin',(25.,0.,-2.22044604925031E-15));
#1573=CARTESIAN_POINT('',(25.,0.,-2.22044604925031E-15));
#1574=CARTESIAN_POINT('Origin',(25.,0.,-9.99999999999998));
#1575=CARTESIAN_POINT('',(25.,0.,-9.99999999999998));
#1576=CARTESIAN_POINT('Origin',(29.,0.,-10.));
#1577=CARTESIAN_POINT('',(29.,0.,-10.));
#1578=CARTESIAN_POINT('Origin',(29.,0.,-3.55147571752733E-15));
#1579=CARTESIAN_POINT('',(29.,0.,-3.55147571752733E-15));
#1580=CARTESIAN_POINT('Origin',(17.,0.,12.));
#1581=CARTESIAN_POINT('Origin',(-29.,0.,-9.99999999999998));
#1582=CARTESIAN_POINT('',(-29.,18.75,65.));
#1583=CARTESIAN_POINT('Origin',(-22.,19.,67.));
#1584=CARTESIAN_POINT('',(-19.,19.,67.));
#1585=CARTESIAN_POINT('',(-19.,19.,67.));
#1586=CARTESIAN_POINT('Origin',(-22.,19.,67.));
#1587=CARTESIAN_POINT('Origin',(-22.,6.,67.));
#1588=CARTESIAN_POINT('',(-19.,6.,67.));
#1589=CARTESIAN_POINT('',(-19.,6.,67.));
#1590=CARTESIAN_POINT('Origin',(-22.,6.,67.));
#1591=CARTESIAN_POINT('Origin',(-22.,12.5,67.));
#1592=CARTESIAN_POINT('',(-20.4,6.,67.));
#1593=CARTESIAN_POINT('Origin',(-22.,6.,67.));
#1594=CARTESIAN_POINT('Origin',(-22.,19.,65.));
#1595=CARTESIAN_POINT('',(-20.4,19.,67.));
#1596=CARTESIAN_POINT('Origin',(-22.,19.,67.));
#1597=CARTESIAN_POINT('',(-20.4,19.,65.));
#1598=CARTESIAN_POINT('',(-20.4,19.,65.));
#1599=CARTESIAN_POINT('Origin',(-22.,19.,65.));
#1600=CARTESIAN_POINT('Origin',(-22.,6.,65.));
#1601=CARTESIAN_POINT('',(-20.4,6.,65.));
#1602=CARTESIAN_POINT('',(-20.4,6.,65.));
#1603=CARTESIAN_POINT('Origin',(-22.,6.,65.));
#1604=CARTESIAN_POINT('Origin',(-22.,12.5,67.));
#1605=CARTESIAN_POINT('Origin',(-22.,12.5,65.));
#1606=UNCERTAINTY_MEASURE_WITH_UNIT(LENGTH_MEASURE(0.01),#1610,
'DISTANCE_ACCURACY_VALUE',
'Maximum model space distance between geometric entities at asserted c
onnectivities');
#1607=UNCERTAINTY_MEASURE_WITH_UNIT(LENGTH_MEASURE(0.01),#1610,
'DISTANCE_ACCURACY_VALUE',
'Maximum model space distance between geometric entities at asserted c
onnectivities');
#1608=(
GEOMETRIC_REPRESENTATION_CONTEXT(3)
GLOBAL_UNCERTAINTY_ASSIGNED_CONTEXT((#1606))
GLOBAL_UNIT_ASSIGNED_CONTEXT((#1610,#1612,#1613))
REPRESENTATION_CONTEXT('','3D')
);
#1609=(
GEOMETRIC_REPRESENTATION_CONTEXT(3)
GLOBAL_UNCERTAINTY_ASSIGNED_CONTEXT((#1607))
GLOBAL_UNIT_ASSIGNED_CONTEXT((#1610,#1612,#1613))
REPRESENTATION_CONTEXT('','3D')
);
#1610=(
LENGTH_UNIT()
NAMED_UNIT(*)
SI_UNIT(.MILLI.,.METRE.)
);
#1611=(
LENGTH_UNIT()
NAMED_UNIT(*)
SI_UNIT(.CENTI.,.METRE.)
);
#1612=(
NAMED_UNIT(*)
PLANE_ANGLE_UNIT()
SI_UNIT($,.RADIAN.)
);
#1613=(
NAMED_UNIT(*)
SI_UNIT($,.STERADIAN.)
SOLID_ANGLE_UNIT()
);
#1614=SHAPE_DEFINITION_REPRESENTATION(#1615,#1616);
#1615=PRODUCT_DEFINITION_SHAPE('',$,#1618);
#1616=SHAPE_REPRESENTATION('',(#946),#1608);
#1617=PRODUCT_DEFINITION_CONTEXT('part definition',#1622,'design');
#1618=PRODUCT_DEFINITION('volume_connection','volume_connection',#1619,
#1617);
#1619=PRODUCT_DEFINITION_FORMATION('',$,#1624);
#1620=PRODUCT_RELATED_PRODUCT_CATEGORY('volume_connection',
'volume_connection',(#1624));
#1621=APPLICATION_PROTOCOL_DEFINITION('international standard',
'automotive_design',2009,#1622);
#1622=APPLICATION_CONTEXT(
'Core Data for Automotive Mechanical Design Process');
#1623=PRODUCT_CONTEXT('part definition',#1622,'mechanical');
#1624=PRODUCT('volume_connection','volume_connection',$,(#1623));
#1625=PRESENTATION_STYLE_ASSIGNMENT((#1627));
#1626=PRESENTATION_STYLE_ASSIGNMENT((#1628));
#1627=SURFACE_STYLE_USAGE(.BOTH.,#1633);
#1628=SURFACE_STYLE_USAGE(.BOTH.,#1634);
#1629=SURFACE_STYLE_RENDERING_WITH_PROPERTIES($,#1641,(#1631));
#1630=SURFACE_STYLE_RENDERING_WITH_PROPERTIES($,#1642,(#1632));
#1631=SURFACE_STYLE_TRANSPARENT(0.);
#1632=SURFACE_STYLE_TRANSPARENT(0.);
#1633=SURFACE_SIDE_STYLE('',(#1635,#1629));
#1634=SURFACE_SIDE_STYLE('',(#1636,#1630));
#1635=SURFACE_STYLE_FILL_AREA(#1637);
#1636=SURFACE_STYLE_FILL_AREA(#1638);
#1637=FILL_AREA_STYLE('',(#1639));
#1638=FILL_AREA_STYLE('',(#1640));
#1639=FILL_AREA_STYLE_COLOUR('',#1641);
#1640=FILL_AREA_STYLE_COLOUR('',#1642);
#1641=COLOUR_RGB('',0.749019607843137,0.749019607843137,0.749019607843137);
#1642=COLOUR_RGB('',0.352941176470588,0.352941176470588,0.352941176470588);
ENDSEC;
END-ISO-10303-21;
