ISO-10303-21;
HEADER;
/* Generated by software containing ST-Developer
 * from STEP Tools, Inc. (www.steptools.com) 
 */

FILE_DESCRIPTION(
/* description */ (''),
/* implementation_level */ '2;1');

FILE_NAME(
/* name */ 'volume_case_upper.stp',
/* time_stamp */ '2026-02-02T14:33:03+09:00',
/* author */ ('hibik'),
/* organization */ (''),
/* preprocessor_version */ 'ST-DEVELOPER v20.1',
/* originating_system */ 'Autodesk Inventor 2026',
/* authorisation */ '');

FILE_SCHEMA (('AUTOMOTIVE_DESIGN { 1 0 10303 214 3 1 1 }'));
ENDSEC;

DATA;
#10=MECHANICAL_DESIGN_GEOMETRIC_PRESENTATION_REPRESENTATION('',(#13),#836);
#11=SHAPE_REPRESENTATION_RELATIONSHIP('SRR','None',#843,#12);
#12=ADVANCED_BREP_SHAPE_REPRESENTATION('',(#14),#835);
#13=STYLED_ITEM('',(#853),#14);
#14=MANIFOLD_SOLID_BREP('\X2\30BD30EA30C330C9\X0\1',#483);
#15=FACE_BOUND('',#90,.T.);
#16=FACE_BOUND('',#91,.T.);
#17=FACE_BOUND('',#92,.T.);
#18=FACE_BOUND('',#93,.T.);
#19=FACE_BOUND('',#113,.T.);
#20=FACE_BOUND('',#114,.T.);
#21=FACE_BOUND('',#115,.T.);
#22=FACE_BOUND('',#116,.T.);
#23=FACE_BOUND('',#117,.T.);
#24=CIRCLE('',#509,5.);
#25=CIRCLE('',#510,5.);
#26=CIRCLE('',#513,5.);
#27=CIRCLE('',#514,2.);
#28=CIRCLE('',#515,3.25);
#29=CIRCLE('',#516,2.);
#30=CIRCLE('',#517,10.5);
#31=CIRCLE('',#518,2.);
#32=CIRCLE('',#519,3.25);
#33=CIRCLE('',#520,2.);
#34=CIRCLE('',#521,3.75);
#35=CIRCLE('',#522,1.6);
#36=CIRCLE('',#523,1.6);
#37=CIRCLE('',#525,5.);
#38=CIRCLE('',#530,3.75);
#39=CIRCLE('',#536,2.);
#40=CIRCLE('',#538,3.25);
#41=CIRCLE('',#540,2.);
#42=CIRCLE('',#542,1.6);
#43=CIRCLE('',#544,1.6);
#44=CIRCLE('',#546,2.);
#45=CIRCLE('',#548,3.25);
#46=CIRCLE('',#550,2.);
#47=CIRCLE('',#553,10.5);
#48=CYLINDRICAL_SURFACE('',#508,5.);
#49=CYLINDRICAL_SURFACE('',#524,5.);
#50=CYLINDRICAL_SURFACE('',#529,3.75);
#51=CYLINDRICAL_SURFACE('',#535,2.);
#52=CYLINDRICAL_SURFACE('',#537,3.25);
#53=CYLINDRICAL_SURFACE('',#539,2.);
#54=CYLINDRICAL_SURFACE('',#541,1.6);
#55=CYLINDRICAL_SURFACE('',#543,1.6);
#56=CYLINDRICAL_SURFACE('',#545,2.);
#57=CYLINDRICAL_SURFACE('',#547,3.25);
#58=CYLINDRICAL_SURFACE('',#549,2.);
#59=CYLINDRICAL_SURFACE('',#554,10.5);
#60=FACE_OUTER_BOUND('',#85,.T.);
#61=FACE_OUTER_BOUND('',#86,.T.);
#62=FACE_OUTER_BOUND('',#87,.T.);
#63=FACE_OUTER_BOUND('',#88,.T.);
#64=FACE_OUTER_BOUND('',#89,.T.);
#65=FACE_OUTER_BOUND('',#94,.T.);
#66=FACE_OUTER_BOUND('',#95,.T.);
#67=FACE_OUTER_BOUND('',#96,.T.);
#68=FACE_OUTER_BOUND('',#97,.T.);
#69=FACE_OUTER_BOUND('',#98,.T.);
#70=FACE_OUTER_BOUND('',#99,.T.);
#71=FACE_OUTER_BOUND('',#100,.T.);
#72=FACE_OUTER_BOUND('',#101,.T.);
#73=FACE_OUTER_BOUND('',#102,.T.);
#74=FACE_OUTER_BOUND('',#103,.T.);
#75=FACE_OUTER_BOUND('',#104,.T.);
#76=FACE_OUTER_BOUND('',#105,.T.);
#77=FACE_OUTER_BOUND('',#106,.T.);
#78=FACE_OUTER_BOUND('',#107,.T.);
#79=FACE_OUTER_BOUND('',#108,.T.);
#80=FACE_OUTER_BOUND('',#109,.T.);
#81=FACE_OUTER_BOUND('',#110,.T.);
#82=FACE_OUTER_BOUND('',#111,.T.);
#83=FACE_OUTER_BOUND('',#112,.T.);
#84=FACE_OUTER_BOUND('',#118,.T.);
#85=EDGE_LOOP('',(#313,#314,#315,#316));
#86=EDGE_LOOP('',(#317,#318,#319));
#87=EDGE_LOOP('',(#320,#321,#322,#323));
#88=EDGE_LOOP('',(#324,#325,#326,#327));
#89=EDGE_LOOP('',(#328,#329,#330,#331,#332,#333,#334,#335,#336,#337,#338,
#339));
#90=EDGE_LOOP('',(#340));
#91=EDGE_LOOP('',(#341,#342,#343,#344));
#92=EDGE_LOOP('',(#345));
#93=EDGE_LOOP('',(#346));
#94=EDGE_LOOP('',(#347,#348,#349,#350));
#95=EDGE_LOOP('',(#351,#352,#353,#354));
#96=EDGE_LOOP('',(#355,#356,#357));
#97=EDGE_LOOP('',(#358,#359,#360,#361));
#98=EDGE_LOOP('',(#362,#363,#364,#365));
#99=EDGE_LOOP('',(#366,#367,#368,#369));
#100=EDGE_LOOP('',(#370,#371,#372,#373));
#101=EDGE_LOOP('',(#374,#375,#376,#377));
#102=EDGE_LOOP('',(#378,#379,#380,#381));
#103=EDGE_LOOP('',(#382,#383,#384,#385));
#104=EDGE_LOOP('',(#386,#387,#388,#389));
#105=EDGE_LOOP('',(#390,#391,#392,#393));
#106=EDGE_LOOP('',(#394,#395,#396,#397));
#107=EDGE_LOOP('',(#398,#399,#400,#401));
#108=EDGE_LOOP('',(#402,#403,#404,#405));
#109=EDGE_LOOP('',(#406,#407,#408,#409));
#110=EDGE_LOOP('',(#410,#411,#412,#413));
#111=EDGE_LOOP('',(#414,#415,#416,#417));
#112=EDGE_LOOP('',(#418,#419,#420,#421,#422,#423,#424,#425,#426,#427,#428,
#429));
#113=EDGE_LOOP('',(#430,#431,#432,#433));
#114=EDGE_LOOP('',(#434));
#115=EDGE_LOOP('',(#435,#436,#437,#438));
#116=EDGE_LOOP('',(#439));
#117=EDGE_LOOP('',(#440));
#118=EDGE_LOOP('',(#441,#442,#443,#444));
#119=LINE('',#701,#161);
#120=LINE('',#703,#162);
#121=LINE('',#705,#163);
#122=LINE('',#706,#164);
#123=LINE('',#709,#165);
#124=LINE('',#710,#166);
#125=LINE('',#716,#167);
#126=LINE('',#719,#168);
#127=LINE('',#722,#169);
#128=LINE('',#724,#170);
#129=LINE('',#725,#171);
#130=LINE('',#728,#172);
#131=LINE('',#732,#173);
#132=LINE('',#750,#174);
#133=LINE('',#752,#175);
#134=LINE('',#754,#176);
#135=LINE('',#755,#177);
#136=LINE('',#764,#178);
#137=LINE('',#765,#179);
#138=LINE('',#768,#180);
#139=LINE('',#769,#181);
#140=LINE('',#772,#182);
#141=LINE('',#773,#183);
#142=LINE('',#775,#184);
#143=LINE('',#778,#185);
#144=LINE('',#783,#186);
#145=LINE('',#784,#187);
#146=LINE('',#785,#188);
#147=LINE('',#788,#189);
#148=LINE('',#789,#190);
#149=LINE('',#792,#191);
#150=LINE('',#793,#192);
#151=LINE('',#795,#193);
#152=LINE('',#799,#194);
#153=LINE('',#803,#195);
#154=LINE('',#807,#196);
#155=LINE('',#811,#197);
#156=LINE('',#815,#198);
#157=LINE('',#820,#199);
#158=LINE('',#821,#200);
#159=LINE('',#825,#201);
#160=LINE('',#829,#202);
#161=VECTOR('',#559,10.);
#162=VECTOR('',#560,10.);
#163=VECTOR('',#561,10.);
#164=VECTOR('',#562,10.);
#165=VECTOR('',#565,10.);
#166=VECTOR('',#566,10.);
#167=VECTOR('',#571,10.);
#168=VECTOR('',#574,10.);
#169=VECTOR('',#577,10.);
#170=VECTOR('',#578,10.);
#171=VECTOR('',#579,10.);
#172=VECTOR('',#582,10.);
#173=VECTOR('',#585,10.);
#174=VECTOR('',#602,10.);
#175=VECTOR('',#603,10.);
#176=VECTOR('',#604,10.);
#177=VECTOR('',#605,10.);
#178=VECTOR('',#614,10.);
#179=VECTOR('',#615,10.);
#180=VECTOR('',#618,10.);
#181=VECTOR('',#619,10.);
#182=VECTOR('',#622,10.);
#183=VECTOR('',#623,10.);
#184=VECTOR('',#626,10.);
#185=VECTOR('',#629,3.75);
#186=VECTOR('',#634,10.);
#187=VECTOR('',#635,10.);
#188=VECTOR('',#636,10.);
#189=VECTOR('',#639,10.);
#190=VECTOR('',#640,10.);
#191=VECTOR('',#643,10.);
#192=VECTOR('',#644,10.);
#193=VECTOR('',#647,10.);
#194=VECTOR('',#652,10.);
#195=VECTOR('',#657,10.);
#196=VECTOR('',#662,10.);
#197=VECTOR('',#667,1.6);
#198=VECTOR('',#672,1.6);
#199=VECTOR('',#677,10.);
#200=VECTOR('',#678,10.);
#201=VECTOR('',#683,10.);
#202=VECTOR('',#690,10.);
#203=VERTEX_POINT('',#699);
#204=VERTEX_POINT('',#700);
#205=VERTEX_POINT('',#702);
#206=VERTEX_POINT('',#704);
#207=VERTEX_POINT('',#708);
#208=VERTEX_POINT('',#712);
#209=VERTEX_POINT('',#713);
#210=VERTEX_POINT('',#715);
#211=VERTEX_POINT('',#717);
#212=VERTEX_POINT('',#721);
#213=VERTEX_POINT('',#723);
#214=VERTEX_POINT('',#727);
#215=VERTEX_POINT('',#729);
#216=VERTEX_POINT('',#731);
#217=VERTEX_POINT('',#733);
#218=VERTEX_POINT('',#735);
#219=VERTEX_POINT('',#737);
#220=VERTEX_POINT('',#739);
#221=VERTEX_POINT('',#741);
#222=VERTEX_POINT('',#743);
#223=VERTEX_POINT('',#746);
#224=VERTEX_POINT('',#748);
#225=VERTEX_POINT('',#749);
#226=VERTEX_POINT('',#751);
#227=VERTEX_POINT('',#753);
#228=VERTEX_POINT('',#756);
#229=VERTEX_POINT('',#758);
#230=VERTEX_POINT('',#761);
#231=VERTEX_POINT('',#762);
#232=VERTEX_POINT('',#767);
#233=VERTEX_POINT('',#771);
#234=VERTEX_POINT('',#777);
#235=VERTEX_POINT('',#781);
#236=VERTEX_POINT('',#782);
#237=VERTEX_POINT('',#787);
#238=VERTEX_POINT('',#791);
#239=VERTEX_POINT('',#797);
#240=VERTEX_POINT('',#801);
#241=VERTEX_POINT('',#805);
#242=VERTEX_POINT('',#809);
#243=VERTEX_POINT('',#813);
#244=VERTEX_POINT('',#817);
#245=VERTEX_POINT('',#818);
#246=VERTEX_POINT('',#823);
#247=EDGE_CURVE('',#203,#204,#119,.T.);
#248=EDGE_CURVE('',#204,#205,#120,.T.);
#249=EDGE_CURVE('',#205,#206,#121,.T.);
#250=EDGE_CURVE('',#203,#206,#122,.T.);
#251=EDGE_CURVE('',#207,#203,#123,.T.);
#252=EDGE_CURVE('',#207,#204,#124,.T.);
#253=EDGE_CURVE('',#208,#209,#24,.T.);
#254=EDGE_CURVE('',#209,#210,#125,.T.);
#255=EDGE_CURVE('',#210,#211,#25,.T.);
#256=EDGE_CURVE('',#211,#208,#126,.T.);
#257=EDGE_CURVE('',#212,#211,#127,.T.);
#258=EDGE_CURVE('',#212,#213,#128,.T.);
#259=EDGE_CURVE('',#208,#213,#129,.T.);
#260=EDGE_CURVE('',#210,#214,#130,.T.);
#261=EDGE_CURVE('',#215,#214,#26,.T.);
#262=EDGE_CURVE('',#215,#216,#131,.T.);
#263=EDGE_CURVE('',#216,#217,#27,.T.);
#264=EDGE_CURVE('',#217,#218,#28,.T.);
#265=EDGE_CURVE('',#218,#219,#29,.T.);
#266=EDGE_CURVE('',#219,#220,#30,.T.);
#267=EDGE_CURVE('',#220,#221,#31,.T.);
#268=EDGE_CURVE('',#221,#222,#32,.T.);
#269=EDGE_CURVE('',#222,#212,#33,.T.);
#270=EDGE_CURVE('',#223,#223,#34,.T.);
#271=EDGE_CURVE('',#224,#225,#132,.T.);
#272=EDGE_CURVE('',#225,#226,#133,.T.);
#273=EDGE_CURVE('',#226,#227,#134,.T.);
#274=EDGE_CURVE('',#227,#224,#135,.T.);
#275=EDGE_CURVE('',#228,#228,#35,.T.);
#276=EDGE_CURVE('',#229,#229,#36,.T.);
#277=EDGE_CURVE('',#230,#231,#37,.T.);
#278=EDGE_CURVE('',#231,#215,#136,.T.);
#279=EDGE_CURVE('',#214,#230,#137,.T.);
#280=EDGE_CURVE('',#232,#231,#138,.T.);
#281=EDGE_CURVE('',#216,#232,#139,.T.);
#282=EDGE_CURVE('',#233,#205,#140,.T.);
#283=EDGE_CURVE('',#206,#233,#141,.T.);
#284=EDGE_CURVE('',#233,#207,#142,.T.);
#285=EDGE_CURVE('',#223,#234,#143,.T.);
#286=EDGE_CURVE('',#234,#234,#38,.T.);
#287=EDGE_CURVE('',#235,#236,#144,.T.);
#288=EDGE_CURVE('',#227,#235,#145,.T.);
#289=EDGE_CURVE('',#226,#236,#146,.T.);
#290=EDGE_CURVE('',#236,#237,#147,.T.);
#291=EDGE_CURVE('',#225,#237,#148,.T.);
#292=EDGE_CURVE('',#237,#238,#149,.T.);
#293=EDGE_CURVE('',#224,#238,#150,.T.);
#294=EDGE_CURVE('',#238,#235,#151,.T.);
#295=EDGE_CURVE('',#239,#232,#39,.T.);
#296=EDGE_CURVE('',#217,#239,#152,.T.);
#297=EDGE_CURVE('',#240,#239,#40,.T.);
#298=EDGE_CURVE('',#218,#240,#153,.T.);
#299=EDGE_CURVE('',#241,#240,#41,.T.);
#300=EDGE_CURVE('',#219,#241,#154,.T.);
#301=EDGE_CURVE('',#242,#242,#42,.T.);
#302=EDGE_CURVE('',#242,#229,#155,.T.);
#303=EDGE_CURVE('',#243,#243,#43,.T.);
#304=EDGE_CURVE('',#243,#228,#156,.T.);
#305=EDGE_CURVE('',#244,#245,#44,.T.);
#306=EDGE_CURVE('',#221,#244,#157,.T.);
#307=EDGE_CURVE('',#220,#245,#158,.T.);
#308=EDGE_CURVE('',#246,#244,#45,.T.);
#309=EDGE_CURVE('',#222,#246,#159,.T.);
#310=EDGE_CURVE('',#213,#246,#46,.T.);
#311=EDGE_CURVE('',#230,#209,#160,.T.);
#312=EDGE_CURVE('',#241,#245,#47,.T.);
#313=ORIENTED_EDGE('',*,*,#247,.T.);
#314=ORIENTED_EDGE('',*,*,#248,.T.);
#315=ORIENTED_EDGE('',*,*,#249,.T.);
#316=ORIENTED_EDGE('',*,*,#250,.F.);
#317=ORIENTED_EDGE('',*,*,#247,.F.);
#318=ORIENTED_EDGE('',*,*,#251,.F.);
#319=ORIENTED_EDGE('',*,*,#252,.T.);
#320=ORIENTED_EDGE('',*,*,#253,.T.);
#321=ORIENTED_EDGE('',*,*,#254,.T.);
#322=ORIENTED_EDGE('',*,*,#255,.T.);
#323=ORIENTED_EDGE('',*,*,#256,.T.);
#324=ORIENTED_EDGE('',*,*,#256,.F.);
#325=ORIENTED_EDGE('',*,*,#257,.F.);
#326=ORIENTED_EDGE('',*,*,#258,.T.);
#327=ORIENTED_EDGE('',*,*,#259,.F.);
#328=ORIENTED_EDGE('',*,*,#255,.F.);
#329=ORIENTED_EDGE('',*,*,#260,.T.);
#330=ORIENTED_EDGE('',*,*,#261,.F.);
#331=ORIENTED_EDGE('',*,*,#262,.T.);
#332=ORIENTED_EDGE('',*,*,#263,.T.);
#333=ORIENTED_EDGE('',*,*,#264,.T.);
#334=ORIENTED_EDGE('',*,*,#265,.T.);
#335=ORIENTED_EDGE('',*,*,#266,.T.);
#336=ORIENTED_EDGE('',*,*,#267,.T.);
#337=ORIENTED_EDGE('',*,*,#268,.T.);
#338=ORIENTED_EDGE('',*,*,#269,.T.);
#339=ORIENTED_EDGE('',*,*,#257,.T.);
#340=ORIENTED_EDGE('',*,*,#270,.T.);
#341=ORIENTED_EDGE('',*,*,#271,.T.);
#342=ORIENTED_EDGE('',*,*,#272,.T.);
#343=ORIENTED_EDGE('',*,*,#273,.T.);
#344=ORIENTED_EDGE('',*,*,#274,.T.);
#345=ORIENTED_EDGE('',*,*,#275,.T.);
#346=ORIENTED_EDGE('',*,*,#276,.T.);
#347=ORIENTED_EDGE('',*,*,#277,.T.);
#348=ORIENTED_EDGE('',*,*,#278,.T.);
#349=ORIENTED_EDGE('',*,*,#261,.T.);
#350=ORIENTED_EDGE('',*,*,#279,.T.);
#351=ORIENTED_EDGE('',*,*,#278,.F.);
#352=ORIENTED_EDGE('',*,*,#280,.F.);
#353=ORIENTED_EDGE('',*,*,#281,.F.);
#354=ORIENTED_EDGE('',*,*,#262,.F.);
#355=ORIENTED_EDGE('',*,*,#249,.F.);
#356=ORIENTED_EDGE('',*,*,#282,.F.);
#357=ORIENTED_EDGE('',*,*,#283,.F.);
#358=ORIENTED_EDGE('',*,*,#284,.F.);
#359=ORIENTED_EDGE('',*,*,#282,.T.);
#360=ORIENTED_EDGE('',*,*,#248,.F.);
#361=ORIENTED_EDGE('',*,*,#252,.F.);
#362=ORIENTED_EDGE('',*,*,#270,.F.);
#363=ORIENTED_EDGE('',*,*,#285,.T.);
#364=ORIENTED_EDGE('',*,*,#286,.F.);
#365=ORIENTED_EDGE('',*,*,#285,.F.);
#366=ORIENTED_EDGE('',*,*,#287,.F.);
#367=ORIENTED_EDGE('',*,*,#288,.F.);
#368=ORIENTED_EDGE('',*,*,#273,.F.);
#369=ORIENTED_EDGE('',*,*,#289,.T.);
#370=ORIENTED_EDGE('',*,*,#290,.F.);
#371=ORIENTED_EDGE('',*,*,#289,.F.);
#372=ORIENTED_EDGE('',*,*,#272,.F.);
#373=ORIENTED_EDGE('',*,*,#291,.T.);
#374=ORIENTED_EDGE('',*,*,#292,.F.);
#375=ORIENTED_EDGE('',*,*,#291,.F.);
#376=ORIENTED_EDGE('',*,*,#271,.F.);
#377=ORIENTED_EDGE('',*,*,#293,.T.);
#378=ORIENTED_EDGE('',*,*,#294,.F.);
#379=ORIENTED_EDGE('',*,*,#293,.F.);
#380=ORIENTED_EDGE('',*,*,#274,.F.);
#381=ORIENTED_EDGE('',*,*,#288,.T.);
#382=ORIENTED_EDGE('',*,*,#295,.F.);
#383=ORIENTED_EDGE('',*,*,#296,.F.);
#384=ORIENTED_EDGE('',*,*,#263,.F.);
#385=ORIENTED_EDGE('',*,*,#281,.T.);
#386=ORIENTED_EDGE('',*,*,#297,.F.);
#387=ORIENTED_EDGE('',*,*,#298,.F.);
#388=ORIENTED_EDGE('',*,*,#264,.F.);
#389=ORIENTED_EDGE('',*,*,#296,.T.);
#390=ORIENTED_EDGE('',*,*,#299,.F.);
#391=ORIENTED_EDGE('',*,*,#300,.F.);
#392=ORIENTED_EDGE('',*,*,#265,.F.);
#393=ORIENTED_EDGE('',*,*,#298,.T.);
#394=ORIENTED_EDGE('',*,*,#301,.F.);
#395=ORIENTED_EDGE('',*,*,#302,.T.);
#396=ORIENTED_EDGE('',*,*,#276,.F.);
#397=ORIENTED_EDGE('',*,*,#302,.F.);
#398=ORIENTED_EDGE('',*,*,#303,.F.);
#399=ORIENTED_EDGE('',*,*,#304,.T.);
#400=ORIENTED_EDGE('',*,*,#275,.F.);
#401=ORIENTED_EDGE('',*,*,#304,.F.);
#402=ORIENTED_EDGE('',*,*,#305,.F.);
#403=ORIENTED_EDGE('',*,*,#306,.F.);
#404=ORIENTED_EDGE('',*,*,#267,.F.);
#405=ORIENTED_EDGE('',*,*,#307,.T.);
#406=ORIENTED_EDGE('',*,*,#308,.F.);
#407=ORIENTED_EDGE('',*,*,#309,.F.);
#408=ORIENTED_EDGE('',*,*,#268,.F.);
#409=ORIENTED_EDGE('',*,*,#306,.T.);
#410=ORIENTED_EDGE('',*,*,#310,.F.);
#411=ORIENTED_EDGE('',*,*,#258,.F.);
#412=ORIENTED_EDGE('',*,*,#269,.F.);
#413=ORIENTED_EDGE('',*,*,#309,.T.);
#414=ORIENTED_EDGE('',*,*,#254,.F.);
#415=ORIENTED_EDGE('',*,*,#311,.F.);
#416=ORIENTED_EDGE('',*,*,#279,.F.);
#417=ORIENTED_EDGE('',*,*,#260,.F.);
#418=ORIENTED_EDGE('',*,*,#253,.F.);
#419=ORIENTED_EDGE('',*,*,#259,.T.);
#420=ORIENTED_EDGE('',*,*,#310,.T.);
#421=ORIENTED_EDGE('',*,*,#308,.T.);
#422=ORIENTED_EDGE('',*,*,#305,.T.);
#423=ORIENTED_EDGE('',*,*,#312,.F.);
#424=ORIENTED_EDGE('',*,*,#299,.T.);
#425=ORIENTED_EDGE('',*,*,#297,.T.);
#426=ORIENTED_EDGE('',*,*,#295,.T.);
#427=ORIENTED_EDGE('',*,*,#280,.T.);
#428=ORIENTED_EDGE('',*,*,#277,.F.);
#429=ORIENTED_EDGE('',*,*,#311,.T.);
#430=ORIENTED_EDGE('',*,*,#250,.T.);
#431=ORIENTED_EDGE('',*,*,#283,.T.);
#432=ORIENTED_EDGE('',*,*,#284,.T.);
#433=ORIENTED_EDGE('',*,*,#251,.T.);
#434=ORIENTED_EDGE('',*,*,#286,.T.);
#435=ORIENTED_EDGE('',*,*,#292,.T.);
#436=ORIENTED_EDGE('',*,*,#294,.T.);
#437=ORIENTED_EDGE('',*,*,#287,.T.);
#438=ORIENTED_EDGE('',*,*,#290,.T.);
#439=ORIENTED_EDGE('',*,*,#301,.T.);
#440=ORIENTED_EDGE('',*,*,#303,.T.);
#441=ORIENTED_EDGE('',*,*,#300,.T.);
#442=ORIENTED_EDGE('',*,*,#312,.T.);
#443=ORIENTED_EDGE('',*,*,#307,.F.);
#444=ORIENTED_EDGE('',*,*,#266,.F.);
#445=PLANE('',#506);
#446=PLANE('',#507);
#447=PLANE('',#511);
#448=PLANE('',#512);
#449=PLANE('',#526);
#450=PLANE('',#527);
#451=PLANE('',#528);
#452=PLANE('',#531);
#453=PLANE('',#532);
#454=PLANE('',#533);
#455=PLANE('',#534);
#456=PLANE('',#551);
#457=PLANE('',#552);
#458=ADVANCED_FACE('',(#60),#445,.T.);
#459=ADVANCED_FACE('',(#61),#446,.T.);
#460=ADVANCED_FACE('',(#62),#48,.T.);
#461=ADVANCED_FACE('',(#63),#447,.T.);
#462=ADVANCED_FACE('',(#64,#15,#16,#17,#18),#448,.T.);
#463=ADVANCED_FACE('',(#65),#49,.T.);
#464=ADVANCED_FACE('',(#66),#449,.T.);
#465=ADVANCED_FACE('',(#67),#450,.T.);
#466=ADVANCED_FACE('',(#68),#451,.T.);
#467=ADVANCED_FACE('',(#69),#50,.F.);
#468=ADVANCED_FACE('',(#70),#452,.F.);
#469=ADVANCED_FACE('',(#71),#453,.F.);
#470=ADVANCED_FACE('',(#72),#454,.F.);
#471=ADVANCED_FACE('',(#73),#455,.F.);
#472=ADVANCED_FACE('',(#74),#51,.F.);
#473=ADVANCED_FACE('',(#75),#52,.T.);
#474=ADVANCED_FACE('',(#76),#53,.F.);
#475=ADVANCED_FACE('',(#77),#54,.F.);
#476=ADVANCED_FACE('',(#78),#55,.F.);
#477=ADVANCED_FACE('',(#79),#56,.F.);
#478=ADVANCED_FACE('',(#80),#57,.T.);
#479=ADVANCED_FACE('',(#81),#58,.F.);
#480=ADVANCED_FACE('',(#82),#456,.T.);
#481=ADVANCED_FACE('',(#83,#19,#20,#21,#22,#23),#457,.F.);
#482=ADVANCED_FACE('',(#84),#59,.T.);
#483=CLOSED_SHELL('',(#458,#459,#460,#461,#462,#463,#464,#465,#466,#467,
#468,#469,#470,#471,#472,#473,#474,#475,#476,#477,#478,#479,#480,#481,#482));
#484=DERIVED_UNIT_ELEMENT(#487,1.);
#485=DERIVED_UNIT_ELEMENT(#838,-3.);
#486=DIMENSIONAL_EXPONENTS(0.,1.,0.,0.,0.,0.,0.);
#487=(
CONVERSION_BASED_UNIT('gram',#489)
MASS_UNIT()
NAMED_UNIT(#486)
);
#488=(
MASS_UNIT()
NAMED_UNIT(*)
SI_UNIT(.KILO.,.GRAM.)
);
#489=MASS_MEASURE_WITH_UNIT(MASS_MEASURE(0.001),#488);
#490=DERIVED_UNIT((#484,#485));
#491=MEASURE_REPRESENTATION_ITEM('density measure',
POSITIVE_RATIO_MEASURE(1.),#490);
#492=PROPERTY_DEFINITION_REPRESENTATION(#497,#494);
#493=PROPERTY_DEFINITION_REPRESENTATION(#498,#495);
#494=REPRESENTATION('material name',(#496),#835);
#495=REPRESENTATION('density',(#491),#835);
#496=DESCRIPTIVE_REPRESENTATION_ITEM('\X2\4E00822C\X0\','\X2\4E00822C\X0\');
#497=PROPERTY_DEFINITION('material property','material name',#845);
#498=PROPERTY_DEFINITION('material property','density of part',#845);
#499=DATE_TIME_ROLE('creation_date');
#500=APPLIED_DATE_AND_TIME_ASSIGNMENT(#501,#499,(#845));
#501=DATE_AND_TIME(#502,#503);
#502=CALENDAR_DATE(2026,1,2);
#503=LOCAL_TIME(0,0,0.,#504);
#504=COORDINATED_UNIVERSAL_TIME_OFFSET(0,0,.BEHIND.);
#505=AXIS2_PLACEMENT_3D('',#697,#555,#556);
#506=AXIS2_PLACEMENT_3D('',#698,#557,#558);
#507=AXIS2_PLACEMENT_3D('',#707,#563,#564);
#508=AXIS2_PLACEMENT_3D('',#711,#567,#568);
#509=AXIS2_PLACEMENT_3D('',#714,#569,#570);
#510=AXIS2_PLACEMENT_3D('',#718,#572,#573);
#511=AXIS2_PLACEMENT_3D('',#720,#575,#576);
#512=AXIS2_PLACEMENT_3D('',#726,#580,#581);
#513=AXIS2_PLACEMENT_3D('',#730,#583,#584);
#514=AXIS2_PLACEMENT_3D('',#734,#586,#587);
#515=AXIS2_PLACEMENT_3D('',#736,#588,#589);
#516=AXIS2_PLACEMENT_3D('',#738,#590,#591);
#517=AXIS2_PLACEMENT_3D('',#740,#592,#593);
#518=AXIS2_PLACEMENT_3D('',#742,#594,#595);
#519=AXIS2_PLACEMENT_3D('',#744,#596,#597);
#520=AXIS2_PLACEMENT_3D('',#745,#598,#599);
#521=AXIS2_PLACEMENT_3D('',#747,#600,#601);
#522=AXIS2_PLACEMENT_3D('',#757,#606,#607);
#523=AXIS2_PLACEMENT_3D('',#759,#608,#609);
#524=AXIS2_PLACEMENT_3D('',#760,#610,#611);
#525=AXIS2_PLACEMENT_3D('',#763,#612,#613);
#526=AXIS2_PLACEMENT_3D('',#766,#616,#617);
#527=AXIS2_PLACEMENT_3D('',#770,#620,#621);
#528=AXIS2_PLACEMENT_3D('',#774,#624,#625);
#529=AXIS2_PLACEMENT_3D('',#776,#627,#628);
#530=AXIS2_PLACEMENT_3D('',#779,#630,#631);
#531=AXIS2_PLACEMENT_3D('',#780,#632,#633);
#532=AXIS2_PLACEMENT_3D('',#786,#637,#638);
#533=AXIS2_PLACEMENT_3D('',#790,#641,#642);
#534=AXIS2_PLACEMENT_3D('',#794,#645,#646);
#535=AXIS2_PLACEMENT_3D('',#796,#648,#649);
#536=AXIS2_PLACEMENT_3D('',#798,#650,#651);
#537=AXIS2_PLACEMENT_3D('',#800,#653,#654);
#538=AXIS2_PLACEMENT_3D('',#802,#655,#656);
#539=AXIS2_PLACEMENT_3D('',#804,#658,#659);
#540=AXIS2_PLACEMENT_3D('',#806,#660,#661);
#541=AXIS2_PLACEMENT_3D('',#808,#663,#664);
#542=AXIS2_PLACEMENT_3D('',#810,#665,#666);
#543=AXIS2_PLACEMENT_3D('',#812,#668,#669);
#544=AXIS2_PLACEMENT_3D('',#814,#670,#671);
#545=AXIS2_PLACEMENT_3D('',#816,#673,#674);
#546=AXIS2_PLACEMENT_3D('',#819,#675,#676);
#547=AXIS2_PLACEMENT_3D('',#822,#679,#680);
#548=AXIS2_PLACEMENT_3D('',#824,#681,#682);
#549=AXIS2_PLACEMENT_3D('',#826,#684,#685);
#550=AXIS2_PLACEMENT_3D('',#827,#686,#687);
#551=AXIS2_PLACEMENT_3D('',#828,#688,#689);
#552=AXIS2_PLACEMENT_3D('',#830,#691,#692);
#553=AXIS2_PLACEMENT_3D('',#831,#693,#694);
#554=AXIS2_PLACEMENT_3D('',#832,#695,#696);
#555=DIRECTION('axis',(0.,0.,1.));
#556=DIRECTION('refdir',(1.,0.,0.));
#557=DIRECTION('center_axis',(-8.92097987888508E-17,-0.707106781186547,
0.707106781186548));
#558=DIRECTION('ref_axis',(1.,0.,1.26161707343768E-16));
#559=DIRECTION('',(-3.92523114670944E-16,-0.707106781186548,-0.707106781186547));
#560=DIRECTION('',(1.,0.,0.));
#561=DIRECTION('',(-3.92523114670943E-16,0.707106781186548,0.707106781186547));
#562=DIRECTION('',(1.,0.,1.26161707343768E-16));
#563=DIRECTION('center_axis',(-1.,0.,5.55111512312578E-16));
#564=DIRECTION('ref_axis',(-5.55111512312578E-16,0.,-1.));
#565=DIRECTION('',(5.55111512312578E-16,0.,1.));
#566=DIRECTION('',(0.,-1.,0.));
#567=DIRECTION('center_axis',(0.,-1.,0.));
#568=DIRECTION('ref_axis',(-0.707106781186548,0.,0.707106781186547));
#569=DIRECTION('center_axis',(0.,1.,0.));
#570=DIRECTION('ref_axis',(-0.707106781186548,0.,0.707106781186547));
#571=DIRECTION('',(0.,1.,0.));
#572=DIRECTION('center_axis',(0.,-1.,0.));
#573=DIRECTION('ref_axis',(-0.707106781186548,0.,0.707106781186547));
#574=DIRECTION('',(0.,-1.,0.));
#575=DIRECTION('center_axis',(-1.,0.,-1.51623447371487E-15));
#576=DIRECTION('ref_axis',(1.51623447371487E-15,0.,-1.));
#577=DIRECTION('',(-1.51623447371487E-15,0.,1.));
#578=DIRECTION('',(0.,-1.,0.));
#579=DIRECTION('',(1.51623447371487E-15,0.,-1.));
#580=DIRECTION('center_axis',(0.,1.,0.));
#581=DIRECTION('ref_axis',(0.,0.,1.));
#582=DIRECTION('',(1.,0.,0.));
#583=DIRECTION('center_axis',(0.,-1.,0.));
#584=DIRECTION('ref_axis',(0.707106781186548,0.,0.707106781186547));
#585=DIRECTION('',(-3.48142638807397E-16,0.,-1.));
#586=DIRECTION('center_axis',(0.,-1.,0.));
#587=DIRECTION('ref_axis',(0.0476190476190475,0.,0.998865569685859));
#588=DIRECTION('center_axis',(0.,1.,0.));
#589=DIRECTION('ref_axis',(0.0476190476190474,0.,0.998865569685859));
#590=DIRECTION('center_axis',(0.,-1.,0.));
#591=DIRECTION('ref_axis',(0.910204081632653,0.,-0.414160029190721));
#592=DIRECTION('center_axis',(0.,1.,0.));
#593=DIRECTION('ref_axis',(-1.,0.,0.));
#594=DIRECTION('center_axis',(0.,-1.,0.));
#595=DIRECTION('ref_axis',(0.166180758017491,0.,-0.986095307596954));
#596=DIRECTION('center_axis',(0.,1.,0.));
#597=DIRECTION('ref_axis',(0.166180758017494,0.,-0.986095307596954));
#598=DIRECTION('center_axis',(0.,-1.,0.));
#599=DIRECTION('ref_axis',(-1.,0.,1.11022302462516E-15));
#600=DIRECTION('center_axis',(0.,-1.,0.));
#601=DIRECTION('ref_axis',(1.,0.,0.));
#602=DIRECTION('',(0.,0.,-1.));
#603=DIRECTION('',(1.,0.,0.));
#604=DIRECTION('',(0.,0.,1.));
#605=DIRECTION('',(-1.,0.,0.));
#606=DIRECTION('center_axis',(0.,-1.,0.));
#607=DIRECTION('ref_axis',(-1.,0.,0.));
#608=DIRECTION('center_axis',(0.,-1.,0.));
#609=DIRECTION('ref_axis',(-1.,0.,0.));
#610=DIRECTION('center_axis',(0.,-1.,0.));
#611=DIRECTION('ref_axis',(0.707106781186548,0.,0.707106781186547));
#612=DIRECTION('center_axis',(0.,1.,0.));
#613=DIRECTION('ref_axis',(0.707106781186548,0.,0.707106781186547));
#614=DIRECTION('',(0.,1.,0.));
#615=DIRECTION('',(0.,-1.,0.));
#616=DIRECTION('center_axis',(1.,0.,-3.48142638807397E-16));
#617=DIRECTION('ref_axis',(3.48142638807397E-16,0.,1.));
#618=DIRECTION('',(3.48142638807397E-16,0.,1.));
#619=DIRECTION('',(0.,-1.,0.));
#620=DIRECTION('center_axis',(1.,0.,5.55111512312578E-16));
#621=DIRECTION('ref_axis',(-5.55111512312578E-16,0.,1.));
#622=DIRECTION('',(0.,-1.,0.));
#623=DIRECTION('',(5.55111512312578E-16,0.,-1.));
#624=DIRECTION('center_axis',(0.,0.,-1.));
#625=DIRECTION('ref_axis',(1.,0.,0.));
#626=DIRECTION('',(-1.,0.,0.));
#627=DIRECTION('center_axis',(0.,-1.,0.));
#628=DIRECTION('ref_axis',(1.,0.,0.));
#629=DIRECTION('',(0.,-1.,0.));
#630=DIRECTION('center_axis',(0.,1.,0.));
#631=DIRECTION('ref_axis',(1.,0.,0.));
#632=DIRECTION('center_axis',(1.,0.,0.));
#633=DIRECTION('ref_axis',(0.,0.,1.));
#634=DIRECTION('',(0.,0.,-1.));
#635=DIRECTION('',(0.,-1.,0.));
#636=DIRECTION('',(0.,-1.,0.));
#637=DIRECTION('center_axis',(0.,0.,-1.));
#638=DIRECTION('ref_axis',(1.,0.,0.));
#639=DIRECTION('',(-1.,0.,0.));
#640=DIRECTION('',(0.,-1.,0.));
#641=DIRECTION('center_axis',(-1.,0.,0.));
#642=DIRECTION('ref_axis',(0.,0.,-1.));
#643=DIRECTION('',(0.,0.,1.));
#644=DIRECTION('',(0.,-1.,0.));
#645=DIRECTION('center_axis',(0.,0.,1.));
#646=DIRECTION('ref_axis',(-1.,0.,0.));
#647=DIRECTION('',(1.,0.,0.));
#648=DIRECTION('center_axis',(0.,-1.,0.));
#649=DIRECTION('ref_axis',(0.0476190476190475,0.,0.998865569685859));
#650=DIRECTION('center_axis',(0.,1.,0.));
#651=DIRECTION('ref_axis',(0.0476190476190475,0.,0.998865569685859));
#652=DIRECTION('',(0.,-1.,0.));
#653=DIRECTION('center_axis',(0.,-1.,0.));
#654=DIRECTION('ref_axis',(0.99424928507844,0.,-0.107090424973526));
#655=DIRECTION('center_axis',(0.,-1.,0.));
#656=DIRECTION('ref_axis',(0.0476190476190474,0.,0.998865569685859));
#657=DIRECTION('',(0.,-1.,0.));
#658=DIRECTION('center_axis',(0.,-1.,0.));
#659=DIRECTION('ref_axis',(0.910204081632653,0.,-0.414160029190721));
#660=DIRECTION('center_axis',(0.,1.,0.));
#661=DIRECTION('ref_axis',(0.910204081632653,0.,-0.414160029190721));
#662=DIRECTION('',(0.,-1.,0.));
#663=DIRECTION('center_axis',(0.,-1.,0.));
#664=DIRECTION('ref_axis',(-1.,0.,0.));
#665=DIRECTION('center_axis',(0.,1.,0.));
#666=DIRECTION('ref_axis',(-1.,0.,0.));
#667=DIRECTION('',(0.,1.,0.));
#668=DIRECTION('center_axis',(0.,-1.,0.));
#669=DIRECTION('ref_axis',(-1.,0.,0.));
#670=DIRECTION('center_axis',(0.,1.,0.));
#671=DIRECTION('ref_axis',(-1.,0.,0.));
#672=DIRECTION('',(0.,1.,0.));
#673=DIRECTION('center_axis',(0.,-1.,0.));
#674=DIRECTION('ref_axis',(0.166180758017491,0.,-0.986095307596954));
#675=DIRECTION('center_axis',(0.,1.,0.));
#676=DIRECTION('ref_axis',(0.166180758017491,0.,-0.986095307596954));
#677=DIRECTION('',(0.,-1.,0.));
#678=DIRECTION('',(0.,-1.,0.));
#679=DIRECTION('center_axis',(0.,-1.,0.));
#680=DIRECTION('ref_axis',(-0.99424928507844,0.,-0.107090424973526));
#681=DIRECTION('center_axis',(0.,-1.,0.));
#682=DIRECTION('ref_axis',(0.166180758017494,0.,-0.986095307596954));
#683=DIRECTION('',(0.,-1.,0.));
#684=DIRECTION('center_axis',(0.,-1.,0.));
#685=DIRECTION('ref_axis',(-1.,0.,1.11022302462516E-15));
#686=DIRECTION('center_axis',(0.,1.,0.));
#687=DIRECTION('ref_axis',(-1.,0.,1.11022302462516E-15));
#688=DIRECTION('center_axis',(0.,0.,1.));
#689=DIRECTION('ref_axis',(-1.,0.,0.));
#690=DIRECTION('',(-1.,0.,0.));
#691=DIRECTION('center_axis',(0.,1.,0.));
#692=DIRECTION('ref_axis',(0.,0.,1.));
#693=DIRECTION('center_axis',(0.,1.,0.));
#694=DIRECTION('ref_axis',(-1.,0.,0.));
#695=DIRECTION('center_axis',(0.,1.,0.));
#696=DIRECTION('ref_axis',(-1.,0.,0.));
#697=CARTESIAN_POINT('',(0.,0.,0.));
#698=CARTESIAN_POINT('Origin',(4.4,-1.,15.3));
#699=CARTESIAN_POINT('',(-8.8,0.,16.3));
#700=CARTESIAN_POINT('',(-8.8,-2.,14.3));
#701=CARTESIAN_POINT('',(-8.8,-0.499999999999998,15.8));
#702=CARTESIAN_POINT('',(8.8,-2.,14.3));
#703=CARTESIAN_POINT('',(-8.8,-2.,14.3));
#704=CARTESIAN_POINT('',(8.8,0.,16.3));
#705=CARTESIAN_POINT('',(8.8,-1.,15.3));
#706=CARTESIAN_POINT('',(4.4,0.,16.3));
#707=CARTESIAN_POINT('Origin',(-8.8,0.,16.3));
#708=CARTESIAN_POINT('',(-8.8,0.,14.3));
#709=CARTESIAN_POINT('',(-8.80000000000001,0.,8.15));
#710=CARTESIAN_POINT('',(-8.8,0.,14.3));
#711=CARTESIAN_POINT('Origin',(-5.50000000000002,1.2,13.));
#712=CARTESIAN_POINT('',(-10.5,0.,13.));
#713=CARTESIAN_POINT('',(-5.50000000000002,0.,18.));
#714=CARTESIAN_POINT('Origin',(-5.50000000000002,0.,13.));
#715=CARTESIAN_POINT('',(-5.50000000000002,1.2,18.));
#716=CARTESIAN_POINT('',(-5.50000000000002,1.2,18.));
#717=CARTESIAN_POINT('',(-10.5,1.2,13.));
#718=CARTESIAN_POINT('Origin',(-5.50000000000002,1.2,13.));
#719=CARTESIAN_POINT('',(-10.5,1.2,13.));
#720=CARTESIAN_POINT('Origin',(-10.5,1.2,18.));
#721=CARTESIAN_POINT('',(-10.5,1.2,5.24404424085076));
#722=CARTESIAN_POINT('',(-10.5,1.2,5.24404424085076));
#723=CARTESIAN_POINT('',(-10.5,0.,5.24404424085076));
#724=CARTESIAN_POINT('',(-10.5,1.2,5.24404424085076));
#725=CARTESIAN_POINT('',(-10.5,0.,12.4128299233743));
#726=CARTESIAN_POINT('Origin',(0.,1.2,0.));
#727=CARTESIAN_POINT('',(5.50000000000001,1.2,18.));
#728=CARTESIAN_POINT('',(-10.5,1.2,18.));
#729=CARTESIAN_POINT('',(10.5,1.2,13.));
#730=CARTESIAN_POINT('Origin',(5.50000000000001,1.2,13.));
#731=CARTESIAN_POINT('',(10.5,1.2,5.24404424085076));
#732=CARTESIAN_POINT('',(10.5,1.2,18.));
#733=CARTESIAN_POINT('',(12.4047619047619,1.2,3.24631310147904));
#734=CARTESIAN_POINT('Origin',(12.5,1.2,5.24404424085076));
#735=CARTESIAN_POINT('',(11.7099125364432,1.2,-3.2048097496901));
#736=CARTESIAN_POINT('Origin',(12.25,1.2,-2.59703083239392E-15));
#737=CARTESIAN_POINT('',(9.55714285714286,1.2,-4.34868030650257));
#738=CARTESIAN_POINT('Origin',(11.3775510204082,1.2,-5.17700036488401));
#739=CARTESIAN_POINT('',(-9.55714285714286,1.2,-4.34868030650257));
#740=CARTESIAN_POINT('Origin',(0.,1.2,0.));
#741=CARTESIAN_POINT('',(-11.7099125364431,1.2,-3.2048097496901));
#742=CARTESIAN_POINT('Origin',(-11.3775510204082,1.2,-5.17700036488401));
#743=CARTESIAN_POINT('',(-12.4047619047619,1.2,3.24631310147904));
#744=CARTESIAN_POINT('Origin',(-12.25,1.2,2.59703083239392E-15));
#745=CARTESIAN_POINT('Origin',(-12.5,1.2,5.24404424085076));
#746=CARTESIAN_POINT('',(-3.75,1.2,-4.59242549680257E-16));
#747=CARTESIAN_POINT('Origin',(0.,1.2,0.));
#748=CARTESIAN_POINT('',(-8.71428571428572,1.2,1.9));
#749=CARTESIAN_POINT('',(-8.71428571428572,1.2,-1.9));
#750=CARTESIAN_POINT('',(-8.71428571428572,1.2,0.950000000000001));
#751=CARTESIAN_POINT('',(-7.08571428571429,1.2,-1.9));
#752=CARTESIAN_POINT('',(-4.35714285714286,1.2,-1.9));
#753=CARTESIAN_POINT('',(-7.08571428571429,1.2,1.9));
#754=CARTESIAN_POINT('',(-7.08571428571429,1.2,-0.95));
#755=CARTESIAN_POINT('',(-3.54285714285714,1.2,1.9));
#756=CARTESIAN_POINT('',(-10.65,1.2,-1.95943487863577E-16));
#757=CARTESIAN_POINT('Origin',(-12.25,1.2,0.));
#758=CARTESIAN_POINT('',(13.85,1.2,-1.95943487863577E-16));
#759=CARTESIAN_POINT('Origin',(12.25,1.2,0.));
#760=CARTESIAN_POINT('Origin',(5.50000000000001,1.2,13.));
#761=CARTESIAN_POINT('',(5.50000000000001,0.,18.));
#762=CARTESIAN_POINT('',(10.5,0.,13.));
#763=CARTESIAN_POINT('Origin',(5.50000000000001,0.,13.));
#764=CARTESIAN_POINT('',(10.5,1.2,13.));
#765=CARTESIAN_POINT('',(5.50000000000001,1.2,18.));
#766=CARTESIAN_POINT('Origin',(10.5,1.2,5.24404424085076));
#767=CARTESIAN_POINT('',(10.5,0.,5.24404424085076));
#768=CARTESIAN_POINT('',(10.5,0.,6.03485204379973));
#769=CARTESIAN_POINT('',(10.5,1.2,5.24404424085076));
#770=CARTESIAN_POINT('Origin',(8.8,0.,14.3));
#771=CARTESIAN_POINT('',(8.8,0.,14.3));
#772=CARTESIAN_POINT('',(8.8,0.,14.3));
#773=CARTESIAN_POINT('',(8.80000000000001,0.,7.15));
#774=CARTESIAN_POINT('Origin',(-8.8,0.,14.3));
#775=CARTESIAN_POINT('',(-4.4,0.,14.3));
#776=CARTESIAN_POINT('Origin',(0.,1.2,0.));
#777=CARTESIAN_POINT('',(-3.75,0.,4.59242549680257E-16));
#778=CARTESIAN_POINT('',(-3.75,1.2,-4.59242549680257E-16));
#779=CARTESIAN_POINT('Origin',(0.,0.,0.));
#780=CARTESIAN_POINT('Origin',(-7.08571428571429,1.2,-1.9));
#781=CARTESIAN_POINT('',(-7.08571428571429,0.,1.9));
#782=CARTESIAN_POINT('',(-7.08571428571429,0.,-1.9));
#783=CARTESIAN_POINT('',(-7.08571428571429,0.,-0.95));
#784=CARTESIAN_POINT('',(-7.08571428571429,1.2,1.9));
#785=CARTESIAN_POINT('',(-7.08571428571429,1.2,-1.9));
#786=CARTESIAN_POINT('Origin',(-8.71428571428572,1.2,-1.9));
#787=CARTESIAN_POINT('',(-8.71428571428572,0.,-1.9));
#788=CARTESIAN_POINT('',(-4.35714285714286,0.,-1.9));
#789=CARTESIAN_POINT('',(-8.71428571428572,1.2,-1.9));
#790=CARTESIAN_POINT('Origin',(-8.71428571428572,1.2,1.9));
#791=CARTESIAN_POINT('',(-8.71428571428572,0.,1.9));
#792=CARTESIAN_POINT('',(-8.71428571428572,0.,0.950000000000001));
#793=CARTESIAN_POINT('',(-8.71428571428572,1.2,1.9));
#794=CARTESIAN_POINT('Origin',(-7.08571428571429,1.2,1.9));
#795=CARTESIAN_POINT('',(-3.54285714285714,0.,1.9));
#796=CARTESIAN_POINT('Origin',(12.5,1.2,5.24404424085076));
#797=CARTESIAN_POINT('',(12.4047619047619,0.,3.24631310147904));
#798=CARTESIAN_POINT('Origin',(12.5,0.,5.24404424085076));
#799=CARTESIAN_POINT('',(12.4047619047619,1.2,3.24631310147904));
#800=CARTESIAN_POINT('Origin',(12.25,1.2,-2.59703083239392E-15));
#801=CARTESIAN_POINT('',(11.7099125364432,0.,-3.2048097496901));
#802=CARTESIAN_POINT('Origin',(12.25,0.,-2.59703083239392E-15));
#803=CARTESIAN_POINT('',(11.7099125364432,1.2,-3.2048097496901));
#804=CARTESIAN_POINT('Origin',(11.3775510204082,1.2,-5.17700036488401));
#805=CARTESIAN_POINT('',(9.55714285714286,0.,-4.34868030650257));
#806=CARTESIAN_POINT('Origin',(11.3775510204082,0.,-5.17700036488401));
#807=CARTESIAN_POINT('',(9.55714285714286,1.2,-4.34868030650257));
#808=CARTESIAN_POINT('Origin',(12.25,1.2,0.));
#809=CARTESIAN_POINT('',(13.85,0.,-1.95943487863577E-16));
#810=CARTESIAN_POINT('Origin',(12.25,0.,0.));
#811=CARTESIAN_POINT('',(13.85,1.2,1.95943487863577E-16));
#812=CARTESIAN_POINT('Origin',(-12.25,1.2,0.));
#813=CARTESIAN_POINT('',(-10.65,0.,-1.95943487863577E-16));
#814=CARTESIAN_POINT('Origin',(-12.25,0.,0.));
#815=CARTESIAN_POINT('',(-10.65,1.2,1.95943487863577E-16));
#816=CARTESIAN_POINT('Origin',(-11.3775510204082,1.2,-5.17700036488401));
#817=CARTESIAN_POINT('',(-11.7099125364431,0.,-3.2048097496901));
#818=CARTESIAN_POINT('',(-9.55714285714286,0.,-4.34868030650257));
#819=CARTESIAN_POINT('Origin',(-11.3775510204082,0.,-5.17700036488401));
#820=CARTESIAN_POINT('',(-11.7099125364431,1.2,-3.2048097496901));
#821=CARTESIAN_POINT('',(-9.55714285714286,1.2,-4.34868030650257));
#822=CARTESIAN_POINT('Origin',(-12.25,1.2,2.59703083239392E-15));
#823=CARTESIAN_POINT('',(-12.4047619047619,0.,3.24631310147904));
#824=CARTESIAN_POINT('Origin',(-12.25,0.,2.59703083239392E-15));
#825=CARTESIAN_POINT('',(-12.4047619047619,1.2,3.24631310147904));
#826=CARTESIAN_POINT('Origin',(-12.5,1.2,5.24404424085076));
#827=CARTESIAN_POINT('Origin',(-12.5,0.,5.24404424085076));
#828=CARTESIAN_POINT('Origin',(10.5,1.2,18.));
#829=CARTESIAN_POINT('',(5.25,0.,18.));
#830=CARTESIAN_POINT('Origin',(0.,0.,0.));
#831=CARTESIAN_POINT('Origin',(0.,0.,0.));
#832=CARTESIAN_POINT('Origin',(0.,0.,0.));
#833=UNCERTAINTY_MEASURE_WITH_UNIT(LENGTH_MEASURE(0.01),#837,
'DISTANCE_ACCURACY_VALUE',
'Maximum model space distance between geometric entities at asserted c
onnectivities');
#834=UNCERTAINTY_MEASURE_WITH_UNIT(LENGTH_MEASURE(0.01),#837,
'DISTANCE_ACCURACY_VALUE',
'Maximum model space distance between geometric entities at asserted c
onnectivities');
#835=(
GEOMETRIC_REPRESENTATION_CONTEXT(3)
GLOBAL_UNCERTAINTY_ASSIGNED_CONTEXT((#833))
GLOBAL_UNIT_ASSIGNED_CONTEXT((#837,#839,#840))
REPRESENTATION_CONTEXT('','3D')
);
#836=(
GEOMETRIC_REPRESENTATION_CONTEXT(3)
GLOBAL_UNCERTAINTY_ASSIGNED_CONTEXT((#834))
GLOBAL_UNIT_ASSIGNED_CONTEXT((#837,#839,#840))
REPRESENTATION_CONTEXT('','3D')
);
#837=(
LENGTH_UNIT()
NAMED_UNIT(*)
SI_UNIT(.MILLI.,.METRE.)
);
#838=(
LENGTH_UNIT()
NAMED_UNIT(*)
SI_UNIT(.CENTI.,.METRE.)
);
#839=(
NAMED_UNIT(*)
PLANE_ANGLE_UNIT()
SI_UNIT($,.RADIAN.)
);
#840=(
NAMED_UNIT(*)
SI_UNIT($,.STERADIAN.)
SOLID_ANGLE_UNIT()
);
#841=SHAPE_DEFINITION_REPRESENTATION(#842,#843);
#842=PRODUCT_DEFINITION_SHAPE('',$,#845);
#843=SHAPE_REPRESENTATION('',(#505),#835);
#844=PRODUCT_DEFINITION_CONTEXT('part definition',#849,'design');
#845=PRODUCT_DEFINITION('volume_case_upper','volume_case_upper',#846,#844);
#846=PRODUCT_DEFINITION_FORMATION('',$,#851);
#847=PRODUCT_RELATED_PRODUCT_CATEGORY('volume_case_upper',
'volume_case_upper',(#851));
#848=APPLICATION_PROTOCOL_DEFINITION('international standard',
'automotive_design',2009,#849);
#849=APPLICATION_CONTEXT(
'Core Data for Automotive Mechanical Design Process');
#850=PRODUCT_CONTEXT('part definition',#849,'mechanical');
#851=PRODUCT('volume_case_upper','volume_case_upper',$,(#850));
#852=PRESENTATION_STYLE_ASSIGNMENT((#854));
#853=PRESENTATION_STYLE_ASSIGNMENT((#855));
#854=SURFACE_STYLE_USAGE(.BOTH.,#860);
#855=SURFACE_STYLE_USAGE(.BOTH.,#861);
#856=SURFACE_STYLE_RENDERING_WITH_PROPERTIES($,#868,(#858));
#857=SURFACE_STYLE_RENDERING_WITH_PROPERTIES($,#869,(#859));
#858=SURFACE_STYLE_TRANSPARENT(0.);
#859=SURFACE_STYLE_TRANSPARENT(0.);
#860=SURFACE_SIDE_STYLE('',(#862,#856));
#861=SURFACE_SIDE_STYLE('',(#863,#857));
#862=SURFACE_STYLE_FILL_AREA(#864);
#863=SURFACE_STYLE_FILL_AREA(#865);
#864=FILL_AREA_STYLE('',(#866));
#865=FILL_AREA_STYLE('',(#867));
#866=FILL_AREA_STYLE_COLOUR('',#868);
#867=FILL_AREA_STYLE_COLOUR('',#869);
#868=COLOUR_RGB('',0.749019607843137,0.749019607843137,0.749019607843137);
#869=COLOUR_RGB('',0.352941176470588,0.352941176470588,0.352941176470588);
ENDSEC;
END-ISO-10303-21;
