M48
; DRILL file {KiCad 9.0.1} date 2026-01-26T09:22:20+0900
; FORMAT={-:-/ absolute / inch / decimal}
; #@! TF.CreationDate,2026-01-26T09:22:20+09:00
; #@! TF.GenerationSoftware,Kicad,Pcbnew,9.0.1
; #@! TF.FileFunction,Plated,1,2,PTH
FMAT,2
INCH
; #@! TA.AperFunction,Plated,PTH,ViaDrill
T1C0.0118
; #@! TA.AperFunction,Plated,PTH,ComponentDrill
T2C0.0236
; #@! TA.AperFunction,Plated,PTH,ComponentDrill
T3C0.0374
; #@! TA.AperFunction,Plated,PTH,ComponentDrill
T4C0.0394
%
G90
G05
T1
X5.8Y-4.6
X5.8Y-5.1
X5.8Y-5.2
X5.8Y-5.3
X5.8Y-5.4
X5.8Y-5.6
X5.8Y-5.8
X5.8041Y-4.7066
X5.8346Y-3.8764
X5.85Y-3.4
X5.85Y-3.45
X5.85Y-3.5
X5.85Y-3.725
X5.85Y-3.775
X5.85Y-4.05
X5.8754Y-3.3475
X5.8772Y-3.8807
X5.9Y-4.3
X5.9Y-4.4
X5.9Y-4.8
X5.9Y-4.9
X5.925Y-3.95
X5.925Y-4.0
X5.9361Y-3.5611
X5.95Y-3.5
X5.9526Y-5.777
X5.975Y-3.75
X5.9811Y-3.8153
X6.0Y-3.5
X6.0Y-4.2
X6.0Y-4.3
X6.0Y-4.4
X6.0Y-4.8
X6.0Y-5.1
X6.0Y-5.6
X6.002Y-5.01
X6.025Y-4.05
X6.0333Y-4.8131
X6.0407Y-4.35
X6.05Y-3.5
X6.075Y-2.425
X6.075Y-2.475
X6.09Y-2.77
X6.1Y-3.5
X6.1Y-3.825
X6.1Y-5.3
X6.1Y-5.5
X6.12Y-2.74
X6.125Y-2.425
X6.125Y-2.475
X6.125Y-3.975
X6.125Y-4.05
X6.125Y-4.125
X6.1282Y-3.0081
X6.13Y-2.71
X6.1442Y-5.7718
X6.1457Y-3.7758
X6.1486Y-2.9044
X6.149Y-4.7066
X6.1661Y-4.0
X6.1691Y-2.9749
X6.1692Y-3.0348
X6.1703Y-2.6802
X6.1754Y-2.6034
X6.1865Y-3.826
X6.2Y-4.4
X6.2Y-4.6
X6.2Y-5.0
X6.2Y-5.3
X6.2Y-5.6
X6.2205Y-2.9756
X6.2246Y-3.495
X6.245Y-3.365
X6.2688Y-2.7356
X6.2761Y-2.8715
X6.2794Y-2.5301
X6.2803Y-2.7811
X6.2831Y-2.9162
X6.2876Y-3.6426
X6.2897Y-2.8277
X6.3Y-2.6
X6.3Y-4.9
X6.3Y-5.5
X6.3037Y-3.5624
X6.3068Y-3.4362
X6.325Y-4.125
X6.35Y-2.475
X6.35Y-2.6
X6.35Y-2.7
X6.35Y-2.75
X6.35Y-2.85
X6.3589Y-3.6756
X6.3638Y-3.5693
X6.38Y-3.15
X6.3879Y-5.1544
X6.39Y-3.04
X6.3919Y-3.2458
X6.3966Y-3.359
X6.3985Y-4.6236
X6.4Y-2.475
X6.4Y-2.6
X6.4Y-2.7
X6.4Y-2.75
X6.4Y-2.85
X6.4Y-2.9
X6.4Y-4.2
X6.4Y-4.4
X6.4Y-5.0
X6.4Y-5.6
X6.4Y-5.8
X6.4143Y-3.5342
X6.45Y-2.475
X6.45Y-2.6
X6.45Y-2.85
X6.45Y-2.9
X6.4724Y-3.02
X6.4945Y-3.3769
X6.4961Y-4.8212
X6.5Y-2.475
X6.5Y-2.6
X6.5Y-2.85
X6.5Y-2.9
X6.5Y-3.22
X6.5Y-4.1
X6.5Y-4.9
X6.5Y-5.1
X6.5Y-5.5
X6.5339Y-3.5447
X6.55Y-2.475
X6.55Y-2.6
X6.55Y-2.9
X6.56Y-3.06
X6.56Y-3.44
X6.575Y-4.1
X6.5912Y-3.16
X6.6Y-2.475
X6.6Y-2.6
X6.6Y-2.7
X6.6Y-2.75
X6.6Y-3.23
X6.6Y-4.2
X6.6Y-4.3
X6.6Y-4.4
X6.6Y-5.0
X6.6Y-5.2
X6.6Y-5.6
X6.6Y-5.8
X6.6162Y-3.8281
X6.625Y-3.2045
X6.6303Y-3.2606
X6.6322Y-3.027
X6.6385Y-3.1077
X6.64Y-3.64
X6.64Y-3.7
X6.64Y-3.76
X6.643Y-3.3342
X6.65Y-2.475
X6.65Y-2.6
X6.65Y-2.7
X6.65Y-2.75
X6.65Y-2.8
X6.65Y-3.9
X6.65Y-4.0
X6.66Y-3.16
X6.7Y-2.475
X6.7Y-2.6
X6.7Y-2.7
X6.7Y-2.75
X6.7Y-2.8
X6.7Y-2.85
X6.7Y-4.3
X6.7Y-4.4
X6.7Y-4.9
X6.7Y-5.1
X6.7Y-5.5
X6.7047Y-3.3364
X6.7054Y-3.2059
X6.725Y-3.425
X6.7275Y-5.85
X6.74Y-3.08
X6.7472Y-3.219
X6.7509Y-3.3402
X6.76Y-3.1
X6.7653Y-3.4566
X6.775Y-3.575
X6.7993Y-3.1768
X6.7993Y-3.2241
X6.8Y-4.4
X6.8Y-5.0
X6.8Y-5.6
X6.825Y-2.425
X6.8356Y-4.7066
X6.8443Y-5.776
X6.85Y-2.675
X6.85Y-2.825
X6.85Y-2.9
X6.8682Y-3.6179
X6.8685Y-3.9204
X6.875Y-2.425
X6.875Y-2.525
X6.8865Y-3.2029
X6.925Y-2.425
X6.925Y-2.525
X6.925Y-3.5
X6.925Y-4.025
X6.9306Y-2.9413
X6.9411Y-2.6439
X6.95Y-3.2
X6.9588Y-5.3939
X6.9598Y-2.8629
X6.97Y-2.81
X6.9886Y-4.8397
X6.99Y-3.12
X7.0Y-3.0
X7.0Y-3.5
X7.0Y-4.1
X7.0Y-4.2
X7.0Y-4.3
X7.0Y-4.4
X7.0Y-4.6
X7.0Y-5.1
X7.0Y-5.2
X7.0Y-5.3
X7.0Y-5.6
X7.025Y-3.95
X7.025Y-4.0
X7.0372Y-3.7982
X7.04Y-3.2
X7.0466Y-5.7731
X7.05Y-3.75
X7.06Y-2.9
X7.07Y-3.23
X7.075Y-2.425
X7.1Y-2.65
X7.1Y-3.5
X7.1Y-3.7
X7.1Y-3.8
X7.1Y-4.3
X7.1Y-4.4
X7.1Y-5.0
X7.1Y-5.1
X7.1Y-5.5
X7.1061Y-4.8478
X7.1129Y-3.8739
X7.125Y-2.7
X7.125Y-3.425
X7.15Y-2.81
X7.15Y-3.11
X7.15Y-3.75
X7.15Y-3.975
X7.15Y-4.025
X7.15Y-4.15
X7.175Y-4.1
X7.1831Y-5.01
X7.188Y-2.7272
X7.188Y-4.7066
X7.19Y-4.64
X7.2Y-2.81
X7.2Y-3.11
X7.2Y-3.34
X7.2Y-4.4
X7.2Y-5.1
X7.2Y-5.4
X7.2Y-5.6
X7.2Y-5.8
X7.2001Y-3.9047
T3
X5.9055Y-4.5016
X5.9055Y-4.6
X5.9055Y-4.6984
X5.9055Y-5.2
X5.9055Y-5.2984
X5.9055Y-5.3969
X5.9055Y-5.725
X6.0039Y-5.725
X6.1024Y-5.725
X6.2008Y-5.725
X6.2992Y-4.5
X6.2992Y-4.5984
X6.2992Y-4.6969
X6.2992Y-5.2016
X6.2992Y-5.3
X6.2992Y-5.3984
X6.6929Y-4.5016
X6.6929Y-4.6
X6.6929Y-4.6984
X6.6929Y-5.2031
X6.6929Y-5.3016
X6.6929Y-5.4
X6.7972Y-5.725
X6.8957Y-5.725
X6.9941Y-5.725
X7.0866Y-4.5
X7.0866Y-4.5984
X7.0866Y-4.6969
X7.0866Y-5.2016
X7.0866Y-5.3
X7.0866Y-5.3984
X7.0925Y-5.725
T4
X5.9Y-2.475
X6.0Y-2.475
X6.25Y-3.7
X6.25Y-3.8
X6.25Y-3.9
X6.25Y-4.0
X6.25Y-4.1
X6.4461Y-3.7
X6.4461Y-3.85
X6.4461Y-4.0
X6.5461Y-3.7
X6.5461Y-3.85
X6.5461Y-4.0
X6.75Y-3.7
X6.75Y-3.8
X6.75Y-3.9
X6.75Y-4.0
T2
G00X5.8618Y-3.5848
M15
G01X5.8382Y-3.5848
M16
G05
G00X5.8618Y-3.925
M15
G01X5.8382Y-3.925
M16
G05
G00X6.0362Y-3.5848
M15
G01X5.9929Y-3.5848
M16
G05
G00X6.0362Y-3.925
M15
G01X5.9929Y-3.925
M16
G05
G00X6.9388Y-3.5799
M15
G01X6.9821Y-3.5799
M16
G05
G00X6.9388Y-3.9201
M15
G01X6.9821Y-3.9201
M16
G05
G00X7.1132Y-3.5799
M15
G01X7.1368Y-3.5799
M16
G05
G00X7.1132Y-3.9201
M15
G01X7.1368Y-3.9201
M16
G05
M30
