ISO-10303-21;
HEADER;
/* Generated by software containing ST-Developer
 * from STEP Tools, Inc. (www.steptools.com) 
 */

FILE_DESCRIPTION(
/* description */ (''),
/* implementation_level */ '2;1');

FILE_NAME(
/* name */ 'handle_monitor_case_side.stp',
/* time_stamp */ '2026-02-03T17:45:25+09:00',
/* author */ ('hibik'),
/* organization */ (''),
/* preprocessor_version */ 'ST-DEVELOPER v20.1',
/* originating_system */ 'Autodesk Inventor 2026',
/* authorisation */ '');

FILE_SCHEMA (('AUTOMOTIVE_DESIGN { 1 0 10303 214 3 1 1 }'));
ENDSEC;

DATA;
#10=MECHANICAL_DESIGN_GEOMETRIC_PRESENTATION_REPRESENTATION('',(#13),#1423);
#11=SHAPE_REPRESENTATION_RELATIONSHIP('SRR','None',#1430,#12);
#12=ADVANCED_BREP_SHAPE_REPRESENTATION('',(#14),#1422);
#13=STYLED_ITEM('',(#1440),#14);
#14=MANIFOLD_SOLID_BREP('\X2\30BD30EA30C330C9\X0\1',#854);
#15=ELLIPSE('',#921,20.991186980828,20.);
#16=ELLIPSE('',#922,20.9911869808447,20.);
#17=ELLIPSE('',#928,22.5655260043901,21.5);
#18=ELLIPSE('',#937,22.565526004408,21.5);
#19=ELLIPSE('',#938,0.524779674521118,0.5);
#20=ELLIPSE('',#939,2.09911869808447,2.);
#21=FACE_BOUND('',#125,.T.);
#22=FACE_BOUND('',#126,.T.);
#23=FACE_BOUND('',#127,.T.);
#24=FACE_BOUND('',#128,.T.);
#25=FACE_BOUND('',#139,.T.);
#26=FACE_BOUND('',#140,.T.);
#27=FACE_BOUND('',#141,.T.);
#28=FACE_BOUND('',#142,.T.);
#29=FACE_BOUND('',#151,.T.);
#30=FACE_BOUND('',#155,.T.);
#31=PLANE('',#889);
#32=PLANE('',#890);
#33=PLANE('',#894);
#34=PLANE('',#895);
#35=PLANE('',#899);
#36=PLANE('',#900);
#37=PLANE('',#904);
#38=PLANE('',#908);
#39=PLANE('',#909);
#40=PLANE('',#910);
#41=PLANE('',#911);
#42=PLANE('',#912);
#43=PLANE('',#913);
#44=PLANE('',#914);
#45=PLANE('',#915);
#46=PLANE('',#916);
#47=PLANE('',#917);
#48=PLANE('',#918);
#49=PLANE('',#919);
#50=PLANE('',#924);
#51=PLANE('',#925);
#52=PLANE('',#926);
#53=PLANE('',#927);
#54=PLANE('',#929);
#55=PLANE('',#933);
#56=PLANE('',#934);
#57=PLANE('',#935);
#58=PLANE('',#936);
#59=PLANE('',#940);
#60=PLANE('',#943);
#61=PLANE('',#945);
#62=FACE_OUTER_BOUND('',#105,.T.);
#63=FACE_OUTER_BOUND('',#106,.T.);
#64=FACE_OUTER_BOUND('',#107,.T.);
#65=FACE_OUTER_BOUND('',#108,.T.);
#66=FACE_OUTER_BOUND('',#109,.T.);
#67=FACE_OUTER_BOUND('',#110,.T.);
#68=FACE_OUTER_BOUND('',#111,.T.);
#69=FACE_OUTER_BOUND('',#112,.T.);
#70=FACE_OUTER_BOUND('',#113,.T.);
#71=FACE_OUTER_BOUND('',#114,.T.);
#72=FACE_OUTER_BOUND('',#115,.T.);
#73=FACE_OUTER_BOUND('',#116,.T.);
#74=FACE_OUTER_BOUND('',#117,.T.);
#75=FACE_OUTER_BOUND('',#118,.T.);
#76=FACE_OUTER_BOUND('',#119,.T.);
#77=FACE_OUTER_BOUND('',#120,.T.);
#78=FACE_OUTER_BOUND('',#121,.T.);
#79=FACE_OUTER_BOUND('',#122,.T.);
#80=FACE_OUTER_BOUND('',#123,.T.);
#81=FACE_OUTER_BOUND('',#124,.T.);
#82=FACE_OUTER_BOUND('',#129,.T.);
#83=FACE_OUTER_BOUND('',#130,.T.);
#84=FACE_OUTER_BOUND('',#131,.T.);
#85=FACE_OUTER_BOUND('',#132,.T.);
#86=FACE_OUTER_BOUND('',#133,.T.);
#87=FACE_OUTER_BOUND('',#134,.T.);
#88=FACE_OUTER_BOUND('',#135,.T.);
#89=FACE_OUTER_BOUND('',#136,.T.);
#90=FACE_OUTER_BOUND('',#137,.T.);
#91=FACE_OUTER_BOUND('',#138,.T.);
#92=FACE_OUTER_BOUND('',#143,.T.);
#93=FACE_OUTER_BOUND('',#144,.T.);
#94=FACE_OUTER_BOUND('',#145,.T.);
#95=FACE_OUTER_BOUND('',#146,.T.);
#96=FACE_OUTER_BOUND('',#147,.T.);
#97=FACE_OUTER_BOUND('',#148,.T.);
#98=FACE_OUTER_BOUND('',#149,.T.);
#99=FACE_OUTER_BOUND('',#150,.T.);
#100=FACE_OUTER_BOUND('',#152,.T.);
#101=FACE_OUTER_BOUND('',#153,.T.);
#102=FACE_OUTER_BOUND('',#154,.T.);
#103=FACE_OUTER_BOUND('',#156,.T.);
#104=FACE_OUTER_BOUND('',#157,.T.);
#105=EDGE_LOOP('',(#561,#562,#563,#564));
#106=EDGE_LOOP('',(#565,#566,#567,#568));
#107=EDGE_LOOP('',(#569,#570,#571,#572));
#108=EDGE_LOOP('',(#573,#574,#575,#576));
#109=EDGE_LOOP('',(#577,#578,#579,#580));
#110=EDGE_LOOP('',(#581,#582,#583,#584));
#111=EDGE_LOOP('',(#585,#586,#587,#588));
#112=EDGE_LOOP('',(#589,#590,#591,#592));
#113=EDGE_LOOP('',(#593,#594,#595,#596));
#114=EDGE_LOOP('',(#597,#598,#599,#600));
#115=EDGE_LOOP('',(#601,#602,#603,#604));
#116=EDGE_LOOP('',(#605,#606,#607,#608));
#117=EDGE_LOOP('',(#609,#610,#611,#612));
#118=EDGE_LOOP('',(#613,#614,#615,#616));
#119=EDGE_LOOP('',(#617,#618,#619,#620));
#120=EDGE_LOOP('',(#621,#622,#623,#624));
#121=EDGE_LOOP('',(#625,#626,#627,#628));
#122=EDGE_LOOP('',(#629,#630,#631,#632));
#123=EDGE_LOOP('',(#633,#634,#635,#636));
#124=EDGE_LOOP('',(#637,#638,#639,#640));
#125=EDGE_LOOP('',(#641));
#126=EDGE_LOOP('',(#642));
#127=EDGE_LOOP('',(#643));
#128=EDGE_LOOP('',(#644,#645,#646,#647,#648,#649,#650,#651,#652,#653,#654,
#655,#656,#657,#658,#659,#660,#661,#662,#663));
#129=EDGE_LOOP('',(#664,#665,#666,#667));
#130=EDGE_LOOP('',(#668,#669,#670,#671));
#131=EDGE_LOOP('',(#672,#673,#674,#675));
#132=EDGE_LOOP('',(#676,#677,#678,#679));
#133=EDGE_LOOP('',(#680,#681,#682,#683));
#134=EDGE_LOOP('',(#684,#685,#686,#687));
#135=EDGE_LOOP('',(#688,#689,#690,#691));
#136=EDGE_LOOP('',(#692,#693,#694,#695,#696));
#137=EDGE_LOOP('',(#697,#698,#699,#700));
#138=EDGE_LOOP('',(#701,#702,#703,#704));
#139=EDGE_LOOP('',(#705));
#140=EDGE_LOOP('',(#706));
#141=EDGE_LOOP('',(#707));
#142=EDGE_LOOP('',(#708,#709,#710,#711,#712,#713,#714,#715,#716,#717,#718,
#719,#720,#721,#722,#723,#724,#725,#726,#727));
#143=EDGE_LOOP('',(#728,#729,#730,#731));
#144=EDGE_LOOP('',(#732,#733,#734,#735));
#145=EDGE_LOOP('',(#736,#737,#738,#739,#740,#741,#742,#743,#744,#745));
#146=EDGE_LOOP('',(#746,#747,#748,#749));
#147=EDGE_LOOP('',(#750,#751,#752,#753));
#148=EDGE_LOOP('',(#754,#755,#756,#757));
#149=EDGE_LOOP('',(#758,#759,#760,#761,#762,#763,#764,#765,#766,#767));
#150=EDGE_LOOP('',(#768,#769,#770,#771,#772,#773));
#151=EDGE_LOOP('',(#774));
#152=EDGE_LOOP('',(#775,#776,#777,#778,#779));
#153=EDGE_LOOP('',(#780,#781,#782,#783));
#154=EDGE_LOOP('',(#784,#785,#786,#787,#788,#789));
#155=EDGE_LOOP('',(#790));
#156=EDGE_LOOP('',(#791,#792,#793,#794));
#157=EDGE_LOOP('',(#795,#796,#797,#798));
#158=LINE('',#1184,#251);
#159=LINE('',#1190,#252);
#160=LINE('',#1196,#253);
#161=LINE('',#1202,#254);
#162=LINE('',#1207,#255);
#163=LINE('',#1209,#256);
#164=LINE('',#1211,#257);
#165=LINE('',#1212,#258);
#166=LINE('',#1216,#259);
#167=LINE('',#1218,#260);
#168=LINE('',#1220,#261);
#169=LINE('',#1221,#262);
#170=LINE('',#1227,#263);
#171=LINE('',#1230,#264);
#172=LINE('',#1232,#265);
#173=LINE('',#1233,#266);
#174=LINE('',#1237,#267);
#175=LINE('',#1239,#268);
#176=LINE('',#1241,#269);
#177=LINE('',#1242,#270);
#178=LINE('',#1249,#271);
#179=LINE('',#1251,#272);
#180=LINE('',#1253,#273);
#181=LINE('',#1254,#274);
#182=LINE('',#1258,#275);
#183=LINE('',#1260,#276);
#184=LINE('',#1262,#277);
#185=LINE('',#1263,#278);
#186=LINE('',#1269,#279);
#187=LINE('',#1272,#280);
#188=LINE('',#1274,#281);
#189=LINE('',#1275,#282);
#190=LINE('',#1280,#283);
#191=LINE('',#1284,#284);
#192=LINE('',#1286,#285);
#193=LINE('',#1287,#286);
#194=LINE('',#1290,#287);
#195=LINE('',#1292,#288);
#196=LINE('',#1293,#289);
#197=LINE('',#1295,#290);
#198=LINE('',#1296,#291);
#199=LINE('',#1299,#292);
#200=LINE('',#1301,#293);
#201=LINE('',#1302,#294);
#202=LINE('',#1306,#295);
#203=LINE('',#1308,#296);
#204=LINE('',#1310,#297);
#205=LINE('',#1311,#298);
#206=LINE('',#1313,#299);
#207=LINE('',#1314,#300);
#208=LINE('',#1315,#301);
#209=LINE('',#1317,#302);
#210=LINE('',#1318,#303);
#211=LINE('',#1321,#304);
#212=LINE('',#1322,#305);
#213=LINE('',#1324,#306);
#214=LINE('',#1326,#307);
#215=LINE('',#1329,#308);
#216=LINE('',#1330,#309);
#217=LINE('',#1332,#310);
#218=LINE('',#1336,#311);
#219=LINE('',#1338,#312);
#220=LINE('',#1340,#313);
#221=LINE('',#1341,#314);
#222=LINE('',#1344,#315);
#223=LINE('',#1346,#316);
#224=LINE('',#1347,#317);
#225=LINE('',#1353,#318);
#226=LINE('',#1357,#319);
#227=LINE('',#1361,#320);
#228=LINE('',#1363,#321);
#229=LINE('',#1364,#322);
#230=LINE('',#1367,#323);
#231=LINE('',#1369,#324);
#232=LINE('',#1370,#325);
#233=LINE('',#1372,#326);
#234=LINE('',#1373,#327);
#235=LINE('',#1376,#328);
#236=LINE('',#1382,#329);
#237=LINE('',#1384,#330);
#238=LINE('',#1386,#331);
#239=LINE('',#1390,#332);
#240=LINE('',#1393,#333);
#241=LINE('',#1394,#334);
#242=LINE('',#1396,#335);
#243=LINE('',#1398,#336);
#244=LINE('',#1403,#337);
#245=LINE('',#1406,#338);
#246=LINE('',#1408,#339);
#247=LINE('',#1411,#340);
#248=LINE('',#1413,#341);
#249=LINE('',#1416,#342);
#250=LINE('',#1418,#343);
#251=VECTOR('',#952,0.999999999999996);
#252=VECTOR('',#959,1.);
#253=VECTOR('',#966,0.999999999999996);
#254=VECTOR('',#973,1.);
#255=VECTOR('',#978,10.);
#256=VECTOR('',#979,10.);
#257=VECTOR('',#980,10.);
#258=VECTOR('',#981,10.);
#259=VECTOR('',#984,10.);
#260=VECTOR('',#985,10.);
#261=VECTOR('',#986,10.);
#262=VECTOR('',#987,10.);
#263=VECTOR('',#994,10.);
#264=VECTOR('',#997,10.);
#265=VECTOR('',#998,10.);
#266=VECTOR('',#999,10.);
#267=VECTOR('',#1002,10.);
#268=VECTOR('',#1003,10.);
#269=VECTOR('',#1004,10.);
#270=VECTOR('',#1005,10.);
#271=VECTOR('',#1014,10.);
#272=VECTOR('',#1015,10.);
#273=VECTOR('',#1016,10.);
#274=VECTOR('',#1017,10.);
#275=VECTOR('',#1020,10.);
#276=VECTOR('',#1021,10.);
#277=VECTOR('',#1022,10.);
#278=VECTOR('',#1023,10.);
#279=VECTOR('',#1030,10.);
#280=VECTOR('',#1033,10.);
#281=VECTOR('',#1034,10.);
#282=VECTOR('',#1035,10.);
#283=VECTOR('',#1040,10.);
#284=VECTOR('',#1045,10.);
#285=VECTOR('',#1046,10.);
#286=VECTOR('',#1047,10.);
#287=VECTOR('',#1050,10.);
#288=VECTOR('',#1051,10.);
#289=VECTOR('',#1052,10.);
#290=VECTOR('',#1055,10.);
#291=VECTOR('',#1056,10.);
#292=VECTOR('',#1059,10.);
#293=VECTOR('',#1060,10.);
#294=VECTOR('',#1061,10.);
#295=VECTOR('',#1064,10.);
#296=VECTOR('',#1065,10.);
#297=VECTOR('',#1066,10.);
#298=VECTOR('',#1067,10.);
#299=VECTOR('',#1068,10.);
#300=VECTOR('',#1069,10.);
#301=VECTOR('',#1070,10.);
#302=VECTOR('',#1071,10.);
#303=VECTOR('',#1072,10.);
#304=VECTOR('',#1075,10.);
#305=VECTOR('',#1076,10.);
#306=VECTOR('',#1079,10.);
#307=VECTOR('',#1082,10.);
#308=VECTOR('',#1085,10.);
#309=VECTOR('',#1086,10.);
#310=VECTOR('',#1089,10.);
#311=VECTOR('',#1092,10.);
#312=VECTOR('',#1093,10.);
#313=VECTOR('',#1094,10.);
#314=VECTOR('',#1095,10.);
#315=VECTOR('',#1098,10.);
#316=VECTOR('',#1099,10.);
#317=VECTOR('',#1100,10.);
#318=VECTOR('',#1105,10.);
#319=VECTOR('',#1108,10.);
#320=VECTOR('',#1113,10.);
#321=VECTOR('',#1114,10.);
#322=VECTOR('',#1115,10.);
#323=VECTOR('',#1118,10.);
#324=VECTOR('',#1119,10.);
#325=VECTOR('',#1120,10.);
#326=VECTOR('',#1123,10.);
#327=VECTOR('',#1124,10.);
#328=VECTOR('',#1127,10.);
#329=VECTOR('',#1134,10.);
#330=VECTOR('',#1135,10.);
#331=VECTOR('',#1136,10.);
#332=VECTOR('',#1139,10.);
#333=VECTOR('',#1144,10.);
#334=VECTOR('',#1145,10.);
#335=VECTOR('',#1148,10.);
#336=VECTOR('',#1151,10.);
#337=VECTOR('',#1156,10.);
#338=VECTOR('',#1159,10.);
#339=VECTOR('',#1160,10.);
#340=VECTOR('',#1165,10.);
#341=VECTOR('',#1168,10.);
#342=VECTOR('',#1173,10.);
#343=VECTOR('',#1176,10.);
#344=CIRCLE('',#878,0.999999999999996);
#345=CIRCLE('',#879,0.999999999999996);
#346=CIRCLE('',#881,1.);
#347=CIRCLE('',#882,1.);
#348=CIRCLE('',#884,0.999999999999996);
#349=CIRCLE('',#885,0.999999999999996);
#350=CIRCLE('',#887,1.);
#351=CIRCLE('',#888,1.);
#352=CIRCLE('',#892,2.);
#353=CIRCLE('',#893,2.);
#354=CIRCLE('',#897,2.);
#355=CIRCLE('',#898,2.);
#356=CIRCLE('',#902,2.);
#357=CIRCLE('',#903,2.);
#358=CIRCLE('',#906,2.);
#359=CIRCLE('',#907,2.);
#360=CIRCLE('',#923,20.);
#361=CIRCLE('',#930,2.);
#362=CIRCLE('',#931,0.5);
#363=CIRCLE('',#932,21.5);
#364=VERTEX_POINT('',#1181);
#365=VERTEX_POINT('',#1183);
#366=VERTEX_POINT('',#1187);
#367=VERTEX_POINT('',#1189);
#368=VERTEX_POINT('',#1193);
#369=VERTEX_POINT('',#1195);
#370=VERTEX_POINT('',#1199);
#371=VERTEX_POINT('',#1201);
#372=VERTEX_POINT('',#1205);
#373=VERTEX_POINT('',#1206);
#374=VERTEX_POINT('',#1208);
#375=VERTEX_POINT('',#1210);
#376=VERTEX_POINT('',#1214);
#377=VERTEX_POINT('',#1215);
#378=VERTEX_POINT('',#1217);
#379=VERTEX_POINT('',#1219);
#380=VERTEX_POINT('',#1223);
#381=VERTEX_POINT('',#1225);
#382=VERTEX_POINT('',#1229);
#383=VERTEX_POINT('',#1231);
#384=VERTEX_POINT('',#1235);
#385=VERTEX_POINT('',#1236);
#386=VERTEX_POINT('',#1238);
#387=VERTEX_POINT('',#1240);
#388=VERTEX_POINT('',#1247);
#389=VERTEX_POINT('',#1248);
#390=VERTEX_POINT('',#1250);
#391=VERTEX_POINT('',#1252);
#392=VERTEX_POINT('',#1256);
#393=VERTEX_POINT('',#1257);
#394=VERTEX_POINT('',#1259);
#395=VERTEX_POINT('',#1261);
#396=VERTEX_POINT('',#1265);
#397=VERTEX_POINT('',#1267);
#398=VERTEX_POINT('',#1271);
#399=VERTEX_POINT('',#1273);
#400=VERTEX_POINT('',#1277);
#401=VERTEX_POINT('',#1279);
#402=VERTEX_POINT('',#1283);
#403=VERTEX_POINT('',#1285);
#404=VERTEX_POINT('',#1289);
#405=VERTEX_POINT('',#1291);
#406=VERTEX_POINT('',#1298);
#407=VERTEX_POINT('',#1300);
#408=VERTEX_POINT('',#1304);
#409=VERTEX_POINT('',#1305);
#410=VERTEX_POINT('',#1307);
#411=VERTEX_POINT('',#1309);
#412=VERTEX_POINT('',#1312);
#413=VERTEX_POINT('',#1316);
#414=VERTEX_POINT('',#1320);
#415=VERTEX_POINT('',#1328);
#416=VERTEX_POINT('',#1334);
#417=VERTEX_POINT('',#1335);
#418=VERTEX_POINT('',#1337);
#419=VERTEX_POINT('',#1339);
#420=VERTEX_POINT('',#1343);
#421=VERTEX_POINT('',#1345);
#422=VERTEX_POINT('',#1349);
#423=VERTEX_POINT('',#1350);
#424=VERTEX_POINT('',#1352);
#425=VERTEX_POINT('',#1354);
#426=VERTEX_POINT('',#1356);
#427=VERTEX_POINT('',#1360);
#428=VERTEX_POINT('',#1362);
#429=VERTEX_POINT('',#1366);
#430=VERTEX_POINT('',#1368);
#431=VERTEX_POINT('',#1375);
#432=VERTEX_POINT('',#1379);
#433=VERTEX_POINT('',#1381);
#434=VERTEX_POINT('',#1383);
#435=VERTEX_POINT('',#1385);
#436=VERTEX_POINT('',#1387);
#437=VERTEX_POINT('',#1389);
#438=VERTEX_POINT('',#1400);
#439=VERTEX_POINT('',#1402);
#440=VERTEX_POINT('',#1404);
#441=VERTEX_POINT('',#1407);
#442=EDGE_CURVE('',#364,#364,#344,.T.);
#443=EDGE_CURVE('',#364,#365,#158,.T.);
#444=EDGE_CURVE('',#365,#365,#345,.T.);
#445=EDGE_CURVE('',#366,#366,#346,.T.);
#446=EDGE_CURVE('',#366,#367,#159,.T.);
#447=EDGE_CURVE('',#367,#367,#347,.T.);
#448=EDGE_CURVE('',#368,#368,#348,.T.);
#449=EDGE_CURVE('',#368,#369,#160,.T.);
#450=EDGE_CURVE('',#369,#369,#349,.T.);
#451=EDGE_CURVE('',#370,#370,#350,.T.);
#452=EDGE_CURVE('',#370,#371,#161,.T.);
#453=EDGE_CURVE('',#371,#371,#351,.T.);
#454=EDGE_CURVE('',#372,#373,#162,.T.);
#455=EDGE_CURVE('',#374,#372,#163,.T.);
#456=EDGE_CURVE('',#375,#374,#164,.T.);
#457=EDGE_CURVE('',#375,#373,#165,.T.);
#458=EDGE_CURVE('',#376,#377,#166,.T.);
#459=EDGE_CURVE('',#378,#376,#167,.T.);
#460=EDGE_CURVE('',#379,#378,#168,.T.);
#461=EDGE_CURVE('',#377,#379,#169,.T.);
#462=EDGE_CURVE('',#373,#380,#352,.T.);
#463=EDGE_CURVE('',#381,#375,#353,.T.);
#464=EDGE_CURVE('',#381,#380,#170,.T.);
#465=EDGE_CURVE('',#380,#382,#171,.T.);
#466=EDGE_CURVE('',#383,#381,#172,.T.);
#467=EDGE_CURVE('',#382,#383,#173,.T.);
#468=EDGE_CURVE('',#384,#385,#174,.T.);
#469=EDGE_CURVE('',#386,#384,#175,.T.);
#470=EDGE_CURVE('',#387,#386,#176,.T.);
#471=EDGE_CURVE('',#387,#385,#177,.T.);
#472=EDGE_CURVE('',#385,#376,#354,.T.);
#473=EDGE_CURVE('',#378,#387,#355,.T.);
#474=EDGE_CURVE('',#388,#389,#178,.T.);
#475=EDGE_CURVE('',#390,#388,#179,.T.);
#476=EDGE_CURVE('',#391,#390,#180,.T.);
#477=EDGE_CURVE('',#391,#389,#181,.T.);
#478=EDGE_CURVE('',#392,#393,#182,.T.);
#479=EDGE_CURVE('',#394,#392,#183,.T.);
#480=EDGE_CURVE('',#395,#394,#184,.T.);
#481=EDGE_CURVE('',#393,#395,#185,.T.);
#482=EDGE_CURVE('',#389,#396,#356,.T.);
#483=EDGE_CURVE('',#397,#391,#357,.T.);
#484=EDGE_CURVE('',#397,#396,#186,.T.);
#485=EDGE_CURVE('',#396,#398,#187,.T.);
#486=EDGE_CURVE('',#399,#397,#188,.T.);
#487=EDGE_CURVE('',#398,#399,#189,.T.);
#488=EDGE_CURVE('',#400,#392,#358,.T.);
#489=EDGE_CURVE('',#401,#400,#190,.T.);
#490=EDGE_CURVE('',#394,#401,#359,.T.);
#491=EDGE_CURVE('',#402,#400,#191,.T.);
#492=EDGE_CURVE('',#403,#402,#192,.T.);
#493=EDGE_CURVE('',#401,#403,#193,.T.);
#494=EDGE_CURVE('',#404,#402,#194,.T.);
#495=EDGE_CURVE('',#405,#404,#195,.T.);
#496=EDGE_CURVE('',#403,#405,#196,.T.);
#497=EDGE_CURVE('',#393,#384,#197,.T.);
#498=EDGE_CURVE('',#386,#395,#198,.T.);
#499=EDGE_CURVE('',#406,#379,#199,.T.);
#500=EDGE_CURVE('',#406,#407,#200,.T.);
#501=EDGE_CURVE('',#377,#407,#201,.T.);
#502=EDGE_CURVE('',#408,#409,#202,.T.);
#503=EDGE_CURVE('',#409,#410,#203,.T.);
#504=EDGE_CURVE('',#410,#411,#204,.T.);
#505=EDGE_CURVE('',#411,#408,#205,.T.);
#506=EDGE_CURVE('',#405,#412,#206,.T.);
#507=EDGE_CURVE('',#412,#399,#207,.T.);
#508=EDGE_CURVE('',#390,#383,#208,.T.);
#509=EDGE_CURVE('',#374,#413,#209,.T.);
#510=EDGE_CURVE('',#413,#406,#210,.T.);
#511=EDGE_CURVE('',#412,#414,#211,.T.);
#512=EDGE_CURVE('',#398,#414,#212,.T.);
#513=EDGE_CURVE('',#382,#388,#213,.T.);
#514=EDGE_CURVE('',#414,#404,#214,.T.);
#515=EDGE_CURVE('',#407,#415,#215,.T.);
#516=EDGE_CURVE('',#413,#415,#216,.T.);
#517=EDGE_CURVE('',#415,#372,#217,.T.);
#518=EDGE_CURVE('',#416,#417,#218,.T.);
#519=EDGE_CURVE('',#418,#417,#219,.T.);
#520=EDGE_CURVE('',#419,#418,#220,.T.);
#521=EDGE_CURVE('',#416,#419,#221,.T.);
#522=EDGE_CURVE('',#417,#420,#222,.T.);
#523=EDGE_CURVE('',#421,#420,#223,.T.);
#524=EDGE_CURVE('',#418,#421,#224,.T.);
#525=EDGE_CURVE('',#422,#423,#15,.T.);
#526=EDGE_CURVE('',#424,#422,#225,.T.);
#527=EDGE_CURVE('',#425,#424,#16,.T.);
#528=EDGE_CURVE('',#425,#426,#226,.T.);
#529=EDGE_CURVE('',#423,#426,#360,.T.);
#530=EDGE_CURVE('',#426,#427,#227,.T.);
#531=EDGE_CURVE('',#428,#425,#228,.T.);
#532=EDGE_CURVE('',#427,#428,#229,.T.);
#533=EDGE_CURVE('',#429,#422,#230,.T.);
#534=EDGE_CURVE('',#430,#429,#231,.T.);
#535=EDGE_CURVE('',#424,#430,#232,.T.);
#536=EDGE_CURVE('',#409,#422,#233,.T.);
#537=EDGE_CURVE('',#408,#429,#234,.T.);
#538=EDGE_CURVE('',#423,#431,#235,.T.);
#539=EDGE_CURVE('',#409,#431,#17,.T.);
#540=EDGE_CURVE('',#427,#432,#361,.T.);
#541=EDGE_CURVE('',#432,#433,#236,.T.);
#542=EDGE_CURVE('',#434,#433,#237,.T.);
#543=EDGE_CURVE('',#435,#434,#238,.T.);
#544=EDGE_CURVE('',#436,#435,#362,.T.);
#545=EDGE_CURVE('',#437,#436,#239,.T.);
#546=EDGE_CURVE('',#431,#437,#363,.T.);
#547=EDGE_CURVE('',#419,#434,#240,.T.);
#548=EDGE_CURVE('',#433,#416,#241,.T.);
#549=EDGE_CURVE('',#411,#430,#242,.T.);
#550=EDGE_CURVE('',#410,#424,#243,.T.);
#551=EDGE_CURVE('',#438,#410,#18,.T.);
#552=EDGE_CURVE('',#439,#438,#244,.T.);
#553=EDGE_CURVE('',#440,#439,#19,.T.);
#554=EDGE_CURVE('',#421,#440,#245,.T.);
#555=EDGE_CURVE('',#420,#441,#246,.T.);
#556=EDGE_CURVE('',#428,#441,#20,.T.);
#557=EDGE_CURVE('',#432,#441,#247,.T.);
#558=EDGE_CURVE('',#437,#438,#248,.T.);
#559=EDGE_CURVE('',#435,#440,#249,.T.);
#560=EDGE_CURVE('',#436,#439,#250,.T.);
#561=ORIENTED_EDGE('',*,*,#442,.F.);
#562=ORIENTED_EDGE('',*,*,#443,.T.);
#563=ORIENTED_EDGE('',*,*,#444,.F.);
#564=ORIENTED_EDGE('',*,*,#443,.F.);
#565=ORIENTED_EDGE('',*,*,#445,.F.);
#566=ORIENTED_EDGE('',*,*,#446,.T.);
#567=ORIENTED_EDGE('',*,*,#447,.F.);
#568=ORIENTED_EDGE('',*,*,#446,.F.);
#569=ORIENTED_EDGE('',*,*,#448,.F.);
#570=ORIENTED_EDGE('',*,*,#449,.T.);
#571=ORIENTED_EDGE('',*,*,#450,.F.);
#572=ORIENTED_EDGE('',*,*,#449,.F.);
#573=ORIENTED_EDGE('',*,*,#451,.F.);
#574=ORIENTED_EDGE('',*,*,#452,.T.);
#575=ORIENTED_EDGE('',*,*,#453,.F.);
#576=ORIENTED_EDGE('',*,*,#452,.F.);
#577=ORIENTED_EDGE('',*,*,#454,.F.);
#578=ORIENTED_EDGE('',*,*,#455,.F.);
#579=ORIENTED_EDGE('',*,*,#456,.F.);
#580=ORIENTED_EDGE('',*,*,#457,.T.);
#581=ORIENTED_EDGE('',*,*,#458,.F.);
#582=ORIENTED_EDGE('',*,*,#459,.F.);
#583=ORIENTED_EDGE('',*,*,#460,.F.);
#584=ORIENTED_EDGE('',*,*,#461,.F.);
#585=ORIENTED_EDGE('',*,*,#462,.F.);
#586=ORIENTED_EDGE('',*,*,#457,.F.);
#587=ORIENTED_EDGE('',*,*,#463,.F.);
#588=ORIENTED_EDGE('',*,*,#464,.T.);
#589=ORIENTED_EDGE('',*,*,#465,.F.);
#590=ORIENTED_EDGE('',*,*,#464,.F.);
#591=ORIENTED_EDGE('',*,*,#466,.F.);
#592=ORIENTED_EDGE('',*,*,#467,.F.);
#593=ORIENTED_EDGE('',*,*,#468,.F.);
#594=ORIENTED_EDGE('',*,*,#469,.F.);
#595=ORIENTED_EDGE('',*,*,#470,.F.);
#596=ORIENTED_EDGE('',*,*,#471,.T.);
#597=ORIENTED_EDGE('',*,*,#472,.F.);
#598=ORIENTED_EDGE('',*,*,#471,.F.);
#599=ORIENTED_EDGE('',*,*,#473,.F.);
#600=ORIENTED_EDGE('',*,*,#459,.T.);
#601=ORIENTED_EDGE('',*,*,#474,.F.);
#602=ORIENTED_EDGE('',*,*,#475,.F.);
#603=ORIENTED_EDGE('',*,*,#476,.F.);
#604=ORIENTED_EDGE('',*,*,#477,.T.);
#605=ORIENTED_EDGE('',*,*,#478,.F.);
#606=ORIENTED_EDGE('',*,*,#479,.F.);
#607=ORIENTED_EDGE('',*,*,#480,.F.);
#608=ORIENTED_EDGE('',*,*,#481,.F.);
#609=ORIENTED_EDGE('',*,*,#482,.F.);
#610=ORIENTED_EDGE('',*,*,#477,.F.);
#611=ORIENTED_EDGE('',*,*,#483,.F.);
#612=ORIENTED_EDGE('',*,*,#484,.T.);
#613=ORIENTED_EDGE('',*,*,#485,.F.);
#614=ORIENTED_EDGE('',*,*,#484,.F.);
#615=ORIENTED_EDGE('',*,*,#486,.F.);
#616=ORIENTED_EDGE('',*,*,#487,.F.);
#617=ORIENTED_EDGE('',*,*,#488,.F.);
#618=ORIENTED_EDGE('',*,*,#489,.F.);
#619=ORIENTED_EDGE('',*,*,#490,.F.);
#620=ORIENTED_EDGE('',*,*,#479,.T.);
#621=ORIENTED_EDGE('',*,*,#491,.F.);
#622=ORIENTED_EDGE('',*,*,#492,.F.);
#623=ORIENTED_EDGE('',*,*,#493,.F.);
#624=ORIENTED_EDGE('',*,*,#489,.T.);
#625=ORIENTED_EDGE('',*,*,#492,.T.);
#626=ORIENTED_EDGE('',*,*,#494,.F.);
#627=ORIENTED_EDGE('',*,*,#495,.F.);
#628=ORIENTED_EDGE('',*,*,#496,.F.);
#629=ORIENTED_EDGE('',*,*,#469,.T.);
#630=ORIENTED_EDGE('',*,*,#497,.F.);
#631=ORIENTED_EDGE('',*,*,#481,.T.);
#632=ORIENTED_EDGE('',*,*,#498,.F.);
#633=ORIENTED_EDGE('',*,*,#461,.T.);
#634=ORIENTED_EDGE('',*,*,#499,.F.);
#635=ORIENTED_EDGE('',*,*,#500,.T.);
#636=ORIENTED_EDGE('',*,*,#501,.F.);
#637=ORIENTED_EDGE('',*,*,#502,.T.);
#638=ORIENTED_EDGE('',*,*,#503,.T.);
#639=ORIENTED_EDGE('',*,*,#504,.T.);
#640=ORIENTED_EDGE('',*,*,#505,.T.);
#641=ORIENTED_EDGE('',*,*,#442,.T.);
#642=ORIENTED_EDGE('',*,*,#448,.T.);
#643=ORIENTED_EDGE('',*,*,#451,.T.);
#644=ORIENTED_EDGE('',*,*,#460,.T.);
#645=ORIENTED_EDGE('',*,*,#473,.T.);
#646=ORIENTED_EDGE('',*,*,#470,.T.);
#647=ORIENTED_EDGE('',*,*,#498,.T.);
#648=ORIENTED_EDGE('',*,*,#480,.T.);
#649=ORIENTED_EDGE('',*,*,#490,.T.);
#650=ORIENTED_EDGE('',*,*,#493,.T.);
#651=ORIENTED_EDGE('',*,*,#496,.T.);
#652=ORIENTED_EDGE('',*,*,#506,.T.);
#653=ORIENTED_EDGE('',*,*,#507,.T.);
#654=ORIENTED_EDGE('',*,*,#486,.T.);
#655=ORIENTED_EDGE('',*,*,#483,.T.);
#656=ORIENTED_EDGE('',*,*,#476,.T.);
#657=ORIENTED_EDGE('',*,*,#508,.T.);
#658=ORIENTED_EDGE('',*,*,#466,.T.);
#659=ORIENTED_EDGE('',*,*,#463,.T.);
#660=ORIENTED_EDGE('',*,*,#456,.T.);
#661=ORIENTED_EDGE('',*,*,#509,.T.);
#662=ORIENTED_EDGE('',*,*,#510,.T.);
#663=ORIENTED_EDGE('',*,*,#499,.T.);
#664=ORIENTED_EDGE('',*,*,#487,.T.);
#665=ORIENTED_EDGE('',*,*,#507,.F.);
#666=ORIENTED_EDGE('',*,*,#511,.T.);
#667=ORIENTED_EDGE('',*,*,#512,.F.);
#668=ORIENTED_EDGE('',*,*,#467,.T.);
#669=ORIENTED_EDGE('',*,*,#508,.F.);
#670=ORIENTED_EDGE('',*,*,#475,.T.);
#671=ORIENTED_EDGE('',*,*,#513,.F.);
#672=ORIENTED_EDGE('',*,*,#514,.F.);
#673=ORIENTED_EDGE('',*,*,#511,.F.);
#674=ORIENTED_EDGE('',*,*,#506,.F.);
#675=ORIENTED_EDGE('',*,*,#495,.T.);
#676=ORIENTED_EDGE('',*,*,#515,.F.);
#677=ORIENTED_EDGE('',*,*,#500,.F.);
#678=ORIENTED_EDGE('',*,*,#510,.F.);
#679=ORIENTED_EDGE('',*,*,#516,.T.);
#680=ORIENTED_EDGE('',*,*,#455,.T.);
#681=ORIENTED_EDGE('',*,*,#517,.F.);
#682=ORIENTED_EDGE('',*,*,#516,.F.);
#683=ORIENTED_EDGE('',*,*,#509,.F.);
#684=ORIENTED_EDGE('',*,*,#518,.T.);
#685=ORIENTED_EDGE('',*,*,#519,.F.);
#686=ORIENTED_EDGE('',*,*,#520,.F.);
#687=ORIENTED_EDGE('',*,*,#521,.F.);
#688=ORIENTED_EDGE('',*,*,#522,.T.);
#689=ORIENTED_EDGE('',*,*,#523,.F.);
#690=ORIENTED_EDGE('',*,*,#524,.F.);
#691=ORIENTED_EDGE('',*,*,#519,.T.);
#692=ORIENTED_EDGE('',*,*,#525,.F.);
#693=ORIENTED_EDGE('',*,*,#526,.F.);
#694=ORIENTED_EDGE('',*,*,#527,.F.);
#695=ORIENTED_EDGE('',*,*,#528,.T.);
#696=ORIENTED_EDGE('',*,*,#529,.F.);
#697=ORIENTED_EDGE('',*,*,#530,.F.);
#698=ORIENTED_EDGE('',*,*,#528,.F.);
#699=ORIENTED_EDGE('',*,*,#531,.F.);
#700=ORIENTED_EDGE('',*,*,#532,.F.);
#701=ORIENTED_EDGE('',*,*,#533,.F.);
#702=ORIENTED_EDGE('',*,*,#534,.F.);
#703=ORIENTED_EDGE('',*,*,#535,.F.);
#704=ORIENTED_EDGE('',*,*,#526,.T.);
#705=ORIENTED_EDGE('',*,*,#444,.T.);
#706=ORIENTED_EDGE('',*,*,#450,.T.);
#707=ORIENTED_EDGE('',*,*,#453,.T.);
#708=ORIENTED_EDGE('',*,*,#458,.T.);
#709=ORIENTED_EDGE('',*,*,#501,.T.);
#710=ORIENTED_EDGE('',*,*,#515,.T.);
#711=ORIENTED_EDGE('',*,*,#517,.T.);
#712=ORIENTED_EDGE('',*,*,#454,.T.);
#713=ORIENTED_EDGE('',*,*,#462,.T.);
#714=ORIENTED_EDGE('',*,*,#465,.T.);
#715=ORIENTED_EDGE('',*,*,#513,.T.);
#716=ORIENTED_EDGE('',*,*,#474,.T.);
#717=ORIENTED_EDGE('',*,*,#482,.T.);
#718=ORIENTED_EDGE('',*,*,#485,.T.);
#719=ORIENTED_EDGE('',*,*,#512,.T.);
#720=ORIENTED_EDGE('',*,*,#514,.T.);
#721=ORIENTED_EDGE('',*,*,#494,.T.);
#722=ORIENTED_EDGE('',*,*,#491,.T.);
#723=ORIENTED_EDGE('',*,*,#488,.T.);
#724=ORIENTED_EDGE('',*,*,#478,.T.);
#725=ORIENTED_EDGE('',*,*,#497,.T.);
#726=ORIENTED_EDGE('',*,*,#468,.T.);
#727=ORIENTED_EDGE('',*,*,#472,.T.);
#728=ORIENTED_EDGE('',*,*,#533,.T.);
#729=ORIENTED_EDGE('',*,*,#536,.F.);
#730=ORIENTED_EDGE('',*,*,#502,.F.);
#731=ORIENTED_EDGE('',*,*,#537,.T.);
#732=ORIENTED_EDGE('',*,*,#525,.T.);
#733=ORIENTED_EDGE('',*,*,#538,.T.);
#734=ORIENTED_EDGE('',*,*,#539,.F.);
#735=ORIENTED_EDGE('',*,*,#536,.T.);
#736=ORIENTED_EDGE('',*,*,#529,.T.);
#737=ORIENTED_EDGE('',*,*,#530,.T.);
#738=ORIENTED_EDGE('',*,*,#540,.T.);
#739=ORIENTED_EDGE('',*,*,#541,.T.);
#740=ORIENTED_EDGE('',*,*,#542,.F.);
#741=ORIENTED_EDGE('',*,*,#543,.F.);
#742=ORIENTED_EDGE('',*,*,#544,.F.);
#743=ORIENTED_EDGE('',*,*,#545,.F.);
#744=ORIENTED_EDGE('',*,*,#546,.F.);
#745=ORIENTED_EDGE('',*,*,#538,.F.);
#746=ORIENTED_EDGE('',*,*,#521,.T.);
#747=ORIENTED_EDGE('',*,*,#547,.T.);
#748=ORIENTED_EDGE('',*,*,#542,.T.);
#749=ORIENTED_EDGE('',*,*,#548,.T.);
#750=ORIENTED_EDGE('',*,*,#534,.T.);
#751=ORIENTED_EDGE('',*,*,#537,.F.);
#752=ORIENTED_EDGE('',*,*,#505,.F.);
#753=ORIENTED_EDGE('',*,*,#549,.T.);
#754=ORIENTED_EDGE('',*,*,#535,.T.);
#755=ORIENTED_EDGE('',*,*,#549,.F.);
#756=ORIENTED_EDGE('',*,*,#504,.F.);
#757=ORIENTED_EDGE('',*,*,#550,.T.);
#758=ORIENTED_EDGE('',*,*,#527,.T.);
#759=ORIENTED_EDGE('',*,*,#550,.F.);
#760=ORIENTED_EDGE('',*,*,#551,.F.);
#761=ORIENTED_EDGE('',*,*,#552,.F.);
#762=ORIENTED_EDGE('',*,*,#553,.F.);
#763=ORIENTED_EDGE('',*,*,#554,.F.);
#764=ORIENTED_EDGE('',*,*,#523,.T.);
#765=ORIENTED_EDGE('',*,*,#555,.T.);
#766=ORIENTED_EDGE('',*,*,#556,.F.);
#767=ORIENTED_EDGE('',*,*,#531,.T.);
#768=ORIENTED_EDGE('',*,*,#555,.F.);
#769=ORIENTED_EDGE('',*,*,#522,.F.);
#770=ORIENTED_EDGE('',*,*,#518,.F.);
#771=ORIENTED_EDGE('',*,*,#548,.F.);
#772=ORIENTED_EDGE('',*,*,#541,.F.);
#773=ORIENTED_EDGE('',*,*,#557,.T.);
#774=ORIENTED_EDGE('',*,*,#447,.T.);
#775=ORIENTED_EDGE('',*,*,#539,.T.);
#776=ORIENTED_EDGE('',*,*,#546,.T.);
#777=ORIENTED_EDGE('',*,*,#558,.T.);
#778=ORIENTED_EDGE('',*,*,#551,.T.);
#779=ORIENTED_EDGE('',*,*,#503,.F.);
#780=ORIENTED_EDGE('',*,*,#556,.T.);
#781=ORIENTED_EDGE('',*,*,#557,.F.);
#782=ORIENTED_EDGE('',*,*,#540,.F.);
#783=ORIENTED_EDGE('',*,*,#532,.T.);
#784=ORIENTED_EDGE('',*,*,#554,.T.);
#785=ORIENTED_EDGE('',*,*,#559,.F.);
#786=ORIENTED_EDGE('',*,*,#543,.T.);
#787=ORIENTED_EDGE('',*,*,#547,.F.);
#788=ORIENTED_EDGE('',*,*,#520,.T.);
#789=ORIENTED_EDGE('',*,*,#524,.T.);
#790=ORIENTED_EDGE('',*,*,#445,.T.);
#791=ORIENTED_EDGE('',*,*,#553,.T.);
#792=ORIENTED_EDGE('',*,*,#560,.F.);
#793=ORIENTED_EDGE('',*,*,#544,.T.);
#794=ORIENTED_EDGE('',*,*,#559,.T.);
#795=ORIENTED_EDGE('',*,*,#552,.T.);
#796=ORIENTED_EDGE('',*,*,#558,.F.);
#797=ORIENTED_EDGE('',*,*,#545,.T.);
#798=ORIENTED_EDGE('',*,*,#560,.T.);
#799=CYLINDRICAL_SURFACE('',#877,0.999999999999996);
#800=CYLINDRICAL_SURFACE('',#880,1.);
#801=CYLINDRICAL_SURFACE('',#883,0.999999999999996);
#802=CYLINDRICAL_SURFACE('',#886,1.);
#803=CYLINDRICAL_SURFACE('',#891,2.);
#804=CYLINDRICAL_SURFACE('',#896,2.);
#805=CYLINDRICAL_SURFACE('',#901,2.);
#806=CYLINDRICAL_SURFACE('',#905,2.);
#807=CYLINDRICAL_SURFACE('',#920,20.);
#808=CYLINDRICAL_SURFACE('',#941,21.5);
#809=CYLINDRICAL_SURFACE('',#942,2.);
#810=CYLINDRICAL_SURFACE('',#944,0.5);
#811=ADVANCED_FACE('',(#62),#799,.F.);
#812=ADVANCED_FACE('',(#63),#800,.F.);
#813=ADVANCED_FACE('',(#64),#801,.F.);
#814=ADVANCED_FACE('',(#65),#802,.F.);
#815=ADVANCED_FACE('',(#66),#31,.F.);
#816=ADVANCED_FACE('',(#67),#32,.F.);
#817=ADVANCED_FACE('',(#68),#803,.F.);
#818=ADVANCED_FACE('',(#69),#33,.F.);
#819=ADVANCED_FACE('',(#70),#34,.F.);
#820=ADVANCED_FACE('',(#71),#804,.F.);
#821=ADVANCED_FACE('',(#72),#35,.F.);
#822=ADVANCED_FACE('',(#73),#36,.F.);
#823=ADVANCED_FACE('',(#74),#805,.F.);
#824=ADVANCED_FACE('',(#75),#37,.F.);
#825=ADVANCED_FACE('',(#76),#806,.F.);
#826=ADVANCED_FACE('',(#77),#38,.F.);
#827=ADVANCED_FACE('',(#78),#39,.F.);
#828=ADVANCED_FACE('',(#79),#40,.F.);
#829=ADVANCED_FACE('',(#80),#41,.F.);
#830=ADVANCED_FACE('',(#81,#21,#22,#23,#24),#42,.T.);
#831=ADVANCED_FACE('',(#82),#43,.F.);
#832=ADVANCED_FACE('',(#83),#44,.F.);
#833=ADVANCED_FACE('',(#84),#45,.F.);
#834=ADVANCED_FACE('',(#85),#46,.F.);
#835=ADVANCED_FACE('',(#86),#47,.F.);
#836=ADVANCED_FACE('',(#87),#48,.T.);
#837=ADVANCED_FACE('',(#88),#49,.T.);
#838=ADVANCED_FACE('',(#89),#807,.F.);
#839=ADVANCED_FACE('',(#90),#50,.F.);
#840=ADVANCED_FACE('',(#91,#25,#26,#27,#28),#51,.F.);
#841=ADVANCED_FACE('',(#92),#52,.F.);
#842=ADVANCED_FACE('',(#93),#53,.F.);
#843=ADVANCED_FACE('',(#94),#54,.F.);
#844=ADVANCED_FACE('',(#95),#55,.T.);
#845=ADVANCED_FACE('',(#96),#56,.F.);
#846=ADVANCED_FACE('',(#97),#57,.F.);
#847=ADVANCED_FACE('',(#98),#58,.F.);
#848=ADVANCED_FACE('',(#99,#29),#59,.T.);
#849=ADVANCED_FACE('',(#100),#808,.T.);
#850=ADVANCED_FACE('',(#101),#809,.T.);
#851=ADVANCED_FACE('',(#102,#30),#60,.T.);
#852=ADVANCED_FACE('',(#103),#810,.F.);
#853=ADVANCED_FACE('',(#104),#61,.T.);
#854=CLOSED_SHELL('',(#811,#812,#813,#814,#815,#816,#817,#818,#819,#820,
#821,#822,#823,#824,#825,#826,#827,#828,#829,#830,#831,#832,#833,#834,#835,
#836,#837,#838,#839,#840,#841,#842,#843,#844,#845,#846,#847,#848,#849,#850,
#851,#852,#853));
#855=DERIVED_UNIT_ELEMENT(#858,1.);
#856=DERIVED_UNIT_ELEMENT(#1425,-3.);
#857=DIMENSIONAL_EXPONENTS(0.,1.,0.,0.,0.,0.,0.);
#858=(
CONVERSION_BASED_UNIT('gram',#860)
MASS_UNIT()
NAMED_UNIT(#857)
);
#859=(
MASS_UNIT()
NAMED_UNIT(*)
SI_UNIT(.KILO.,.GRAM.)
);
#860=MASS_MEASURE_WITH_UNIT(MASS_MEASURE(0.001),#859);
#861=DERIVED_UNIT((#855,#856));
#862=MEASURE_REPRESENTATION_ITEM('density measure',
POSITIVE_RATIO_MEASURE(1.),#861);
#863=PROPERTY_DEFINITION_REPRESENTATION(#868,#865);
#864=PROPERTY_DEFINITION_REPRESENTATION(#869,#866);
#865=REPRESENTATION('material name',(#867),#1422);
#866=REPRESENTATION('density',(#862),#1422);
#867=DESCRIPTIVE_REPRESENTATION_ITEM('\X2\4E00822C\X0\','\X2\4E00822C\X0\');
#868=PROPERTY_DEFINITION('material property','material name',#1432);
#869=PROPERTY_DEFINITION('material property','density of part',#1432);
#870=DATE_TIME_ROLE('creation_date');
#871=APPLIED_DATE_AND_TIME_ASSIGNMENT(#872,#870,(#1432));
#872=DATE_AND_TIME(#873,#874);
#873=CALENDAR_DATE(2026,20,1);
#874=LOCAL_TIME(0,0,0.,#875);
#875=COORDINATED_UNIVERSAL_TIME_OFFSET(0,0,.BEHIND.);
#876=AXIS2_PLACEMENT_3D('',#1179,#946,#947);
#877=AXIS2_PLACEMENT_3D('',#1180,#948,#949);
#878=AXIS2_PLACEMENT_3D('',#1182,#950,#951);
#879=AXIS2_PLACEMENT_3D('',#1185,#953,#954);
#880=AXIS2_PLACEMENT_3D('',#1186,#955,#956);
#881=AXIS2_PLACEMENT_3D('',#1188,#957,#958);
#882=AXIS2_PLACEMENT_3D('',#1191,#960,#961);
#883=AXIS2_PLACEMENT_3D('',#1192,#962,#963);
#884=AXIS2_PLACEMENT_3D('',#1194,#964,#965);
#885=AXIS2_PLACEMENT_3D('',#1197,#967,#968);
#886=AXIS2_PLACEMENT_3D('',#1198,#969,#970);
#887=AXIS2_PLACEMENT_3D('',#1200,#971,#972);
#888=AXIS2_PLACEMENT_3D('',#1203,#974,#975);
#889=AXIS2_PLACEMENT_3D('',#1204,#976,#977);
#890=AXIS2_PLACEMENT_3D('',#1213,#982,#983);
#891=AXIS2_PLACEMENT_3D('',#1222,#988,#989);
#892=AXIS2_PLACEMENT_3D('',#1224,#990,#991);
#893=AXIS2_PLACEMENT_3D('',#1226,#992,#993);
#894=AXIS2_PLACEMENT_3D('',#1228,#995,#996);
#895=AXIS2_PLACEMENT_3D('',#1234,#1000,#1001);
#896=AXIS2_PLACEMENT_3D('',#1243,#1006,#1007);
#897=AXIS2_PLACEMENT_3D('',#1244,#1008,#1009);
#898=AXIS2_PLACEMENT_3D('',#1245,#1010,#1011);
#899=AXIS2_PLACEMENT_3D('',#1246,#1012,#1013);
#900=AXIS2_PLACEMENT_3D('',#1255,#1018,#1019);
#901=AXIS2_PLACEMENT_3D('',#1264,#1024,#1025);
#902=AXIS2_PLACEMENT_3D('',#1266,#1026,#1027);
#903=AXIS2_PLACEMENT_3D('',#1268,#1028,#1029);
#904=AXIS2_PLACEMENT_3D('',#1270,#1031,#1032);
#905=AXIS2_PLACEMENT_3D('',#1276,#1036,#1037);
#906=AXIS2_PLACEMENT_3D('',#1278,#1038,#1039);
#907=AXIS2_PLACEMENT_3D('',#1281,#1041,#1042);
#908=AXIS2_PLACEMENT_3D('',#1282,#1043,#1044);
#909=AXIS2_PLACEMENT_3D('',#1288,#1048,#1049);
#910=AXIS2_PLACEMENT_3D('',#1294,#1053,#1054);
#911=AXIS2_PLACEMENT_3D('',#1297,#1057,#1058);
#912=AXIS2_PLACEMENT_3D('',#1303,#1062,#1063);
#913=AXIS2_PLACEMENT_3D('',#1319,#1073,#1074);
#914=AXIS2_PLACEMENT_3D('',#1323,#1077,#1078);
#915=AXIS2_PLACEMENT_3D('',#1325,#1080,#1081);
#916=AXIS2_PLACEMENT_3D('',#1327,#1083,#1084);
#917=AXIS2_PLACEMENT_3D('',#1331,#1087,#1088);
#918=AXIS2_PLACEMENT_3D('',#1333,#1090,#1091);
#919=AXIS2_PLACEMENT_3D('',#1342,#1096,#1097);
#920=AXIS2_PLACEMENT_3D('',#1348,#1101,#1102);
#921=AXIS2_PLACEMENT_3D('',#1351,#1103,#1104);
#922=AXIS2_PLACEMENT_3D('',#1355,#1106,#1107);
#923=AXIS2_PLACEMENT_3D('',#1358,#1109,#1110);
#924=AXIS2_PLACEMENT_3D('',#1359,#1111,#1112);
#925=AXIS2_PLACEMENT_3D('',#1365,#1116,#1117);
#926=AXIS2_PLACEMENT_3D('',#1371,#1121,#1122);
#927=AXIS2_PLACEMENT_3D('',#1374,#1125,#1126);
#928=AXIS2_PLACEMENT_3D('',#1377,#1128,#1129);
#929=AXIS2_PLACEMENT_3D('',#1378,#1130,#1131);
#930=AXIS2_PLACEMENT_3D('',#1380,#1132,#1133);
#931=AXIS2_PLACEMENT_3D('',#1388,#1137,#1138);
#932=AXIS2_PLACEMENT_3D('',#1391,#1140,#1141);
#933=AXIS2_PLACEMENT_3D('',#1392,#1142,#1143);
#934=AXIS2_PLACEMENT_3D('',#1395,#1146,#1147);
#935=AXIS2_PLACEMENT_3D('',#1397,#1149,#1150);
#936=AXIS2_PLACEMENT_3D('',#1399,#1152,#1153);
#937=AXIS2_PLACEMENT_3D('',#1401,#1154,#1155);
#938=AXIS2_PLACEMENT_3D('',#1405,#1157,#1158);
#939=AXIS2_PLACEMENT_3D('',#1409,#1161,#1162);
#940=AXIS2_PLACEMENT_3D('',#1410,#1163,#1164);
#941=AXIS2_PLACEMENT_3D('',#1412,#1166,#1167);
#942=AXIS2_PLACEMENT_3D('',#1414,#1169,#1170);
#943=AXIS2_PLACEMENT_3D('',#1415,#1171,#1172);
#944=AXIS2_PLACEMENT_3D('',#1417,#1174,#1175);
#945=AXIS2_PLACEMENT_3D('',#1419,#1177,#1178);
#946=DIRECTION('axis',(0.,0.,1.));
#947=DIRECTION('refdir',(1.,0.,0.));
#948=DIRECTION('center_axis',(1.,0.,9.20883250446311E-17));
#949=DIRECTION('ref_axis',(-9.20883250446311E-17,-2.70041415698169E-16,
1.));
#950=DIRECTION('center_axis',(1.,0.,1.26882631385732E-16));
#951=DIRECTION('ref_axis',(-9.20883250446311E-17,-2.70041415698169E-16,
1.));
#952=DIRECTION('',(1.,0.,9.20883250446311E-17));
#953=DIRECTION('center_axis',(-1.,1.34572487833352E-16,-7.40148683083438E-17));
#954=DIRECTION('ref_axis',(-9.20883250446311E-17,-2.70041415698169E-16,
1.));
#955=DIRECTION('center_axis',(1.,0.,9.20883250446311E-17));
#956=DIRECTION('ref_axis',(-9.20883250446311E-17,-2.70041415698169E-16,
1.));
#957=DIRECTION('center_axis',(1.,1.77635683940025E-15,1.26882631385732E-16));
#958=DIRECTION('ref_axis',(-9.20883250446311E-17,-2.70041415698169E-16,
1.));
#959=DIRECTION('',(1.,0.,9.20883250446311E-17));
#960=DIRECTION('center_axis',(-1.,-7.83008910610511E-16,-1.26882631385732E-16));
#961=DIRECTION('ref_axis',(-9.20883250446311E-17,-2.70041415698169E-16,
1.));
#962=DIRECTION('center_axis',(1.,0.,1.38132487566947E-16));
#963=DIRECTION('ref_axis',(-1.38132487566947E-16,-2.70041415698169E-16,
1.));
#964=DIRECTION('center_axis',(1.,0.,1.26882631385732E-16));
#965=DIRECTION('ref_axis',(-1.38132487566947E-16,-2.70041415698169E-16,
1.));
#966=DIRECTION('',(1.,0.,1.38132487566947E-16));
#967=DIRECTION('center_axis',(-1.,1.34572487833352E-16,-7.40148683083438E-17));
#968=DIRECTION('ref_axis',(-1.38132487566947E-16,-2.70041415698169E-16,
1.));
#969=DIRECTION('center_axis',(1.,0.,1.84176650089262E-16));
#970=DIRECTION('ref_axis',(-1.84176650089262E-16,-2.70041415698169E-16,
1.));
#971=DIRECTION('center_axis',(1.,0.,1.26882631385732E-16));
#972=DIRECTION('ref_axis',(-1.84176650089262E-16,-2.70041415698169E-16,
1.));
#973=DIRECTION('',(1.,0.,1.84176650089262E-16));
#974=DIRECTION('center_axis',(-1.,1.34572487833352E-16,-7.40148683083438E-17));
#975=DIRECTION('ref_axis',(-1.84176650089262E-16,-2.70041415698169E-16,
1.));
#976=DIRECTION('center_axis',(5.85793537116593E-17,-0.948070352335985,-0.318060697071363));
#977=DIRECTION('ref_axis',(1.20293661043188E-16,0.318060697071363,-0.948070352335985));
#978=DIRECTION('',(-1.12973521562097E-16,-0.318060697071363,0.948070352335985));
#979=DIRECTION('',(1.,2.77686742565135E-17,1.01404220082391E-16));
#980=DIRECTION('',(1.20293661043188E-16,0.318060697071363,-0.948070352335985));
#981=DIRECTION('',(1.,0.,1.84176650089262E-16));
#982=DIRECTION('center_axis',(5.85793537116593E-17,-0.948070352335985,-0.318060697071363));
#983=DIRECTION('ref_axis',(1.20293661043188E-16,0.318060697071363,-0.948070352335985));
#984=DIRECTION('',(-1.12973521562097E-16,-0.318060697071363,0.948070352335985));
#985=DIRECTION('',(1.,0.,1.84176650089262E-16));
#986=DIRECTION('',(1.20293661043188E-16,0.318060697071363,-0.948070352335985));
#987=DIRECTION('',(-1.,-2.77686742565135E-17,-1.01404220082391E-16));
#988=DIRECTION('center_axis',(1.,0.,1.84176650089262E-16));
#989=DIRECTION('ref_axis',(-1.84176650089262E-16,-2.70041415698169E-16,
1.));
#990=DIRECTION('center_axis',(-1.,1.34572487833352E-16,-7.40148683083438E-17));
#991=DIRECTION('ref_axis',(-1.84176650089262E-16,-2.70041415698169E-16,
1.));
#992=DIRECTION('center_axis',(1.,0.,1.26882631385732E-16));
#993=DIRECTION('ref_axis',(-1.84176650089262E-16,-2.70041415698169E-16,
1.));
#994=DIRECTION('',(1.,0.,1.84176650089262E-16));
#995=DIRECTION('center_axis',(-5.85793537116593E-17,0.948070352335985,0.318060697071363));
#996=DIRECTION('ref_axis',(-1.20293661043188E-16,-0.318060697071363,0.948070352335985));
#997=DIRECTION('',(1.12973521562097E-16,0.318060697071363,-0.948070352335985));
#998=DIRECTION('',(-1.20293661043188E-16,-0.318060697071363,0.948070352335985));
#999=DIRECTION('',(-1.,-2.77686742565135E-17,-1.01404220082391E-16));
#1000=DIRECTION('center_axis',(-5.85793537116593E-17,0.948070352335985,
0.318060697071363));
#1001=DIRECTION('ref_axis',(-1.20293661043188E-16,-0.318060697071363,0.948070352335985));
#1002=DIRECTION('',(1.12973521562097E-16,0.318060697071363,-0.948070352335985));
#1003=DIRECTION('',(1.,2.77686742565135E-17,1.01404220082391E-16));
#1004=DIRECTION('',(-1.20293661043188E-16,-0.318060697071363,0.948070352335985));
#1005=DIRECTION('',(1.,0.,1.84176650089262E-16));
#1006=DIRECTION('center_axis',(1.,0.,1.84176650089262E-16));
#1007=DIRECTION('ref_axis',(1.74612421542188E-16,0.318060697071364,-0.948070352335985));
#1008=DIRECTION('center_axis',(-1.,1.34572487833352E-16,-7.40148683083438E-17));
#1009=DIRECTION('ref_axis',(-1.84176650089262E-16,-2.70041415698169E-16,
1.));
#1010=DIRECTION('center_axis',(1.,0.,1.26882631385732E-16));
#1011=DIRECTION('ref_axis',(-1.84176650089262E-16,-2.70041415698169E-16,
1.));
#1012=DIRECTION('center_axis',(4.39345152837444E-17,-0.948070352335985,
-0.318060697071363));
#1013=DIRECTION('ref_axis',(1.20293661043188E-16,0.318060697071363,-0.948070352335985));
#1014=DIRECTION('',(-1.12973521562097E-16,-0.318060697071363,0.948070352335985));
#1015=DIRECTION('',(1.,1.38843371282568E-17,9.67462725635112E-17));
#1016=DIRECTION('',(1.20293661043188E-16,0.318060697071363,-0.948070352335985));
#1017=DIRECTION('',(1.,0.,1.38132487566947E-16));
#1018=DIRECTION('center_axis',(4.39345152837444E-17,-0.948070352335985,
-0.318060697071363));
#1019=DIRECTION('ref_axis',(1.20293661043188E-16,0.318060697071363,-0.948070352335985));
#1020=DIRECTION('',(-1.12973521562097E-16,-0.318060697071363,0.948070352335985));
#1021=DIRECTION('',(1.,0.,1.38132487566947E-16));
#1022=DIRECTION('',(1.20293661043188E-16,0.318060697071363,-0.948070352335985));
#1023=DIRECTION('',(-1.,-1.38843371282568E-17,-9.67462725635112E-17));
#1024=DIRECTION('center_axis',(1.,0.,1.38132487566947E-16));
#1025=DIRECTION('ref_axis',(-1.38132487566947E-16,-2.70041415698169E-16,
1.));
#1026=DIRECTION('center_axis',(-1.,1.34572487833352E-16,-7.40148683083438E-17));
#1027=DIRECTION('ref_axis',(-1.38132487566947E-16,-2.70041415698169E-16,
1.));
#1028=DIRECTION('center_axis',(1.,0.,1.26882631385732E-16));
#1029=DIRECTION('ref_axis',(-1.38132487566947E-16,-2.70041415698169E-16,
1.));
#1030=DIRECTION('',(1.,0.,1.38132487566947E-16));
#1031=DIRECTION('center_axis',(-4.39345152837444E-17,0.948070352335985,
0.318060697071363));
#1032=DIRECTION('ref_axis',(-1.20293661043188E-16,-0.318060697071363,0.948070352335985));
#1033=DIRECTION('',(1.12973521562097E-16,0.318060697071363,-0.948070352335985));
#1034=DIRECTION('',(-1.20293661043188E-16,-0.318060697071363,0.948070352335985));
#1035=DIRECTION('',(-1.,-1.38843371282567E-17,-9.67462725635112E-17));
#1036=DIRECTION('center_axis',(1.,0.,1.38132487566947E-16));
#1037=DIRECTION('ref_axis',(1.30959316156641E-16,0.318060697071361,-0.948070352335986));
#1038=DIRECTION('center_axis',(-1.,1.34572487833352E-16,-7.40148683083438E-17));
#1039=DIRECTION('ref_axis',(-1.38132487566947E-16,-2.70041415698169E-16,
1.));
#1040=DIRECTION('',(1.,0.,1.38132487566947E-16));
#1041=DIRECTION('center_axis',(1.,0.,1.26882631385732E-16));
#1042=DIRECTION('ref_axis',(-1.38132487566947E-16,-2.70041415698169E-16,
1.));
#1043=DIRECTION('center_axis',(-4.39345152837444E-17,0.948070352335985,
0.318060697071363));
#1044=DIRECTION('ref_axis',(-1.20293661043188E-16,-0.318060697071363,0.948070352335985));
#1045=DIRECTION('',(1.12973521562097E-16,0.318060697071363,-0.948070352335985));
#1046=DIRECTION('',(1.,1.38843371282567E-17,9.67462725635112E-17));
#1047=DIRECTION('',(-1.20293661043188E-16,-0.318060697071363,0.948070352335985));
#1048=DIRECTION('center_axis',(8.73062107710941E-17,0.318060697071364,-0.948070352335985));
#1049=DIRECTION('ref_axis',(-4.03563781847949E-17,0.948070352335985,0.318060697071364));
#1050=DIRECTION('',(-1.04042965347099E-16,-0.948070352335985,-0.318060697071364));
#1051=DIRECTION('',(1.,0.,9.20883250446311E-17));
#1052=DIRECTION('',(-4.03563781847949E-17,0.948070352335985,0.318060697071364));
#1053=DIRECTION('center_axis',(8.73062107710941E-17,0.318060697071364,-0.948070352335985));
#1054=DIRECTION('ref_axis',(-4.03563781847949E-17,0.948070352335985,0.318060697071364));
#1055=DIRECTION('',(-1.04042965347099E-16,-0.948070352335985,-0.318060697071364));
#1056=DIRECTION('',(-4.03563781847949E-17,0.948070352335985,0.318060697071364));
#1057=DIRECTION('center_axis',(8.73062107710941E-17,0.318060697071364,-0.948070352335985));
#1058=DIRECTION('ref_axis',(-4.03563781847949E-17,0.948070352335985,0.318060697071364));
#1059=DIRECTION('',(-4.03563781847949E-17,0.948070352335985,0.318060697071364));
#1060=DIRECTION('',(1.,0.,9.20883250446311E-17));
#1061=DIRECTION('',(-1.04042965347099E-16,-0.948070352335985,-0.318060697071364));
#1062=DIRECTION('center_axis',(-1.,0.,-1.26882631385732E-16));
#1063=DIRECTION('ref_axis',(0.,-1.,0.));
#1064=DIRECTION('',(4.03563781847949E-17,-0.948070352335985,-0.318060697071364));
#1065=DIRECTION('',(-1.26882631385732E-16,0.,1.));
#1066=DIRECTION('',(-4.03563781847949E-17,0.948070352335985,0.318060697071364));
#1067=DIRECTION('',(1.26882631385732E-16,-1.70749113684202E-32,-1.));
#1068=DIRECTION('',(-1.20293661043188E-16,-0.318060697071363,0.948070352335985));
#1069=DIRECTION('',(4.03563781847949E-17,-0.948070352335985,-0.318060697071364));
#1070=DIRECTION('',(4.03563781847949E-17,-0.948070352335985,-0.318060697071364));
#1071=DIRECTION('',(4.03563781847949E-17,-0.948070352335985,-0.318060697071364));
#1072=DIRECTION('',(1.20293661043188E-16,0.318060697071364,-0.948070352335985));
#1073=DIRECTION('center_axis',(-8.73062107710941E-17,-0.318060697071364,
0.948070352335985));
#1074=DIRECTION('ref_axis',(4.03563781847949E-17,-0.948070352335985,-0.318060697071364));
#1075=DIRECTION('',(1.,0.,9.20883250446311E-17));
#1076=DIRECTION('',(1.04042965347099E-16,0.948070352335985,0.318060697071364));
#1077=DIRECTION('center_axis',(-8.73062107710941E-17,-0.318060697071364,
0.948070352335985));
#1078=DIRECTION('ref_axis',(4.03563781847949E-17,-0.948070352335985,-0.318060697071364));
#1079=DIRECTION('',(1.04042965347099E-16,0.948070352335985,0.318060697071364));
#1080=DIRECTION('center_axis',(-2.92896768558297E-17,0.948070352335985,
0.318060697071363));
#1081=DIRECTION('ref_axis',(-1.20293661043188E-16,-0.318060697071363,0.948070352335985));
#1082=DIRECTION('',(1.12973521562097E-16,0.318060697071363,-0.948070352335985));
#1083=DIRECTION('center_axis',(2.92896768558297E-17,-0.948070352335985,
-0.318060697071364));
#1084=DIRECTION('ref_axis',(1.20293661043188E-16,0.318060697071364,-0.948070352335985));
#1085=DIRECTION('',(-1.12973521562097E-16,-0.318060697071364,0.948070352335985));
#1086=DIRECTION('',(1.,0.,9.20883250446311E-17));
#1087=DIRECTION('center_axis',(-8.73062107710941E-17,-0.318060697071364,
0.948070352335985));
#1088=DIRECTION('ref_axis',(4.03563781847949E-17,-0.948070352335985,-0.318060697071364));
#1089=DIRECTION('',(1.04042965347099E-16,0.948070352335985,0.318060697071364));
#1090=DIRECTION('center_axis',(6.47064225950795E-46,-3.27838298273667E-31,
-1.));
#1091=DIRECTION('ref_axis',(-1.77635683940025E-15,1.,-3.27838298273667E-31));
#1092=DIRECTION('',(7.83008910610511E-16,-1.,3.27838298273667E-31));
#1093=DIRECTION('',(1.,1.97372982155566E-15,0.));
#1094=DIRECTION('',(1.77635683940025E-15,-1.,3.27838298273667E-31));
#1095=DIRECTION('',(-1.,2.22044604925031E-16,-7.19858951370266E-46));
#1096=DIRECTION('center_axis',(1.97372982155566E-15,-1.,3.52881501613994E-31));
#1097=DIRECTION('ref_axis',(1.26882631385732E-16,-1.02449468210521E-31,
-1.));
#1098=DIRECTION('',(-1.26882631385732E-16,1.02449468210521E-31,1.));
#1099=DIRECTION('',(1.,1.97372982155566E-15,0.));
#1100=DIRECTION('',(-1.26882631385732E-16,1.02449468210521E-31,1.));
#1101=DIRECTION('center_axis',(7.40148683083438E-17,0.,-1.));
#1102=DIRECTION('ref_axis',(0.,-1.,0.));
#1103=DIRECTION('center_axis',(-2.23188529807372E-16,-0.303658920997609,
0.952780803594703));
#1104=DIRECTION('ref_axis',(2.24752750482918E-17,-0.952780803594703,-0.303658920997609));
#1105=DIRECTION('',(7.40148683083438E-17,0.,-1.));
#1106=DIRECTION('center_axis',(2.23188529807659E-16,0.30365892099998,-0.952780803593947));
#1107=DIRECTION('ref_axis',(2.24752750484673E-17,-0.952780803593947,-0.30365892099998));
#1108=DIRECTION('',(7.40148683083438E-17,0.,-1.));
#1109=DIRECTION('center_axis',(-1.77635683940025E-16,2.39048759157882E-32,
1.));
#1110=DIRECTION('ref_axis',(0.,-1.,0.));
#1111=DIRECTION('center_axis',(-4.99837872914314E-16,-1.,-3.69954343392756E-32));
#1112=DIRECTION('ref_axis',(-1.,4.99837872914314E-16,-7.74574203226853E-17));
#1113=DIRECTION('',(1.,-4.99837872914314E-16,1.77635683940025E-16));
#1114=DIRECTION('',(-1.,4.99837872914314E-16,-7.49472495396807E-17));
#1115=DIRECTION('',(-1.26882631385732E-16,0.,1.));
#1116=DIRECTION('center_axis',(-1.,1.34572487833352E-16,-7.40148683083438E-17));
#1117=DIRECTION('ref_axis',(1.34572487833352E-16,1.,1.04236377539774E-32));
#1118=DIRECTION('',(-1.04042965347099E-16,-0.948070352335985,-0.318060697071364));
#1119=DIRECTION('',(7.40148683083438E-17,-7.68371011578908E-33,-1.));
#1120=DIRECTION('',(1.04042965347099E-16,0.948070352335985,0.318060697071364));
#1121=DIRECTION('center_axis',(-2.24910054919176E-16,-0.318060697071364,
0.948070352335985));
#1122=DIRECTION('ref_axis',(-8.72278077701015E-17,-0.948070352335985,-0.318060697071364));
#1123=DIRECTION('',(1.,-1.77635683940025E-16,1.77635683940025E-16));
#1124=DIRECTION('',(1.,-1.77635683940025E-16,1.77635683940025E-16));
#1125=DIRECTION('center_axis',(-2.23188529807372E-16,-0.303658920997609,
0.952780803594703));
#1126=DIRECTION('ref_axis',(-8.9689040159671E-17,-0.952780803594703,-0.303658920997609));
#1127=DIRECTION('',(-1.,1.77635683940025E-16,-1.77635683940025E-16));
#1128=DIRECTION('center_axis',(-2.23188529807372E-16,-0.303658920997609,
0.952780803594703));
#1129=DIRECTION('ref_axis',(3.85290429399288E-17,-0.952780803594703,-0.303658920997609));
#1130=DIRECTION('center_axis',(-1.77635683940025E-16,2.39048759157882E-32,
1.));
#1131=DIRECTION('ref_axis',(-1.34572487833352E-16,-1.,0.));
#1132=DIRECTION('center_axis',(1.77635683940025E-16,-2.39048759157882E-32,
-1.));
#1133=DIRECTION('ref_axis',(0.,-1.,0.));
#1134=DIRECTION('',(7.83008910610511E-16,-1.,1.6299519928322E-31));
#1135=DIRECTION('',(1.,-1.77635683940025E-16,1.77635683940025E-16));
#1136=DIRECTION('',(1.77635683940025E-15,-1.,3.39449238004193E-31));
#1137=DIRECTION('center_axis',(1.77635683940025E-16,-2.39048759157882E-32,
-1.));
#1138=DIRECTION('ref_axis',(0.,-1.,0.));
#1139=DIRECTION('',(1.,0.,1.77635683940025E-16));
#1140=DIRECTION('center_axis',(-1.77635683940025E-16,2.39048759157882E-32,
1.));
#1141=DIRECTION('ref_axis',(0.,-1.,0.));
#1142=DIRECTION('center_axis',(-2.22044604925031E-16,-1.,-2.81736037578933E-32));
#1143=DIRECTION('ref_axis',(1.,-2.22044604925031E-16,7.74574203226853E-17));
#1144=DIRECTION('',(1.26882631385732E-16,0.,-1.));
#1145=DIRECTION('',(-7.40148683083438E-17,-1.17390015657889E-32,1.));
#1146=DIRECTION('center_axis',(-1.77635683940025E-16,-1.,-5.46397163789445E-33));
#1147=DIRECTION('ref_axis',(1.26882631385732E-16,-1.70749113684202E-32,
-1.));
#1148=DIRECTION('',(1.,-1.77635683940025E-16,1.77635683940025E-16));
#1149=DIRECTION('center_axis',(2.24910054919176E-16,0.318060697071364,-0.948070352335985));
#1150=DIRECTION('ref_axis',(8.72278077701015E-17,0.948070352335985,0.318060697071364));
#1151=DIRECTION('',(1.,-1.77635683940025E-16,1.77635683940025E-16));
#1152=DIRECTION('center_axis',(2.23188529807659E-16,0.30365892099998,-0.952780803593947));
#1153=DIRECTION('ref_axis',(8.96890401592684E-17,0.952780803593947,0.30365892099998));
#1154=DIRECTION('center_axis',(2.23188529807659E-16,0.30365892099998,-0.952780803593947));
#1155=DIRECTION('ref_axis',(3.85290429402297E-17,-0.952780803593947,-0.30365892099998));
#1156=DIRECTION('',(-1.,0.,-2.3424960805862E-16));
#1157=DIRECTION('center_axis',(-2.23188529807659E-16,-0.30365892099998,
0.952780803593947));
#1158=DIRECTION('ref_axis',(3.85290429402297E-17,-0.952780803593947,-0.30365892099998));
#1159=DIRECTION('',(-1.7310077398536E-15,0.952780803593947,0.30365892099998));
#1160=DIRECTION('',(-7.68511134121171E-16,0.952780803593947,0.30365892099998));
#1161=DIRECTION('center_axis',(2.23188529807659E-16,0.30365892099998,-0.952780803593947));
#1162=DIRECTION('ref_axis',(-3.85290429402297E-17,0.952780803593947,0.30365892099998));
#1163=DIRECTION('center_axis',(1.,7.83008910610511E-16,1.26882631385732E-16));
#1164=DIRECTION('ref_axis',(-7.83008910610511E-16,1.,-6.06498503055663E-32));
#1165=DIRECTION('',(-1.26882631385732E-16,0.,1.));
#1166=DIRECTION('center_axis',(-1.26882631385732E-16,0.,1.));
#1167=DIRECTION('ref_axis',(0.,-1.,0.));
#1168=DIRECTION('',(-1.26882631385732E-16,0.,1.));
#1169=DIRECTION('center_axis',(-1.26882631385732E-16,0.,1.));
#1170=DIRECTION('ref_axis',(0.,1.,0.));
#1171=DIRECTION('center_axis',(-1.,-1.77635683940025E-15,-1.26882631385732E-16));
#1172=DIRECTION('ref_axis',(1.77635683940025E-15,-1.,1.37592018352502E-31));
#1173=DIRECTION('',(-1.26882631385732E-16,0.,1.));
#1174=DIRECTION('center_axis',(-1.26882631385732E-16,0.,1.));
#1175=DIRECTION('ref_axis',(0.,-1.,0.));
#1176=DIRECTION('',(-1.26882631385732E-16,0.,1.));
#1177=DIRECTION('center_axis',(0.,-1.,0.));
#1178=DIRECTION('ref_axis',(1.,0.,7.74574203226853E-17));
#1179=CARTESIAN_POINT('',(0.,0.,0.));
#1180=CARTESIAN_POINT('Origin',(-42.1495122307728,106.,-34.0548079742758));
#1181=CARTESIAN_POINT('',(-42.1495122307728,106.,-35.0548079742758));
#1182=CARTESIAN_POINT('Origin',(-42.1495122307728,106.,-34.0548079742758));
#1183=CARTESIAN_POINT('',(-40.6495122307728,106.,-35.0548079742758));
#1184=CARTESIAN_POINT('',(-42.1495122307728,106.,-35.0548079742758));
#1185=CARTESIAN_POINT('Origin',(-40.6495122307728,106.,-34.0548079742758));
#1186=CARTESIAN_POINT('Origin',(-42.1495122307728,18.5,-39.4716016390964));
#1187=CARTESIAN_POINT('',(-11.5,18.5,-40.4716016390964));
#1188=CARTESIAN_POINT('Origin',(-11.5,18.5,-39.4716016390964));
#1189=CARTESIAN_POINT('',(-9.99999999999999,18.5,-40.4716016390964));
#1190=CARTESIAN_POINT('',(-42.1495122307728,18.5,-40.4716016390964));
#1191=CARTESIAN_POINT('Origin',(-9.99999999999999,18.5,-39.4716016390964));
#1192=CARTESIAN_POINT('Origin',(-42.1495122307728,106.,-11.0548079742758));
#1193=CARTESIAN_POINT('',(-42.1495122307728,106.,-12.0548079742758));
#1194=CARTESIAN_POINT('Origin',(-42.1495122307728,106.,-11.0548079742758));
#1195=CARTESIAN_POINT('',(-40.6495122307728,106.,-12.0548079742758));
#1196=CARTESIAN_POINT('',(-42.1495122307728,106.,-12.0548079742758));
#1197=CARTESIAN_POINT('Origin',(-40.6495122307728,106.,-11.0548079742758));
#1198=CARTESIAN_POINT('Origin',(-42.1495122307728,51.,-53.519611610163));
#1199=CARTESIAN_POINT('',(-42.1495122307728,51.,-54.519611610163));
#1200=CARTESIAN_POINT('Origin',(-42.1495122307728,51.,-53.519611610163));
#1201=CARTESIAN_POINT('',(-40.6495122307728,51.,-54.519611610163));
#1202=CARTESIAN_POINT('',(-42.1495122307728,51.,-54.519611610163));
#1203=CARTESIAN_POINT('Origin',(-40.6495122307728,51.,-53.519611610163));
#1204=CARTESIAN_POINT('Origin',(-42.1495122307728,64.4290327878409,-25.0802889070105));
#1205=CARTESIAN_POINT('',(-40.6495122307728,65.0651541819836,-26.9764296116825));
#1206=CARTESIAN_POINT('',(-40.6495122307728,64.4290327878409,-25.0802889070105));
#1207=CARTESIAN_POINT('',(-40.6495122307728,69.6926610912158,-40.7700298466987));
#1208=CARTESIAN_POINT('',(-42.1495122307728,65.0651541819836,-26.9764296116825));
#1209=CARTESIAN_POINT('',(-42.1495122307728,65.0651541819836,-26.9764296116825));
#1210=CARTESIAN_POINT('',(-42.1495122307728,64.4290327878409,-25.0802889070105));
#1211=CARTESIAN_POINT('',(-42.1495122307728,73.031027122926,-50.720979112209));
#1212=CARTESIAN_POINT('',(-42.1495122307728,64.4290327878409,-25.0802889070105));
#1213=CARTESIAN_POINT('Origin',(-42.1495122307728,64.4290327878409,-25.0802889070105));
#1214=CARTESIAN_POINT('',(-40.6495122307728,71.4899802628251,-46.1274507288693));
#1215=CARTESIAN_POINT('',(-40.6495122307728,70.9492770778038,-44.5157311298982));
#1216=CARTESIAN_POINT('',(-40.6495122307728,69.6926610912158,-40.7700298466987));
#1217=CARTESIAN_POINT('',(-42.1495122307728,71.4899802628251,-46.1274507288693));
#1218=CARTESIAN_POINT('',(-42.1495122307728,71.4899802628251,-46.1274507288693));
#1219=CARTESIAN_POINT('',(-42.1495122307728,70.9492770778038,-44.5157311298982));
#1220=CARTESIAN_POINT('',(-42.1495122307728,73.031027122926,-50.720979112209));
#1221=CARTESIAN_POINT('',(-42.1495122307728,70.9492770778038,-44.5157311298982));
#1222=CARTESIAN_POINT('Origin',(-42.1495122307728,66.3251734925128,-24.4441675128678));
#1223=CARTESIAN_POINT('',(-40.6495122307728,68.2213141971848,-23.808046118725));
#1224=CARTESIAN_POINT('Origin',(-40.6495122307728,66.3251734925128,-24.4441675128678));
#1225=CARTESIAN_POINT('',(-42.1495122307728,68.2213141971848,-23.808046118725));
#1226=CARTESIAN_POINT('Origin',(-42.1495122307728,66.3251734925128,-24.4441675128678));
#1227=CARTESIAN_POINT('',(-42.1495122307728,68.2213141971848,-23.808046118725));
#1228=CARTESIAN_POINT('Origin',(-42.1495122307728,75.2822616721691,-44.8552079405839));
#1229=CARTESIAN_POINT('',(-40.6495122307728,68.8574355913275,-25.704186823397));
#1230=CARTESIAN_POINT('',(-40.6495122307728,77.0154162380519,-50.0213679693426));
#1231=CARTESIAN_POINT('',(-42.1495122307728,68.8574355913275,-25.704186823397));
#1232=CARTESIAN_POINT('',(-42.1495122307728,80.3537822697621,-59.9723172348529));
#1233=CARTESIAN_POINT('',(-42.1495122307728,68.8574355913275,-25.704186823397));
#1234=CARTESIAN_POINT('Origin',(-42.1495122307728,75.2822616721691,-44.8552079405839));
#1235=CARTESIAN_POINT('',(-40.6495122307728,74.7415584871478,-43.2434883416127));
#1236=CARTESIAN_POINT('',(-40.6495122307728,75.2822616721691,-44.8552079405839));
#1237=CARTESIAN_POINT('',(-40.6495122307728,77.0154162380519,-50.0213679693426));
#1238=CARTESIAN_POINT('',(-42.1495122307728,74.7415584871478,-43.2434883416127));
#1239=CARTESIAN_POINT('',(-42.1495122307728,74.7415584871478,-43.2434883416127));
#1240=CARTESIAN_POINT('',(-42.1495122307728,75.2822616721691,-44.8552079405839));
#1241=CARTESIAN_POINT('',(-42.1495122307728,80.3537822697621,-59.9723172348529));
#1242=CARTESIAN_POINT('',(-42.1495122307728,75.2822616721691,-44.8552079405839));
#1243=CARTESIAN_POINT('Origin',(-42.1495122307728,73.3861209674971,-45.4913293347266));
#1244=CARTESIAN_POINT('Origin',(-40.6495122307728,73.3861209674971,-45.4913293347266));
#1245=CARTESIAN_POINT('Origin',(-42.1495122307728,73.3861209674971,-45.4913293347266));
#1246=CARTESIAN_POINT('Origin',(-42.1495122307728,84.7177383278309,-18.2737899896833));
#1247=CARTESIAN_POINT('',(-40.6495122307728,85.3538597219737,-20.1699306943553));
#1248=CARTESIAN_POINT('',(-40.6495122307728,84.7177383278309,-18.2737899896833));
#1249=CARTESIAN_POINT('',(-40.6495122307728,89.9813666312058,-33.9635309293715));
#1250=CARTESIAN_POINT('',(-42.1495122307728,85.3538597219737,-20.1699306943553));
#1251=CARTESIAN_POINT('',(-42.1495122307728,85.3538597219736,-20.1699306943553));
#1252=CARTESIAN_POINT('',(-42.1495122307728,84.7177383278309,-18.2737899896833));
#1253=CARTESIAN_POINT('',(-42.1495122307728,93.3197326629161,-43.9144801948818));
#1254=CARTESIAN_POINT('',(-42.1495122307728,84.7177383278309,-18.2737899896833));
#1255=CARTESIAN_POINT('Origin',(-42.1495122307728,84.7177383278309,-18.2737899896833));
#1256=CARTESIAN_POINT('',(-40.6495122307728,91.7786858028152,-39.3209518115421));
#1257=CARTESIAN_POINT('',(-40.6495122307728,91.2379826177939,-37.709232212571));
#1258=CARTESIAN_POINT('',(-40.6495122307728,89.9813666312058,-33.9635309293715));
#1259=CARTESIAN_POINT('',(-42.1495122307728,91.7786858028152,-39.3209518115421));
#1260=CARTESIAN_POINT('',(-42.1495122307728,91.7786858028152,-39.3209518115421));
#1261=CARTESIAN_POINT('',(-42.1495122307728,91.2379826177939,-37.709232212571));
#1262=CARTESIAN_POINT('',(-42.1495122307728,93.3197326629161,-43.9144801948818));
#1263=CARTESIAN_POINT('',(-42.1495122307728,91.2379826177939,-37.709232212571));
#1264=CARTESIAN_POINT('Origin',(-42.1495122307728,86.6138790325029,-17.6376685955406));
#1265=CARTESIAN_POINT('',(-40.6495122307728,88.5100197371749,-17.0015472013979));
#1266=CARTESIAN_POINT('Origin',(-40.6495122307728,86.6138790325029,-17.6376685955406));
#1267=CARTESIAN_POINT('',(-42.1495122307728,88.5100197371749,-17.0015472013979));
#1268=CARTESIAN_POINT('Origin',(-42.1495122307728,86.6138790325029,-17.6376685955406));
#1269=CARTESIAN_POINT('',(-42.1495122307728,88.5100197371749,-17.0015472013979));
#1270=CARTESIAN_POINT('Origin',(-42.1495122307728,95.5709672121591,-38.0487090232567));
#1271=CARTESIAN_POINT('',(-40.6495122307728,89.1461411313176,-18.8976879060698));
#1272=CARTESIAN_POINT('',(-40.6495122307728,97.3041217780419,-43.2148690520155));
#1273=CARTESIAN_POINT('',(-42.1495122307728,89.1461411313176,-18.8976879060698));
#1274=CARTESIAN_POINT('',(-42.1495122307728,100.642487809752,-53.1658183175258));
#1275=CARTESIAN_POINT('',(-42.1495122307728,89.1461411313176,-18.8976879060698));
#1276=CARTESIAN_POINT('Origin',(-42.1495122307728,93.6748265074872,-38.6848304173994));
#1277=CARTESIAN_POINT('',(-40.6495122307728,95.5709672121591,-38.0487090232567));
#1278=CARTESIAN_POINT('Origin',(-40.6495122307728,93.6748265074872,-38.6848304173994));
#1279=CARTESIAN_POINT('',(-42.1495122307728,95.5709672121591,-38.0487090232567));
#1280=CARTESIAN_POINT('',(-42.1495122307728,95.5709672121591,-38.0487090232567));
#1281=CARTESIAN_POINT('Origin',(-42.1495122307728,93.6748265074872,-38.6848304173994));
#1282=CARTESIAN_POINT('Origin',(-42.1495122307728,95.5709672121591,-38.0487090232567));
#1283=CARTESIAN_POINT('',(-40.6495122307728,95.0302640271378,-36.4369894242855));
#1284=CARTESIAN_POINT('',(-40.6495122307728,97.3041217780419,-43.2148690520155));
#1285=CARTESIAN_POINT('',(-42.1495122307728,95.0302640271378,-36.4369894242855));
#1286=CARTESIAN_POINT('',(-42.1495122307728,95.0302640271378,-36.4369894242855));
#1287=CARTESIAN_POINT('',(-42.1495122307728,100.642487809752,-53.1658183175258));
#1288=CARTESIAN_POINT('Origin',(-42.1495122307728,70.8070665249534,-44.5634402344589));
#1289=CARTESIAN_POINT('',(-40.6495122307728,95.1724745799882,-36.3892803197248));
#1290=CARTESIAN_POINT('',(-40.6495122307728,56.9000271040833,-49.2290039676799));
#1291=CARTESIAN_POINT('',(-42.1495122307728,95.1724745799882,-36.3892803197248));
#1292=CARTESIAN_POINT('',(-42.1495122307728,95.1724745799882,-36.3892803197248));
#1293=CARTESIAN_POINT('',(-42.1495122307728,86.5616610723731,-39.2780547021696));
#1294=CARTESIAN_POINT('Origin',(-42.1495122307728,70.8070665249534,-44.5634402344589));
#1295=CARTESIAN_POINT('',(-40.6495122307728,56.9000271040833,-49.2290039676799));
#1296=CARTESIAN_POINT('',(-42.1495122307728,86.5616610723731,-39.2780547021696));
#1297=CARTESIAN_POINT('Origin',(-42.1495122307728,70.8070665249534,-44.5634402344589));
#1298=CARTESIAN_POINT('',(-42.1495122307728,70.8070665249534,-44.5634402344589));
#1299=CARTESIAN_POINT('',(-42.1495122307728,86.5616610723731,-39.2780547021696));
#1300=CARTESIAN_POINT('',(-40.6495122307728,70.8070665249534,-44.5634402344589));
#1301=CARTESIAN_POINT('',(-42.1495122307728,70.8070665249534,-44.5634402344589));
#1302=CARTESIAN_POINT('',(-40.6495122307728,56.9000271040833,-49.2290039676799));
#1303=CARTESIAN_POINT('Origin',(-42.1495122307728,113.,-65.8386073573896));
#1304=CARTESIAN_POINT('',(-42.1495122307728,110.,-37.9452598852842));
#1305=CARTESIAN_POINT('',(-42.1495122307728,47.,-59.0806364595268));
#1306=CARTESIAN_POINT('',(-42.1495122307728,107.142721460071,-38.9038258839968));
#1307=CARTESIAN_POINT('',(-42.1495122307728,47.,-26.1901845485184));
#1308=CARTESIAN_POINT('',(-42.1495122307728,47.,-65.8386073573896));
#1309=CARTESIAN_POINT('',(-42.1495122307728,110.,-5.05480797427577));
#1310=CARTESIAN_POINT('',(-42.1495122307728,70.6837636072507,-18.2447041908265));
#1311=CARTESIAN_POINT('',(-42.1495122307728,110.,-35.4467076658327));
#1312=CARTESIAN_POINT('',(-42.1495122307728,89.288351684168,-18.8499788015091));
#1313=CARTESIAN_POINT('',(-42.1495122307728,100.514346770092,-52.3122494134795));
#1314=CARTESIAN_POINT('',(-42.1495122307728,92.8602422040702,-17.6516732265869));
#1315=CARTESIAN_POINT('',(-42.1495122307728,92.8602422040702,-17.6516732265869));
#1316=CARTESIAN_POINT('',(-42.1495122307728,64.9229436291332,-27.0241387162432));
#1317=CARTESIAN_POINT('',(-42.1495122307728,92.8602422040702,-17.6516732265869));
#1318=CARTESIAN_POINT('',(-42.1495122307728,73.206877267147,-51.7167585691057));
#1319=CARTESIAN_POINT('Origin',(-42.1495122307728,89.288351684168,-18.8499788015091));
#1320=CARTESIAN_POINT('',(-40.6495122307728,89.288351684168,-18.8499788015091));
#1321=CARTESIAN_POINT('',(-42.1495122307728,89.288351684168,-18.8499788015091));
#1322=CARTESIAN_POINT('',(-40.6495122307728,63.1986082357805,-27.6026224920972));
#1323=CARTESIAN_POINT('Origin',(-42.1495122307728,89.288351684168,-18.8499788015091));
#1324=CARTESIAN_POINT('',(-40.6495122307728,63.1986082357805,-27.6026224920972));
#1325=CARTESIAN_POINT('Origin',(-42.1495122307728,95.1724745799882,-36.3892803197248));
#1326=CARTESIAN_POINT('',(-40.6495122307728,97.1759807383817,-42.3613001479692));
#1327=CARTESIAN_POINT('Origin',(-42.1495122307728,64.9229436291332,-27.0241387162432));
#1328=CARTESIAN_POINT('',(-40.6495122307728,64.9229436291332,-27.0241387162432));
#1329=CARTESIAN_POINT('',(-40.6495122307728,69.8685112354368,-41.7658093035953));
#1330=CARTESIAN_POINT('',(-42.1495122307728,64.9229436291332,-27.0241387162432));
#1331=CARTESIAN_POINT('Origin',(-42.1495122307728,89.288351684168,-18.8499788015091));
#1332=CARTESIAN_POINT('',(-40.6495122307728,63.1986082357805,-27.6026224920972));
#1333=CARTESIAN_POINT('Origin',(-11.5,14.5,-55.6481290479807));
#1334=CARTESIAN_POINT('',(-9.99999999999999,19.5,-55.6481290479807));
#1335=CARTESIAN_POINT('',(-9.99999999999998,14.5,-55.6481290479807));
#1336=CARTESIAN_POINT('',(-9.99999999999998,15.75,-55.6481290479807));
#1337=CARTESIAN_POINT('',(-11.5,14.5,-55.6481290479807));
#1338=CARTESIAN_POINT('',(-11.5,14.5,-55.6481290479807));
#1339=CARTESIAN_POINT('',(-11.5,19.5,-55.6481290479807));
#1340=CARTESIAN_POINT('',(-11.5,19.5,-55.6481290479807));
#1341=CARTESIAN_POINT('',(-11.5,19.5,-55.6481290479807));
#1342=CARTESIAN_POINT('Origin',(-11.5,14.5,-36.5481964807499));
#1343=CARTESIAN_POINT('',(-9.99999999999999,14.5,-36.5481964807499));
#1344=CARTESIAN_POINT('',(-9.99999999999999,14.5,-40.9247945482381));
#1345=CARTESIAN_POINT('',(-11.5,14.5,-36.5481964807499));
#1346=CARTESIAN_POINT('',(-11.5,14.5,-36.5481964807499));
#1347=CARTESIAN_POINT('',(-11.5,14.5,-55.6481290479807));
#1348=CARTESIAN_POINT('Origin',(-20.6495122307728,47.,-65.8386073573896));
#1349=CARTESIAN_POINT('',(-40.6495122307728,47.,-59.0806364595268));
#1350=CARTESIAN_POINT('',(-29.2284386828827,28.9334004049105,-64.8386073573897));
#1351=CARTESIAN_POINT('Origin',(-20.6495122307728,47.,-59.0806364595268));
#1352=CARTESIAN_POINT('',(-40.6495122307728,47.,-26.1901845485184));
#1353=CARTESIAN_POINT('',(-40.6495122307728,47.,-65.8386073573896));
#1354=CARTESIAN_POINT('',(-20.6495122307728,27.,-32.5643457375548));
#1355=CARTESIAN_POINT('Origin',(-20.6495122307728,47.,-26.1901845484427));
#1356=CARTESIAN_POINT('',(-20.6495122307728,27.,-64.8386073573897));
#1357=CARTESIAN_POINT('',(-20.6495122307728,27.,-65.8386073573896));
#1358=CARTESIAN_POINT('Origin',(-20.6495122307728,47.,-64.8386073573897));
#1359=CARTESIAN_POINT('Origin',(-12.,27.,-65.8386073573896));
#1360=CARTESIAN_POINT('',(-12.,27.,-64.8386073573896));
#1361=CARTESIAN_POINT('',(-26.3247561153864,27.,-64.8386073573897));
#1362=CARTESIAN_POINT('',(-12.,27.,-32.5643457375548));
#1363=CARTESIAN_POINT('',(-26.3247561153864,27.,-32.5643457375548));
#1364=CARTESIAN_POINT('',(-12.,27.,-65.8386073573896));
#1365=CARTESIAN_POINT('Origin',(-40.6495122307728,47.,-65.8386073573896));
#1366=CARTESIAN_POINT('',(-40.6495122307728,110.,-37.9452598852842));
#1367=CARTESIAN_POINT('',(-40.6495122307728,77.4810874917814,-48.8547751495072));
#1368=CARTESIAN_POINT('',(-40.6495122307728,110.,-5.05480797427577));
#1369=CARTESIAN_POINT('',(-40.6495122307728,110.,-35.4467076658327));
#1370=CARTESIAN_POINT('',(-40.6495122307728,41.0221296389609,-28.1956534563369));
#1371=CARTESIAN_POINT('Origin',(-40.6495122307728,110.,-37.9452598852842));
#1372=CARTESIAN_POINT('',(-40.6495122307728,47.,-59.0806364595268));
#1373=CARTESIAN_POINT('',(-40.6495122307728,110.,-37.9452598852842));
#1374=CARTESIAN_POINT('Origin',(-40.6495122307728,47.,-59.0806364595268));
#1375=CARTESIAN_POINT('',(-32.3048963544605,28.9334004049105,-64.8386073573897));
#1376=CARTESIAN_POINT('',(-40.6495122307728,28.9334004049105,-64.8386073573897));
#1377=CARTESIAN_POINT('Origin',(-20.6495122307728,47.,-59.0806364595268));
#1378=CARTESIAN_POINT('Origin',(-40.6495122307728,28.9334004049105,-64.8386073573897));
#1379=CARTESIAN_POINT('',(-9.99999999999999,25.,-64.8386073573896));
#1380=CARTESIAN_POINT('Origin',(-12.,25.,-64.8386073573897));
#1381=CARTESIAN_POINT('',(-9.99999999999999,19.5,-64.8386073573896));
#1382=CARTESIAN_POINT('',(-9.99999999999999,24.2167002024553,-64.8386073573896));
#1383=CARTESIAN_POINT('',(-11.5,19.5,-64.8386073573896));
#1384=CARTESIAN_POINT('',(-40.6495122307728,19.5,-64.8386073573897));
#1385=CARTESIAN_POINT('',(-11.5,25.,-64.8386073573896));
#1386=CARTESIAN_POINT('',(-11.5,26.9667002024553,-64.8386073573897));
#1387=CARTESIAN_POINT('',(-12.,25.5,-64.8386073573896));
#1388=CARTESIAN_POINT('Origin',(-12.,25.,-64.8386073573897));
#1389=CARTESIAN_POINT('',(-20.6495122307728,25.5,-64.8386073573897));
#1390=CARTESIAN_POINT('',(-30.6495122307728,25.5,-64.8386073573897));
#1391=CARTESIAN_POINT('Origin',(-20.6495122307728,47.,-64.8386073573897));
#1392=CARTESIAN_POINT('Origin',(-11.5,19.5,-65.8386073573896));
#1393=CARTESIAN_POINT('',(-11.5,19.5,-63.1521156842859));
#1394=CARTESIAN_POINT('',(-9.99999999999999,19.5,-65.8386073573896));
#1395=CARTESIAN_POINT('Origin',(-40.6495122307728,110.,-5.05480797427577));
#1396=CARTESIAN_POINT('',(-40.6495122307728,110.,-5.05480797427577));
#1397=CARTESIAN_POINT('Origin',(-40.6495122307728,47.,-26.1901845485184));
#1398=CARTESIAN_POINT('',(-40.6495122307728,47.,-26.1901845485184));
#1399=CARTESIAN_POINT('Origin',(-40.6495122307728,19.5,-34.9546561834719));
#1400=CARTESIAN_POINT('',(-20.6495122307728,25.5,-33.0424078267382));
#1401=CARTESIAN_POINT('Origin',(-20.6495122307728,47.,-26.1901845484427));
#1402=CARTESIAN_POINT('',(-12.,25.5,-33.0424078267382));
#1403=CARTESIAN_POINT('',(-30.6495122307728,25.5,-33.0424078267382));
#1404=CARTESIAN_POINT('',(-11.5,25.,-33.201761856466));
#1405=CARTESIAN_POINT('Origin',(-12.,25.,-33.201761856466));
#1406=CARTESIAN_POINT('',(-11.5,17.5287475531054,-35.5829102255188));
#1407=CARTESIAN_POINT('',(-10.,25.,-33.201761856466));
#1408=CARTESIAN_POINT('',(-9.99999999999999,15.0323215889383,-36.3785413001331));
#1409=CARTESIAN_POINT('Origin',(-12.,25.,-33.201761856466));
#1410=CARTESIAN_POINT('Origin',(-9.99999999999999,19.5,-65.8386073573896));
#1411=CARTESIAN_POINT('',(-9.99999999999999,25.,-65.8386073573896));
#1412=CARTESIAN_POINT('Origin',(-20.6495122307728,47.,-65.8386073573896));
#1413=CARTESIAN_POINT('',(-20.6495122307728,25.5,-65.8386073573896));
#1414=CARTESIAN_POINT('Origin',(-12.,25.,-65.8386073573896));
#1415=CARTESIAN_POINT('Origin',(-11.5,25.,-65.8386073573896));
#1416=CARTESIAN_POINT('',(-11.5,25.,-65.8386073573896));
#1417=CARTESIAN_POINT('Origin',(-12.,25.,-65.8386073573896));
#1418=CARTESIAN_POINT('',(-12.,25.5,-65.8386073573896));
#1419=CARTESIAN_POINT('Origin',(-20.6495122307728,25.5,-65.8386073573896));
#1420=UNCERTAINTY_MEASURE_WITH_UNIT(LENGTH_MEASURE(0.01),#1424,
'DISTANCE_ACCURACY_VALUE',
'Maximum model space distance between geometric entities at asserted c
onnectivities');
#1421=UNCERTAINTY_MEASURE_WITH_UNIT(LENGTH_MEASURE(0.01),#1424,
'DISTANCE_ACCURACY_VALUE',
'Maximum model space distance between geometric entities at asserted c
onnectivities');
#1422=(
GEOMETRIC_REPRESENTATION_CONTEXT(3)
GLOBAL_UNCERTAINTY_ASSIGNED_CONTEXT((#1420))
GLOBAL_UNIT_ASSIGNED_CONTEXT((#1424,#1426,#1427))
REPRESENTATION_CONTEXT('','3D')
);
#1423=(
GEOMETRIC_REPRESENTATION_CONTEXT(3)
GLOBAL_UNCERTAINTY_ASSIGNED_CONTEXT((#1421))
GLOBAL_UNIT_ASSIGNED_CONTEXT((#1424,#1426,#1427))
REPRESENTATION_CONTEXT('','3D')
);
#1424=(
LENGTH_UNIT()
NAMED_UNIT(*)
SI_UNIT(.MILLI.,.METRE.)
);
#1425=(
LENGTH_UNIT()
NAMED_UNIT(*)
SI_UNIT(.CENTI.,.METRE.)
);
#1426=(
NAMED_UNIT(*)
PLANE_ANGLE_UNIT()
SI_UNIT($,.RADIAN.)
);
#1427=(
NAMED_UNIT(*)
SI_UNIT($,.STERADIAN.)
SOLID_ANGLE_UNIT()
);
#1428=SHAPE_DEFINITION_REPRESENTATION(#1429,#1430);
#1429=PRODUCT_DEFINITION_SHAPE('',$,#1432);
#1430=SHAPE_REPRESENTATION('',(#876),#1422);
#1431=PRODUCT_DEFINITION_CONTEXT('part definition',#1436,'design');
#1432=PRODUCT_DEFINITION('handle_monitor_case_side',
'handle_monitor_case_side',#1433,#1431);
#1433=PRODUCT_DEFINITION_FORMATION('',$,#1438);
#1434=PRODUCT_RELATED_PRODUCT_CATEGORY('handle_monitor_case_side',
'handle_monitor_case_side',(#1438));
#1435=APPLICATION_PROTOCOL_DEFINITION('international standard',
'automotive_design',2009,#1436);
#1436=APPLICATION_CONTEXT(
'Core Data for Automotive Mechanical Design Process');
#1437=PRODUCT_CONTEXT('part definition',#1436,'mechanical');
#1438=PRODUCT('handle_monitor_case_side','handle_monitor_case_side',$,(#1437));
#1439=PRESENTATION_STYLE_ASSIGNMENT((#1441));
#1440=PRESENTATION_STYLE_ASSIGNMENT((#1442));
#1441=SURFACE_STYLE_USAGE(.BOTH.,#1447);
#1442=SURFACE_STYLE_USAGE(.BOTH.,#1448);
#1443=SURFACE_STYLE_RENDERING_WITH_PROPERTIES($,#1455,(#1445));
#1444=SURFACE_STYLE_RENDERING_WITH_PROPERTIES($,#1456,(#1446));
#1445=SURFACE_STYLE_TRANSPARENT(0.);
#1446=SURFACE_STYLE_TRANSPARENT(0.);
#1447=SURFACE_SIDE_STYLE('',(#1449,#1443));
#1448=SURFACE_SIDE_STYLE('',(#1450,#1444));
#1449=SURFACE_STYLE_FILL_AREA(#1451);
#1450=SURFACE_STYLE_FILL_AREA(#1452);
#1451=FILL_AREA_STYLE('',(#1453));
#1452=FILL_AREA_STYLE('',(#1454));
#1453=FILL_AREA_STYLE_COLOUR('',#1455);
#1454=FILL_AREA_STYLE_COLOUR('',#1456);
#1455=COLOUR_RGB('',0.749019607843137,0.749019607843137,0.749019607843137);
#1456=COLOUR_RGB('',0.352941176470588,0.352941176470588,0.352941176470588);
ENDSEC;
END-ISO-10303-21;
