ISO-10303-21;
HEADER;
/* Generated by software containing ST-Developer
 * from STEP Tools, Inc. (www.steptools.com) 
 */

FILE_DESCRIPTION(
/* description */ (''),
/* implementation_level */ '2;1');

FILE_NAME(
/* name */ 'handle_inside_cover.stp',
/* time_stamp */ '2026-02-03T17:44:55+09:00',
/* author */ ('hibik'),
/* organization */ (''),
/* preprocessor_version */ 'ST-DEVELOPER v20.1',
/* originating_system */ 'Autodesk Inventor 2026',
/* authorisation */ '');

FILE_SCHEMA (('AUTOMOTIVE_DESIGN { 1 0 10303 214 3 1 1 }'));
ENDSEC;

DATA;
#10=MECHANICAL_DESIGN_GEOMETRIC_PRESENTATION_REPRESENTATION('',(#13),#1013);
#11=SHAPE_REPRESENTATION_RELATIONSHIP('SRR','None',#1020,#12);
#12=ADVANCED_BREP_SHAPE_REPRESENTATION('',(#14),#1012);
#13=STYLED_ITEM('',(#1030),#14);
#14=MANIFOLD_SOLID_BREP('\X2\30BD30EA30C330C9\X0\1',#484);
#15=(
BOUNDED_SURFACE()
B_SPLINE_SURFACE(1,2,((#867,#868,#869),(#870,#871,#872)),.UNSPECIFIED.,
 .F.,.F.,.F.)
B_SPLINE_SURFACE_WITH_KNOTS((2,2),(3,3),(1.82592719310934E-15,0.0205746669280223),
(2.30926655566725,2.88892948462702),.UNSPECIFIED.)
GEOMETRIC_REPRESENTATION_ITEM()
RATIONAL_B_SPLINE_SURFACE(((1.,0.95829205501037,1.),(1.,0.95829205501037,
1.)))
REPRESENTATION_ITEM('')
SURFACE()
);
#16=(
BOUNDED_SURFACE()
B_SPLINE_SURFACE(2,2,((#880,#881,#882,#883,#884),(#885,#886,#887,#888,#889),
(#890,#891,#892,#893,#894)),.UNSPECIFIED.,.F.,.F.,.F.)
B_SPLINE_SURFACE_WITH_KNOTS((3,3),(3,2,3),(-3.14159265358979,-1.5707963267949),
(-3.14159265358979,-2.34597859481693,-1.55036453604406),.UNSPECIFIED.)
GEOMETRIC_REPRESENTATION_ITEM()
RATIONAL_B_SPLINE_SURFACE(((1.,0.92191276155388,1.,0.92191276155388,1.),
(0.70710678118653,0.651890765357149,0.70710678118653,0.651890765357149,
0.70710678118653),(1.,0.92191276155388,1.,0.92191276155388,1.)))
REPRESENTATION_ITEM('')
SURFACE()
);
#17=FACE_BOUND('',#168,.T.);
#18=FACE_BOUND('',#169,.T.);
#19=FACE_BOUND('',#170,.T.);
#20=FACE_BOUND('',#181,.T.);
#21=FACE_BOUND('',#182,.T.);
#22=FACE_BOUND('',#183,.T.);
#23=PLANE('',#519);
#24=PLANE('',#520);
#25=PLANE('',#521);
#26=PLANE('',#522);
#27=PLANE('',#528);
#28=PLANE('',#537);
#29=PLANE('',#538);
#30=PLANE('',#539);
#31=PLANE('',#540);
#32=PLANE('',#541);
#33=PLANE('',#542);
#34=PLANE('',#543);
#35=PLANE('',#550);
#36=B_SPLINE_CURVE_WITH_KNOTS('',3,(#762,#763,#764,#765,#766,#767,#768,
#769,#770,#771,#772,#773,#774,#775,#776,#777,#778,#779),.UNSPECIFIED.,.F.,
 .F.,(4,2,2,2,2,2,2,2,4),(2.39473910076742,2.39875144119129,2.68806020759828,
2.97736897400526,3.26667774041224,3.55598650681923,3.84529527322621,4.13460403963319,
4.13861638005707),.UNSPECIFIED.);
#37=B_SPLINE_CURVE_WITH_KNOTS('',3,(#787,#788,#789,#790,#791,#792),
 .UNSPECIFIED.,.F.,.F.,(4,2,4),(3.29239278237957,3.50298079307598,3.68058625300565),
 .UNSPECIFIED.);
#38=B_SPLINE_CURVE_WITH_KNOTS('',3,(#802,#803,#804,#805,#806,#807,#808,
#809,#810,#811),.UNSPECIFIED.,.F.,.F.,(4,2,2,2,4),(-0.310255166462252,-0.272166659009566,
-0.23407815155688,-0.194732754037802,-0.155387356518725),.UNSPECIFIED.);
#39=B_SPLINE_CURVE_WITH_KNOTS('',3,(#845,#846,#847,#848,#849,#850,#851,
#852,#853,#854,#855,#856,#857),.UNSPECIFIED.,.F.,.F.,(4,3,3,3,4),(-20.0084811879236,
-19.306544717815,-18.4744742054466,-18.0972506658822,-17.9155131764771),
 .UNSPECIFIED.);
#40=B_SPLINE_CURVE_WITH_KNOTS('',3,(#895,#896,#897,#898,#899,#900,#901,
#902,#903,#904,#905,#906,#907,#908,#909,#910,#911,#912,#913,#914,#915,#916,
#917,#918,#919,#920,#921,#922,#923,#924,#925,#926,#927,#928,#929,#930,#931,
#932,#933,#934,#935,#936,#937),.UNSPECIFIED.,.F.,.F.,(4,3,3,3,3,3,3,3,3,
3,3,3,3,3,4),(-0.156604777639373,-0.148565694797081,-0.137178873857016,
-0.112718011046099,-0.110632563323332,-0.0839772496859029,-0.0794308733029117,
-0.0452751459638341,-0.0216945711337248,-0.0104320612399917,-0.00486067851392821,
-0.00208230360467762,-0.000694025624609104,0.,0.000693993478201048),
 .UNSPECIFIED.);
#41=B_SPLINE_CURVE_WITH_KNOTS('',3,(#962,#963,#964,#965,#966,#967,#968,
#969,#970,#971,#972,#973,#974),.UNSPECIFIED.,.F.,.F.,(4,3,3,3,4),(-20.0084811879236,
-19.306544717815,-18.4744742054466,-18.0972506658822,-17.8213801095274),
 .UNSPECIFIED.);
#42=LINE('',#719,#81);
#43=LINE('',#722,#82);
#44=LINE('',#780,#83);
#45=LINE('',#781,#84);
#46=LINE('',#782,#85);
#47=LINE('',#785,#86);
#48=LINE('',#794,#87);
#49=LINE('',#797,#88);
#50=LINE('',#800,#89);
#51=LINE('',#812,#90);
#52=LINE('',#815,#91);
#53=LINE('',#817,#92);
#54=LINE('',#819,#93);
#55=LINE('',#820,#94);
#56=LINE('',#823,#95);
#57=LINE('',#824,#96);
#58=LINE('',#827,#97);
#59=LINE('',#828,#98);
#60=LINE('',#835,#99);
#61=LINE('',#843,#100);
#62=LINE('',#860,#101);
#63=LINE('',#875,#102);
#64=LINE('',#879,#103);
#65=LINE('',#940,#104);
#66=LINE('',#941,#105);
#67=LINE('',#944,#106);
#68=LINE('',#946,#107);
#69=LINE('',#948,#108);
#70=LINE('',#949,#109);
#71=LINE('',#952,#110);
#72=LINE('',#953,#111);
#73=LINE('',#955,#112);
#74=LINE('',#957,#113);
#75=LINE('',#958,#114);
#76=LINE('',#975,#115);
#77=LINE('',#983,#116);
#78=LINE('',#985,#117);
#79=LINE('',#987,#118);
#80=LINE('',#1008,#119);
#81=VECTOR('',#561,10.);
#82=VECTOR('',#564,10.);
#83=VECTOR('',#573,10.);
#84=VECTOR('',#574,10.);
#85=VECTOR('',#575,10.);
#86=VECTOR('',#578,10.);
#87=VECTOR('',#579,10.);
#88=VECTOR('',#582,10.);
#89=VECTOR('',#585,10.);
#90=VECTOR('',#586,10.);
#91=VECTOR('',#589,10.);
#92=VECTOR('',#590,10.);
#93=VECTOR('',#591,10.);
#94=VECTOR('',#592,10.);
#95=VECTOR('',#595,10.);
#96=VECTOR('',#596,10.);
#97=VECTOR('',#599,10.);
#98=VECTOR('',#600,10.);
#99=VECTOR('',#609,10.);
#100=VECTOR('',#618,10.);
#101=VECTOR('',#621,10.);
#102=VECTOR('',#630,10.);
#103=VECTOR('',#635,10.);
#104=VECTOR('',#638,10.);
#105=VECTOR('',#639,10.);
#106=VECTOR('',#642,10.);
#107=VECTOR('',#643,10.);
#108=VECTOR('',#644,10.);
#109=VECTOR('',#645,10.);
#110=VECTOR('',#648,10.);
#111=VECTOR('',#649,10.);
#112=VECTOR('',#652,10.);
#113=VECTOR('',#655,10.);
#114=VECTOR('',#656,10.);
#115=VECTOR('',#661,10.);
#116=VECTOR('',#670,1.15);
#117=VECTOR('',#673,1.15);
#118=VECTOR('',#676,1.15);
#119=VECTOR('',#677,10.);
#120=CYLINDRICAL_SURFACE('',#510,4.);
#121=CYLINDRICAL_SURFACE('',#515,4.);
#122=CYLINDRICAL_SURFACE('',#516,4.);
#123=CYLINDRICAL_SURFACE('',#518,1.);
#124=CYLINDRICAL_SURFACE('',#524,15.);
#125=CYLINDRICAL_SURFACE('',#535,1.);
#126=CYLINDRICAL_SURFACE('',#547,1.15);
#127=CYLINDRICAL_SURFACE('',#548,1.15);
#128=CYLINDRICAL_SURFACE('',#549,1.15);
#129=FACE_OUTER_BOUND('',#156,.T.);
#130=FACE_OUTER_BOUND('',#157,.T.);
#131=FACE_OUTER_BOUND('',#158,.T.);
#132=FACE_OUTER_BOUND('',#159,.T.);
#133=FACE_OUTER_BOUND('',#160,.T.);
#134=FACE_OUTER_BOUND('',#161,.T.);
#135=FACE_OUTER_BOUND('',#162,.T.);
#136=FACE_OUTER_BOUND('',#163,.T.);
#137=FACE_OUTER_BOUND('',#164,.T.);
#138=FACE_OUTER_BOUND('',#165,.T.);
#139=FACE_OUTER_BOUND('',#166,.T.);
#140=FACE_OUTER_BOUND('',#167,.T.);
#141=FACE_OUTER_BOUND('',#171,.T.);
#142=FACE_OUTER_BOUND('',#172,.T.);
#143=FACE_OUTER_BOUND('',#173,.T.);
#144=FACE_OUTER_BOUND('',#174,.T.);
#145=FACE_OUTER_BOUND('',#175,.T.);
#146=FACE_OUTER_BOUND('',#176,.T.);
#147=FACE_OUTER_BOUND('',#177,.T.);
#148=FACE_OUTER_BOUND('',#178,.T.);
#149=FACE_OUTER_BOUND('',#179,.T.);
#150=FACE_OUTER_BOUND('',#180,.T.);
#151=FACE_OUTER_BOUND('',#184,.T.);
#152=FACE_OUTER_BOUND('',#185,.T.);
#153=FACE_OUTER_BOUND('',#186,.T.);
#154=FACE_OUTER_BOUND('',#187,.T.);
#155=FACE_OUTER_BOUND('',#188,.T.);
#156=EDGE_LOOP('',(#320,#321,#322));
#157=EDGE_LOOP('',(#323,#324,#325,#326));
#158=EDGE_LOOP('',(#327,#328,#329));
#159=EDGE_LOOP('',(#330,#331,#332,#333,#334,#335));
#160=EDGE_LOOP('',(#336,#337,#338,#339,#340,#341));
#161=EDGE_LOOP('',(#342,#343,#344,#345));
#162=EDGE_LOOP('',(#346,#347,#348,#349,#350,#351));
#163=EDGE_LOOP('',(#352,#353,#354,#355));
#164=EDGE_LOOP('',(#356,#357,#358,#359));
#165=EDGE_LOOP('',(#360,#361,#362));
#166=EDGE_LOOP('',(#363,#364,#365,#366,#367,#368,#369,#370));
#167=EDGE_LOOP('',(#371,#372,#373,#374,#375,#376,#377));
#168=EDGE_LOOP('',(#378));
#169=EDGE_LOOP('',(#379));
#170=EDGE_LOOP('',(#380));
#171=EDGE_LOOP('',(#381,#382,#383,#384,#385));
#172=EDGE_LOOP('',(#386,#387,#388,#389));
#173=EDGE_LOOP('',(#390,#391,#392));
#174=EDGE_LOOP('',(#393,#394,#395,#396,#397));
#175=EDGE_LOOP('',(#398,#399,#400,#401,#402,#403));
#176=EDGE_LOOP('',(#404,#405,#406,#407));
#177=EDGE_LOOP('',(#408,#409,#410,#411,#412));
#178=EDGE_LOOP('',(#413,#414,#415,#416,#417));
#179=EDGE_LOOP('',(#418,#419,#420,#421,#422));
#180=EDGE_LOOP('',(#423,#424,#425,#426,#427,#428,#429));
#181=EDGE_LOOP('',(#430));
#182=EDGE_LOOP('',(#431));
#183=EDGE_LOOP('',(#432));
#184=EDGE_LOOP('',(#433,#434,#435,#436));
#185=EDGE_LOOP('',(#437,#438,#439,#440));
#186=EDGE_LOOP('',(#441,#442,#443,#444));
#187=EDGE_LOOP('',(#445,#446,#447,#448,#449));
#188=EDGE_LOOP('',(#450,#451,#452,#453));
#189=ELLIPSE('',#508,5.,4.);
#190=ELLIPSE('',#509,5.,4.00000000000001);
#191=ELLIPSE('',#513,4.99999999999999,4.);
#192=ELLIPSE('',#514,5.,4.);
#193=ELLIPSE('',#529,72.9051899234993,58.2246735396486);
#194=ELLIPSE('',#534,72.9051899234993,58.2246735396486);
#195=CIRCLE('',#507,0.999999999999996);
#196=CIRCLE('',#511,4.);
#197=CIRCLE('',#512,1.);
#198=CIRCLE('',#517,4.);
#199=CIRCLE('',#523,15.);
#200=CIRCLE('',#525,15.);
#201=CIRCLE('',#526,15.);
#202=CIRCLE('',#527,15.);
#203=CIRCLE('',#530,1.);
#204=CIRCLE('',#531,1.15);
#205=CIRCLE('',#532,1.15);
#206=CIRCLE('',#533,1.15);
#207=CIRCLE('',#536,1.);
#208=CIRCLE('',#544,1.15);
#209=CIRCLE('',#545,1.15);
#210=CIRCLE('',#546,1.15);
#211=VERTEX_POINT('',#711);
#212=VERTEX_POINT('',#712);
#213=VERTEX_POINT('',#714);
#214=VERTEX_POINT('',#718);
#215=VERTEX_POINT('',#720);
#216=VERTEX_POINT('',#753);
#217=VERTEX_POINT('',#754);
#218=VERTEX_POINT('',#756);
#219=VERTEX_POINT('',#760);
#220=VERTEX_POINT('',#761);
#221=VERTEX_POINT('',#784);
#222=VERTEX_POINT('',#786);
#223=VERTEX_POINT('',#793);
#224=VERTEX_POINT('',#795);
#225=VERTEX_POINT('',#799);
#226=VERTEX_POINT('',#801);
#227=VERTEX_POINT('',#814);
#228=VERTEX_POINT('',#816);
#229=VERTEX_POINT('',#818);
#230=VERTEX_POINT('',#822);
#231=VERTEX_POINT('',#826);
#232=VERTEX_POINT('',#832);
#233=VERTEX_POINT('',#834);
#234=VERTEX_POINT('',#836);
#235=VERTEX_POINT('',#840);
#236=VERTEX_POINT('',#842);
#237=VERTEX_POINT('',#844);
#238=VERTEX_POINT('',#858);
#239=VERTEX_POINT('',#861);
#240=VERTEX_POINT('',#863);
#241=VERTEX_POINT('',#865);
#242=VERTEX_POINT('',#873);
#243=VERTEX_POINT('',#877);
#244=VERTEX_POINT('',#939);
#245=VERTEX_POINT('',#943);
#246=VERTEX_POINT('',#945);
#247=VERTEX_POINT('',#947);
#248=VERTEX_POINT('',#951);
#249=VERTEX_POINT('',#961);
#250=VERTEX_POINT('',#976);
#251=VERTEX_POINT('',#978);
#252=VERTEX_POINT('',#980);
#253=EDGE_CURVE('',#211,#212,#195,.T.);
#254=EDGE_CURVE('',#212,#213,#189,.T.);
#255=EDGE_CURVE('',#213,#211,#190,.T.);
#256=EDGE_CURVE('',#212,#214,#42,.T.);
#257=EDGE_CURVE('',#214,#215,#196,.T.);
#258=EDGE_CURVE('',#215,#213,#43,.T.);
#259=EDGE_CURVE('',#216,#217,#197,.T.);
#260=EDGE_CURVE('',#217,#218,#191,.T.);
#261=EDGE_CURVE('',#218,#216,#192,.T.);
#262=EDGE_CURVE('',#219,#220,#36,.T.);
#263=EDGE_CURVE('',#220,#218,#44,.T.);
#264=EDGE_CURVE('',#217,#211,#45,.T.);
#265=EDGE_CURVE('',#213,#219,#46,.T.);
#266=EDGE_CURVE('',#218,#221,#47,.T.);
#267=EDGE_CURVE('',#221,#222,#37,.T.);
#268=EDGE_CURVE('',#222,#223,#48,.T.);
#269=EDGE_CURVE('',#223,#224,#198,.T.);
#270=EDGE_CURVE('',#224,#216,#49,.T.);
#271=EDGE_CURVE('',#216,#225,#50,.T.);
#272=EDGE_CURVE('',#225,#226,#38,.T.);
#273=EDGE_CURVE('',#226,#217,#51,.T.);
#274=EDGE_CURVE('',#227,#224,#52,.T.);
#275=EDGE_CURVE('',#228,#227,#53,.T.);
#276=EDGE_CURVE('',#228,#229,#54,.T.);
#277=EDGE_CURVE('',#229,#225,#55,.T.);
#278=EDGE_CURVE('',#223,#230,#56,.T.);
#279=EDGE_CURVE('',#230,#227,#57,.T.);
#280=EDGE_CURVE('',#222,#231,#58,.T.);
#281=EDGE_CURVE('',#231,#230,#59,.T.);
#282=EDGE_CURVE('',#220,#221,#199,.T.);
#283=EDGE_CURVE('',#232,#219,#200,.T.);
#284=EDGE_CURVE('',#233,#232,#60,.T.);
#285=EDGE_CURVE('',#233,#234,#201,.T.);
#286=EDGE_CURVE('',#234,#231,#202,.T.);
#287=EDGE_CURVE('',#226,#235,#193,.T.);
#288=EDGE_CURVE('',#235,#236,#61,.T.);
#289=EDGE_CURVE('',#236,#237,#39,.T.);
#290=EDGE_CURVE('',#238,#237,#203,.T.);
#291=EDGE_CURVE('',#211,#238,#62,.T.);
#292=EDGE_CURVE('',#239,#239,#204,.T.);
#293=EDGE_CURVE('',#240,#240,#205,.T.);
#294=EDGE_CURVE('',#241,#241,#206,.T.);
#295=EDGE_CURVE('',#229,#242,#194,.T.);
#296=EDGE_CURVE('',#242,#235,#63,.T.);
#297=EDGE_CURVE('',#238,#243,#207,.T.);
#298=EDGE_CURVE('',#243,#212,#64,.T.);
#299=EDGE_CURVE('',#237,#243,#40,.T.);
#300=EDGE_CURVE('',#244,#215,#65,.T.);
#301=EDGE_CURVE('',#232,#244,#66,.T.);
#302=EDGE_CURVE('',#245,#243,#67,.T.);
#303=EDGE_CURVE('',#246,#245,#68,.T.);
#304=EDGE_CURVE('',#246,#247,#69,.T.);
#305=EDGE_CURVE('',#214,#247,#70,.T.);
#306=EDGE_CURVE('',#248,#244,#71,.T.);
#307=EDGE_CURVE('',#233,#248,#72,.T.);
#308=EDGE_CURVE('',#228,#234,#73,.T.);
#309=EDGE_CURVE('',#234,#246,#74,.T.);
#310=EDGE_CURVE('',#247,#248,#75,.T.);
#311=EDGE_CURVE('',#249,#245,#41,.T.);
#312=EDGE_CURVE('',#242,#249,#76,.T.);
#313=EDGE_CURVE('',#250,#250,#208,.T.);
#314=EDGE_CURVE('',#251,#251,#209,.T.);
#315=EDGE_CURVE('',#252,#252,#210,.T.);
#316=EDGE_CURVE('',#241,#252,#77,.T.);
#317=EDGE_CURVE('',#240,#251,#78,.T.);
#318=EDGE_CURVE('',#239,#250,#79,.T.);
#319=EDGE_CURVE('',#249,#236,#80,.T.);
#320=ORIENTED_EDGE('',*,*,#253,.T.);
#321=ORIENTED_EDGE('',*,*,#254,.T.);
#322=ORIENTED_EDGE('',*,*,#255,.T.);
#323=ORIENTED_EDGE('',*,*,#254,.F.);
#324=ORIENTED_EDGE('',*,*,#256,.T.);
#325=ORIENTED_EDGE('',*,*,#257,.T.);
#326=ORIENTED_EDGE('',*,*,#258,.T.);
#327=ORIENTED_EDGE('',*,*,#259,.T.);
#328=ORIENTED_EDGE('',*,*,#260,.T.);
#329=ORIENTED_EDGE('',*,*,#261,.T.);
#330=ORIENTED_EDGE('',*,*,#262,.T.);
#331=ORIENTED_EDGE('',*,*,#263,.T.);
#332=ORIENTED_EDGE('',*,*,#260,.F.);
#333=ORIENTED_EDGE('',*,*,#264,.T.);
#334=ORIENTED_EDGE('',*,*,#255,.F.);
#335=ORIENTED_EDGE('',*,*,#265,.T.);
#336=ORIENTED_EDGE('',*,*,#261,.F.);
#337=ORIENTED_EDGE('',*,*,#266,.T.);
#338=ORIENTED_EDGE('',*,*,#267,.T.);
#339=ORIENTED_EDGE('',*,*,#268,.T.);
#340=ORIENTED_EDGE('',*,*,#269,.T.);
#341=ORIENTED_EDGE('',*,*,#270,.T.);
#342=ORIENTED_EDGE('',*,*,#259,.F.);
#343=ORIENTED_EDGE('',*,*,#271,.T.);
#344=ORIENTED_EDGE('',*,*,#272,.T.);
#345=ORIENTED_EDGE('',*,*,#273,.T.);
#346=ORIENTED_EDGE('',*,*,#270,.F.);
#347=ORIENTED_EDGE('',*,*,#274,.F.);
#348=ORIENTED_EDGE('',*,*,#275,.F.);
#349=ORIENTED_EDGE('',*,*,#276,.T.);
#350=ORIENTED_EDGE('',*,*,#277,.T.);
#351=ORIENTED_EDGE('',*,*,#271,.F.);
#352=ORIENTED_EDGE('',*,*,#269,.F.);
#353=ORIENTED_EDGE('',*,*,#278,.T.);
#354=ORIENTED_EDGE('',*,*,#279,.T.);
#355=ORIENTED_EDGE('',*,*,#274,.T.);
#356=ORIENTED_EDGE('',*,*,#268,.F.);
#357=ORIENTED_EDGE('',*,*,#280,.T.);
#358=ORIENTED_EDGE('',*,*,#281,.T.);
#359=ORIENTED_EDGE('',*,*,#278,.F.);
#360=ORIENTED_EDGE('',*,*,#266,.F.);
#361=ORIENTED_EDGE('',*,*,#263,.F.);
#362=ORIENTED_EDGE('',*,*,#282,.T.);
#363=ORIENTED_EDGE('',*,*,#267,.F.);
#364=ORIENTED_EDGE('',*,*,#282,.F.);
#365=ORIENTED_EDGE('',*,*,#262,.F.);
#366=ORIENTED_EDGE('',*,*,#283,.F.);
#367=ORIENTED_EDGE('',*,*,#284,.F.);
#368=ORIENTED_EDGE('',*,*,#285,.T.);
#369=ORIENTED_EDGE('',*,*,#286,.T.);
#370=ORIENTED_EDGE('',*,*,#280,.F.);
#371=ORIENTED_EDGE('',*,*,#264,.F.);
#372=ORIENTED_EDGE('',*,*,#273,.F.);
#373=ORIENTED_EDGE('',*,*,#287,.T.);
#374=ORIENTED_EDGE('',*,*,#288,.T.);
#375=ORIENTED_EDGE('',*,*,#289,.T.);
#376=ORIENTED_EDGE('',*,*,#290,.F.);
#377=ORIENTED_EDGE('',*,*,#291,.F.);
#378=ORIENTED_EDGE('',*,*,#292,.T.);
#379=ORIENTED_EDGE('',*,*,#293,.T.);
#380=ORIENTED_EDGE('',*,*,#294,.T.);
#381=ORIENTED_EDGE('',*,*,#272,.F.);
#382=ORIENTED_EDGE('',*,*,#277,.F.);
#383=ORIENTED_EDGE('',*,*,#295,.T.);
#384=ORIENTED_EDGE('',*,*,#296,.T.);
#385=ORIENTED_EDGE('',*,*,#287,.F.);
#386=ORIENTED_EDGE('',*,*,#253,.F.);
#387=ORIENTED_EDGE('',*,*,#291,.T.);
#388=ORIENTED_EDGE('',*,*,#297,.T.);
#389=ORIENTED_EDGE('',*,*,#298,.T.);
#390=ORIENTED_EDGE('',*,*,#299,.T.);
#391=ORIENTED_EDGE('',*,*,#297,.F.);
#392=ORIENTED_EDGE('',*,*,#290,.T.);
#393=ORIENTED_EDGE('',*,*,#258,.F.);
#394=ORIENTED_EDGE('',*,*,#300,.F.);
#395=ORIENTED_EDGE('',*,*,#301,.F.);
#396=ORIENTED_EDGE('',*,*,#283,.T.);
#397=ORIENTED_EDGE('',*,*,#265,.F.);
#398=ORIENTED_EDGE('',*,*,#256,.F.);
#399=ORIENTED_EDGE('',*,*,#298,.F.);
#400=ORIENTED_EDGE('',*,*,#302,.F.);
#401=ORIENTED_EDGE('',*,*,#303,.F.);
#402=ORIENTED_EDGE('',*,*,#304,.T.);
#403=ORIENTED_EDGE('',*,*,#305,.F.);
#404=ORIENTED_EDGE('',*,*,#284,.T.);
#405=ORIENTED_EDGE('',*,*,#301,.T.);
#406=ORIENTED_EDGE('',*,*,#306,.F.);
#407=ORIENTED_EDGE('',*,*,#307,.F.);
#408=ORIENTED_EDGE('',*,*,#308,.F.);
#409=ORIENTED_EDGE('',*,*,#275,.T.);
#410=ORIENTED_EDGE('',*,*,#279,.F.);
#411=ORIENTED_EDGE('',*,*,#281,.F.);
#412=ORIENTED_EDGE('',*,*,#286,.F.);
#413=ORIENTED_EDGE('',*,*,#309,.F.);
#414=ORIENTED_EDGE('',*,*,#285,.F.);
#415=ORIENTED_EDGE('',*,*,#307,.T.);
#416=ORIENTED_EDGE('',*,*,#310,.F.);
#417=ORIENTED_EDGE('',*,*,#304,.F.);
#418=ORIENTED_EDGE('',*,*,#257,.F.);
#419=ORIENTED_EDGE('',*,*,#305,.T.);
#420=ORIENTED_EDGE('',*,*,#310,.T.);
#421=ORIENTED_EDGE('',*,*,#306,.T.);
#422=ORIENTED_EDGE('',*,*,#300,.T.);
#423=ORIENTED_EDGE('',*,*,#309,.T.);
#424=ORIENTED_EDGE('',*,*,#303,.T.);
#425=ORIENTED_EDGE('',*,*,#311,.F.);
#426=ORIENTED_EDGE('',*,*,#312,.F.);
#427=ORIENTED_EDGE('',*,*,#295,.F.);
#428=ORIENTED_EDGE('',*,*,#276,.F.);
#429=ORIENTED_EDGE('',*,*,#308,.T.);
#430=ORIENTED_EDGE('',*,*,#313,.T.);
#431=ORIENTED_EDGE('',*,*,#314,.T.);
#432=ORIENTED_EDGE('',*,*,#315,.T.);
#433=ORIENTED_EDGE('',*,*,#294,.F.);
#434=ORIENTED_EDGE('',*,*,#316,.T.);
#435=ORIENTED_EDGE('',*,*,#315,.F.);
#436=ORIENTED_EDGE('',*,*,#316,.F.);
#437=ORIENTED_EDGE('',*,*,#293,.F.);
#438=ORIENTED_EDGE('',*,*,#317,.T.);
#439=ORIENTED_EDGE('',*,*,#314,.F.);
#440=ORIENTED_EDGE('',*,*,#317,.F.);
#441=ORIENTED_EDGE('',*,*,#292,.F.);
#442=ORIENTED_EDGE('',*,*,#318,.T.);
#443=ORIENTED_EDGE('',*,*,#313,.F.);
#444=ORIENTED_EDGE('',*,*,#318,.F.);
#445=ORIENTED_EDGE('',*,*,#299,.F.);
#446=ORIENTED_EDGE('',*,*,#289,.F.);
#447=ORIENTED_EDGE('',*,*,#319,.F.);
#448=ORIENTED_EDGE('',*,*,#311,.T.);
#449=ORIENTED_EDGE('',*,*,#302,.T.);
#450=ORIENTED_EDGE('',*,*,#312,.T.);
#451=ORIENTED_EDGE('',*,*,#319,.T.);
#452=ORIENTED_EDGE('',*,*,#288,.F.);
#453=ORIENTED_EDGE('',*,*,#296,.F.);
#454=B_SPLINE_SURFACE_WITH_KNOTS('',3,3,((#681,#682,#683,#684,#685,#686),
(#687,#688,#689,#690,#691,#692),(#693,#694,#695,#696,#697,#698),(#699,#700,
#701,#702,#703,#704),(#705,#706,#707,#708,#709,#710)),.UNSPECIFIED.,.F.,
 .F.,.F.,(4,1,4),(4,1,1,4),(0.,0.571428571428571,1.),(-1.5707963267949,
-0.897597901025657,-0.448798950512831,-4.14069600220048E-15),
 .UNSPECIFIED.);
#455=B_SPLINE_SURFACE_WITH_KNOTS('',3,3,((#723,#724,#725,#726,#727,#728),
(#729,#730,#731,#732,#733,#734),(#735,#736,#737,#738,#739,#740),(#741,#742,
#743,#744,#745,#746),(#747,#748,#749,#750,#751,#752)),.UNSPECIFIED.,.F.,
 .F.,.F.,(4,1,4),(4,1,1,4),(0.,0.571428571428571,1.),(-1.5707963267949,
-0.673198425769243,-0.44879895051283,-3.30489958199147E-15),
 .UNSPECIFIED.);
#456=B_SPLINE_SURFACE_WITH_KNOTS('',3,1,((#988,#989),(#990,#991),(#992,
#993),(#994,#995),(#996,#997),(#998,#999),(#1000,#1001),(#1002,#1003),(#1004,
#1005),(#1006,#1007)),.UNSPECIFIED.,.F.,.F.,.F.,(4,2,2,2,4),(2,2),(-20.0084811879236,
-19.306544717815,-18.4744742054466,-18.0972506658822,-17.8213801095274),
(0.,0.15),.UNSPECIFIED.);
#457=ADVANCED_FACE('',(#129),#454,.F.);
#458=ADVANCED_FACE('',(#130),#120,.T.);
#459=ADVANCED_FACE('',(#131),#455,.F.);
#460=ADVANCED_FACE('',(#132),#121,.T.);
#461=ADVANCED_FACE('',(#133),#122,.T.);
#462=ADVANCED_FACE('',(#134),#123,.T.);
#463=ADVANCED_FACE('',(#135),#23,.T.);
#464=ADVANCED_FACE('',(#136),#24,.T.);
#465=ADVANCED_FACE('',(#137),#25,.T.);
#466=ADVANCED_FACE('',(#138),#26,.T.);
#467=ADVANCED_FACE('',(#139),#124,.F.);
#468=ADVANCED_FACE('',(#140,#17,#18,#19),#27,.T.);
#469=ADVANCED_FACE('',(#141),#15,.T.);
#470=ADVANCED_FACE('',(#142),#125,.T.);
#471=ADVANCED_FACE('',(#143),#16,.T.);
#472=ADVANCED_FACE('',(#144),#28,.T.);
#473=ADVANCED_FACE('',(#145),#29,.T.);
#474=ADVANCED_FACE('',(#146),#30,.T.);
#475=ADVANCED_FACE('',(#147),#31,.T.);
#476=ADVANCED_FACE('',(#148),#32,.T.);
#477=ADVANCED_FACE('',(#149),#33,.T.);
#478=ADVANCED_FACE('',(#150,#20,#21,#22),#34,.F.);
#479=ADVANCED_FACE('',(#151),#126,.F.);
#480=ADVANCED_FACE('',(#152),#127,.F.);
#481=ADVANCED_FACE('',(#153),#128,.F.);
#482=ADVANCED_FACE('',(#154),#456,.T.);
#483=ADVANCED_FACE('',(#155),#35,.T.);
#484=CLOSED_SHELL('',(#457,#458,#459,#460,#461,#462,#463,#464,#465,#466,
#467,#468,#469,#470,#471,#472,#473,#474,#475,#476,#477,#478,#479,#480,#481,
#482,#483));
#485=DERIVED_UNIT_ELEMENT(#488,1.);
#486=DERIVED_UNIT_ELEMENT(#1015,-3.);
#487=DIMENSIONAL_EXPONENTS(0.,1.,0.,0.,0.,0.,0.);
#488=(
CONVERSION_BASED_UNIT('gram',#490)
MASS_UNIT()
NAMED_UNIT(#487)
);
#489=(
MASS_UNIT()
NAMED_UNIT(*)
SI_UNIT(.KILO.,.GRAM.)
);
#490=MASS_MEASURE_WITH_UNIT(MASS_MEASURE(0.001),#489);
#491=DERIVED_UNIT((#485,#486));
#492=MEASURE_REPRESENTATION_ITEM('density measure',
POSITIVE_RATIO_MEASURE(1.),#491);
#493=PROPERTY_DEFINITION_REPRESENTATION(#498,#495);
#494=PROPERTY_DEFINITION_REPRESENTATION(#499,#496);
#495=REPRESENTATION('material name',(#497),#1012);
#496=REPRESENTATION('density',(#492),#1012);
#497=DESCRIPTIVE_REPRESENTATION_ITEM('\X2\4E00822C\X0\','\X2\4E00822C\X0\');
#498=PROPERTY_DEFINITION('material property','material name',#1022);
#499=PROPERTY_DEFINITION('material property','density of part',#1022);
#500=DATE_TIME_ROLE('creation_date');
#501=APPLIED_DATE_AND_TIME_ASSIGNMENT(#502,#500,(#1022));
#502=DATE_AND_TIME(#503,#504);
#503=CALENDAR_DATE(2026,20,1);
#504=LOCAL_TIME(0,0,0.,#505);
#505=COORDINATED_UNIVERSAL_TIME_OFFSET(0,0,.BEHIND.);
#506=AXIS2_PLACEMENT_3D('',#680,#551,#552);
#507=AXIS2_PLACEMENT_3D('',#713,#553,#554);
#508=AXIS2_PLACEMENT_3D('',#715,#555,#556);
#509=AXIS2_PLACEMENT_3D('',#716,#557,#558);
#510=AXIS2_PLACEMENT_3D('',#717,#559,#560);
#511=AXIS2_PLACEMENT_3D('',#721,#562,#563);
#512=AXIS2_PLACEMENT_3D('',#755,#565,#566);
#513=AXIS2_PLACEMENT_3D('',#757,#567,#568);
#514=AXIS2_PLACEMENT_3D('',#758,#569,#570);
#515=AXIS2_PLACEMENT_3D('',#759,#571,#572);
#516=AXIS2_PLACEMENT_3D('',#783,#576,#577);
#517=AXIS2_PLACEMENT_3D('',#796,#580,#581);
#518=AXIS2_PLACEMENT_3D('',#798,#583,#584);
#519=AXIS2_PLACEMENT_3D('',#813,#587,#588);
#520=AXIS2_PLACEMENT_3D('',#821,#593,#594);
#521=AXIS2_PLACEMENT_3D('',#825,#597,#598);
#522=AXIS2_PLACEMENT_3D('',#829,#601,#602);
#523=AXIS2_PLACEMENT_3D('',#830,#603,#604);
#524=AXIS2_PLACEMENT_3D('',#831,#605,#606);
#525=AXIS2_PLACEMENT_3D('',#833,#607,#608);
#526=AXIS2_PLACEMENT_3D('',#837,#610,#611);
#527=AXIS2_PLACEMENT_3D('',#838,#612,#613);
#528=AXIS2_PLACEMENT_3D('',#839,#614,#615);
#529=AXIS2_PLACEMENT_3D('',#841,#616,#617);
#530=AXIS2_PLACEMENT_3D('',#859,#619,#620);
#531=AXIS2_PLACEMENT_3D('',#862,#622,#623);
#532=AXIS2_PLACEMENT_3D('',#864,#624,#625);
#533=AXIS2_PLACEMENT_3D('',#866,#626,#627);
#534=AXIS2_PLACEMENT_3D('',#874,#628,#629);
#535=AXIS2_PLACEMENT_3D('',#876,#631,#632);
#536=AXIS2_PLACEMENT_3D('',#878,#633,#634);
#537=AXIS2_PLACEMENT_3D('',#938,#636,#637);
#538=AXIS2_PLACEMENT_3D('',#942,#640,#641);
#539=AXIS2_PLACEMENT_3D('',#950,#646,#647);
#540=AXIS2_PLACEMENT_3D('',#954,#650,#651);
#541=AXIS2_PLACEMENT_3D('',#956,#653,#654);
#542=AXIS2_PLACEMENT_3D('',#959,#657,#658);
#543=AXIS2_PLACEMENT_3D('',#960,#659,#660);
#544=AXIS2_PLACEMENT_3D('',#977,#662,#663);
#545=AXIS2_PLACEMENT_3D('',#979,#664,#665);
#546=AXIS2_PLACEMENT_3D('',#981,#666,#667);
#547=AXIS2_PLACEMENT_3D('',#982,#668,#669);
#548=AXIS2_PLACEMENT_3D('',#984,#671,#672);
#549=AXIS2_PLACEMENT_3D('',#986,#674,#675);
#550=AXIS2_PLACEMENT_3D('',#1009,#678,#679);
#551=DIRECTION('axis',(0.,0.,1.));
#552=DIRECTION('refdir',(1.,0.,0.));
#553=DIRECTION('center_axis',(0.601815023152031,0.798635510047306,1.95318076667541E-14));
#554=DIRECTION('ref_axis',(0.798635510047306,-0.601815023152031,0.));
#555=DIRECTION('center_axis',(0.638908408037833,-0.481452018521639,0.600000000000001));
#556=DIRECTION('ref_axis',(0.479181306028378,-0.361089013891227,-0.799999999999999));
#557=DIRECTION('center_axis',(-0.479181306028375,0.361089013891231,-0.8));
#558=DIRECTION('ref_axis',(0.638908408037835,-0.481452018521637,-0.600000000000001));
#559=DIRECTION('center_axis',(-0.798635510047293,0.601815023152048,2.39837784854865E-16));
#560=DIRECTION('ref_axis',(0.425547483890754,0.564720584850819,-0.707106781186546));
#561=DIRECTION('',(-0.798635510047293,0.601815023152048,2.39837784854865E-16));
#562=DIRECTION('center_axis',(0.798635510047293,-0.601815023152048,-1.70803542250024E-16));
#563=DIRECTION('ref_axis',(0.425547483890754,0.564720584850819,-0.707106781186546));
#564=DIRECTION('',(0.798635510047293,-0.601815023152048,-2.39837784854865E-16));
#565=DIRECTION('center_axis',(0.60181502315205,0.798635510047291,5.34519116214981E-15));
#566=DIRECTION('ref_axis',(-8.88178419700123E-15,0.,1.));
#567=DIRECTION('center_axis',(-0.479181306028378,0.361089013891227,0.8));
#568=DIRECTION('ref_axis',(0.638908408037832,-0.481452018521641,0.6));
#569=DIRECTION('center_axis',(0.638908408037837,-0.481452018521636,-0.599999999999999));
#570=DIRECTION('ref_axis',(0.479181306028373,-0.361089013891231,0.8));
#571=DIRECTION('center_axis',(-1.40360750140545E-15,-2.26152382704455E-15,
1.));
#572=DIRECTION('ref_axis',(0.99026806874157,0.139173100960068,1.57009245868378E-15));
#573=DIRECTION('',(-1.40360750140545E-15,-2.26152382704455E-15,1.));
#574=DIRECTION('',(1.40360750140545E-15,2.26152382704455E-15,-1.));
#575=DIRECTION('',(-1.40360750140545E-15,-2.26152382704455E-15,1.));
#576=DIRECTION('center_axis',(-0.798635510047293,0.601815023152048,2.7755575615629E-16));
#577=DIRECTION('ref_axis',(0.42554748389075,0.564720584850818,0.707106781186549));
#578=DIRECTION('',(-0.798635510047293,0.601815023152048,2.7755575615629E-16));
#579=DIRECTION('',(-0.798635510047293,0.601815023152048,2.7755575615629E-16));
#580=DIRECTION('center_axis',(0.798635510047293,-0.601815023152048,-2.34854870593783E-16));
#581=DIRECTION('ref_axis',(0.42554748389075,0.564720584850818,0.707106781186549));
#582=DIRECTION('',(0.798635510047293,-0.601815023152048,-2.7755575615629E-16));
#583=DIRECTION('center_axis',(-0.601815023152048,-0.798635510047293,-3.55941022987177E-16));
#584=DIRECTION('ref_axis',(0.564720584850819,-0.425547483890751,0.707106781186547));
#585=DIRECTION('',(-0.601815023152048,-0.798635510047293,-3.55941022987177E-16));
#586=DIRECTION('',(0.601815023152048,0.798635510047293,3.55941022987177E-16));
#587=DIRECTION('center_axis',(7.45522789464899E-18,-4.51304364257302E-16,
1.));
#588=DIRECTION('ref_axis',(-0.601815023152048,-0.798635510047293,-3.55941022987177E-16));
#589=DIRECTION('',(0.601815023152048,0.798635510047293,2.05355864012606E-15));
#590=DIRECTION('',(-0.798635510047293,0.601815023152048,2.34854870593783E-16));
#591=DIRECTION('',(-0.601815023152048,-0.798635510047293,-3.55941022987177E-16));
#592=DIRECTION('',(0.798635510047294,-0.601815023152046,-2.77555756156289E-16));
#593=DIRECTION('center_axis',(-0.798635510047293,0.601815023152048,2.34854870593783E-16));
#594=DIRECTION('ref_axis',(2.94070157962142E-16,0.,1.));
#595=DIRECTION('',(-0.601815023152048,-0.798635510047293,-2.65084531605054E-15));
#596=DIRECTION('',(-1.40360750140545E-15,-2.26152382704455E-15,1.));
#597=DIRECTION('center_axis',(1.4077550958877E-15,2.25839839042427E-15,
-1.));
#598=DIRECTION('ref_axis',(-0.601815023152048,-0.798635510047293,-2.65084531605054E-15));
#599=DIRECTION('',(-0.601815023152048,-0.798635510047293,-2.64826858819967E-15));
#600=DIRECTION('',(-0.798635510047293,0.601815023152048,2.34854870593783E-16));
#601=DIRECTION('center_axis',(0.601815023152048,0.798635510047293,2.65084531605054E-15));
#602=DIRECTION('ref_axis',(1.40360750140545E-15,2.26152382704455E-15,-1.));
#603=DIRECTION('center_axis',(-0.601815023152048,-0.798635510047293,-2.65084531605054E-15));
#604=DIRECTION('ref_axis',(-0.798635510047293,0.601815023152048,5.76104740626117E-18));
#605=DIRECTION('center_axis',(-0.601815023152048,-0.798635510047293,-2.64826858819967E-15));
#606=DIRECTION('ref_axis',(0.794954192704429,-0.59904095155862,0.0959050043396712));
#607=DIRECTION('center_axis',(-0.601815023152048,-0.798635510047293,-2.65084531605054E-15));
#608=DIRECTION('ref_axis',(-0.798635510047293,0.601815023152048,5.76104740626117E-18));
#609=DIRECTION('',(0.601815023152048,0.798635510047293,2.64826858819967E-15));
#610=DIRECTION('center_axis',(-0.601815023152048,-0.798635510047293,-2.65084531605054E-15));
#611=DIRECTION('ref_axis',(-0.798635510047293,0.601815023152048,5.76104740626136E-18));
#612=DIRECTION('center_axis',(-0.601815023152048,-0.798635510047293,-2.65084531605054E-15));
#613=DIRECTION('ref_axis',(-0.798635510047293,0.601815023152048,5.76104740626136E-18));
#614=DIRECTION('center_axis',(0.798635510047293,-0.601815023152048,-2.40048221540574E-16));
#615=DIRECTION('ref_axis',(-3.00572937867938E-16,0.,-1.));
#616=DIRECTION('center_axis',(-0.798635510047293,0.601815023152048,2.40048221540574E-16));
#617=DIRECTION('ref_axis',(-0.601815023152048,-0.798635510047293,-3.35022877896388E-16));
#618=DIRECTION('',(2.15794722841323E-16,6.8524303019647E-16,-1.));
#619=DIRECTION('center_axis',(0.798635510047293,-0.601815023152048,-2.40048221540574E-16));
#620=DIRECTION('ref_axis',(-5.96744875736021E-15,-7.4940054162198E-15,-1.));
#621=DIRECTION('',(-0.601815023152048,-0.798635510047293,-2.82164885830057E-15));
#622=DIRECTION('center_axis',(-0.798635510047293,0.601815023152048,2.40048221540574E-16));
#623=DIRECTION('ref_axis',(1.4098033919356E-15,2.25685488864156E-15,-1.));
#624=DIRECTION('center_axis',(-0.798635510047293,0.601815023152048,2.40048221540574E-16));
#625=DIRECTION('ref_axis',(1.4098033919356E-15,2.25685488864156E-15,-1.));
#626=DIRECTION('center_axis',(-0.798635510047293,0.601815023152048,2.40048221540574E-16));
#627=DIRECTION('ref_axis',(1.4098033919356E-15,2.25685488864156E-15,-1.));
#628=DIRECTION('center_axis',(-0.798635510047293,0.601815023152048,2.40048221540574E-16));
#629=DIRECTION('ref_axis',(-0.601815023152048,-0.798635510047293,-3.35022877896388E-16));
#630=DIRECTION('',(0.798635510047294,-0.601815023152046,-2.77555756156289E-16));
#631=DIRECTION('center_axis',(0.601815023152048,0.798635510047293,2.82164885830057E-15));
#632=DIRECTION('ref_axis',(0.56472058485082,-0.425547483890752,-0.707106781186547));
#633=DIRECTION('center_axis',(0.601815023152046,0.798635510047294,0.));
#634=DIRECTION('ref_axis',(0.798635510047294,-0.601815023152046,0.));
#635=DIRECTION('',(0.601815023152048,0.798635510047293,2.82164885830057E-15));
#636=DIRECTION('center_axis',(0.601815023152048,0.798635510047293,2.65084531605054E-15));
#637=DIRECTION('ref_axis',(1.40360750140545E-15,2.26152382704455E-15,-1.));
#638=DIRECTION('',(1.70898168580488E-15,2.66676905710836E-15,-1.));
#639=DIRECTION('',(-0.798635510047293,0.601815023152048,1.70803542250024E-16));
#640=DIRECTION('center_axis',(1.50656770134893E-15,2.3978069571684E-15,
-1.));
#641=DIRECTION('ref_axis',(-0.601815023152048,-0.798635510047293,-2.82164885830057E-15));
#642=DIRECTION('',(0.798635510047294,-0.601815023152046,-2.77555756156289E-16));
#643=DIRECTION('',(-0.601815023152048,-0.798635510047293,-2.82164885830057E-15));
#644=DIRECTION('',(-0.798635510047293,0.601815023152048,1.70803542250024E-16));
#645=DIRECTION('',(-0.601815023152048,-0.798635510047293,-2.65084531605054E-15));
#646=DIRECTION('center_axis',(-1.45890876116872E-15,-2.21985133877415E-15,
1.));
#647=DIRECTION('ref_axis',(0.601815023152048,0.798635510047293,2.65084531605054E-15));
#648=DIRECTION('',(0.601815023152048,0.798635510047293,2.65084531605054E-15));
#649=DIRECTION('',(-0.798635510047293,0.601815023152048,1.70803542250024E-16));
#650=DIRECTION('center_axis',(-0.601815023152048,-0.798635510047293,-2.65084531605054E-15));
#651=DIRECTION('ref_axis',(-1.40360750140545E-15,-2.26152382704455E-15,
1.));
#652=DIRECTION('',(1.40360750140545E-15,2.26152382704455E-15,-1.));
#653=DIRECTION('center_axis',(-0.601815023152048,-0.798635510047293,-2.65084531605054E-15));
#654=DIRECTION('ref_axis',(-1.40360750140545E-15,-2.26152382704455E-15,
1.));
#655=DIRECTION('',(1.40360750140545E-15,2.26152382704455E-15,-1.));
#656=DIRECTION('',(-1.40360750140545E-15,-2.26152382704455E-15,1.));
#657=DIRECTION('center_axis',(-0.798635510047293,0.601815023152048,1.70803542250024E-16));
#658=DIRECTION('ref_axis',(2.13869205790649E-16,0.,1.));
#659=DIRECTION('center_axis',(0.798635510047293,-0.601815023152048,-2.40048221540574E-16));
#660=DIRECTION('ref_axis',(-3.00572937867938E-16,0.,-1.));
#661=DIRECTION('',(2.15794722841323E-16,6.8524303019647E-16,-1.));
#662=DIRECTION('center_axis',(0.798635510047293,-0.601815023152048,-2.40048221540574E-16));
#663=DIRECTION('ref_axis',(1.4098033919356E-15,2.25685488864156E-15,-1.));
#664=DIRECTION('center_axis',(0.798635510047293,-0.601815023152048,-2.40048221540574E-16));
#665=DIRECTION('ref_axis',(1.4098033919356E-15,2.25685488864156E-15,-1.));
#666=DIRECTION('center_axis',(0.798635510047293,-0.601815023152048,-2.40048221540574E-16));
#667=DIRECTION('ref_axis',(1.4098033919356E-15,2.25685488864156E-15,-1.));
#668=DIRECTION('center_axis',(-0.798635510047293,0.601815023152048,2.32290126073743E-16));
#669=DIRECTION('ref_axis',(1.4098033919356E-15,2.25685488864156E-15,-1.));
#670=DIRECTION('',(-0.798635510047293,0.601815023152048,2.32290126073743E-16));
#671=DIRECTION('center_axis',(-0.798635510047293,0.601815023152048,2.32290126073743E-16));
#672=DIRECTION('ref_axis',(1.4098033919356E-15,2.25685488864156E-15,-1.));
#673=DIRECTION('',(-0.798635510047293,0.601815023152048,2.32290126073743E-16));
#674=DIRECTION('center_axis',(-0.798635510047293,0.601815023152048,2.32290126073743E-16));
#675=DIRECTION('ref_axis',(1.4098033919356E-15,2.25685488864156E-15,-1.));
#676=DIRECTION('',(-0.798635510047293,0.601815023152048,2.32290126073743E-16));
#677=DIRECTION('',(0.798635510047294,-0.601815023152046,-2.77555756156289E-16));
#678=DIRECTION('center_axis',(-0.601815023152046,-0.798635510047294,-6.77127923050152E-16));
#679=DIRECTION('ref_axis',(2.15794722841323E-16,6.8524303019647E-16,-1.));
#680=CARTESIAN_POINT('',(0.,0.,0.));
#681=CARTESIAN_POINT('Ctrl Pts',(50.7400637834776,88.1048406565844,-32.0074854733525));
#682=CARTESIAN_POINT('Ctrl Pts',(51.4569173409806,87.5646527549975,-32.6806838991218));
#683=CARTESIAN_POINT('Ctrl Pts',(52.331458936528,86.2486160540276,-33.7985218722822));
#684=CARTESIAN_POINT('Ctrl Pts',(52.387736196501,84.0997281277413,-34.8021554137811));
#685=CARTESIAN_POINT('Ctrl Pts',(51.8874709987833,82.9809408954557,-35.0074854733525));
#686=CARTESIAN_POINT('Ctrl Pts',(51.5273457310586,82.5030385237871,-35.0074854733525));
#687=CARTESIAN_POINT('Ctrl Pts',(50.7400637834776,88.1048406565844,-32.0074854733525));
#688=CARTESIAN_POINT('Ctrl Pts',(51.42278145729,87.5903759884064,-32.7234266563135));
#689=CARTESIAN_POINT('Ctrl Pts',(52.2772078828854,86.3645064348407,-33.9113649872419));
#690=CARTESIAN_POINT('Ctrl Pts',(52.4217098921241,84.2291310162297,-35.0483072814441));
#691=CARTESIAN_POINT('Ctrl Pts',(51.9148127452756,83.0172246185524,-35.3066847736944));
#692=CARTESIAN_POINT('Ctrl Pts',(51.5273457310586,82.5030385237871,-35.3066847736944));
#693=CARTESIAN_POINT('Ctrl Pts',(50.7400637834776,88.1048406565844,-32.0074854733525));
#694=CARTESIAN_POINT('Ctrl Pts',(51.3630436608314,87.635391646872,-32.7982264813989));
#695=CARTESIAN_POINT('Ctrl Pts',(52.1442828402147,86.519591587596,-34.1117874376797));
#696=CARTESIAN_POINT('Ctrl Pts',(52.2730905144427,84.4709997129741,-35.4776860972751));
#697=CARTESIAN_POINT('Ctrl Pts',(51.7376081819619,83.1996311928416,-35.8244841943352));
#698=CARTESIAN_POINT('Ctrl Pts',(51.3266511242908,82.6542727575508,-35.8244841943352));
#699=CARTESIAN_POINT('Ctrl Pts',(50.7400637834776,88.1048406565844,-32.0074854733525));
#700=CARTESIAN_POINT('Ctrl Pts',(51.3033058643729,87.6804073053375,-32.8730263064844));
#701=CARTESIAN_POINT('Ctrl Pts',(51.9500944202005,86.5924701203516,-34.3116971224528));
#702=CARTESIAN_POINT('Ctrl Pts',(51.8467641287501,84.6225397518218,-35.6959422300933));
#703=CARTESIAN_POINT('Ctrl Pts',(51.2882837042535,83.4745614644589,-36.0074854733525));
#704=CARTESIAN_POINT('Ctrl Pts',(50.9079236103871,82.9698065715424,-36.0074854733525));
#705=CARTESIAN_POINT('Ctrl Pts',(50.7400637834776,88.1048406565844,-32.0074854733525));
#706=CARTESIAN_POINT('Ctrl Pts',(51.2777039516049,87.6996997303942,-32.9050833743782));
#707=CARTESIAN_POINT('Ctrl Pts',(51.8546638472038,86.607906924657,-34.3955340052588));
#708=CARTESIAN_POINT('Ctrl Pts',(51.6437619787384,84.6603529127084,-35.7337120605906));
#709=CARTESIAN_POINT('Ctrl Pts',(51.088835488736,83.5827559186078,-36.0074854733525));
#710=CARTESIAN_POINT('Ctrl Pts',(50.7287102210114,83.1048535469391,-36.0074854733525));
#711=CARTESIAN_POINT('',(51.5273457310587,82.5030385237871,-35.0074854733525));
#712=CARTESIAN_POINT('',(50.7287102210114,83.1048535469392,-36.0074854733525));
#713=CARTESIAN_POINT('Origin',(50.7287102210114,83.1048535469391,-35.0074854733525));
#714=CARTESIAN_POINT('',(50.7400637834777,88.1048406565844,-32.0074854733525));
#715=CARTESIAN_POINT('Origin',(48.3328036908695,84.9102986163953,-32.0074854733525));
#716=CARTESIAN_POINT('Origin',(48.3328036908695,84.9102986163953,-32.0074854733525));
#717=CARTESIAN_POINT('Origin',(51.5273457310586,82.5030385237871,-32.0074854733525));
#718=CARTESIAN_POINT('',(29.5648692047581,99.0529516604684,-36.0074854733525));
#719=CARTESIAN_POINT('',(51.5273457310586,82.5030385237871,-36.0074854733525));
#720=CARTESIAN_POINT('',(31.9721292973663,102.247493700658,-32.0074854733525));
#721=CARTESIAN_POINT('Origin',(29.5648692047581,99.0529516604684,-32.0074854733525));
#722=CARTESIAN_POINT('',(53.9346058236668,85.6975805639762,-32.0074854733525));
#723=CARTESIAN_POINT('Ctrl Pts',(50.7400637834776,88.1048406565844,-4.99999999999998));
#724=CARTESIAN_POINT('Ctrl Pts',(51.4569173409806,87.5646527549974,-3.80320279863243));
#725=CARTESIAN_POINT('Ctrl Pts',(51.9118795861443,86.3259379330351,-2.32476787333036));
#726=CARTESIAN_POINT('Ctrl Pts',(51.501776235178,84.3896143441614,-1.20772050453457));
#727=CARTESIAN_POINT('Ctrl Pts',(51.088835488736,83.5827559186077,-0.999999999999991));
#728=CARTESIAN_POINT('Ctrl Pts',(50.7287102210113,83.1048535469391,-0.999999999999991));
#729=CARTESIAN_POINT('Ctrl Pts',(50.7400637834776,88.1048406565844,-4.99999999999998));
#730=CARTESIAN_POINT('Ctrl Pts',(51.5024318525681,87.5303551104522,-3.8601931415547));
#731=CARTESIAN_POINT('Ctrl Pts',(52.0704577428917,86.3159509985119,-2.43881329917367));
#732=CARTESIAN_POINT('Ctrl Pts',(51.7742081671034,84.3164893181106,-1.24168076333202));
#733=CARTESIAN_POINT('Ctrl Pts',(51.3551284210626,83.438977007842,-0.999999999999989));
#734=CARTESIAN_POINT('Ctrl Pts',(50.9676614068456,82.9247909130767,-0.999999999999989));
#735=CARTESIAN_POINT('Ctrl Pts',(50.7400637834776,88.1048406565844,-4.99999999999998));
#736=CARTESIAN_POINT('Ctrl Pts',(51.5820822478462,87.4703342324981,-3.95992624166867));
#737=CARTESIAN_POINT('Ctrl Pts',(52.299212442224,86.2275795703064,-2.65892931489321));
#738=CARTESIAN_POINT('Ctrl Pts',(52.1915268109268,84.1143786166261,-1.50099390817746));
#739=CARTESIAN_POINT('Ctrl Pts',(51.7921616068447,83.1585222385741,-1.25128629391199));
#740=CARTESIAN_POINT('Ctrl Pts',(51.3812045491736,82.6131638032832,-1.25128629391199));
#741=CARTESIAN_POINT('Ctrl Pts',(50.7400637834776,88.1048406565844,-4.99999999999998));
#742=CARTESIAN_POINT('Ctrl Pts',(51.6617326431244,87.410313354544,-4.05965934178264));
#743=CARTESIAN_POINT('Ctrl Pts',(52.4181373604798,86.0265630182823,-2.89298966642784));
#744=CARTESIAN_POINT('Ctrl Pts',(52.2858443049641,83.8968888411635,-1.95949505494501));
#745=CARTESIAN_POINT('Ctrl Pts',(51.907705824925,83.0077934167035,-1.77560052474358));
#746=CARTESIAN_POINT('Ctrl Pts',(51.5273457310586,82.503038523787,-1.77560052474358));
#747=CARTESIAN_POINT('Ctrl Pts',(50.7400637834776,88.1048406565844,-4.99999999999998));
#748=CARTESIAN_POINT('Ctrl Pts',(51.695868526815,87.3845901211351,-4.10240209897434));
#749=CARTESIAN_POINT('Ctrl Pts',(52.4460134296387,85.9234392119729,-2.99357590499777));
#750=CARTESIAN_POINT('Ctrl Pts',(52.2589385024537,83.8190516510707,-2.15579037840094));
#751=CARTESIAN_POINT('Ctrl Pts',(51.8874709987833,82.9809408954557,-2.));
#752=CARTESIAN_POINT('Ctrl Pts',(51.5273457310586,82.503038523787,-2.));
#753=CARTESIAN_POINT('',(50.7287102210113,83.1048535469391,-0.999999999999992));
#754=CARTESIAN_POINT('',(51.5273457310586,82.503038523787,-1.99999999999999));
#755=CARTESIAN_POINT('Origin',(50.7287102210113,83.1048535469391,-1.99999999999999));
#756=CARTESIAN_POINT('',(50.7400637834776,88.1048406565844,-4.99999999999998));
#757=CARTESIAN_POINT('Origin',(48.3328036908694,84.9102986163952,-4.99999999999999));
#758=CARTESIAN_POINT('Origin',(48.3328036908694,84.9102986163952,-4.99999999999999));
#759=CARTESIAN_POINT('Origin',(48.3328036908694,84.9102986163952,-10.0953375134953));
#760=CARTESIAN_POINT('',(50.7400637834776,88.1048406565844,-26.2915619758886));
#761=CARTESIAN_POINT('',(50.7400637834776,88.1048406565844,-9.70843802411155));
#762=CARTESIAN_POINT('Ctrl Pts',(50.7400637834777,88.1048406565844,-26.2915619758886));
#763=CARTESIAN_POINT('Ctrl Pts',(50.7458919124925,88.1004488463608,-26.2805604176462));
#764=CARTESIAN_POINT('Ctrl Pts',(50.7516976406245,88.0960489105739,-26.2695469275399));
#765=CARTESIAN_POINT('Ctrl Pts',(51.1744923751404,87.773813615143,-25.4635396146968));
#766=CARTESIAN_POINT('Ctrl Pts',(51.4755664187662,87.4159621188314,-24.6063738141906));
#767=CARTESIAN_POINT('Ctrl Pts',(51.9042376946754,86.7542974332626,-22.8060101958166));
#768=CARTESIAN_POINT('Ctrl Pts',(52.0314403597005,86.4503825098002,-21.8631244638736));
#769=CARTESIAN_POINT('Ctrl Pts',(52.1822299331441,86.0210157887151,-19.9426314032367));
#770=CARTESIAN_POINT('Ctrl Pts',(52.208559273483,85.8994996393627,-18.96436255469));
#771=CARTESIAN_POINT('Ctrl Pts',(52.208559273483,85.8994996393627,-17.0356374453101));
#772=CARTESIAN_POINT('Ctrl Pts',(52.1822299331441,86.0210157887151,-16.0573685967635));
#773=CARTESIAN_POINT('Ctrl Pts',(52.0314403597004,86.4503825098001,-14.1368755361266));
#774=CARTESIAN_POINT('Ctrl Pts',(51.9042376946754,86.7542974332626,-13.1939898041836));
#775=CARTESIAN_POINT('Ctrl Pts',(51.4755664187662,87.4159621188313,-11.3936261858096));
#776=CARTESIAN_POINT('Ctrl Pts',(51.1744923751404,87.773813615143,-10.5364603853033));
#777=CARTESIAN_POINT('Ctrl Pts',(50.7516976406244,88.0960489105739,-9.73045307246022));
#778=CARTESIAN_POINT('Ctrl Pts',(50.7458919124925,88.1004488463607,-9.71943958235393));
#779=CARTESIAN_POINT('Ctrl Pts',(50.7400637834776,88.1048406565844,-9.70843802411156));
#780=CARTESIAN_POINT('',(50.7400637834776,88.1048406565844,-10.0953375134953));
#781=CARTESIAN_POINT('',(51.5273457310586,82.503038523787,-10.0953375134953));
#782=CARTESIAN_POINT('',(50.7400637834776,88.1048406565844,-10.0953375134953));
#783=CARTESIAN_POINT('Origin',(50.9283690985231,82.954399791151,-4.99999999999999));
#784=CARTESIAN_POINT('',(46.7335608189032,91.1239571922883,-4.99999999999998));
#785=CARTESIAN_POINT('',(53.3356291911313,86.1489418313402,-4.99999999999998));
#786=CARTESIAN_POINT('',(43.6486675234322,93.0830916834289,-3.49999999999999));
#787=CARTESIAN_POINT('Ctrl Pts',(46.7335608189032,91.1239571922883,-4.99999999999998));
#788=CARTESIAN_POINT('Ctrl Pts',(46.2474696528872,91.4902531591588,-4.64963576016882));
#789=CARTESIAN_POINT('Ctrl Pts',(45.7074324436358,91.8398723674505,-4.33750608364412));
#790=CARTESIAN_POINT('Ctrl Pts',(44.6574165293142,92.484627734285,-3.84720652282148));
#791=CARTESIAN_POINT('Ctrl Pts',(44.155975690107,92.7796612082375,-3.6556791669168));
#792=CARTESIAN_POINT('Ctrl Pts',(43.6486675234322,93.0830916834289,-3.49999999999999));
#793=CARTESIAN_POINT('',(31.7964590368639,102.014371391145,-3.49999999999999));
#794=CARTESIAN_POINT('',(53.159958930629,85.9158195218279,-3.49999999999999));
#795=CARTESIAN_POINT('',(29.564869204758,99.0529516604684,-0.999999999999972));
#796=CARTESIAN_POINT('Origin',(29.564869204758,99.0529516604684,-4.99999999999999));
#797=CARTESIAN_POINT('',(50.9283690985231,82.954399791151,-0.999999999999993));
#798=CARTESIAN_POINT('Origin',(41.7941633005868,71.2483093226651,-2.));
#799=CARTESIAN_POINT('',(44.1868485976923,74.4235099559562,-0.999999999999997));
#800=CARTESIAN_POINT('',(41.7941633005868,71.2483093226651,-0.999999999999998));
#801=CARTESIAN_POINT('',(44.7837688471393,73.5540097407828,-1.99999999999999));
#802=CARTESIAN_POINT('Ctrl Pts',(44.1868485976923,74.4235099559563,-0.999999999999995));
#803=CARTESIAN_POINT('Ctrl Pts',(44.288244712947,74.3471025026414,-0.999999999999996));
#804=CARTESIAN_POINT('Ctrl Pts',(44.3909348619293,74.2593506132371,-1.02568933350379));
#805=CARTESIAN_POINT('Ctrl Pts',(44.5675771251121,74.0844119945915,-1.12844484554592));
#806=CARTESIAN_POINT('Ctrl Pts',(44.6415282369968,73.9971998921706,-1.20546954417803));
#807=CARTESIAN_POINT('Ctrl Pts',(44.7481494660658,73.8433639843008,-1.38320180429377));
#808=CARTESIAN_POINT('Ctrl Pts',(44.7868265093559,73.7668935002762,-1.49670576288534));
#809=CARTESIAN_POINT('Ctrl Pts',(44.8175668480076,73.6394121900324,-1.74316802982013));
#810=CARTESIAN_POINT('Ctrl Pts',(44.809652685064,73.5883587538644,-1.87610148386461));
#811=CARTESIAN_POINT('Ctrl Pts',(44.7837688471393,73.5540097407828,-1.99999999999999));
#812=CARTESIAN_POINT('',(42.5927988106341,70.6464942995131,-2.));
#813=CARTESIAN_POINT('Origin',(44.9130572576193,76.2180414680895,-0.999999999999996));
#814=CARTESIAN_POINT('',(28.361239158454,97.4556806403738,-0.99999999999999));
#815=CARTESIAN_POINT('',(23.023007581439,90.3716080694855,-0.999999999999994));
#816=CARTESIAN_POINT('',(49.1257624196836,81.8084900384206,-0.999999999999996));
#817=CARTESIAN_POINT('',(49.1257624196836,81.8084900384206,-0.999999999999996));
#818=CARTESIAN_POINT('',(43.7875308426686,74.7244174675323,-0.999999999999996));
#819=CARTESIAN_POINT('',(46.1166873039234,77.8153124881841,-0.999999999999995));
#820=CARTESIAN_POINT('',(43.7875308426686,74.7244174675323,-0.999999999999996));
#821=CARTESIAN_POINT('Origin',(30.1666842279101,99.8515871705157,-2.24999999999998));
#822=CARTESIAN_POINT('',(28.361239158454,97.4556806403738,-3.5));
#823=CARTESIAN_POINT('',(31.9721292973662,102.247493700658,-3.49999999999999));
#824=CARTESIAN_POINT('',(28.361239158454,97.4556806403738,-3.5));
#825=CARTESIAN_POINT('Origin',(52.7366525585958,86.6003030987042,-3.49999999999999));
#826=CARTESIAN_POINT('',(40.2134476450223,88.5244009326575,-3.50000000000001));
#827=CARTESIAN_POINT('',(43.8243377839346,93.3162139929412,-3.49999999999999));
#828=CARTESIAN_POINT('',(49.1257624196836,81.8084900384206,-3.50000000000001));
#829=CARTESIAN_POINT('Origin',(53.9346058236668,85.6975805639762,-0.999999999999965));
#830=CARTESIAN_POINT('Origin',(40.7571199078865,95.627528445985,-18.0000000000001));
#831=CARTESIAN_POINT('Origin',(40.7571199078865,95.627528445985,-18.0000000000001));
#832=CARTESIAN_POINT('',(45.9788771294155,91.6926521430484,-31.5));
#833=CARTESIAN_POINT('Origin',(40.7571199078865,95.627528445985,-18.0000000000001));
#834=CARTESIAN_POINT('',(42.3679869905032,86.9008390827646,-31.5));
#835=CARTESIAN_POINT('',(45.9788771294155,91.6926521430484,-31.5));
#836=CARTESIAN_POINT('',(49.1257624196836,81.8084900384206,-18.0000000000001));
#837=CARTESIAN_POINT('Origin',(37.1462297689742,90.8357153857013,-18.0000000000001));
#838=CARTESIAN_POINT('Origin',(37.1462297689742,90.8357153857013,-18.0000000000001));
#839=CARTESIAN_POINT('Origin',(39.0745870985779,65.9776696656647,-19.1906750269906));
#840=CARTESIAN_POINT('',(32.0381636744656,56.6400203979679,-29.5018943917436));
#841=CARTESIAN_POINT('Origin',(2.50308598377069,17.4456484923747,13.5552051357989));
#842=CARTESIAN_POINT('',(32.0381636744656,56.6400203979679,-37.3769439808461));
#843=CARTESIAN_POINT('',(32.0381636744656,56.6400203979679,-29.5018943917436));
#844=CARTESIAN_POINT('',(45.5093211114383,74.5168501159357,-36.0279158425637));
#845=CARTESIAN_POINT('Ctrl Pts',(32.0381636744656,56.6400203979679,-37.3769439808461));
#846=CARTESIAN_POINT('Ctrl Pts',(33.4860894564232,58.5614828090054,-37.3473634697323));
#847=CARTESIAN_POINT('Ctrl Pts',(35.0320067396808,60.6129843344058,-37.2265708179208));
#848=CARTESIAN_POINT('Ctrl Pts',(36.5761115136053,62.6620805786818,-37.0482356981935));
#849=CARTESIAN_POINT('Ctrl Pts',(38.4064823592617,65.091064731055,-36.8368385123173));
#850=CARTESIAN_POINT('Ctrl Pts',(40.2349683866528,67.5175476451097,-36.5564381877828));
#851=CARTESIAN_POINT('Ctrl Pts',(41.8995768590862,69.7265576984778,-36.3514144184602));
#852=CARTESIAN_POINT('Ctrl Pts',(42.6542358580849,70.7280240151883,-36.258465815176));
#853=CARTESIAN_POINT('Ctrl Pts',(43.4848079142181,71.8302303612624,-36.1666761284833));
#854=CARTESIAN_POINT('Ctrl Pts',(44.3159977058937,72.9332564700893,-36.1016547528005));
#855=CARTESIAN_POINT('Ctrl Pts',(44.7164455308962,73.4646686825881,-36.0703289728985));
#856=CARTESIAN_POINT('Ctrl Pts',(45.1170450543751,73.9962822057643,-36.0453271739635));
#857=CARTESIAN_POINT('Ctrl Pts',(45.5093252069599,74.5168555508765,-36.0280129457822));
#858=CARTESIAN_POINT('',(46.1110105226902,75.3153189333615,-35.0074854733526));
#859=CARTESIAN_POINT('Origin',(46.1110105226902,75.3153189333614,-36.0074854733526));
#860=CARTESIAN_POINT('',(46.5045964611224,75.8376251148205,-35.0074854733526));
#861=CARTESIAN_POINT('',(44.3055654532341,72.9194124032196,-30.85));
#862=CARTESIAN_POINT('Origin',(44.3055654532341,72.9194124032196,-32.));
#863=CARTESIAN_POINT('',(37.0837851754095,63.3357862826521,-30.8500000000001));
#864=CARTESIAN_POINT('Origin',(37.0837851754095,63.3357862826521,-32.0000000000001));
#865=CARTESIAN_POINT('',(44.3055654532341,72.9194124032196,-12.85));
#866=CARTESIAN_POINT('Origin',(44.3055654532341,72.9194124032196,-14.));
#867=CARTESIAN_POINT('Ctrl Pts',(30.8402104093946,57.542742932696,-29.5018943917436));
#868=CARTESIAN_POINT('Ctrl Pts',(40.5165125078452,70.3836295248795,-17.8129861695434));
#869=CARTESIAN_POINT('Ctrl Pts',(43.7875308426686,74.7244174675323,-0.999999999999999));
#870=CARTESIAN_POINT('Ctrl Pts',(32.0381636744656,56.6400203979678,-29.5018943917436));
#871=CARTESIAN_POINT('Ctrl Pts',(41.7144657729161,69.4809069901514,-17.8129861695434));
#872=CARTESIAN_POINT('Ctrl Pts',(44.9854841077396,73.8216949328042,-0.999999999999999));
#873=CARTESIAN_POINT('',(30.8402104093947,57.542742932696,-29.5018943917436));
#874=CARTESIAN_POINT('Origin',(1.30513271869975,18.3483710271028,13.5552051357989));
#875=CARTESIAN_POINT('',(30.8402104093947,57.542742932696,-29.5018943917436));
#876=CARTESIAN_POINT('Origin',(45.7059609510751,76.4394401379725,-35.0074854733526));
#877=CARTESIAN_POINT('',(45.3123750126429,75.9171339565135,-36.0074854733526));
#878=CARTESIAN_POINT('Origin',(45.3123750126429,75.9171339565135,-35.0074854733526));
#879=CARTESIAN_POINT('',(45.7059609510751,76.4394401379725,-36.0074854733526));
#880=CARTESIAN_POINT('Ctrl Pts',(45.3123750126429,75.9171339565135,-36.0074854733526));
#881=CARTESIAN_POINT('Ctrl Pts',(45.3123750126429,75.9171339565135,-36.0074854733526));
#882=CARTESIAN_POINT('Ctrl Pts',(45.3123750126429,75.9171339565135,-36.0074854733526));
#883=CARTESIAN_POINT('Ctrl Pts',(45.3123750126429,75.9171339565135,-36.0074854733526));
#884=CARTESIAN_POINT('Ctrl Pts',(45.3123750126429,75.9171339565135,-36.0074854733526));
#885=CARTESIAN_POINT('Ctrl Pts',(46.1110105226902,75.3153189333614,-36.0074854733526));
#886=CARTESIAN_POINT('Ctrl Pts',(46.1110105226902,75.3153189333614,-36.0074854733526));
#887=CARTESIAN_POINT('Ctrl Pts',(46.1110105226902,75.3153189333614,-36.0074854733526));
#888=CARTESIAN_POINT('Ctrl Pts',(46.1110105226902,75.3153189333614,-36.0074854733526));
#889=CARTESIAN_POINT('Ctrl Pts',(46.1110105226902,75.3153189333614,-36.0074854733526));
#890=CARTESIAN_POINT('Ctrl Pts',(46.1110105226902,75.3153189333614,-35.0074854733526));
#891=CARTESIAN_POINT('Ctrl Pts',(45.8581214490663,74.9797237977644,-35.0074854733526));
#892=CARTESIAN_POINT('Ctrl Pts',(45.6811379716805,74.7448587905872,-35.3076391935208));
#893=CARTESIAN_POINT('Ctrl Pts',(45.5041544942947,74.50999378341,-35.607792913689));
#894=CARTESIAN_POINT('Ctrl Pts',(45.5093211114383,74.5168501159357,-36.0279158425637));
#895=CARTESIAN_POINT('Ctrl Pts',(45.5093252069599,74.5168555508765,-36.0280129457822));
#896=CARTESIAN_POINT('Ctrl Pts',(45.5254462676825,74.5382489210275,-36.0273014039873));
#897=CARTESIAN_POINT('Ctrl Pts',(45.540700817701,74.5602821031312,-36.0266025240529));
#898=CARTESIAN_POINT('Ctrl Pts',(45.5550519080512,74.5829017453046,-36.0259180143238));
#899=CARTESIAN_POINT('Ctrl Pts',(45.5753792637108,74.6149409493045,-36.0249484522642));
#900=CARTESIAN_POINT('Ctrl Pts',(45.5938659061259,74.6481124374156,-36.0240091024086));
#901=CARTESIAN_POINT('Ctrl Pts',(45.6104220464183,74.6822551578525,-36.0231037516381));
#902=CARTESIAN_POINT('Ctrl Pts',(45.6459875021766,74.7555996325743,-36.0211589014372));
#903=CARTESIAN_POINT('Ctrl Pts',(45.6724383003554,74.8330006723159,-36.0193834108512));
#904=CARTESIAN_POINT('Ctrl Pts',(45.6892010684224,74.9127253046679,-36.0177946768274));
#905=CARTESIAN_POINT('Ctrl Pts',(45.6906302034763,74.9195223483483,-36.0176592269139));
#906=CARTESIAN_POINT('Ctrl Pts',(45.6919889369615,74.9263363047435,-36.0175251228602));
#907=CARTESIAN_POINT('Ctrl Pts',(45.6932769233479,74.9331661129193,-36.0173923691054));
#908=CARTESIAN_POINT('Ctrl Pts',(45.7097394223676,75.0204618418038,-36.0156955665758));
#909=CARTESIAN_POINT('Ctrl Pts',(45.7144829009802,75.1095025974158,-36.0142370920521));
#910=CARTESIAN_POINT('Ctrl Pts',(45.7074317619461,75.197929178699,-36.01300448484));
#911=CARTESIAN_POINT('Ctrl Pts',(45.7062291074805,75.2130113692987,-36.0127942492227));
#912=CARTESIAN_POINT('Ctrl Pts',(45.7046834033923,75.2280757872232,-36.0125905492314));
#913=CARTESIAN_POINT('Ctrl Pts',(45.7027943553735,75.2431108336589,-36.0123932849011));
#914=CARTESIAN_POINT('Ctrl Pts',(45.6886024355622,75.3560651742872,-36.010911289986));
#915=CARTESIAN_POINT('Ctrl Pts',(45.6552248510635,75.465775667934,-36.009812163302));
#916=CARTESIAN_POINT('Ctrl Pts',(45.6041020317504,75.5675017052902,-36.0090268939756));
#917=CARTESIAN_POINT('Ctrl Pts',(45.5688076445348,75.6377317552094,-36.0084847564321));
#918=CARTESIAN_POINT('Ctrl Pts',(45.5253561313148,75.7035576365774,-36.0080965256547));
#919=CARTESIAN_POINT('Ctrl Pts',(45.4746477747465,75.7636147522392,-36.0078433418253));
#920=CARTESIAN_POINT('Ctrl Pts',(45.450428544653,75.792299119105,-36.00772241664));
#921=CARTESIAN_POINT('Ctrl Pts',(45.4246133353963,75.8195971208019,-36.0076328073611));
#922=CARTESIAN_POINT('Ctrl Pts',(45.3973247561313,75.8453790718271,-36.0075733741817));
#923=CARTESIAN_POINT('Ctrl Pts',(45.3838255343264,75.8581329888439,-36.0075439735426));
#924=CARTESIAN_POINT('Ctrl Pts',(45.3699736752654,75.8705084326892,-36.0075219899478));
#925=CARTESIAN_POINT('Ctrl Pts',(45.3557852963194,75.8824910019695,-36.0075073527503));
#926=CARTESIAN_POINT('Ctrl Pts',(45.3487097393159,75.8884665508545,-36.0075000533734));
#927=CARTESIAN_POINT('Ctrl Pts',(45.341551519637,75.8943435299201,-36.0074945830073));
#928=CARTESIAN_POINT('Ctrl Pts',(45.3343127091845,75.9001202379965,-36.0074909372455));
#929=CARTESIAN_POINT('Ctrl Pts',(45.3306956735139,75.9030067010843,-36.007489115558));
#930=CARTESIAN_POINT('Ctrl Pts',(45.3270586472912,75.9058680248816,-36.0074877495526));
#931=CARTESIAN_POINT('Ctrl Pts',(45.3234018933747,75.9087040025854,-36.007486838954));
#932=CARTESIAN_POINT('Ctrl Pts',(45.3215738150234,75.9101217598541,-36.0074863837291));
#933=CARTESIAN_POINT('Ctrl Pts',(45.3197408228705,75.911533169864,-36.0074860423266));
#934=CARTESIAN_POINT('Ctrl Pts',(45.3179029500311,75.9129382071161,-36.0074858147295));
#935=CARTESIAN_POINT('Ctrl Pts',(45.3160651623198,75.9143431792885,-36.007485587143));
#936=CARTESIAN_POINT('Ctrl Pts',(45.3142225054277,75.915741770843,-36.0074854733526));
#937=CARTESIAN_POINT('Ctrl Pts',(45.3123750126429,75.9171339565135,-36.0074854733526));
#938=CARTESIAN_POINT('Origin',(53.9346058236668,85.6975805639762,-0.999999999999965));
#939=CARTESIAN_POINT('',(31.9721292973663,102.247493700658,-31.5));
#940=CARTESIAN_POINT('',(31.9721292973662,102.247493700658,-0.999999999999965));
#941=CARTESIAN_POINT('',(52.7366525585959,86.6003030987043,-31.5));
#942=CARTESIAN_POINT('Origin',(53.9346058236668,85.6975805639762,-36.0074854733525));
#943=CARTESIAN_POINT('',(44.9130572576193,76.2180414680895,-36.0074854733526));
#944=CARTESIAN_POINT('',(44.9130572576193,76.2180414680895,-36.0074854733526));
#945=CARTESIAN_POINT('',(49.1257624196836,81.8084900384206,-36.0074854733525));
#946=CARTESIAN_POINT('',(50.7807537333517,84.0047376910506,-36.0074854733525));
#947=CARTESIAN_POINT('',(28.361239158454,97.4556806403738,-36.0074854733525));
#948=CARTESIAN_POINT('',(49.1257624196836,81.8084900384206,-36.0074854733525));
#949=CARTESIAN_POINT('',(31.9721292973663,102.247493700658,-36.0074854733525));
#950=CARTESIAN_POINT('Origin',(49.1257624196836,81.8084900384206,-31.5));
#951=CARTESIAN_POINT('',(28.361239158454,97.4556806403738,-31.5));
#952=CARTESIAN_POINT('',(28.361239158454,97.4556806403738,-31.5));
#953=CARTESIAN_POINT('',(49.1257624196836,81.8084900384206,-31.5));
#954=CARTESIAN_POINT('Origin',(49.1257624196836,81.8084900384206,-3.50000000000001));
#955=CARTESIAN_POINT('',(49.1257624196836,81.8084900384206,-18.3453375134953));
#956=CARTESIAN_POINT('Origin',(49.1257624196836,81.8084900384206,-36.0074854733525));
#957=CARTESIAN_POINT('',(49.1257624196836,81.8084900384206,-18.3453375134953));
#958=CARTESIAN_POINT('',(28.361239158454,97.4556806403739,-36.0074854733525));
#959=CARTESIAN_POINT('Origin',(30.1666842279101,99.8515871705157,-33.7537427366763));
#960=CARTESIAN_POINT('Origin',(37.876633833507,66.8803922003927,-19.1906750269906));
#961=CARTESIAN_POINT('',(30.8402104093947,57.542742932696,-37.3769439808461));
#962=CARTESIAN_POINT('Ctrl Pts',(30.8402104093947,57.542742932696,-37.3769439808461));
#963=CARTESIAN_POINT('Ctrl Pts',(32.2881361913523,59.4642053437334,-37.3473634697323));
#964=CARTESIAN_POINT('Ctrl Pts',(33.8340534746098,61.5157068691339,-37.2265708179208));
#965=CARTESIAN_POINT('Ctrl Pts',(35.3781582485344,63.5648031134099,-37.0482356981935));
#966=CARTESIAN_POINT('Ctrl Pts',(37.2085290941908,65.9937872657831,-36.8368385123173));
#967=CARTESIAN_POINT('Ctrl Pts',(39.0370151215819,68.4202701798378,-36.5564381877828));
#968=CARTESIAN_POINT('Ctrl Pts',(40.7016235940152,70.6292802332059,-36.3514144184602));
#969=CARTESIAN_POINT('Ctrl Pts',(41.4562825930139,71.6307465499164,-36.258465815176));
#970=CARTESIAN_POINT('Ctrl Pts',(42.2868546491471,72.7329528959905,-36.1666761284833));
#971=CARTESIAN_POINT('Ctrl Pts',(43.1180444408227,73.8359790048174,-36.1016547528005));
#972=CARTESIAN_POINT('Ctrl Pts',(43.7259089196162,74.6426424136473,-36.0541034173105));
#973=CARTESIAN_POINT('Ctrl Pts',(44.3341229432307,75.4497696841218,-36.0211238484461));
#974=CARTESIAN_POINT('Ctrl Pts',(44.9130572576193,76.2180414680895,-36.0074854733526));
#975=CARTESIAN_POINT('',(30.8402104093947,57.542742932696,-29.5018943917436));
#976=CARTESIAN_POINT('',(43.1076121881631,73.8221349379477,-30.85));
#977=CARTESIAN_POINT('Origin',(43.1076121881631,73.8221349379477,-32.));
#978=CARTESIAN_POINT('',(35.8858319103386,64.2385088173802,-30.8500000000001));
#979=CARTESIAN_POINT('Origin',(35.8858319103386,64.2385088173802,-32.0000000000001));
#980=CARTESIAN_POINT('',(43.1076121881631,73.8221349379476,-12.85));
#981=CARTESIAN_POINT('Origin',(43.1076121881631,73.8221349379476,-14.));
#982=CARTESIAN_POINT('Origin',(44.3055654532341,72.9194124032196,-14.));
#983=CARTESIAN_POINT('',(44.3055654532341,72.9194124032196,-12.85));
#984=CARTESIAN_POINT('Origin',(37.0837851754095,63.3357862826521,-32.0000000000001));
#985=CARTESIAN_POINT('',(37.0837851754095,63.3357862826521,-30.8500000000001));
#986=CARTESIAN_POINT('Origin',(44.3055654532341,72.9194124032196,-32.));
#987=CARTESIAN_POINT('',(44.3055654532341,72.9194124032196,-30.85));
#988=CARTESIAN_POINT('Ctrl Pts',(30.8402104093947,57.542742932696,-37.3769439808461));
#989=CARTESIAN_POINT('Ctrl Pts',(32.0381636744656,56.6400203979679,-37.3769439808461));
#990=CARTESIAN_POINT('Ctrl Pts',(32.2881361913523,59.4642053437334,-37.3473634697323));
#991=CARTESIAN_POINT('Ctrl Pts',(33.4860894564232,58.5614828090054,-37.3473634697323));
#992=CARTESIAN_POINT('Ctrl Pts',(33.8340534746098,61.5157068691339,-37.2265708179208));
#993=CARTESIAN_POINT('Ctrl Pts',(35.0320067396808,60.6129843344058,-37.2265708179208));
#994=CARTESIAN_POINT('Ctrl Pts',(37.2085290941908,65.9937872657831,-36.8368385123173));
#995=CARTESIAN_POINT('Ctrl Pts',(38.4064823592617,65.091064731055,-36.8368385123173));
#996=CARTESIAN_POINT('Ctrl Pts',(39.0370151215819,68.4202701798378,-36.5564381877828));
#997=CARTESIAN_POINT('Ctrl Pts',(40.2349683866528,67.5175476451097,-36.5564381877828));
#998=CARTESIAN_POINT('Ctrl Pts',(41.4562825930139,71.6307465499164,-36.258465815176));
#999=CARTESIAN_POINT('Ctrl Pts',(42.6542358580849,70.7280240151883,-36.258465815176));
#1000=CARTESIAN_POINT('Ctrl Pts',(42.2868546491471,72.7329528959905,-36.1666761284833));
#1001=CARTESIAN_POINT('Ctrl Pts',(43.4848079142181,71.8302303612624,-36.1666761284833));
#1002=CARTESIAN_POINT('Ctrl Pts',(43.7259089196162,74.6426424136473,-36.0541034173105));
#1003=CARTESIAN_POINT('Ctrl Pts',(44.9238621846872,73.7399198789192,-36.0541034173105));
#1004=CARTESIAN_POINT('Ctrl Pts',(44.3341229432307,75.4497696841218,-36.0211238484461));
#1005=CARTESIAN_POINT('Ctrl Pts',(45.5320762083016,74.5470471493937,-36.0211238484461));
#1006=CARTESIAN_POINT('Ctrl Pts',(44.9130572576193,76.2180414680895,-36.0074854733526));
#1007=CARTESIAN_POINT('Ctrl Pts',(46.1110105226902,75.3153189333615,-36.0074854733526));
#1008=CARTESIAN_POINT('',(30.8402104093947,57.542742932696,-37.3769439808461));
#1009=CARTESIAN_POINT('Origin',(30.8402104093947,57.542742932696,-29.5018943917436));
#1010=UNCERTAINTY_MEASURE_WITH_UNIT(LENGTH_MEASURE(0.01),#1014,
'DISTANCE_ACCURACY_VALUE',
'Maximum model space distance between geometric entities at asserted c
onnectivities');
#1011=UNCERTAINTY_MEASURE_WITH_UNIT(LENGTH_MEASURE(0.01),#1014,
'DISTANCE_ACCURACY_VALUE',
'Maximum model space distance between geometric entities at asserted c
onnectivities');
#1012=(
GEOMETRIC_REPRESENTATION_CONTEXT(3)
GLOBAL_UNCERTAINTY_ASSIGNED_CONTEXT((#1010))
GLOBAL_UNIT_ASSIGNED_CONTEXT((#1014,#1016,#1017))
REPRESENTATION_CONTEXT('','3D')
);
#1013=(
GEOMETRIC_REPRESENTATION_CONTEXT(3)
GLOBAL_UNCERTAINTY_ASSIGNED_CONTEXT((#1011))
GLOBAL_UNIT_ASSIGNED_CONTEXT((#1014,#1016,#1017))
REPRESENTATION_CONTEXT('','3D')
);
#1014=(
LENGTH_UNIT()
NAMED_UNIT(*)
SI_UNIT(.MILLI.,.METRE.)
);
#1015=(
LENGTH_UNIT()
NAMED_UNIT(*)
SI_UNIT(.CENTI.,.METRE.)
);
#1016=(
NAMED_UNIT(*)
PLANE_ANGLE_UNIT()
SI_UNIT($,.RADIAN.)
);
#1017=(
NAMED_UNIT(*)
SI_UNIT($,.STERADIAN.)
SOLID_ANGLE_UNIT()
);
#1018=SHAPE_DEFINITION_REPRESENTATION(#1019,#1020);
#1019=PRODUCT_DEFINITION_SHAPE('',$,#1022);
#1020=SHAPE_REPRESENTATION('',(#506),#1012);
#1021=PRODUCT_DEFINITION_CONTEXT('part definition',#1026,'design');
#1022=PRODUCT_DEFINITION('handle_inside_cover','handle_inside_cover',#1023,
#1021);
#1023=PRODUCT_DEFINITION_FORMATION('',$,#1028);
#1024=PRODUCT_RELATED_PRODUCT_CATEGORY('handle_inside_cover',
'handle_inside_cover',(#1028));
#1025=APPLICATION_PROTOCOL_DEFINITION('international standard',
'automotive_design',2009,#1026);
#1026=APPLICATION_CONTEXT(
'Core Data for Automotive Mechanical Design Process');
#1027=PRODUCT_CONTEXT('part definition',#1026,'mechanical');
#1028=PRODUCT('handle_inside_cover','handle_inside_cover',$,(#1027));
#1029=PRESENTATION_STYLE_ASSIGNMENT((#1031));
#1030=PRESENTATION_STYLE_ASSIGNMENT((#1032));
#1031=SURFACE_STYLE_USAGE(.BOTH.,#1037);
#1032=SURFACE_STYLE_USAGE(.BOTH.,#1038);
#1033=SURFACE_STYLE_RENDERING_WITH_PROPERTIES($,#1045,(#1035));
#1034=SURFACE_STYLE_RENDERING_WITH_PROPERTIES($,#1046,(#1036));
#1035=SURFACE_STYLE_TRANSPARENT(0.);
#1036=SURFACE_STYLE_TRANSPARENT(0.);
#1037=SURFACE_SIDE_STYLE('',(#1039,#1033));
#1038=SURFACE_SIDE_STYLE('',(#1040,#1034));
#1039=SURFACE_STYLE_FILL_AREA(#1041);
#1040=SURFACE_STYLE_FILL_AREA(#1042);
#1041=FILL_AREA_STYLE('',(#1043));
#1042=FILL_AREA_STYLE('',(#1044));
#1043=FILL_AREA_STYLE_COLOUR('',#1045);
#1044=FILL_AREA_STYLE_COLOUR('',#1046);
#1045=COLOUR_RGB('',0.749019607843137,0.749019607843137,0.749019607843137);
#1046=COLOUR_RGB('',0.352941176470588,0.352941176470588,0.352941176470588);
ENDSEC;
END-ISO-10303-21;
