ISO-10303-21;
HEADER;
/* Generated by software containing ST-Developer
 * from STEP Tools, Inc. (www.steptools.com) 
 */

FILE_DESCRIPTION(
/* description */ (''),
/* implementation_level */ '2;1');

FILE_NAME(
/* name */ 'handle_monitor_case_under.stp',
/* time_stamp */ '2026-02-03T17:45:42+09:00',
/* author */ ('hibik'),
/* organization */ (''),
/* preprocessor_version */ 'ST-DEVELOPER v20.1',
/* originating_system */ 'Autodesk Inventor 2026',
/* authorisation */ '');

FILE_SCHEMA (('AUTOMOTIVE_DESIGN { 1 0 10303 214 3 1 1 }'));
ENDSEC;

DATA;
#10=MECHANICAL_DESIGN_GEOMETRIC_PRESENTATION_REPRESENTATION('',(#22,#23,
#24,#25,#26,#27,#28),#1246);
#11=GEOMETRICALLY_BOUNDED_WIREFRAME_SHAPE_REPRESENTATION('',(#12),#1245);
#12=GEOMETRIC_CURVE_SET('\X2\30B930B130C330C1\X0\4',(#16,#17,#18,#19,#20,
#21,#1242));
#13=SHAPE_REPRESENTATION_RELATIONSHIP('SRR','None',#1253,#15);
#14=SHAPE_REPRESENTATION_RELATIONSHIP('SRR','None',#1253,#11);
#15=ADVANCED_BREP_SHAPE_REPRESENTATION('',(#29),#1245);
#16=POLYLINE('',(#1230,#1231));
#17=POLYLINE('',(#1232,#1233));
#18=POLYLINE('',(#1234,#1235));
#19=POLYLINE('',(#1236,#1237));
#20=POLYLINE('',(#1238,#1239));
#21=POLYLINE('',(#1240,#1241));
#22=STYLED_ITEM('',(#1263),#29);
#23=STYLED_ITEM('',(#1265),#16);
#24=STYLED_ITEM('',(#1265),#17);
#25=STYLED_ITEM('',(#1265),#18);
#26=STYLED_ITEM('',(#1265),#19);
#27=STYLED_ITEM('',(#1264),#20);
#28=STYLED_ITEM('',(#1264),#21);
#29=MANIFOLD_SOLID_BREP('\X2\30BD30EA30C330C9\X0\1',#734);
#30=FACE_BOUND('',#106,.T.);
#31=FACE_BOUND('',#107,.T.);
#32=FACE_BOUND('',#115,.T.);
#33=FACE_BOUND('',#117,.T.);
#34=FACE_BOUND('',#120,.T.);
#35=FACE_BOUND('',#138,.T.);
#36=FACE_BOUND('',#141,.T.);
#37=FACE_BOUND('',#142,.T.);
#38=FACE_BOUND('',#144,.T.);
#39=FACE_BOUND('',#145,.T.);
#40=FACE_BOUND('',#146,.T.);
#41=FACE_BOUND('',#147,.T.);
#42=PLANE('',#763);
#43=PLANE('',#764);
#44=PLANE('',#766);
#45=PLANE('',#768);
#46=PLANE('',#769);
#47=PLANE('',#770);
#48=PLANE('',#780);
#49=PLANE('',#781);
#50=PLANE('',#784);
#51=PLANE('',#786);
#52=PLANE('',#789);
#53=PLANE('',#794);
#54=PLANE('',#803);
#55=PLANE('',#804);
#56=PLANE('',#805);
#57=PLANE('',#806);
#58=PLANE('',#811);
#59=PLANE('',#813);
#60=PLANE('',#815);
#61=PLANE('',#818);
#62=PLANE('',#821);
#63=PLANE('',#822);
#64=FACE_OUTER_BOUND('',#100,.T.);
#65=FACE_OUTER_BOUND('',#101,.T.);
#66=FACE_OUTER_BOUND('',#102,.T.);
#67=FACE_OUTER_BOUND('',#103,.T.);
#68=FACE_OUTER_BOUND('',#104,.T.);
#69=FACE_OUTER_BOUND('',#105,.T.);
#70=FACE_OUTER_BOUND('',#108,.T.);
#71=FACE_OUTER_BOUND('',#109,.T.);
#72=FACE_OUTER_BOUND('',#110,.T.);
#73=FACE_OUTER_BOUND('',#111,.T.);
#74=FACE_OUTER_BOUND('',#112,.T.);
#75=FACE_OUTER_BOUND('',#113,.T.);
#76=FACE_OUTER_BOUND('',#114,.T.);
#77=FACE_OUTER_BOUND('',#116,.T.);
#78=FACE_OUTER_BOUND('',#118,.T.);
#79=FACE_OUTER_BOUND('',#119,.T.);
#80=FACE_OUTER_BOUND('',#121,.T.);
#81=FACE_OUTER_BOUND('',#122,.T.);
#82=FACE_OUTER_BOUND('',#123,.T.);
#83=FACE_OUTER_BOUND('',#124,.T.);
#84=FACE_OUTER_BOUND('',#125,.T.);
#85=FACE_OUTER_BOUND('',#126,.T.);
#86=FACE_OUTER_BOUND('',#127,.T.);
#87=FACE_OUTER_BOUND('',#128,.T.);
#88=FACE_OUTER_BOUND('',#129,.T.);
#89=FACE_OUTER_BOUND('',#130,.T.);
#90=FACE_OUTER_BOUND('',#131,.T.);
#91=FACE_OUTER_BOUND('',#132,.T.);
#92=FACE_OUTER_BOUND('',#133,.T.);
#93=FACE_OUTER_BOUND('',#134,.T.);
#94=FACE_OUTER_BOUND('',#135,.T.);
#95=FACE_OUTER_BOUND('',#136,.T.);
#96=FACE_OUTER_BOUND('',#137,.T.);
#97=FACE_OUTER_BOUND('',#139,.T.);
#98=FACE_OUTER_BOUND('',#140,.T.);
#99=FACE_OUTER_BOUND('',#143,.T.);
#100=EDGE_LOOP('',(#484,#485,#486,#487));
#101=EDGE_LOOP('',(#488,#489,#490,#491));
#102=EDGE_LOOP('',(#492,#493,#494,#495));
#103=EDGE_LOOP('',(#496,#497,#498,#499,#500));
#104=EDGE_LOOP('',(#501,#502,#503,#504,#505));
#105=EDGE_LOOP('',(#506,#507,#508,#509));
#106=EDGE_LOOP('',(#510));
#107=EDGE_LOOP('',(#511));
#108=EDGE_LOOP('',(#512,#513,#514,#515,#516));
#109=EDGE_LOOP('',(#517,#518,#519,#520,#521,#522));
#110=EDGE_LOOP('',(#523,#524,#525,#526));
#111=EDGE_LOOP('',(#527,#528,#529,#530));
#112=EDGE_LOOP('',(#531,#532,#533,#534));
#113=EDGE_LOOP('',(#535,#536,#537,#538,#539,#540,#541));
#114=EDGE_LOOP('',(#542,#543,#544,#545));
#115=EDGE_LOOP('',(#546));
#116=EDGE_LOOP('',(#547,#548,#549,#550));
#117=EDGE_LOOP('',(#551));
#118=EDGE_LOOP('',(#552,#553,#554,#555,#556,#557));
#119=EDGE_LOOP('',(#558,#559));
#120=EDGE_LOOP('',(#560));
#121=EDGE_LOOP('',(#561,#562,#563,#564));
#122=EDGE_LOOP('',(#565,#566,#567,#568));
#123=EDGE_LOOP('',(#569,#570,#571,#572));
#124=EDGE_LOOP('',(#573,#574,#575,#576));
#125=EDGE_LOOP('',(#577,#578,#579,#580));
#126=EDGE_LOOP('',(#581,#582,#583,#584));
#127=EDGE_LOOP('',(#585,#586,#587,#588));
#128=EDGE_LOOP('',(#589,#590,#591,#592));
#129=EDGE_LOOP('',(#593,#594,#595,#596));
#130=EDGE_LOOP('',(#597,#598,#599,#600,#601,#602,#603,#604,#605,#606));
#131=EDGE_LOOP('',(#607,#608,#609,#610));
#132=EDGE_LOOP('',(#611,#612,#613,#614,#615,#616));
#133=EDGE_LOOP('',(#617,#618,#619,#620,#621,#622,#623,#624));
#134=EDGE_LOOP('',(#625,#626,#627,#628));
#135=EDGE_LOOP('',(#629,#630,#631,#632));
#136=EDGE_LOOP('',(#633,#634,#635,#636,#637,#638,#639,#640));
#137=EDGE_LOOP('',(#641,#642,#643,#644,#645,#646,#647,#648,#649,#650));
#138=EDGE_LOOP('',(#651,#652,#653,#654));
#139=EDGE_LOOP('',(#655,#656,#657,#658));
#140=EDGE_LOOP('',(#659,#660,#661,#662));
#141=EDGE_LOOP('',(#663));
#142=EDGE_LOOP('',(#664));
#143=EDGE_LOOP('',(#665,#666,#667,#668,#669,#670,#671,#672,#673,#674,#675,
#676));
#144=EDGE_LOOP('',(#677));
#145=EDGE_LOOP('',(#678));
#146=EDGE_LOOP('',(#679));
#147=EDGE_LOOP('',(#680,#681,#682,#683));
#148=LINE('',#1032,#218);
#149=LINE('',#1038,#219);
#150=LINE('',#1043,#220);
#151=LINE('',#1045,#221);
#152=LINE('',#1047,#222);
#153=LINE('',#1048,#223);
#154=LINE('',#1052,#224);
#155=LINE('',#1055,#225);
#156=LINE('',#1056,#226);
#157=LINE('',#1060,#227);
#158=LINE('',#1062,#228);
#159=LINE('',#1063,#229);
#160=LINE('',#1066,#230);
#161=LINE('',#1069,#231);
#162=LINE('',#1071,#232);
#163=LINE('',#1073,#233);
#164=LINE('',#1074,#234);
#165=LINE('',#1077,#235);
#166=LINE('',#1079,#236);
#167=LINE('',#1081,#237);
#168=LINE('',#1083,#238);
#169=LINE('',#1084,#239);
#170=LINE('',#1089,#240);
#171=LINE('',#1095,#241);
#172=LINE('',#1102,#242);
#173=LINE('',#1105,#243);
#174=LINE('',#1108,#244);
#175=LINE('',#1110,#245);
#176=LINE('',#1112,#246);
#177=LINE('',#1114,#247);
#178=LINE('',#1116,#248);
#179=LINE('',#1117,#249);
#180=LINE('',#1120,#250);
#181=LINE('',#1125,#251);
#182=LINE('',#1131,#252);
#183=LINE('',#1134,#253);
#184=LINE('',#1142,#254);
#185=LINE('',#1145,#255);
#186=LINE('',#1147,#256);
#187=LINE('',#1148,#257);
#188=LINE('',#1152,#258);
#189=LINE('',#1158,#259);
#190=LINE('',#1162,#260);
#191=LINE('',#1166,#261);
#192=LINE('',#1168,#262);
#193=LINE('',#1170,#263);
#194=LINE('',#1171,#264);
#195=LINE('',#1174,#265);
#196=LINE('',#1176,#266);
#197=LINE('',#1177,#267);
#198=LINE('',#1180,#268);
#199=LINE('',#1182,#269);
#200=LINE('',#1183,#270);
#201=LINE('',#1186,#271);
#202=LINE('',#1190,#272);
#203=LINE('',#1192,#273);
#204=LINE('',#1194,#274);
#205=LINE('',#1197,#275);
#206=LINE('',#1200,#276);
#207=LINE('',#1203,#277);
#208=LINE('',#1206,#278);
#209=LINE('',#1210,#279);
#210=LINE('',#1212,#280);
#211=LINE('',#1213,#281);
#212=LINE('',#1215,#282);
#213=LINE('',#1216,#283);
#214=LINE('',#1218,#284);
#215=LINE('',#1220,#285);
#216=LINE('',#1224,#286);
#217=LINE('',#1228,#287);
#218=VECTOR('',#829,1.3);
#219=VECTOR('',#836,1.3);
#220=VECTOR('',#841,10.);
#221=VECTOR('',#842,10.);
#222=VECTOR('',#843,10.);
#223=VECTOR('',#844,10.);
#224=VECTOR('',#847,10.);
#225=VECTOR('',#850,10.);
#226=VECTOR('',#851,10.);
#227=VECTOR('',#854,10.);
#228=VECTOR('',#855,10.);
#229=VECTOR('',#856,10.);
#230=VECTOR('',#861,10.);
#231=VECTOR('',#864,10.);
#232=VECTOR('',#865,10.);
#233=VECTOR('',#866,10.);
#234=VECTOR('',#867,10.);
#235=VECTOR('',#870,10.);
#236=VECTOR('',#871,10.);
#237=VECTOR('',#872,10.);
#238=VECTOR('',#873,10.);
#239=VECTOR('',#874,10.);
#240=VECTOR('',#879,10.);
#241=VECTOR('',#886,10.);
#242=VECTOR('',#893,10.);
#243=VECTOR('',#896,10.);
#244=VECTOR('',#899,10.);
#245=VECTOR('',#900,10.);
#246=VECTOR('',#901,10.);
#247=VECTOR('',#902,10.);
#248=VECTOR('',#903,10.);
#249=VECTOR('',#904,10.);
#250=VECTOR('',#907,10.);
#251=VECTOR('',#914,10.);
#252=VECTOR('',#921,10.);
#253=VECTOR('',#924,10.);
#254=VECTOR('',#935,10.);
#255=VECTOR('',#938,10.);
#256=VECTOR('',#939,10.);
#257=VECTOR('',#940,10.);
#258=VECTOR('',#945,1.6);
#259=VECTOR('',#954,1.6);
#260=VECTOR('',#959,1.6);
#261=VECTOR('',#962,10.);
#262=VECTOR('',#963,10.);
#263=VECTOR('',#964,10.);
#264=VECTOR('',#965,10.);
#265=VECTOR('',#968,10.);
#266=VECTOR('',#969,10.);
#267=VECTOR('',#970,10.);
#268=VECTOR('',#973,10.);
#269=VECTOR('',#974,10.);
#270=VECTOR('',#975,10.);
#271=VECTOR('',#978,10.);
#272=VECTOR('',#981,10.);
#273=VECTOR('',#982,10.);
#274=VECTOR('',#983,10.);
#275=VECTOR('',#986,10.);
#276=VECTOR('',#989,10.);
#277=VECTOR('',#992,10.);
#278=VECTOR('',#995,10.);
#279=VECTOR('',#998,10.);
#280=VECTOR('',#999,10.);
#281=VECTOR('',#1000,10.);
#282=VECTOR('',#1003,10.);
#283=VECTOR('',#1004,10.);
#284=VECTOR('',#1007,10.);
#285=VECTOR('',#1010,10.);
#286=VECTOR('',#1017,10.);
#287=VECTOR('',#1024,10.);
#288=CIRCLE('',#758,1.3);
#289=CIRCLE('',#759,1.3);
#290=CIRCLE('',#761,1.3);
#291=CIRCLE('',#762,1.3);
#292=CIRCLE('',#765,5.);
#293=CIRCLE('',#767,5.);
#294=CIRCLE('',#772,5.);
#295=CIRCLE('',#773,5.);
#296=CIRCLE('',#775,3.);
#297=CIRCLE('',#776,3.);
#298=CIRCLE('',#778,5.);
#299=CIRCLE('',#779,5.);
#300=CIRCLE('',#782,3.);
#301=CIRCLE('',#783,1.6);
#302=CIRCLE('',#785,1.6);
#303=CIRCLE('',#787,5.);
#304=CIRCLE('',#788,5.);
#305=CIRCLE('',#790,41.5208333333334);
#306=CIRCLE('',#791,1.6);
#307=CIRCLE('',#793,3.);
#308=CIRCLE('',#796,1.6);
#309=CIRCLE('',#798,41.5208333333334);
#310=CIRCLE('',#800,1.6);
#311=CIRCLE('',#802,1.6);
#312=CIRCLE('',#807,5.);
#313=CIRCLE('',#808,5.);
#314=CIRCLE('',#810,5.);
#315=CIRCLE('',#812,5.);
#316=CIRCLE('',#817,5.);
#317=CIRCLE('',#819,5.);
#318=VERTEX_POINT('',#1029);
#319=VERTEX_POINT('',#1031);
#320=VERTEX_POINT('',#1035);
#321=VERTEX_POINT('',#1037);
#322=VERTEX_POINT('',#1041);
#323=VERTEX_POINT('',#1042);
#324=VERTEX_POINT('',#1044);
#325=VERTEX_POINT('',#1046);
#326=VERTEX_POINT('',#1050);
#327=VERTEX_POINT('',#1051);
#328=VERTEX_POINT('',#1054);
#329=VERTEX_POINT('',#1058);
#330=VERTEX_POINT('',#1059);
#331=VERTEX_POINT('',#1061);
#332=VERTEX_POINT('',#1068);
#333=VERTEX_POINT('',#1070);
#334=VERTEX_POINT('',#1072);
#335=VERTEX_POINT('',#1076);
#336=VERTEX_POINT('',#1078);
#337=VERTEX_POINT('',#1080);
#338=VERTEX_POINT('',#1082);
#339=VERTEX_POINT('',#1086);
#340=VERTEX_POINT('',#1088);
#341=VERTEX_POINT('',#1092);
#342=VERTEX_POINT('',#1094);
#343=VERTEX_POINT('',#1098);
#344=VERTEX_POINT('',#1099);
#345=VERTEX_POINT('',#1101);
#346=VERTEX_POINT('',#1103);
#347=VERTEX_POINT('',#1107);
#348=VERTEX_POINT('',#1109);
#349=VERTEX_POINT('',#1111);
#350=VERTEX_POINT('',#1113);
#351=VERTEX_POINT('',#1115);
#352=VERTEX_POINT('',#1119);
#353=VERTEX_POINT('',#1122);
#354=VERTEX_POINT('',#1126);
#355=VERTEX_POINT('',#1129);
#356=VERTEX_POINT('',#1132);
#357=VERTEX_POINT('',#1137);
#358=VERTEX_POINT('',#1140);
#359=VERTEX_POINT('',#1144);
#360=VERTEX_POINT('',#1146);
#361=VERTEX_POINT('',#1150);
#362=VERTEX_POINT('',#1156);
#363=VERTEX_POINT('',#1160);
#364=VERTEX_POINT('',#1164);
#365=VERTEX_POINT('',#1165);
#366=VERTEX_POINT('',#1167);
#367=VERTEX_POINT('',#1169);
#368=VERTEX_POINT('',#1173);
#369=VERTEX_POINT('',#1175);
#370=VERTEX_POINT('',#1179);
#371=VERTEX_POINT('',#1181);
#372=VERTEX_POINT('',#1185);
#373=VERTEX_POINT('',#1187);
#374=VERTEX_POINT('',#1189);
#375=VERTEX_POINT('',#1191);
#376=VERTEX_POINT('',#1193);
#377=VERTEX_POINT('',#1195);
#378=VERTEX_POINT('',#1199);
#379=VERTEX_POINT('',#1201);
#380=VERTEX_POINT('',#1205);
#381=VERTEX_POINT('',#1207);
#382=VERTEX_POINT('',#1209);
#383=VERTEX_POINT('',#1211);
#384=EDGE_CURVE('',#318,#318,#288,.T.);
#385=EDGE_CURVE('',#318,#319,#148,.T.);
#386=EDGE_CURVE('',#319,#319,#289,.T.);
#387=EDGE_CURVE('',#320,#320,#290,.T.);
#388=EDGE_CURVE('',#320,#321,#149,.T.);
#389=EDGE_CURVE('',#321,#321,#291,.T.);
#390=EDGE_CURVE('',#322,#323,#150,.T.);
#391=EDGE_CURVE('',#324,#323,#151,.T.);
#392=EDGE_CURVE('',#325,#324,#152,.T.);
#393=EDGE_CURVE('',#322,#325,#153,.T.);
#394=EDGE_CURVE('',#326,#327,#154,.T.);
#395=EDGE_CURVE('',#325,#326,#292,.T.);
#396=EDGE_CURVE('',#328,#324,#155,.T.);
#397=EDGE_CURVE('',#327,#328,#156,.T.);
#398=EDGE_CURVE('',#329,#330,#157,.T.);
#399=EDGE_CURVE('',#329,#331,#158,.T.);
#400=EDGE_CURVE('',#323,#331,#159,.T.);
#401=EDGE_CURVE('',#330,#322,#293,.T.);
#402=EDGE_CURVE('',#331,#328,#160,.T.);
#403=EDGE_CURVE('',#332,#327,#161,.T.);
#404=EDGE_CURVE('',#333,#332,#162,.T.);
#405=EDGE_CURVE('',#334,#333,#163,.T.);
#406=EDGE_CURVE('',#326,#334,#164,.T.);
#407=EDGE_CURVE('',#335,#330,#165,.T.);
#408=EDGE_CURVE('',#336,#335,#166,.T.);
#409=EDGE_CURVE('',#336,#337,#167,.T.);
#410=EDGE_CURVE('',#338,#337,#168,.T.);
#411=EDGE_CURVE('',#329,#338,#169,.T.);
#412=EDGE_CURVE('',#337,#339,#294,.T.);
#413=EDGE_CURVE('',#339,#340,#170,.T.);
#414=EDGE_CURVE('',#340,#338,#295,.T.);
#415=EDGE_CURVE('',#339,#341,#296,.T.);
#416=EDGE_CURVE('',#341,#342,#171,.T.);
#417=EDGE_CURVE('',#342,#340,#297,.T.);
#418=EDGE_CURVE('',#343,#344,#298,.T.);
#419=EDGE_CURVE('',#344,#345,#172,.T.);
#420=EDGE_CURVE('',#345,#346,#299,.T.);
#421=EDGE_CURVE('',#346,#343,#173,.T.);
#422=EDGE_CURVE('',#344,#347,#174,.T.);
#423=EDGE_CURVE('',#348,#347,#175,.T.);
#424=EDGE_CURVE('',#349,#348,#176,.T.);
#425=EDGE_CURVE('',#349,#350,#177,.T.);
#426=EDGE_CURVE('',#350,#351,#178,.T.);
#427=EDGE_CURVE('',#345,#351,#179,.T.);
#428=EDGE_CURVE('',#347,#352,#180,.T.);
#429=EDGE_CURVE('',#352,#343,#300,.T.);
#430=EDGE_CURVE('',#353,#353,#301,.T.);
#431=EDGE_CURVE('',#341,#336,#181,.T.);
#432=EDGE_CURVE('',#354,#354,#302,.T.);
#433=EDGE_CURVE('',#334,#355,#303,.T.);
#434=EDGE_CURVE('',#333,#350,#182,.T.);
#435=EDGE_CURVE('',#356,#349,#304,.T.);
#436=EDGE_CURVE('',#355,#356,#183,.T.);
#437=EDGE_CURVE('',#350,#333,#305,.T.);
#438=EDGE_CURVE('',#357,#357,#306,.T.);
#439=EDGE_CURVE('',#346,#358,#307,.T.);
#440=EDGE_CURVE('',#352,#358,#184,.T.);
#441=EDGE_CURVE('',#359,#356,#185,.T.);
#442=EDGE_CURVE('',#360,#359,#186,.T.);
#443=EDGE_CURVE('',#355,#360,#187,.T.);
#444=EDGE_CURVE('',#361,#361,#308,.T.);
#445=EDGE_CURVE('',#361,#357,#188,.T.);
#446=EDGE_CURVE('',#332,#351,#309,.T.);
#447=EDGE_CURVE('',#362,#362,#310,.T.);
#448=EDGE_CURVE('',#362,#353,#189,.T.);
#449=EDGE_CURVE('',#363,#363,#311,.T.);
#450=EDGE_CURVE('',#363,#354,#190,.T.);
#451=EDGE_CURVE('',#364,#365,#191,.T.);
#452=EDGE_CURVE('',#366,#364,#192,.T.);
#453=EDGE_CURVE('',#367,#366,#193,.T.);
#454=EDGE_CURVE('',#367,#365,#194,.T.);
#455=EDGE_CURVE('',#365,#368,#195,.T.);
#456=EDGE_CURVE('',#369,#367,#196,.T.);
#457=EDGE_CURVE('',#369,#368,#197,.T.);
#458=EDGE_CURVE('',#368,#370,#198,.T.);
#459=EDGE_CURVE('',#371,#369,#199,.T.);
#460=EDGE_CURVE('',#371,#370,#200,.T.);
#461=EDGE_CURVE('',#372,#370,#201,.F.);
#462=EDGE_CURVE('',#372,#373,#312,.T.);
#463=EDGE_CURVE('',#373,#374,#202,.F.);
#464=EDGE_CURVE('',#375,#374,#203,.T.);
#465=EDGE_CURVE('',#376,#375,#204,.F.);
#466=EDGE_CURVE('',#376,#377,#313,.T.);
#467=EDGE_CURVE('',#364,#377,#205,.F.);
#468=EDGE_CURVE('',#372,#378,#206,.T.);
#469=EDGE_CURVE('',#379,#378,#314,.T.);
#470=EDGE_CURVE('',#379,#373,#207,.T.);
#471=EDGE_CURVE('',#380,#378,#208,.F.);
#472=EDGE_CURVE('',#380,#381,#315,.T.);
#473=EDGE_CURVE('',#381,#382,#209,.T.);
#474=EDGE_CURVE('',#383,#382,#210,.T.);
#475=EDGE_CURVE('',#379,#383,#211,.F.);
#476=EDGE_CURVE('',#366,#371,#212,.T.);
#477=EDGE_CURVE('',#380,#377,#213,.T.);
#478=EDGE_CURVE('',#376,#381,#214,.T.);
#479=EDGE_CURVE('',#382,#375,#215,.T.);
#480=EDGE_CURVE('',#360,#335,#316,.T.);
#481=EDGE_CURVE('',#358,#342,#216,.T.);
#482=EDGE_CURVE('',#348,#359,#317,.T.);
#483=EDGE_CURVE('',#374,#383,#217,.T.);
#484=ORIENTED_EDGE('',*,*,#384,.F.);
#485=ORIENTED_EDGE('',*,*,#385,.T.);
#486=ORIENTED_EDGE('',*,*,#386,.F.);
#487=ORIENTED_EDGE('',*,*,#385,.F.);
#488=ORIENTED_EDGE('',*,*,#387,.F.);
#489=ORIENTED_EDGE('',*,*,#388,.T.);
#490=ORIENTED_EDGE('',*,*,#389,.F.);
#491=ORIENTED_EDGE('',*,*,#388,.F.);
#492=ORIENTED_EDGE('',*,*,#390,.T.);
#493=ORIENTED_EDGE('',*,*,#391,.F.);
#494=ORIENTED_EDGE('',*,*,#392,.F.);
#495=ORIENTED_EDGE('',*,*,#393,.F.);
#496=ORIENTED_EDGE('',*,*,#394,.F.);
#497=ORIENTED_EDGE('',*,*,#395,.F.);
#498=ORIENTED_EDGE('',*,*,#392,.T.);
#499=ORIENTED_EDGE('',*,*,#396,.F.);
#500=ORIENTED_EDGE('',*,*,#397,.F.);
#501=ORIENTED_EDGE('',*,*,#398,.F.);
#502=ORIENTED_EDGE('',*,*,#399,.T.);
#503=ORIENTED_EDGE('',*,*,#400,.F.);
#504=ORIENTED_EDGE('',*,*,#390,.F.);
#505=ORIENTED_EDGE('',*,*,#401,.F.);
#506=ORIENTED_EDGE('',*,*,#400,.T.);
#507=ORIENTED_EDGE('',*,*,#402,.T.);
#508=ORIENTED_EDGE('',*,*,#396,.T.);
#509=ORIENTED_EDGE('',*,*,#391,.T.);
#510=ORIENTED_EDGE('',*,*,#384,.T.);
#511=ORIENTED_EDGE('',*,*,#387,.T.);
#512=ORIENTED_EDGE('',*,*,#394,.T.);
#513=ORIENTED_EDGE('',*,*,#403,.F.);
#514=ORIENTED_EDGE('',*,*,#404,.F.);
#515=ORIENTED_EDGE('',*,*,#405,.F.);
#516=ORIENTED_EDGE('',*,*,#406,.F.);
#517=ORIENTED_EDGE('',*,*,#398,.T.);
#518=ORIENTED_EDGE('',*,*,#407,.F.);
#519=ORIENTED_EDGE('',*,*,#408,.F.);
#520=ORIENTED_EDGE('',*,*,#409,.T.);
#521=ORIENTED_EDGE('',*,*,#410,.F.);
#522=ORIENTED_EDGE('',*,*,#411,.F.);
#523=ORIENTED_EDGE('',*,*,#412,.T.);
#524=ORIENTED_EDGE('',*,*,#413,.T.);
#525=ORIENTED_EDGE('',*,*,#414,.T.);
#526=ORIENTED_EDGE('',*,*,#410,.T.);
#527=ORIENTED_EDGE('',*,*,#413,.F.);
#528=ORIENTED_EDGE('',*,*,#415,.T.);
#529=ORIENTED_EDGE('',*,*,#416,.T.);
#530=ORIENTED_EDGE('',*,*,#417,.T.);
#531=ORIENTED_EDGE('',*,*,#418,.T.);
#532=ORIENTED_EDGE('',*,*,#419,.T.);
#533=ORIENTED_EDGE('',*,*,#420,.T.);
#534=ORIENTED_EDGE('',*,*,#421,.T.);
#535=ORIENTED_EDGE('',*,*,#419,.F.);
#536=ORIENTED_EDGE('',*,*,#422,.T.);
#537=ORIENTED_EDGE('',*,*,#423,.F.);
#538=ORIENTED_EDGE('',*,*,#424,.F.);
#539=ORIENTED_EDGE('',*,*,#425,.T.);
#540=ORIENTED_EDGE('',*,*,#426,.T.);
#541=ORIENTED_EDGE('',*,*,#427,.F.);
#542=ORIENTED_EDGE('',*,*,#428,.F.);
#543=ORIENTED_EDGE('',*,*,#422,.F.);
#544=ORIENTED_EDGE('',*,*,#418,.F.);
#545=ORIENTED_EDGE('',*,*,#429,.F.);
#546=ORIENTED_EDGE('',*,*,#430,.F.);
#547=ORIENTED_EDGE('',*,*,#409,.F.);
#548=ORIENTED_EDGE('',*,*,#431,.F.);
#549=ORIENTED_EDGE('',*,*,#415,.F.);
#550=ORIENTED_EDGE('',*,*,#412,.F.);
#551=ORIENTED_EDGE('',*,*,#432,.F.);
#552=ORIENTED_EDGE('',*,*,#433,.F.);
#553=ORIENTED_EDGE('',*,*,#405,.T.);
#554=ORIENTED_EDGE('',*,*,#434,.T.);
#555=ORIENTED_EDGE('',*,*,#425,.F.);
#556=ORIENTED_EDGE('',*,*,#435,.F.);
#557=ORIENTED_EDGE('',*,*,#436,.F.);
#558=ORIENTED_EDGE('',*,*,#437,.F.);
#559=ORIENTED_EDGE('',*,*,#434,.F.);
#560=ORIENTED_EDGE('',*,*,#438,.F.);
#561=ORIENTED_EDGE('',*,*,#421,.F.);
#562=ORIENTED_EDGE('',*,*,#439,.T.);
#563=ORIENTED_EDGE('',*,*,#440,.F.);
#564=ORIENTED_EDGE('',*,*,#429,.T.);
#565=ORIENTED_EDGE('',*,*,#436,.T.);
#566=ORIENTED_EDGE('',*,*,#441,.F.);
#567=ORIENTED_EDGE('',*,*,#442,.F.);
#568=ORIENTED_EDGE('',*,*,#443,.F.);
#569=ORIENTED_EDGE('',*,*,#444,.T.);
#570=ORIENTED_EDGE('',*,*,#445,.T.);
#571=ORIENTED_EDGE('',*,*,#438,.T.);
#572=ORIENTED_EDGE('',*,*,#445,.F.);
#573=ORIENTED_EDGE('',*,*,#437,.T.);
#574=ORIENTED_EDGE('',*,*,#404,.T.);
#575=ORIENTED_EDGE('',*,*,#446,.T.);
#576=ORIENTED_EDGE('',*,*,#426,.F.);
#577=ORIENTED_EDGE('',*,*,#447,.T.);
#578=ORIENTED_EDGE('',*,*,#448,.T.);
#579=ORIENTED_EDGE('',*,*,#430,.T.);
#580=ORIENTED_EDGE('',*,*,#448,.F.);
#581=ORIENTED_EDGE('',*,*,#449,.T.);
#582=ORIENTED_EDGE('',*,*,#450,.T.);
#583=ORIENTED_EDGE('',*,*,#432,.T.);
#584=ORIENTED_EDGE('',*,*,#450,.F.);
#585=ORIENTED_EDGE('',*,*,#451,.F.);
#586=ORIENTED_EDGE('',*,*,#452,.F.);
#587=ORIENTED_EDGE('',*,*,#453,.F.);
#588=ORIENTED_EDGE('',*,*,#454,.T.);
#589=ORIENTED_EDGE('',*,*,#455,.F.);
#590=ORIENTED_EDGE('',*,*,#454,.F.);
#591=ORIENTED_EDGE('',*,*,#456,.F.);
#592=ORIENTED_EDGE('',*,*,#457,.T.);
#593=ORIENTED_EDGE('',*,*,#458,.F.);
#594=ORIENTED_EDGE('',*,*,#457,.F.);
#595=ORIENTED_EDGE('',*,*,#459,.F.);
#596=ORIENTED_EDGE('',*,*,#460,.T.);
#597=ORIENTED_EDGE('',*,*,#451,.T.);
#598=ORIENTED_EDGE('',*,*,#455,.T.);
#599=ORIENTED_EDGE('',*,*,#458,.T.);
#600=ORIENTED_EDGE('',*,*,#461,.F.);
#601=ORIENTED_EDGE('',*,*,#462,.T.);
#602=ORIENTED_EDGE('',*,*,#463,.T.);
#603=ORIENTED_EDGE('',*,*,#464,.F.);
#604=ORIENTED_EDGE('',*,*,#465,.F.);
#605=ORIENTED_EDGE('',*,*,#466,.T.);
#606=ORIENTED_EDGE('',*,*,#467,.F.);
#607=ORIENTED_EDGE('',*,*,#462,.F.);
#608=ORIENTED_EDGE('',*,*,#468,.T.);
#609=ORIENTED_EDGE('',*,*,#469,.F.);
#610=ORIENTED_EDGE('',*,*,#470,.T.);
#611=ORIENTED_EDGE('',*,*,#469,.T.);
#612=ORIENTED_EDGE('',*,*,#471,.F.);
#613=ORIENTED_EDGE('',*,*,#472,.T.);
#614=ORIENTED_EDGE('',*,*,#473,.T.);
#615=ORIENTED_EDGE('',*,*,#474,.F.);
#616=ORIENTED_EDGE('',*,*,#475,.F.);
#617=ORIENTED_EDGE('',*,*,#468,.F.);
#618=ORIENTED_EDGE('',*,*,#461,.T.);
#619=ORIENTED_EDGE('',*,*,#460,.F.);
#620=ORIENTED_EDGE('',*,*,#476,.F.);
#621=ORIENTED_EDGE('',*,*,#452,.T.);
#622=ORIENTED_EDGE('',*,*,#467,.T.);
#623=ORIENTED_EDGE('',*,*,#477,.F.);
#624=ORIENTED_EDGE('',*,*,#471,.T.);
#625=ORIENTED_EDGE('',*,*,#472,.F.);
#626=ORIENTED_EDGE('',*,*,#477,.T.);
#627=ORIENTED_EDGE('',*,*,#466,.F.);
#628=ORIENTED_EDGE('',*,*,#478,.T.);
#629=ORIENTED_EDGE('',*,*,#478,.F.);
#630=ORIENTED_EDGE('',*,*,#465,.T.);
#631=ORIENTED_EDGE('',*,*,#479,.F.);
#632=ORIENTED_EDGE('',*,*,#473,.F.);
#633=ORIENTED_EDGE('',*,*,#395,.T.);
#634=ORIENTED_EDGE('',*,*,#406,.T.);
#635=ORIENTED_EDGE('',*,*,#433,.T.);
#636=ORIENTED_EDGE('',*,*,#443,.T.);
#637=ORIENTED_EDGE('',*,*,#480,.T.);
#638=ORIENTED_EDGE('',*,*,#407,.T.);
#639=ORIENTED_EDGE('',*,*,#401,.T.);
#640=ORIENTED_EDGE('',*,*,#393,.T.);
#641=ORIENTED_EDGE('',*,*,#428,.T.);
#642=ORIENTED_EDGE('',*,*,#440,.T.);
#643=ORIENTED_EDGE('',*,*,#481,.T.);
#644=ORIENTED_EDGE('',*,*,#416,.F.);
#645=ORIENTED_EDGE('',*,*,#431,.T.);
#646=ORIENTED_EDGE('',*,*,#408,.T.);
#647=ORIENTED_EDGE('',*,*,#480,.F.);
#648=ORIENTED_EDGE('',*,*,#442,.T.);
#649=ORIENTED_EDGE('',*,*,#482,.F.);
#650=ORIENTED_EDGE('',*,*,#423,.T.);
#651=ORIENTED_EDGE('',*,*,#476,.T.);
#652=ORIENTED_EDGE('',*,*,#459,.T.);
#653=ORIENTED_EDGE('',*,*,#456,.T.);
#654=ORIENTED_EDGE('',*,*,#453,.T.);
#655=ORIENTED_EDGE('',*,*,#435,.T.);
#656=ORIENTED_EDGE('',*,*,#424,.T.);
#657=ORIENTED_EDGE('',*,*,#482,.T.);
#658=ORIENTED_EDGE('',*,*,#441,.T.);
#659=ORIENTED_EDGE('',*,*,#470,.F.);
#660=ORIENTED_EDGE('',*,*,#475,.T.);
#661=ORIENTED_EDGE('',*,*,#483,.F.);
#662=ORIENTED_EDGE('',*,*,#463,.F.);
#663=ORIENTED_EDGE('',*,*,#386,.T.);
#664=ORIENTED_EDGE('',*,*,#389,.T.);
#665=ORIENTED_EDGE('',*,*,#403,.T.);
#666=ORIENTED_EDGE('',*,*,#397,.T.);
#667=ORIENTED_EDGE('',*,*,#402,.F.);
#668=ORIENTED_EDGE('',*,*,#399,.F.);
#669=ORIENTED_EDGE('',*,*,#411,.T.);
#670=ORIENTED_EDGE('',*,*,#414,.F.);
#671=ORIENTED_EDGE('',*,*,#417,.F.);
#672=ORIENTED_EDGE('',*,*,#481,.F.);
#673=ORIENTED_EDGE('',*,*,#439,.F.);
#674=ORIENTED_EDGE('',*,*,#420,.F.);
#675=ORIENTED_EDGE('',*,*,#427,.T.);
#676=ORIENTED_EDGE('',*,*,#446,.F.);
#677=ORIENTED_EDGE('',*,*,#447,.F.);
#678=ORIENTED_EDGE('',*,*,#444,.F.);
#679=ORIENTED_EDGE('',*,*,#449,.F.);
#680=ORIENTED_EDGE('',*,*,#479,.T.);
#681=ORIENTED_EDGE('',*,*,#464,.T.);
#682=ORIENTED_EDGE('',*,*,#483,.T.);
#683=ORIENTED_EDGE('',*,*,#474,.T.);
#684=CYLINDRICAL_SURFACE('',#757,1.3);
#685=CYLINDRICAL_SURFACE('',#760,1.3);
#686=CYLINDRICAL_SURFACE('',#771,5.);
#687=CYLINDRICAL_SURFACE('',#774,3.);
#688=CYLINDRICAL_SURFACE('',#777,5.);
#689=CYLINDRICAL_SURFACE('',#792,3.);
#690=CYLINDRICAL_SURFACE('',#795,1.6);
#691=CYLINDRICAL_SURFACE('',#797,41.5208333333334);
#692=CYLINDRICAL_SURFACE('',#799,1.6);
#693=CYLINDRICAL_SURFACE('',#801,1.6);
#694=CYLINDRICAL_SURFACE('',#809,5.);
#695=CYLINDRICAL_SURFACE('',#814,5.);
#696=CYLINDRICAL_SURFACE('',#816,5.);
#697=CYLINDRICAL_SURFACE('',#820,5.);
#698=ADVANCED_FACE('',(#64),#684,.F.);
#699=ADVANCED_FACE('',(#65),#685,.F.);
#700=ADVANCED_FACE('',(#66),#42,.T.);
#701=ADVANCED_FACE('',(#67),#43,.T.);
#702=ADVANCED_FACE('',(#68),#44,.T.);
#703=ADVANCED_FACE('',(#69,#30,#31),#45,.T.);
#704=ADVANCED_FACE('',(#70),#46,.T.);
#705=ADVANCED_FACE('',(#71),#47,.T.);
#706=ADVANCED_FACE('',(#72),#686,.F.);
#707=ADVANCED_FACE('',(#73),#687,.T.);
#708=ADVANCED_FACE('',(#74),#688,.F.);
#709=ADVANCED_FACE('',(#75),#48,.T.);
#710=ADVANCED_FACE('',(#76,#32),#49,.T.);
#711=ADVANCED_FACE('',(#77,#33),#50,.T.);
#712=ADVANCED_FACE('',(#78),#51,.F.);
#713=ADVANCED_FACE('',(#79,#34),#52,.T.);
#714=ADVANCED_FACE('',(#80),#689,.T.);
#715=ADVANCED_FACE('',(#81),#53,.F.);
#716=ADVANCED_FACE('',(#82),#690,.F.);
#717=ADVANCED_FACE('',(#83),#691,.T.);
#718=ADVANCED_FACE('',(#84),#692,.F.);
#719=ADVANCED_FACE('',(#85),#693,.F.);
#720=ADVANCED_FACE('',(#86),#54,.F.);
#721=ADVANCED_FACE('',(#87),#55,.F.);
#722=ADVANCED_FACE('',(#88),#56,.F.);
#723=ADVANCED_FACE('',(#89),#57,.F.);
#724=ADVANCED_FACE('',(#90),#694,.F.);
#725=ADVANCED_FACE('',(#91),#58,.F.);
#726=ADVANCED_FACE('',(#92),#59,.T.);
#727=ADVANCED_FACE('',(#93),#695,.F.);
#728=ADVANCED_FACE('',(#94),#60,.F.);
#729=ADVANCED_FACE('',(#95),#696,.T.);
#730=ADVANCED_FACE('',(#96,#35),#61,.T.);
#731=ADVANCED_FACE('',(#97),#697,.T.);
#732=ADVANCED_FACE('',(#98,#36,#37),#62,.F.);
#733=ADVANCED_FACE('',(#99,#38,#39,#40,#41),#63,.T.);
#734=CLOSED_SHELL('',(#698,#699,#700,#701,#702,#703,#704,#705,#706,#707,
#708,#709,#710,#711,#712,#713,#714,#715,#716,#717,#718,#719,#720,#721,#722,
#723,#724,#725,#726,#727,#728,#729,#730,#731,#732,#733));
#735=DERIVED_UNIT_ELEMENT(#738,1.);
#736=DERIVED_UNIT_ELEMENT(#1248,-3.);
#737=DIMENSIONAL_EXPONENTS(0.,1.,0.,0.,0.,0.,0.);
#738=(
CONVERSION_BASED_UNIT('gram',#740)
MASS_UNIT()
NAMED_UNIT(#737)
);
#739=(
MASS_UNIT()
NAMED_UNIT(*)
SI_UNIT(.KILO.,.GRAM.)
);
#740=MASS_MEASURE_WITH_UNIT(MASS_MEASURE(0.001),#739);
#741=DERIVED_UNIT((#735,#736));
#742=MEASURE_REPRESENTATION_ITEM('density measure',
POSITIVE_RATIO_MEASURE(1.),#741);
#743=PROPERTY_DEFINITION_REPRESENTATION(#748,#745);
#744=PROPERTY_DEFINITION_REPRESENTATION(#749,#746);
#745=REPRESENTATION('material name',(#747),#1245);
#746=REPRESENTATION('density',(#742),#1245);
#747=DESCRIPTIVE_REPRESENTATION_ITEM('\X2\4E00822C\X0\','\X2\4E00822C\X0\');
#748=PROPERTY_DEFINITION('material property','material name',#1255);
#749=PROPERTY_DEFINITION('material property','density of part',#1255);
#750=DATE_TIME_ROLE('creation_date');
#751=APPLIED_DATE_AND_TIME_ASSIGNMENT(#752,#750,(#1255));
#752=DATE_AND_TIME(#753,#754);
#753=CALENDAR_DATE(2026,3,2);
#754=LOCAL_TIME(0,0,0.,#755);
#755=COORDINATED_UNIVERSAL_TIME_OFFSET(0,0,.BEHIND.);
#756=AXIS2_PLACEMENT_3D('',#1027,#823,#824);
#757=AXIS2_PLACEMENT_3D('',#1028,#825,#826);
#758=AXIS2_PLACEMENT_3D('',#1030,#827,#828);
#759=AXIS2_PLACEMENT_3D('',#1033,#830,#831);
#760=AXIS2_PLACEMENT_3D('',#1034,#832,#833);
#761=AXIS2_PLACEMENT_3D('',#1036,#834,#835);
#762=AXIS2_PLACEMENT_3D('',#1039,#837,#838);
#763=AXIS2_PLACEMENT_3D('',#1040,#839,#840);
#764=AXIS2_PLACEMENT_3D('',#1049,#845,#846);
#765=AXIS2_PLACEMENT_3D('',#1053,#848,#849);
#766=AXIS2_PLACEMENT_3D('',#1057,#852,#853);
#767=AXIS2_PLACEMENT_3D('',#1064,#857,#858);
#768=AXIS2_PLACEMENT_3D('',#1065,#859,#860);
#769=AXIS2_PLACEMENT_3D('',#1067,#862,#863);
#770=AXIS2_PLACEMENT_3D('',#1075,#868,#869);
#771=AXIS2_PLACEMENT_3D('',#1085,#875,#876);
#772=AXIS2_PLACEMENT_3D('',#1087,#877,#878);
#773=AXIS2_PLACEMENT_3D('',#1090,#880,#881);
#774=AXIS2_PLACEMENT_3D('',#1091,#882,#883);
#775=AXIS2_PLACEMENT_3D('',#1093,#884,#885);
#776=AXIS2_PLACEMENT_3D('',#1096,#887,#888);
#777=AXIS2_PLACEMENT_3D('',#1097,#889,#890);
#778=AXIS2_PLACEMENT_3D('',#1100,#891,#892);
#779=AXIS2_PLACEMENT_3D('',#1104,#894,#895);
#780=AXIS2_PLACEMENT_3D('',#1106,#897,#898);
#781=AXIS2_PLACEMENT_3D('',#1118,#905,#906);
#782=AXIS2_PLACEMENT_3D('',#1121,#908,#909);
#783=AXIS2_PLACEMENT_3D('',#1123,#910,#911);
#784=AXIS2_PLACEMENT_3D('',#1124,#912,#913);
#785=AXIS2_PLACEMENT_3D('',#1127,#915,#916);
#786=AXIS2_PLACEMENT_3D('',#1128,#917,#918);
#787=AXIS2_PLACEMENT_3D('',#1130,#919,#920);
#788=AXIS2_PLACEMENT_3D('',#1133,#922,#923);
#789=AXIS2_PLACEMENT_3D('',#1135,#925,#926);
#790=AXIS2_PLACEMENT_3D('',#1136,#927,#928);
#791=AXIS2_PLACEMENT_3D('',#1138,#929,#930);
#792=AXIS2_PLACEMENT_3D('',#1139,#931,#932);
#793=AXIS2_PLACEMENT_3D('',#1141,#933,#934);
#794=AXIS2_PLACEMENT_3D('',#1143,#936,#937);
#795=AXIS2_PLACEMENT_3D('',#1149,#941,#942);
#796=AXIS2_PLACEMENT_3D('',#1151,#943,#944);
#797=AXIS2_PLACEMENT_3D('',#1153,#946,#947);
#798=AXIS2_PLACEMENT_3D('',#1154,#948,#949);
#799=AXIS2_PLACEMENT_3D('',#1155,#950,#951);
#800=AXIS2_PLACEMENT_3D('',#1157,#952,#953);
#801=AXIS2_PLACEMENT_3D('',#1159,#955,#956);
#802=AXIS2_PLACEMENT_3D('',#1161,#957,#958);
#803=AXIS2_PLACEMENT_3D('',#1163,#960,#961);
#804=AXIS2_PLACEMENT_3D('',#1172,#966,#967);
#805=AXIS2_PLACEMENT_3D('',#1178,#971,#972);
#806=AXIS2_PLACEMENT_3D('',#1184,#976,#977);
#807=AXIS2_PLACEMENT_3D('',#1188,#979,#980);
#808=AXIS2_PLACEMENT_3D('',#1196,#984,#985);
#809=AXIS2_PLACEMENT_3D('',#1198,#987,#988);
#810=AXIS2_PLACEMENT_3D('',#1202,#990,#991);
#811=AXIS2_PLACEMENT_3D('',#1204,#993,#994);
#812=AXIS2_PLACEMENT_3D('',#1208,#996,#997);
#813=AXIS2_PLACEMENT_3D('',#1214,#1001,#1002);
#814=AXIS2_PLACEMENT_3D('',#1217,#1005,#1006);
#815=AXIS2_PLACEMENT_3D('',#1219,#1008,#1009);
#816=AXIS2_PLACEMENT_3D('',#1221,#1011,#1012);
#817=AXIS2_PLACEMENT_3D('',#1222,#1013,#1014);
#818=AXIS2_PLACEMENT_3D('',#1223,#1015,#1016);
#819=AXIS2_PLACEMENT_3D('',#1225,#1018,#1019);
#820=AXIS2_PLACEMENT_3D('',#1226,#1020,#1021);
#821=AXIS2_PLACEMENT_3D('',#1227,#1022,#1023);
#822=AXIS2_PLACEMENT_3D('',#1229,#1025,#1026);
#823=DIRECTION('axis',(0.,0.,1.));
#824=DIRECTION('refdir',(1.,0.,0.));
#825=DIRECTION('center_axis',(-1.,0.,-9.55030558817341E-17));
#826=DIRECTION('ref_axis',(9.55030558817341E-17,0.,-1.));
#827=DIRECTION('center_axis',(-1.,0.,-1.11022302462516E-16));
#828=DIRECTION('ref_axis',(9.55030558817341E-17,0.,-1.));
#829=DIRECTION('',(-1.,0.,-9.55030558817341E-17));
#830=DIRECTION('center_axis',(1.,0.,9.15647855360954E-17));
#831=DIRECTION('ref_axis',(9.55030558817341E-17,0.,-1.));
#832=DIRECTION('center_axis',(-1.,0.,0.));
#833=DIRECTION('ref_axis',(0.,0.,-1.));
#834=DIRECTION('center_axis',(-1.,0.,-1.11022302462516E-16));
#835=DIRECTION('ref_axis',(0.,0.,-1.));
#836=DIRECTION('',(-1.,0.,0.));
#837=DIRECTION('center_axis',(1.,0.,9.15647855360954E-17));
#838=DIRECTION('ref_axis',(0.,0.,-1.));
#839=DIRECTION('center_axis',(-1.35585468084861E-32,-1.,1.22124532708767E-16));
#840=DIRECTION('ref_axis',(9.15647855360954E-17,-1.22124532708767E-16,-1.));
#841=DIRECTION('',(1.,-4.44089209850065E-15,1.11022302462516E-16));
#842=DIRECTION('',(9.15647855360954E-17,-1.22124532708767E-16,-1.));
#843=DIRECTION('',(1.,0.,1.11022302462516E-16));
#844=DIRECTION('',(-9.15647855360954E-17,0.,1.));
#845=DIRECTION('center_axis',(-1.11022302462516E-16,-4.44089209850063E-16,
1.));
#846=DIRECTION('ref_axis',(4.06629332588151E-32,-1.,-4.44089209850063E-16));
#847=DIRECTION('',(-4.06629332588151E-32,1.,4.44089209850063E-16));
#848=DIRECTION('center_axis',(-1.11022302462516E-16,-4.44089209850063E-16,
1.));
#849=DIRECTION('ref_axis',(0.707106781186548,-0.707106781186547,0.));
#850=DIRECTION('',(4.06629332588151E-32,-1.,-4.44089209850063E-16));
#851=DIRECTION('',(1.,0.,1.11022302462516E-16));
#852=DIRECTION('center_axis',(1.11022302462516E-16,0.,-1.));
#853=DIRECTION('ref_axis',(0.,1.,0.));
#854=DIRECTION('',(0.,-1.,0.));
#855=DIRECTION('',(1.,0.,1.11022302462516E-16));
#856=DIRECTION('',(0.,1.,0.));
#857=DIRECTION('center_axis',(1.11022302462516E-16,0.,-1.));
#858=DIRECTION('ref_axis',(0.707106781186548,-0.707106781186547,0.));
#859=DIRECTION('center_axis',(1.,0.,1.11022302462516E-16));
#860=DIRECTION('ref_axis',(1.11022302462516E-16,0.,-1.));
#861=DIRECTION('',(-9.15647855360954E-17,0.,1.));
#862=DIRECTION('center_axis',(1.,0.,9.15647855360954E-17));
#863=DIRECTION('ref_axis',(9.15647855360954E-17,0.,-1.));
#864=DIRECTION('',(9.15647855360954E-17,0.,-1.));
#865=DIRECTION('',(0.,1.,0.));
#866=DIRECTION('',(0.,1.,0.));
#867=DIRECTION('',(-9.15647855360954E-17,0.,1.));
#868=DIRECTION('center_axis',(1.,0.,9.15647855360954E-17));
#869=DIRECTION('ref_axis',(9.15647855360954E-17,0.,-1.));
#870=DIRECTION('',(-9.15647855360954E-17,0.,1.));
#871=DIRECTION('',(0.,-1.,0.));
#872=DIRECTION('',(-9.15647855360954E-17,0.,1.));
#873=DIRECTION('',(0.,-1.,0.));
#874=DIRECTION('',(9.15647855360954E-17,0.,-1.));
#875=DIRECTION('center_axis',(0.,1.,0.));
#876=DIRECTION('ref_axis',(-0.790569415042095,0.,-0.612372435695795));
#877=DIRECTION('center_axis',(0.,-1.,0.));
#878=DIRECTION('ref_axis',(-0.790569415042095,0.,-0.612372435695795));
#879=DIRECTION('',(0.,1.,0.));
#880=DIRECTION('center_axis',(0.,1.,0.));
#881=DIRECTION('ref_axis',(-0.790569415042095,0.,-0.612372435695795));
#882=DIRECTION('center_axis',(0.,1.,0.));
#883=DIRECTION('ref_axis',(1.,0.,0.));
#884=DIRECTION('center_axis',(0.,1.,0.));
#885=DIRECTION('ref_axis',(1.,0.,0.));
#886=DIRECTION('',(0.,1.,0.));
#887=DIRECTION('center_axis',(0.,-1.,0.));
#888=DIRECTION('ref_axis',(1.,0.,0.));
#889=DIRECTION('center_axis',(0.,1.,0.));
#890=DIRECTION('ref_axis',(0.790569415042095,0.,-0.612372435695795));
#891=DIRECTION('center_axis',(0.,-1.,0.));
#892=DIRECTION('ref_axis',(0.790569415042095,0.,-0.612372435695795));
#893=DIRECTION('',(0.,1.,0.));
#894=DIRECTION('center_axis',(0.,1.,0.));
#895=DIRECTION('ref_axis',(0.790569415042095,0.,-0.612372435695795));
#896=DIRECTION('',(0.,-1.,0.));
#897=DIRECTION('center_axis',(-1.,0.,4.57823927680477E-17));
#898=DIRECTION('ref_axis',(4.57823927680477E-17,0.,1.));
#899=DIRECTION('',(-4.57823927680477E-17,0.,-1.));
#900=DIRECTION('',(0.,1.,0.));
#901=DIRECTION('',(-4.57823927680477E-17,0.,-1.));
#902=DIRECTION('',(0.,1.,0.));
#903=DIRECTION('',(0.,1.,0.));
#904=DIRECTION('',(4.57823927680477E-17,0.,1.));
#905=DIRECTION('center_axis',(0.,-1.,0.));
#906=DIRECTION('ref_axis',(0.,0.,-1.));
#907=DIRECTION('',(-1.,0.,0.));
#908=DIRECTION('center_axis',(0.,1.,0.));
#909=DIRECTION('ref_axis',(1.,0.,0.));
#910=DIRECTION('center_axis',(0.,-1.,0.));
#911=DIRECTION('ref_axis',(-1.,0.,0.));
#912=DIRECTION('center_axis',(0.,-1.,0.));
#913=DIRECTION('ref_axis',(0.,0.,-1.));
#914=DIRECTION('',(-1.,0.,0.));
#915=DIRECTION('center_axis',(0.,-1.,0.));
#916=DIRECTION('ref_axis',(-1.,0.,0.));
#917=DIRECTION('center_axis',(0.,0.,-1.));
#918=DIRECTION('ref_axis',(-1.,0.,0.));
#919=DIRECTION('center_axis',(0.,0.,-1.));
#920=DIRECTION('ref_axis',(0.707106781186548,-0.707106781186547,0.));
#921=DIRECTION('',(-1.,0.,0.));
#922=DIRECTION('center_axis',(0.,0.,-1.));
#923=DIRECTION('ref_axis',(-0.707106781186547,-0.707106781186547,0.));
#924=DIRECTION('',(-1.,0.,0.));
#925=DIRECTION('center_axis',(0.,-1.,0.));
#926=DIRECTION('ref_axis',(0.,0.,-1.));
#927=DIRECTION('center_axis',(0.,1.,0.));
#928=DIRECTION('ref_axis',(0.517812343201204,0.,0.855494229804315));
#929=DIRECTION('center_axis',(0.,-1.,0.));
#930=DIRECTION('ref_axis',(-1.,0.,0.));
#931=DIRECTION('center_axis',(0.,1.,0.));
#932=DIRECTION('ref_axis',(-0.992029696267167,0.,-0.126004292482728));
#933=DIRECTION('center_axis',(0.,-1.,0.));
#934=DIRECTION('ref_axis',(1.,0.,0.));
#935=DIRECTION('',(0.,1.,0.));
#936=DIRECTION('center_axis',(0.,1.,0.));
#937=DIRECTION('ref_axis',(0.,0.,1.));
#938=DIRECTION('',(4.57823927680477E-17,0.,1.));
#939=DIRECTION('',(-1.,0.,0.));
#940=DIRECTION('',(9.15647855360954E-17,0.,-1.));
#941=DIRECTION('center_axis',(0.,1.,0.));
#942=DIRECTION('ref_axis',(-1.,0.,0.));
#943=DIRECTION('center_axis',(0.,1.,0.));
#944=DIRECTION('ref_axis',(-1.,0.,0.));
#945=DIRECTION('',(0.,-1.,0.));
#946=DIRECTION('center_axis',(0.,1.,0.));
#947=DIRECTION('ref_axis',(0.517812343201204,0.,0.855494229804315));
#948=DIRECTION('center_axis',(0.,-1.,0.));
#949=DIRECTION('ref_axis',(0.517812343201204,0.,0.855494229804315));
#950=DIRECTION('center_axis',(0.,1.,0.));
#951=DIRECTION('ref_axis',(-1.,0.,0.));
#952=DIRECTION('center_axis',(0.,1.,0.));
#953=DIRECTION('ref_axis',(-1.,0.,0.));
#954=DIRECTION('',(0.,-1.,0.));
#955=DIRECTION('center_axis',(0.,1.,0.));
#956=DIRECTION('ref_axis',(-1.,0.,0.));
#957=DIRECTION('center_axis',(0.,1.,0.));
#958=DIRECTION('ref_axis',(-1.,0.,0.));
#959=DIRECTION('',(0.,-1.,0.));
#960=DIRECTION('center_axis',(-1.,0.,0.));
#961=DIRECTION('ref_axis',(0.,-1.,0.));
#962=DIRECTION('',(0.,1.,0.));
#963=DIRECTION('',(0.,0.,1.));
#964=DIRECTION('',(0.,-1.,0.));
#965=DIRECTION('',(0.,0.,1.));
#966=DIRECTION('center_axis',(0.,1.,0.));
#967=DIRECTION('ref_axis',(-1.,0.,0.));
#968=DIRECTION('',(1.,0.,0.));
#969=DIRECTION('',(-1.,0.,0.));
#970=DIRECTION('',(0.,0.,1.));
#971=DIRECTION('center_axis',(1.,-4.16333634234434E-16,0.));
#972=DIRECTION('ref_axis',(4.16333634234434E-16,1.,0.));
#973=DIRECTION('',(-4.16333634234434E-16,-1.,0.));
#974=DIRECTION('',(4.16333634234434E-16,1.,0.));
#975=DIRECTION('',(0.,0.,1.));
#976=DIRECTION('center_axis',(0.,0.,-1.));
#977=DIRECTION('ref_axis',(-1.,0.,0.));
#978=DIRECTION('',(1.,0.,0.));
#979=DIRECTION('center_axis',(0.,0.,1.));
#980=DIRECTION('ref_axis',(0.707106781186547,-0.707106781186548,0.));
#981=DIRECTION('',(0.,-1.,0.));
#982=DIRECTION('',(1.,0.,0.));
#983=DIRECTION('',(0.,-1.,0.));
#984=DIRECTION('center_axis',(0.,0.,1.));
#985=DIRECTION('ref_axis',(-0.707106781186547,-0.707106781186547,0.));
#986=DIRECTION('',(1.,0.,0.));
#987=DIRECTION('center_axis',(9.15647855360954E-17,0.,-1.));
#988=DIRECTION('ref_axis',(0.707106781186547,-0.707106781186548,0.));
#989=DIRECTION('',(-9.15647855360954E-17,0.,1.));
#990=DIRECTION('center_axis',(0.,0.,-1.));
#991=DIRECTION('ref_axis',(0.707106781186547,-0.707106781186548,0.));
#992=DIRECTION('',(9.15647855360954E-17,0.,-1.));
#993=DIRECTION('center_axis',(0.,0.,1.));
#994=DIRECTION('ref_axis',(1.,0.,0.));
#995=DIRECTION('',(-1.,0.,0.));
#996=DIRECTION('center_axis',(0.,0.,-1.));
#997=DIRECTION('ref_axis',(-0.707106781186547,-0.707106781186547,0.));
#998=DIRECTION('',(0.,1.,0.));
#999=DIRECTION('',(-1.,0.,0.));
#1000=DIRECTION('',(0.,-1.,0.));
#1001=DIRECTION('center_axis',(0.,1.,0.));
#1002=DIRECTION('ref_axis',(0.,0.,1.));
#1003=DIRECTION('',(1.,0.,0.));
#1004=DIRECTION('',(-4.57823927680477E-17,0.,-1.));
#1005=DIRECTION('center_axis',(4.57823927680477E-17,0.,1.));
#1006=DIRECTION('ref_axis',(-0.707106781186547,-0.707106781186547,0.));
#1007=DIRECTION('',(4.57823927680477E-17,0.,1.));
#1008=DIRECTION('center_axis',(-1.,0.,4.57823927680477E-17));
#1009=DIRECTION('ref_axis',(4.57823927680477E-17,0.,1.));
#1010=DIRECTION('',(-4.57823927680477E-17,0.,-1.));
#1011=DIRECTION('center_axis',(9.15647855360954E-17,0.,-1.));
#1012=DIRECTION('ref_axis',(0.707106781186548,-0.707106781186547,0.));
#1013=DIRECTION('center_axis',(0.,0.,1.));
#1014=DIRECTION('ref_axis',(0.707106781186548,-0.707106781186547,0.));
#1015=DIRECTION('center_axis',(0.,0.,-1.));
#1016=DIRECTION('ref_axis',(-1.,0.,0.));
#1017=DIRECTION('',(1.,0.,-1.81260901979617E-16));
#1018=DIRECTION('center_axis',(0.,0.,1.));
#1019=DIRECTION('ref_axis',(-0.707106781186547,-0.707106781186547,0.));
#1020=DIRECTION('center_axis',(4.57823927680477E-17,0.,1.));
#1021=DIRECTION('ref_axis',(-0.707106781186547,-0.707106781186547,0.));
#1022=DIRECTION('center_axis',(1.,0.,9.15647855360954E-17));
#1023=DIRECTION('ref_axis',(9.15647855360954E-17,0.,-1.));
#1024=DIRECTION('',(-9.15647855360954E-17,0.,1.));
#1025=DIRECTION('center_axis',(0.,1.,0.));
#1026=DIRECTION('ref_axis',(0.,0.,1.));
#1027=CARTESIAN_POINT('',(0.,0.,0.));
#1028=CARTESIAN_POINT('Origin',(26.5,9.,9.49999999999999));
#1029=CARTESIAN_POINT('',(26.5,9.,10.8));
#1030=CARTESIAN_POINT('Origin',(26.5,9.,9.49999999999999));
#1031=CARTESIAN_POINT('',(20.,9.,10.8));
#1032=CARTESIAN_POINT('',(26.5,9.,10.8));
#1033=CARTESIAN_POINT('Origin',(20.,9.,9.49999999999999));
#1034=CARTESIAN_POINT('Origin',(26.5,9.,22.5));
#1035=CARTESIAN_POINT('',(26.5,9.,23.8));
#1036=CARTESIAN_POINT('Origin',(26.5,9.,22.5));
#1037=CARTESIAN_POINT('',(20.,9.,23.8));
#1038=CARTESIAN_POINT('',(26.5,9.,23.8));
#1039=CARTESIAN_POINT('Origin',(20.,9.,22.5));
#1040=CARTESIAN_POINT('Origin',(21.5,4.,28.5));
#1041=CARTESIAN_POINT('',(21.3989794855664,4.00000000000002,3.49999999999999));
#1042=CARTESIAN_POINT('',(26.5,4.,3.49999999999999));
#1043=CARTESIAN_POINT('',(21.4747448713916,4.00000000000002,3.49999999999999));
#1044=CARTESIAN_POINT('',(26.5,4.,28.5));
#1045=CARTESIAN_POINT('',(26.5,4.,28.5));
#1046=CARTESIAN_POINT('',(21.3989794855664,4.00000000000001,28.5));
#1047=CARTESIAN_POINT('',(21.5,4.,28.5));
#1048=CARTESIAN_POINT('',(21.3989794855664,4.00000000000001,24.25));
#1049=CARTESIAN_POINT('Origin',(21.5,14.,28.5));
#1050=CARTESIAN_POINT('',(21.5,5.,28.5));
#1051=CARTESIAN_POINT('',(21.5,14.,28.5));
#1052=CARTESIAN_POINT('',(21.5,7.00000000000001,28.5));
#1053=CARTESIAN_POINT('Origin',(16.5,5.,28.5));
#1054=CARTESIAN_POINT('',(26.5,14.,28.5));
#1055=CARTESIAN_POINT('',(26.5,14.,28.5));
#1056=CARTESIAN_POINT('',(21.5,14.,28.5));
#1057=CARTESIAN_POINT('Origin',(21.5,4.,3.49999999999999));
#1058=CARTESIAN_POINT('',(21.5,14.,3.49999999999999));
#1059=CARTESIAN_POINT('',(21.5,5.,3.49999999999999));
#1060=CARTESIAN_POINT('',(21.5,2.,3.49999999999999));
#1061=CARTESIAN_POINT('',(26.5,14.,3.49999999999999));
#1062=CARTESIAN_POINT('',(21.5,14.,3.49999999999999));
#1063=CARTESIAN_POINT('',(26.5,4.,3.49999999999999));
#1064=CARTESIAN_POINT('Origin',(16.5,5.,3.49999999999999));
#1065=CARTESIAN_POINT('Origin',(26.5,9.,16.));
#1066=CARTESIAN_POINT('',(26.5,14.,3.49999999999999));
#1067=CARTESIAN_POINT('Origin',(21.5,0.,48.5));
#1068=CARTESIAN_POINT('',(21.5,14.,48.5));
#1069=CARTESIAN_POINT('',(21.5,14.,48.5));
#1070=CARTESIAN_POINT('',(21.5,11.,48.5));
#1071=CARTESIAN_POINT('',(21.5,0.,48.5));
#1072=CARTESIAN_POINT('',(21.5,5.,48.5));
#1073=CARTESIAN_POINT('',(21.5,0.,48.5));
#1074=CARTESIAN_POINT('',(21.5,5.,24.25));
#1075=CARTESIAN_POINT('Origin',(21.5,0.,48.5));
#1076=CARTESIAN_POINT('',(21.5,5.,-48.5));
#1077=CARTESIAN_POINT('',(21.5,5.,24.25));
#1078=CARTESIAN_POINT('',(21.5,11.,-48.5));
#1079=CARTESIAN_POINT('',(21.5,0.,-48.5));
#1080=CARTESIAN_POINT('',(21.5,11.,-37.7540333075852));
#1081=CARTESIAN_POINT('',(21.5,11.,48.5));
#1082=CARTESIAN_POINT('',(21.5,14.,-37.7540333075852));
#1083=CARTESIAN_POINT('',(21.5,0.,-37.7540333075852));
#1084=CARTESIAN_POINT('',(21.5,14.,48.5));
#1085=CARTESIAN_POINT('Origin',(26.5,0.,-37.7540333075852));
#1086=CARTESIAN_POINT('',(25.25,11.,-42.5952624903444));
#1087=CARTESIAN_POINT('Origin',(26.5,11.,-37.7540333075852));
#1088=CARTESIAN_POINT('',(25.25,14.,-42.5952624903444));
#1089=CARTESIAN_POINT('',(25.25,0.,-42.5952624903444));
#1090=CARTESIAN_POINT('Origin',(26.5,14.,-37.7540333075852));
#1091=CARTESIAN_POINT('Origin',(24.5,0.,-45.5));
#1092=CARTESIAN_POINT('',(24.5,11.,-48.5));
#1093=CARTESIAN_POINT('Origin',(24.5,11.,-45.5));
#1094=CARTESIAN_POINT('',(24.5,14.,-48.5));
#1095=CARTESIAN_POINT('',(24.5,0.,-48.5));
#1096=CARTESIAN_POINT('Origin',(24.5,14.,-45.5));
#1097=CARTESIAN_POINT('Origin',(-26.5,0.,-37.7540333075852));
#1098=CARTESIAN_POINT('',(-25.25,11.,-42.5952624903444));
#1099=CARTESIAN_POINT('',(-21.5,11.,-37.7540333075852));
#1100=CARTESIAN_POINT('Origin',(-26.5,11.,-37.7540333075852));
#1101=CARTESIAN_POINT('',(-21.5,14.,-37.7540333075852));
#1102=CARTESIAN_POINT('',(-21.5,0.,-37.7540333075852));
#1103=CARTESIAN_POINT('',(-25.25,14.,-42.5952624903444));
#1104=CARTESIAN_POINT('Origin',(-26.5,14.,-37.7540333075852));
#1105=CARTESIAN_POINT('',(-25.25,0.,-42.5952624903444));
#1106=CARTESIAN_POINT('Origin',(-21.5,0.,-48.5));
#1107=CARTESIAN_POINT('',(-21.5,11.,-48.5));
#1108=CARTESIAN_POINT('',(-21.5,11.,-48.5));
#1109=CARTESIAN_POINT('',(-21.5,5.,-48.5));
#1110=CARTESIAN_POINT('',(-21.5,0.,-48.5));
#1111=CARTESIAN_POINT('',(-21.5,5.,48.5));
#1112=CARTESIAN_POINT('',(-21.5,5.,-24.25));
#1113=CARTESIAN_POINT('',(-21.5,11.,48.5));
#1114=CARTESIAN_POINT('',(-21.5,0.,48.5));
#1115=CARTESIAN_POINT('',(-21.5,14.,48.5));
#1116=CARTESIAN_POINT('',(-21.5,0.,48.5));
#1117=CARTESIAN_POINT('',(-21.5,14.,-48.5));
#1118=CARTESIAN_POINT('Origin',(-24.5,11.,-45.5));
#1119=CARTESIAN_POINT('',(-24.5,11.,-48.5));
#1120=CARTESIAN_POINT('',(-1.5,11.,-48.5));
#1121=CARTESIAN_POINT('Origin',(-24.5,11.,-45.5));
#1122=CARTESIAN_POINT('',(-22.9,11.,-45.5));
#1123=CARTESIAN_POINT('Origin',(-24.5,11.,-45.5));
#1124=CARTESIAN_POINT('Origin',(24.5,11.,-45.5));
#1125=CARTESIAN_POINT('',(23.,11.,-48.5));
#1126=CARTESIAN_POINT('',(26.1,11.,-45.5));
#1127=CARTESIAN_POINT('Origin',(24.5,11.,-45.5));
#1128=CARTESIAN_POINT('Origin',(21.5,0.,48.5));
#1129=CARTESIAN_POINT('',(16.5,0.,48.5));
#1130=CARTESIAN_POINT('Origin',(16.5,5.,48.5));
#1131=CARTESIAN_POINT('',(-21.5,11.,48.5));
#1132=CARTESIAN_POINT('',(-16.5,0.,48.5));
#1133=CARTESIAN_POINT('Origin',(-16.5,5.,48.5));
#1134=CARTESIAN_POINT('',(10.75,0.,48.5));
#1135=CARTESIAN_POINT('Origin',(-2.22044604925031E-15,11.,51.5));
#1136=CARTESIAN_POINT('Origin',(0.,11.,12.9791666666666));
#1137=CARTESIAN_POINT('',(1.6,11.,51.5));
#1138=CARTESIAN_POINT('Origin',(0.,11.,51.5));
#1139=CARTESIAN_POINT('Origin',(-24.5,0.,-45.5));
#1140=CARTESIAN_POINT('',(-24.5,14.,-48.5));
#1141=CARTESIAN_POINT('Origin',(-24.5,14.,-45.5));
#1142=CARTESIAN_POINT('',(-24.5,0.,-48.5));
#1143=CARTESIAN_POINT('Origin',(2.22044604925031E-15,0.,0.));
#1144=CARTESIAN_POINT('',(-16.5,0.,-48.5));
#1145=CARTESIAN_POINT('',(-16.5,0.,-24.25));
#1146=CARTESIAN_POINT('',(16.5,0.,-48.5));
#1147=CARTESIAN_POINT('',(21.5,0.,-48.5));
#1148=CARTESIAN_POINT('',(16.5,0.,24.25));
#1149=CARTESIAN_POINT('Origin',(0.,0.,51.5));
#1150=CARTESIAN_POINT('',(1.6,14.,51.5));
#1151=CARTESIAN_POINT('Origin',(0.,14.,51.5));
#1152=CARTESIAN_POINT('',(1.6,0.,51.5));
#1153=CARTESIAN_POINT('Origin',(0.,0.,12.9791666666666));
#1154=CARTESIAN_POINT('Origin',(0.,14.,12.9791666666666));
#1155=CARTESIAN_POINT('Origin',(-24.5,0.,-45.5));
#1156=CARTESIAN_POINT('',(-22.9,14.,-45.5));
#1157=CARTESIAN_POINT('Origin',(-24.5,14.,-45.5));
#1158=CARTESIAN_POINT('',(-22.9,0.,-45.5));
#1159=CARTESIAN_POINT('Origin',(24.5,0.,-45.5));
#1160=CARTESIAN_POINT('',(26.1,14.,-45.5));
#1161=CARTESIAN_POINT('Origin',(24.5,14.,-45.5));
#1162=CARTESIAN_POINT('',(26.1,0.,-45.5));
#1163=CARTESIAN_POINT('Origin',(-12.5,9.50000000000001,-48.5));
#1164=CARTESIAN_POINT('',(-12.5,1.5,-47.));
#1165=CARTESIAN_POINT('',(-12.5,9.50000000000001,-47.));
#1166=CARTESIAN_POINT('',(-12.5,4.75,-47.));
#1167=CARTESIAN_POINT('',(-12.5,1.5,-48.5));
#1168=CARTESIAN_POINT('',(-12.5,1.5,-48.5));
#1169=CARTESIAN_POINT('',(-12.5,9.50000000000001,-48.5));
#1170=CARTESIAN_POINT('',(-12.5,4.75,-48.5));
#1171=CARTESIAN_POINT('',(-12.5,9.50000000000001,-48.5));
#1172=CARTESIAN_POINT('Origin',(12.5,9.5,-48.5));
#1173=CARTESIAN_POINT('',(12.5,9.5,-47.));
#1174=CARTESIAN_POINT('',(17.,9.5,-47.));
#1175=CARTESIAN_POINT('',(12.5,9.5,-48.5));
#1176=CARTESIAN_POINT('',(17.,9.5,-48.5));
#1177=CARTESIAN_POINT('',(12.5,9.5,-48.5));
#1178=CARTESIAN_POINT('Origin',(12.5,1.5,-48.5));
#1179=CARTESIAN_POINT('',(12.5,1.5,-47.));
#1180=CARTESIAN_POINT('',(12.5,0.750000000000002,-47.));
#1181=CARTESIAN_POINT('',(12.5,1.5,-48.5));
#1182=CARTESIAN_POINT('',(12.5,0.750000000000002,-48.5));
#1183=CARTESIAN_POINT('',(12.5,1.5,-48.5));
#1184=CARTESIAN_POINT('Origin',(21.5,0.,-47.));
#1185=CARTESIAN_POINT('',(15.,1.5,-47.));
#1186=CARTESIAN_POINT('',(10.75,1.5,-47.));
#1187=CARTESIAN_POINT('',(20.,6.5,-47.));
#1188=CARTESIAN_POINT('Origin',(15.,6.5,-47.));
#1189=CARTESIAN_POINT('',(20.,14.,-47.));
#1190=CARTESIAN_POINT('',(20.,0.,-47.));
#1191=CARTESIAN_POINT('',(-20.,14.,-47.));
#1192=CARTESIAN_POINT('',(10.75,14.,-47.));
#1193=CARTESIAN_POINT('',(-20.,6.5,-47.));
#1194=CARTESIAN_POINT('',(-20.,0.,-47.));
#1195=CARTESIAN_POINT('',(-15.,1.5,-47.));
#1196=CARTESIAN_POINT('Origin',(-15.,6.5,-47.));
#1197=CARTESIAN_POINT('',(10.75,1.5,-47.));
#1198=CARTESIAN_POINT('Origin',(15.,6.5,24.25));
#1199=CARTESIAN_POINT('',(15.,1.5,47.));
#1200=CARTESIAN_POINT('',(15.,1.5,24.25));
#1201=CARTESIAN_POINT('',(20.,6.5,47.));
#1202=CARTESIAN_POINT('Origin',(15.,6.5,47.));
#1203=CARTESIAN_POINT('',(20.,6.5,24.25));
#1204=CARTESIAN_POINT('Origin',(-21.5,0.,47.));
#1205=CARTESIAN_POINT('',(-15.,1.5,47.));
#1206=CARTESIAN_POINT('',(-10.75,1.5,47.));
#1207=CARTESIAN_POINT('',(-20.,6.5,47.));
#1208=CARTESIAN_POINT('Origin',(-15.,6.5,47.));
#1209=CARTESIAN_POINT('',(-20.,14.,47.));
#1210=CARTESIAN_POINT('',(-20.,0.,47.));
#1211=CARTESIAN_POINT('',(20.,14.,47.));
#1212=CARTESIAN_POINT('',(-10.75,14.,47.));
#1213=CARTESIAN_POINT('',(20.,0.,47.));
#1214=CARTESIAN_POINT('Origin',(2.22044604925031E-15,1.5,0.));
#1215=CARTESIAN_POINT('',(4.50000000000001,1.5,-48.5));
#1216=CARTESIAN_POINT('',(-15.,1.5,-24.25));
#1217=CARTESIAN_POINT('Origin',(-15.,6.5,-24.25));
#1218=CARTESIAN_POINT('',(-20.,6.5,-24.25));
#1219=CARTESIAN_POINT('Origin',(-20.,0.,-48.5));
#1220=CARTESIAN_POINT('',(-20.,14.,-24.25));
#1221=CARTESIAN_POINT('Origin',(16.5,5.,24.25));
#1222=CARTESIAN_POINT('Origin',(16.5,5.,-48.5));
#1223=CARTESIAN_POINT('Origin',(21.5,0.,-48.5));
#1224=CARTESIAN_POINT('',(12.25,14.,-48.5));
#1225=CARTESIAN_POINT('Origin',(-16.5,5.,-48.5));
#1226=CARTESIAN_POINT('Origin',(-16.5,5.,-24.25));
#1227=CARTESIAN_POINT('Origin',(20.,0.,48.5));
#1228=CARTESIAN_POINT('',(20.,14.,24.25));
#1229=CARTESIAN_POINT('Origin',(4.44089209850063E-15,14.,0.));
#1230=CARTESIAN_POINT('polyline point',(21.5,14.,28.5));
#1231=CARTESIAN_POINT('polyline point',(21.5,14.,3.49999999999999));
#1232=CARTESIAN_POINT('polyline point',(21.5,14.,3.49999999999999));
#1233=CARTESIAN_POINT('polyline point',(21.5,4.,3.49999999999999));
#1234=CARTESIAN_POINT('polyline point',(21.5,4.,3.49999999999999));
#1235=CARTESIAN_POINT('polyline point',(21.5,4.,28.5));
#1236=CARTESIAN_POINT('polyline point',(21.5,4.,28.5));
#1237=CARTESIAN_POINT('polyline point',(21.5,14.,28.5));
#1238=CARTESIAN_POINT('polyline point',(21.5,14.,48.5));
#1239=CARTESIAN_POINT('polyline point',(21.5,14.,-37.7540333075852));
#1240=CARTESIAN_POINT('polyline point',(21.5,5.,48.5));
#1241=CARTESIAN_POINT('polyline point',(21.5,11.,48.5));
#1242=CARTESIAN_POINT('',(21.5,0.,0.));
#1243=UNCERTAINTY_MEASURE_WITH_UNIT(LENGTH_MEASURE(0.01),#1247,
'DISTANCE_ACCURACY_VALUE',
'Maximum model space distance between geometric entities at asserted c
onnectivities');
#1244=UNCERTAINTY_MEASURE_WITH_UNIT(LENGTH_MEASURE(0.01),#1247,
'DISTANCE_ACCURACY_VALUE',
'Maximum model space distance between geometric entities at asserted c
onnectivities');
#1245=(
GEOMETRIC_REPRESENTATION_CONTEXT(3)
GLOBAL_UNCERTAINTY_ASSIGNED_CONTEXT((#1243))
GLOBAL_UNIT_ASSIGNED_CONTEXT((#1247,#1249,#1250))
REPRESENTATION_CONTEXT('','3D')
);
#1246=(
GEOMETRIC_REPRESENTATION_CONTEXT(3)
GLOBAL_UNCERTAINTY_ASSIGNED_CONTEXT((#1244))
GLOBAL_UNIT_ASSIGNED_CONTEXT((#1247,#1249,#1250))
REPRESENTATION_CONTEXT('','3D')
);
#1247=(
LENGTH_UNIT()
NAMED_UNIT(*)
SI_UNIT(.MILLI.,.METRE.)
);
#1248=(
LENGTH_UNIT()
NAMED_UNIT(*)
SI_UNIT(.CENTI.,.METRE.)
);
#1249=(
NAMED_UNIT(*)
PLANE_ANGLE_UNIT()
SI_UNIT($,.RADIAN.)
);
#1250=(
NAMED_UNIT(*)
SI_UNIT($,.STERADIAN.)
SOLID_ANGLE_UNIT()
);
#1251=SHAPE_DEFINITION_REPRESENTATION(#1252,#1253);
#1252=PRODUCT_DEFINITION_SHAPE('',$,#1255);
#1253=SHAPE_REPRESENTATION('',(#756),#1245);
#1254=PRODUCT_DEFINITION_CONTEXT('part definition',#1259,'design');
#1255=PRODUCT_DEFINITION('handle_monitor_case_under',
'handle_monitor_case_under',#1256,#1254);
#1256=PRODUCT_DEFINITION_FORMATION('',$,#1261);
#1257=PRODUCT_RELATED_PRODUCT_CATEGORY('handle_monitor_case_under',
'handle_monitor_case_under',(#1261));
#1258=APPLICATION_PROTOCOL_DEFINITION('international standard',
'automotive_design',2009,#1259);
#1259=APPLICATION_CONTEXT(
'Core Data for Automotive Mechanical Design Process');
#1260=PRODUCT_CONTEXT('part definition',#1259,'mechanical');
#1261=PRODUCT('handle_monitor_case_under','handle_monitor_case_under',$,
(#1260));
#1262=PRESENTATION_STYLE_ASSIGNMENT((#1266));
#1263=PRESENTATION_STYLE_ASSIGNMENT((#1267));
#1264=PRESENTATION_STYLE_ASSIGNMENT((#1268));
#1265=PRESENTATION_STYLE_ASSIGNMENT((#1269));
#1266=SURFACE_STYLE_USAGE(.BOTH.,#1274);
#1267=SURFACE_STYLE_USAGE(.BOTH.,#1275);
#1268=SURFACE_STYLE_USAGE(.BOTH.,#1276);
#1269=SURFACE_STYLE_USAGE(.BOTH.,#1277);
#1270=SURFACE_STYLE_RENDERING_WITH_PROPERTIES($,#1290,(#1272));
#1271=SURFACE_STYLE_RENDERING_WITH_PROPERTIES($,#1291,(#1273));
#1272=SURFACE_STYLE_TRANSPARENT(0.);
#1273=SURFACE_STYLE_TRANSPARENT(0.);
#1274=SURFACE_SIDE_STYLE('',(#1278,#1270));
#1275=SURFACE_SIDE_STYLE('',(#1279,#1271));
#1276=SURFACE_SIDE_STYLE('',(#1280));
#1277=SURFACE_SIDE_STYLE('',(#1281));
#1278=SURFACE_STYLE_FILL_AREA(#1282);
#1279=SURFACE_STYLE_FILL_AREA(#1283);
#1280=SURFACE_STYLE_FILL_AREA(#1284);
#1281=SURFACE_STYLE_FILL_AREA(#1285);
#1282=FILL_AREA_STYLE('',(#1286));
#1283=FILL_AREA_STYLE('',(#1287));
#1284=FILL_AREA_STYLE('',(#1288));
#1285=FILL_AREA_STYLE('',(#1289));
#1286=FILL_AREA_STYLE_COLOUR('',#1290);
#1287=FILL_AREA_STYLE_COLOUR('',#1291);
#1288=FILL_AREA_STYLE_COLOUR('',#1292);
#1289=FILL_AREA_STYLE_COLOUR('',#1293);
#1290=COLOUR_RGB('',0.749019607843137,0.749019607843137,0.749019607843137);
#1291=COLOUR_RGB('',0.352941176470588,0.352941176470588,0.352941176470588);
#1292=COLOUR_RGB('',1.,1.,0.);
#1293=COLOUR_RGB('',0.,0.,0.);
ENDSEC;
END-ISO-10303-21;
